<?xml version="1.0" encoding="utf-8" standalone="no"?>
<!DOCTYPE svg PUBLIC "-//W3C//DTD SVG 1.1//EN"
  "http://www.w3.org/Graphics/SVG/1.1/DTD/svg11.dtd">
<!-- Created with matplotlib (http://matplotlib.org/) -->
<svg height="345pt" version="1.1" viewBox="0 0 460 345" width="460pt" xmlns="http://www.w3.org/2000/svg" xmlns:xlink="http://www.w3.org/1999/xlink">
 <defs>
  <style type="text/css">
*{stroke-linecap:butt;stroke-linejoin:round;}
  </style>
 </defs>
 <g id="figure_1">
  <g id="patch_1">
   <path d="M 0 345.6 
L 460.8 345.6 
L 460.8 0 
L 0 0 
z
" style="fill:#ffffff;"/>
  </g>
  <g id="axes_1">
   <g id="patch_2">
    <path d="M 57.6 307.584 
L 414.72 307.584 
L 414.72 41.472 
L 57.6 41.472 
z
" style="fill:#ffffff;"/>
   </g>
   <g id="PolyCollection_1">
    <path clip-path="url(#p3e1ee693a9)" d="M 73.832727 179.310459 
L 73.832727 180.300733 
L 74.92584 179.557591 
L 76.018953 178.903685 
L 77.112066 178.255515 
L 78.205179 177.595231 
L 79.298292 176.881032 
L 80.391405 176.067955 
L 81.484518 175.139713 
L 82.577631 174.040076 
L 83.670744 172.739045 
L 84.763857 171.170591 
L 85.85697 169.293795 
L 86.950083 167.047945 
L 88.043196 164.321563 
L 89.136309 161.01668 
L 90.229421 157.009288 
L 91.322534 152.154603 
L 92.415647 146.303518 
L 93.50876 139.274608 
L 94.601873 130.915566 
L 95.694986 121.16052 
L 96.788099 110.084049 
L 97.881212 99.017645 
L 98.974325 89.781824 
L 100.067438 81.765505 
L 101.160551 75.601171 
L 102.253664 71.453518 
L 103.346777 69.535098 
L 104.43989 70.036821 
L 105.533003 73.359514 
L 106.626116 80.593838 
L 107.719229 93.214904 
L 108.812342 111.963161 
L 109.905455 131.49422 
L 110.998567 148.474492 
L 112.09168 161.906814 
L 113.184793 172.170866 
L 114.277906 179.973531 
L 115.371019 186.030449 
L 116.464132 190.749528 
L 117.557245 194.60179 
L 118.650358 197.872017 
L 119.743471 200.824409 
L 120.836584 203.794545 
L 121.929697 206.774753 
L 123.02281 209.864354 
L 124.115923 213.09353 
L 125.209036 216.586837 
L 126.302149 220.43965 
L 127.395262 224.671625 
L 128.488375 229.382963 
L 129.581488 234.53289 
L 130.674601 240.099898 
L 131.767713 246.101514 
L 132.860826 252.798713 
L 133.953939 259.60617 
L 135.047052 266.195128 
L 136.140165 272.030915 
L 137.233278 276.709645 
L 138.326391 279.83411 
L 139.419504 281.165719 
L 140.512617 280.46867 
L 141.60573 277.662575 
L 142.698843 272.695614 
L 143.791956 265.701853 
L 144.885069 257.469759 
L 145.978182 249.783817 
L 147.071295 242.248197 
L 148.164408 234.762804 
L 149.257521 227.832573 
L 150.350634 221.693424 
L 151.443747 216.593056 
L 152.53686 212.481894 
L 153.629972 209.316035 
L 154.723085 207.031756 
L 155.816198 205.591592 
L 156.909311 204.912395 
L 158.002424 204.880279 
L 159.095537 205.480323 
L 160.18865 206.719089 
L 161.281763 208.483521 
L 162.374876 210.808584 
L 163.467989 213.70546 
L 164.561102 217.164308 
L 165.654215 221.24328 
L 166.747328 225.917637 
L 167.840441 231.236185 
L 168.933554 237.128868 
L 170.026667 243.58301 
L 171.11978 250.923947 
L 172.212893 258.610218 
L 173.306006 266.272546 
L 174.399118 273.25342 
L 175.492231 279.064251 
L 176.585344 283.164043 
L 177.678457 285.293145 
L 178.77157 285.158505 
L 179.864683 282.614214 
L 180.957796 277.492448 
L 182.050909 269.836549 
L 183.144022 260.168667 
L 184.237135 250.958389 
L 185.330248 242.033718 
L 186.423361 233.159942 
L 187.516474 224.937535 
L 188.609587 217.623048 
L 189.7027 211.497698 
L 190.795813 206.551886 
L 191.888926 202.690543 
L 192.982039 199.762256 
L 194.075152 197.709681 
L 195.168264 196.343003 
L 196.261377 195.664916 
L 197.35449 195.51534 
L 198.447603 195.927104 
L 199.540716 196.733234 
L 200.633829 197.950467 
L 201.726942 199.613185 
L 202.820055 201.743038 
L 203.913168 204.332663 
L 205.006281 207.477802 
L 206.099394 211.207038 
L 207.192507 215.576046 
L 208.28562 220.637322 
L 209.378733 226.455591 
L 210.471846 233.030318 
L 211.564959 240.35056 
L 212.658072 248.719895 
L 213.751185 257.766259 
L 214.844298 267.040742 
L 215.93741 275.689906 
L 217.030523 282.996369 
L 218.123636 288.309278 
L 219.216749 291.281204 
L 220.309862 291.694998 
L 221.402975 289.264665 
L 222.496088 283.634381 
L 223.589201 274.607019 
L 224.682314 262.486243 
L 225.775427 250.786336 
L 226.86854 239.457263 
L 227.961653 228.207754 
L 229.054766 217.909812 
L 230.147879 208.958755 
L 231.240992 201.489213 
L 232.334105 195.604015 
L 233.427218 190.843569 
L 234.520331 186.993293 
L 235.613444 183.940745 
L 236.706556 181.671446 
L 237.799669 180.240623 
L 238.892782 179.110215 
L 239.985895 178.149516 
L 241.079008 177.266989 
L 242.172121 176.37628 
L 243.265234 175.458843 
L 244.358347 174.449463 
L 245.45146 173.301483 
L 246.544573 171.960942 
L 247.637686 170.377848 
L 248.730799 168.51296 
L 249.823912 166.288538 
L 250.917025 163.610839 
L 252.010138 160.38679 
L 253.103251 156.49895 
L 254.196364 151.827933 
L 255.289477 146.224347 
L 256.38259 139.532233 
L 257.475702 131.611316 
L 258.568815 122.4129 
L 259.661928 111.967117 
L 260.755041 100.9308 
L 261.848154 91.900251 
L 262.941267 83.994254 
L 264.03438 77.723464 
L 265.127493 73.369896 
L 266.220606 71.075683 
L 267.313719 71.118989 
L 268.406832 73.740514 
L 269.499945 79.696129 
L 270.593058 90.522579 
L 271.686171 106.868924 
L 272.779284 125.292545 
L 273.872397 142.012884 
L 274.96551 155.63959 
L 276.058623 166.220229 
L 277.151736 174.3108 
L 278.244848 180.531352 
L 279.337961 185.337098 
L 280.431074 189.142457 
L 281.524187 192.287189 
L 282.6173 195.005228 
L 283.710413 197.478557 
L 284.803526 199.959394 
L 285.896639 202.594677 
L 286.989752 205.344123 
L 288.082865 208.342825 
L 289.175978 211.654922 
L 290.269091 215.351997 
L 291.362204 219.498156 
L 292.455317 224.170537 
L 293.54843 229.424284 
L 294.641543 235.176299 
L 295.734656 241.486154 
L 296.827769 248.504566 
L 297.920882 256.09481 
L 299.013994 263.769444 
L 300.107107 270.966113 
L 301.20022 277.119886 
L 302.293333 281.744065 
L 303.386446 284.506976 
L 304.479559 285.089031 
L 305.572672 283.31655 
L 306.665785 279.069801 
L 307.758898 272.266291 
L 308.852011 263.235519 
L 309.945124 253.817548 
L 311.038237 245.038217 
L 312.13135 236.142819 
L 313.224463 227.760105 
L 314.317576 220.237761 
L 315.410689 213.809506 
L 316.503802 208.54483 
L 317.596915 204.415373 
L 318.690028 201.253472 
L 319.78314 198.973814 
L 320.876253 197.444653 
L 321.969366 196.608573 
L 323.062479 196.376045 
L 324.155592 196.658133 
L 325.248705 197.437804 
L 326.341818 198.584552 
L 327.434931 200.233573 
L 328.528044 202.327034 
L 329.621157 204.926371 
L 330.71427 208.070514 
L 331.807383 211.789499 
L 332.900496 216.148276 
L 333.993609 221.191374 
L 335.086722 226.980692 
L 336.179835 233.497947 
L 337.272948 240.756287 
L 338.366061 249.046871 
L 339.459174 257.968209 
L 340.552287 267.091746 
L 341.645399 275.569635 
L 342.738512 282.715522 
L 343.831625 287.8925 
L 344.924738 290.758195 
L 346.017851 291.09 
L 347.110964 288.601709 
L 348.204077 282.991451 
L 349.29719 274.037799 
L 350.390303 262.144483 
L 351.483416 250.712604 
L 352.576529 239.606097 
L 353.669642 228.621155 
L 354.762755 218.52801 
L 355.855868 209.775557 
L 356.948981 202.437612 
L 358.042094 196.56998 
L 359.135207 191.997035 
L 360.22832 188.247341 
L 361.321433 185.286018 
L 362.414545 183.06051 
L 363.507658 181.66863 
L 364.600771 180.671421 
L 365.693884 179.84011 
L 366.786997 179.13292 
L 367.88011 178.46805 
L 368.973223 177.804589 
L 370.066336 177.104685 
L 371.159449 176.319071 
L 372.252562 175.434943 
L 373.345675 174.396265 
L 374.438788 173.172996 
L 375.531901 171.702142 
L 376.625014 169.937373 
L 377.718127 167.838365 
L 378.81124 165.293787 
L 379.904353 162.212703 
L 380.997466 158.470988 
L 382.090579 153.950098 
L 383.183691 148.488267 
L 384.276804 141.921925 
L 385.369917 134.078175 
L 386.46303 124.863944 
L 387.556143 114.258309 
L 388.649256 102.788086 
L 389.742369 93.077258 
L 390.835482 84.598538 
L 391.928595 77.724231 
L 393.021708 72.842111 
L 394.114821 70.08786 
L 395.207934 69.686183 
L 396.301047 71.895961 
L 397.39416 77.347726 
L 398.487273 87.98776 
L 398.487273 83.911031 
L 398.487273 83.911031 
L 397.39416 71.066399 
L 396.301047 63.278547 
L 395.207934 59.933577 
L 394.114821 59.88646 
L 393.021708 62.809586 
L 391.928595 68.82733 
L 390.835482 77.87621 
L 389.742369 88.793354 
L 388.649256 99.968741 
L 387.556143 110.918302 
L 386.46303 121.04758 
L 385.369917 130.034749 
L 384.276804 137.863011 
L 383.183691 144.600423 
L 382.090579 150.292315 
L 380.997466 155.122913 
L 379.904353 159.135352 
L 378.81124 162.499012 
L 377.718127 165.278379 
L 376.625014 167.596516 
L 375.531901 169.526355 
L 374.438788 171.136712 
L 373.345675 172.488308 
L 372.252562 173.640261 
L 371.159449 174.627885 
L 370.066336 175.510906 
L 368.973223 176.321164 
L 367.88011 177.083513 
L 366.786997 177.908562 
L 365.693884 178.771224 
L 364.600771 179.737237 
L 363.507658 180.808714 
L 362.414545 182.077289 
L 361.321433 183.639659 
L 360.22832 185.711385 
L 359.135207 188.411533 
L 358.042094 191.978212 
L 356.948981 196.693924 
L 355.855868 202.869016 
L 354.762755 210.814779 
L 353.669642 220.741891 
L 352.576529 232.689106 
L 351.483416 246.272112 
L 350.390303 260.139168 
L 349.29719 270.213652 
L 348.204077 276.634174 
L 347.110964 280.546166 
L 346.017851 282.188042 
L 344.924738 281.628382 
L 343.831625 279.269626 
L 342.738512 275.161071 
L 341.645399 269.576974 
L 340.552287 262.912157 
L 339.459174 255.516533 
L 338.366061 247.592091 
L 337.272948 239.373718 
L 336.179835 231.770647 
L 335.086722 225.020938 
L 333.993609 219.143681 
L 332.900496 214.125403 
L 331.807383 209.834397 
L 330.71427 206.232821 
L 329.621157 203.232051 
L 328.528044 200.752961 
L 327.434931 198.732857 
L 326.341818 197.133514 
L 325.248705 195.924496 
L 324.155592 195.091804 
L 323.062479 194.647521 
L 321.969366 194.623675 
L 320.876253 195.045812 
L 319.78314 196.006523 
L 318.690028 197.613732 
L 317.596915 200.0007 
L 316.503802 203.336307 
L 315.410689 207.821598 
L 314.317576 213.638598 
L 313.224463 220.979513 
L 312.13135 229.785496 
L 311.038237 239.968666 
L 309.945124 250.987101 
L 308.852011 261.610169 
L 307.758898 268.817277 
L 306.665785 273.667795 
L 305.572672 276.57606 
L 304.479559 277.672138 
L 303.386446 276.981317 
L 302.293333 274.732507 
L 301.20022 271.072411 
L 300.107107 266.169206 
L 299.013994 260.476035 
L 297.920882 254.17828 
L 296.827769 247.1696 
L 295.734656 240.081985 
L 294.641543 233.393991 
L 293.54843 227.354712 
L 292.455317 221.99042 
L 291.362204 217.295351 
L 290.269091 213.201717 
L 289.175978 209.629433 
L 288.082865 206.504036 
L 286.989752 203.727241 
L 285.896639 201.208574 
L 284.803526 198.830048 
L 283.710413 196.449516 
L 282.6173 193.800388 
L 281.524187 190.266553 
L 280.431074 185.873805 
L 279.337961 180.552839 
L 278.244848 173.992651 
L 277.151736 165.794483 
L 276.058623 155.585915 
L 274.96551 143.577131 
L 273.872397 129.73558 
L 272.779284 115.13096 
L 271.686171 101.410559 
L 270.593058 86.967686 
L 269.499945 74.186391 
L 268.406832 65.882934 
L 267.313719 61.933002 
L 266.220606 61.370728 
L 265.127493 63.753482 
L 264.03438 69.095223 
L 262.941267 77.352507 
L 261.848154 87.523537 
L 260.755041 98.167597 
L 259.661928 108.74879 
L 258.568815 118.66694 
L 257.475702 127.508089 
L 256.38259 135.372657 
L 255.289477 142.188501 
L 254.196364 147.99719 
L 253.103251 152.92922 
L 252.010138 157.095281 
L 250.917025 160.602799 
L 249.823912 163.519866 
L 248.730799 165.976894 
L 247.637686 168.036923 
L 246.544573 169.77842 
L 245.45146 171.283777 
L 244.358347 172.579889 
L 243.265234 173.733815 
L 242.172121 174.790941 
L 241.079008 175.836164 
L 239.985895 176.912088 
L 238.892782 178.072007 
L 237.799669 179.316446 
L 236.706556 180.739164 
L 235.613444 182.400517 
L 234.520331 184.555142 
L 233.427218 187.326824 
L 232.334105 190.964243 
L 231.240992 195.762125 
L 230.147879 202.03067 
L 229.054766 210.096531 
L 227.961653 220.202743 
L 226.86854 232.389005 
L 225.775427 246.282689 
L 224.682314 260.458786 
L 223.589201 270.621784 
L 222.496088 277.112328 
L 221.402975 281.008297 
L 220.309862 282.611975 
L 219.216749 282.023614 
L 218.123636 279.588159 
L 217.030523 275.352732 
L 215.93741 269.643798 
L 214.844298 262.855309 
L 213.751185 255.324526 
L 212.658072 247.27411 
L 211.564959 238.957881 
L 210.471846 231.303581 
L 209.378733 224.514843 
L 208.28562 218.618243 
L 207.192507 213.586652 
L 206.099394 209.296054 
L 205.006281 205.695481 
L 203.913168 202.695584 
L 202.820055 200.216885 
L 201.726942 198.189453 
L 200.633829 196.574321 
L 199.540716 195.340074 
L 198.447603 194.464066 
L 197.35449 193.96299 
L 196.261377 193.850334 
L 195.168264 194.166032 
L 194.075152 194.99729 
L 192.982039 196.409177 
L 191.888926 198.559975 
L 190.795813 201.598207 
L 189.7027 205.734258 
L 188.609587 211.152042 
L 187.516474 218.04878 
L 186.423361 226.486326 
L 185.330248 236.388914 
L 184.237135 247.371278 
L 183.144022 258.459758 
L 182.050909 267.055277 
L 180.957796 272.548455 
L 179.864683 276.098309 
L 178.77157 277.779065 
L 177.678457 277.636071 
L 176.585344 275.841898 
L 175.492231 272.566488 
L 174.399118 267.991307 
L 173.306006 262.438541 
L 172.212893 256.282961 
L 171.11978 249.48992 
L 170.026667 242.288473 
L 168.933554 235.430981 
L 167.840441 229.204989 
L 166.747328 223.70025 
L 165.654215 218.907636 
L 164.561102 214.817187 
L 163.467989 211.360808 
L 162.374876 208.512782 
L 161.281763 206.194247 
L 160.18865 204.405235 
L 159.095537 203.111229 
L 158.002424 202.327329 
L 156.909311 202.070951 
L 155.816198 202.365836 
L 154.723085 203.294519 
L 153.629972 204.973904 
L 152.53686 207.500335 
L 151.443747 211.045899 
L 150.350634 215.711602 
L 149.257521 221.64116 
L 148.164408 228.829906 
L 147.071295 237.181576 
L 145.978182 246.392043 
L 144.885069 255.768363 
L 143.791956 263.896225 
L 142.698843 269.000625 
L 141.60573 272.513348 
L 140.512617 274.376473 
L 139.419504 274.649774 
L 138.326391 273.504565 
L 137.233278 270.929262 
L 136.140165 267.210286 
L 135.047052 262.587582 
L 133.953939 257.254283 
L 132.860826 251.335616 
L 131.767713 244.871498 
L 130.674601 238.506934 
L 129.581488 232.580087 
L 128.488375 227.191868 
L 127.395262 222.377361 
L 126.302149 218.112857 
L 125.209036 214.343451 
L 124.115923 210.984789 
L 123.02281 207.963367 
L 121.929697 205.156167 
L 120.836584 202.453885 
L 119.743471 199.699515 
L 118.650358 196.539146 
L 117.557245 192.183164 
L 116.464132 186.857751 
L 115.371019 180.418777 
L 114.277906 172.314514 
L 113.184793 162.221579 
L 112.09168 149.826322 
L 110.998567 135.513731 
L 109.905455 119.896404 
L 108.812342 104.728685 
L 107.719229 89.699093 
L 106.626116 75.17486 
L 105.533003 65.429276 
L 104.43989 60.592108 
L 103.346777 59.421871 
L 102.253664 61.243016 
L 101.160551 66.095745 
L 100.067438 74.135053 
L 98.974325 84.591318 
L 97.881212 95.793747 
L 96.788099 107.008493 
L 95.694986 117.513067 
L 94.601873 126.924075 
L 93.50876 135.230402 
L 92.415647 142.343755 
L 91.322534 148.432331 
L 90.229421 153.547409 
L 89.136309 157.850264 
L 88.043196 161.441799 
L 86.950083 164.413919 
L 85.85697 166.887334 
L 84.763857 168.948266 
L 83.670744 170.657085 
L 82.577631 172.093024 
L 81.484518 173.308137 
L 80.391405 174.344036 
L 79.298292 175.241671 
L 78.205179 176.070961 
L 77.112066 176.829045 
L 76.018953 177.603523 
L 74.92584 178.411391 
L 73.832727 179.310459 
z
" style="fill:#008000;fill-opacity:0.4;"/>
   </g>
   <g id="matplotlib.axis_1">
    <g id="xtick_1">
     <g id="line2d_1">
      <defs>
       <path d="M 0 0 
L 0 3.5 
" id="m059f2d20f1" style="stroke:#000000;stroke-width:0.8;"/>
      </defs>
      <g>
       <use style="stroke:#000000;stroke-width:0.8;" x="73.832727" xlink:href="#m059f2d20f1" y="307.584"/>
      </g>
     </g>
     <g id="text_1">
      <!-- 0.0 -->
      <defs>
       <path d="M 31.78125 66.40625 
Q 24.171875 66.40625 20.328125 58.90625 
Q 16.5 51.421875 16.5 36.375 
Q 16.5 21.390625 20.328125 13.890625 
Q 24.171875 6.390625 31.78125 6.390625 
Q 39.453125 6.390625 43.28125 13.890625 
Q 47.125 21.390625 47.125 36.375 
Q 47.125 51.421875 43.28125 58.90625 
Q 39.453125 66.40625 31.78125 66.40625 
M 31.78125 74.21875 
Q 44.046875 74.21875 50.515625 64.515625 
Q 56.984375 54.828125 56.984375 36.375 
Q 56.984375 17.96875 50.515625 8.265625 
Q 44.046875 -1.421875 31.78125 -1.421875 
Q 19.53125 -1.421875 13.0625 8.265625 
Q 6.59375 17.96875 6.59375 36.375 
Q 6.59375 54.828125 13.0625 64.515625 
Q 19.53125 74.21875 31.78125 74.21875 
" id="DejaVuSans-30"/>
       <path d="M 10.6875 12.40625 
L 21 12.40625 
L 21 0 
L 10.6875 0 
z
" id="DejaVuSans-2e"/>
      </defs>
      <g transform="translate(65.881165 322.182437)scale(0.1 -0.1)">
       <use xlink:href="#DejaVuSans-30"/>
       <use x="63.623047" xlink:href="#DejaVuSans-2e"/>
       <use x="95.410156" xlink:href="#DejaVuSans-30"/>
      </g>
     </g>
    </g>
    <g id="xtick_2">
     <g id="line2d_2">
      <g>
       <use style="stroke:#000000;stroke-width:0.8;" x="138.763636" xlink:href="#m059f2d20f1" y="307.584"/>
      </g>
     </g>
     <g id="text_2">
      <!-- 0.2 -->
      <defs>
       <path d="M 19.1875 8.296875 
L 53.609375 8.296875 
L 53.609375 0 
L 7.328125 0 
L 7.328125 8.296875 
Q 12.9375 14.109375 22.625 23.890625 
Q 32.328125 33.6875 34.8125 36.53125 
Q 39.546875 41.84375 41.421875 45.53125 
Q 43.3125 49.21875 43.3125 52.78125 
Q 43.3125 58.59375 39.234375 62.25 
Q 35.15625 65.921875 28.609375 65.921875 
Q 23.96875 65.921875 18.8125 64.3125 
Q 13.671875 62.703125 7.8125 59.421875 
L 7.8125 69.390625 
Q 13.765625 71.78125 18.9375 73 
Q 24.125 74.21875 28.421875 74.21875 
Q 39.75 74.21875 46.484375 68.546875 
Q 53.21875 62.890625 53.21875 53.421875 
Q 53.21875 48.921875 51.53125 44.890625 
Q 49.859375 40.875 45.40625 35.40625 
Q 44.1875 33.984375 37.640625 27.21875 
Q 31.109375 20.453125 19.1875 8.296875 
" id="DejaVuSans-32"/>
      </defs>
      <g transform="translate(130.812074 322.182437)scale(0.1 -0.1)">
       <use xlink:href="#DejaVuSans-30"/>
       <use x="63.623047" xlink:href="#DejaVuSans-2e"/>
       <use x="95.410156" xlink:href="#DejaVuSans-32"/>
      </g>
     </g>
    </g>
    <g id="xtick_3">
     <g id="line2d_3">
      <g>
       <use style="stroke:#000000;stroke-width:0.8;" x="203.694545" xlink:href="#m059f2d20f1" y="307.584"/>
      </g>
     </g>
     <g id="text_3">
      <!-- 0.4 -->
      <defs>
       <path d="M 37.796875 64.3125 
L 12.890625 25.390625 
L 37.796875 25.390625 
z
M 35.203125 72.90625 
L 47.609375 72.90625 
L 47.609375 25.390625 
L 58.015625 25.390625 
L 58.015625 17.1875 
L 47.609375 17.1875 
L 47.609375 0 
L 37.796875 0 
L 37.796875 17.1875 
L 4.890625 17.1875 
L 4.890625 26.703125 
z
" id="DejaVuSans-34"/>
      </defs>
      <g transform="translate(195.742983 322.182437)scale(0.1 -0.1)">
       <use xlink:href="#DejaVuSans-30"/>
       <use x="63.623047" xlink:href="#DejaVuSans-2e"/>
       <use x="95.410156" xlink:href="#DejaVuSans-34"/>
      </g>
     </g>
    </g>
    <g id="xtick_4">
     <g id="line2d_4">
      <g>
       <use style="stroke:#000000;stroke-width:0.8;" x="268.625455" xlink:href="#m059f2d20f1" y="307.584"/>
      </g>
     </g>
     <g id="text_4">
      <!-- 0.6 -->
      <defs>
       <path d="M 33.015625 40.375 
Q 26.375 40.375 22.484375 35.828125 
Q 18.609375 31.296875 18.609375 23.390625 
Q 18.609375 15.53125 22.484375 10.953125 
Q 26.375 6.390625 33.015625 6.390625 
Q 39.65625 6.390625 43.53125 10.953125 
Q 47.40625 15.53125 47.40625 23.390625 
Q 47.40625 31.296875 43.53125 35.828125 
Q 39.65625 40.375 33.015625 40.375 
M 52.59375 71.296875 
L 52.59375 62.3125 
Q 48.875 64.0625 45.09375 64.984375 
Q 41.3125 65.921875 37.59375 65.921875 
Q 27.828125 65.921875 22.671875 59.328125 
Q 17.53125 52.734375 16.796875 39.40625 
Q 19.671875 43.65625 24.015625 45.921875 
Q 28.375 48.1875 33.59375 48.1875 
Q 44.578125 48.1875 50.953125 41.515625 
Q 57.328125 34.859375 57.328125 23.390625 
Q 57.328125 12.15625 50.6875 5.359375 
Q 44.046875 -1.421875 33.015625 -1.421875 
Q 20.359375 -1.421875 13.671875 8.265625 
Q 6.984375 17.96875 6.984375 36.375 
Q 6.984375 53.65625 15.1875 63.9375 
Q 23.390625 74.21875 37.203125 74.21875 
Q 40.921875 74.21875 44.703125 73.484375 
Q 48.484375 72.75 52.59375 71.296875 
" id="DejaVuSans-36"/>
      </defs>
      <g transform="translate(260.673892 322.182437)scale(0.1 -0.1)">
       <use xlink:href="#DejaVuSans-30"/>
       <use x="63.623047" xlink:href="#DejaVuSans-2e"/>
       <use x="95.410156" xlink:href="#DejaVuSans-36"/>
      </g>
     </g>
    </g>
    <g id="xtick_5">
     <g id="line2d_5">
      <g>
       <use style="stroke:#000000;stroke-width:0.8;" x="333.556364" xlink:href="#m059f2d20f1" y="307.584"/>
      </g>
     </g>
     <g id="text_5">
      <!-- 0.8 -->
      <defs>
       <path d="M 31.78125 34.625 
Q 24.75 34.625 20.71875 30.859375 
Q 16.703125 27.09375 16.703125 20.515625 
Q 16.703125 13.921875 20.71875 10.15625 
Q 24.75 6.390625 31.78125 6.390625 
Q 38.8125 6.390625 42.859375 10.171875 
Q 46.921875 13.96875 46.921875 20.515625 
Q 46.921875 27.09375 42.890625 30.859375 
Q 38.875 34.625 31.78125 34.625 
M 21.921875 38.8125 
Q 15.578125 40.375 12.03125 44.71875 
Q 8.5 49.078125 8.5 55.328125 
Q 8.5 64.0625 14.71875 69.140625 
Q 20.953125 74.21875 31.78125 74.21875 
Q 42.671875 74.21875 48.875 69.140625 
Q 55.078125 64.0625 55.078125 55.328125 
Q 55.078125 49.078125 51.53125 44.71875 
Q 48 40.375 41.703125 38.8125 
Q 48.828125 37.15625 52.796875 32.3125 
Q 56.78125 27.484375 56.78125 20.515625 
Q 56.78125 9.90625 50.3125 4.234375 
Q 43.84375 -1.421875 31.78125 -1.421875 
Q 19.734375 -1.421875 13.25 4.234375 
Q 6.78125 9.90625 6.78125 20.515625 
Q 6.78125 27.484375 10.78125 32.3125 
Q 14.796875 37.15625 21.921875 38.8125 
M 18.3125 54.390625 
Q 18.3125 48.734375 21.84375 45.5625 
Q 25.390625 42.390625 31.78125 42.390625 
Q 38.140625 42.390625 41.71875 45.5625 
Q 45.3125 48.734375 45.3125 54.390625 
Q 45.3125 60.0625 41.71875 63.234375 
Q 38.140625 66.40625 31.78125 66.40625 
Q 25.390625 66.40625 21.84375 63.234375 
Q 18.3125 60.0625 18.3125 54.390625 
" id="DejaVuSans-38"/>
      </defs>
      <g transform="translate(325.604801 322.182437)scale(0.1 -0.1)">
       <use xlink:href="#DejaVuSans-30"/>
       <use x="63.623047" xlink:href="#DejaVuSans-2e"/>
       <use x="95.410156" xlink:href="#DejaVuSans-38"/>
      </g>
     </g>
    </g>
    <g id="xtick_6">
     <g id="line2d_6">
      <g>
       <use style="stroke:#000000;stroke-width:0.8;" x="398.487273" xlink:href="#m059f2d20f1" y="307.584"/>
      </g>
     </g>
     <g id="text_6">
      <!-- 1.0 -->
      <defs>
       <path d="M 12.40625 8.296875 
L 28.515625 8.296875 
L 28.515625 63.921875 
L 10.984375 60.40625 
L 10.984375 69.390625 
L 28.421875 72.90625 
L 38.28125 72.90625 
L 38.28125 8.296875 
L 54.390625 8.296875 
L 54.390625 0 
L 12.40625 0 
z
" id="DejaVuSans-31"/>
      </defs>
      <g transform="translate(390.53571 322.182437)scale(0.1 -0.1)">
       <use xlink:href="#DejaVuSans-31"/>
       <use x="63.623047" xlink:href="#DejaVuSans-2e"/>
       <use x="95.410156" xlink:href="#DejaVuSans-30"/>
      </g>
     </g>
    </g>
   </g>
   <g id="matplotlib.axis_2">
    <g id="ytick_1">
     <g id="line2d_7">
      <defs>
       <path d="M 0 0 
L -3.5 0 
" id="mf5f321fbc3" style="stroke:#000000;stroke-width:0.8;"/>
      </defs>
      <g>
       <use style="stroke:#000000;stroke-width:0.8;" x="57.6" xlink:href="#mf5f321fbc3" y="262.212882"/>
      </g>
     </g>
     <g id="text_7">
      <!-- 0.2 -->
      <g transform="translate(34.696875 266.012101)scale(0.1 -0.1)">
       <use xlink:href="#DejaVuSans-30"/>
       <use x="63.623047" xlink:href="#DejaVuSans-2e"/>
       <use x="95.410156" xlink:href="#DejaVuSans-32"/>
      </g>
     </g>
    </g>
    <g id="ytick_2">
     <g id="line2d_8">
      <g>
       <use style="stroke:#000000;stroke-width:0.8;" x="57.6" xlink:href="#mf5f321fbc3" y="208.156793"/>
      </g>
     </g>
     <g id="text_8">
      <!-- 0.4 -->
      <g transform="translate(34.696875 211.956012)scale(0.1 -0.1)">
       <use xlink:href="#DejaVuSans-30"/>
       <use x="63.623047" xlink:href="#DejaVuSans-2e"/>
       <use x="95.410156" xlink:href="#DejaVuSans-34"/>
      </g>
     </g>
    </g>
    <g id="ytick_3">
     <g id="line2d_9">
      <g>
       <use style="stroke:#000000;stroke-width:0.8;" x="57.6" xlink:href="#mf5f321fbc3" y="154.100704"/>
      </g>
     </g>
     <g id="text_9">
      <!-- 0.6 -->
      <g transform="translate(34.696875 157.899923)scale(0.1 -0.1)">
       <use xlink:href="#DejaVuSans-30"/>
       <use x="63.623047" xlink:href="#DejaVuSans-2e"/>
       <use x="95.410156" xlink:href="#DejaVuSans-36"/>
      </g>
     </g>
    </g>
    <g id="ytick_4">
     <g id="line2d_10">
      <g>
       <use style="stroke:#000000;stroke-width:0.8;" x="57.6" xlink:href="#mf5f321fbc3" y="100.044615"/>
      </g>
     </g>
     <g id="text_10">
      <!-- 0.8 -->
      <g transform="translate(34.696875 103.843833)scale(0.1 -0.1)">
       <use xlink:href="#DejaVuSans-30"/>
       <use x="63.623047" xlink:href="#DejaVuSans-2e"/>
       <use x="95.410156" xlink:href="#DejaVuSans-38"/>
      </g>
     </g>
    </g>
    <g id="ytick_5">
     <g id="line2d_11">
      <g>
       <use style="stroke:#000000;stroke-width:0.8;" x="57.6" xlink:href="#mf5f321fbc3" y="45.988525"/>
      </g>
     </g>
     <g id="text_11">
      <!-- 1.0 -->
      <g transform="translate(34.696875 49.787744)scale(0.1 -0.1)">
       <use xlink:href="#DejaVuSans-31"/>
       <use x="63.623047" xlink:href="#DejaVuSans-2e"/>
       <use x="95.410156" xlink:href="#DejaVuSans-30"/>
      </g>
     </g>
    </g>
   </g>
   <g id="line2d_12">
    <path clip-path="url(#p3e1ee693a9)" d="M 73.832727 180.115467 
L 74.92584 179.295166 
L 76.018953 178.567841 
L 79.298292 176.449383 
L 81.484518 174.687425 
L 82.577631 173.586843 
L 83.670744 172.28247 
L 84.763857 170.724032 
L 85.85697 168.85234 
L 86.950083 166.59658 
L 88.043196 163.873234 
L 89.136309 160.582299 
L 90.229421 156.606204 
L 91.322534 151.810347 
L 92.415647 146.044455 
L 93.50876 139.151222 
L 94.601873 130.985239 
L 95.694986 121.448393 
L 96.788099 110.548524 
L 101.160551 62.82997 
L 102.253664 55.675917 
L 103.346777 53.568 
L 104.43989 57.382198 
L 105.533003 66.876879 
L 106.626116 80.743888 
L 110.998567 144.677917 
L 112.09168 157.065951 
L 113.184793 167.351203 
L 114.277906 175.715301 
L 115.371019 182.442311 
L 116.464132 187.850893 
L 117.557245 192.251329 
L 118.650358 195.926062 
L 120.836584 202.049806 
L 123.02281 207.786509 
L 125.209036 214.267293 
L 126.302149 218.057166 
L 127.395262 222.328137 
L 128.488375 227.143184 
L 129.581488 232.541765 
L 131.767713 245.036019 
L 136.140165 272.112715 
L 137.233278 277.10993 
L 138.326391 280.322483 
L 139.419504 281.287925 
L 140.512617 279.762732 
L 141.60573 275.79988 
L 142.698843 269.751004 
L 143.791956 262.187746 
L 148.164408 229.303535 
L 149.257521 222.656798 
L 150.350634 217.043614 
L 151.443747 212.473172 
L 152.53686 208.894929 
L 153.629972 206.227531 
L 154.723085 204.378272 
L 155.816198 203.25769 
L 156.909311 202.787942 
L 158.002424 202.907947 
L 159.095537 203.57581 
L 160.18865 204.768017 
L 161.281763 206.480784 
L 162.374876 208.726815 
L 163.467989 211.534488 
L 164.561102 214.944346 
L 165.654215 219.00558 
L 166.747328 223.768462 
L 167.840441 229.274615 
L 168.933554 235.541878 
L 171.11978 250.165131 
L 174.399118 273.86224 
L 175.492231 280.286806 
L 176.585344 284.802922 
L 177.678457 286.738941 
L 178.77157 285.670252 
L 179.864683 281.556043 
L 180.957796 274.771734 
L 182.050909 266.019242 
L 186.423361 227.324812 
L 187.516474 219.533708 
L 188.609587 212.962379 
L 189.7027 207.59515 
L 190.795813 203.345531 
L 191.888926 200.091084 
L 192.982039 197.699643 
L 194.075152 196.044715 
L 195.168264 195.015488 
L 196.261377 194.521955 
L 197.35449 194.494927 
L 198.447603 194.887645 
L 199.540716 195.67362 
L 200.633829 196.845016 
L 201.726942 198.412642 
L 202.820055 200.404069 
L 203.913168 202.86281 
L 205.006281 205.848328 
L 206.099394 209.433328 
L 207.192507 213.703218 
L 208.28562 218.750435 
L 209.378733 224.665793 
L 210.471846 231.52497 
L 211.564959 239.362022 
L 213.751185 257.659468 
L 215.93741 277.2648 
L 217.030523 285.850259 
L 218.123636 292.272636 
L 219.216749 295.488 
L 220.309862 294.755053 
L 221.402975 289.898438 
L 222.496088 281.402253 
L 223.589201 270.271564 
L 226.86854 232.843939 
L 227.961653 221.946772 
L 229.054766 212.547769 
L 230.147879 204.699095 
L 231.240992 198.310747 
L 232.334105 193.212717 
L 233.427218 189.203377 
L 234.520331 186.079205 
L 235.613444 183.651276 
L 236.706556 181.753637 
L 237.799669 180.244661 
L 238.892782 179.007858 
L 241.079008 176.982376 
L 244.358347 174.04659 
L 245.45146 172.878168 
L 246.544573 171.53109 
L 247.637686 169.951571 
L 248.730799 168.079879 
L 249.823912 165.846822 
L 250.917025 163.172937 
L 252.010138 159.964708 
L 253.103251 156.114023 
L 254.196364 151.498173 
L 255.289477 145.98175 
L 256.38259 139.424476 
L 257.475702 131.698239 
L 258.568815 122.717901 
L 259.661928 112.490759 
L 264.03438 67.300949 
L 265.127493 59.956349 
L 266.220606 57.006508 
L 267.313719 59.3793 
L 268.406832 67.075806 
L 269.499945 79.121665 
L 271.686171 109.726871 
L 273.872397 139.204197 
L 274.96551 151.434658 
L 276.058623 161.704233 
L 277.151736 170.116442 
L 278.244848 176.900211 
L 279.337961 182.336632 
L 280.431074 186.712743 
L 281.524187 190.297472 
L 282.6173 193.329478 
L 284.803526 198.529133 
L 286.989752 203.627433 
L 288.082865 206.456189 
L 289.175978 209.615226 
L 290.269091 213.201037 
L 291.362204 217.304705 
L 292.455317 222.008396 
L 293.54843 227.379138 
L 294.641543 233.459367 
L 296.827769 247.669362 
L 300.107107 271.311603 
L 301.20022 278.090237 
L 302.293333 283.207457 
L 303.386446 285.967831 
L 304.479559 285.865394 
L 305.572672 282.735006 
L 306.665785 276.820189 
L 307.758898 268.723127 
L 313.224463 222.231377 
L 314.317576 215.338685 
L 315.410689 209.650363 
L 316.503802 205.101543 
L 317.596915 201.582762 
L 318.690028 198.965907 
L 319.78314 197.125297 
L 320.876253 195.946874 
L 321.969366 195.33631 
L 323.062479 195.22009 
L 324.155592 195.546859 
L 325.248705 196.284995 
L 326.341818 197.423957 
L 327.434931 198.971042 
L 328.528044 200.950576 
L 329.621157 203.403641 
L 330.71427 206.386997 
L 331.807383 209.970645 
L 332.900496 214.236752 
L 333.993609 219.274239 
L 335.086722 225.169596 
L 336.179835 231.991745 
L 337.272948 239.767713 
L 339.459174 257.841637 
L 341.645399 277.06155 
L 342.738512 285.413215 
L 343.831625 291.611097 
L 344.924738 294.652779 
L 346.017851 293.837181 
L 347.110964 289.011729 
L 348.204077 280.655739 
L 349.29719 269.745598 
L 352.576529 233.08557 
L 353.669642 222.395978 
L 354.762755 213.167252 
L 355.855868 205.456151 
L 356.948981 199.178617 
L 358.042094 194.173564 
L 359.135207 190.24693 
L 360.22832 187.202491 
L 361.321433 184.857267 
L 362.414545 183.051253 
L 363.507658 181.648228 
L 364.600771 180.536294 
L 366.786997 178.838933 
L 371.159449 175.889632 
L 373.345675 173.945235 
L 374.438788 172.715189 
L 375.531901 171.25162 
L 376.625014 169.49777 
L 377.718127 167.388231 
L 378.81124 164.844081 
L 379.904353 161.771804 
L 380.997466 158.061123 
L 382.090579 153.584468 
L 383.183691 148.196968 
L 384.276804 141.744022 
L 385.369917 134.074815 
L 386.46303 125.069611 
L 387.556143 114.690571 
L 389.742369 90.573718 
L 391.928595 66.62714 
L 393.021708 58.044655 
L 394.114821 53.948285 
L 395.207934 55.528614 
L 396.301047 62.976462 
L 397.39416 75.349901 
L 398.487273 90.919677 
L 398.487273 90.919677 
" style="fill:none;stroke:#1f77b4;stroke-linecap:square;stroke-width:1.5;"/>
   </g>
   <g id="line2d_13">
    <path clip-path="url(#p3e1ee693a9)" d="M 73.832727 180.016141 
L 74.92584 179.270662 
L 76.018953 178.598388 
L 79.298292 176.563074 
L 81.484518 174.812381 
L 82.577631 173.708566 
L 83.670744 172.39605 
L 84.763857 170.823297 
L 85.85697 168.931055 
L 86.950083 166.647304 
L 88.043196 163.885551 
L 89.136309 160.543052 
L 90.229421 156.497718 
L 91.322534 151.608771 
L 92.415647 145.721183 
L 93.50876 138.674962 
L 94.601873 130.336264 
L 95.694986 120.653614 
L 97.881212 98.123002 
L 98.974325 86.642512 
L 100.067438 76.549752 
L 101.160551 68.933114 
L 102.253664 64.253797 
L 103.346777 62.435516 
L 104.43989 63.482081 
L 105.533003 68.048612 
L 106.626116 77.403024 
L 107.719229 92.1741 
L 110.998567 146.074646 
L 112.09168 159.54144 
L 113.184793 170.102183 
L 114.277906 178.298768 
L 115.371019 184.681039 
L 116.464132 189.711267 
L 117.557245 193.767802 
L 118.650358 197.155976 
L 120.836584 202.879551 
L 123.02281 208.395784 
L 125.209036 214.764769 
L 126.302149 218.519224 
L 127.395262 222.756716 
L 128.488375 227.531385 
L 130.674601 238.745595 
L 133.953939 258.400884 
L 135.047052 264.765547 
L 136.140165 270.412388 
L 137.233278 274.939434 
L 138.326391 278.003389 
L 139.419504 279.339397 
L 140.512617 278.74485 
L 141.60573 276.065303 
L 142.698843 271.241849 
L 143.791956 264.430833 
L 145.978182 247.028126 
L 148.164408 229.731805 
L 149.257521 222.558583 
L 150.350634 216.634413 
L 151.443747 211.933719 
L 152.53686 208.351434 
L 153.629972 205.753348 
L 154.723085 204.009483 
L 155.816198 203.005534 
L 156.909311 202.649468 
L 158.002424 202.872233 
L 159.095537 203.628956 
L 160.18865 204.896525 
L 161.281763 206.670467 
L 162.374876 208.965426 
L 163.467989 211.809241 
L 164.561102 215.24277 
L 165.654215 219.311961 
L 166.747328 224.061659 
L 167.840441 229.523086 
L 168.933554 235.694696 
L 171.11978 249.840676 
L 173.306006 264.795585 
L 174.399118 271.542632 
L 175.492231 277.134525 
L 176.585344 281.139954 
L 177.678457 283.244171 
L 178.77157 283.208935 
L 179.864683 280.812098 
L 180.957796 275.864948 
L 182.050909 268.381833 
L 183.144022 258.817204 
L 186.423361 227.546926 
L 187.516474 219.101358 
L 188.609587 212.181109 
L 189.7027 206.704265 
L 190.795813 202.497103 
L 191.888926 199.365822 
L 192.982039 197.128297 
L 194.075152 195.630192 
L 195.168264 194.745 
L 196.261377 194.376446 
L 197.35449 194.454758 
L 198.447603 194.933306 
L 199.540716 195.788095 
L 200.633829 197.014904 
L 201.726942 198.625569 
L 202.820055 200.65028 
L 203.913168 203.133339 
L 205.006281 206.133954 
L 206.099394 209.72443 
L 207.192507 213.98589 
L 208.28562 219.005137 
L 209.378733 224.860231 
L 210.471846 231.603442 
L 212.658072 247.628704 
L 215.93741 273.803923 
L 217.030523 280.839924 
L 218.123636 286.005569 
L 219.216749 288.943229 
L 220.309862 289.427138 
L 221.402975 287.173508 
L 222.496088 281.76356 
L 223.589201 272.898635 
L 224.682314 260.959623 
L 226.86854 233.69801 
L 227.961653 221.521299 
L 229.054766 211.354046 
L 230.147879 203.209098 
L 231.240992 196.834362 
L 232.334105 191.911321 
L 233.427218 188.137499 
L 234.520331 185.25235 
L 235.613444 183.039801 
L 236.706556 181.324029 
L 237.799669 179.962148 
L 239.985895 177.865608 
L 244.358347 174.121426 
L 245.45146 172.960278 
L 246.544573 171.612125 
L 247.637686 170.022892 
L 248.730799 168.133138 
L 249.823912 165.873297 
L 250.917025 163.160776 
L 252.010138 159.90057 
L 253.103251 155.979594 
L 254.196364 151.270087 
L 255.289477 145.631312 
L 256.38259 138.92076 
L 257.475702 131.018317 
L 258.568815 121.875094 
L 260.755041 100.568901 
L 262.941267 79.590029 
L 264.03438 71.757596 
L 265.127493 66.632332 
L 266.220606 64.293796 
L 267.313719 64.753965 
L 268.406832 68.468238 
L 269.499945 76.411437 
L 270.593058 89.238216 
L 273.872397 139.846398 
L 274.96551 153.388271 
L 276.058623 164.165129 
L 277.151736 172.575832 
L 278.244848 179.112332 
L 279.337961 184.219455 
L 280.431074 188.270034 
L 281.524187 191.569273 
L 283.710413 196.869071 
L 286.989752 204.165592 
L 288.082865 206.942057 
L 289.175978 210.063304 
L 290.269091 213.621022 
L 291.362204 217.697682 
L 292.455317 222.367904 
L 293.54843 227.686794 
L 294.641543 233.678158 
L 296.827769 247.478076 
L 300.107107 269.329791 
L 301.20022 275.274199 
L 302.293333 279.768708 
L 303.386446 282.466253 
L 304.479559 283.113732 
L 305.572672 281.491723 
L 306.665785 277.398743 
L 307.758898 270.769319 
L 308.852011 261.902076 
L 312.13135 230.828543 
L 313.224463 222.009799 
L 314.317576 214.675766 
L 315.410689 208.806575 
L 316.503802 204.255169 
L 317.596915 200.833579 
L 318.690028 198.360438 
L 319.78314 196.673622 
L 320.876253 195.641831 
L 321.969366 195.160946 
L 323.062479 195.154886 
L 324.155592 195.572723 
L 325.248705 196.385034 
L 326.341818 197.582924 
L 327.434931 199.176401 
L 328.528044 201.19218 
L 329.621157 203.671539 
L 330.71427 206.671799 
L 331.807383 210.262517 
L 332.900496 214.521711 
L 333.993609 219.532048 
L 335.086722 225.367731 
L 336.179835 232.075291 
L 338.366061 247.952428 
L 341.645399 273.696214 
L 342.738512 280.577012 
L 343.831625 285.611148 
L 344.924738 288.446341 
L 346.017851 288.852468 
L 347.110964 286.547585 
L 348.204077 281.136622 
L 349.29719 272.36386 
L 350.390303 260.634712 
L 352.576529 233.962348 
L 353.669642 222.03206 
L 354.762755 212.048206 
L 355.855868 204.035028 
L 356.948981 197.759432 
L 358.042094 192.915887 
L 359.135207 189.21391 
L 360.22832 186.400442 
L 361.321433 184.265678 
L 362.414545 182.638197 
L 363.507658 181.380934 
L 364.600771 180.383252 
L 366.786997 178.838854 
L 370.066336 176.788905 
L 372.252562 175.110535 
L 373.345675 174.066346 
L 374.438788 172.830301 
L 375.531901 171.354524 
L 376.625014 169.583241 
L 377.718127 167.44799 
L 378.81124 164.869737 
L 379.904353 161.750664 
L 380.997466 157.977682 
L 382.090579 153.416687 
L 383.183691 147.918487 
L 384.276804 141.323033 
L 385.369917 133.484943 
L 386.46303 124.314637 
L 388.649256 102.458114 
L 390.835482 80.119075 
L 391.928595 71.5232 
L 393.021708 65.762498 
L 394.114821 62.910003 
L 395.207934 62.866196 
L 396.301047 66.003895 
L 397.39416 73.419623 
L 398.487273 86.180754 
L 398.487273 86.180754 
" style="fill:none;stroke:#ff7f0e;stroke-linecap:square;stroke-width:1.5;"/>
   </g>
   <g id="line2d_14">
    <path clip-path="url(#p3e1ee693a9)" d="M 73.832727 180.300733 
L 74.92584 179.557591 
L 76.018953 178.903685 
L 79.298292 176.881032 
L 81.484518 175.139713 
L 82.577631 174.040076 
L 83.670744 172.739045 
L 84.763857 171.170591 
L 85.85697 169.293795 
L 86.950083 167.047945 
L 88.043196 164.321563 
L 89.136309 161.01668 
L 90.229421 157.009288 
L 91.322534 152.154603 
L 92.415647 146.303518 
L 93.50876 139.274608 
L 94.601873 130.915566 
L 95.694986 121.16052 
L 97.881212 99.017645 
L 98.974325 89.781824 
L 100.067438 81.765505 
L 101.160551 75.601171 
L 102.253664 71.453518 
L 103.346777 69.535098 
L 104.43989 70.036821 
L 105.533003 73.359514 
L 106.626116 80.593838 
L 107.719229 93.214904 
L 110.998567 148.474492 
L 112.09168 161.906814 
L 113.184793 172.170866 
L 114.277906 179.973531 
L 115.371019 186.030449 
L 116.464132 190.749528 
L 117.557245 194.60179 
L 119.743471 200.824409 
L 123.02281 209.864354 
L 125.209036 216.586837 
L 127.395262 224.671625 
L 129.581488 234.53289 
L 131.767713 246.101514 
L 135.047052 266.195128 
L 136.140165 272.030915 
L 137.233278 276.709645 
L 138.326391 279.83411 
L 139.419504 281.165719 
L 140.512617 280.46867 
L 141.60573 277.662575 
L 142.698843 272.695614 
L 143.791956 265.701853 
L 145.978182 249.783817 
L 149.257521 227.832573 
L 150.350634 221.693424 
L 151.443747 216.593056 
L 152.53686 212.481894 
L 153.629972 209.316035 
L 154.723085 207.031756 
L 155.816198 205.591592 
L 156.909311 204.912395 
L 158.002424 204.880279 
L 159.095537 205.480323 
L 160.18865 206.719089 
L 161.281763 208.483521 
L 162.374876 210.808584 
L 163.467989 213.70546 
L 164.561102 217.164308 
L 165.654215 221.24328 
L 166.747328 225.917637 
L 167.840441 231.236185 
L 170.026667 243.58301 
L 174.399118 273.25342 
L 175.492231 279.064251 
L 176.585344 283.164043 
L 177.678457 285.293145 
L 178.77157 285.158505 
L 179.864683 282.614214 
L 180.957796 277.492448 
L 182.050909 269.836549 
L 184.237135 250.958389 
L 187.516474 224.937535 
L 188.609587 217.623048 
L 189.7027 211.497698 
L 190.795813 206.551886 
L 191.888926 202.690543 
L 192.982039 199.762256 
L 194.075152 197.709681 
L 195.168264 196.343003 
L 196.261377 195.664916 
L 197.35449 195.51534 
L 198.447603 195.927104 
L 199.540716 196.733234 
L 200.633829 197.950467 
L 201.726942 199.613185 
L 202.820055 201.743038 
L 203.913168 204.332663 
L 205.006281 207.477802 
L 206.099394 211.207038 
L 207.192507 215.576046 
L 208.28562 220.637322 
L 209.378733 226.455591 
L 210.471846 233.030318 
L 211.564959 240.35056 
L 213.751185 257.766259 
L 215.93741 275.689906 
L 217.030523 282.996369 
L 218.123636 288.309278 
L 219.216749 291.281204 
L 220.309862 291.694998 
L 221.402975 289.264665 
L 222.496088 283.634381 
L 223.589201 274.607019 
L 226.86854 239.457263 
L 229.054766 217.909812 
L 230.147879 208.958755 
L 231.240992 201.489213 
L 232.334105 195.604015 
L 233.427218 190.843569 
L 234.520331 186.993293 
L 235.613444 183.940745 
L 236.706556 181.671446 
L 237.799669 180.240623 
L 238.892782 179.110215 
L 241.079008 177.266989 
L 243.265234 175.458843 
L 245.45146 173.301483 
L 246.544573 171.960942 
L 247.637686 170.377848 
L 248.730799 168.51296 
L 249.823912 166.288538 
L 250.917025 163.610839 
L 252.010138 160.38679 
L 253.103251 156.49895 
L 254.196364 151.827933 
L 255.289477 146.224347 
L 256.38259 139.532233 
L 257.475702 131.611316 
L 258.568815 122.4129 
L 261.848154 91.900251 
L 262.941267 83.994254 
L 264.03438 77.723464 
L 265.127493 73.369896 
L 266.220606 71.075683 
L 267.313719 71.118989 
L 268.406832 73.740514 
L 269.499945 79.696129 
L 270.593058 90.522579 
L 271.686171 106.868924 
L 273.872397 142.012884 
L 274.96551 155.63959 
L 276.058623 166.220229 
L 277.151736 174.3108 
L 278.244848 180.531352 
L 279.337961 185.337098 
L 280.431074 189.142457 
L 281.524187 192.287189 
L 283.710413 197.478557 
L 285.896639 202.594677 
L 288.082865 208.342825 
L 289.175978 211.654922 
L 290.269091 215.351997 
L 291.362204 219.498156 
L 292.455317 224.170537 
L 294.641543 235.176299 
L 295.734656 241.486154 
L 297.920882 256.09481 
L 300.107107 270.966113 
L 301.20022 277.119886 
L 302.293333 281.744065 
L 303.386446 284.506976 
L 304.479559 285.089031 
L 305.572672 283.31655 
L 306.665785 279.069801 
L 307.758898 272.266291 
L 313.224463 227.760105 
L 314.317576 220.237761 
L 315.410689 213.809506 
L 316.503802 208.54483 
L 317.596915 204.415373 
L 318.690028 201.253472 
L 319.78314 198.973814 
L 320.876253 197.444653 
L 321.969366 196.608573 
L 323.062479 196.376045 
L 324.155592 196.658133 
L 325.248705 197.437804 
L 326.341818 198.584552 
L 327.434931 200.233573 
L 328.528044 202.327034 
L 329.621157 204.926371 
L 330.71427 208.070514 
L 331.807383 211.789499 
L 332.900496 216.148276 
L 333.993609 221.191374 
L 335.086722 226.980692 
L 336.179835 233.497947 
L 337.272948 240.756287 
L 339.459174 257.968209 
L 341.645399 275.569635 
L 342.738512 282.715522 
L 343.831625 287.8925 
L 344.924738 290.758195 
L 346.017851 291.09 
L 347.110964 288.601709 
L 348.204077 282.991451 
L 349.29719 274.037799 
L 351.483416 250.712604 
L 353.669642 228.621155 
L 354.762755 218.52801 
L 355.855868 209.775557 
L 356.948981 202.437612 
L 358.042094 196.56998 
L 359.135207 191.997035 
L 360.22832 188.247341 
L 361.321433 185.286018 
L 362.414545 183.06051 
L 363.507658 181.66863 
L 364.600771 180.671421 
L 366.786997 179.13292 
L 370.066336 177.104685 
L 372.252562 175.434943 
L 373.345675 174.396265 
L 374.438788 173.172996 
L 375.531901 171.702142 
L 376.625014 169.937373 
L 377.718127 167.838365 
L 378.81124 165.293787 
L 379.904353 162.212703 
L 380.997466 158.470988 
L 382.090579 153.950098 
L 383.183691 148.488267 
L 384.276804 141.921925 
L 385.369917 134.078175 
L 386.46303 124.863944 
L 389.742369 93.077258 
L 390.835482 84.598538 
L 391.928595 77.724231 
L 393.021708 72.842111 
L 394.114821 70.08786 
L 395.207934 69.686183 
L 396.301047 71.895961 
L 397.39416 77.347726 
L 398.487273 87.98776 
L 398.487273 87.98776 
" style="fill:none;stroke:#2ca02c;stroke-linecap:square;stroke-width:1.5;"/>
   </g>
   <g id="line2d_15">
    <path clip-path="url(#p3e1ee693a9)" d="M 73.832727 179.310459 
L 74.92584 178.411391 
L 76.018953 177.603523 
L 79.298292 175.241671 
L 81.484518 173.308137 
L 82.577631 172.093024 
L 83.670744 170.657085 
L 84.763857 168.948266 
L 85.85697 166.887334 
L 86.950083 164.413919 
L 88.043196 161.441799 
L 89.136309 157.850264 
L 90.229421 153.547409 
L 91.322534 148.432331 
L 92.415647 142.343755 
L 93.50876 135.230402 
L 94.601873 126.924075 
L 95.694986 117.513067 
L 97.881212 95.793747 
L 100.067438 74.135053 
L 101.160551 66.095745 
L 102.253664 61.243016 
L 103.346777 59.421871 
L 104.43989 60.592108 
L 105.533003 65.429276 
L 106.626116 75.17486 
L 109.905455 119.896404 
L 112.09168 149.826322 
L 113.184793 162.221579 
L 114.277906 172.314514 
L 115.371019 180.418777 
L 116.464132 186.857751 
L 117.557245 192.183164 
L 118.650358 196.539146 
L 119.743471 199.699515 
L 124.115923 210.984789 
L 125.209036 214.343451 
L 126.302149 218.112857 
L 127.395262 222.377361 
L 128.488375 227.191868 
L 130.674601 238.506934 
L 133.953939 257.254283 
L 135.047052 262.587582 
L 136.140165 267.210286 
L 137.233278 270.929262 
L 138.326391 273.504565 
L 139.419504 274.649774 
L 140.512617 274.376473 
L 141.60573 272.513348 
L 142.698843 269.000625 
L 143.791956 263.896225 
L 144.885069 255.768363 
L 147.071295 237.181576 
L 148.164408 228.829906 
L 149.257521 221.64116 
L 150.350634 215.711602 
L 151.443747 211.045899 
L 152.53686 207.500335 
L 153.629972 204.973904 
L 154.723085 203.294519 
L 155.816198 202.365836 
L 156.909311 202.070951 
L 158.002424 202.327329 
L 159.095537 203.111229 
L 160.18865 204.405235 
L 161.281763 206.194247 
L 162.374876 208.512782 
L 163.467989 211.360808 
L 164.561102 214.817187 
L 165.654215 218.907636 
L 166.747328 223.70025 
L 167.840441 229.204989 
L 170.026667 242.288473 
L 172.212893 256.282961 
L 174.399118 267.991307 
L 175.492231 272.566488 
L 176.585344 275.841898 
L 177.678457 277.636071 
L 178.77157 277.779065 
L 179.864683 276.098309 
L 180.957796 272.548455 
L 182.050909 267.055277 
L 183.144022 258.459758 
L 185.330248 236.388914 
L 186.423361 226.486326 
L 187.516474 218.04878 
L 188.609587 211.152042 
L 189.7027 205.734258 
L 190.795813 201.598207 
L 191.888926 198.559975 
L 192.982039 196.409177 
L 194.075152 194.99729 
L 195.168264 194.166032 
L 196.261377 193.850334 
L 197.35449 193.96299 
L 198.447603 194.464066 
L 199.540716 195.340074 
L 200.633829 196.574321 
L 201.726942 198.189453 
L 202.820055 200.216885 
L 203.913168 202.695584 
L 205.006281 205.695481 
L 206.099394 209.296054 
L 207.192507 213.586652 
L 208.28562 218.618243 
L 209.378733 224.514843 
L 210.471846 231.303581 
L 212.658072 247.27411 
L 214.844298 262.855309 
L 215.93741 269.643798 
L 217.030523 275.352732 
L 218.123636 279.588159 
L 219.216749 282.023614 
L 220.309862 282.611975 
L 221.402975 281.008297 
L 222.496088 277.112328 
L 223.589201 270.621784 
L 224.682314 260.458786 
L 226.86854 232.389005 
L 227.961653 220.202743 
L 229.054766 210.096531 
L 230.147879 202.03067 
L 231.240992 195.762125 
L 232.334105 190.964243 
L 233.427218 187.326824 
L 234.520331 184.555142 
L 235.613444 182.400517 
L 236.706556 180.739164 
L 238.892782 178.072007 
L 241.079008 175.836164 
L 244.358347 172.579889 
L 245.45146 171.283777 
L 246.544573 169.77842 
L 247.637686 168.036923 
L 248.730799 165.976894 
L 249.823912 163.519866 
L 250.917025 160.602799 
L 252.010138 157.095281 
L 253.103251 152.92922 
L 254.196364 147.99719 
L 255.289477 142.188501 
L 256.38259 135.372657 
L 257.475702 127.508089 
L 258.568815 118.66694 
L 260.755041 98.167597 
L 262.941267 77.352507 
L 264.03438 69.095223 
L 265.127493 63.753482 
L 266.220606 61.370728 
L 267.313719 61.933002 
L 268.406832 65.882934 
L 269.499945 74.186391 
L 270.593058 86.967686 
L 274.96551 143.577131 
L 276.058623 155.585915 
L 277.151736 165.794483 
L 278.244848 173.992651 
L 279.337961 180.552839 
L 280.431074 185.873805 
L 281.524187 190.266553 
L 282.6173 193.800388 
L 284.803526 198.830048 
L 286.989752 203.727241 
L 288.082865 206.504036 
L 289.175978 209.629433 
L 290.269091 213.201717 
L 291.362204 217.295351 
L 292.455317 221.99042 
L 293.54843 227.354712 
L 294.641543 233.393991 
L 296.827769 247.1696 
L 299.013994 260.476035 
L 300.107107 266.169206 
L 301.20022 271.072411 
L 302.293333 274.732507 
L 303.386446 276.981317 
L 304.479559 277.672138 
L 305.572672 276.57606 
L 306.665785 273.667795 
L 307.758898 268.817277 
L 308.852011 261.610169 
L 312.13135 229.785496 
L 313.224463 220.979513 
L 314.317576 213.638598 
L 315.410689 207.821598 
L 316.503802 203.336307 
L 317.596915 200.0007 
L 318.690028 197.613732 
L 319.78314 196.006523 
L 320.876253 195.045812 
L 321.969366 194.623675 
L 323.062479 194.647521 
L 324.155592 195.091804 
L 325.248705 195.924496 
L 326.341818 197.133514 
L 327.434931 198.732857 
L 328.528044 200.752961 
L 329.621157 203.232051 
L 330.71427 206.232821 
L 331.807383 209.834397 
L 332.900496 214.125403 
L 333.993609 219.143681 
L 335.086722 225.020938 
L 336.179835 231.770647 
L 338.366061 247.592091 
L 340.552287 262.912157 
L 341.645399 269.576974 
L 342.738512 275.161071 
L 343.831625 279.269626 
L 344.924738 281.628382 
L 346.017851 282.188042 
L 347.110964 280.546166 
L 348.204077 276.634174 
L 349.29719 270.213652 
L 350.390303 260.139168 
L 352.576529 232.689106 
L 353.669642 220.741891 
L 354.762755 210.814779 
L 355.855868 202.869016 
L 356.948981 196.693924 
L 358.042094 191.978212 
L 359.135207 188.411533 
L 360.22832 185.711385 
L 361.321433 183.639659 
L 362.414545 182.077289 
L 363.507658 180.808714 
L 365.693884 178.771224 
L 368.973223 176.321164 
L 371.159449 174.627885 
L 372.252562 173.640261 
L 373.345675 172.488308 
L 374.438788 171.136712 
L 375.531901 169.526355 
L 376.625014 167.596516 
L 377.718127 165.278379 
L 378.81124 162.499012 
L 379.904353 159.135352 
L 380.997466 155.122913 
L 382.090579 150.292315 
L 383.183691 144.600423 
L 384.276804 137.863011 
L 385.369917 130.034749 
L 386.46303 121.04758 
L 388.649256 99.968741 
L 390.835482 77.87621 
L 391.928595 68.82733 
L 393.021708 62.809586 
L 394.114821 59.88646 
L 395.207934 59.933577 
L 396.301047 63.278547 
L 397.39416 71.066399 
L 398.487273 83.911031 
L 398.487273 83.911031 
" style="fill:none;stroke:#d62728;stroke-linecap:square;stroke-width:1.5;"/>
   </g>
   <g id="patch_3">
    <path d="M 57.6 307.584 
L 57.6 41.472 
" style="fill:none;stroke:#000000;stroke-linecap:square;stroke-linejoin:miter;stroke-width:0.8;"/>
   </g>
   <g id="patch_4">
    <path d="M 414.72 307.584 
L 414.72 41.472 
" style="fill:none;stroke:#000000;stroke-linecap:square;stroke-linejoin:miter;stroke-width:0.8;"/>
   </g>
   <g id="patch_5">
    <path d="M 57.6 307.584 
L 414.72 307.584 
" style="fill:none;stroke:#000000;stroke-linecap:square;stroke-linejoin:miter;stroke-width:0.8;"/>
   </g>
   <g id="patch_6">
    <path d="M 57.6 41.472 
L 414.72 41.472 
" style="fill:none;stroke:#000000;stroke-linecap:square;stroke-linejoin:miter;stroke-width:0.8;"/>
   </g>
   <g id="text_12">
    <!-- Plot of Train Data vs MCMC Uncertainty  -->
    <defs>
     <path d="M 19.671875 64.796875 
L 19.671875 37.40625 
L 32.078125 37.40625 
Q 38.96875 37.40625 42.71875 40.96875 
Q 46.484375 44.53125 46.484375 51.125 
Q 46.484375 57.671875 42.71875 61.234375 
Q 38.96875 64.796875 32.078125 64.796875 
z
M 9.8125 72.90625 
L 32.078125 72.90625 
Q 44.34375 72.90625 50.609375 67.359375 
Q 56.890625 61.8125 56.890625 51.125 
Q 56.890625 40.328125 50.609375 34.8125 
Q 44.34375 29.296875 32.078125 29.296875 
L 19.671875 29.296875 
L 19.671875 0 
L 9.8125 0 
z
" id="DejaVuSans-50"/>
     <path d="M 9.421875 75.984375 
L 18.40625 75.984375 
L 18.40625 0 
L 9.421875 0 
z
" id="DejaVuSans-6c"/>
     <path d="M 30.609375 48.390625 
Q 23.390625 48.390625 19.1875 42.75 
Q 14.984375 37.109375 14.984375 27.296875 
Q 14.984375 17.484375 19.15625 11.84375 
Q 23.34375 6.203125 30.609375 6.203125 
Q 37.796875 6.203125 41.984375 11.859375 
Q 46.1875 17.53125 46.1875 27.296875 
Q 46.1875 37.015625 41.984375 42.703125 
Q 37.796875 48.390625 30.609375 48.390625 
M 30.609375 56 
Q 42.328125 56 49.015625 48.375 
Q 55.71875 40.765625 55.71875 27.296875 
Q 55.71875 13.875 49.015625 6.21875 
Q 42.328125 -1.421875 30.609375 -1.421875 
Q 18.84375 -1.421875 12.171875 6.21875 
Q 5.515625 13.875 5.515625 27.296875 
Q 5.515625 40.765625 12.171875 48.375 
Q 18.84375 56 30.609375 56 
" id="DejaVuSans-6f"/>
     <path d="M 18.3125 70.21875 
L 18.3125 54.6875 
L 36.8125 54.6875 
L 36.8125 47.703125 
L 18.3125 47.703125 
L 18.3125 18.015625 
Q 18.3125 11.328125 20.140625 9.421875 
Q 21.96875 7.515625 27.59375 7.515625 
L 36.8125 7.515625 
L 36.8125 0 
L 27.59375 0 
Q 17.1875 0 13.234375 3.875 
Q 9.28125 7.765625 9.28125 18.015625 
L 9.28125 47.703125 
L 2.6875 47.703125 
L 2.6875 54.6875 
L 9.28125 54.6875 
L 9.28125 70.21875 
z
" id="DejaVuSans-74"/>
     <path id="DejaVuSans-20"/>
     <path d="M 37.109375 75.984375 
L 37.109375 68.5 
L 28.515625 68.5 
Q 23.6875 68.5 21.796875 66.546875 
Q 19.921875 64.59375 19.921875 59.515625 
L 19.921875 54.6875 
L 34.71875 54.6875 
L 34.71875 47.703125 
L 19.921875 47.703125 
L 19.921875 0 
L 10.890625 0 
L 10.890625 47.703125 
L 2.296875 47.703125 
L 2.296875 54.6875 
L 10.890625 54.6875 
L 10.890625 58.5 
Q 10.890625 67.625 15.140625 71.796875 
Q 19.390625 75.984375 28.609375 75.984375 
z
" id="DejaVuSans-66"/>
     <path d="M -0.296875 72.90625 
L 61.375 72.90625 
L 61.375 64.59375 
L 35.5 64.59375 
L 35.5 0 
L 25.59375 0 
L 25.59375 64.59375 
L -0.296875 64.59375 
z
" id="DejaVuSans-54"/>
     <path d="M 41.109375 46.296875 
Q 39.59375 47.171875 37.8125 47.578125 
Q 36.03125 48 33.890625 48 
Q 26.265625 48 22.1875 43.046875 
Q 18.109375 38.09375 18.109375 28.8125 
L 18.109375 0 
L 9.078125 0 
L 9.078125 54.6875 
L 18.109375 54.6875 
L 18.109375 46.1875 
Q 20.953125 51.171875 25.484375 53.578125 
Q 30.03125 56 36.53125 56 
Q 37.453125 56 38.578125 55.875 
Q 39.703125 55.765625 41.0625 55.515625 
z
" id="DejaVuSans-72"/>
     <path d="M 34.28125 27.484375 
Q 23.390625 27.484375 19.1875 25 
Q 14.984375 22.515625 14.984375 16.5 
Q 14.984375 11.71875 18.140625 8.90625 
Q 21.296875 6.109375 26.703125 6.109375 
Q 34.1875 6.109375 38.703125 11.40625 
Q 43.21875 16.703125 43.21875 25.484375 
L 43.21875 27.484375 
z
M 52.203125 31.203125 
L 52.203125 0 
L 43.21875 0 
L 43.21875 8.296875 
Q 40.140625 3.328125 35.546875 0.953125 
Q 30.953125 -1.421875 24.3125 -1.421875 
Q 15.921875 -1.421875 10.953125 3.296875 
Q 6 8.015625 6 15.921875 
Q 6 25.140625 12.171875 29.828125 
Q 18.359375 34.515625 30.609375 34.515625 
L 43.21875 34.515625 
L 43.21875 35.40625 
Q 43.21875 41.609375 39.140625 45 
Q 35.0625 48.390625 27.6875 48.390625 
Q 23 48.390625 18.546875 47.265625 
Q 14.109375 46.140625 10.015625 43.890625 
L 10.015625 52.203125 
Q 14.9375 54.109375 19.578125 55.046875 
Q 24.21875 56 28.609375 56 
Q 40.484375 56 46.34375 49.84375 
Q 52.203125 43.703125 52.203125 31.203125 
" id="DejaVuSans-61"/>
     <path d="M 9.421875 54.6875 
L 18.40625 54.6875 
L 18.40625 0 
L 9.421875 0 
z
M 9.421875 75.984375 
L 18.40625 75.984375 
L 18.40625 64.59375 
L 9.421875 64.59375 
z
" id="DejaVuSans-69"/>
     <path d="M 54.890625 33.015625 
L 54.890625 0 
L 45.90625 0 
L 45.90625 32.71875 
Q 45.90625 40.484375 42.875 44.328125 
Q 39.84375 48.1875 33.796875 48.1875 
Q 26.515625 48.1875 22.3125 43.546875 
Q 18.109375 38.921875 18.109375 30.90625 
L 18.109375 0 
L 9.078125 0 
L 9.078125 54.6875 
L 18.109375 54.6875 
L 18.109375 46.1875 
Q 21.34375 51.125 25.703125 53.5625 
Q 30.078125 56 35.796875 56 
Q 45.21875 56 50.046875 50.171875 
Q 54.890625 44.34375 54.890625 33.015625 
" id="DejaVuSans-6e"/>
     <path d="M 19.671875 64.796875 
L 19.671875 8.109375 
L 31.59375 8.109375 
Q 46.6875 8.109375 53.6875 14.9375 
Q 60.6875 21.78125 60.6875 36.53125 
Q 60.6875 51.171875 53.6875 57.984375 
Q 46.6875 64.796875 31.59375 64.796875 
z
M 9.8125 72.90625 
L 30.078125 72.90625 
Q 51.265625 72.90625 61.171875 64.09375 
Q 71.09375 55.28125 71.09375 36.53125 
Q 71.09375 17.671875 61.125 8.828125 
Q 51.171875 0 30.078125 0 
L 9.8125 0 
z
" id="DejaVuSans-44"/>
     <path d="M 2.984375 54.6875 
L 12.5 54.6875 
L 29.59375 8.796875 
L 46.6875 54.6875 
L 56.203125 54.6875 
L 35.6875 0 
L 23.484375 0 
z
" id="DejaVuSans-76"/>
     <path d="M 44.28125 53.078125 
L 44.28125 44.578125 
Q 40.484375 46.53125 36.375 47.5 
Q 32.28125 48.484375 27.875 48.484375 
Q 21.1875 48.484375 17.84375 46.4375 
Q 14.5 44.390625 14.5 40.28125 
Q 14.5 37.15625 16.890625 35.375 
Q 19.28125 33.59375 26.515625 31.984375 
L 29.59375 31.296875 
Q 39.15625 29.25 43.1875 25.515625 
Q 47.21875 21.78125 47.21875 15.09375 
Q 47.21875 7.46875 41.1875 3.015625 
Q 35.15625 -1.421875 24.609375 -1.421875 
Q 20.21875 -1.421875 15.453125 -0.5625 
Q 10.6875 0.296875 5.421875 2 
L 5.421875 11.28125 
Q 10.40625 8.6875 15.234375 7.390625 
Q 20.0625 6.109375 24.8125 6.109375 
Q 31.15625 6.109375 34.5625 8.28125 
Q 37.984375 10.453125 37.984375 14.40625 
Q 37.984375 18.0625 35.515625 20.015625 
Q 33.0625 21.96875 24.703125 23.78125 
L 21.578125 24.515625 
Q 13.234375 26.265625 9.515625 29.90625 
Q 5.8125 33.546875 5.8125 39.890625 
Q 5.8125 47.609375 11.28125 51.796875 
Q 16.75 56 26.8125 56 
Q 31.78125 56 36.171875 55.265625 
Q 40.578125 54.546875 44.28125 53.078125 
" id="DejaVuSans-73"/>
     <path d="M 9.8125 72.90625 
L 24.515625 72.90625 
L 43.109375 23.296875 
L 61.8125 72.90625 
L 76.515625 72.90625 
L 76.515625 0 
L 66.890625 0 
L 66.890625 64.015625 
L 48.09375 14.015625 
L 38.1875 14.015625 
L 19.390625 64.015625 
L 19.390625 0 
L 9.8125 0 
z
" id="DejaVuSans-4d"/>
     <path d="M 64.40625 67.28125 
L 64.40625 56.890625 
Q 59.421875 61.53125 53.78125 63.8125 
Q 48.140625 66.109375 41.796875 66.109375 
Q 29.296875 66.109375 22.65625 58.46875 
Q 16.015625 50.828125 16.015625 36.375 
Q 16.015625 21.96875 22.65625 14.328125 
Q 29.296875 6.6875 41.796875 6.6875 
Q 48.140625 6.6875 53.78125 8.984375 
Q 59.421875 11.28125 64.40625 15.921875 
L 64.40625 5.609375 
Q 59.234375 2.09375 53.4375 0.328125 
Q 47.65625 -1.421875 41.21875 -1.421875 
Q 24.65625 -1.421875 15.125 8.703125 
Q 5.609375 18.84375 5.609375 36.375 
Q 5.609375 53.953125 15.125 64.078125 
Q 24.65625 74.21875 41.21875 74.21875 
Q 47.75 74.21875 53.53125 72.484375 
Q 59.328125 70.75 64.40625 67.28125 
" id="DejaVuSans-43"/>
     <path d="M 8.6875 72.90625 
L 18.609375 72.90625 
L 18.609375 28.609375 
Q 18.609375 16.890625 22.84375 11.734375 
Q 27.09375 6.59375 36.625 6.59375 
Q 46.09375 6.59375 50.34375 11.734375 
Q 54.59375 16.890625 54.59375 28.609375 
L 54.59375 72.90625 
L 64.5 72.90625 
L 64.5 27.390625 
Q 64.5 13.140625 57.4375 5.859375 
Q 50.390625 -1.421875 36.625 -1.421875 
Q 22.796875 -1.421875 15.734375 5.859375 
Q 8.6875 13.140625 8.6875 27.390625 
z
" id="DejaVuSans-55"/>
     <path d="M 48.78125 52.59375 
L 48.78125 44.1875 
Q 44.96875 46.296875 41.140625 47.34375 
Q 37.3125 48.390625 33.40625 48.390625 
Q 24.65625 48.390625 19.8125 42.84375 
Q 14.984375 37.3125 14.984375 27.296875 
Q 14.984375 17.28125 19.8125 11.734375 
Q 24.65625 6.203125 33.40625 6.203125 
Q 37.3125 6.203125 41.140625 7.25 
Q 44.96875 8.296875 48.78125 10.40625 
L 48.78125 2.09375 
Q 45.015625 0.34375 40.984375 -0.53125 
Q 36.96875 -1.421875 32.421875 -1.421875 
Q 20.0625 -1.421875 12.78125 6.34375 
Q 5.515625 14.109375 5.515625 27.296875 
Q 5.515625 40.671875 12.859375 48.328125 
Q 20.21875 56 33.015625 56 
Q 37.15625 56 41.109375 55.140625 
Q 45.0625 54.296875 48.78125 52.59375 
" id="DejaVuSans-63"/>
     <path d="M 56.203125 29.59375 
L 56.203125 25.203125 
L 14.890625 25.203125 
Q 15.484375 15.921875 20.484375 11.0625 
Q 25.484375 6.203125 34.421875 6.203125 
Q 39.59375 6.203125 44.453125 7.46875 
Q 49.3125 8.734375 54.109375 11.28125 
L 54.109375 2.78125 
Q 49.265625 0.734375 44.1875 -0.34375 
Q 39.109375 -1.421875 33.890625 -1.421875 
Q 20.796875 -1.421875 13.15625 6.1875 
Q 5.515625 13.8125 5.515625 26.8125 
Q 5.515625 40.234375 12.765625 48.109375 
Q 20.015625 56 32.328125 56 
Q 43.359375 56 49.78125 48.890625 
Q 56.203125 41.796875 56.203125 29.59375 
M 47.21875 32.234375 
Q 47.125 39.59375 43.09375 43.984375 
Q 39.0625 48.390625 32.421875 48.390625 
Q 24.90625 48.390625 20.390625 44.140625 
Q 15.875 39.890625 15.1875 32.171875 
z
" id="DejaVuSans-65"/>
     <path d="M 32.171875 -5.078125 
Q 28.375 -14.84375 24.75 -17.8125 
Q 21.140625 -20.796875 15.09375 -20.796875 
L 7.90625 -20.796875 
L 7.90625 -13.28125 
L 13.1875 -13.28125 
Q 16.890625 -13.28125 18.9375 -11.515625 
Q 21 -9.765625 23.484375 -3.21875 
L 25.09375 0.875 
L 2.984375 54.6875 
L 12.5 54.6875 
L 29.59375 11.921875 
L 46.6875 54.6875 
L 56.203125 54.6875 
z
" id="DejaVuSans-79"/>
    </defs>
    <g transform="translate(115.666875 35.472)scale(0.12 -0.12)">
     <use xlink:href="#DejaVuSans-50"/>
     <use x="60.302734" xlink:href="#DejaVuSans-6c"/>
     <use x="88.085938" xlink:href="#DejaVuSans-6f"/>
     <use x="149.267578" xlink:href="#DejaVuSans-74"/>
     <use x="188.476562" xlink:href="#DejaVuSans-20"/>
     <use x="220.263672" xlink:href="#DejaVuSans-6f"/>
     <use x="281.445312" xlink:href="#DejaVuSans-66"/>
     <use x="316.650391" xlink:href="#DejaVuSans-20"/>
     <use x="348.4375" xlink:href="#DejaVuSans-54"/>
     <use x="409.302734" xlink:href="#DejaVuSans-72"/>
     <use x="450.416016" xlink:href="#DejaVuSans-61"/>
     <use x="511.695312" xlink:href="#DejaVuSans-69"/>
     <use x="539.478516" xlink:href="#DejaVuSans-6e"/>
     <use x="602.857422" xlink:href="#DejaVuSans-20"/>
     <use x="634.644531" xlink:href="#DejaVuSans-44"/>
     <use x="711.646484" xlink:href="#DejaVuSans-61"/>
     <use x="772.925781" xlink:href="#DejaVuSans-74"/>
     <use x="812.134766" xlink:href="#DejaVuSans-61"/>
     <use x="873.414062" xlink:href="#DejaVuSans-20"/>
     <use x="905.201172" xlink:href="#DejaVuSans-76"/>
     <use x="964.380859" xlink:href="#DejaVuSans-73"/>
     <use x="1016.480469" xlink:href="#DejaVuSans-20"/>
     <use x="1048.267578" xlink:href="#DejaVuSans-4d"/>
     <use x="1134.546875" xlink:href="#DejaVuSans-43"/>
     <use x="1204.371094" xlink:href="#DejaVuSans-4d"/>
     <use x="1290.650391" xlink:href="#DejaVuSans-43"/>
     <use x="1360.474609" xlink:href="#DejaVuSans-20"/>
     <use x="1392.261719" xlink:href="#DejaVuSans-55"/>
     <use x="1465.455078" xlink:href="#DejaVuSans-6e"/>
     <use x="1528.833984" xlink:href="#DejaVuSans-63"/>
     <use x="1583.814453" xlink:href="#DejaVuSans-65"/>
     <use x="1645.337891" xlink:href="#DejaVuSans-72"/>
     <use x="1686.451172" xlink:href="#DejaVuSans-74"/>
     <use x="1725.660156" xlink:href="#DejaVuSans-61"/>
     <use x="1786.939453" xlink:href="#DejaVuSans-69"/>
     <use x="1814.722656" xlink:href="#DejaVuSans-6e"/>
     <use x="1878.101562" xlink:href="#DejaVuSans-74"/>
     <use x="1917.310547" xlink:href="#DejaVuSans-79"/>
     <use x="1976.490234" xlink:href="#DejaVuSans-20"/>
    </g>
   </g>
   <g id="legend_1">
    <g id="patch_7">
     <path d="M 277.843437 108.1845 
L 407.72 108.1845 
Q 409.72 108.1845 409.72 106.1845 
L 409.72 48.472 
Q 409.72 46.472 407.72 46.472 
L 277.843437 46.472 
Q 275.843437 46.472 275.843437 48.472 
L 275.843437 106.1845 
Q 275.843437 108.1845 277.843437 108.1845 
z
" style="fill:#ffffff;opacity:0.8;stroke:#cccccc;stroke-linejoin:miter;"/>
    </g>
    <g id="line2d_16">
     <path d="M 279.843437 54.570438 
L 299.843437 54.570438 
" style="fill:none;stroke:#1f77b4;stroke-linecap:square;stroke-width:1.5;"/>
    </g>
    <g id="line2d_17"/>
    <g id="text_13">
     <!-- actual -->
     <defs>
      <path d="M 8.5 21.578125 
L 8.5 54.6875 
L 17.484375 54.6875 
L 17.484375 21.921875 
Q 17.484375 14.15625 20.5 10.265625 
Q 23.53125 6.390625 29.59375 6.390625 
Q 36.859375 6.390625 41.078125 11.03125 
Q 45.3125 15.671875 45.3125 23.6875 
L 45.3125 54.6875 
L 54.296875 54.6875 
L 54.296875 0 
L 45.3125 0 
L 45.3125 8.40625 
Q 42.046875 3.421875 37.71875 1 
Q 33.40625 -1.421875 27.6875 -1.421875 
Q 18.265625 -1.421875 13.375 4.4375 
Q 8.5 10.296875 8.5 21.578125 
M 31.109375 56 
z
" id="DejaVuSans-75"/>
     </defs>
     <g transform="translate(307.843437 58.070438)scale(0.1 -0.1)">
      <use xlink:href="#DejaVuSans-61"/>
      <use x="61.279297" xlink:href="#DejaVuSans-63"/>
      <use x="116.259766" xlink:href="#DejaVuSans-74"/>
      <use x="155.46875" xlink:href="#DejaVuSans-75"/>
      <use x="218.847656" xlink:href="#DejaVuSans-61"/>
      <use x="280.126953" xlink:href="#DejaVuSans-6c"/>
     </g>
    </g>
    <g id="line2d_18">
     <path d="M 279.843437 69.248563 
L 299.843437 69.248563 
" style="fill:none;stroke:#ff7f0e;stroke-linecap:square;stroke-width:1.5;"/>
    </g>
    <g id="line2d_19"/>
    <g id="text_14">
     <!-- pred. (mean) -->
     <defs>
      <path d="M 18.109375 8.203125 
L 18.109375 -20.796875 
L 9.078125 -20.796875 
L 9.078125 54.6875 
L 18.109375 54.6875 
L 18.109375 46.390625 
Q 20.953125 51.265625 25.265625 53.625 
Q 29.59375 56 35.59375 56 
Q 45.5625 56 51.78125 48.09375 
Q 58.015625 40.1875 58.015625 27.296875 
Q 58.015625 14.40625 51.78125 6.484375 
Q 45.5625 -1.421875 35.59375 -1.421875 
Q 29.59375 -1.421875 25.265625 0.953125 
Q 20.953125 3.328125 18.109375 8.203125 
M 48.6875 27.296875 
Q 48.6875 37.203125 44.609375 42.84375 
Q 40.53125 48.484375 33.40625 48.484375 
Q 26.265625 48.484375 22.1875 42.84375 
Q 18.109375 37.203125 18.109375 27.296875 
Q 18.109375 17.390625 22.1875 11.75 
Q 26.265625 6.109375 33.40625 6.109375 
Q 40.53125 6.109375 44.609375 11.75 
Q 48.6875 17.390625 48.6875 27.296875 
" id="DejaVuSans-70"/>
      <path d="M 45.40625 46.390625 
L 45.40625 75.984375 
L 54.390625 75.984375 
L 54.390625 0 
L 45.40625 0 
L 45.40625 8.203125 
Q 42.578125 3.328125 38.25 0.953125 
Q 33.9375 -1.421875 27.875 -1.421875 
Q 17.96875 -1.421875 11.734375 6.484375 
Q 5.515625 14.40625 5.515625 27.296875 
Q 5.515625 40.1875 11.734375 48.09375 
Q 17.96875 56 27.875 56 
Q 33.9375 56 38.25 53.625 
Q 42.578125 51.265625 45.40625 46.390625 
M 14.796875 27.296875 
Q 14.796875 17.390625 18.875 11.75 
Q 22.953125 6.109375 30.078125 6.109375 
Q 37.203125 6.109375 41.296875 11.75 
Q 45.40625 17.390625 45.40625 27.296875 
Q 45.40625 37.203125 41.296875 42.84375 
Q 37.203125 48.484375 30.078125 48.484375 
Q 22.953125 48.484375 18.875 42.84375 
Q 14.796875 37.203125 14.796875 27.296875 
" id="DejaVuSans-64"/>
      <path d="M 31 75.875 
Q 24.46875 64.65625 21.28125 53.65625 
Q 18.109375 42.671875 18.109375 31.390625 
Q 18.109375 20.125 21.3125 9.0625 
Q 24.515625 -2 31 -13.1875 
L 23.1875 -13.1875 
Q 15.875 -1.703125 12.234375 9.375 
Q 8.59375 20.453125 8.59375 31.390625 
Q 8.59375 42.28125 12.203125 53.3125 
Q 15.828125 64.359375 23.1875 75.875 
z
" id="DejaVuSans-28"/>
      <path d="M 52 44.1875 
Q 55.375 50.25 60.0625 53.125 
Q 64.75 56 71.09375 56 
Q 79.640625 56 84.28125 50.015625 
Q 88.921875 44.046875 88.921875 33.015625 
L 88.921875 0 
L 79.890625 0 
L 79.890625 32.71875 
Q 79.890625 40.578125 77.09375 44.375 
Q 74.3125 48.1875 68.609375 48.1875 
Q 61.625 48.1875 57.5625 43.546875 
Q 53.515625 38.921875 53.515625 30.90625 
L 53.515625 0 
L 44.484375 0 
L 44.484375 32.71875 
Q 44.484375 40.625 41.703125 44.40625 
Q 38.921875 48.1875 33.109375 48.1875 
Q 26.21875 48.1875 22.15625 43.53125 
Q 18.109375 38.875 18.109375 30.90625 
L 18.109375 0 
L 9.078125 0 
L 9.078125 54.6875 
L 18.109375 54.6875 
L 18.109375 46.1875 
Q 21.1875 51.21875 25.484375 53.609375 
Q 29.78125 56 35.6875 56 
Q 41.65625 56 45.828125 52.96875 
Q 50 49.953125 52 44.1875 
" id="DejaVuSans-6d"/>
      <path d="M 8.015625 75.875 
L 15.828125 75.875 
Q 23.140625 64.359375 26.78125 53.3125 
Q 30.421875 42.28125 30.421875 31.390625 
Q 30.421875 20.453125 26.78125 9.375 
Q 23.140625 -1.703125 15.828125 -13.1875 
L 8.015625 -13.1875 
Q 14.5 -2 17.703125 9.0625 
Q 20.90625 20.125 20.90625 31.390625 
Q 20.90625 42.671875 17.703125 53.65625 
Q 14.5 64.65625 8.015625 75.875 
" id="DejaVuSans-29"/>
     </defs>
     <g transform="translate(307.843437 72.748563)scale(0.1 -0.1)">
      <use xlink:href="#DejaVuSans-70"/>
      <use x="63.476562" xlink:href="#DejaVuSans-72"/>
      <use x="104.558594" xlink:href="#DejaVuSans-65"/>
      <use x="166.082031" xlink:href="#DejaVuSans-64"/>
      <use x="229.558594" xlink:href="#DejaVuSans-2e"/>
      <use x="261.345703" xlink:href="#DejaVuSans-20"/>
      <use x="293.132812" xlink:href="#DejaVuSans-28"/>
      <use x="332.146484" xlink:href="#DejaVuSans-6d"/>
      <use x="429.558594" xlink:href="#DejaVuSans-65"/>
      <use x="491.082031" xlink:href="#DejaVuSans-61"/>
      <use x="552.361328" xlink:href="#DejaVuSans-6e"/>
      <use x="615.740234" xlink:href="#DejaVuSans-29"/>
     </g>
    </g>
    <g id="line2d_20">
     <path d="M 279.843437 83.926688 
L 299.843437 83.926688 
" style="fill:none;stroke:#2ca02c;stroke-linecap:square;stroke-width:1.5;"/>
    </g>
    <g id="line2d_21"/>
    <g id="text_15">
     <!-- pred.(5th percen.) -->
     <defs>
      <path d="M 10.796875 72.90625 
L 49.515625 72.90625 
L 49.515625 64.59375 
L 19.828125 64.59375 
L 19.828125 46.734375 
Q 21.96875 47.46875 24.109375 47.828125 
Q 26.265625 48.1875 28.421875 48.1875 
Q 40.625 48.1875 47.75 41.5 
Q 54.890625 34.8125 54.890625 23.390625 
Q 54.890625 11.625 47.5625 5.09375 
Q 40.234375 -1.421875 26.90625 -1.421875 
Q 22.3125 -1.421875 17.546875 -0.640625 
Q 12.796875 0.140625 7.71875 1.703125 
L 7.71875 11.625 
Q 12.109375 9.234375 16.796875 8.0625 
Q 21.484375 6.890625 26.703125 6.890625 
Q 35.15625 6.890625 40.078125 11.328125 
Q 45.015625 15.765625 45.015625 23.390625 
Q 45.015625 31 40.078125 35.4375 
Q 35.15625 39.890625 26.703125 39.890625 
Q 22.75 39.890625 18.8125 39.015625 
Q 14.890625 38.140625 10.796875 36.28125 
z
" id="DejaVuSans-35"/>
      <path d="M 54.890625 33.015625 
L 54.890625 0 
L 45.90625 0 
L 45.90625 32.71875 
Q 45.90625 40.484375 42.875 44.328125 
Q 39.84375 48.1875 33.796875 48.1875 
Q 26.515625 48.1875 22.3125 43.546875 
Q 18.109375 38.921875 18.109375 30.90625 
L 18.109375 0 
L 9.078125 0 
L 9.078125 75.984375 
L 18.109375 75.984375 
L 18.109375 46.1875 
Q 21.34375 51.125 25.703125 53.5625 
Q 30.078125 56 35.796875 56 
Q 45.21875 56 50.046875 50.171875 
Q 54.890625 44.34375 54.890625 33.015625 
" id="DejaVuSans-68"/>
     </defs>
     <g transform="translate(307.843437 87.426688)scale(0.1 -0.1)">
      <use xlink:href="#DejaVuSans-70"/>
      <use x="63.476562" xlink:href="#DejaVuSans-72"/>
      <use x="104.558594" xlink:href="#DejaVuSans-65"/>
      <use x="166.082031" xlink:href="#DejaVuSans-64"/>
      <use x="229.558594" xlink:href="#DejaVuSans-2e"/>
      <use x="261.345703" xlink:href="#DejaVuSans-28"/>
      <use x="300.359375" xlink:href="#DejaVuSans-35"/>
      <use x="363.982422" xlink:href="#DejaVuSans-74"/>
      <use x="403.191406" xlink:href="#DejaVuSans-68"/>
      <use x="466.570312" xlink:href="#DejaVuSans-20"/>
      <use x="498.357422" xlink:href="#DejaVuSans-70"/>
      <use x="561.833984" xlink:href="#DejaVuSans-65"/>
      <use x="623.357422" xlink:href="#DejaVuSans-72"/>
      <use x="664.439453" xlink:href="#DejaVuSans-63"/>
      <use x="719.419922" xlink:href="#DejaVuSans-65"/>
      <use x="780.943359" xlink:href="#DejaVuSans-6e"/>
      <use x="844.322266" xlink:href="#DejaVuSans-2e"/>
      <use x="876.109375" xlink:href="#DejaVuSans-29"/>
     </g>
    </g>
    <g id="line2d_22">
     <path d="M 279.843437 98.604813 
L 299.843437 98.604813 
" style="fill:none;stroke:#d62728;stroke-linecap:square;stroke-width:1.5;"/>
    </g>
    <g id="line2d_23"/>
    <g id="text_16">
     <!-- pred.(95th percen.) -->
     <defs>
      <path d="M 10.984375 1.515625 
L 10.984375 10.5 
Q 14.703125 8.734375 18.5 7.8125 
Q 22.3125 6.890625 25.984375 6.890625 
Q 35.75 6.890625 40.890625 13.453125 
Q 46.046875 20.015625 46.78125 33.40625 
Q 43.953125 29.203125 39.59375 26.953125 
Q 35.25 24.703125 29.984375 24.703125 
Q 19.046875 24.703125 12.671875 31.3125 
Q 6.296875 37.9375 6.296875 49.421875 
Q 6.296875 60.640625 12.9375 67.421875 
Q 19.578125 74.21875 30.609375 74.21875 
Q 43.265625 74.21875 49.921875 64.515625 
Q 56.59375 54.828125 56.59375 36.375 
Q 56.59375 19.140625 48.40625 8.859375 
Q 40.234375 -1.421875 26.421875 -1.421875 
Q 22.703125 -1.421875 18.890625 -0.6875 
Q 15.09375 0.046875 10.984375 1.515625 
M 30.609375 32.421875 
Q 37.25 32.421875 41.125 36.953125 
Q 45.015625 41.5 45.015625 49.421875 
Q 45.015625 57.28125 41.125 61.84375 
Q 37.25 66.40625 30.609375 66.40625 
Q 23.96875 66.40625 20.09375 61.84375 
Q 16.21875 57.28125 16.21875 49.421875 
Q 16.21875 41.5 20.09375 36.953125 
Q 23.96875 32.421875 30.609375 32.421875 
" id="DejaVuSans-39"/>
     </defs>
     <g transform="translate(307.843437 102.104813)scale(0.1 -0.1)">
      <use xlink:href="#DejaVuSans-70"/>
      <use x="63.476562" xlink:href="#DejaVuSans-72"/>
      <use x="104.558594" xlink:href="#DejaVuSans-65"/>
      <use x="166.082031" xlink:href="#DejaVuSans-64"/>
      <use x="229.558594" xlink:href="#DejaVuSans-2e"/>
      <use x="261.345703" xlink:href="#DejaVuSans-28"/>
      <use x="300.359375" xlink:href="#DejaVuSans-39"/>
      <use x="363.982422" xlink:href="#DejaVuSans-35"/>
      <use x="427.605469" xlink:href="#DejaVuSans-74"/>
      <use x="466.814453" xlink:href="#DejaVuSans-68"/>
      <use x="530.193359" xlink:href="#DejaVuSans-20"/>
      <use x="561.980469" xlink:href="#DejaVuSans-70"/>
      <use x="625.457031" xlink:href="#DejaVuSans-65"/>
      <use x="686.980469" xlink:href="#DejaVuSans-72"/>
      <use x="728.0625" xlink:href="#DejaVuSans-63"/>
      <use x="783.042969" xlink:href="#DejaVuSans-65"/>
      <use x="844.566406" xlink:href="#DejaVuSans-6e"/>
      <use x="907.945312" xlink:href="#DejaVuSans-2e"/>
      <use x="939.732422" xlink:href="#DejaVuSans-29"/>
     </g>
    </g>
   </g>
  </g>
 </g>
 <defs>
  <clipPath id="p3e1ee693a9">
   <rect height="266.112" width="357.12" x="57.6" y="41.472"/>
  </clipPath>
 </defs>
</svg>
