<?xml version="1.0" encoding="utf-8" standalone="no"?>
<!DOCTYPE svg PUBLIC "-//W3C//DTD SVG 1.1//EN"
  "http://www.w3.org/Graphics/SVG/1.1/DTD/svg11.dtd">
<!-- Created with matplotlib (http://matplotlib.org/) -->
<svg height="345pt" version="1.1" viewBox="0 0 460 345" width="460pt" xmlns="http://www.w3.org/2000/svg" xmlns:xlink="http://www.w3.org/1999/xlink">
 <defs>
  <style type="text/css">
*{stroke-linecap:butt;stroke-linejoin:round;}
  </style>
 </defs>
 <g id="figure_1">
  <g id="patch_1">
   <path d="M 0 345.6 
L 460.8 345.6 
L 460.8 0 
L 0 0 
z
" style="fill:#ffffff;"/>
  </g>
  <g id="axes_1">
   <g id="patch_2">
    <path d="M 57.6 307.584 
L 414.72 307.584 
L 414.72 41.472 
L 57.6 41.472 
z
" style="fill:#ffffff;"/>
   </g>
   <g id="PolyCollection_1">
    <path clip-path="url(#p0f405e7136)" d="M 73.832727 124.647784 
L 73.832727 137.626598 
L 75.48072 152.698134 
L 77.128713 164.312057 
L 78.776705 173.136573 
L 80.424698 179.910329 
L 82.07269 185.182725 
L 83.720683 189.379517 
L 85.368676 192.938471 
L 87.016668 196.001369 
L 88.664661 198.975873 
L 90.312653 202.008659 
L 91.960646 205.071174 
L 93.608639 208.313381 
L 95.256631 211.745155 
L 96.904624 215.511278 
L 98.552617 219.668386 
L 100.200609 224.297925 
L 101.848602 229.394979 
L 103.496594 234.910345 
L 105.144587 240.870079 
L 106.79258 247.49198 
L 108.440572 254.524095 
L 110.088565 261.522209 
L 111.736557 267.96703 
L 113.38455 273.425495 
L 115.032543 277.428425 
L 116.680535 279.721353 
L 118.328528 279.990265 
L 119.976521 278.104872 
L 121.624513 274.004125 
L 123.272506 267.683018 
L 124.920498 259.573404 
L 126.568491 251.279317 
L 128.216484 243.424703 
L 129.864476 235.532884 
L 131.512469 228.090287 
L 133.160461 221.304969 
L 134.808454 215.539642 
L 136.456447 210.838099 
L 138.104439 207.120468 
L 139.752432 204.314807 
L 141.400425 202.440787 
L 143.048417 201.348306 
L 144.69641 201.004174 
L 146.344402 201.270002 
L 147.992395 202.218569 
L 149.640388 203.724533 
L 151.28838 205.783779 
L 152.936373 208.422925 
L 154.584365 211.666469 
L 156.232358 215.447683 
L 157.880351 219.899557 
L 159.528343 225.017977 
L 161.176336 230.722786 
L 162.824329 237.048736 
L 164.472321 244.035055 
L 166.120314 251.861854 
L 167.768306 259.900159 
L 169.416299 267.656884 
L 171.064292 274.46282 
L 172.712284 279.870557 
L 174.360277 283.366113 
L 176.008269 284.677766 
L 177.656262 283.576892 
L 179.304255 279.916548 
L 180.952247 273.548407 
L 182.60024 264.622422 
L 184.248233 254.428213 
L 185.896225 245.19987 
L 187.544218 235.79703 
L 189.19221 226.80467 
L 190.840203 218.561615 
L 192.488196 211.484502 
L 194.136188 205.622923 
L 195.784181 200.982911 
L 197.432174 197.359885 
L 199.080166 194.705528 
L 200.728159 192.825231 
L 202.376151 191.668264 
L 204.024144 191.132562 
L 205.672137 191.136101 
L 207.320129 191.635396 
L 208.968122 192.504777 
L 210.616114 193.817436 
L 212.264107 195.54839 
L 213.9121 197.72468 
L 215.560092 200.373702 
L 217.208085 203.596805 
L 218.856078 207.427161 
L 220.50407 211.907631 
L 222.152063 217.106273 
L 223.800055 223.086646 
L 225.448048 229.880302 
L 227.096041 237.463414 
L 228.744033 246.112964 
L 230.392026 255.52936 
L 232.040018 265.211021 
L 233.688011 274.285634 
L 235.336004 281.974907 
L 236.983996 287.594398 
L 238.631989 290.785926 
L 240.279982 291.320789 
L 241.927974 288.915387 
L 243.575967 283.162484 
L 245.223959 273.834399 
L 246.871952 261.158778 
L 248.519945 248.819495 
L 250.167937 236.933925 
L 251.81593 225.136536 
L 253.463922 214.28503 
L 255.111915 204.880413 
L 256.759908 197.102116 
L 258.4079 190.917827 
L 260.055893 185.911306 
L 261.703886 181.802079 
L 263.351878 178.554928 
L 264.999871 176.212482 
L 266.647863 174.680107 
L 268.295856 173.371479 
L 269.943849 172.212752 
L 271.591841 171.084581 
L 273.239834 169.925336 
L 274.887826 168.667296 
L 276.535819 167.242964 
L 278.183812 165.606248 
L 279.831804 163.70948 
L 281.479797 161.459271 
L 283.12779 158.776402 
L 284.775782 155.560526 
L 286.423775 151.714691 
L 288.071767 147.123085 
L 289.71976 141.633485 
L 291.367753 135.114612 
L 293.015745 127.425901 
L 294.663738 118.534488 
L 296.311731 108.422682 
L 297.959723 97.525076 
L 299.607716 88.188749 
L 301.255708 80.175578 
L 302.903701 73.641893 
L 304.551694 68.905588 
L 306.199686 66.224748 
L 307.847679 65.818929 
L 309.495671 67.853364 
L 311.143664 72.883267 
L 312.791657 82.283683 
L 314.439649 96.853563 
L 316.087642 114.429216 
L 317.735635 131.143267 
L 319.383627 145.254169 
L 321.03162 156.358789 
L 322.679612 164.968637 
L 324.327605 171.548907 
L 325.975598 176.62295 
L 327.62359 180.555058 
L 329.271583 183.692238 
L 330.919575 186.304109 
L 332.567568 188.576329 
L 334.215561 190.683735 
L 335.863553 192.76064 
L 337.511546 194.966087 
L 339.159539 197.387067 
L 340.807531 200.052237 
L 342.455524 203.092437 
L 344.103516 206.523991 
L 345.751509 210.462125 
L 347.399502 214.961062 
L 349.047494 220.07415 
L 350.695487 225.855158 
L 352.343479 232.286099 
L 353.991472 239.375426 
L 355.639465 247.434521 
L 357.287457 256.01239 
L 358.93545 264.713843 
L 360.583443 272.762197 
L 362.231435 279.520987 
L 363.879428 284.429039 
L 365.52742 287.118499 
L 367.175413 287.353328 
L 368.823406 284.845265 
L 370.471398 279.447775 
L 372.119391 270.972445 
L 373.767383 259.925692 
L 375.415376 249.16472 
L 377.063369 238.834913 
L 378.711361 228.615545 
L 380.359354 219.079608 
L 382.007347 210.710643 
L 383.655339 203.742423 
L 385.303332 198.027822 
L 386.951324 193.61674 
L 388.599317 190.171617 
L 390.24731 187.542818 
L 391.895302 185.660353 
L 393.543295 184.397902 
L 395.191287 183.675529 
L 396.83928 183.390564 
L 398.487273 183.391987 
L 398.487273 182.553847 
L 398.487273 182.553847 
L 396.83928 182.53338 
L 395.191287 182.735689 
L 393.543295 183.240392 
L 391.895302 184.062616 
L 390.24731 185.329337 
L 388.599317 187.147221 
L 386.951324 189.675867 
L 385.303332 193.132071 
L 383.655339 197.749996 
L 382.007347 203.78614 
L 380.359354 211.537796 
L 378.711361 221.101236 
L 377.063369 232.464103 
L 375.415376 245.185116 
L 373.767383 258.021446 
L 372.119391 267.445079 
L 370.471398 273.493282 
L 368.823406 277.269139 
L 367.175413 278.888984 
L 365.52742 278.435005 
L 363.879428 276.146202 
L 362.231435 272.281074 
L 360.583443 266.990813 
L 358.93545 260.630549 
L 357.287457 253.617834 
L 355.639465 245.968255 
L 353.991472 237.987153 
L 352.343479 230.518131 
L 350.695487 223.823214 
L 349.047494 217.93313 
L 347.399502 212.8238 
L 345.751509 208.407526 
L 344.103516 204.622431 
L 342.455524 201.356799 
L 340.807531 198.54181 
L 339.159539 196.053198 
L 337.511546 193.827145 
L 335.863553 191.744961 
L 334.215561 189.685212 
L 332.567568 187.378776 
L 330.919575 184.423125 
L 329.271583 180.790133 
L 327.62359 176.384349 
L 325.975598 170.927178 
L 324.327605 164.017917 
L 322.679612 155.519239 
L 321.03162 145.199867 
L 319.383627 132.995942 
L 317.735635 119.336424 
L 316.087642 105.471228 
L 314.439649 92.474164 
L 312.791657 78.527272 
L 311.143664 67.059085 
L 309.495671 59.870984 
L 307.847679 56.675562 
L 306.199686 56.742802 
L 304.551694 59.773826 
L 302.903701 65.714386 
L 301.255708 74.277515 
L 299.607716 84.340698 
L 297.959723 94.79086 
L 296.311731 105.015898 
L 294.663738 114.570949 
L 293.015745 123.166343 
L 291.367753 130.780483 
L 289.71976 137.38891 
L 288.071767 143.078818 
L 286.423775 147.950163 
L 284.775782 152.098801 
L 283.12779 155.552146 
L 281.479797 158.490797 
L 279.831804 161.003413 
L 278.183812 163.116692 
L 276.535819 164.939523 
L 274.887826 166.566528 
L 273.239834 168.003237 
L 271.591841 169.349461 
L 269.943849 170.70255 
L 268.295856 172.118119 
L 266.647863 173.624905 
L 264.999871 175.280157 
L 263.351878 177.135774 
L 261.703886 179.41771 
L 260.055893 182.365256 
L 258.4079 186.181869 
L 256.759908 191.184506 
L 255.111915 197.730126 
L 253.463922 206.162759 
L 251.81593 216.739207 
L 250.167937 229.538734 
L 248.519945 244.153378 
L 246.871952 259.056105 
L 245.223959 269.540562 
L 243.575967 276.260728 
L 241.927974 280.238304 
L 240.279982 281.851467 
L 238.631989 281.164621 
L 236.983996 278.502427 
L 235.336004 274.039115 
L 233.688011 268.056569 
L 232.040018 260.906581 
L 230.392026 253.048525 
L 228.744033 244.64243 
L 227.096041 236.019724 
L 225.448048 228.108857 
L 223.800055 221.118243 
L 222.152063 215.069663 
L 220.50407 209.907311 
L 218.856078 205.520241 
L 217.208085 201.836089 
L 215.560092 198.772411 
L 213.9121 196.239448 
L 212.264107 194.158668 
L 210.616114 192.489438 
L 208.968122 191.197006 
L 207.320129 190.257283 
L 205.672137 189.678706 
L 204.024144 189.467977 
L 202.376151 189.669416 
L 200.728159 190.358306 
L 199.080166 191.588109 
L 197.432174 193.503612 
L 195.784181 196.270775 
L 194.136188 200.065196 
L 192.488196 205.099746 
L 190.840203 211.617712 
L 189.19221 219.728005 
L 187.544218 229.396724 
L 185.896225 240.447623 
L 184.248233 252.115776 
L 182.60024 262.672988 
L 180.952247 269.223076 
L 179.304255 273.737996 
L 177.656262 276.199813 
L 176.008269 276.781109 
L 174.360277 275.559444 
L 172.712284 272.725192 
L 171.064292 268.503625 
L 169.416299 263.063286 
L 167.768306 256.938842 
L 166.120314 250.151983 
L 164.472321 242.7734 
L 162.824329 235.479831 
L 161.176336 228.776303 
L 159.528343 222.804738 
L 157.880351 217.570145 
L 156.232358 213.086918 
L 154.584365 209.272576 
L 152.936373 206.100685 
L 151.28838 203.491965 
L 149.640388 201.429733 
L 147.992395 199.869236 
L 146.344402 198.827717 
L 144.69641 198.304114 
L 143.048417 198.311432 
L 141.400425 198.933618 
L 139.752432 200.242546 
L 138.104439 202.368571 
L 136.456447 205.442104 
L 134.808454 209.605804 
L 133.160461 215.007238 
L 131.512469 221.741601 
L 129.864476 229.739365 
L 128.216484 238.858236 
L 126.568491 248.610138 
L 124.920498 258.025202 
L 123.272506 264.875457 
L 121.624513 269.420125 
L 119.976521 272.25177 
L 118.328528 273.428168 
L 116.680535 272.998309 
L 115.032543 271.062668 
L 113.38455 267.858717 
L 111.736557 263.520616 
L 110.088565 258.406414 
L 108.440572 252.656073 
L 106.79258 246.154738 
L 105.144587 239.486203 
L 103.496594 233.111087 
L 101.848602 227.252108 
L 100.200609 221.990291 
L 98.552617 217.291798 
L 96.904624 213.161703 
L 95.256631 209.504824 
L 93.608639 206.241429 
L 91.960646 203.270151 
L 90.312653 200.477527 
L 88.664661 197.744229 
L 87.016668 194.832903 
L 85.368676 191.197333 
L 83.720683 186.375388 
L 82.07269 180.530918 
L 80.424698 173.390826 
L 78.776705 164.367844 
L 77.128713 153.145955 
L 75.48072 139.793614 
L 73.832727 124.647784 
z
" style="fill:#008000;fill-opacity:0.4;"/>
   </g>
   <g id="matplotlib.axis_1">
    <g id="xtick_1">
     <g id="line2d_1">
      <defs>
       <path d="M 0 0 
L 0 3.5 
" id="m4c95344577" style="stroke:#000000;stroke-width:0.8;"/>
      </defs>
      <g>
       <use style="stroke:#000000;stroke-width:0.8;" x="73.832727" xlink:href="#m4c95344577" y="307.584"/>
      </g>
     </g>
     <g id="text_1">
      <!-- 0.0 -->
      <defs>
       <path d="M 31.78125 66.40625 
Q 24.171875 66.40625 20.328125 58.90625 
Q 16.5 51.421875 16.5 36.375 
Q 16.5 21.390625 20.328125 13.890625 
Q 24.171875 6.390625 31.78125 6.390625 
Q 39.453125 6.390625 43.28125 13.890625 
Q 47.125 21.390625 47.125 36.375 
Q 47.125 51.421875 43.28125 58.90625 
Q 39.453125 66.40625 31.78125 66.40625 
M 31.78125 74.21875 
Q 44.046875 74.21875 50.515625 64.515625 
Q 56.984375 54.828125 56.984375 36.375 
Q 56.984375 17.96875 50.515625 8.265625 
Q 44.046875 -1.421875 31.78125 -1.421875 
Q 19.53125 -1.421875 13.0625 8.265625 
Q 6.59375 17.96875 6.59375 36.375 
Q 6.59375 54.828125 13.0625 64.515625 
Q 19.53125 74.21875 31.78125 74.21875 
" id="DejaVuSans-30"/>
       <path d="M 10.6875 12.40625 
L 21 12.40625 
L 21 0 
L 10.6875 0 
z
" id="DejaVuSans-2e"/>
      </defs>
      <g transform="translate(65.881165 322.182437)scale(0.1 -0.1)">
       <use xlink:href="#DejaVuSans-30"/>
       <use x="63.623047" xlink:href="#DejaVuSans-2e"/>
       <use x="95.410156" xlink:href="#DejaVuSans-30"/>
      </g>
     </g>
    </g>
    <g id="xtick_2">
     <g id="line2d_2">
      <g>
       <use style="stroke:#000000;stroke-width:0.8;" x="138.763636" xlink:href="#m4c95344577" y="307.584"/>
      </g>
     </g>
     <g id="text_2">
      <!-- 0.2 -->
      <defs>
       <path d="M 19.1875 8.296875 
L 53.609375 8.296875 
L 53.609375 0 
L 7.328125 0 
L 7.328125 8.296875 
Q 12.9375 14.109375 22.625 23.890625 
Q 32.328125 33.6875 34.8125 36.53125 
Q 39.546875 41.84375 41.421875 45.53125 
Q 43.3125 49.21875 43.3125 52.78125 
Q 43.3125 58.59375 39.234375 62.25 
Q 35.15625 65.921875 28.609375 65.921875 
Q 23.96875 65.921875 18.8125 64.3125 
Q 13.671875 62.703125 7.8125 59.421875 
L 7.8125 69.390625 
Q 13.765625 71.78125 18.9375 73 
Q 24.125 74.21875 28.421875 74.21875 
Q 39.75 74.21875 46.484375 68.546875 
Q 53.21875 62.890625 53.21875 53.421875 
Q 53.21875 48.921875 51.53125 44.890625 
Q 49.859375 40.875 45.40625 35.40625 
Q 44.1875 33.984375 37.640625 27.21875 
Q 31.109375 20.453125 19.1875 8.296875 
" id="DejaVuSans-32"/>
      </defs>
      <g transform="translate(130.812074 322.182437)scale(0.1 -0.1)">
       <use xlink:href="#DejaVuSans-30"/>
       <use x="63.623047" xlink:href="#DejaVuSans-2e"/>
       <use x="95.410156" xlink:href="#DejaVuSans-32"/>
      </g>
     </g>
    </g>
    <g id="xtick_3">
     <g id="line2d_3">
      <g>
       <use style="stroke:#000000;stroke-width:0.8;" x="203.694545" xlink:href="#m4c95344577" y="307.584"/>
      </g>
     </g>
     <g id="text_3">
      <!-- 0.4 -->
      <defs>
       <path d="M 37.796875 64.3125 
L 12.890625 25.390625 
L 37.796875 25.390625 
z
M 35.203125 72.90625 
L 47.609375 72.90625 
L 47.609375 25.390625 
L 58.015625 25.390625 
L 58.015625 17.1875 
L 47.609375 17.1875 
L 47.609375 0 
L 37.796875 0 
L 37.796875 17.1875 
L 4.890625 17.1875 
L 4.890625 26.703125 
z
" id="DejaVuSans-34"/>
      </defs>
      <g transform="translate(195.742983 322.182437)scale(0.1 -0.1)">
       <use xlink:href="#DejaVuSans-30"/>
       <use x="63.623047" xlink:href="#DejaVuSans-2e"/>
       <use x="95.410156" xlink:href="#DejaVuSans-34"/>
      </g>
     </g>
    </g>
    <g id="xtick_4">
     <g id="line2d_4">
      <g>
       <use style="stroke:#000000;stroke-width:0.8;" x="268.625455" xlink:href="#m4c95344577" y="307.584"/>
      </g>
     </g>
     <g id="text_4">
      <!-- 0.6 -->
      <defs>
       <path d="M 33.015625 40.375 
Q 26.375 40.375 22.484375 35.828125 
Q 18.609375 31.296875 18.609375 23.390625 
Q 18.609375 15.53125 22.484375 10.953125 
Q 26.375 6.390625 33.015625 6.390625 
Q 39.65625 6.390625 43.53125 10.953125 
Q 47.40625 15.53125 47.40625 23.390625 
Q 47.40625 31.296875 43.53125 35.828125 
Q 39.65625 40.375 33.015625 40.375 
M 52.59375 71.296875 
L 52.59375 62.3125 
Q 48.875 64.0625 45.09375 64.984375 
Q 41.3125 65.921875 37.59375 65.921875 
Q 27.828125 65.921875 22.671875 59.328125 
Q 17.53125 52.734375 16.796875 39.40625 
Q 19.671875 43.65625 24.015625 45.921875 
Q 28.375 48.1875 33.59375 48.1875 
Q 44.578125 48.1875 50.953125 41.515625 
Q 57.328125 34.859375 57.328125 23.390625 
Q 57.328125 12.15625 50.6875 5.359375 
Q 44.046875 -1.421875 33.015625 -1.421875 
Q 20.359375 -1.421875 13.671875 8.265625 
Q 6.984375 17.96875 6.984375 36.375 
Q 6.984375 53.65625 15.1875 63.9375 
Q 23.390625 74.21875 37.203125 74.21875 
Q 40.921875 74.21875 44.703125 73.484375 
Q 48.484375 72.75 52.59375 71.296875 
" id="DejaVuSans-36"/>
      </defs>
      <g transform="translate(260.673892 322.182437)scale(0.1 -0.1)">
       <use xlink:href="#DejaVuSans-30"/>
       <use x="63.623047" xlink:href="#DejaVuSans-2e"/>
       <use x="95.410156" xlink:href="#DejaVuSans-36"/>
      </g>
     </g>
    </g>
    <g id="xtick_5">
     <g id="line2d_5">
      <g>
       <use style="stroke:#000000;stroke-width:0.8;" x="333.556364" xlink:href="#m4c95344577" y="307.584"/>
      </g>
     </g>
     <g id="text_5">
      <!-- 0.8 -->
      <defs>
       <path d="M 31.78125 34.625 
Q 24.75 34.625 20.71875 30.859375 
Q 16.703125 27.09375 16.703125 20.515625 
Q 16.703125 13.921875 20.71875 10.15625 
Q 24.75 6.390625 31.78125 6.390625 
Q 38.8125 6.390625 42.859375 10.171875 
Q 46.921875 13.96875 46.921875 20.515625 
Q 46.921875 27.09375 42.890625 30.859375 
Q 38.875 34.625 31.78125 34.625 
M 21.921875 38.8125 
Q 15.578125 40.375 12.03125 44.71875 
Q 8.5 49.078125 8.5 55.328125 
Q 8.5 64.0625 14.71875 69.140625 
Q 20.953125 74.21875 31.78125 74.21875 
Q 42.671875 74.21875 48.875 69.140625 
Q 55.078125 64.0625 55.078125 55.328125 
Q 55.078125 49.078125 51.53125 44.71875 
Q 48 40.375 41.703125 38.8125 
Q 48.828125 37.15625 52.796875 32.3125 
Q 56.78125 27.484375 56.78125 20.515625 
Q 56.78125 9.90625 50.3125 4.234375 
Q 43.84375 -1.421875 31.78125 -1.421875 
Q 19.734375 -1.421875 13.25 4.234375 
Q 6.78125 9.90625 6.78125 20.515625 
Q 6.78125 27.484375 10.78125 32.3125 
Q 14.796875 37.15625 21.921875 38.8125 
M 18.3125 54.390625 
Q 18.3125 48.734375 21.84375 45.5625 
Q 25.390625 42.390625 31.78125 42.390625 
Q 38.140625 42.390625 41.71875 45.5625 
Q 45.3125 48.734375 45.3125 54.390625 
Q 45.3125 60.0625 41.71875 63.234375 
Q 38.140625 66.40625 31.78125 66.40625 
Q 25.390625 66.40625 21.84375 63.234375 
Q 18.3125 60.0625 18.3125 54.390625 
" id="DejaVuSans-38"/>
      </defs>
      <g transform="translate(325.604801 322.182437)scale(0.1 -0.1)">
       <use xlink:href="#DejaVuSans-30"/>
       <use x="63.623047" xlink:href="#DejaVuSans-2e"/>
       <use x="95.410156" xlink:href="#DejaVuSans-38"/>
      </g>
     </g>
    </g>
    <g id="xtick_6">
     <g id="line2d_6">
      <g>
       <use style="stroke:#000000;stroke-width:0.8;" x="398.487273" xlink:href="#m4c95344577" y="307.584"/>
      </g>
     </g>
     <g id="text_6">
      <!-- 1.0 -->
      <defs>
       <path d="M 12.40625 8.296875 
L 28.515625 8.296875 
L 28.515625 63.921875 
L 10.984375 60.40625 
L 10.984375 69.390625 
L 28.421875 72.90625 
L 38.28125 72.90625 
L 38.28125 8.296875 
L 54.390625 8.296875 
L 54.390625 0 
L 12.40625 0 
z
" id="DejaVuSans-31"/>
      </defs>
      <g transform="translate(390.53571 322.182437)scale(0.1 -0.1)">
       <use xlink:href="#DejaVuSans-31"/>
       <use x="63.623047" xlink:href="#DejaVuSans-2e"/>
       <use x="95.410156" xlink:href="#DejaVuSans-30"/>
      </g>
     </g>
    </g>
   </g>
   <g id="matplotlib.axis_2">
    <g id="ytick_1">
     <g id="line2d_7">
      <defs>
       <path d="M 0 0 
L -3.5 0 
" id="m5536a3541d" style="stroke:#000000;stroke-width:0.8;"/>
      </defs>
      <g>
       <use style="stroke:#000000;stroke-width:0.8;" x="57.6" xlink:href="#m5536a3541d" y="260.387498"/>
      </g>
     </g>
     <g id="text_7">
      <!-- 0.2 -->
      <g transform="translate(34.696875 264.186717)scale(0.1 -0.1)">
       <use xlink:href="#DejaVuSans-30"/>
       <use x="63.623047" xlink:href="#DejaVuSans-2e"/>
       <use x="95.410156" xlink:href="#DejaVuSans-32"/>
      </g>
     </g>
    </g>
    <g id="ytick_2">
     <g id="line2d_8">
      <g>
       <use style="stroke:#000000;stroke-width:0.8;" x="57.6" xlink:href="#m5536a3541d" y="205.026071"/>
      </g>
     </g>
     <g id="text_8">
      <!-- 0.4 -->
      <g transform="translate(34.696875 208.82529)scale(0.1 -0.1)">
       <use xlink:href="#DejaVuSans-30"/>
       <use x="63.623047" xlink:href="#DejaVuSans-2e"/>
       <use x="95.410156" xlink:href="#DejaVuSans-34"/>
      </g>
     </g>
    </g>
    <g id="ytick_3">
     <g id="line2d_9">
      <g>
       <use style="stroke:#000000;stroke-width:0.8;" x="57.6" xlink:href="#m5536a3541d" y="149.664643"/>
      </g>
     </g>
     <g id="text_9">
      <!-- 0.6 -->
      <g transform="translate(34.696875 153.463862)scale(0.1 -0.1)">
       <use xlink:href="#DejaVuSans-30"/>
       <use x="63.623047" xlink:href="#DejaVuSans-2e"/>
       <use x="95.410156" xlink:href="#DejaVuSans-36"/>
      </g>
     </g>
    </g>
    <g id="ytick_4">
     <g id="line2d_10">
      <g>
       <use style="stroke:#000000;stroke-width:0.8;" x="57.6" xlink:href="#m5536a3541d" y="94.303215"/>
      </g>
     </g>
     <g id="text_10">
      <!-- 0.8 -->
      <g transform="translate(34.696875 98.102434)scale(0.1 -0.1)">
       <use xlink:href="#DejaVuSans-30"/>
       <use x="63.623047" xlink:href="#DejaVuSans-2e"/>
       <use x="95.410156" xlink:href="#DejaVuSans-38"/>
      </g>
     </g>
    </g>
   </g>
   <g id="line2d_11">
    <path clip-path="url(#p0f405e7136)" d="M 73.832727 134.570627 
L 75.48072 148.012935 
L 77.128713 159.293933 
L 78.776705 168.53071 
L 80.424698 175.982359 
L 82.07269 181.965545 
L 83.720683 186.80275 
L 85.368676 190.793201 
L 87.016668 194.202912 
L 90.312653 200.157587 
L 93.608639 206.108387 
L 95.256631 209.422322 
L 96.904624 213.107455 
L 98.552617 217.25458 
L 100.200609 221.939264 
L 101.848602 227.214931 
L 103.496594 233.103449 
L 105.144587 239.579352 
L 108.440572 253.818035 
L 111.736557 267.912777 
L 113.38455 273.757283 
L 115.032543 278.019836 
L 116.680535 280.151805 
L 118.328528 279.778115 
L 119.976521 276.805207 
L 121.624513 271.461168 
L 123.272506 264.251449 
L 126.568491 246.93827 
L 129.864476 229.926534 
L 131.512469 222.590591 
L 133.160461 216.293782 
L 134.808454 211.082057 
L 136.456447 206.924691 
L 138.104439 203.746668 
L 139.752432 201.453875 
L 141.400425 199.948874 
L 143.048417 199.143642 
L 144.69641 198.965932 
L 146.344402 199.362043 
L 147.992395 200.298205 
L 149.640388 201.7603 
L 151.28838 203.753312 
L 152.936373 206.29883 
L 154.584365 209.433948 
L 156.232358 213.205999 
L 157.880351 217.669514 
L 159.528343 222.877086 
L 161.176336 228.866916 
L 162.824329 235.644262 
L 164.472321 243.1557 
L 171.064292 275.441655 
L 172.712284 281.450861 
L 174.360277 285.182498 
L 176.008269 286.009598 
L 177.656262 283.630163 
L 179.304255 278.176232 
L 180.952247 270.195606 
L 182.60024 260.513446 
L 187.544218 229.738858 
L 189.19221 220.938052 
L 190.840203 213.364055 
L 192.488196 207.063094 
L 194.136188 201.980362 
L 195.784181 198.00375 
L 197.432174 194.996795 
L 199.080166 192.820537 
L 200.728159 191.347923 
L 202.376151 190.470444 
L 204.024144 190.101183 
L 205.672137 190.176198 
L 207.320129 190.653137 
L 208.968122 191.510132 
L 210.616114 192.743861 
L 212.264107 194.36955 
L 213.9121 196.418753 
L 215.560092 198.938805 
L 217.208085 201.993649 
L 218.856078 205.661343 
L 220.50407 210.032681 
L 222.152063 215.206484 
L 223.800055 221.282677 
L 225.448048 228.345135 
L 227.096041 236.437868 
L 228.744033 245.525723 
L 232.040018 265.805721 
L 233.688011 275.992778 
L 235.336004 285.083678 
L 236.983996 291.956467 
L 238.631989 295.488 
L 240.279982 294.865627 
L 241.927974 289.876649 
L 243.575967 281.018488 
L 245.223959 269.354943 
L 250.167937 230.06466 
L 251.81593 218.639446 
L 253.463922 208.794246 
L 255.111915 200.579164 
L 256.759908 193.892334 
L 258.4079 188.55051 
L 260.055893 184.337505 
L 261.703886 181.036026 
L 263.351878 178.444558 
L 264.999871 176.385667 
L 266.647863 174.708769 
L 268.295856 173.287641 
L 276.535819 166.847446 
L 278.183812 165.199613 
L 279.831804 163.28134 
L 281.479797 161.021486 
L 283.12779 158.339779 
L 284.775782 155.146255 
L 286.423775 151.336835 
L 288.071767 146.796367 
L 289.71976 141.398075 
L 291.367753 135.013241 
L 293.015745 127.523947 
L 294.663738 118.85158 
L 296.311731 109.001951 
L 299.607716 86.635934 
L 301.255708 75.234802 
L 302.903701 65.012038 
L 304.551694 57.330639 
L 306.199686 53.568 
L 307.847679 54.702079 
L 309.495671 60.930239 
L 311.143664 71.548838 
L 312.791657 85.184635 
L 316.087642 115.268311 
L 317.735635 129.262019 
L 319.383627 141.626994 
L 321.03162 152.137638 
L 322.679612 160.821078 
L 324.327605 167.853363 
L 325.975598 173.482236 
L 327.62359 177.97537 
L 329.271583 181.591855 
L 330.919575 184.565871 
L 332.567568 187.101148 
L 335.863553 191.530616 
L 339.159539 195.999667 
L 340.807531 198.527746 
L 342.455524 201.384119 
L 344.103516 204.664007 
L 345.751509 208.464292 
L 347.399502 212.880473 
L 349.047494 218.005834 
L 350.695487 223.92314 
L 352.343479 230.689968 
L 353.991472 238.316558 
L 355.639465 246.731218 
L 360.583443 273.824271 
L 362.231435 281.535564 
L 363.879428 287.181876 
L 365.52742 289.893174 
L 367.175413 289.074877 
L 368.823406 284.607569 
L 370.471398 276.912331 
L 372.119391 266.840703 
L 377.063369 232.529351 
L 378.711361 222.35835 
L 380.359354 213.513254 
L 382.007347 206.08209 
L 383.655339 200.016692 
L 385.303332 195.19056 
L 386.951324 191.4401 
L 388.599317 188.593692 
L 390.24731 186.490511 
L 391.895302 184.988556 
L 393.543295 183.969075 
L 395.191287 183.337401 
L 396.83928 183.020734 
L 398.487273 182.965926 
L 398.487273 182.965926 
" style="fill:none;stroke:#1f77b4;stroke-linecap:square;stroke-width:1.5;"/>
   </g>
   <g id="line2d_12">
    <path clip-path="url(#p0f405e7136)" d="M 73.832727 135.288557 
L 75.48072 150.22548 
L 77.128713 162.055444 
L 78.776705 171.258387 
L 80.424698 178.407261 
L 82.07269 184.008375 
L 83.720683 188.478038 
L 85.368676 192.153439 
L 87.016668 195.30863 
L 93.608639 206.686268 
L 95.256631 209.945876 
L 96.904624 213.591474 
L 98.552617 217.705457 
L 100.200609 222.353232 
L 101.848602 227.576951 
L 103.496594 233.380899 
L 106.79258 246.453133 
L 110.088565 260.154462 
L 111.736557 266.394337 
L 113.38455 271.66493 
L 115.032543 275.576917 
L 116.680535 277.818557 
L 118.328528 278.154686 
L 119.976521 276.39964 
L 121.624513 272.431636 
L 123.272506 266.28589 
L 124.920498 258.294752 
L 129.864476 230.662512 
L 131.512469 222.68382 
L 133.160461 215.966412 
L 134.808454 210.544873 
L 136.456447 206.335091 
L 138.104439 203.203876 
L 139.752432 201.009435 
L 141.400425 199.624346 
L 143.048417 198.940543 
L 144.69641 198.875146 
L 146.344402 199.370569 
L 147.992395 200.390879 
L 149.640388 201.922813 
L 151.28838 203.97189 
L 152.936373 206.560859 
L 154.584365 209.726725 
L 156.232358 213.516142 
L 157.880351 217.978877 
L 159.528343 223.160562 
L 161.176336 229.085334 
L 162.824329 235.734437 
L 166.120314 250.734036 
L 169.416299 266.029184 
L 171.064292 272.620679 
L 172.712284 277.824708 
L 174.360277 281.241675 
L 176.008269 282.586425 
L 177.656262 281.625235 
L 179.304255 278.12536 
L 180.952247 271.933511 
L 182.60024 263.210477 
L 184.248233 252.645664 
L 187.544218 230.485968 
L 189.19221 220.81739 
L 190.840203 212.698529 
L 192.488196 206.152573 
L 194.136188 201.037217 
L 195.784181 197.152119 
L 197.432174 194.294882 
L 199.080166 192.285286 
L 200.728159 190.972483 
L 202.376151 190.237492 
L 204.024144 189.989856 
L 205.672137 190.165039 
L 207.320129 190.723524 
L 208.968122 191.64517 
L 210.616114 192.930681 
L 212.264107 194.596353 
L 213.9121 196.676209 
L 215.560092 199.2186 
L 217.208085 202.286763 
L 218.856078 205.958237 
L 220.50407 210.319671 
L 222.152063 215.463892 
L 223.800055 221.476827 
L 225.448048 228.420379 
L 227.096041 236.296172 
L 230.392026 254.261623 
L 233.688011 272.339472 
L 235.336004 279.745876 
L 236.983996 285.208648 
L 238.631989 288.355355 
L 240.279982 288.96016 
L 241.927974 286.732595 
L 243.575967 281.215505 
L 245.223959 272.045316 
L 246.871952 259.572761 
L 250.167937 230.91732 
L 251.81593 218.130605 
L 253.463922 207.480665 
L 255.111915 198.966834 
L 256.759908 192.309747 
L 258.4079 187.162982 
L 260.055893 183.204346 
L 261.703886 180.157471 
L 263.351878 177.793094 
L 264.999871 175.924381 
L 266.647863 174.399211 
L 269.943849 171.912614 
L 273.239834 169.589993 
L 274.887826 168.315887 
L 276.535819 166.884356 
L 278.183812 165.236008 
L 279.831804 163.305131 
L 281.479797 161.021021 
L 283.12779 158.302923 
L 284.775782 155.056546 
L 286.423775 151.176415 
L 288.071767 146.540598 
L 289.71976 141.01869 
L 291.367753 134.477605 
L 293.015745 126.806757 
L 294.663738 117.955898 
L 296.311731 108.010143 
L 301.255708 76.417971 
L 302.903701 68.231219 
L 304.551694 62.565993 
L 306.199686 59.641605 
L 307.847679 59.506622 
L 309.495671 62.488919 
L 311.143664 69.351884 
L 312.791657 80.739203 
L 314.439649 96.02954 
L 317.735635 129.17346 
L 319.383627 143.058777 
L 321.03162 154.30829 
L 322.679612 163.164325 
L 324.327605 170.055385 
L 325.975598 175.409159 
L 327.62359 179.598099 
L 329.271583 182.931019 
L 330.919575 185.663837 
L 332.567568 188.00413 
L 339.159539 196.491153 
L 340.807531 198.977167 
L 342.455524 201.803254 
L 344.103516 205.060976 
L 345.751509 208.840594 
L 347.399502 213.232401 
L 349.047494 218.320111 
L 350.695487 224.172624 
L 352.343479 230.825711 
L 353.991472 238.251869 
L 357.287457 254.77177 
L 358.93545 263.160094 
L 360.583443 270.917364 
L 362.231435 277.436162 
L 363.879428 282.202706 
L 365.52742 284.865247 
L 367.175413 285.175035 
L 368.823406 282.867996 
L 370.471398 277.640081 
L 372.119391 269.360117 
L 373.767383 258.453365 
L 377.063369 233.624523 
L 378.711361 222.319405 
L 380.359354 212.722168 
L 382.007347 204.936055 
L 383.655339 198.804755 
L 385.303332 194.080905 
L 386.951324 190.510328 
L 388.599317 187.865763 
L 390.24731 185.955196 
L 391.895302 184.622982 
L 393.543295 183.746508 
L 395.191287 183.230669 
L 396.83928 183.006382 
L 398.487273 183.024168 
L 398.487273 183.024168 
" style="fill:none;stroke:#ff7f0e;stroke-linecap:square;stroke-width:1.5;"/>
   </g>
   <g id="line2d_13">
    <path clip-path="url(#p0f405e7136)" d="M 73.832727 137.626598 
L 75.48072 152.698134 
L 77.128713 164.312057 
L 78.776705 173.136573 
L 80.424698 179.910329 
L 82.07269 185.182725 
L 83.720683 189.379517 
L 85.368676 192.938471 
L 93.608639 208.313381 
L 95.256631 211.745155 
L 96.904624 215.511278 
L 98.552617 219.668386 
L 100.200609 224.297925 
L 101.848602 229.394979 
L 103.496594 234.910345 
L 105.144587 240.870079 
L 108.440572 254.524095 
L 110.088565 261.522209 
L 111.736557 267.96703 
L 113.38455 273.425495 
L 115.032543 277.428425 
L 116.680535 279.721353 
L 118.328528 279.990265 
L 119.976521 278.104872 
L 121.624513 274.004125 
L 123.272506 267.683018 
L 129.864476 235.532884 
L 131.512469 228.090287 
L 133.160461 221.304969 
L 134.808454 215.539642 
L 136.456447 210.838099 
L 138.104439 207.120468 
L 139.752432 204.314807 
L 141.400425 202.440787 
L 143.048417 201.348306 
L 144.69641 201.004174 
L 146.344402 201.270002 
L 147.992395 202.218569 
L 149.640388 203.724533 
L 151.28838 205.783779 
L 152.936373 208.422925 
L 154.584365 211.666469 
L 156.232358 215.447683 
L 157.880351 219.899557 
L 159.528343 225.017977 
L 161.176336 230.722786 
L 162.824329 237.048736 
L 164.472321 244.035055 
L 169.416299 267.656884 
L 171.064292 274.46282 
L 172.712284 279.870557 
L 174.360277 283.366113 
L 176.008269 284.677766 
L 177.656262 283.576892 
L 179.304255 279.916548 
L 180.952247 273.548407 
L 182.60024 264.622422 
L 184.248233 254.428213 
L 189.19221 226.80467 
L 190.840203 218.561615 
L 192.488196 211.484502 
L 194.136188 205.622923 
L 195.784181 200.982911 
L 197.432174 197.359885 
L 199.080166 194.705528 
L 200.728159 192.825231 
L 202.376151 191.668264 
L 204.024144 191.132562 
L 205.672137 191.136101 
L 207.320129 191.635396 
L 208.968122 192.504777 
L 210.616114 193.817436 
L 212.264107 195.54839 
L 213.9121 197.72468 
L 215.560092 200.373702 
L 217.208085 203.596805 
L 218.856078 207.427161 
L 220.50407 211.907631 
L 222.152063 217.106273 
L 223.800055 223.086646 
L 225.448048 229.880302 
L 227.096041 237.463414 
L 228.744033 246.112964 
L 233.688011 274.285634 
L 235.336004 281.974907 
L 236.983996 287.594398 
L 238.631989 290.785926 
L 240.279982 291.320789 
L 241.927974 288.915387 
L 243.575967 283.162484 
L 245.223959 273.834399 
L 248.519945 248.819495 
L 251.81593 225.136536 
L 253.463922 214.28503 
L 255.111915 204.880413 
L 256.759908 197.102116 
L 258.4079 190.917827 
L 260.055893 185.911306 
L 261.703886 181.802079 
L 263.351878 178.554928 
L 264.999871 176.212482 
L 266.647863 174.680107 
L 268.295856 173.371479 
L 274.887826 168.667296 
L 276.535819 167.242964 
L 278.183812 165.606248 
L 279.831804 163.70948 
L 281.479797 161.459271 
L 283.12779 158.776402 
L 284.775782 155.560526 
L 286.423775 151.714691 
L 288.071767 147.123085 
L 289.71976 141.633485 
L 291.367753 135.114612 
L 293.015745 127.425901 
L 294.663738 118.534488 
L 296.311731 108.422682 
L 297.959723 97.525076 
L 299.607716 88.188749 
L 301.255708 80.175578 
L 302.903701 73.641893 
L 304.551694 68.905588 
L 306.199686 66.224748 
L 307.847679 65.818929 
L 309.495671 67.853364 
L 311.143664 72.883267 
L 312.791657 82.283683 
L 314.439649 96.853563 
L 317.735635 131.143267 
L 319.383627 145.254169 
L 321.03162 156.358789 
L 322.679612 164.968637 
L 324.327605 171.548907 
L 325.975598 176.62295 
L 327.62359 180.555058 
L 329.271583 183.692238 
L 330.919575 186.304109 
L 334.215561 190.683735 
L 337.511546 194.966087 
L 339.159539 197.387067 
L 340.807531 200.052237 
L 342.455524 203.092437 
L 344.103516 206.523991 
L 345.751509 210.462125 
L 347.399502 214.961062 
L 349.047494 220.07415 
L 350.695487 225.855158 
L 352.343479 232.286099 
L 353.991472 239.375426 
L 357.287457 256.01239 
L 358.93545 264.713843 
L 360.583443 272.762197 
L 362.231435 279.520987 
L 363.879428 284.429039 
L 365.52742 287.118499 
L 367.175413 287.353328 
L 368.823406 284.845265 
L 370.471398 279.447775 
L 372.119391 270.972445 
L 375.415376 249.16472 
L 378.711361 228.615545 
L 380.359354 219.079608 
L 382.007347 210.710643 
L 383.655339 203.742423 
L 385.303332 198.027822 
L 386.951324 193.61674 
L 388.599317 190.171617 
L 390.24731 187.542818 
L 391.895302 185.660353 
L 393.543295 184.397902 
L 395.191287 183.675529 
L 396.83928 183.390564 
L 398.487273 183.391987 
L 398.487273 183.391987 
" style="fill:none;stroke:#2ca02c;stroke-linecap:square;stroke-width:1.5;"/>
   </g>
   <g id="line2d_14">
    <path clip-path="url(#p0f405e7136)" d="M 73.832727 124.647784 
L 75.48072 139.793614 
L 77.128713 153.145955 
L 78.776705 164.367844 
L 80.424698 173.390826 
L 82.07269 180.530918 
L 83.720683 186.375388 
L 85.368676 191.197333 
L 87.016668 194.832903 
L 90.312653 200.477527 
L 93.608639 206.241429 
L 95.256631 209.504824 
L 96.904624 213.161703 
L 98.552617 217.291798 
L 100.200609 221.990291 
L 101.848602 227.252108 
L 103.496594 233.111087 
L 110.088565 258.406414 
L 111.736557 263.520616 
L 113.38455 267.858717 
L 115.032543 271.062668 
L 116.680535 272.998309 
L 118.328528 273.428168 
L 119.976521 272.25177 
L 121.624513 269.420125 
L 123.272506 264.875457 
L 124.920498 258.025202 
L 129.864476 229.739365 
L 131.512469 221.741601 
L 133.160461 215.007238 
L 134.808454 209.605804 
L 136.456447 205.442104 
L 138.104439 202.368571 
L 139.752432 200.242546 
L 141.400425 198.933618 
L 143.048417 198.311432 
L 144.69641 198.304114 
L 146.344402 198.827717 
L 147.992395 199.869236 
L 149.640388 201.429733 
L 151.28838 203.491965 
L 152.936373 206.100685 
L 154.584365 209.272576 
L 156.232358 213.086918 
L 157.880351 217.570145 
L 159.528343 222.804738 
L 161.176336 228.776303 
L 162.824329 235.479831 
L 167.768306 256.938842 
L 169.416299 263.063286 
L 171.064292 268.503625 
L 172.712284 272.725192 
L 174.360277 275.559444 
L 176.008269 276.781109 
L 177.656262 276.199813 
L 179.304255 273.737996 
L 180.952247 269.223076 
L 182.60024 262.672988 
L 184.248233 252.115776 
L 187.544218 229.396724 
L 189.19221 219.728005 
L 190.840203 211.617712 
L 192.488196 205.099746 
L 194.136188 200.065196 
L 195.784181 196.270775 
L 197.432174 193.503612 
L 199.080166 191.588109 
L 200.728159 190.358306 
L 202.376151 189.669416 
L 204.024144 189.467977 
L 205.672137 189.678706 
L 207.320129 190.257283 
L 208.968122 191.197006 
L 210.616114 192.489438 
L 212.264107 194.158668 
L 213.9121 196.239448 
L 215.560092 198.772411 
L 217.208085 201.836089 
L 218.856078 205.520241 
L 220.50407 209.907311 
L 222.152063 215.069663 
L 223.800055 221.118243 
L 225.448048 228.108857 
L 227.096041 236.019724 
L 230.392026 253.048525 
L 232.040018 260.906581 
L 233.688011 268.056569 
L 235.336004 274.039115 
L 236.983996 278.502427 
L 238.631989 281.164621 
L 240.279982 281.851467 
L 241.927974 280.238304 
L 243.575967 276.260728 
L 245.223959 269.540562 
L 246.871952 259.056105 
L 250.167937 229.538734 
L 251.81593 216.739207 
L 253.463922 206.162759 
L 255.111915 197.730126 
L 256.759908 191.184506 
L 258.4079 186.181869 
L 260.055893 182.365256 
L 261.703886 179.41771 
L 263.351878 177.135774 
L 264.999871 175.280157 
L 268.295856 172.118119 
L 276.535819 164.939523 
L 278.183812 163.116692 
L 279.831804 161.003413 
L 281.479797 158.490797 
L 283.12779 155.552146 
L 284.775782 152.098801 
L 286.423775 147.950163 
L 288.071767 143.078818 
L 289.71976 137.38891 
L 291.367753 130.780483 
L 293.015745 123.166343 
L 294.663738 114.570949 
L 296.311731 105.015898 
L 301.255708 74.277515 
L 302.903701 65.714386 
L 304.551694 59.773826 
L 306.199686 56.742802 
L 307.847679 56.675562 
L 309.495671 59.870984 
L 311.143664 67.059085 
L 312.791657 78.527272 
L 314.439649 92.474164 
L 317.735635 119.336424 
L 319.383627 132.995942 
L 321.03162 145.199867 
L 322.679612 155.519239 
L 324.327605 164.017917 
L 325.975598 170.927178 
L 327.62359 176.384349 
L 329.271583 180.790133 
L 330.919575 184.423125 
L 332.567568 187.378776 
L 334.215561 189.685212 
L 337.511546 193.827145 
L 339.159539 196.053198 
L 340.807531 198.54181 
L 342.455524 201.356799 
L 344.103516 204.622431 
L 345.751509 208.407526 
L 347.399502 212.8238 
L 349.047494 217.93313 
L 350.695487 223.823214 
L 352.343479 230.518131 
L 355.639465 245.968255 
L 357.287457 253.617834 
L 358.93545 260.630549 
L 360.583443 266.990813 
L 362.231435 272.281074 
L 363.879428 276.146202 
L 365.52742 278.435005 
L 367.175413 278.888984 
L 368.823406 277.269139 
L 370.471398 273.493282 
L 372.119391 267.445079 
L 373.767383 258.021446 
L 377.063369 232.464103 
L 378.711361 221.101236 
L 380.359354 211.537796 
L 382.007347 203.78614 
L 383.655339 197.749996 
L 385.303332 193.132071 
L 386.951324 189.675867 
L 388.599317 187.147221 
L 390.24731 185.329337 
L 391.895302 184.062616 
L 393.543295 183.240392 
L 395.191287 182.735689 
L 396.83928 182.53338 
L 398.487273 182.553847 
L 398.487273 182.553847 
" style="fill:none;stroke:#d62728;stroke-linecap:square;stroke-width:1.5;"/>
   </g>
   <g id="patch_3">
    <path d="M 57.6 307.584 
L 57.6 41.472 
" style="fill:none;stroke:#000000;stroke-linecap:square;stroke-linejoin:miter;stroke-width:0.8;"/>
   </g>
   <g id="patch_4">
    <path d="M 414.72 307.584 
L 414.72 41.472 
" style="fill:none;stroke:#000000;stroke-linecap:square;stroke-linejoin:miter;stroke-width:0.8;"/>
   </g>
   <g id="patch_5">
    <path d="M 57.6 307.584 
L 414.72 307.584 
" style="fill:none;stroke:#000000;stroke-linecap:square;stroke-linejoin:miter;stroke-width:0.8;"/>
   </g>
   <g id="patch_6">
    <path d="M 57.6 41.472 
L 414.72 41.472 
" style="fill:none;stroke:#000000;stroke-linecap:square;stroke-linejoin:miter;stroke-width:0.8;"/>
   </g>
   <g id="text_11">
    <!-- Plot of Test Data vs MCMC Uncertainty  -->
    <defs>
     <path d="M 19.671875 64.796875 
L 19.671875 37.40625 
L 32.078125 37.40625 
Q 38.96875 37.40625 42.71875 40.96875 
Q 46.484375 44.53125 46.484375 51.125 
Q 46.484375 57.671875 42.71875 61.234375 
Q 38.96875 64.796875 32.078125 64.796875 
z
M 9.8125 72.90625 
L 32.078125 72.90625 
Q 44.34375 72.90625 50.609375 67.359375 
Q 56.890625 61.8125 56.890625 51.125 
Q 56.890625 40.328125 50.609375 34.8125 
Q 44.34375 29.296875 32.078125 29.296875 
L 19.671875 29.296875 
L 19.671875 0 
L 9.8125 0 
z
" id="DejaVuSans-50"/>
     <path d="M 9.421875 75.984375 
L 18.40625 75.984375 
L 18.40625 0 
L 9.421875 0 
z
" id="DejaVuSans-6c"/>
     <path d="M 30.609375 48.390625 
Q 23.390625 48.390625 19.1875 42.75 
Q 14.984375 37.109375 14.984375 27.296875 
Q 14.984375 17.484375 19.15625 11.84375 
Q 23.34375 6.203125 30.609375 6.203125 
Q 37.796875 6.203125 41.984375 11.859375 
Q 46.1875 17.53125 46.1875 27.296875 
Q 46.1875 37.015625 41.984375 42.703125 
Q 37.796875 48.390625 30.609375 48.390625 
M 30.609375 56 
Q 42.328125 56 49.015625 48.375 
Q 55.71875 40.765625 55.71875 27.296875 
Q 55.71875 13.875 49.015625 6.21875 
Q 42.328125 -1.421875 30.609375 -1.421875 
Q 18.84375 -1.421875 12.171875 6.21875 
Q 5.515625 13.875 5.515625 27.296875 
Q 5.515625 40.765625 12.171875 48.375 
Q 18.84375 56 30.609375 56 
" id="DejaVuSans-6f"/>
     <path d="M 18.3125 70.21875 
L 18.3125 54.6875 
L 36.8125 54.6875 
L 36.8125 47.703125 
L 18.3125 47.703125 
L 18.3125 18.015625 
Q 18.3125 11.328125 20.140625 9.421875 
Q 21.96875 7.515625 27.59375 7.515625 
L 36.8125 7.515625 
L 36.8125 0 
L 27.59375 0 
Q 17.1875 0 13.234375 3.875 
Q 9.28125 7.765625 9.28125 18.015625 
L 9.28125 47.703125 
L 2.6875 47.703125 
L 2.6875 54.6875 
L 9.28125 54.6875 
L 9.28125 70.21875 
z
" id="DejaVuSans-74"/>
     <path id="DejaVuSans-20"/>
     <path d="M 37.109375 75.984375 
L 37.109375 68.5 
L 28.515625 68.5 
Q 23.6875 68.5 21.796875 66.546875 
Q 19.921875 64.59375 19.921875 59.515625 
L 19.921875 54.6875 
L 34.71875 54.6875 
L 34.71875 47.703125 
L 19.921875 47.703125 
L 19.921875 0 
L 10.890625 0 
L 10.890625 47.703125 
L 2.296875 47.703125 
L 2.296875 54.6875 
L 10.890625 54.6875 
L 10.890625 58.5 
Q 10.890625 67.625 15.140625 71.796875 
Q 19.390625 75.984375 28.609375 75.984375 
z
" id="DejaVuSans-66"/>
     <path d="M -0.296875 72.90625 
L 61.375 72.90625 
L 61.375 64.59375 
L 35.5 64.59375 
L 35.5 0 
L 25.59375 0 
L 25.59375 64.59375 
L -0.296875 64.59375 
z
" id="DejaVuSans-54"/>
     <path d="M 56.203125 29.59375 
L 56.203125 25.203125 
L 14.890625 25.203125 
Q 15.484375 15.921875 20.484375 11.0625 
Q 25.484375 6.203125 34.421875 6.203125 
Q 39.59375 6.203125 44.453125 7.46875 
Q 49.3125 8.734375 54.109375 11.28125 
L 54.109375 2.78125 
Q 49.265625 0.734375 44.1875 -0.34375 
Q 39.109375 -1.421875 33.890625 -1.421875 
Q 20.796875 -1.421875 13.15625 6.1875 
Q 5.515625 13.8125 5.515625 26.8125 
Q 5.515625 40.234375 12.765625 48.109375 
Q 20.015625 56 32.328125 56 
Q 43.359375 56 49.78125 48.890625 
Q 56.203125 41.796875 56.203125 29.59375 
M 47.21875 32.234375 
Q 47.125 39.59375 43.09375 43.984375 
Q 39.0625 48.390625 32.421875 48.390625 
Q 24.90625 48.390625 20.390625 44.140625 
Q 15.875 39.890625 15.1875 32.171875 
z
" id="DejaVuSans-65"/>
     <path d="M 44.28125 53.078125 
L 44.28125 44.578125 
Q 40.484375 46.53125 36.375 47.5 
Q 32.28125 48.484375 27.875 48.484375 
Q 21.1875 48.484375 17.84375 46.4375 
Q 14.5 44.390625 14.5 40.28125 
Q 14.5 37.15625 16.890625 35.375 
Q 19.28125 33.59375 26.515625 31.984375 
L 29.59375 31.296875 
Q 39.15625 29.25 43.1875 25.515625 
Q 47.21875 21.78125 47.21875 15.09375 
Q 47.21875 7.46875 41.1875 3.015625 
Q 35.15625 -1.421875 24.609375 -1.421875 
Q 20.21875 -1.421875 15.453125 -0.5625 
Q 10.6875 0.296875 5.421875 2 
L 5.421875 11.28125 
Q 10.40625 8.6875 15.234375 7.390625 
Q 20.0625 6.109375 24.8125 6.109375 
Q 31.15625 6.109375 34.5625 8.28125 
Q 37.984375 10.453125 37.984375 14.40625 
Q 37.984375 18.0625 35.515625 20.015625 
Q 33.0625 21.96875 24.703125 23.78125 
L 21.578125 24.515625 
Q 13.234375 26.265625 9.515625 29.90625 
Q 5.8125 33.546875 5.8125 39.890625 
Q 5.8125 47.609375 11.28125 51.796875 
Q 16.75 56 26.8125 56 
Q 31.78125 56 36.171875 55.265625 
Q 40.578125 54.546875 44.28125 53.078125 
" id="DejaVuSans-73"/>
     <path d="M 19.671875 64.796875 
L 19.671875 8.109375 
L 31.59375 8.109375 
Q 46.6875 8.109375 53.6875 14.9375 
Q 60.6875 21.78125 60.6875 36.53125 
Q 60.6875 51.171875 53.6875 57.984375 
Q 46.6875 64.796875 31.59375 64.796875 
z
M 9.8125 72.90625 
L 30.078125 72.90625 
Q 51.265625 72.90625 61.171875 64.09375 
Q 71.09375 55.28125 71.09375 36.53125 
Q 71.09375 17.671875 61.125 8.828125 
Q 51.171875 0 30.078125 0 
L 9.8125 0 
z
" id="DejaVuSans-44"/>
     <path d="M 34.28125 27.484375 
Q 23.390625 27.484375 19.1875 25 
Q 14.984375 22.515625 14.984375 16.5 
Q 14.984375 11.71875 18.140625 8.90625 
Q 21.296875 6.109375 26.703125 6.109375 
Q 34.1875 6.109375 38.703125 11.40625 
Q 43.21875 16.703125 43.21875 25.484375 
L 43.21875 27.484375 
z
M 52.203125 31.203125 
L 52.203125 0 
L 43.21875 0 
L 43.21875 8.296875 
Q 40.140625 3.328125 35.546875 0.953125 
Q 30.953125 -1.421875 24.3125 -1.421875 
Q 15.921875 -1.421875 10.953125 3.296875 
Q 6 8.015625 6 15.921875 
Q 6 25.140625 12.171875 29.828125 
Q 18.359375 34.515625 30.609375 34.515625 
L 43.21875 34.515625 
L 43.21875 35.40625 
Q 43.21875 41.609375 39.140625 45 
Q 35.0625 48.390625 27.6875 48.390625 
Q 23 48.390625 18.546875 47.265625 
Q 14.109375 46.140625 10.015625 43.890625 
L 10.015625 52.203125 
Q 14.9375 54.109375 19.578125 55.046875 
Q 24.21875 56 28.609375 56 
Q 40.484375 56 46.34375 49.84375 
Q 52.203125 43.703125 52.203125 31.203125 
" id="DejaVuSans-61"/>
     <path d="M 2.984375 54.6875 
L 12.5 54.6875 
L 29.59375 8.796875 
L 46.6875 54.6875 
L 56.203125 54.6875 
L 35.6875 0 
L 23.484375 0 
z
" id="DejaVuSans-76"/>
     <path d="M 9.8125 72.90625 
L 24.515625 72.90625 
L 43.109375 23.296875 
L 61.8125 72.90625 
L 76.515625 72.90625 
L 76.515625 0 
L 66.890625 0 
L 66.890625 64.015625 
L 48.09375 14.015625 
L 38.1875 14.015625 
L 19.390625 64.015625 
L 19.390625 0 
L 9.8125 0 
z
" id="DejaVuSans-4d"/>
     <path d="M 64.40625 67.28125 
L 64.40625 56.890625 
Q 59.421875 61.53125 53.78125 63.8125 
Q 48.140625 66.109375 41.796875 66.109375 
Q 29.296875 66.109375 22.65625 58.46875 
Q 16.015625 50.828125 16.015625 36.375 
Q 16.015625 21.96875 22.65625 14.328125 
Q 29.296875 6.6875 41.796875 6.6875 
Q 48.140625 6.6875 53.78125 8.984375 
Q 59.421875 11.28125 64.40625 15.921875 
L 64.40625 5.609375 
Q 59.234375 2.09375 53.4375 0.328125 
Q 47.65625 -1.421875 41.21875 -1.421875 
Q 24.65625 -1.421875 15.125 8.703125 
Q 5.609375 18.84375 5.609375 36.375 
Q 5.609375 53.953125 15.125 64.078125 
Q 24.65625 74.21875 41.21875 74.21875 
Q 47.75 74.21875 53.53125 72.484375 
Q 59.328125 70.75 64.40625 67.28125 
" id="DejaVuSans-43"/>
     <path d="M 8.6875 72.90625 
L 18.609375 72.90625 
L 18.609375 28.609375 
Q 18.609375 16.890625 22.84375 11.734375 
Q 27.09375 6.59375 36.625 6.59375 
Q 46.09375 6.59375 50.34375 11.734375 
Q 54.59375 16.890625 54.59375 28.609375 
L 54.59375 72.90625 
L 64.5 72.90625 
L 64.5 27.390625 
Q 64.5 13.140625 57.4375 5.859375 
Q 50.390625 -1.421875 36.625 -1.421875 
Q 22.796875 -1.421875 15.734375 5.859375 
Q 8.6875 13.140625 8.6875 27.390625 
z
" id="DejaVuSans-55"/>
     <path d="M 54.890625 33.015625 
L 54.890625 0 
L 45.90625 0 
L 45.90625 32.71875 
Q 45.90625 40.484375 42.875 44.328125 
Q 39.84375 48.1875 33.796875 48.1875 
Q 26.515625 48.1875 22.3125 43.546875 
Q 18.109375 38.921875 18.109375 30.90625 
L 18.109375 0 
L 9.078125 0 
L 9.078125 54.6875 
L 18.109375 54.6875 
L 18.109375 46.1875 
Q 21.34375 51.125 25.703125 53.5625 
Q 30.078125 56 35.796875 56 
Q 45.21875 56 50.046875 50.171875 
Q 54.890625 44.34375 54.890625 33.015625 
" id="DejaVuSans-6e"/>
     <path d="M 48.78125 52.59375 
L 48.78125 44.1875 
Q 44.96875 46.296875 41.140625 47.34375 
Q 37.3125 48.390625 33.40625 48.390625 
Q 24.65625 48.390625 19.8125 42.84375 
Q 14.984375 37.3125 14.984375 27.296875 
Q 14.984375 17.28125 19.8125 11.734375 
Q 24.65625 6.203125 33.40625 6.203125 
Q 37.3125 6.203125 41.140625 7.25 
Q 44.96875 8.296875 48.78125 10.40625 
L 48.78125 2.09375 
Q 45.015625 0.34375 40.984375 -0.53125 
Q 36.96875 -1.421875 32.421875 -1.421875 
Q 20.0625 -1.421875 12.78125 6.34375 
Q 5.515625 14.109375 5.515625 27.296875 
Q 5.515625 40.671875 12.859375 48.328125 
Q 20.21875 56 33.015625 56 
Q 37.15625 56 41.109375 55.140625 
Q 45.0625 54.296875 48.78125 52.59375 
" id="DejaVuSans-63"/>
     <path d="M 41.109375 46.296875 
Q 39.59375 47.171875 37.8125 47.578125 
Q 36.03125 48 33.890625 48 
Q 26.265625 48 22.1875 43.046875 
Q 18.109375 38.09375 18.109375 28.8125 
L 18.109375 0 
L 9.078125 0 
L 9.078125 54.6875 
L 18.109375 54.6875 
L 18.109375 46.1875 
Q 20.953125 51.171875 25.484375 53.578125 
Q 30.03125 56 36.53125 56 
Q 37.453125 56 38.578125 55.875 
Q 39.703125 55.765625 41.0625 55.515625 
z
" id="DejaVuSans-72"/>
     <path d="M 9.421875 54.6875 
L 18.40625 54.6875 
L 18.40625 0 
L 9.421875 0 
z
M 9.421875 75.984375 
L 18.40625 75.984375 
L 18.40625 64.59375 
L 9.421875 64.59375 
z
" id="DejaVuSans-69"/>
     <path d="M 32.171875 -5.078125 
Q 28.375 -14.84375 24.75 -17.8125 
Q 21.140625 -20.796875 15.09375 -20.796875 
L 7.90625 -20.796875 
L 7.90625 -13.28125 
L 13.1875 -13.28125 
Q 16.890625 -13.28125 18.9375 -11.515625 
Q 21 -9.765625 23.484375 -3.21875 
L 25.09375 0.875 
L 2.984375 54.6875 
L 12.5 54.6875 
L 29.59375 11.921875 
L 46.6875 54.6875 
L 56.203125 54.6875 
z
" id="DejaVuSans-79"/>
    </defs>
    <g transform="translate(118.112813 35.472)scale(0.12 -0.12)">
     <use xlink:href="#DejaVuSans-50"/>
     <use x="60.302734" xlink:href="#DejaVuSans-6c"/>
     <use x="88.085938" xlink:href="#DejaVuSans-6f"/>
     <use x="149.267578" xlink:href="#DejaVuSans-74"/>
     <use x="188.476562" xlink:href="#DejaVuSans-20"/>
     <use x="220.263672" xlink:href="#DejaVuSans-6f"/>
     <use x="281.445312" xlink:href="#DejaVuSans-66"/>
     <use x="316.650391" xlink:href="#DejaVuSans-20"/>
     <use x="348.4375" xlink:href="#DejaVuSans-54"/>
     <use x="409.255859" xlink:href="#DejaVuSans-65"/>
     <use x="470.779297" xlink:href="#DejaVuSans-73"/>
     <use x="522.878906" xlink:href="#DejaVuSans-74"/>
     <use x="562.087891" xlink:href="#DejaVuSans-20"/>
     <use x="593.875" xlink:href="#DejaVuSans-44"/>
     <use x="670.876953" xlink:href="#DejaVuSans-61"/>
     <use x="732.15625" xlink:href="#DejaVuSans-74"/>
     <use x="771.365234" xlink:href="#DejaVuSans-61"/>
     <use x="832.644531" xlink:href="#DejaVuSans-20"/>
     <use x="864.431641" xlink:href="#DejaVuSans-76"/>
     <use x="923.611328" xlink:href="#DejaVuSans-73"/>
     <use x="975.710938" xlink:href="#DejaVuSans-20"/>
     <use x="1007.498047" xlink:href="#DejaVuSans-4d"/>
     <use x="1093.777344" xlink:href="#DejaVuSans-43"/>
     <use x="1163.601562" xlink:href="#DejaVuSans-4d"/>
     <use x="1249.880859" xlink:href="#DejaVuSans-43"/>
     <use x="1319.705078" xlink:href="#DejaVuSans-20"/>
     <use x="1351.492188" xlink:href="#DejaVuSans-55"/>
     <use x="1424.685547" xlink:href="#DejaVuSans-6e"/>
     <use x="1488.064453" xlink:href="#DejaVuSans-63"/>
     <use x="1543.044922" xlink:href="#DejaVuSans-65"/>
     <use x="1604.568359" xlink:href="#DejaVuSans-72"/>
     <use x="1645.681641" xlink:href="#DejaVuSans-74"/>
     <use x="1684.890625" xlink:href="#DejaVuSans-61"/>
     <use x="1746.169922" xlink:href="#DejaVuSans-69"/>
     <use x="1773.953125" xlink:href="#DejaVuSans-6e"/>
     <use x="1837.332031" xlink:href="#DejaVuSans-74"/>
     <use x="1876.541016" xlink:href="#DejaVuSans-79"/>
     <use x="1935.720703" xlink:href="#DejaVuSans-20"/>
    </g>
   </g>
   <g id="legend_1">
    <g id="patch_7">
     <path d="M 277.843437 108.1845 
L 407.72 108.1845 
Q 409.72 108.1845 409.72 106.1845 
L 409.72 48.472 
Q 409.72 46.472 407.72 46.472 
L 277.843437 46.472 
Q 275.843437 46.472 275.843437 48.472 
L 275.843437 106.1845 
Q 275.843437 108.1845 277.843437 108.1845 
z
" style="fill:#ffffff;opacity:0.8;stroke:#cccccc;stroke-linejoin:miter;"/>
    </g>
    <g id="line2d_15">
     <path d="M 279.843437 54.570438 
L 299.843437 54.570438 
" style="fill:none;stroke:#1f77b4;stroke-linecap:square;stroke-width:1.5;"/>
    </g>
    <g id="line2d_16"/>
    <g id="text_12">
     <!-- actual -->
     <defs>
      <path d="M 8.5 21.578125 
L 8.5 54.6875 
L 17.484375 54.6875 
L 17.484375 21.921875 
Q 17.484375 14.15625 20.5 10.265625 
Q 23.53125 6.390625 29.59375 6.390625 
Q 36.859375 6.390625 41.078125 11.03125 
Q 45.3125 15.671875 45.3125 23.6875 
L 45.3125 54.6875 
L 54.296875 54.6875 
L 54.296875 0 
L 45.3125 0 
L 45.3125 8.40625 
Q 42.046875 3.421875 37.71875 1 
Q 33.40625 -1.421875 27.6875 -1.421875 
Q 18.265625 -1.421875 13.375 4.4375 
Q 8.5 10.296875 8.5 21.578125 
M 31.109375 56 
z
" id="DejaVuSans-75"/>
     </defs>
     <g transform="translate(307.843437 58.070438)scale(0.1 -0.1)">
      <use xlink:href="#DejaVuSans-61"/>
      <use x="61.279297" xlink:href="#DejaVuSans-63"/>
      <use x="116.259766" xlink:href="#DejaVuSans-74"/>
      <use x="155.46875" xlink:href="#DejaVuSans-75"/>
      <use x="218.847656" xlink:href="#DejaVuSans-61"/>
      <use x="280.126953" xlink:href="#DejaVuSans-6c"/>
     </g>
    </g>
    <g id="line2d_17">
     <path d="M 279.843437 69.248563 
L 299.843437 69.248563 
" style="fill:none;stroke:#ff7f0e;stroke-linecap:square;stroke-width:1.5;"/>
    </g>
    <g id="line2d_18"/>
    <g id="text_13">
     <!-- pred. (mean) -->
     <defs>
      <path d="M 18.109375 8.203125 
L 18.109375 -20.796875 
L 9.078125 -20.796875 
L 9.078125 54.6875 
L 18.109375 54.6875 
L 18.109375 46.390625 
Q 20.953125 51.265625 25.265625 53.625 
Q 29.59375 56 35.59375 56 
Q 45.5625 56 51.78125 48.09375 
Q 58.015625 40.1875 58.015625 27.296875 
Q 58.015625 14.40625 51.78125 6.484375 
Q 45.5625 -1.421875 35.59375 -1.421875 
Q 29.59375 -1.421875 25.265625 0.953125 
Q 20.953125 3.328125 18.109375 8.203125 
M 48.6875 27.296875 
Q 48.6875 37.203125 44.609375 42.84375 
Q 40.53125 48.484375 33.40625 48.484375 
Q 26.265625 48.484375 22.1875 42.84375 
Q 18.109375 37.203125 18.109375 27.296875 
Q 18.109375 17.390625 22.1875 11.75 
Q 26.265625 6.109375 33.40625 6.109375 
Q 40.53125 6.109375 44.609375 11.75 
Q 48.6875 17.390625 48.6875 27.296875 
" id="DejaVuSans-70"/>
      <path d="M 45.40625 46.390625 
L 45.40625 75.984375 
L 54.390625 75.984375 
L 54.390625 0 
L 45.40625 0 
L 45.40625 8.203125 
Q 42.578125 3.328125 38.25 0.953125 
Q 33.9375 -1.421875 27.875 -1.421875 
Q 17.96875 -1.421875 11.734375 6.484375 
Q 5.515625 14.40625 5.515625 27.296875 
Q 5.515625 40.1875 11.734375 48.09375 
Q 17.96875 56 27.875 56 
Q 33.9375 56 38.25 53.625 
Q 42.578125 51.265625 45.40625 46.390625 
M 14.796875 27.296875 
Q 14.796875 17.390625 18.875 11.75 
Q 22.953125 6.109375 30.078125 6.109375 
Q 37.203125 6.109375 41.296875 11.75 
Q 45.40625 17.390625 45.40625 27.296875 
Q 45.40625 37.203125 41.296875 42.84375 
Q 37.203125 48.484375 30.078125 48.484375 
Q 22.953125 48.484375 18.875 42.84375 
Q 14.796875 37.203125 14.796875 27.296875 
" id="DejaVuSans-64"/>
      <path d="M 31 75.875 
Q 24.46875 64.65625 21.28125 53.65625 
Q 18.109375 42.671875 18.109375 31.390625 
Q 18.109375 20.125 21.3125 9.0625 
Q 24.515625 -2 31 -13.1875 
L 23.1875 -13.1875 
Q 15.875 -1.703125 12.234375 9.375 
Q 8.59375 20.453125 8.59375 31.390625 
Q 8.59375 42.28125 12.203125 53.3125 
Q 15.828125 64.359375 23.1875 75.875 
z
" id="DejaVuSans-28"/>
      <path d="M 52 44.1875 
Q 55.375 50.25 60.0625 53.125 
Q 64.75 56 71.09375 56 
Q 79.640625 56 84.28125 50.015625 
Q 88.921875 44.046875 88.921875 33.015625 
L 88.921875 0 
L 79.890625 0 
L 79.890625 32.71875 
Q 79.890625 40.578125 77.09375 44.375 
Q 74.3125 48.1875 68.609375 48.1875 
Q 61.625 48.1875 57.5625 43.546875 
Q 53.515625 38.921875 53.515625 30.90625 
L 53.515625 0 
L 44.484375 0 
L 44.484375 32.71875 
Q 44.484375 40.625 41.703125 44.40625 
Q 38.921875 48.1875 33.109375 48.1875 
Q 26.21875 48.1875 22.15625 43.53125 
Q 18.109375 38.875 18.109375 30.90625 
L 18.109375 0 
L 9.078125 0 
L 9.078125 54.6875 
L 18.109375 54.6875 
L 18.109375 46.1875 
Q 21.1875 51.21875 25.484375 53.609375 
Q 29.78125 56 35.6875 56 
Q 41.65625 56 45.828125 52.96875 
Q 50 49.953125 52 44.1875 
" id="DejaVuSans-6d"/>
      <path d="M 8.015625 75.875 
L 15.828125 75.875 
Q 23.140625 64.359375 26.78125 53.3125 
Q 30.421875 42.28125 30.421875 31.390625 
Q 30.421875 20.453125 26.78125 9.375 
Q 23.140625 -1.703125 15.828125 -13.1875 
L 8.015625 -13.1875 
Q 14.5 -2 17.703125 9.0625 
Q 20.90625 20.125 20.90625 31.390625 
Q 20.90625 42.671875 17.703125 53.65625 
Q 14.5 64.65625 8.015625 75.875 
" id="DejaVuSans-29"/>
     </defs>
     <g transform="translate(307.843437 72.748563)scale(0.1 -0.1)">
      <use xlink:href="#DejaVuSans-70"/>
      <use x="63.476562" xlink:href="#DejaVuSans-72"/>
      <use x="104.558594" xlink:href="#DejaVuSans-65"/>
      <use x="166.082031" xlink:href="#DejaVuSans-64"/>
      <use x="229.558594" xlink:href="#DejaVuSans-2e"/>
      <use x="261.345703" xlink:href="#DejaVuSans-20"/>
      <use x="293.132812" xlink:href="#DejaVuSans-28"/>
      <use x="332.146484" xlink:href="#DejaVuSans-6d"/>
      <use x="429.558594" xlink:href="#DejaVuSans-65"/>
      <use x="491.082031" xlink:href="#DejaVuSans-61"/>
      <use x="552.361328" xlink:href="#DejaVuSans-6e"/>
      <use x="615.740234" xlink:href="#DejaVuSans-29"/>
     </g>
    </g>
    <g id="line2d_19">
     <path d="M 279.843437 83.926688 
L 299.843437 83.926688 
" style="fill:none;stroke:#2ca02c;stroke-linecap:square;stroke-width:1.5;"/>
    </g>
    <g id="line2d_20"/>
    <g id="text_14">
     <!-- pred.(5th percen.) -->
     <defs>
      <path d="M 10.796875 72.90625 
L 49.515625 72.90625 
L 49.515625 64.59375 
L 19.828125 64.59375 
L 19.828125 46.734375 
Q 21.96875 47.46875 24.109375 47.828125 
Q 26.265625 48.1875 28.421875 48.1875 
Q 40.625 48.1875 47.75 41.5 
Q 54.890625 34.8125 54.890625 23.390625 
Q 54.890625 11.625 47.5625 5.09375 
Q 40.234375 -1.421875 26.90625 -1.421875 
Q 22.3125 -1.421875 17.546875 -0.640625 
Q 12.796875 0.140625 7.71875 1.703125 
L 7.71875 11.625 
Q 12.109375 9.234375 16.796875 8.0625 
Q 21.484375 6.890625 26.703125 6.890625 
Q 35.15625 6.890625 40.078125 11.328125 
Q 45.015625 15.765625 45.015625 23.390625 
Q 45.015625 31 40.078125 35.4375 
Q 35.15625 39.890625 26.703125 39.890625 
Q 22.75 39.890625 18.8125 39.015625 
Q 14.890625 38.140625 10.796875 36.28125 
z
" id="DejaVuSans-35"/>
      <path d="M 54.890625 33.015625 
L 54.890625 0 
L 45.90625 0 
L 45.90625 32.71875 
Q 45.90625 40.484375 42.875 44.328125 
Q 39.84375 48.1875 33.796875 48.1875 
Q 26.515625 48.1875 22.3125 43.546875 
Q 18.109375 38.921875 18.109375 30.90625 
L 18.109375 0 
L 9.078125 0 
L 9.078125 75.984375 
L 18.109375 75.984375 
L 18.109375 46.1875 
Q 21.34375 51.125 25.703125 53.5625 
Q 30.078125 56 35.796875 56 
Q 45.21875 56 50.046875 50.171875 
Q 54.890625 44.34375 54.890625 33.015625 
" id="DejaVuSans-68"/>
     </defs>
     <g transform="translate(307.843437 87.426688)scale(0.1 -0.1)">
      <use xlink:href="#DejaVuSans-70"/>
      <use x="63.476562" xlink:href="#DejaVuSans-72"/>
      <use x="104.558594" xlink:href="#DejaVuSans-65"/>
      <use x="166.082031" xlink:href="#DejaVuSans-64"/>
      <use x="229.558594" xlink:href="#DejaVuSans-2e"/>
      <use x="261.345703" xlink:href="#DejaVuSans-28"/>
      <use x="300.359375" xlink:href="#DejaVuSans-35"/>
      <use x="363.982422" xlink:href="#DejaVuSans-74"/>
      <use x="403.191406" xlink:href="#DejaVuSans-68"/>
      <use x="466.570312" xlink:href="#DejaVuSans-20"/>
      <use x="498.357422" xlink:href="#DejaVuSans-70"/>
      <use x="561.833984" xlink:href="#DejaVuSans-65"/>
      <use x="623.357422" xlink:href="#DejaVuSans-72"/>
      <use x="664.439453" xlink:href="#DejaVuSans-63"/>
      <use x="719.419922" xlink:href="#DejaVuSans-65"/>
      <use x="780.943359" xlink:href="#DejaVuSans-6e"/>
      <use x="844.322266" xlink:href="#DejaVuSans-2e"/>
      <use x="876.109375" xlink:href="#DejaVuSans-29"/>
     </g>
    </g>
    <g id="line2d_21">
     <path d="M 279.843437 98.604813 
L 299.843437 98.604813 
" style="fill:none;stroke:#d62728;stroke-linecap:square;stroke-width:1.5;"/>
    </g>
    <g id="line2d_22"/>
    <g id="text_15">
     <!-- pred.(95th percen.) -->
     <defs>
      <path d="M 10.984375 1.515625 
L 10.984375 10.5 
Q 14.703125 8.734375 18.5 7.8125 
Q 22.3125 6.890625 25.984375 6.890625 
Q 35.75 6.890625 40.890625 13.453125 
Q 46.046875 20.015625 46.78125 33.40625 
Q 43.953125 29.203125 39.59375 26.953125 
Q 35.25 24.703125 29.984375 24.703125 
Q 19.046875 24.703125 12.671875 31.3125 
Q 6.296875 37.9375 6.296875 49.421875 
Q 6.296875 60.640625 12.9375 67.421875 
Q 19.578125 74.21875 30.609375 74.21875 
Q 43.265625 74.21875 49.921875 64.515625 
Q 56.59375 54.828125 56.59375 36.375 
Q 56.59375 19.140625 48.40625 8.859375 
Q 40.234375 -1.421875 26.421875 -1.421875 
Q 22.703125 -1.421875 18.890625 -0.6875 
Q 15.09375 0.046875 10.984375 1.515625 
M 30.609375 32.421875 
Q 37.25 32.421875 41.125 36.953125 
Q 45.015625 41.5 45.015625 49.421875 
Q 45.015625 57.28125 41.125 61.84375 
Q 37.25 66.40625 30.609375 66.40625 
Q 23.96875 66.40625 20.09375 61.84375 
Q 16.21875 57.28125 16.21875 49.421875 
Q 16.21875 41.5 20.09375 36.953125 
Q 23.96875 32.421875 30.609375 32.421875 
" id="DejaVuSans-39"/>
     </defs>
     <g transform="translate(307.843437 102.104813)scale(0.1 -0.1)">
      <use xlink:href="#DejaVuSans-70"/>
      <use x="63.476562" xlink:href="#DejaVuSans-72"/>
      <use x="104.558594" xlink:href="#DejaVuSans-65"/>
      <use x="166.082031" xlink:href="#DejaVuSans-64"/>
      <use x="229.558594" xlink:href="#DejaVuSans-2e"/>
      <use x="261.345703" xlink:href="#DejaVuSans-28"/>
      <use x="300.359375" xlink:href="#DejaVuSans-39"/>
      <use x="363.982422" xlink:href="#DejaVuSans-35"/>
      <use x="427.605469" xlink:href="#DejaVuSans-74"/>
      <use x="466.814453" xlink:href="#DejaVuSans-68"/>
      <use x="530.193359" xlink:href="#DejaVuSans-20"/>
      <use x="561.980469" xlink:href="#DejaVuSans-70"/>
      <use x="625.457031" xlink:href="#DejaVuSans-65"/>
      <use x="686.980469" xlink:href="#DejaVuSans-72"/>
      <use x="728.0625" xlink:href="#DejaVuSans-63"/>
      <use x="783.042969" xlink:href="#DejaVuSans-65"/>
      <use x="844.566406" xlink:href="#DejaVuSans-6e"/>
      <use x="907.945312" xlink:href="#DejaVuSans-2e"/>
      <use x="939.732422" xlink:href="#DejaVuSans-29"/>
     </g>
    </g>
   </g>
  </g>
 </g>
 <defs>
  <clipPath id="p0f405e7136">
   <rect height="266.112" width="357.12" x="57.6" y="41.472"/>
  </clipPath>
 </defs>
</svg>
