<?xml version="1.0" encoding="utf-8" standalone="no"?>
<!DOCTYPE svg PUBLIC "-//W3C//DTD SVG 1.1//EN"
  "http://www.w3.org/Graphics/SVG/1.1/DTD/svg11.dtd">
<!-- Created with matplotlib (http://matplotlib.org/) -->
<svg height="345pt" version="1.1" viewBox="0 0 460 345" width="460pt" xmlns="http://www.w3.org/2000/svg" xmlns:xlink="http://www.w3.org/1999/xlink">
 <defs>
  <style type="text/css">
*{stroke-linecap:butt;stroke-linejoin:round;}
  </style>
 </defs>
 <g id="figure_1">
  <g id="patch_1">
   <path d="M 0 345.6 
L 460.8 345.6 
L 460.8 0 
L 0 0 
z
" style="fill:#ffffff;"/>
  </g>
  <g id="axes_1">
   <g id="patch_2">
    <path d="M 57.6 307.584 
L 414.72 307.584 
L 414.72 41.472 
L 57.6 41.472 
z
" style="fill:#ffffff;"/>
   </g>
   <g id="PolyCollection_1">
    <path clip-path="url(#pb089bf0c1d)" d="M 73.832727 278.938972 
L 73.832727 285.206338 
L 74.92584 286.114004 
L 76.018953 285.550823 
L 77.112066 285.777258 
L 78.205179 282.3631 
L 79.298292 278.194426 
L 80.391405 275.781189 
L 81.484518 267.166877 
L 82.577631 258.331478 
L 83.670744 242.638945 
L 84.763857 217.301171 
L 85.85697 196.979293 
L 86.950083 168.780913 
L 88.043196 145.7787 
L 89.136309 124.451034 
L 90.229421 118.863008 
L 91.322534 112.01196 
L 92.415647 91.456063 
L 93.50876 79.110417 
L 94.601873 82.286039 
L 95.694986 80.982536 
L 96.788099 76.599786 
L 97.881212 79.496969 
L 98.974325 87.603787 
L 100.067438 99.01491 
L 101.160551 95.316084 
L 102.253664 100.22428 
L 103.346777 116.664809 
L 104.43989 121.648187 
L 105.533003 135.30604 
L 106.626116 138.047279 
L 107.719229 163.957446 
L 108.812342 175.504022 
L 109.905455 156.73924 
L 110.998567 153.660121 
L 112.09168 160.61263 
L 113.184793 165.397776 
L 114.277906 162.029936 
L 115.371019 164.692002 
L 116.464132 188.030606 
L 117.557245 194.523415 
L 118.650358 199.156237 
L 119.743471 216.807683 
L 120.836584 218.889641 
L 121.929697 218.466307 
L 123.02281 228.186901 
L 124.115923 237.194367 
L 125.209036 240.421134 
L 126.302149 242.204474 
L 127.395262 248.37135 
L 128.488375 257.941785 
L 129.581488 260.994268 
L 130.674601 259.473563 
L 131.767713 261.140703 
L 132.860826 265.34444 
L 133.953939 268.783479 
L 135.047052 270.269103 
L 136.140165 273.321828 
L 137.233278 279.663926 
L 138.326391 281.215184 
L 139.419504 280.185361 
L 140.512617 279.383493 
L 141.60573 279.756195 
L 142.698843 277.475311 
L 143.791956 275.861051 
L 144.885069 274.191494 
L 145.978182 268.626892 
L 147.071295 260.854922 
L 148.164408 253.399178 
L 149.257521 249.366748 
L 150.350634 243.741264 
L 151.443747 235.053786 
L 152.53686 230.770237 
L 153.629972 226.381634 
L 154.723085 219.485751 
L 155.816198 209.251204 
L 156.909311 196.349778 
L 158.002424 193.724735 
L 159.095537 191.447801 
L 160.18865 193.564595 
L 161.281763 188.378436 
L 162.374876 169.677155 
L 163.467989 135.862587 
L 164.561102 119.865193 
L 165.654215 103.882923 
L 166.747328 96.973991 
L 167.840441 89.457412 
L 168.933554 87.706032 
L 170.026667 103.434684 
L 171.11978 97.693185 
L 172.212893 93.729389 
L 173.306006 97.005055 
L 174.399118 108.961419 
L 175.492231 125.63534 
L 176.585344 133.492801 
L 177.678457 152.927825 
L 178.77157 164.894751 
L 179.864683 172.600781 
L 180.957796 176.090432 
L 182.050909 178.900139 
L 183.144022 182.377746 
L 184.237135 192.018998 
L 185.330248 187.72164 
L 186.423361 186.738249 
L 187.516474 188.169355 
L 188.609587 191.178467 
L 189.7027 193.634085 
L 190.795813 191.870115 
L 191.888926 200.910038 
L 192.982039 198.227704 
L 194.075152 200.478761 
L 195.168264 206.795308 
L 196.261377 206.797768 
L 197.35449 213.777435 
L 198.447603 220.486055 
L 199.540716 225.401535 
L 200.633829 227.14758 
L 201.726942 225.667866 
L 202.820055 232.141658 
L 203.913168 238.555692 
L 205.006281 244.622376 
L 206.099394 249.14613 
L 207.192507 254.632624 
L 208.28562 262.53065 
L 209.378733 266.607289 
L 210.471846 266.429583 
L 211.564959 268.240892 
L 212.658072 272.562807 
L 213.751185 276.431071 
L 214.844298 280.347306 
L 215.93741 283.319369 
L 217.030523 287.076261 
L 218.123636 289.102401 
L 219.216749 290.289149 
L 220.309862 290.669974 
L 221.402975 290.236087 
L 222.496088 290.291669 
L 223.589201 289.156224 
L 224.682314 288.303547 
L 225.775427 285.990459 
L 226.86854 282.4571 
L 227.961653 277.515839 
L 229.054766 270.248419 
L 230.147879 263.174861 
L 231.240992 255.300061 
L 232.334105 246.255907 
L 233.427218 239.001133 
L 234.520331 227.746221 
L 235.613444 214.410745 
L 236.706556 204.664391 
L 237.799669 189.355171 
L 238.892782 175.237094 
L 239.985895 162.353363 
L 241.079008 151.138783 
L 242.172121 143.963628 
L 243.265234 141.4523 
L 244.358347 142.177084 
L 245.45146 142.709229 
L 246.544573 134.956433 
L 247.637686 138.026996 
L 248.730799 143.879474 
L 249.823912 141.202221 
L 250.917025 145.065698 
L 252.010138 143.99635 
L 253.103251 156.704678 
L 254.196364 162.324766 
L 255.289477 169.652976 
L 256.38259 174.118081 
L 257.475702 180.299714 
L 258.568815 190.780936 
L 259.661928 186.845649 
L 260.755041 192.140484 
L 261.848154 196.724473 
L 262.941267 204.883774 
L 264.03438 203.544873 
L 265.127493 203.947084 
L 266.220606 218.060193 
L 267.313719 224.08717 
L 268.406832 226.862829 
L 269.499945 227.317644 
L 270.593058 227.448423 
L 271.686171 229.08231 
L 272.779284 227.296526 
L 273.872397 223.080426 
L 274.96551 222.198709 
L 276.058623 222.505795 
L 277.151736 227.09233 
L 278.244848 230.198419 
L 279.337961 236.893427 
L 280.431074 241.108791 
L 281.524187 246.326148 
L 282.6173 252.069352 
L 283.710413 253.718606 
L 284.803526 258.171102 
L 285.896639 263.471424 
L 286.989752 268.940619 
L 288.082865 270.758473 
L 289.175978 275.380248 
L 290.269091 282.327545 
L 291.362204 284.973962 
L 292.455317 287.560113 
L 293.54843 288.510186 
L 294.641543 288.601746 
L 295.734656 285.623838 
L 296.827769 282.31579 
L 297.920882 275.977239 
L 299.013994 269.792063 
L 300.107107 262.528454 
L 301.20022 251.68697 
L 302.293333 238.080217 
L 303.386446 224.895508 
L 304.479559 216.395183 
L 305.572672 194.0311 
L 306.665785 181.232993 
L 307.758898 180.824367 
L 308.852011 172.236336 
L 309.945124 153.296154 
L 311.038237 118.66917 
L 312.13135 109.090542 
L 313.224463 94.425475 
L 314.317576 83.241437 
L 315.410689 79.594059 
L 316.503802 82.259916 
L 317.596915 84.611845 
L 318.690028 90.920017 
L 319.78314 98.594918 
L 320.876253 111.970356 
L 321.969366 118.87689 
L 323.062479 121.59613 
L 324.155592 141.075103 
L 325.248705 136.666657 
L 326.341818 133.545347 
L 327.434931 127.294023 
L 328.528044 128.765241 
L 329.621157 129.88528 
L 330.71427 141.373098 
L 331.807383 161.419112 
L 332.900496 170.454065 
L 333.993609 188.635253 
L 335.086722 195.938101 
L 336.179835 208.147248 
L 337.272948 215.92299 
L 338.366061 214.180658 
L 339.459174 216.311433 
L 340.552287 222.261737 
L 341.645399 231.853299 
L 342.738512 242.009522 
L 343.831625 243.492614 
L 344.924738 253.123622 
L 346.017851 265.604744 
L 347.110964 269.298912 
L 348.204077 272.27449 
L 349.29719 273.143173 
L 350.390303 277.236079 
L 351.483416 279.863338 
L 352.576529 280.079882 
L 353.669642 280.165996 
L 354.762755 279.989701 
L 355.855868 281.58548 
L 356.948981 279.762715 
L 358.042094 278.160428 
L 359.135207 278.287849 
L 360.22832 278.675288 
L 361.321433 280.461423 
L 362.414545 281.821713 
L 363.507658 284.888367 
L 364.600771 286.681176 
L 365.693884 288.286354 
L 366.786997 289.779642 
L 367.88011 290.554717 
L 368.973223 291.507508 
L 370.066336 291.440864 
L 371.159449 291.553583 
L 372.252562 290.550158 
L 373.345675 289.086056 
L 374.438788 286.927473 
L 375.531901 281.813402 
L 376.625014 277.558381 
L 377.718127 271.814366 
L 378.81124 263.960568 
L 379.904353 254.485837 
L 380.997466 248.362902 
L 382.090579 242.066748 
L 383.183691 233.156454 
L 384.276804 223.818336 
L 385.369917 216.435541 
L 386.46303 214.549752 
L 387.556143 207.883709 
L 388.649256 204.161792 
L 389.742369 194.531161 
L 390.835482 200.757355 
L 391.928595 204.347888 
L 393.021708 201.701152 
L 394.114821 197.802489 
L 395.207934 204.994997 
L 396.301047 210.939408 
L 397.39416 205.798636 
L 398.487273 200.192613 
L 398.487273 197.313022 
L 398.487273 197.313022 
L 397.39416 197.999485 
L 396.301047 208.027425 
L 395.207934 201.010438 
L 394.114821 195.499544 
L 393.021708 198.182703 
L 391.928595 202.594164 
L 390.835482 195.520833 
L 389.742369 189.295759 
L 388.649256 200.195941 
L 387.556143 203.512612 
L 386.46303 208.422784 
L 385.369917 212.256909 
L 384.276804 214.020833 
L 383.183691 224.871923 
L 382.090579 233.434986 
L 380.997466 241.823063 
L 379.904353 247.003845 
L 378.81124 255.981118 
L 377.718127 269.164086 
L 376.625014 274.907974 
L 375.531901 277.923575 
L 374.438788 280.719345 
L 373.345675 282.014143 
L 372.252562 282.948819 
L 371.159449 283.531755 
L 370.066336 283.442322 
L 368.973223 283.2686 
L 367.88011 282.656637 
L 366.786997 281.923384 
L 365.693884 280.852429 
L 364.600771 279.690562 
L 363.507658 278.232537 
L 362.414545 276.521573 
L 361.321433 275.301654 
L 360.22832 274.591054 
L 359.135207 274.422984 
L 358.042094 274.682616 
L 356.948981 275.881585 
L 355.855868 276.23043 
L 354.762755 275.689983 
L 353.669642 275.650098 
L 352.576529 275.620799 
L 351.483416 274.806792 
L 350.390303 272.595849 
L 349.29719 270.276759 
L 348.204077 268.874514 
L 347.110964 265.466606 
L 346.017851 259.358491 
L 344.924738 248.419362 
L 343.831625 240.802354 
L 342.738512 236.996194 
L 341.645399 226.821646 
L 340.552287 219.264979 
L 339.459174 213.83003 
L 338.366061 211.688672 
L 337.272948 212.555434 
L 336.179835 201.758074 
L 335.086722 192.249993 
L 333.993609 181.487774 
L 332.900496 164.211703 
L 331.807383 154.766145 
L 330.71427 132.487512 
L 329.621157 125.912046 
L 328.528044 124.284458 
L 327.434931 123.06595 
L 326.341818 129.520848 
L 325.248705 132.2852 
L 324.155592 135.676763 
L 323.062479 118.122723 
L 321.969366 115.155454 
L 320.876253 107.752545 
L 319.78314 91.505547 
L 318.690028 79.352694 
L 317.596915 70.125907 
L 316.503802 67.598267 
L 315.410689 66.259228 
L 314.317576 69.872799 
L 313.224463 86.42126 
L 312.13135 101.607391 
L 311.038237 111.500311 
L 309.945124 148.270911 
L 308.852011 169.736739 
L 307.758898 177.834279 
L 306.665785 177.949371 
L 305.572672 185.460376 
L 304.479559 207.735893 
L 303.386446 215.307744 
L 302.293333 226.509657 
L 301.20022 239.978779 
L 300.107107 256.121805 
L 299.013994 266.303136 
L 297.920882 273.683525 
L 296.827769 277.938302 
L 295.734656 280.016958 
L 294.641543 281.380716 
L 293.54843 281.158877 
L 292.455317 280.252953 
L 291.362204 278.351763 
L 290.269091 275.552457 
L 289.175978 270.902093 
L 288.082865 267.860125 
L 286.989752 265.240901 
L 285.896639 260.458308 
L 284.803526 255.737908 
L 283.710413 251.474502 
L 282.6173 248.954434 
L 281.524187 242.982288 
L 280.431074 238.273665 
L 279.337961 232.855433 
L 278.244848 227.514949 
L 277.151736 224.053242 
L 276.058623 219.789403 
L 274.96551 218.05465 
L 273.872397 218.240052 
L 272.779284 220.732113 
L 271.686171 226.241178 
L 270.593058 224.241453 
L 269.499945 223.265457 
L 268.406832 224.415728 
L 267.313719 220.221537 
L 266.220606 211.91336 
L 265.127493 201.362514 
L 264.03438 199.692413 
L 262.941267 201.175525 
L 261.848154 194.696819 
L 260.755041 188.933857 
L 259.661928 184.971374 
L 258.568815 187.289943 
L 257.475702 172.986366 
L 256.38259 170.326771 
L 255.289477 162.672232 
L 254.196364 157.432943 
L 253.103251 150.172255 
L 252.010138 137.719419 
L 250.917025 139.995265 
L 249.823912 136.409042 
L 248.730799 138.79159 
L 247.637686 130.507119 
L 246.544573 131.494399 
L 245.45146 137.700517 
L 244.358347 137.145454 
L 243.265234 134.18504 
L 242.172121 139.64863 
L 241.079008 147.138608 
L 239.985895 159.450792 
L 238.892782 171.652 
L 237.799669 183.735163 
L 236.706556 197.943316 
L 235.613444 205.773189 
L 234.520331 217.880907 
L 233.427218 229.94121 
L 232.334105 238.430661 
L 231.240992 246.185263 
L 230.147879 257.734501 
L 229.054766 266.319485 
L 227.961653 275.058413 
L 226.86854 278.034945 
L 225.775427 280.132922 
L 224.682314 281.315266 
L 223.589201 282.018404 
L 222.496088 282.544494 
L 221.402975 282.631172 
L 220.309862 282.843893 
L 219.216749 282.400802 
L 218.123636 281.353941 
L 217.030523 279.636639 
L 215.93741 277.132417 
L 214.844298 274.781885 
L 213.751185 271.828024 
L 212.658072 268.838045 
L 211.564959 266.224284 
L 210.471846 264.67464 
L 209.378733 263.491449 
L 208.28562 258.527362 
L 207.192507 251.517406 
L 206.099394 246.32574 
L 205.006281 241.2539 
L 203.913168 234.954784 
L 202.820055 228.065199 
L 201.726942 221.53853 
L 200.633829 223.961549 
L 199.540716 222.420908 
L 198.447603 217.141886 
L 197.35449 209.548599 
L 196.261377 203.559836 
L 195.168264 203.293038 
L 194.075152 199.15309 
L 192.982039 196.051799 
L 191.888926 197.374235 
L 190.795813 190.231223 
L 189.7027 192.110215 
L 188.609587 188.635842 
L 187.516474 186.014034 
L 186.423361 184.927786 
L 185.330248 185.826098 
L 184.237135 188.62832 
L 183.144022 177.325589 
L 182.050909 175.748537 
L 180.957796 171.57517 
L 179.864683 166.15794 
L 178.77157 158.955657 
L 177.678457 144.131105 
L 176.585344 129.412866 
L 175.492231 121.431952 
L 174.399118 105.686791 
L 173.306006 90.000563 
L 172.212893 85.445655 
L 171.11978 87.340293 
L 170.026667 97.172919 
L 168.933554 79.480181 
L 167.840441 77.531141 
L 166.747328 90.201084 
L 165.654215 97.022396 
L 164.561102 111.87273 
L 163.467989 131.562786 
L 162.374876 163.095675 
L 161.281763 185.665339 
L 160.18865 191.723547 
L 159.095537 189.614414 
L 158.002424 191.095257 
L 156.909311 192.292855 
L 155.816198 199.597549 
L 154.723085 212.341303 
L 153.629972 220.621401 
L 152.53686 225.024605 
L 151.443747 226.655746 
L 150.350634 235.897426 
L 149.257521 243.575214 
L 148.164408 247.022601 
L 147.071295 253.464159 
L 145.978182 264.53197 
L 144.885069 271.961574 
L 143.791956 273.053274 
L 142.698843 274.365346 
L 141.60573 275.397251 
L 140.512617 275.336546 
L 139.419504 276.105813 
L 138.326391 275.987643 
L 137.233278 273.668156 
L 136.140165 269.792544 
L 135.047052 267.743032 
L 133.953939 265.900727 
L 132.860826 262.640093 
L 131.767713 259.485851 
L 130.674601 255.67719 
L 129.581488 258.280121 
L 128.488375 253.262904 
L 127.395262 244.546711 
L 126.302149 239.51739 
L 125.209036 237.630595 
L 124.115923 232.401294 
L 123.02281 223.718593 
L 121.929697 216.083087 
L 120.836584 216.494746 
L 119.743471 210.055269 
L 118.650358 194.594986 
L 117.557245 190.897241 
L 116.464132 178.072436 
L 115.371019 157.572134 
L 114.277906 158.381978 
L 113.184793 160.594261 
L 112.09168 154.266521 
L 110.998567 143.718919 
L 109.905455 149.459263 
L 108.812342 169.827783 
L 107.719229 154.099668 
L 106.626116 133.962161 
L 105.533003 130.655061 
L 104.43989 119.327993 
L 103.346777 112.152499 
L 102.253664 95.983756 
L 101.160551 83.812938 
L 100.067438 88.659955 
L 98.974325 74.666008 
L 97.881212 63.446518 
L 96.788099 60.986565 
L 95.694986 64.073325 
L 94.601873 68.917525 
L 93.50876 66.673949 
L 92.415647 78.586991 
L 91.322534 109.328163 
L 90.229421 109.838931 
L 89.136309 117.880054 
L 88.043196 140.524228 
L 86.950083 163.42898 
L 85.85697 188.056551 
L 84.763857 202.904582 
L 83.670744 226.077989 
L 82.577631 250.052094 
L 81.484518 260.060986 
L 80.391405 273.240278 
L 79.298292 275.307222 
L 78.205179 278.005276 
L 77.112066 279.421303 
L 76.018953 279.439773 
L 74.92584 279.547059 
L 73.832727 278.938972 
z
" style="fill:#008000;fill-opacity:0.4;"/>
   </g>
   <g id="matplotlib.axis_1">
    <g id="xtick_1">
     <g id="line2d_1">
      <defs>
       <path d="M 0 0 
L 0 3.5 
" id="m706c5eef7a" style="stroke:#000000;stroke-width:0.8;"/>
      </defs>
      <g>
       <use style="stroke:#000000;stroke-width:0.8;" x="73.832727" xlink:href="#m706c5eef7a" y="307.584"/>
      </g>
     </g>
     <g id="text_1">
      <!-- 0.0 -->
      <defs>
       <path d="M 31.78125 66.40625 
Q 24.171875 66.40625 20.328125 58.90625 
Q 16.5 51.421875 16.5 36.375 
Q 16.5 21.390625 20.328125 13.890625 
Q 24.171875 6.390625 31.78125 6.390625 
Q 39.453125 6.390625 43.28125 13.890625 
Q 47.125 21.390625 47.125 36.375 
Q 47.125 51.421875 43.28125 58.90625 
Q 39.453125 66.40625 31.78125 66.40625 
M 31.78125 74.21875 
Q 44.046875 74.21875 50.515625 64.515625 
Q 56.984375 54.828125 56.984375 36.375 
Q 56.984375 17.96875 50.515625 8.265625 
Q 44.046875 -1.421875 31.78125 -1.421875 
Q 19.53125 -1.421875 13.0625 8.265625 
Q 6.59375 17.96875 6.59375 36.375 
Q 6.59375 54.828125 13.0625 64.515625 
Q 19.53125 74.21875 31.78125 74.21875 
" id="DejaVuSans-30"/>
       <path d="M 10.6875 12.40625 
L 21 12.40625 
L 21 0 
L 10.6875 0 
z
" id="DejaVuSans-2e"/>
      </defs>
      <g transform="translate(65.881165 322.182437)scale(0.1 -0.1)">
       <use xlink:href="#DejaVuSans-30"/>
       <use x="63.623047" xlink:href="#DejaVuSans-2e"/>
       <use x="95.410156" xlink:href="#DejaVuSans-30"/>
      </g>
     </g>
    </g>
    <g id="xtick_2">
     <g id="line2d_2">
      <g>
       <use style="stroke:#000000;stroke-width:0.8;" x="138.763636" xlink:href="#m706c5eef7a" y="307.584"/>
      </g>
     </g>
     <g id="text_2">
      <!-- 0.2 -->
      <defs>
       <path d="M 19.1875 8.296875 
L 53.609375 8.296875 
L 53.609375 0 
L 7.328125 0 
L 7.328125 8.296875 
Q 12.9375 14.109375 22.625 23.890625 
Q 32.328125 33.6875 34.8125 36.53125 
Q 39.546875 41.84375 41.421875 45.53125 
Q 43.3125 49.21875 43.3125 52.78125 
Q 43.3125 58.59375 39.234375 62.25 
Q 35.15625 65.921875 28.609375 65.921875 
Q 23.96875 65.921875 18.8125 64.3125 
Q 13.671875 62.703125 7.8125 59.421875 
L 7.8125 69.390625 
Q 13.765625 71.78125 18.9375 73 
Q 24.125 74.21875 28.421875 74.21875 
Q 39.75 74.21875 46.484375 68.546875 
Q 53.21875 62.890625 53.21875 53.421875 
Q 53.21875 48.921875 51.53125 44.890625 
Q 49.859375 40.875 45.40625 35.40625 
Q 44.1875 33.984375 37.640625 27.21875 
Q 31.109375 20.453125 19.1875 8.296875 
" id="DejaVuSans-32"/>
      </defs>
      <g transform="translate(130.812074 322.182437)scale(0.1 -0.1)">
       <use xlink:href="#DejaVuSans-30"/>
       <use x="63.623047" xlink:href="#DejaVuSans-2e"/>
       <use x="95.410156" xlink:href="#DejaVuSans-32"/>
      </g>
     </g>
    </g>
    <g id="xtick_3">
     <g id="line2d_3">
      <g>
       <use style="stroke:#000000;stroke-width:0.8;" x="203.694545" xlink:href="#m706c5eef7a" y="307.584"/>
      </g>
     </g>
     <g id="text_3">
      <!-- 0.4 -->
      <defs>
       <path d="M 37.796875 64.3125 
L 12.890625 25.390625 
L 37.796875 25.390625 
z
M 35.203125 72.90625 
L 47.609375 72.90625 
L 47.609375 25.390625 
L 58.015625 25.390625 
L 58.015625 17.1875 
L 47.609375 17.1875 
L 47.609375 0 
L 37.796875 0 
L 37.796875 17.1875 
L 4.890625 17.1875 
L 4.890625 26.703125 
z
" id="DejaVuSans-34"/>
      </defs>
      <g transform="translate(195.742983 322.182437)scale(0.1 -0.1)">
       <use xlink:href="#DejaVuSans-30"/>
       <use x="63.623047" xlink:href="#DejaVuSans-2e"/>
       <use x="95.410156" xlink:href="#DejaVuSans-34"/>
      </g>
     </g>
    </g>
    <g id="xtick_4">
     <g id="line2d_4">
      <g>
       <use style="stroke:#000000;stroke-width:0.8;" x="268.625455" xlink:href="#m706c5eef7a" y="307.584"/>
      </g>
     </g>
     <g id="text_4">
      <!-- 0.6 -->
      <defs>
       <path d="M 33.015625 40.375 
Q 26.375 40.375 22.484375 35.828125 
Q 18.609375 31.296875 18.609375 23.390625 
Q 18.609375 15.53125 22.484375 10.953125 
Q 26.375 6.390625 33.015625 6.390625 
Q 39.65625 6.390625 43.53125 10.953125 
Q 47.40625 15.53125 47.40625 23.390625 
Q 47.40625 31.296875 43.53125 35.828125 
Q 39.65625 40.375 33.015625 40.375 
M 52.59375 71.296875 
L 52.59375 62.3125 
Q 48.875 64.0625 45.09375 64.984375 
Q 41.3125 65.921875 37.59375 65.921875 
Q 27.828125 65.921875 22.671875 59.328125 
Q 17.53125 52.734375 16.796875 39.40625 
Q 19.671875 43.65625 24.015625 45.921875 
Q 28.375 48.1875 33.59375 48.1875 
Q 44.578125 48.1875 50.953125 41.515625 
Q 57.328125 34.859375 57.328125 23.390625 
Q 57.328125 12.15625 50.6875 5.359375 
Q 44.046875 -1.421875 33.015625 -1.421875 
Q 20.359375 -1.421875 13.671875 8.265625 
Q 6.984375 17.96875 6.984375 36.375 
Q 6.984375 53.65625 15.1875 63.9375 
Q 23.390625 74.21875 37.203125 74.21875 
Q 40.921875 74.21875 44.703125 73.484375 
Q 48.484375 72.75 52.59375 71.296875 
" id="DejaVuSans-36"/>
      </defs>
      <g transform="translate(260.673892 322.182437)scale(0.1 -0.1)">
       <use xlink:href="#DejaVuSans-30"/>
       <use x="63.623047" xlink:href="#DejaVuSans-2e"/>
       <use x="95.410156" xlink:href="#DejaVuSans-36"/>
      </g>
     </g>
    </g>
    <g id="xtick_5">
     <g id="line2d_5">
      <g>
       <use style="stroke:#000000;stroke-width:0.8;" x="333.556364" xlink:href="#m706c5eef7a" y="307.584"/>
      </g>
     </g>
     <g id="text_5">
      <!-- 0.8 -->
      <defs>
       <path d="M 31.78125 34.625 
Q 24.75 34.625 20.71875 30.859375 
Q 16.703125 27.09375 16.703125 20.515625 
Q 16.703125 13.921875 20.71875 10.15625 
Q 24.75 6.390625 31.78125 6.390625 
Q 38.8125 6.390625 42.859375 10.171875 
Q 46.921875 13.96875 46.921875 20.515625 
Q 46.921875 27.09375 42.890625 30.859375 
Q 38.875 34.625 31.78125 34.625 
M 21.921875 38.8125 
Q 15.578125 40.375 12.03125 44.71875 
Q 8.5 49.078125 8.5 55.328125 
Q 8.5 64.0625 14.71875 69.140625 
Q 20.953125 74.21875 31.78125 74.21875 
Q 42.671875 74.21875 48.875 69.140625 
Q 55.078125 64.0625 55.078125 55.328125 
Q 55.078125 49.078125 51.53125 44.71875 
Q 48 40.375 41.703125 38.8125 
Q 48.828125 37.15625 52.796875 32.3125 
Q 56.78125 27.484375 56.78125 20.515625 
Q 56.78125 9.90625 50.3125 4.234375 
Q 43.84375 -1.421875 31.78125 -1.421875 
Q 19.734375 -1.421875 13.25 4.234375 
Q 6.78125 9.90625 6.78125 20.515625 
Q 6.78125 27.484375 10.78125 32.3125 
Q 14.796875 37.15625 21.921875 38.8125 
M 18.3125 54.390625 
Q 18.3125 48.734375 21.84375 45.5625 
Q 25.390625 42.390625 31.78125 42.390625 
Q 38.140625 42.390625 41.71875 45.5625 
Q 45.3125 48.734375 45.3125 54.390625 
Q 45.3125 60.0625 41.71875 63.234375 
Q 38.140625 66.40625 31.78125 66.40625 
Q 25.390625 66.40625 21.84375 63.234375 
Q 18.3125 60.0625 18.3125 54.390625 
" id="DejaVuSans-38"/>
      </defs>
      <g transform="translate(325.604801 322.182437)scale(0.1 -0.1)">
       <use xlink:href="#DejaVuSans-30"/>
       <use x="63.623047" xlink:href="#DejaVuSans-2e"/>
       <use x="95.410156" xlink:href="#DejaVuSans-38"/>
      </g>
     </g>
    </g>
    <g id="xtick_6">
     <g id="line2d_6">
      <g>
       <use style="stroke:#000000;stroke-width:0.8;" x="398.487273" xlink:href="#m706c5eef7a" y="307.584"/>
      </g>
     </g>
     <g id="text_6">
      <!-- 1.0 -->
      <defs>
       <path d="M 12.40625 8.296875 
L 28.515625 8.296875 
L 28.515625 63.921875 
L 10.984375 60.40625 
L 10.984375 69.390625 
L 28.421875 72.90625 
L 38.28125 72.90625 
L 38.28125 8.296875 
L 54.390625 8.296875 
L 54.390625 0 
L 12.40625 0 
z
" id="DejaVuSans-31"/>
      </defs>
      <g transform="translate(390.53571 322.182437)scale(0.1 -0.1)">
       <use xlink:href="#DejaVuSans-31"/>
       <use x="63.623047" xlink:href="#DejaVuSans-2e"/>
       <use x="95.410156" xlink:href="#DejaVuSans-30"/>
      </g>
     </g>
    </g>
   </g>
   <g id="matplotlib.axis_2">
    <g id="ytick_1">
     <g id="line2d_7">
      <defs>
       <path d="M 0 0 
L -3.5 0 
" id="m103b48e0f5" style="stroke:#000000;stroke-width:0.8;"/>
      </defs>
      <g>
       <use style="stroke:#000000;stroke-width:0.8;" x="57.6" xlink:href="#m103b48e0f5" y="299.17887"/>
      </g>
     </g>
     <g id="text_7">
      <!-- 0.0 -->
      <g transform="translate(34.696875 302.978089)scale(0.1 -0.1)">
       <use xlink:href="#DejaVuSans-30"/>
       <use x="63.623047" xlink:href="#DejaVuSans-2e"/>
       <use x="95.410156" xlink:href="#DejaVuSans-30"/>
      </g>
     </g>
    </g>
    <g id="ytick_2">
     <g id="line2d_8">
      <g>
       <use style="stroke:#000000;stroke-width:0.8;" x="57.6" xlink:href="#m103b48e0f5" y="249.553394"/>
      </g>
     </g>
     <g id="text_8">
      <!-- 0.2 -->
      <g transform="translate(34.696875 253.352613)scale(0.1 -0.1)">
       <use xlink:href="#DejaVuSans-30"/>
       <use x="63.623047" xlink:href="#DejaVuSans-2e"/>
       <use x="95.410156" xlink:href="#DejaVuSans-32"/>
      </g>
     </g>
    </g>
    <g id="ytick_3">
     <g id="line2d_9">
      <g>
       <use style="stroke:#000000;stroke-width:0.8;" x="57.6" xlink:href="#m103b48e0f5" y="199.927919"/>
      </g>
     </g>
     <g id="text_9">
      <!-- 0.4 -->
      <g transform="translate(34.696875 203.727138)scale(0.1 -0.1)">
       <use xlink:href="#DejaVuSans-30"/>
       <use x="63.623047" xlink:href="#DejaVuSans-2e"/>
       <use x="95.410156" xlink:href="#DejaVuSans-34"/>
      </g>
     </g>
    </g>
    <g id="ytick_4">
     <g id="line2d_10">
      <g>
       <use style="stroke:#000000;stroke-width:0.8;" x="57.6" xlink:href="#m103b48e0f5" y="150.302443"/>
      </g>
     </g>
     <g id="text_10">
      <!-- 0.6 -->
      <g transform="translate(34.696875 154.101662)scale(0.1 -0.1)">
       <use xlink:href="#DejaVuSans-30"/>
       <use x="63.623047" xlink:href="#DejaVuSans-2e"/>
       <use x="95.410156" xlink:href="#DejaVuSans-36"/>
      </g>
     </g>
    </g>
    <g id="ytick_5">
     <g id="line2d_11">
      <g>
       <use style="stroke:#000000;stroke-width:0.8;" x="57.6" xlink:href="#m103b48e0f5" y="100.676968"/>
      </g>
     </g>
     <g id="text_11">
      <!-- 0.8 -->
      <g transform="translate(34.696875 104.476186)scale(0.1 -0.1)">
       <use xlink:href="#DejaVuSans-30"/>
       <use x="63.623047" xlink:href="#DejaVuSans-2e"/>
       <use x="95.410156" xlink:href="#DejaVuSans-38"/>
      </g>
     </g>
    </g>
    <g id="ytick_6">
     <g id="line2d_12">
      <g>
       <use style="stroke:#000000;stroke-width:0.8;" x="57.6" xlink:href="#m103b48e0f5" y="51.051492"/>
      </g>
     </g>
     <g id="text_12">
      <!-- 1.0 -->
      <g transform="translate(34.696875 54.850711)scale(0.1 -0.1)">
       <use xlink:href="#DejaVuSans-31"/>
       <use x="63.623047" xlink:href="#DejaVuSans-2e"/>
       <use x="95.410156" xlink:href="#DejaVuSans-30"/>
      </g>
     </g>
    </g>
   </g>
   <g id="line2d_13">
    <path clip-path="url(#pb089bf0c1d)" d="M 73.832727 286.596355 
L 74.92584 286.764114 
L 76.018953 286.093054 
L 77.112066 285.086451 
L 78.205179 278.711289 
L 79.298292 276.194781 
L 80.391405 269.316244 
L 81.484518 258.411542 
L 82.577631 245.661268 
L 83.670744 224.522553 
L 84.763857 206.739263 
L 85.85697 186.607201 
L 88.043196 142.65218 
L 89.136309 124.868891 
L 90.229421 119.332673 
L 91.322534 104.40136 
L 92.415647 76.719773 
L 93.50876 67.324926 
L 94.601873 65.143887 
L 95.694986 54.574653 
L 96.788099 53.568 
L 97.881212 61.78846 
L 98.974325 79.571997 
L 100.067438 85.779152 
L 101.160551 87.456989 
L 102.253664 103.394707 
L 105.533003 130.405357 
L 106.626116 142.484446 
L 107.719229 161.609856 
L 108.812342 163.95863 
L 109.905455 152.047275 
L 110.998567 154.396049 
L 112.09168 159.932267 
L 113.184793 161.945572 
L 114.277906 159.932267 
L 115.371019 168.991645 
L 116.464132 184.761877 
L 117.557245 189.962627 
L 118.650358 202.712901 
L 119.743471 213.953319 
L 120.836584 215.463174 
L 121.929697 220.328456 
L 124.115923 236.433907 
L 125.209036 238.614947 
L 126.302149 241.131455 
L 127.395262 250.52655 
L 128.488375 256.398236 
L 129.581488 259.250212 
L 130.674601 257.069421 
L 131.767713 260.92805 
L 132.860826 265.289881 
L 135.047052 269.819694 
L 137.233278 280.892279 
L 138.326391 280.892279 
L 139.419504 278.54353 
L 140.512617 279.550133 
L 141.60573 277.704686 
L 142.698843 275.188178 
L 143.791956 274.684901 
L 144.885069 269.819694 
L 147.071295 251.532955 
L 148.164408 247.674326 
L 149.257521 242.64131 
L 150.350634 234.588584 
L 151.443747 229.555568 
L 152.53686 225.361471 
L 153.629972 220.49619 
L 154.723085 214.288787 
L 155.816198 200.867329 
L 156.909311 196.337764 
L 158.002424 193.150071 
L 159.095537 192.143419 
L 160.18865 190.298095 
L 161.281763 182.077387 
L 164.561102 115.809512 
L 167.840441 77.89416 
L 168.933554 90.141231 
L 170.026667 93.496658 
L 171.11978 88.79911 
L 172.212893 89.470047 
L 173.306006 96.1809 
L 174.399118 112.622068 
L 175.492231 122.352383 
L 176.585344 133.257333 
L 177.678457 151.543825 
L 178.77157 160.435469 
L 179.864683 167.984993 
L 180.957796 174.695846 
L 182.050909 176.205701 
L 183.144022 184.929611 
L 184.237135 186.607201 
L 185.330248 187.110403 
L 186.423361 186.607201 
L 187.516474 187.781587 
L 188.609587 191.304748 
L 189.7027 191.640216 
L 190.795813 194.659926 
L 191.888926 197.176434 
L 194.075152 200.364127 
L 195.168264 205.564877 
L 196.261377 206.571529 
L 197.35449 213.785585 
L 198.447603 219.992739 
L 199.540716 224.522553 
L 200.633829 223.683634 
L 201.726942 225.361471 
L 203.913168 238.950415 
L 205.006281 244.319147 
L 206.099394 248.680979 
L 207.192507 256.230502 
L 208.28562 262.270171 
L 209.378733 264.45121 
L 210.471846 265.625349 
L 211.564959 268.309839 
L 213.751185 277.536927 
L 214.844298 281.731099 
L 215.93741 286.596355 
L 217.030523 290.119442 
L 218.123636 292.803733 
L 219.216749 293.810336 
L 220.309862 293.139251 
L 221.402975 292.635949 
L 222.496088 292.300432 
L 223.589201 289.951683 
L 224.682314 288.777321 
L 225.775427 283.744305 
L 226.86854 279.717892 
L 229.054766 263.109089 
L 230.147879 255.559566 
L 231.240992 244.486881 
L 232.334105 238.782681 
L 233.427218 229.2201 
L 234.520331 217.811948 
L 235.613444 209.255771 
L 239.985895 160.603451 
L 242.172121 142.819914 
L 243.265234 141.813509 
L 244.358347 141.645775 
L 245.45146 138.961285 
L 246.544573 134.767188 
L 247.637686 138.961285 
L 248.730799 139.464736 
L 249.823912 141.981244 
L 250.917025 140.639123 
L 252.010138 147.181993 
L 253.103251 155.234719 
L 254.196364 159.764533 
L 255.289477 168.656177 
L 256.38259 170.501501 
L 257.475702 182.580838 
L 259.661928 187.278385 
L 262.941267 202.712901 
L 264.03438 200.867329 
L 265.127493 206.403795 
L 266.220606 216.13411 
L 267.313719 223.5159 
L 268.406832 225.361471 
L 269.499945 224.690287 
L 271.686171 226.703592 
L 272.779284 222.006045 
L 273.872397 220.999392 
L 274.96551 219.489537 
L 276.058623 222.173779 
L 277.151736 227.03906 
L 278.244848 229.891037 
L 279.337961 236.769624 
L 280.431074 240.124802 
L 281.524187 247.003389 
L 282.6173 250.52655 
L 283.710413 253.54626 
L 285.896639 263.94776 
L 286.989752 267.806389 
L 288.082865 270.994081 
L 289.175978 278.879073 
L 290.269091 284.583149 
L 291.362204 287.938476 
L 292.455317 290.119442 
L 293.54843 290.287225 
L 294.641543 288.609562 
L 295.734656 283.744305 
L 296.827769 278.040229 
L 299.013994 262.941107 
L 300.107107 252.371873 
L 302.293333 226.703592 
L 303.386446 219.657271 
L 304.479559 203.048369 
L 305.572672 190.298095 
L 306.665785 182.748572 
L 307.758898 177.547822 
L 308.852011 168.991645 
L 309.945124 142.148978 
L 311.038237 121.849181 
L 314.317576 67.828129 
L 315.410689 63.801766 
L 316.503802 64.976152 
L 317.596915 72.022474 
L 318.690028 82.256239 
L 319.78314 97.187304 
L 320.876253 109.769844 
L 321.969366 114.131923 
L 323.062479 126.378994 
L 324.155592 134.599454 
L 325.248705 134.263986 
L 326.341818 129.734172 
L 327.434931 128.224317 
L 328.528044 128.72752 
L 329.621157 130.069641 
L 330.71427 144.665485 
L 331.807383 156.409106 
L 333.993609 185.600548 
L 335.086722 194.659926 
L 336.179835 208.081384 
L 337.272948 211.940013 
L 338.366061 212.778932 
L 339.459174 216.973029 
L 340.552287 222.844963 
L 341.645399 233.749665 
L 342.738512 238.614947 
L 343.831625 244.486881 
L 344.924738 256.56597 
L 346.017851 264.786678 
L 347.110964 269.316244 
L 348.204077 271.161815 
L 349.29719 273.846057 
L 350.390303 278.207988 
L 351.483416 279.885676 
L 352.576529 279.046832 
L 353.669642 280.221194 
L 354.762755 279.382374 
L 355.855868 281.395581 
L 356.948981 277.201384 
L 358.042094 277.87247 
L 359.135207 277.536927 
L 360.22832 277.87247 
L 361.321433 281.395581 
L 362.414545 283.241003 
L 363.507658 287.099657 
L 364.600771 288.94508 
L 365.693884 291.293828 
L 366.786997 293.307035 
L 367.88011 294.145854 
L 368.973223 295.320241 
L 370.066336 295.488 
L 372.252562 292.132648 
L 373.345675 289.61614 
L 376.625014 272.67167 
L 377.718127 265.961065 
L 378.81124 252.875076 
L 379.904353 246.667921 
L 380.997466 241.466923 
L 382.090579 232.910995 
L 383.183691 226.032408 
L 384.276804 215.798642 
L 385.369917 215.463174 
L 386.46303 209.255771 
L 387.556143 205.732611 
L 388.649256 199.357474 
L 389.742369 194.492192 
L 390.835482 201.203045 
L 391.928595 202.20945 
L 393.021708 198.854272 
L 394.114821 198.518555 
L 395.207934 204.39049 
L 396.301047 207.745916 
L 397.39416 200.364127 
L 398.487273 198.854272 
L 398.487273 198.854272 
" style="fill:none;stroke:#1f77b4;stroke-linecap:square;stroke-width:1.5;"/>
   </g>
   <g id="line2d_14">
    <path clip-path="url(#pb089bf0c1d)" d="M 73.832727 282.985907 
L 74.92584 283.781512 
L 76.018953 283.31444 
L 77.112066 283.453592 
L 78.205179 280.521713 
L 79.298292 276.516957 
L 80.391405 274.215481 
L 81.484518 262.023611 
L 82.577631 252.016213 
L 84.763857 206.256914 
L 85.85697 190.474116 
L 86.950083 165.723681 
L 89.136309 123.186558 
L 90.229421 116.57213 
L 91.322534 111.6972 
L 92.415647 82.741842 
L 93.50876 70.210229 
L 94.601873 72.659778 
L 95.694986 68.635607 
L 96.788099 65.151636 
L 97.881212 67.695493 
L 98.974325 78.729629 
L 100.067438 92.377298 
L 101.160551 87.495298 
L 102.253664 99.092543 
L 103.346777 114.554293 
L 104.43989 121.2376 
L 105.533003 134.440548 
L 106.626116 137.184917 
L 107.719229 161.780671 
L 108.812342 172.424698 
L 109.905455 152.907738 
L 110.998567 150.949013 
L 112.09168 159.563703 
L 113.184793 164.102221 
L 114.277906 160.743795 
L 115.371019 163.329358 
L 116.464132 185.397123 
L 117.557245 192.515261 
L 118.650358 197.509248 
L 119.743471 214.513269 
L 120.836584 217.361399 
L 121.929697 217.025371 
L 124.115923 235.333288 
L 125.209036 238.52694 
L 126.302149 240.088731 
L 127.395262 246.543227 
L 128.488375 255.614982 
L 129.581488 259.153331 
L 130.674601 256.756217 
L 131.767713 259.796039 
L 133.953939 266.935532 
L 135.047052 268.623717 
L 136.140165 271.627002 
L 137.233278 277.588007 
L 138.326391 279.359897 
L 140.512617 277.644786 
L 141.60573 278.02141 
L 142.698843 275.88305 
L 143.791956 274.321485 
L 144.885069 272.54251 
L 145.978182 265.495969 
L 147.071295 255.249389 
L 148.164408 248.09061 
L 149.257521 244.643007 
L 150.350634 237.377911 
L 151.443747 228.188471 
L 152.53686 225.966749 
L 153.629972 221.722046 
L 154.723085 213.748279 
L 155.816198 202.05789 
L 156.909311 194.360511 
L 158.002424 192.072831 
L 159.095537 190.474662 
L 160.18865 192.708756 
L 161.281763 186.605523 
L 162.374876 165.666999 
L 163.467989 134.741673 
L 165.654215 102.436791 
L 166.747328 93.043223 
L 167.840441 81.011144 
L 168.933554 83.122742 
L 170.026667 99.940853 
L 171.11978 90.834526 
L 172.212893 88.340247 
L 173.306006 92.763607 
L 175.492231 123.750677 
L 176.585344 132.723689 
L 177.678457 151.152143 
L 178.77157 161.768027 
L 179.864683 171.174578 
L 180.957796 174.892472 
L 182.050909 177.349437 
L 183.144022 181.135801 
L 184.237135 190.584523 
L 185.330248 186.651819 
L 186.423361 185.693736 
L 187.516474 187.390671 
L 189.7027 192.828673 
L 190.795813 190.962189 
L 191.888926 199.586396 
L 192.982039 196.783761 
L 194.075152 199.741602 
L 195.168264 205.139122 
L 196.261377 204.548419 
L 198.447603 219.084725 
L 199.540716 224.028392 
L 200.633829 224.592515 
L 201.726942 222.336068 
L 202.820055 230.312731 
L 205.006281 242.902678 
L 206.099394 247.424237 
L 207.192507 252.953748 
L 208.28562 260.342013 
L 209.378733 264.607764 
L 210.471846 264.846387 
L 211.564959 266.653512 
L 213.751185 274.557654 
L 214.844298 278.387219 
L 215.93741 281.197109 
L 217.030523 284.625262 
L 218.123636 286.491583 
L 219.216749 287.591469 
L 220.309862 287.944981 
L 221.402975 287.521849 
L 222.496088 287.557007 
L 224.682314 285.735206 
L 225.775427 283.775197 
L 226.86854 280.515038 
L 227.961653 275.813557 
L 230.147879 258.957431 
L 231.240992 248.454945 
L 233.427218 231.767827 
L 235.613444 207.877703 
L 236.706556 199.50418 
L 237.799669 185.5798 
L 239.985895 161.596425 
L 241.079008 150.327349 
L 242.172121 143.188962 
L 243.265234 139.903246 
L 244.358347 141.416923 
L 245.45146 141.932662 
L 246.544573 134.347989 
L 247.637686 136.527316 
L 248.730799 142.972778 
L 249.823912 140.530266 
L 250.917025 144.161265 
L 252.010138 143.059374 
L 253.103251 155.413451 
L 254.196364 160.773414 
L 255.289477 168.297784 
L 256.38259 172.195442 
L 257.475702 178.467755 
L 258.568815 188.903513 
L 259.661928 185.961919 
L 261.848154 195.858095 
L 262.941267 203.393309 
L 264.03438 200.991149 
L 265.127493 202.583911 
L 266.220606 215.624146 
L 267.313719 222.528893 
L 268.406832 225.176167 
L 269.499945 223.948696 
L 270.593058 225.046954 
L 271.686171 227.148767 
L 272.779284 222.078734 
L 273.872397 219.327943 
L 274.96551 218.786445 
L 276.058623 220.918843 
L 277.151736 225.531927 
L 278.244848 228.206278 
L 279.337961 235.069216 
L 280.431074 239.302341 
L 282.6173 250.16289 
L 283.710413 251.945574 
L 284.803526 256.5112 
L 286.989752 266.923777 
L 288.082865 269.027006 
L 289.175978 273.539205 
L 290.269091 280.125236 
L 291.362204 282.778687 
L 292.455317 285.095315 
L 293.54843 285.970563 
L 294.641543 286.032023 
L 295.734656 283.457217 
L 296.827769 280.397299 
L 297.920882 274.03926 
L 299.013994 266.925409 
L 300.107107 257.700322 
L 302.293333 228.847006 
L 303.386446 217.425365 
L 304.479559 209.655531 
L 305.572672 188.192359 
L 306.665785 179.489546 
L 307.758898 179.712667 
L 308.852011 170.895167 
L 309.945124 150.873687 
L 311.038237 117.243106 
L 312.13135 107.399323 
L 313.224463 89.457404 
L 314.317576 73.651511 
L 315.410689 69.955636 
L 316.503802 71.550815 
L 317.596915 74.12276 
L 318.690028 83.065717 
L 319.78314 94.608217 
L 320.876253 110.095085 
L 321.969366 117.403962 
L 323.062479 121.131715 
L 324.155592 139.874065 
L 325.248705 134.837499 
L 326.341818 132.921525 
L 327.434931 126.750799 
L 328.528044 128.17407 
L 329.621157 129.395801 
L 330.71427 139.528437 
L 331.807383 159.486122 
L 332.900496 168.887044 
L 333.993609 186.54985 
L 335.086722 194.15965 
L 336.179835 205.949295 
L 337.272948 214.190233 
L 338.366061 212.308155 
L 339.459174 214.956686 
L 340.552287 220.884157 
L 341.645399 229.818229 
L 342.738512 239.869188 
L 343.831625 241.928165 
L 344.924738 251.124553 
L 346.017851 262.807445 
L 347.110964 267.161904 
L 348.204077 270.436204 
L 349.29719 271.535928 
L 350.390303 275.417099 
L 351.483416 278.014093 
L 352.576529 278.329038 
L 354.762755 278.271398 
L 355.855868 279.537729 
L 358.042094 276.482233 
L 359.135207 276.64743 
L 360.22832 276.960343 
L 362.414545 279.925517 
L 363.507658 282.575917 
L 364.600771 284.31379 
L 366.786997 287.090948 
L 368.973223 288.659977 
L 371.159449 288.747722 
L 372.252562 287.803758 
L 373.345675 286.496888 
L 374.438788 284.566241 
L 375.531901 279.927974 
L 376.625014 275.913095 
L 377.718127 269.515723 
L 378.81124 258.281684 
L 379.904353 248.3713 
L 380.997466 242.936088 
L 382.090579 235.174786 
L 383.183691 226.424708 
L 384.276804 216.081224 
L 385.369917 214.090019 
L 386.46303 209.81921 
L 387.556143 204.861791 
L 388.649256 201.231773 
L 389.742369 190.723951 
L 390.835482 198.432025 
L 391.928595 203.233225 
L 393.021708 199.122559 
L 394.114821 196.486581 
L 396.301047 209.653783 
L 397.39416 200.395914 
L 398.487273 198.749009 
L 398.487273 198.749009 
" style="fill:none;stroke:#ff7f0e;stroke-linecap:square;stroke-width:1.5;"/>
   </g>
   <g id="line2d_15">
    <path clip-path="url(#pb089bf0c1d)" d="M 73.832727 285.206338 
L 74.92584 286.114004 
L 76.018953 285.550823 
L 77.112066 285.777258 
L 78.205179 282.3631 
L 79.298292 278.194426 
L 80.391405 275.781189 
L 82.577631 258.331478 
L 83.670744 242.638945 
L 84.763857 217.301171 
L 85.85697 196.979293 
L 86.950083 168.780913 
L 89.136309 124.451034 
L 90.229421 118.863008 
L 91.322534 112.01196 
L 92.415647 91.456063 
L 93.50876 79.110417 
L 94.601873 82.286039 
L 95.694986 80.982536 
L 96.788099 76.599786 
L 97.881212 79.496969 
L 98.974325 87.603787 
L 100.067438 99.01491 
L 101.160551 95.316084 
L 102.253664 100.22428 
L 103.346777 116.664809 
L 104.43989 121.648187 
L 105.533003 135.30604 
L 106.626116 138.047279 
L 107.719229 163.957446 
L 108.812342 175.504022 
L 109.905455 156.73924 
L 110.998567 153.660121 
L 112.09168 160.61263 
L 113.184793 165.397776 
L 114.277906 162.029936 
L 115.371019 164.692002 
L 116.464132 188.030606 
L 117.557245 194.523415 
L 118.650358 199.156237 
L 119.743471 216.807683 
L 120.836584 218.889641 
L 121.929697 218.466307 
L 124.115923 237.194367 
L 125.209036 240.421134 
L 126.302149 242.204474 
L 127.395262 248.37135 
L 128.488375 257.941785 
L 129.581488 260.994268 
L 130.674601 259.473563 
L 131.767713 261.140703 
L 132.860826 265.34444 
L 133.953939 268.783479 
L 135.047052 270.269103 
L 136.140165 273.321828 
L 137.233278 279.663926 
L 138.326391 281.215184 
L 139.419504 280.185361 
L 140.512617 279.383493 
L 141.60573 279.756195 
L 142.698843 277.475311 
L 144.885069 274.191494 
L 145.978182 268.626892 
L 148.164408 253.399178 
L 149.257521 249.366748 
L 150.350634 243.741264 
L 151.443747 235.053786 
L 153.629972 226.381634 
L 154.723085 219.485751 
L 155.816198 209.251204 
L 156.909311 196.349778 
L 158.002424 193.724735 
L 159.095537 191.447801 
L 160.18865 193.564595 
L 161.281763 188.378436 
L 162.374876 169.677155 
L 163.467989 135.862587 
L 165.654215 103.882923 
L 167.840441 89.457412 
L 168.933554 87.706032 
L 170.026667 103.434684 
L 171.11978 97.693185 
L 172.212893 93.729389 
L 173.306006 97.005055 
L 174.399118 108.961419 
L 175.492231 125.63534 
L 176.585344 133.492801 
L 177.678457 152.927825 
L 178.77157 164.894751 
L 179.864683 172.600781 
L 180.957796 176.090432 
L 182.050909 178.900139 
L 183.144022 182.377746 
L 184.237135 192.018998 
L 185.330248 187.72164 
L 186.423361 186.738249 
L 187.516474 188.169355 
L 188.609587 191.178467 
L 189.7027 193.634085 
L 190.795813 191.870115 
L 191.888926 200.910038 
L 192.982039 198.227704 
L 194.075152 200.478761 
L 195.168264 206.795308 
L 196.261377 206.797768 
L 198.447603 220.486055 
L 199.540716 225.401535 
L 200.633829 227.14758 
L 201.726942 225.667866 
L 205.006281 244.622376 
L 206.099394 249.14613 
L 207.192507 254.632624 
L 208.28562 262.53065 
L 209.378733 266.607289 
L 210.471846 266.429583 
L 211.564959 268.240892 
L 212.658072 272.562807 
L 214.844298 280.347306 
L 215.93741 283.319369 
L 217.030523 287.076261 
L 218.123636 289.102401 
L 219.216749 290.289149 
L 220.309862 290.669974 
L 221.402975 290.236087 
L 222.496088 290.291669 
L 223.589201 289.156224 
L 224.682314 288.303547 
L 225.775427 285.990459 
L 226.86854 282.4571 
L 227.961653 277.515839 
L 231.240992 255.300061 
L 232.334105 246.255907 
L 233.427218 239.001133 
L 234.520331 227.746221 
L 235.613444 214.410745 
L 236.706556 204.664391 
L 238.892782 175.237094 
L 239.985895 162.353363 
L 241.079008 151.138783 
L 242.172121 143.963628 
L 243.265234 141.4523 
L 244.358347 142.177084 
L 245.45146 142.709229 
L 246.544573 134.956433 
L 247.637686 138.026996 
L 248.730799 143.879474 
L 249.823912 141.202221 
L 250.917025 145.065698 
L 252.010138 143.99635 
L 253.103251 156.704678 
L 254.196364 162.324766 
L 255.289477 169.652976 
L 256.38259 174.118081 
L 257.475702 180.299714 
L 258.568815 190.780936 
L 259.661928 186.845649 
L 260.755041 192.140484 
L 261.848154 196.724473 
L 262.941267 204.883774 
L 264.03438 203.544873 
L 265.127493 203.947084 
L 266.220606 218.060193 
L 267.313719 224.08717 
L 268.406832 226.862829 
L 269.499945 227.317644 
L 270.593058 227.448423 
L 271.686171 229.08231 
L 272.779284 227.296526 
L 273.872397 223.080426 
L 274.96551 222.198709 
L 276.058623 222.505795 
L 277.151736 227.09233 
L 278.244848 230.198419 
L 279.337961 236.893427 
L 280.431074 241.108791 
L 282.6173 252.069352 
L 283.710413 253.718606 
L 284.803526 258.171102 
L 286.989752 268.940619 
L 288.082865 270.758473 
L 289.175978 275.380248 
L 290.269091 282.327545 
L 292.455317 287.560113 
L 293.54843 288.510186 
L 294.641543 288.601746 
L 295.734656 285.623838 
L 296.827769 282.31579 
L 299.013994 269.792063 
L 300.107107 262.528454 
L 301.20022 251.68697 
L 303.386446 224.895508 
L 304.479559 216.395183 
L 305.572672 194.0311 
L 306.665785 181.232993 
L 307.758898 180.824367 
L 308.852011 172.236336 
L 309.945124 153.296154 
L 311.038237 118.66917 
L 312.13135 109.090542 
L 313.224463 94.425475 
L 314.317576 83.241437 
L 315.410689 79.594059 
L 316.503802 82.259916 
L 317.596915 84.611845 
L 318.690028 90.920017 
L 319.78314 98.594918 
L 320.876253 111.970356 
L 321.969366 118.87689 
L 323.062479 121.59613 
L 324.155592 141.075103 
L 325.248705 136.666657 
L 326.341818 133.545347 
L 327.434931 127.294023 
L 328.528044 128.765241 
L 329.621157 129.88528 
L 330.71427 141.373098 
L 331.807383 161.419112 
L 332.900496 170.454065 
L 333.993609 188.635253 
L 335.086722 195.938101 
L 336.179835 208.147248 
L 337.272948 215.92299 
L 338.366061 214.180658 
L 339.459174 216.311433 
L 340.552287 222.261737 
L 342.738512 242.009522 
L 343.831625 243.492614 
L 344.924738 253.123622 
L 346.017851 265.604744 
L 347.110964 269.298912 
L 348.204077 272.27449 
L 349.29719 273.143173 
L 350.390303 277.236079 
L 351.483416 279.863338 
L 352.576529 280.079882 
L 353.669642 280.165996 
L 354.762755 279.989701 
L 355.855868 281.58548 
L 356.948981 279.762715 
L 358.042094 278.160428 
L 359.135207 278.287849 
L 360.22832 278.675288 
L 361.321433 280.461423 
L 362.414545 281.821713 
L 363.507658 284.888367 
L 365.693884 288.286354 
L 366.786997 289.779642 
L 367.88011 290.554717 
L 368.973223 291.507508 
L 370.066336 291.440864 
L 371.159449 291.553583 
L 372.252562 290.550158 
L 373.345675 289.086056 
L 374.438788 286.927473 
L 375.531901 281.813402 
L 376.625014 277.558381 
L 377.718127 271.814366 
L 378.81124 263.960568 
L 379.904353 254.485837 
L 382.090579 242.066748 
L 384.276804 223.818336 
L 385.369917 216.435541 
L 386.46303 214.549752 
L 387.556143 207.883709 
L 388.649256 204.161792 
L 389.742369 194.531161 
L 390.835482 200.757355 
L 391.928595 204.347888 
L 393.021708 201.701152 
L 394.114821 197.802489 
L 395.207934 204.994997 
L 396.301047 210.939408 
L 398.487273 200.192613 
L 398.487273 200.192613 
" style="fill:none;stroke:#2ca02c;stroke-linecap:square;stroke-width:1.5;"/>
   </g>
   <g id="line2d_16">
    <path clip-path="url(#pb089bf0c1d)" d="M 73.832727 278.938972 
L 74.92584 279.547059 
L 77.112066 279.421303 
L 78.205179 278.005276 
L 79.298292 275.307222 
L 80.391405 273.240278 
L 81.484518 260.060986 
L 82.577631 250.052094 
L 84.763857 202.904582 
L 85.85697 188.056551 
L 88.043196 140.524228 
L 89.136309 117.880054 
L 90.229421 109.838931 
L 91.322534 109.328163 
L 92.415647 78.586991 
L 93.50876 66.673949 
L 94.601873 68.917525 
L 95.694986 64.073325 
L 96.788099 60.986565 
L 97.881212 63.446518 
L 98.974325 74.666008 
L 100.067438 88.659955 
L 101.160551 83.812938 
L 102.253664 95.983756 
L 103.346777 112.152499 
L 104.43989 119.327993 
L 105.533003 130.655061 
L 106.626116 133.962161 
L 107.719229 154.099668 
L 108.812342 169.827783 
L 109.905455 149.459263 
L 110.998567 143.718919 
L 112.09168 154.266521 
L 113.184793 160.594261 
L 114.277906 158.381978 
L 115.371019 157.572134 
L 116.464132 178.072436 
L 117.557245 190.897241 
L 118.650358 194.594986 
L 119.743471 210.055269 
L 120.836584 216.494746 
L 121.929697 216.083087 
L 123.02281 223.718593 
L 124.115923 232.401294 
L 125.209036 237.630595 
L 126.302149 239.51739 
L 127.395262 244.546711 
L 128.488375 253.262904 
L 129.581488 258.280121 
L 130.674601 255.67719 
L 131.767713 259.485851 
L 133.953939 265.900727 
L 136.140165 269.792544 
L 137.233278 273.668156 
L 138.326391 275.987643 
L 139.419504 276.105813 
L 140.512617 275.336546 
L 141.60573 275.397251 
L 142.698843 274.365346 
L 143.791956 273.053274 
L 144.885069 271.961574 
L 145.978182 264.53197 
L 147.071295 253.464159 
L 148.164408 247.022601 
L 149.257521 243.575214 
L 150.350634 235.897426 
L 151.443747 226.655746 
L 152.53686 225.024605 
L 153.629972 220.621401 
L 154.723085 212.341303 
L 155.816198 199.597549 
L 156.909311 192.292855 
L 158.002424 191.095257 
L 159.095537 189.614414 
L 160.18865 191.723547 
L 161.281763 185.665339 
L 162.374876 163.095675 
L 163.467989 131.562786 
L 164.561102 111.87273 
L 165.654215 97.022396 
L 166.747328 90.201084 
L 167.840441 77.531141 
L 168.933554 79.480181 
L 170.026667 97.172919 
L 171.11978 87.340293 
L 172.212893 85.445655 
L 173.306006 90.000563 
L 175.492231 121.431952 
L 176.585344 129.412866 
L 178.77157 158.955657 
L 179.864683 166.15794 
L 180.957796 171.57517 
L 182.050909 175.748537 
L 183.144022 177.325589 
L 184.237135 188.62832 
L 185.330248 185.826098 
L 186.423361 184.927786 
L 187.516474 186.014034 
L 188.609587 188.635842 
L 189.7027 192.110215 
L 190.795813 190.231223 
L 191.888926 197.374235 
L 192.982039 196.051799 
L 194.075152 199.15309 
L 195.168264 203.293038 
L 196.261377 203.559836 
L 197.35449 209.548599 
L 198.447603 217.141886 
L 199.540716 222.420908 
L 200.633829 223.961549 
L 201.726942 221.53853 
L 205.006281 241.2539 
L 207.192507 251.517406 
L 208.28562 258.527362 
L 209.378733 263.491449 
L 210.471846 264.67464 
L 211.564959 266.224284 
L 212.658072 268.838045 
L 214.844298 274.781885 
L 217.030523 279.636639 
L 218.123636 281.353941 
L 219.216749 282.400802 
L 220.309862 282.843893 
L 221.402975 282.631172 
L 222.496088 282.544494 
L 223.589201 282.018404 
L 224.682314 281.315266 
L 225.775427 280.132922 
L 226.86854 278.034945 
L 227.961653 275.058413 
L 230.147879 257.734501 
L 231.240992 246.185263 
L 233.427218 229.94121 
L 235.613444 205.773189 
L 236.706556 197.943316 
L 237.799669 183.735163 
L 241.079008 147.138608 
L 242.172121 139.64863 
L 243.265234 134.18504 
L 244.358347 137.145454 
L 245.45146 137.700517 
L 246.544573 131.494399 
L 247.637686 130.507119 
L 248.730799 138.79159 
L 249.823912 136.409042 
L 250.917025 139.995265 
L 252.010138 137.719419 
L 253.103251 150.172255 
L 254.196364 157.432943 
L 255.289477 162.672232 
L 256.38259 170.326771 
L 257.475702 172.986366 
L 258.568815 187.289943 
L 259.661928 184.971374 
L 260.755041 188.933857 
L 261.848154 194.696819 
L 262.941267 201.175525 
L 264.03438 199.692413 
L 265.127493 201.362514 
L 266.220606 211.91336 
L 267.313719 220.221537 
L 268.406832 224.415728 
L 269.499945 223.265457 
L 270.593058 224.241453 
L 271.686171 226.241178 
L 272.779284 220.732113 
L 273.872397 218.240052 
L 274.96551 218.05465 
L 276.058623 219.789403 
L 277.151736 224.053242 
L 278.244848 227.514949 
L 280.431074 238.273665 
L 281.524187 242.982288 
L 282.6173 248.954434 
L 283.710413 251.474502 
L 284.803526 255.737908 
L 286.989752 265.240901 
L 288.082865 267.860125 
L 289.175978 270.902093 
L 290.269091 275.552457 
L 291.362204 278.351763 
L 292.455317 280.252953 
L 293.54843 281.158877 
L 294.641543 281.380716 
L 295.734656 280.016958 
L 296.827769 277.938302 
L 297.920882 273.683525 
L 299.013994 266.303136 
L 300.107107 256.121805 
L 301.20022 239.978779 
L 302.293333 226.509657 
L 303.386446 215.307744 
L 304.479559 207.735893 
L 305.572672 185.460376 
L 306.665785 177.949371 
L 307.758898 177.834279 
L 308.852011 169.736739 
L 309.945124 148.270911 
L 311.038237 111.500311 
L 312.13135 101.607391 
L 314.317576 69.872799 
L 315.410689 66.259228 
L 316.503802 67.598267 
L 317.596915 70.125907 
L 318.690028 79.352694 
L 319.78314 91.505547 
L 320.876253 107.752545 
L 321.969366 115.155454 
L 323.062479 118.122723 
L 324.155592 135.676763 
L 325.248705 132.2852 
L 326.341818 129.520848 
L 327.434931 123.06595 
L 328.528044 124.284458 
L 329.621157 125.912046 
L 330.71427 132.487512 
L 331.807383 154.766145 
L 332.900496 164.211703 
L 333.993609 181.487774 
L 335.086722 192.249993 
L 336.179835 201.758074 
L 337.272948 212.555434 
L 338.366061 211.688672 
L 339.459174 213.83003 
L 340.552287 219.264979 
L 341.645399 226.821646 
L 342.738512 236.996194 
L 343.831625 240.802354 
L 344.924738 248.419362 
L 346.017851 259.358491 
L 347.110964 265.466606 
L 348.204077 268.874514 
L 349.29719 270.276759 
L 351.483416 274.806792 
L 352.576529 275.620799 
L 354.762755 275.689983 
L 355.855868 276.23043 
L 356.948981 275.881585 
L 358.042094 274.682616 
L 359.135207 274.422984 
L 360.22832 274.591054 
L 361.321433 275.301654 
L 362.414545 276.521573 
L 363.507658 278.232537 
L 364.600771 279.690562 
L 366.786997 281.923384 
L 368.973223 283.2686 
L 371.159449 283.531755 
L 372.252562 282.948819 
L 373.345675 282.014143 
L 374.438788 280.719345 
L 376.625014 274.907974 
L 377.718127 269.164086 
L 378.81124 255.981118 
L 379.904353 247.003845 
L 380.997466 241.823063 
L 383.183691 224.871923 
L 384.276804 214.020833 
L 385.369917 212.256909 
L 386.46303 208.422784 
L 387.556143 203.512612 
L 388.649256 200.195941 
L 389.742369 189.295759 
L 390.835482 195.520833 
L 391.928595 202.594164 
L 393.021708 198.182703 
L 394.114821 195.499544 
L 395.207934 201.010438 
L 396.301047 208.027425 
L 397.39416 197.999485 
L 398.487273 197.313022 
L 398.487273 197.313022 
" style="fill:none;stroke:#d62728;stroke-linecap:square;stroke-width:1.5;"/>
   </g>
   <g id="patch_3">
    <path d="M 57.6 307.584 
L 57.6 41.472 
" style="fill:none;stroke:#000000;stroke-linecap:square;stroke-linejoin:miter;stroke-width:0.8;"/>
   </g>
   <g id="patch_4">
    <path d="M 414.72 307.584 
L 414.72 41.472 
" style="fill:none;stroke:#000000;stroke-linecap:square;stroke-linejoin:miter;stroke-width:0.8;"/>
   </g>
   <g id="patch_5">
    <path d="M 57.6 307.584 
L 414.72 307.584 
" style="fill:none;stroke:#000000;stroke-linecap:square;stroke-linejoin:miter;stroke-width:0.8;"/>
   </g>
   <g id="patch_6">
    <path d="M 57.6 41.472 
L 414.72 41.472 
" style="fill:none;stroke:#000000;stroke-linecap:square;stroke-linejoin:miter;stroke-width:0.8;"/>
   </g>
   <g id="text_13">
    <!-- Plot of Train Data vs MCMC Uncertainty  -->
    <defs>
     <path d="M 19.671875 64.796875 
L 19.671875 37.40625 
L 32.078125 37.40625 
Q 38.96875 37.40625 42.71875 40.96875 
Q 46.484375 44.53125 46.484375 51.125 
Q 46.484375 57.671875 42.71875 61.234375 
Q 38.96875 64.796875 32.078125 64.796875 
z
M 9.8125 72.90625 
L 32.078125 72.90625 
Q 44.34375 72.90625 50.609375 67.359375 
Q 56.890625 61.8125 56.890625 51.125 
Q 56.890625 40.328125 50.609375 34.8125 
Q 44.34375 29.296875 32.078125 29.296875 
L 19.671875 29.296875 
L 19.671875 0 
L 9.8125 0 
z
" id="DejaVuSans-50"/>
     <path d="M 9.421875 75.984375 
L 18.40625 75.984375 
L 18.40625 0 
L 9.421875 0 
z
" id="DejaVuSans-6c"/>
     <path d="M 30.609375 48.390625 
Q 23.390625 48.390625 19.1875 42.75 
Q 14.984375 37.109375 14.984375 27.296875 
Q 14.984375 17.484375 19.15625 11.84375 
Q 23.34375 6.203125 30.609375 6.203125 
Q 37.796875 6.203125 41.984375 11.859375 
Q 46.1875 17.53125 46.1875 27.296875 
Q 46.1875 37.015625 41.984375 42.703125 
Q 37.796875 48.390625 30.609375 48.390625 
M 30.609375 56 
Q 42.328125 56 49.015625 48.375 
Q 55.71875 40.765625 55.71875 27.296875 
Q 55.71875 13.875 49.015625 6.21875 
Q 42.328125 -1.421875 30.609375 -1.421875 
Q 18.84375 -1.421875 12.171875 6.21875 
Q 5.515625 13.875 5.515625 27.296875 
Q 5.515625 40.765625 12.171875 48.375 
Q 18.84375 56 30.609375 56 
" id="DejaVuSans-6f"/>
     <path d="M 18.3125 70.21875 
L 18.3125 54.6875 
L 36.8125 54.6875 
L 36.8125 47.703125 
L 18.3125 47.703125 
L 18.3125 18.015625 
Q 18.3125 11.328125 20.140625 9.421875 
Q 21.96875 7.515625 27.59375 7.515625 
L 36.8125 7.515625 
L 36.8125 0 
L 27.59375 0 
Q 17.1875 0 13.234375 3.875 
Q 9.28125 7.765625 9.28125 18.015625 
L 9.28125 47.703125 
L 2.6875 47.703125 
L 2.6875 54.6875 
L 9.28125 54.6875 
L 9.28125 70.21875 
z
" id="DejaVuSans-74"/>
     <path id="DejaVuSans-20"/>
     <path d="M 37.109375 75.984375 
L 37.109375 68.5 
L 28.515625 68.5 
Q 23.6875 68.5 21.796875 66.546875 
Q 19.921875 64.59375 19.921875 59.515625 
L 19.921875 54.6875 
L 34.71875 54.6875 
L 34.71875 47.703125 
L 19.921875 47.703125 
L 19.921875 0 
L 10.890625 0 
L 10.890625 47.703125 
L 2.296875 47.703125 
L 2.296875 54.6875 
L 10.890625 54.6875 
L 10.890625 58.5 
Q 10.890625 67.625 15.140625 71.796875 
Q 19.390625 75.984375 28.609375 75.984375 
z
" id="DejaVuSans-66"/>
     <path d="M -0.296875 72.90625 
L 61.375 72.90625 
L 61.375 64.59375 
L 35.5 64.59375 
L 35.5 0 
L 25.59375 0 
L 25.59375 64.59375 
L -0.296875 64.59375 
z
" id="DejaVuSans-54"/>
     <path d="M 41.109375 46.296875 
Q 39.59375 47.171875 37.8125 47.578125 
Q 36.03125 48 33.890625 48 
Q 26.265625 48 22.1875 43.046875 
Q 18.109375 38.09375 18.109375 28.8125 
L 18.109375 0 
L 9.078125 0 
L 9.078125 54.6875 
L 18.109375 54.6875 
L 18.109375 46.1875 
Q 20.953125 51.171875 25.484375 53.578125 
Q 30.03125 56 36.53125 56 
Q 37.453125 56 38.578125 55.875 
Q 39.703125 55.765625 41.0625 55.515625 
z
" id="DejaVuSans-72"/>
     <path d="M 34.28125 27.484375 
Q 23.390625 27.484375 19.1875 25 
Q 14.984375 22.515625 14.984375 16.5 
Q 14.984375 11.71875 18.140625 8.90625 
Q 21.296875 6.109375 26.703125 6.109375 
Q 34.1875 6.109375 38.703125 11.40625 
Q 43.21875 16.703125 43.21875 25.484375 
L 43.21875 27.484375 
z
M 52.203125 31.203125 
L 52.203125 0 
L 43.21875 0 
L 43.21875 8.296875 
Q 40.140625 3.328125 35.546875 0.953125 
Q 30.953125 -1.421875 24.3125 -1.421875 
Q 15.921875 -1.421875 10.953125 3.296875 
Q 6 8.015625 6 15.921875 
Q 6 25.140625 12.171875 29.828125 
Q 18.359375 34.515625 30.609375 34.515625 
L 43.21875 34.515625 
L 43.21875 35.40625 
Q 43.21875 41.609375 39.140625 45 
Q 35.0625 48.390625 27.6875 48.390625 
Q 23 48.390625 18.546875 47.265625 
Q 14.109375 46.140625 10.015625 43.890625 
L 10.015625 52.203125 
Q 14.9375 54.109375 19.578125 55.046875 
Q 24.21875 56 28.609375 56 
Q 40.484375 56 46.34375 49.84375 
Q 52.203125 43.703125 52.203125 31.203125 
" id="DejaVuSans-61"/>
     <path d="M 9.421875 54.6875 
L 18.40625 54.6875 
L 18.40625 0 
L 9.421875 0 
z
M 9.421875 75.984375 
L 18.40625 75.984375 
L 18.40625 64.59375 
L 9.421875 64.59375 
z
" id="DejaVuSans-69"/>
     <path d="M 54.890625 33.015625 
L 54.890625 0 
L 45.90625 0 
L 45.90625 32.71875 
Q 45.90625 40.484375 42.875 44.328125 
Q 39.84375 48.1875 33.796875 48.1875 
Q 26.515625 48.1875 22.3125 43.546875 
Q 18.109375 38.921875 18.109375 30.90625 
L 18.109375 0 
L 9.078125 0 
L 9.078125 54.6875 
L 18.109375 54.6875 
L 18.109375 46.1875 
Q 21.34375 51.125 25.703125 53.5625 
Q 30.078125 56 35.796875 56 
Q 45.21875 56 50.046875 50.171875 
Q 54.890625 44.34375 54.890625 33.015625 
" id="DejaVuSans-6e"/>
     <path d="M 19.671875 64.796875 
L 19.671875 8.109375 
L 31.59375 8.109375 
Q 46.6875 8.109375 53.6875 14.9375 
Q 60.6875 21.78125 60.6875 36.53125 
Q 60.6875 51.171875 53.6875 57.984375 
Q 46.6875 64.796875 31.59375 64.796875 
z
M 9.8125 72.90625 
L 30.078125 72.90625 
Q 51.265625 72.90625 61.171875 64.09375 
Q 71.09375 55.28125 71.09375 36.53125 
Q 71.09375 17.671875 61.125 8.828125 
Q 51.171875 0 30.078125 0 
L 9.8125 0 
z
" id="DejaVuSans-44"/>
     <path d="M 2.984375 54.6875 
L 12.5 54.6875 
L 29.59375 8.796875 
L 46.6875 54.6875 
L 56.203125 54.6875 
L 35.6875 0 
L 23.484375 0 
z
" id="DejaVuSans-76"/>
     <path d="M 44.28125 53.078125 
L 44.28125 44.578125 
Q 40.484375 46.53125 36.375 47.5 
Q 32.28125 48.484375 27.875 48.484375 
Q 21.1875 48.484375 17.84375 46.4375 
Q 14.5 44.390625 14.5 40.28125 
Q 14.5 37.15625 16.890625 35.375 
Q 19.28125 33.59375 26.515625 31.984375 
L 29.59375 31.296875 
Q 39.15625 29.25 43.1875 25.515625 
Q 47.21875 21.78125 47.21875 15.09375 
Q 47.21875 7.46875 41.1875 3.015625 
Q 35.15625 -1.421875 24.609375 -1.421875 
Q 20.21875 -1.421875 15.453125 -0.5625 
Q 10.6875 0.296875 5.421875 2 
L 5.421875 11.28125 
Q 10.40625 8.6875 15.234375 7.390625 
Q 20.0625 6.109375 24.8125 6.109375 
Q 31.15625 6.109375 34.5625 8.28125 
Q 37.984375 10.453125 37.984375 14.40625 
Q 37.984375 18.0625 35.515625 20.015625 
Q 33.0625 21.96875 24.703125 23.78125 
L 21.578125 24.515625 
Q 13.234375 26.265625 9.515625 29.90625 
Q 5.8125 33.546875 5.8125 39.890625 
Q 5.8125 47.609375 11.28125 51.796875 
Q 16.75 56 26.8125 56 
Q 31.78125 56 36.171875 55.265625 
Q 40.578125 54.546875 44.28125 53.078125 
" id="DejaVuSans-73"/>
     <path d="M 9.8125 72.90625 
L 24.515625 72.90625 
L 43.109375 23.296875 
L 61.8125 72.90625 
L 76.515625 72.90625 
L 76.515625 0 
L 66.890625 0 
L 66.890625 64.015625 
L 48.09375 14.015625 
L 38.1875 14.015625 
L 19.390625 64.015625 
L 19.390625 0 
L 9.8125 0 
z
" id="DejaVuSans-4d"/>
     <path d="M 64.40625 67.28125 
L 64.40625 56.890625 
Q 59.421875 61.53125 53.78125 63.8125 
Q 48.140625 66.109375 41.796875 66.109375 
Q 29.296875 66.109375 22.65625 58.46875 
Q 16.015625 50.828125 16.015625 36.375 
Q 16.015625 21.96875 22.65625 14.328125 
Q 29.296875 6.6875 41.796875 6.6875 
Q 48.140625 6.6875 53.78125 8.984375 
Q 59.421875 11.28125 64.40625 15.921875 
L 64.40625 5.609375 
Q 59.234375 2.09375 53.4375 0.328125 
Q 47.65625 -1.421875 41.21875 -1.421875 
Q 24.65625 -1.421875 15.125 8.703125 
Q 5.609375 18.84375 5.609375 36.375 
Q 5.609375 53.953125 15.125 64.078125 
Q 24.65625 74.21875 41.21875 74.21875 
Q 47.75 74.21875 53.53125 72.484375 
Q 59.328125 70.75 64.40625 67.28125 
" id="DejaVuSans-43"/>
     <path d="M 8.6875 72.90625 
L 18.609375 72.90625 
L 18.609375 28.609375 
Q 18.609375 16.890625 22.84375 11.734375 
Q 27.09375 6.59375 36.625 6.59375 
Q 46.09375 6.59375 50.34375 11.734375 
Q 54.59375 16.890625 54.59375 28.609375 
L 54.59375 72.90625 
L 64.5 72.90625 
L 64.5 27.390625 
Q 64.5 13.140625 57.4375 5.859375 
Q 50.390625 -1.421875 36.625 -1.421875 
Q 22.796875 -1.421875 15.734375 5.859375 
Q 8.6875 13.140625 8.6875 27.390625 
z
" id="DejaVuSans-55"/>
     <path d="M 48.78125 52.59375 
L 48.78125 44.1875 
Q 44.96875 46.296875 41.140625 47.34375 
Q 37.3125 48.390625 33.40625 48.390625 
Q 24.65625 48.390625 19.8125 42.84375 
Q 14.984375 37.3125 14.984375 27.296875 
Q 14.984375 17.28125 19.8125 11.734375 
Q 24.65625 6.203125 33.40625 6.203125 
Q 37.3125 6.203125 41.140625 7.25 
Q 44.96875 8.296875 48.78125 10.40625 
L 48.78125 2.09375 
Q 45.015625 0.34375 40.984375 -0.53125 
Q 36.96875 -1.421875 32.421875 -1.421875 
Q 20.0625 -1.421875 12.78125 6.34375 
Q 5.515625 14.109375 5.515625 27.296875 
Q 5.515625 40.671875 12.859375 48.328125 
Q 20.21875 56 33.015625 56 
Q 37.15625 56 41.109375 55.140625 
Q 45.0625 54.296875 48.78125 52.59375 
" id="DejaVuSans-63"/>
     <path d="M 56.203125 29.59375 
L 56.203125 25.203125 
L 14.890625 25.203125 
Q 15.484375 15.921875 20.484375 11.0625 
Q 25.484375 6.203125 34.421875 6.203125 
Q 39.59375 6.203125 44.453125 7.46875 
Q 49.3125 8.734375 54.109375 11.28125 
L 54.109375 2.78125 
Q 49.265625 0.734375 44.1875 -0.34375 
Q 39.109375 -1.421875 33.890625 -1.421875 
Q 20.796875 -1.421875 13.15625 6.1875 
Q 5.515625 13.8125 5.515625 26.8125 
Q 5.515625 40.234375 12.765625 48.109375 
Q 20.015625 56 32.328125 56 
Q 43.359375 56 49.78125 48.890625 
Q 56.203125 41.796875 56.203125 29.59375 
M 47.21875 32.234375 
Q 47.125 39.59375 43.09375 43.984375 
Q 39.0625 48.390625 32.421875 48.390625 
Q 24.90625 48.390625 20.390625 44.140625 
Q 15.875 39.890625 15.1875 32.171875 
z
" id="DejaVuSans-65"/>
     <path d="M 32.171875 -5.078125 
Q 28.375 -14.84375 24.75 -17.8125 
Q 21.140625 -20.796875 15.09375 -20.796875 
L 7.90625 -20.796875 
L 7.90625 -13.28125 
L 13.1875 -13.28125 
Q 16.890625 -13.28125 18.9375 -11.515625 
Q 21 -9.765625 23.484375 -3.21875 
L 25.09375 0.875 
L 2.984375 54.6875 
L 12.5 54.6875 
L 29.59375 11.921875 
L 46.6875 54.6875 
L 56.203125 54.6875 
z
" id="DejaVuSans-79"/>
    </defs>
    <g transform="translate(115.666875 35.472)scale(0.12 -0.12)">
     <use xlink:href="#DejaVuSans-50"/>
     <use x="60.302734" xlink:href="#DejaVuSans-6c"/>
     <use x="88.085938" xlink:href="#DejaVuSans-6f"/>
     <use x="149.267578" xlink:href="#DejaVuSans-74"/>
     <use x="188.476562" xlink:href="#DejaVuSans-20"/>
     <use x="220.263672" xlink:href="#DejaVuSans-6f"/>
     <use x="281.445312" xlink:href="#DejaVuSans-66"/>
     <use x="316.650391" xlink:href="#DejaVuSans-20"/>
     <use x="348.4375" xlink:href="#DejaVuSans-54"/>
     <use x="409.302734" xlink:href="#DejaVuSans-72"/>
     <use x="450.416016" xlink:href="#DejaVuSans-61"/>
     <use x="511.695312" xlink:href="#DejaVuSans-69"/>
     <use x="539.478516" xlink:href="#DejaVuSans-6e"/>
     <use x="602.857422" xlink:href="#DejaVuSans-20"/>
     <use x="634.644531" xlink:href="#DejaVuSans-44"/>
     <use x="711.646484" xlink:href="#DejaVuSans-61"/>
     <use x="772.925781" xlink:href="#DejaVuSans-74"/>
     <use x="812.134766" xlink:href="#DejaVuSans-61"/>
     <use x="873.414062" xlink:href="#DejaVuSans-20"/>
     <use x="905.201172" xlink:href="#DejaVuSans-76"/>
     <use x="964.380859" xlink:href="#DejaVuSans-73"/>
     <use x="1016.480469" xlink:href="#DejaVuSans-20"/>
     <use x="1048.267578" xlink:href="#DejaVuSans-4d"/>
     <use x="1134.546875" xlink:href="#DejaVuSans-43"/>
     <use x="1204.371094" xlink:href="#DejaVuSans-4d"/>
     <use x="1290.650391" xlink:href="#DejaVuSans-43"/>
     <use x="1360.474609" xlink:href="#DejaVuSans-20"/>
     <use x="1392.261719" xlink:href="#DejaVuSans-55"/>
     <use x="1465.455078" xlink:href="#DejaVuSans-6e"/>
     <use x="1528.833984" xlink:href="#DejaVuSans-63"/>
     <use x="1583.814453" xlink:href="#DejaVuSans-65"/>
     <use x="1645.337891" xlink:href="#DejaVuSans-72"/>
     <use x="1686.451172" xlink:href="#DejaVuSans-74"/>
     <use x="1725.660156" xlink:href="#DejaVuSans-61"/>
     <use x="1786.939453" xlink:href="#DejaVuSans-69"/>
     <use x="1814.722656" xlink:href="#DejaVuSans-6e"/>
     <use x="1878.101562" xlink:href="#DejaVuSans-74"/>
     <use x="1917.310547" xlink:href="#DejaVuSans-79"/>
     <use x="1976.490234" xlink:href="#DejaVuSans-20"/>
    </g>
   </g>
   <g id="legend_1">
    <g id="patch_7">
     <path d="M 277.843437 108.1845 
L 407.72 108.1845 
Q 409.72 108.1845 409.72 106.1845 
L 409.72 48.472 
Q 409.72 46.472 407.72 46.472 
L 277.843437 46.472 
Q 275.843437 46.472 275.843437 48.472 
L 275.843437 106.1845 
Q 275.843437 108.1845 277.843437 108.1845 
z
" style="fill:#ffffff;opacity:0.8;stroke:#cccccc;stroke-linejoin:miter;"/>
    </g>
    <g id="line2d_17">
     <path d="M 279.843437 54.570438 
L 299.843437 54.570438 
" style="fill:none;stroke:#1f77b4;stroke-linecap:square;stroke-width:1.5;"/>
    </g>
    <g id="line2d_18"/>
    <g id="text_14">
     <!-- actual -->
     <defs>
      <path d="M 8.5 21.578125 
L 8.5 54.6875 
L 17.484375 54.6875 
L 17.484375 21.921875 
Q 17.484375 14.15625 20.5 10.265625 
Q 23.53125 6.390625 29.59375 6.390625 
Q 36.859375 6.390625 41.078125 11.03125 
Q 45.3125 15.671875 45.3125 23.6875 
L 45.3125 54.6875 
L 54.296875 54.6875 
L 54.296875 0 
L 45.3125 0 
L 45.3125 8.40625 
Q 42.046875 3.421875 37.71875 1 
Q 33.40625 -1.421875 27.6875 -1.421875 
Q 18.265625 -1.421875 13.375 4.4375 
Q 8.5 10.296875 8.5 21.578125 
M 31.109375 56 
z
" id="DejaVuSans-75"/>
     </defs>
     <g transform="translate(307.843437 58.070438)scale(0.1 -0.1)">
      <use xlink:href="#DejaVuSans-61"/>
      <use x="61.279297" xlink:href="#DejaVuSans-63"/>
      <use x="116.259766" xlink:href="#DejaVuSans-74"/>
      <use x="155.46875" xlink:href="#DejaVuSans-75"/>
      <use x="218.847656" xlink:href="#DejaVuSans-61"/>
      <use x="280.126953" xlink:href="#DejaVuSans-6c"/>
     </g>
    </g>
    <g id="line2d_19">
     <path d="M 279.843437 69.248563 
L 299.843437 69.248563 
" style="fill:none;stroke:#ff7f0e;stroke-linecap:square;stroke-width:1.5;"/>
    </g>
    <g id="line2d_20"/>
    <g id="text_15">
     <!-- pred. (mean) -->
     <defs>
      <path d="M 18.109375 8.203125 
L 18.109375 -20.796875 
L 9.078125 -20.796875 
L 9.078125 54.6875 
L 18.109375 54.6875 
L 18.109375 46.390625 
Q 20.953125 51.265625 25.265625 53.625 
Q 29.59375 56 35.59375 56 
Q 45.5625 56 51.78125 48.09375 
Q 58.015625 40.1875 58.015625 27.296875 
Q 58.015625 14.40625 51.78125 6.484375 
Q 45.5625 -1.421875 35.59375 -1.421875 
Q 29.59375 -1.421875 25.265625 0.953125 
Q 20.953125 3.328125 18.109375 8.203125 
M 48.6875 27.296875 
Q 48.6875 37.203125 44.609375 42.84375 
Q 40.53125 48.484375 33.40625 48.484375 
Q 26.265625 48.484375 22.1875 42.84375 
Q 18.109375 37.203125 18.109375 27.296875 
Q 18.109375 17.390625 22.1875 11.75 
Q 26.265625 6.109375 33.40625 6.109375 
Q 40.53125 6.109375 44.609375 11.75 
Q 48.6875 17.390625 48.6875 27.296875 
" id="DejaVuSans-70"/>
      <path d="M 45.40625 46.390625 
L 45.40625 75.984375 
L 54.390625 75.984375 
L 54.390625 0 
L 45.40625 0 
L 45.40625 8.203125 
Q 42.578125 3.328125 38.25 0.953125 
Q 33.9375 -1.421875 27.875 -1.421875 
Q 17.96875 -1.421875 11.734375 6.484375 
Q 5.515625 14.40625 5.515625 27.296875 
Q 5.515625 40.1875 11.734375 48.09375 
Q 17.96875 56 27.875 56 
Q 33.9375 56 38.25 53.625 
Q 42.578125 51.265625 45.40625 46.390625 
M 14.796875 27.296875 
Q 14.796875 17.390625 18.875 11.75 
Q 22.953125 6.109375 30.078125 6.109375 
Q 37.203125 6.109375 41.296875 11.75 
Q 45.40625 17.390625 45.40625 27.296875 
Q 45.40625 37.203125 41.296875 42.84375 
Q 37.203125 48.484375 30.078125 48.484375 
Q 22.953125 48.484375 18.875 42.84375 
Q 14.796875 37.203125 14.796875 27.296875 
" id="DejaVuSans-64"/>
      <path d="M 31 75.875 
Q 24.46875 64.65625 21.28125 53.65625 
Q 18.109375 42.671875 18.109375 31.390625 
Q 18.109375 20.125 21.3125 9.0625 
Q 24.515625 -2 31 -13.1875 
L 23.1875 -13.1875 
Q 15.875 -1.703125 12.234375 9.375 
Q 8.59375 20.453125 8.59375 31.390625 
Q 8.59375 42.28125 12.203125 53.3125 
Q 15.828125 64.359375 23.1875 75.875 
z
" id="DejaVuSans-28"/>
      <path d="M 52 44.1875 
Q 55.375 50.25 60.0625 53.125 
Q 64.75 56 71.09375 56 
Q 79.640625 56 84.28125 50.015625 
Q 88.921875 44.046875 88.921875 33.015625 
L 88.921875 0 
L 79.890625 0 
L 79.890625 32.71875 
Q 79.890625 40.578125 77.09375 44.375 
Q 74.3125 48.1875 68.609375 48.1875 
Q 61.625 48.1875 57.5625 43.546875 
Q 53.515625 38.921875 53.515625 30.90625 
L 53.515625 0 
L 44.484375 0 
L 44.484375 32.71875 
Q 44.484375 40.625 41.703125 44.40625 
Q 38.921875 48.1875 33.109375 48.1875 
Q 26.21875 48.1875 22.15625 43.53125 
Q 18.109375 38.875 18.109375 30.90625 
L 18.109375 0 
L 9.078125 0 
L 9.078125 54.6875 
L 18.109375 54.6875 
L 18.109375 46.1875 
Q 21.1875 51.21875 25.484375 53.609375 
Q 29.78125 56 35.6875 56 
Q 41.65625 56 45.828125 52.96875 
Q 50 49.953125 52 44.1875 
" id="DejaVuSans-6d"/>
      <path d="M 8.015625 75.875 
L 15.828125 75.875 
Q 23.140625 64.359375 26.78125 53.3125 
Q 30.421875 42.28125 30.421875 31.390625 
Q 30.421875 20.453125 26.78125 9.375 
Q 23.140625 -1.703125 15.828125 -13.1875 
L 8.015625 -13.1875 
Q 14.5 -2 17.703125 9.0625 
Q 20.90625 20.125 20.90625 31.390625 
Q 20.90625 42.671875 17.703125 53.65625 
Q 14.5 64.65625 8.015625 75.875 
" id="DejaVuSans-29"/>
     </defs>
     <g transform="translate(307.843437 72.748563)scale(0.1 -0.1)">
      <use xlink:href="#DejaVuSans-70"/>
      <use x="63.476562" xlink:href="#DejaVuSans-72"/>
      <use x="104.558594" xlink:href="#DejaVuSans-65"/>
      <use x="166.082031" xlink:href="#DejaVuSans-64"/>
      <use x="229.558594" xlink:href="#DejaVuSans-2e"/>
      <use x="261.345703" xlink:href="#DejaVuSans-20"/>
      <use x="293.132812" xlink:href="#DejaVuSans-28"/>
      <use x="332.146484" xlink:href="#DejaVuSans-6d"/>
      <use x="429.558594" xlink:href="#DejaVuSans-65"/>
      <use x="491.082031" xlink:href="#DejaVuSans-61"/>
      <use x="552.361328" xlink:href="#DejaVuSans-6e"/>
      <use x="615.740234" xlink:href="#DejaVuSans-29"/>
     </g>
    </g>
    <g id="line2d_21">
     <path d="M 279.843437 83.926688 
L 299.843437 83.926688 
" style="fill:none;stroke:#2ca02c;stroke-linecap:square;stroke-width:1.5;"/>
    </g>
    <g id="line2d_22"/>
    <g id="text_16">
     <!-- pred.(5th percen.) -->
     <defs>
      <path d="M 10.796875 72.90625 
L 49.515625 72.90625 
L 49.515625 64.59375 
L 19.828125 64.59375 
L 19.828125 46.734375 
Q 21.96875 47.46875 24.109375 47.828125 
Q 26.265625 48.1875 28.421875 48.1875 
Q 40.625 48.1875 47.75 41.5 
Q 54.890625 34.8125 54.890625 23.390625 
Q 54.890625 11.625 47.5625 5.09375 
Q 40.234375 -1.421875 26.90625 -1.421875 
Q 22.3125 -1.421875 17.546875 -0.640625 
Q 12.796875 0.140625 7.71875 1.703125 
L 7.71875 11.625 
Q 12.109375 9.234375 16.796875 8.0625 
Q 21.484375 6.890625 26.703125 6.890625 
Q 35.15625 6.890625 40.078125 11.328125 
Q 45.015625 15.765625 45.015625 23.390625 
Q 45.015625 31 40.078125 35.4375 
Q 35.15625 39.890625 26.703125 39.890625 
Q 22.75 39.890625 18.8125 39.015625 
Q 14.890625 38.140625 10.796875 36.28125 
z
" id="DejaVuSans-35"/>
      <path d="M 54.890625 33.015625 
L 54.890625 0 
L 45.90625 0 
L 45.90625 32.71875 
Q 45.90625 40.484375 42.875 44.328125 
Q 39.84375 48.1875 33.796875 48.1875 
Q 26.515625 48.1875 22.3125 43.546875 
Q 18.109375 38.921875 18.109375 30.90625 
L 18.109375 0 
L 9.078125 0 
L 9.078125 75.984375 
L 18.109375 75.984375 
L 18.109375 46.1875 
Q 21.34375 51.125 25.703125 53.5625 
Q 30.078125 56 35.796875 56 
Q 45.21875 56 50.046875 50.171875 
Q 54.890625 44.34375 54.890625 33.015625 
" id="DejaVuSans-68"/>
     </defs>
     <g transform="translate(307.843437 87.426688)scale(0.1 -0.1)">
      <use xlink:href="#DejaVuSans-70"/>
      <use x="63.476562" xlink:href="#DejaVuSans-72"/>
      <use x="104.558594" xlink:href="#DejaVuSans-65"/>
      <use x="166.082031" xlink:href="#DejaVuSans-64"/>
      <use x="229.558594" xlink:href="#DejaVuSans-2e"/>
      <use x="261.345703" xlink:href="#DejaVuSans-28"/>
      <use x="300.359375" xlink:href="#DejaVuSans-35"/>
      <use x="363.982422" xlink:href="#DejaVuSans-74"/>
      <use x="403.191406" xlink:href="#DejaVuSans-68"/>
      <use x="466.570312" xlink:href="#DejaVuSans-20"/>
      <use x="498.357422" xlink:href="#DejaVuSans-70"/>
      <use x="561.833984" xlink:href="#DejaVuSans-65"/>
      <use x="623.357422" xlink:href="#DejaVuSans-72"/>
      <use x="664.439453" xlink:href="#DejaVuSans-63"/>
      <use x="719.419922" xlink:href="#DejaVuSans-65"/>
      <use x="780.943359" xlink:href="#DejaVuSans-6e"/>
      <use x="844.322266" xlink:href="#DejaVuSans-2e"/>
      <use x="876.109375" xlink:href="#DejaVuSans-29"/>
     </g>
    </g>
    <g id="line2d_23">
     <path d="M 279.843437 98.604813 
L 299.843437 98.604813 
" style="fill:none;stroke:#d62728;stroke-linecap:square;stroke-width:1.5;"/>
    </g>
    <g id="line2d_24"/>
    <g id="text_17">
     <!-- pred.(95th percen.) -->
     <defs>
      <path d="M 10.984375 1.515625 
L 10.984375 10.5 
Q 14.703125 8.734375 18.5 7.8125 
Q 22.3125 6.890625 25.984375 6.890625 
Q 35.75 6.890625 40.890625 13.453125 
Q 46.046875 20.015625 46.78125 33.40625 
Q 43.953125 29.203125 39.59375 26.953125 
Q 35.25 24.703125 29.984375 24.703125 
Q 19.046875 24.703125 12.671875 31.3125 
Q 6.296875 37.9375 6.296875 49.421875 
Q 6.296875 60.640625 12.9375 67.421875 
Q 19.578125 74.21875 30.609375 74.21875 
Q 43.265625 74.21875 49.921875 64.515625 
Q 56.59375 54.828125 56.59375 36.375 
Q 56.59375 19.140625 48.40625 8.859375 
Q 40.234375 -1.421875 26.421875 -1.421875 
Q 22.703125 -1.421875 18.890625 -0.6875 
Q 15.09375 0.046875 10.984375 1.515625 
M 30.609375 32.421875 
Q 37.25 32.421875 41.125 36.953125 
Q 45.015625 41.5 45.015625 49.421875 
Q 45.015625 57.28125 41.125 61.84375 
Q 37.25 66.40625 30.609375 66.40625 
Q 23.96875 66.40625 20.09375 61.84375 
Q 16.21875 57.28125 16.21875 49.421875 
Q 16.21875 41.5 20.09375 36.953125 
Q 23.96875 32.421875 30.609375 32.421875 
" id="DejaVuSans-39"/>
     </defs>
     <g transform="translate(307.843437 102.104813)scale(0.1 -0.1)">
      <use xlink:href="#DejaVuSans-70"/>
      <use x="63.476562" xlink:href="#DejaVuSans-72"/>
      <use x="104.558594" xlink:href="#DejaVuSans-65"/>
      <use x="166.082031" xlink:href="#DejaVuSans-64"/>
      <use x="229.558594" xlink:href="#DejaVuSans-2e"/>
      <use x="261.345703" xlink:href="#DejaVuSans-28"/>
      <use x="300.359375" xlink:href="#DejaVuSans-39"/>
      <use x="363.982422" xlink:href="#DejaVuSans-35"/>
      <use x="427.605469" xlink:href="#DejaVuSans-74"/>
      <use x="466.814453" xlink:href="#DejaVuSans-68"/>
      <use x="530.193359" xlink:href="#DejaVuSans-20"/>
      <use x="561.980469" xlink:href="#DejaVuSans-70"/>
      <use x="625.457031" xlink:href="#DejaVuSans-65"/>
      <use x="686.980469" xlink:href="#DejaVuSans-72"/>
      <use x="728.0625" xlink:href="#DejaVuSans-63"/>
      <use x="783.042969" xlink:href="#DejaVuSans-65"/>
      <use x="844.566406" xlink:href="#DejaVuSans-6e"/>
      <use x="907.945312" xlink:href="#DejaVuSans-2e"/>
      <use x="939.732422" xlink:href="#DejaVuSans-29"/>
     </g>
    </g>
   </g>
  </g>
 </g>
 <defs>
  <clipPath id="pb089bf0c1d">
   <rect height="266.112" width="357.12" x="57.6" y="41.472"/>
  </clipPath>
 </defs>
</svg>
