<?xml version="1.0" encoding="utf-8" standalone="no"?>
<!DOCTYPE svg PUBLIC "-//W3C//DTD SVG 1.1//EN"
  "http://www.w3.org/Graphics/SVG/1.1/DTD/svg11.dtd">
<!-- Created with matplotlib (http://matplotlib.org/) -->
<svg height="345pt" version="1.1" viewBox="0 0 460 345" width="460pt" xmlns="http://www.w3.org/2000/svg" xmlns:xlink="http://www.w3.org/1999/xlink">
 <defs>
  <style type="text/css">
*{stroke-linecap:butt;stroke-linejoin:round;}
  </style>
 </defs>
 <g id="figure_1">
  <g id="patch_1">
   <path d="M 0 345.6 
L 460.8 345.6 
L 460.8 0 
L 0 0 
z
" style="fill:#ffffff;"/>
  </g>
  <g id="axes_1">
   <g id="patch_2">
    <path d="M 57.6 307.584 
L 414.72 307.584 
L 414.72 41.472 
L 57.6 41.472 
z
" style="fill:#ffffff;"/>
   </g>
   <g id="PolyCollection_1">
    <path clip-path="url(#p28262d7766)" d="M 73.832727 95.473535 
L 73.832727 100.93459 
L 75.48072 95.815616 
L 77.128713 109.01474 
L 78.776705 106.174812 
L 80.424698 124.81367 
L 82.07269 142.052928 
L 83.720683 152.496416 
L 85.368676 157.77288 
L 87.016668 146.667267 
L 88.664661 149.820649 
L 90.312653 154.539111 
L 91.960646 164.145864 
L 93.608639 175.680657 
L 95.256631 182.405986 
L 96.904624 209.00073 
L 98.552617 218.758929 
L 100.200609 230.719944 
L 101.848602 236.824086 
L 103.496594 248.213757 
L 105.144587 262.112115 
L 106.79258 264.986926 
L 108.440572 266.328525 
L 110.088565 267.525282 
L 111.736557 265.110826 
L 113.38455 265.913222 
L 115.032543 267.065732 
L 116.680535 271.961088 
L 118.328528 276.583178 
L 119.976521 277.282775 
L 121.624513 280.394572 
L 123.272506 281.132839 
L 124.920498 282.084679 
L 126.568491 281.982859 
L 128.216484 279.131782 
L 129.864476 279.972018 
L 131.512469 280.15131 
L 133.160461 281.363684 
L 134.808454 281.567753 
L 136.456447 282.255222 
L 138.104439 282.876419 
L 139.752432 280.255053 
L 141.400425 278.746027 
L 143.048417 273.489672 
L 144.69641 265.97568 
L 146.344402 251.281335 
L 147.992395 236.766905 
L 149.640388 220.924072 
L 151.28838 204.878811 
L 152.936373 179.379184 
L 154.584365 155.647917 
L 156.232358 139.653492 
L 157.880351 120.000993 
L 159.528343 111.378496 
L 161.176336 96.759274 
L 162.824329 98.476489 
L 164.472321 91.232834 
L 166.120314 86.754789 
L 167.768306 75.759241 
L 169.416299 72.562218 
L 171.064292 67.316852 
L 172.712284 66.980886 
L 174.360277 69.202991 
L 176.008269 60.567766 
L 177.656262 82.554992 
L 179.304255 84.009059 
L 180.952247 97.375695 
L 182.60024 100.33243 
L 184.248233 103.716138 
L 185.896225 125.893176 
L 187.544218 129.229173 
L 189.19221 129.220345 
L 190.840203 132.283833 
L 192.488196 139.989027 
L 194.136188 158.107279 
L 195.784181 164.29156 
L 197.432174 173.667859 
L 199.080166 183.962432 
L 200.728159 188.344477 
L 202.376151 197.280008 
L 204.024144 202.740828 
L 205.672137 215.333261 
L 207.320129 218.569349 
L 208.968122 226.985407 
L 210.616114 233.50899 
L 212.264107 231.962138 
L 213.9121 233.299516 
L 215.560092 232.234293 
L 217.208085 233.798836 
L 218.856078 230.478495 
L 220.50407 231.65596 
L 222.152063 242.272739 
L 223.800055 245.397821 
L 225.448048 247.074355 
L 227.096041 256.359794 
L 228.744033 265.077149 
L 230.392026 268.147855 
L 232.040018 269.66468 
L 233.688011 269.491995 
L 235.336004 271.235924 
L 236.983996 271.012556 
L 238.631989 271.76384 
L 240.279982 274.58562 
L 241.927974 277.479786 
L 243.575967 280.915973 
L 245.223959 282.940725 
L 246.871952 284.631766 
L 248.519945 286.387475 
L 250.167937 286.322784 
L 251.81593 286.026982 
L 253.463922 286.006363 
L 255.111915 286.677762 
L 256.759908 286.277149 
L 258.4079 283.978219 
L 260.055893 283.003992 
L 261.703886 280.113725 
L 263.351878 274.305635 
L 264.999871 267.907305 
L 266.647863 259.388372 
L 268.295856 251.506471 
L 269.943849 238.333754 
L 271.591841 229.845301 
L 273.239834 221.311321 
L 274.887826 210.458509 
L 276.535819 198.358442 
L 278.183812 191.383555 
L 279.831804 188.276747 
L 281.479797 168.91487 
L 283.12779 163.272006 
L 284.775782 159.635963 
L 286.423775 152.961821 
L 288.071767 136.678274 
L 289.71976 128.624855 
L 291.367753 146.486986 
L 293.015745 137.027557 
L 294.663738 127.063127 
L 296.311731 127.316557 
L 297.959723 162.446812 
L 299.607716 156.04086 
L 301.255708 127.550913 
L 302.903701 134.183505 
L 304.551694 153.478923 
L 306.199686 151.010743 
L 307.847679 128.887161 
L 309.495671 141.278017 
L 311.143664 172.702532 
L 312.791657 167.010771 
L 314.439649 164.662457 
L 316.087642 157.911738 
L 317.735635 169.404335 
L 319.383627 169.5768 
L 321.03162 159.914967 
L 322.679612 161.438983 
L 324.327605 168.780108 
L 325.975598 198.788756 
L 327.62359 191.000533 
L 329.271583 187.130949 
L 330.919575 201.946127 
L 332.567568 213.266247 
L 334.215561 217.860002 
L 335.863553 224.569141 
L 337.511546 237.812663 
L 339.159539 256.346441 
L 340.807531 262.668978 
L 342.455524 263.295214 
L 344.103516 267.893847 
L 345.751509 272.377334 
L 347.399502 280.193226 
L 349.047494 281.41984 
L 350.695487 283.516142 
L 352.343479 285.578476 
L 353.991472 285.860805 
L 355.639465 286.24283 
L 357.287457 285.852056 
L 358.93545 285.311417 
L 360.583443 285.221974 
L 362.231435 285.96095 
L 363.879428 286.842602 
L 365.52742 287.519208 
L 367.175413 288.171088 
L 368.823406 288.552355 
L 370.471398 288.49154 
L 372.119391 286.267817 
L 373.767383 284.255168 
L 375.415376 281.922313 
L 377.063369 278.858227 
L 378.711361 272.343486 
L 380.359354 260.219148 
L 382.007347 248.931327 
L 383.655339 230.505074 
L 385.303332 203.11744 
L 386.951324 181.873498 
L 388.599317 171.406916 
L 390.24731 162.421888 
L 391.895302 146.490989 
L 393.543295 144.25669 
L 395.191287 157.544523 
L 396.83928 154.424619 
L 398.487273 142.201958 
L 398.487273 134.071972 
L 398.487273 134.071972 
L 396.83928 147.575432 
L 395.191287 153.08211 
L 393.543295 138.218776 
L 391.895302 135.216777 
L 390.24731 153.03882 
L 388.599317 161.973242 
L 386.951324 166.285294 
L 385.303332 182.155655 
L 383.655339 209.941086 
L 382.007347 242.466692 
L 380.359354 255.022112 
L 378.711361 265.387648 
L 377.063369 268.908628 
L 375.415376 270.844774 
L 373.767383 272.40193 
L 372.119391 273.935678 
L 370.471398 275.18476 
L 368.823406 275.168457 
L 367.175413 274.803681 
L 365.52742 274.244719 
L 363.879428 273.737451 
L 362.231435 273.056154 
L 360.583443 272.693706 
L 358.93545 272.901057 
L 357.287457 273.205001 
L 355.639465 273.452525 
L 353.991472 273.180297 
L 352.343479 272.560743 
L 350.695487 271.166503 
L 349.047494 269.824686 
L 347.399502 267.82623 
L 345.751509 262.881788 
L 344.103516 259.982143 
L 342.455524 257.330908 
L 340.807531 254.545989 
L 339.159539 245.847508 
L 337.511546 230.80138 
L 335.863553 220.542045 
L 334.215561 213.77997 
L 332.567568 207.114484 
L 330.919575 194.570866 
L 329.271583 181.344252 
L 327.62359 179.678168 
L 325.975598 184.35728 
L 324.327605 164.960058 
L 322.679612 155.942598 
L 321.03162 149.615587 
L 319.383627 163.409043 
L 317.735635 162.322879 
L 316.087642 149.120149 
L 314.439649 159.904966 
L 312.791657 160.783898 
L 311.143664 160.225961 
L 309.495671 131.350284 
L 307.847679 119.869039 
L 306.199686 141.692248 
L 304.551694 144.426332 
L 302.903701 128.755015 
L 301.255708 117.555125 
L 299.607716 144.453446 
L 297.959723 146.040624 
L 296.311731 122.916116 
L 294.663738 121.313447 
L 293.015745 130.439054 
L 291.367753 140.932803 
L 289.71976 121.453043 
L 288.071767 123.613624 
L 286.423775 146.433716 
L 284.775782 152.078067 
L 283.12779 158.068104 
L 281.479797 152.954551 
L 279.831804 178.747263 
L 278.183812 183.12945 
L 276.535819 185.410531 
L 274.887826 197.653784 
L 273.239834 210.129627 
L 271.591841 221.81172 
L 269.943849 226.550007 
L 268.295856 245.753641 
L 266.647863 256.236303 
L 264.999871 262.612548 
L 263.351878 266.585473 
L 261.703886 269.639241 
L 260.055893 271.265859 
L 258.4079 272.292665 
L 256.759908 273.629643 
L 255.111915 273.649939 
L 253.463922 273.189432 
L 251.81593 273.386005 
L 250.167937 273.581331 
L 248.519945 273.277998 
L 246.871952 271.983821 
L 245.223959 270.666862 
L 243.575967 269.038177 
L 241.927974 266.781956 
L 240.279982 264.765647 
L 238.631989 263.454276 
L 236.983996 263.077589 
L 235.336004 262.80781 
L 233.688011 262.283303 
L 232.040018 261.904781 
L 230.392026 260.267013 
L 228.744033 256.184356 
L 227.096041 249.561129 
L 225.448048 243.857069 
L 223.800055 241.728645 
L 222.152063 236.635813 
L 220.50407 228.775201 
L 218.856078 221.594091 
L 217.208085 230.521063 
L 215.560092 228.851918 
L 213.9121 230.350586 
L 212.264107 226.826263 
L 210.616114 229.403059 
L 208.968122 222.291824 
L 207.320129 214.587171 
L 205.672137 208.929541 
L 204.024144 198.537161 
L 202.376151 191.132858 
L 200.728159 184.309978 
L 199.080166 177.894079 
L 197.432174 168.723561 
L 195.784181 160.79332 
L 194.136188 149.45373 
L 192.488196 137.495661 
L 190.840203 128.974564 
L 189.19221 126.413947 
L 187.544218 123.739749 
L 185.896225 115.347018 
L 184.248233 94.93316 
L 182.60024 95.010085 
L 180.952247 88.134506 
L 179.304255 76.890112 
L 177.656262 67.551758 
L 176.008269 53.568 
L 174.360277 62.058489 
L 172.712284 57.470486 
L 171.064292 60.167662 
L 169.416299 64.826519 
L 167.768306 71.054909 
L 166.120314 81.739896 
L 164.472321 87.038979 
L 162.824329 93.40044 
L 161.176336 93.040662 
L 159.528343 108.363508 
L 157.880351 111.784399 
L 156.232358 131.924299 
L 154.584365 141.187038 
L 152.936373 160.614412 
L 151.28838 187.908212 
L 149.640388 205.299623 
L 147.992395 225.589533 
L 146.344402 241.072089 
L 144.69641 261.596164 
L 143.048417 265.814285 
L 141.400425 268.528858 
L 139.752432 269.78141 
L 138.104439 270.968363 
L 136.456447 270.484035 
L 134.808454 270.075012 
L 133.160461 269.770821 
L 131.512469 269.166455 
L 129.864476 268.812855 
L 128.216484 269.019169 
L 126.568491 270.471723 
L 124.920498 270.332227 
L 123.272506 269.688064 
L 121.624513 268.706303 
L 119.976521 267.166726 
L 118.328528 265.934266 
L 116.680535 262.540719 
L 115.032543 259.918481 
L 113.38455 259.502201 
L 111.736557 259.625315 
L 110.088565 260.599176 
L 108.440572 259.478228 
L 106.79258 257.684218 
L 105.144587 252.441949 
L 103.496594 241.347454 
L 101.848602 232.235755 
L 100.200609 223.677311 
L 98.552617 211.508483 
L 96.904624 196.990382 
L 95.256631 176.202186 
L 93.608639 170.635609 
L 91.960646 159.456713 
L 90.312653 151.984881 
L 88.664661 144.492901 
L 87.016668 137.630582 
L 85.368676 154.558533 
L 83.720683 147.617606 
L 82.07269 134.601791 
L 80.424698 111.273032 
L 78.776705 100.093829 
L 77.128713 96.856749 
L 75.48072 90.387567 
L 73.832727 95.473535 
z
" style="fill:#008000;fill-opacity:0.4;"/>
   </g>
   <g id="matplotlib.axis_1">
    <g id="xtick_1">
     <g id="line2d_1">
      <defs>
       <path d="M 0 0 
L 0 3.5 
" id="mc0aa2828ae" style="stroke:#000000;stroke-width:0.8;"/>
      </defs>
      <g>
       <use style="stroke:#000000;stroke-width:0.8;" x="73.832727" xlink:href="#mc0aa2828ae" y="307.584"/>
      </g>
     </g>
     <g id="text_1">
      <!-- 0.0 -->
      <defs>
       <path d="M 31.78125 66.40625 
Q 24.171875 66.40625 20.328125 58.90625 
Q 16.5 51.421875 16.5 36.375 
Q 16.5 21.390625 20.328125 13.890625 
Q 24.171875 6.390625 31.78125 6.390625 
Q 39.453125 6.390625 43.28125 13.890625 
Q 47.125 21.390625 47.125 36.375 
Q 47.125 51.421875 43.28125 58.90625 
Q 39.453125 66.40625 31.78125 66.40625 
M 31.78125 74.21875 
Q 44.046875 74.21875 50.515625 64.515625 
Q 56.984375 54.828125 56.984375 36.375 
Q 56.984375 17.96875 50.515625 8.265625 
Q 44.046875 -1.421875 31.78125 -1.421875 
Q 19.53125 -1.421875 13.0625 8.265625 
Q 6.59375 17.96875 6.59375 36.375 
Q 6.59375 54.828125 13.0625 64.515625 
Q 19.53125 74.21875 31.78125 74.21875 
" id="DejaVuSans-30"/>
       <path d="M 10.6875 12.40625 
L 21 12.40625 
L 21 0 
L 10.6875 0 
z
" id="DejaVuSans-2e"/>
      </defs>
      <g transform="translate(65.881165 322.182437)scale(0.1 -0.1)">
       <use xlink:href="#DejaVuSans-30"/>
       <use x="63.623047" xlink:href="#DejaVuSans-2e"/>
       <use x="95.410156" xlink:href="#DejaVuSans-30"/>
      </g>
     </g>
    </g>
    <g id="xtick_2">
     <g id="line2d_2">
      <g>
       <use style="stroke:#000000;stroke-width:0.8;" x="138.763636" xlink:href="#mc0aa2828ae" y="307.584"/>
      </g>
     </g>
     <g id="text_2">
      <!-- 0.2 -->
      <defs>
       <path d="M 19.1875 8.296875 
L 53.609375 8.296875 
L 53.609375 0 
L 7.328125 0 
L 7.328125 8.296875 
Q 12.9375 14.109375 22.625 23.890625 
Q 32.328125 33.6875 34.8125 36.53125 
Q 39.546875 41.84375 41.421875 45.53125 
Q 43.3125 49.21875 43.3125 52.78125 
Q 43.3125 58.59375 39.234375 62.25 
Q 35.15625 65.921875 28.609375 65.921875 
Q 23.96875 65.921875 18.8125 64.3125 
Q 13.671875 62.703125 7.8125 59.421875 
L 7.8125 69.390625 
Q 13.765625 71.78125 18.9375 73 
Q 24.125 74.21875 28.421875 74.21875 
Q 39.75 74.21875 46.484375 68.546875 
Q 53.21875 62.890625 53.21875 53.421875 
Q 53.21875 48.921875 51.53125 44.890625 
Q 49.859375 40.875 45.40625 35.40625 
Q 44.1875 33.984375 37.640625 27.21875 
Q 31.109375 20.453125 19.1875 8.296875 
" id="DejaVuSans-32"/>
      </defs>
      <g transform="translate(130.812074 322.182437)scale(0.1 -0.1)">
       <use xlink:href="#DejaVuSans-30"/>
       <use x="63.623047" xlink:href="#DejaVuSans-2e"/>
       <use x="95.410156" xlink:href="#DejaVuSans-32"/>
      </g>
     </g>
    </g>
    <g id="xtick_3">
     <g id="line2d_3">
      <g>
       <use style="stroke:#000000;stroke-width:0.8;" x="203.694545" xlink:href="#mc0aa2828ae" y="307.584"/>
      </g>
     </g>
     <g id="text_3">
      <!-- 0.4 -->
      <defs>
       <path d="M 37.796875 64.3125 
L 12.890625 25.390625 
L 37.796875 25.390625 
z
M 35.203125 72.90625 
L 47.609375 72.90625 
L 47.609375 25.390625 
L 58.015625 25.390625 
L 58.015625 17.1875 
L 47.609375 17.1875 
L 47.609375 0 
L 37.796875 0 
L 37.796875 17.1875 
L 4.890625 17.1875 
L 4.890625 26.703125 
z
" id="DejaVuSans-34"/>
      </defs>
      <g transform="translate(195.742983 322.182437)scale(0.1 -0.1)">
       <use xlink:href="#DejaVuSans-30"/>
       <use x="63.623047" xlink:href="#DejaVuSans-2e"/>
       <use x="95.410156" xlink:href="#DejaVuSans-34"/>
      </g>
     </g>
    </g>
    <g id="xtick_4">
     <g id="line2d_4">
      <g>
       <use style="stroke:#000000;stroke-width:0.8;" x="268.625455" xlink:href="#mc0aa2828ae" y="307.584"/>
      </g>
     </g>
     <g id="text_4">
      <!-- 0.6 -->
      <defs>
       <path d="M 33.015625 40.375 
Q 26.375 40.375 22.484375 35.828125 
Q 18.609375 31.296875 18.609375 23.390625 
Q 18.609375 15.53125 22.484375 10.953125 
Q 26.375 6.390625 33.015625 6.390625 
Q 39.65625 6.390625 43.53125 10.953125 
Q 47.40625 15.53125 47.40625 23.390625 
Q 47.40625 31.296875 43.53125 35.828125 
Q 39.65625 40.375 33.015625 40.375 
M 52.59375 71.296875 
L 52.59375 62.3125 
Q 48.875 64.0625 45.09375 64.984375 
Q 41.3125 65.921875 37.59375 65.921875 
Q 27.828125 65.921875 22.671875 59.328125 
Q 17.53125 52.734375 16.796875 39.40625 
Q 19.671875 43.65625 24.015625 45.921875 
Q 28.375 48.1875 33.59375 48.1875 
Q 44.578125 48.1875 50.953125 41.515625 
Q 57.328125 34.859375 57.328125 23.390625 
Q 57.328125 12.15625 50.6875 5.359375 
Q 44.046875 -1.421875 33.015625 -1.421875 
Q 20.359375 -1.421875 13.671875 8.265625 
Q 6.984375 17.96875 6.984375 36.375 
Q 6.984375 53.65625 15.1875 63.9375 
Q 23.390625 74.21875 37.203125 74.21875 
Q 40.921875 74.21875 44.703125 73.484375 
Q 48.484375 72.75 52.59375 71.296875 
" id="DejaVuSans-36"/>
      </defs>
      <g transform="translate(260.673892 322.182437)scale(0.1 -0.1)">
       <use xlink:href="#DejaVuSans-30"/>
       <use x="63.623047" xlink:href="#DejaVuSans-2e"/>
       <use x="95.410156" xlink:href="#DejaVuSans-36"/>
      </g>
     </g>
    </g>
    <g id="xtick_5">
     <g id="line2d_5">
      <g>
       <use style="stroke:#000000;stroke-width:0.8;" x="333.556364" xlink:href="#mc0aa2828ae" y="307.584"/>
      </g>
     </g>
     <g id="text_5">
      <!-- 0.8 -->
      <defs>
       <path d="M 31.78125 34.625 
Q 24.75 34.625 20.71875 30.859375 
Q 16.703125 27.09375 16.703125 20.515625 
Q 16.703125 13.921875 20.71875 10.15625 
Q 24.75 6.390625 31.78125 6.390625 
Q 38.8125 6.390625 42.859375 10.171875 
Q 46.921875 13.96875 46.921875 20.515625 
Q 46.921875 27.09375 42.890625 30.859375 
Q 38.875 34.625 31.78125 34.625 
M 21.921875 38.8125 
Q 15.578125 40.375 12.03125 44.71875 
Q 8.5 49.078125 8.5 55.328125 
Q 8.5 64.0625 14.71875 69.140625 
Q 20.953125 74.21875 31.78125 74.21875 
Q 42.671875 74.21875 48.875 69.140625 
Q 55.078125 64.0625 55.078125 55.328125 
Q 55.078125 49.078125 51.53125 44.71875 
Q 48 40.375 41.703125 38.8125 
Q 48.828125 37.15625 52.796875 32.3125 
Q 56.78125 27.484375 56.78125 20.515625 
Q 56.78125 9.90625 50.3125 4.234375 
Q 43.84375 -1.421875 31.78125 -1.421875 
Q 19.734375 -1.421875 13.25 4.234375 
Q 6.78125 9.90625 6.78125 20.515625 
Q 6.78125 27.484375 10.78125 32.3125 
Q 14.796875 37.15625 21.921875 38.8125 
M 18.3125 54.390625 
Q 18.3125 48.734375 21.84375 45.5625 
Q 25.390625 42.390625 31.78125 42.390625 
Q 38.140625 42.390625 41.71875 45.5625 
Q 45.3125 48.734375 45.3125 54.390625 
Q 45.3125 60.0625 41.71875 63.234375 
Q 38.140625 66.40625 31.78125 66.40625 
Q 25.390625 66.40625 21.84375 63.234375 
Q 18.3125 60.0625 18.3125 54.390625 
" id="DejaVuSans-38"/>
      </defs>
      <g transform="translate(325.604801 322.182437)scale(0.1 -0.1)">
       <use xlink:href="#DejaVuSans-30"/>
       <use x="63.623047" xlink:href="#DejaVuSans-2e"/>
       <use x="95.410156" xlink:href="#DejaVuSans-38"/>
      </g>
     </g>
    </g>
    <g id="xtick_6">
     <g id="line2d_6">
      <g>
       <use style="stroke:#000000;stroke-width:0.8;" x="398.487273" xlink:href="#mc0aa2828ae" y="307.584"/>
      </g>
     </g>
     <g id="text_6">
      <!-- 1.0 -->
      <defs>
       <path d="M 12.40625 8.296875 
L 28.515625 8.296875 
L 28.515625 63.921875 
L 10.984375 60.40625 
L 10.984375 69.390625 
L 28.421875 72.90625 
L 38.28125 72.90625 
L 38.28125 8.296875 
L 54.390625 8.296875 
L 54.390625 0 
L 12.40625 0 
z
" id="DejaVuSans-31"/>
      </defs>
      <g transform="translate(390.53571 322.182437)scale(0.1 -0.1)">
       <use xlink:href="#DejaVuSans-31"/>
       <use x="63.623047" xlink:href="#DejaVuSans-2e"/>
       <use x="95.410156" xlink:href="#DejaVuSans-30"/>
      </g>
     </g>
    </g>
   </g>
   <g id="matplotlib.axis_2">
    <g id="ytick_1">
     <g id="line2d_7">
      <defs>
       <path d="M 0 0 
L -3.5 0 
" id="mc64c7747d6" style="stroke:#000000;stroke-width:0.8;"/>
      </defs>
      <g>
       <use style="stroke:#000000;stroke-width:0.8;" x="57.6" xlink:href="#mc64c7747d6" y="299.561681"/>
      </g>
     </g>
     <g id="text_7">
      <!-- 0.0 -->
      <g transform="translate(34.696875 303.3609)scale(0.1 -0.1)">
       <use xlink:href="#DejaVuSans-30"/>
       <use x="63.623047" xlink:href="#DejaVuSans-2e"/>
       <use x="95.410156" xlink:href="#DejaVuSans-30"/>
      </g>
     </g>
    </g>
    <g id="ytick_2">
     <g id="line2d_8">
      <g>
       <use style="stroke:#000000;stroke-width:0.8;" x="57.6" xlink:href="#mc64c7747d6" y="259.395231"/>
      </g>
     </g>
     <g id="text_8">
      <!-- 0.1 -->
      <g transform="translate(34.696875 263.19445)scale(0.1 -0.1)">
       <use xlink:href="#DejaVuSans-30"/>
       <use x="63.623047" xlink:href="#DejaVuSans-2e"/>
       <use x="95.410156" xlink:href="#DejaVuSans-31"/>
      </g>
     </g>
    </g>
    <g id="ytick_3">
     <g id="line2d_9">
      <g>
       <use style="stroke:#000000;stroke-width:0.8;" x="57.6" xlink:href="#mc64c7747d6" y="219.228782"/>
      </g>
     </g>
     <g id="text_9">
      <!-- 0.2 -->
      <g transform="translate(34.696875 223.028)scale(0.1 -0.1)">
       <use xlink:href="#DejaVuSans-30"/>
       <use x="63.623047" xlink:href="#DejaVuSans-2e"/>
       <use x="95.410156" xlink:href="#DejaVuSans-32"/>
      </g>
     </g>
    </g>
    <g id="ytick_4">
     <g id="line2d_10">
      <g>
       <use style="stroke:#000000;stroke-width:0.8;" x="57.6" xlink:href="#mc64c7747d6" y="179.062332"/>
      </g>
     </g>
     <g id="text_10">
      <!-- 0.3 -->
      <defs>
       <path d="M 40.578125 39.3125 
Q 47.65625 37.796875 51.625 33 
Q 55.609375 28.21875 55.609375 21.1875 
Q 55.609375 10.40625 48.1875 4.484375 
Q 40.765625 -1.421875 27.09375 -1.421875 
Q 22.515625 -1.421875 17.65625 -0.515625 
Q 12.796875 0.390625 7.625 2.203125 
L 7.625 11.71875 
Q 11.71875 9.328125 16.59375 8.109375 
Q 21.484375 6.890625 26.8125 6.890625 
Q 36.078125 6.890625 40.9375 10.546875 
Q 45.796875 14.203125 45.796875 21.1875 
Q 45.796875 27.640625 41.28125 31.265625 
Q 36.765625 34.90625 28.71875 34.90625 
L 20.21875 34.90625 
L 20.21875 43.015625 
L 29.109375 43.015625 
Q 36.375 43.015625 40.234375 45.921875 
Q 44.09375 48.828125 44.09375 54.296875 
Q 44.09375 59.90625 40.109375 62.90625 
Q 36.140625 65.921875 28.71875 65.921875 
Q 24.65625 65.921875 20.015625 65.03125 
Q 15.375 64.15625 9.8125 62.3125 
L 9.8125 71.09375 
Q 15.4375 72.65625 20.34375 73.4375 
Q 25.25 74.21875 29.59375 74.21875 
Q 40.828125 74.21875 47.359375 69.109375 
Q 53.90625 64.015625 53.90625 55.328125 
Q 53.90625 49.265625 50.4375 45.09375 
Q 46.96875 40.921875 40.578125 39.3125 
" id="DejaVuSans-33"/>
      </defs>
      <g transform="translate(34.696875 182.861551)scale(0.1 -0.1)">
       <use xlink:href="#DejaVuSans-30"/>
       <use x="63.623047" xlink:href="#DejaVuSans-2e"/>
       <use x="95.410156" xlink:href="#DejaVuSans-33"/>
      </g>
     </g>
    </g>
    <g id="ytick_5">
     <g id="line2d_11">
      <g>
       <use style="stroke:#000000;stroke-width:0.8;" x="57.6" xlink:href="#mc64c7747d6" y="138.895882"/>
      </g>
     </g>
     <g id="text_11">
      <!-- 0.4 -->
      <g transform="translate(34.696875 142.695101)scale(0.1 -0.1)">
       <use xlink:href="#DejaVuSans-30"/>
       <use x="63.623047" xlink:href="#DejaVuSans-2e"/>
       <use x="95.410156" xlink:href="#DejaVuSans-34"/>
      </g>
     </g>
    </g>
    <g id="ytick_6">
     <g id="line2d_12">
      <g>
       <use style="stroke:#000000;stroke-width:0.8;" x="57.6" xlink:href="#mc64c7747d6" y="98.729432"/>
      </g>
     </g>
     <g id="text_12">
      <!-- 0.5 -->
      <defs>
       <path d="M 10.796875 72.90625 
L 49.515625 72.90625 
L 49.515625 64.59375 
L 19.828125 64.59375 
L 19.828125 46.734375 
Q 21.96875 47.46875 24.109375 47.828125 
Q 26.265625 48.1875 28.421875 48.1875 
Q 40.625 48.1875 47.75 41.5 
Q 54.890625 34.8125 54.890625 23.390625 
Q 54.890625 11.625 47.5625 5.09375 
Q 40.234375 -1.421875 26.90625 -1.421875 
Q 22.3125 -1.421875 17.546875 -0.640625 
Q 12.796875 0.140625 7.71875 1.703125 
L 7.71875 11.625 
Q 12.109375 9.234375 16.796875 8.0625 
Q 21.484375 6.890625 26.703125 6.890625 
Q 35.15625 6.890625 40.078125 11.328125 
Q 45.015625 15.765625 45.015625 23.390625 
Q 45.015625 31 40.078125 35.4375 
Q 35.15625 39.890625 26.703125 39.890625 
Q 22.75 39.890625 18.8125 39.015625 
Q 14.890625 38.140625 10.796875 36.28125 
z
" id="DejaVuSans-35"/>
      </defs>
      <g transform="translate(34.696875 102.528651)scale(0.1 -0.1)">
       <use xlink:href="#DejaVuSans-30"/>
       <use x="63.623047" xlink:href="#DejaVuSans-2e"/>
       <use x="95.410156" xlink:href="#DejaVuSans-35"/>
      </g>
     </g>
    </g>
    <g id="ytick_7">
     <g id="line2d_13">
      <g>
       <use style="stroke:#000000;stroke-width:0.8;" x="57.6" xlink:href="#mc64c7747d6" y="58.562982"/>
      </g>
     </g>
     <g id="text_13">
      <!-- 0.6 -->
      <g transform="translate(34.696875 62.362201)scale(0.1 -0.1)">
       <use xlink:href="#DejaVuSans-30"/>
       <use x="63.623047" xlink:href="#DejaVuSans-2e"/>
       <use x="95.410156" xlink:href="#DejaVuSans-36"/>
      </g>
     </g>
    </g>
   </g>
   <g id="line2d_14">
    <path clip-path="url(#p28262d7766)" d="M 73.832727 101.309323 
L 75.48072 96.964117 
L 77.128713 104.839954 
L 78.776705 105.65453 
L 80.424698 123.850333 
L 82.07269 139.873533 
L 83.720683 152.366103 
L 85.368676 149.650449 
L 87.016668 143.675689 
L 88.664661 150.465024 
L 90.312653 155.625208 
L 91.960646 166.488225 
L 93.608639 171.376482 
L 95.256631 188.486184 
L 96.904624 206.953513 
L 100.200609 229.494523 
L 101.848602 236.283858 
L 103.496594 253.936611 
L 105.144587 261.812288 
L 106.79258 264.256497 
L 108.440572 267.243836 
L 110.088565 265.071233 
L 111.736557 264.256497 
L 113.38455 264.256497 
L 115.032543 268.601743 
L 116.680535 276.205935 
L 118.328528 278.378579 
L 119.976521 279.736446 
L 121.624513 283.810127 
L 123.272506 283.810127 
L 124.920498 285.168034 
L 126.568491 281.909089 
L 128.216484 280.279616 
L 129.864476 282.723825 
L 131.512469 282.45226 
L 133.160461 284.081692 
L 134.808454 284.353298 
L 136.456447 285.98277 
L 138.104439 283.810127 
L 139.752432 280.551182 
L 141.400425 276.205935 
L 143.048417 270.231216 
L 144.69641 254.751187 
L 146.344402 236.012333 
L 147.992395 220.260658 
L 149.640388 205.595485 
L 152.936373 163.772571 
L 154.584365 146.119818 
L 156.232358 131.18312 
L 157.880351 119.505127 
L 159.528343 106.741032 
L 161.176336 100.494747 
L 162.824329 95.063038 
L 164.472321 90.174782 
L 167.768306 75.238084 
L 171.064292 65.189643 
L 172.712284 67.905297 
L 174.360277 63.831615 
L 176.008269 65.461168 
L 177.656262 75.238084 
L 179.304255 83.928497 
L 180.952247 94.248463 
L 182.60024 94.791513 
L 184.248233 105.926457 
L 185.896225 122.492707 
L 187.544218 125.208361 
L 189.19221 127.109439 
L 190.840203 134.713751 
L 192.488196 141.503086 
L 194.136188 156.982834 
L 197.432174 173.006034 
L 199.080166 182.78295 
L 200.728159 186.585106 
L 202.376151 196.362022 
L 204.024144 203.694407 
L 205.672137 212.656747 
L 207.320129 217.816529 
L 208.968122 227.32192 
L 210.616114 229.766048 
L 213.9121 228.136495 
L 215.560092 230.037573 
L 217.208085 229.766048 
L 218.856078 224.605864 
L 222.152063 240.086014 
L 223.800055 244.431221 
L 225.448048 246.875349 
L 227.096041 258.553343 
L 228.744033 266.4291 
L 230.392026 268.601743 
L 232.040018 269.95965 
L 233.688011 268.873309 
L 235.336004 271.045952 
L 236.983996 270.774387 
L 238.631989 272.675425 
L 240.279982 277.292237 
L 243.575967 284.896429 
L 245.223959 287.612243 
L 246.871952 290.871188 
L 248.519945 291.95749 
L 250.167937 291.142753 
L 251.81593 289.784846 
L 253.463922 291.95749 
L 255.111915 292.229055 
L 256.759908 288.97011 
L 258.4079 285.98277 
L 260.055893 283.266956 
L 261.703886 278.106973 
L 263.351878 270.774387 
L 264.999871 260.182815 
L 266.647863 253.665086 
L 268.295856 238.456461 
L 269.943849 227.32192 
L 271.591841 219.174557 
L 273.239834 208.583066 
L 274.887826 197.176597 
L 276.535819 187.943134 
L 278.183812 186.585106 
L 279.831804 173.549487 
L 281.479797 162.686068 
L 283.12779 160.24194 
L 284.775782 154.267181 
L 286.423775 145.848293 
L 288.071767 127.380964 
L 289.71976 135.528327 
L 291.367753 137.972455 
L 293.015745 132.540746 
L 294.663738 125.208361 
L 296.311731 133.084198 
L 297.959723 154.267181 
L 299.607716 137.70093 
L 301.255708 130.096618 
L 302.903701 136.342902 
L 304.551694 150.193499 
L 306.199686 137.70093 
L 307.847679 129.010517 
L 309.495671 148.020896 
L 311.143664 162.957594 
L 312.791657 162.143018 
L 314.439649 159.427364 
L 316.087642 158.612387 
L 317.735635 166.75975 
L 319.383627 162.414543 
L 321.03162 155.353683 
L 322.679612 162.143018 
L 324.327605 173.549487 
L 325.975598 189.029235 
L 327.62359 181.968374 
L 329.271583 189.029235 
L 330.919575 203.422882 
L 335.863553 224.334339 
L 337.511546 243.616645 
L 339.159539 256.92379 
L 340.807531 261.540682 
L 342.455524 264.799627 
L 344.103516 269.144914 
L 345.751509 279.193315 
L 347.399502 283.810127 
L 349.047494 285.711165 
L 350.695487 288.698544 
L 352.343479 291.142753 
L 353.991472 291.414319 
L 355.639465 290.328017 
L 357.287457 290.328017 
L 358.93545 288.97011 
L 360.583443 290.056452 
L 362.231435 291.95749 
L 363.879428 292.772226 
L 365.52742 294.673264 
L 367.175413 295.488 
L 368.823406 295.488 
L 370.471398 293.043791 
L 372.119391 288.97011 
L 373.767383 285.98277 
L 375.415376 281.909089 
L 377.063369 275.662764 
L 378.711361 264.528062 
L 382.007347 233.568204 
L 383.655339 205.052435 
L 385.303332 184.684028 
L 386.951324 172.191459 
L 388.599317 164.315621 
L 390.24731 153.18108 
L 391.895302 140.416584 
L 393.543295 148.563946 
L 395.191287 153.72413 
L 396.83928 146.662868 
L 398.487273 136.071377 
L 398.487273 136.071377 
" style="fill:none;stroke:#1f77b4;stroke-linecap:square;stroke-width:1.5;"/>
   </g>
   <g id="line2d_15">
    <path clip-path="url(#p28262d7766)" d="M 73.832727 97.674676 
L 75.48072 94.18721 
L 77.128713 105.571155 
L 78.776705 102.77251 
L 82.07269 139.519719 
L 83.720683 150.413278 
L 85.368676 155.625399 
L 87.016668 139.795126 
L 88.664661 147.081978 
L 90.312653 152.886357 
L 91.960646 161.975446 
L 93.608639 173.482163 
L 95.256631 179.382252 
L 96.904624 204.709864 
L 98.552617 215.271564 
L 100.200609 227.456134 
L 101.848602 233.674429 
L 103.496594 245.015157 
L 105.144587 258.100376 
L 106.79258 262.084424 
L 108.440572 263.559813 
L 110.088565 264.757986 
L 111.736557 262.523616 
L 113.38455 263.200346 
L 115.032543 264.188199 
L 118.328528 273.034251 
L 119.976521 273.65942 
L 121.624513 276.317522 
L 124.920498 277.908289 
L 126.568491 277.917708 
L 128.216484 275.303867 
L 129.864476 275.943063 
L 131.512469 276.286658 
L 133.160461 277.234931 
L 134.808454 277.512206 
L 138.104439 278.700525 
L 139.752432 276.346738 
L 141.400425 274.920067 
L 143.048417 270.314454 
L 144.69641 263.188755 
L 146.344402 243.621173 
L 147.992395 228.008328 
L 149.640388 208.627883 
L 151.28838 191.501935 
L 152.936373 164.633317 
L 154.584365 144.601751 
L 156.232358 134.691312 
L 157.880351 114.40596 
L 159.528343 109.994117 
L 161.176336 95.133166 
L 162.824329 97.341001 
L 164.472321 90.105212 
L 166.120314 85.600126 
L 167.768306 74.574082 
L 169.416299 71.28174 
L 171.064292 66.162408 
L 172.712284 65.473481 
L 174.360277 67.428429 
L 176.008269 59.373311 
L 177.656262 79.401036 
L 179.304255 81.782778 
L 180.952247 95.478315 
L 182.60024 97.693791 
L 184.248233 101.704659 
L 185.896225 122.970756 
L 187.544218 126.242731 
L 189.19221 128.002889 
L 190.840203 130.751575 
L 192.488196 138.611472 
L 194.136188 154.583607 
L 195.784181 162.03058 
L 199.080166 181.300345 
L 200.728159 185.544808 
L 202.376151 194.332383 
L 204.024144 199.899598 
L 205.672137 212.520785 
L 207.320129 215.617079 
L 208.968122 224.385331 
L 210.616114 230.411618 
L 212.264107 227.963003 
L 213.9121 230.734983 
L 215.560092 229.207893 
L 217.208085 231.052126 
L 218.856078 223.822152 
L 220.50407 229.434092 
L 222.152063 239.190279 
L 223.800055 242.552093 
L 225.448048 244.295326 
L 227.096041 253.371845 
L 228.744033 261.770344 
L 230.392026 265.212013 
L 232.040018 266.723502 
L 233.688011 266.634678 
L 235.336004 268.008493 
L 236.983996 268.028735 
L 238.631989 268.614221 
L 240.279982 271.067477 
L 241.927974 273.798774 
L 243.575967 276.853655 
L 245.223959 278.732691 
L 248.519945 281.893144 
L 250.167937 281.866124 
L 251.81593 281.5627 
L 253.463922 281.479197 
L 255.111915 282.173428 
L 256.759908 281.826593 
L 258.4079 279.689496 
L 260.055893 278.742215 
L 261.703886 276.191208 
L 263.351878 271.09217 
L 264.999871 265.139646 
L 266.647863 256.662761 
L 268.295856 247.0681 
L 269.943849 229.30674 
L 271.591841 223.238427 
L 273.239834 212.297248 
L 276.535819 187.661018 
L 278.183812 184.736281 
L 279.831804 180.443086 
L 281.479797 156.321246 
L 283.12779 159.931143 
L 284.775782 153.686741 
L 286.423775 148.190186 
L 288.071767 127.152781 
L 289.71976 125.03633 
L 291.367753 144.413587 
L 293.015745 132.274561 
L 294.663738 123.056191 
L 296.311731 125.233756 
L 297.959723 156.311783 
L 299.607716 148.949571 
L 301.255708 120.721588 
L 302.903701 131.738942 
L 304.551694 149.891132 
L 306.199686 145.116761 
L 307.847679 122.428347 
L 309.495671 136.950586 
L 311.143664 168.401532 
L 312.791657 162.608562 
L 314.439649 161.268479 
L 316.087642 151.009094 
L 317.735635 166.279751 
L 319.383627 164.816367 
L 321.03162 151.81537 
L 322.679612 158.543688 
L 324.327605 166.852213 
L 325.975598 193.239207 
L 327.62359 182.855322 
L 329.271583 183.143238 
L 330.919575 198.896041 
L 332.567568 210.078033 
L 334.215561 215.287967 
L 335.863553 221.688211 
L 337.511546 234.612307 
L 339.159539 251.946684 
L 340.807531 259.364092 
L 342.455524 260.630688 
L 345.751509 269.029013 
L 347.399502 276.204515 
L 349.047494 277.395882 
L 352.343479 281.111538 
L 355.639465 281.767089 
L 358.93545 280.929512 
L 360.583443 280.779331 
L 362.231435 281.4743 
L 363.879428 282.308137 
L 367.175413 283.566885 
L 368.823406 283.920359 
L 370.471398 283.86015 
L 375.415376 277.856376 
L 377.063369 275.068812 
L 378.711361 269.25569 
L 380.359354 255.873266 
L 382.007347 243.64119 
L 385.303332 186.476873 
L 386.951324 169.554099 
L 388.599317 164.145984 
L 390.24731 155.078497 
L 391.895302 137.846121 
L 393.543295 141.053926 
L 395.191287 155.657294 
L 396.83928 149.338305 
L 398.487273 136.078075 
L 398.487273 136.078075 
" style="fill:none;stroke:#ff7f0e;stroke-linecap:square;stroke-width:1.5;"/>
   </g>
   <g id="line2d_16">
    <path clip-path="url(#p28262d7766)" d="M 73.832727 100.93459 
L 75.48072 95.815616 
L 77.128713 109.01474 
L 78.776705 106.174812 
L 80.424698 124.81367 
L 82.07269 142.052928 
L 83.720683 152.496416 
L 85.368676 157.77288 
L 87.016668 146.667267 
L 88.664661 149.820649 
L 90.312653 154.539111 
L 91.960646 164.145864 
L 93.608639 175.680657 
L 95.256631 182.405986 
L 96.904624 209.00073 
L 98.552617 218.758929 
L 100.200609 230.719944 
L 101.848602 236.824086 
L 103.496594 248.213757 
L 105.144587 262.112115 
L 106.79258 264.986926 
L 108.440572 266.328525 
L 110.088565 267.525282 
L 111.736557 265.110826 
L 113.38455 265.913222 
L 115.032543 267.065732 
L 118.328528 276.583178 
L 119.976521 277.282775 
L 121.624513 280.394572 
L 123.272506 281.132839 
L 124.920498 282.084679 
L 126.568491 281.982859 
L 128.216484 279.131782 
L 129.864476 279.972018 
L 131.512469 280.15131 
L 133.160461 281.363684 
L 134.808454 281.567753 
L 138.104439 282.876419 
L 139.752432 280.255053 
L 141.400425 278.746027 
L 143.048417 273.489672 
L 144.69641 265.97568 
L 149.640388 220.924072 
L 151.28838 204.878811 
L 152.936373 179.379184 
L 154.584365 155.647917 
L 156.232358 139.653492 
L 157.880351 120.000993 
L 159.528343 111.378496 
L 161.176336 96.759274 
L 162.824329 98.476489 
L 164.472321 91.232834 
L 166.120314 86.754789 
L 167.768306 75.759241 
L 169.416299 72.562218 
L 171.064292 67.316852 
L 172.712284 66.980886 
L 174.360277 69.202991 
L 176.008269 60.567766 
L 177.656262 82.554992 
L 179.304255 84.009059 
L 180.952247 97.375695 
L 182.60024 100.33243 
L 184.248233 103.716138 
L 185.896225 125.893176 
L 187.544218 129.229173 
L 189.19221 129.220345 
L 190.840203 132.283833 
L 192.488196 139.989027 
L 194.136188 158.107279 
L 195.784181 164.29156 
L 197.432174 173.667859 
L 199.080166 183.962432 
L 200.728159 188.344477 
L 202.376151 197.280008 
L 204.024144 202.740828 
L 205.672137 215.333261 
L 207.320129 218.569349 
L 208.968122 226.985407 
L 210.616114 233.50899 
L 212.264107 231.962138 
L 213.9121 233.299516 
L 215.560092 232.234293 
L 217.208085 233.798836 
L 218.856078 230.478495 
L 220.50407 231.65596 
L 222.152063 242.272739 
L 223.800055 245.397821 
L 225.448048 247.074355 
L 228.744033 265.077149 
L 230.392026 268.147855 
L 232.040018 269.66468 
L 233.688011 269.491995 
L 235.336004 271.235924 
L 236.983996 271.012556 
L 238.631989 271.76384 
L 241.927974 277.479786 
L 243.575967 280.915973 
L 245.223959 282.940725 
L 248.519945 286.387475 
L 250.167937 286.322784 
L 251.81593 286.026982 
L 253.463922 286.006363 
L 255.111915 286.677762 
L 256.759908 286.277149 
L 258.4079 283.978219 
L 260.055893 283.003992 
L 261.703886 280.113725 
L 263.351878 274.305635 
L 264.999871 267.907305 
L 266.647863 259.388372 
L 268.295856 251.506471 
L 269.943849 238.333754 
L 273.239834 221.311321 
L 274.887826 210.458509 
L 276.535819 198.358442 
L 278.183812 191.383555 
L 279.831804 188.276747 
L 281.479797 168.91487 
L 283.12779 163.272006 
L 284.775782 159.635963 
L 286.423775 152.961821 
L 288.071767 136.678274 
L 289.71976 128.624855 
L 291.367753 146.486986 
L 294.663738 127.063127 
L 296.311731 127.316557 
L 297.959723 162.446812 
L 299.607716 156.04086 
L 301.255708 127.550913 
L 302.903701 134.183505 
L 304.551694 153.478923 
L 306.199686 151.010743 
L 307.847679 128.887161 
L 309.495671 141.278017 
L 311.143664 172.702532 
L 312.791657 167.010771 
L 314.439649 164.662457 
L 316.087642 157.911738 
L 317.735635 169.404335 
L 319.383627 169.5768 
L 321.03162 159.914967 
L 322.679612 161.438983 
L 324.327605 168.780108 
L 325.975598 198.788756 
L 327.62359 191.000533 
L 329.271583 187.130949 
L 330.919575 201.946127 
L 332.567568 213.266247 
L 334.215561 217.860002 
L 335.863553 224.569141 
L 337.511546 237.812663 
L 339.159539 256.346441 
L 340.807531 262.668978 
L 342.455524 263.295214 
L 345.751509 272.377334 
L 347.399502 280.193226 
L 349.047494 281.41984 
L 352.343479 285.578476 
L 355.639465 286.24283 
L 357.287457 285.852056 
L 358.93545 285.311417 
L 360.583443 285.221974 
L 362.231435 285.96095 
L 363.879428 286.842602 
L 367.175413 288.171088 
L 368.823406 288.552355 
L 370.471398 288.49154 
L 372.119391 286.267817 
L 373.767383 284.255168 
L 375.415376 281.922313 
L 377.063369 278.858227 
L 378.711361 272.343486 
L 380.359354 260.219148 
L 382.007347 248.931327 
L 383.655339 230.505074 
L 385.303332 203.11744 
L 386.951324 181.873498 
L 388.599317 171.406916 
L 390.24731 162.421888 
L 391.895302 146.490989 
L 393.543295 144.25669 
L 395.191287 157.544523 
L 396.83928 154.424619 
L 398.487273 142.201958 
L 398.487273 142.201958 
" style="fill:none;stroke:#2ca02c;stroke-linecap:square;stroke-width:1.5;"/>
   </g>
   <g id="line2d_17">
    <path clip-path="url(#p28262d7766)" d="M 73.832727 95.473535 
L 75.48072 90.387567 
L 77.128713 96.856749 
L 78.776705 100.093829 
L 80.424698 111.273032 
L 82.07269 134.601791 
L 83.720683 147.617606 
L 85.368676 154.558533 
L 87.016668 137.630582 
L 88.664661 144.492901 
L 91.960646 159.456713 
L 93.608639 170.635609 
L 95.256631 176.202186 
L 96.904624 196.990382 
L 98.552617 211.508483 
L 100.200609 223.677311 
L 103.496594 241.347454 
L 105.144587 252.441949 
L 106.79258 257.684218 
L 108.440572 259.478228 
L 110.088565 260.599176 
L 111.736557 259.625315 
L 113.38455 259.502201 
L 115.032543 259.918481 
L 116.680535 262.540719 
L 118.328528 265.934266 
L 119.976521 267.166726 
L 121.624513 268.706303 
L 123.272506 269.688064 
L 124.920498 270.332227 
L 126.568491 270.471723 
L 128.216484 269.019169 
L 129.864476 268.812855 
L 131.512469 269.166455 
L 133.160461 269.770821 
L 136.456447 270.484035 
L 138.104439 270.968363 
L 141.400425 268.528858 
L 143.048417 265.814285 
L 144.69641 261.596164 
L 146.344402 241.072089 
L 147.992395 225.589533 
L 149.640388 205.299623 
L 151.28838 187.908212 
L 152.936373 160.614412 
L 154.584365 141.187038 
L 156.232358 131.924299 
L 157.880351 111.784399 
L 159.528343 108.363508 
L 161.176336 93.040662 
L 162.824329 93.40044 
L 164.472321 87.038979 
L 166.120314 81.739896 
L 167.768306 71.054909 
L 169.416299 64.826519 
L 171.064292 60.167662 
L 172.712284 57.470486 
L 174.360277 62.058489 
L 176.008269 53.568 
L 177.656262 67.551758 
L 179.304255 76.890112 
L 180.952247 88.134506 
L 182.60024 95.010085 
L 184.248233 94.93316 
L 185.896225 115.347018 
L 187.544218 123.739749 
L 190.840203 128.974564 
L 192.488196 137.495661 
L 195.784181 160.79332 
L 197.432174 168.723561 
L 199.080166 177.894079 
L 202.376151 191.132858 
L 204.024144 198.537161 
L 205.672137 208.929541 
L 207.320129 214.587171 
L 208.968122 222.291824 
L 210.616114 229.403059 
L 212.264107 226.826263 
L 213.9121 230.350586 
L 215.560092 228.851918 
L 217.208085 230.521063 
L 218.856078 221.594091 
L 220.50407 228.775201 
L 222.152063 236.635813 
L 223.800055 241.728645 
L 225.448048 243.857069 
L 227.096041 249.561129 
L 228.744033 256.184356 
L 230.392026 260.267013 
L 232.040018 261.904781 
L 233.688011 262.283303 
L 235.336004 262.80781 
L 238.631989 263.454276 
L 240.279982 264.765647 
L 241.927974 266.781956 
L 243.575967 269.038177 
L 245.223959 270.666862 
L 248.519945 273.277998 
L 250.167937 273.581331 
L 253.463922 273.189432 
L 255.111915 273.649939 
L 256.759908 273.629643 
L 258.4079 272.292665 
L 260.055893 271.265859 
L 261.703886 269.639241 
L 263.351878 266.585473 
L 264.999871 262.612548 
L 266.647863 256.236303 
L 268.295856 245.753641 
L 269.943849 226.550007 
L 271.591841 221.81172 
L 274.887826 197.653784 
L 276.535819 185.410531 
L 278.183812 183.12945 
L 279.831804 178.747263 
L 281.479797 152.954551 
L 283.12779 158.068104 
L 286.423775 146.433716 
L 288.071767 123.613624 
L 289.71976 121.453043 
L 291.367753 140.932803 
L 293.015745 130.439054 
L 294.663738 121.313447 
L 296.311731 122.916116 
L 297.959723 146.040624 
L 299.607716 144.453446 
L 301.255708 117.555125 
L 302.903701 128.755015 
L 304.551694 144.426332 
L 306.199686 141.692248 
L 307.847679 119.869039 
L 309.495671 131.350284 
L 311.143664 160.225961 
L 312.791657 160.783898 
L 314.439649 159.904966 
L 316.087642 149.120149 
L 317.735635 162.322879 
L 319.383627 163.409043 
L 321.03162 149.615587 
L 322.679612 155.942598 
L 324.327605 164.960058 
L 325.975598 184.35728 
L 327.62359 179.678168 
L 329.271583 181.344252 
L 332.567568 207.114484 
L 335.863553 220.542045 
L 337.511546 230.80138 
L 339.159539 245.847508 
L 340.807531 254.545989 
L 345.751509 262.881788 
L 347.399502 267.82623 
L 349.047494 269.824686 
L 352.343479 272.560743 
L 353.991472 273.180297 
L 355.639465 273.452525 
L 360.583443 272.693706 
L 362.231435 273.056154 
L 363.879428 273.737451 
L 368.823406 275.168457 
L 370.471398 275.18476 
L 372.119391 273.935678 
L 375.415376 270.844774 
L 377.063369 268.908628 
L 378.711361 265.387648 
L 380.359354 255.022112 
L 382.007347 242.466692 
L 383.655339 209.941086 
L 385.303332 182.155655 
L 386.951324 166.285294 
L 388.599317 161.973242 
L 390.24731 153.03882 
L 391.895302 135.216777 
L 393.543295 138.218776 
L 395.191287 153.08211 
L 396.83928 147.575432 
L 398.487273 134.071972 
L 398.487273 134.071972 
" style="fill:none;stroke:#d62728;stroke-linecap:square;stroke-width:1.5;"/>
   </g>
   <g id="patch_3">
    <path d="M 57.6 307.584 
L 57.6 41.472 
" style="fill:none;stroke:#000000;stroke-linecap:square;stroke-linejoin:miter;stroke-width:0.8;"/>
   </g>
   <g id="patch_4">
    <path d="M 414.72 307.584 
L 414.72 41.472 
" style="fill:none;stroke:#000000;stroke-linecap:square;stroke-linejoin:miter;stroke-width:0.8;"/>
   </g>
   <g id="patch_5">
    <path d="M 57.6 307.584 
L 414.72 307.584 
" style="fill:none;stroke:#000000;stroke-linecap:square;stroke-linejoin:miter;stroke-width:0.8;"/>
   </g>
   <g id="patch_6">
    <path d="M 57.6 41.472 
L 414.72 41.472 
" style="fill:none;stroke:#000000;stroke-linecap:square;stroke-linejoin:miter;stroke-width:0.8;"/>
   </g>
   <g id="text_14">
    <!-- Plot of Test Data vs MCMC Uncertainty  -->
    <defs>
     <path d="M 19.671875 64.796875 
L 19.671875 37.40625 
L 32.078125 37.40625 
Q 38.96875 37.40625 42.71875 40.96875 
Q 46.484375 44.53125 46.484375 51.125 
Q 46.484375 57.671875 42.71875 61.234375 
Q 38.96875 64.796875 32.078125 64.796875 
z
M 9.8125 72.90625 
L 32.078125 72.90625 
Q 44.34375 72.90625 50.609375 67.359375 
Q 56.890625 61.8125 56.890625 51.125 
Q 56.890625 40.328125 50.609375 34.8125 
Q 44.34375 29.296875 32.078125 29.296875 
L 19.671875 29.296875 
L 19.671875 0 
L 9.8125 0 
z
" id="DejaVuSans-50"/>
     <path d="M 9.421875 75.984375 
L 18.40625 75.984375 
L 18.40625 0 
L 9.421875 0 
z
" id="DejaVuSans-6c"/>
     <path d="M 30.609375 48.390625 
Q 23.390625 48.390625 19.1875 42.75 
Q 14.984375 37.109375 14.984375 27.296875 
Q 14.984375 17.484375 19.15625 11.84375 
Q 23.34375 6.203125 30.609375 6.203125 
Q 37.796875 6.203125 41.984375 11.859375 
Q 46.1875 17.53125 46.1875 27.296875 
Q 46.1875 37.015625 41.984375 42.703125 
Q 37.796875 48.390625 30.609375 48.390625 
M 30.609375 56 
Q 42.328125 56 49.015625 48.375 
Q 55.71875 40.765625 55.71875 27.296875 
Q 55.71875 13.875 49.015625 6.21875 
Q 42.328125 -1.421875 30.609375 -1.421875 
Q 18.84375 -1.421875 12.171875 6.21875 
Q 5.515625 13.875 5.515625 27.296875 
Q 5.515625 40.765625 12.171875 48.375 
Q 18.84375 56 30.609375 56 
" id="DejaVuSans-6f"/>
     <path d="M 18.3125 70.21875 
L 18.3125 54.6875 
L 36.8125 54.6875 
L 36.8125 47.703125 
L 18.3125 47.703125 
L 18.3125 18.015625 
Q 18.3125 11.328125 20.140625 9.421875 
Q 21.96875 7.515625 27.59375 7.515625 
L 36.8125 7.515625 
L 36.8125 0 
L 27.59375 0 
Q 17.1875 0 13.234375 3.875 
Q 9.28125 7.765625 9.28125 18.015625 
L 9.28125 47.703125 
L 2.6875 47.703125 
L 2.6875 54.6875 
L 9.28125 54.6875 
L 9.28125 70.21875 
z
" id="DejaVuSans-74"/>
     <path id="DejaVuSans-20"/>
     <path d="M 37.109375 75.984375 
L 37.109375 68.5 
L 28.515625 68.5 
Q 23.6875 68.5 21.796875 66.546875 
Q 19.921875 64.59375 19.921875 59.515625 
L 19.921875 54.6875 
L 34.71875 54.6875 
L 34.71875 47.703125 
L 19.921875 47.703125 
L 19.921875 0 
L 10.890625 0 
L 10.890625 47.703125 
L 2.296875 47.703125 
L 2.296875 54.6875 
L 10.890625 54.6875 
L 10.890625 58.5 
Q 10.890625 67.625 15.140625 71.796875 
Q 19.390625 75.984375 28.609375 75.984375 
z
" id="DejaVuSans-66"/>
     <path d="M -0.296875 72.90625 
L 61.375 72.90625 
L 61.375 64.59375 
L 35.5 64.59375 
L 35.5 0 
L 25.59375 0 
L 25.59375 64.59375 
L -0.296875 64.59375 
z
" id="DejaVuSans-54"/>
     <path d="M 56.203125 29.59375 
L 56.203125 25.203125 
L 14.890625 25.203125 
Q 15.484375 15.921875 20.484375 11.0625 
Q 25.484375 6.203125 34.421875 6.203125 
Q 39.59375 6.203125 44.453125 7.46875 
Q 49.3125 8.734375 54.109375 11.28125 
L 54.109375 2.78125 
Q 49.265625 0.734375 44.1875 -0.34375 
Q 39.109375 -1.421875 33.890625 -1.421875 
Q 20.796875 -1.421875 13.15625 6.1875 
Q 5.515625 13.8125 5.515625 26.8125 
Q 5.515625 40.234375 12.765625 48.109375 
Q 20.015625 56 32.328125 56 
Q 43.359375 56 49.78125 48.890625 
Q 56.203125 41.796875 56.203125 29.59375 
M 47.21875 32.234375 
Q 47.125 39.59375 43.09375 43.984375 
Q 39.0625 48.390625 32.421875 48.390625 
Q 24.90625 48.390625 20.390625 44.140625 
Q 15.875 39.890625 15.1875 32.171875 
z
" id="DejaVuSans-65"/>
     <path d="M 44.28125 53.078125 
L 44.28125 44.578125 
Q 40.484375 46.53125 36.375 47.5 
Q 32.28125 48.484375 27.875 48.484375 
Q 21.1875 48.484375 17.84375 46.4375 
Q 14.5 44.390625 14.5 40.28125 
Q 14.5 37.15625 16.890625 35.375 
Q 19.28125 33.59375 26.515625 31.984375 
L 29.59375 31.296875 
Q 39.15625 29.25 43.1875 25.515625 
Q 47.21875 21.78125 47.21875 15.09375 
Q 47.21875 7.46875 41.1875 3.015625 
Q 35.15625 -1.421875 24.609375 -1.421875 
Q 20.21875 -1.421875 15.453125 -0.5625 
Q 10.6875 0.296875 5.421875 2 
L 5.421875 11.28125 
Q 10.40625 8.6875 15.234375 7.390625 
Q 20.0625 6.109375 24.8125 6.109375 
Q 31.15625 6.109375 34.5625 8.28125 
Q 37.984375 10.453125 37.984375 14.40625 
Q 37.984375 18.0625 35.515625 20.015625 
Q 33.0625 21.96875 24.703125 23.78125 
L 21.578125 24.515625 
Q 13.234375 26.265625 9.515625 29.90625 
Q 5.8125 33.546875 5.8125 39.890625 
Q 5.8125 47.609375 11.28125 51.796875 
Q 16.75 56 26.8125 56 
Q 31.78125 56 36.171875 55.265625 
Q 40.578125 54.546875 44.28125 53.078125 
" id="DejaVuSans-73"/>
     <path d="M 19.671875 64.796875 
L 19.671875 8.109375 
L 31.59375 8.109375 
Q 46.6875 8.109375 53.6875 14.9375 
Q 60.6875 21.78125 60.6875 36.53125 
Q 60.6875 51.171875 53.6875 57.984375 
Q 46.6875 64.796875 31.59375 64.796875 
z
M 9.8125 72.90625 
L 30.078125 72.90625 
Q 51.265625 72.90625 61.171875 64.09375 
Q 71.09375 55.28125 71.09375 36.53125 
Q 71.09375 17.671875 61.125 8.828125 
Q 51.171875 0 30.078125 0 
L 9.8125 0 
z
" id="DejaVuSans-44"/>
     <path d="M 34.28125 27.484375 
Q 23.390625 27.484375 19.1875 25 
Q 14.984375 22.515625 14.984375 16.5 
Q 14.984375 11.71875 18.140625 8.90625 
Q 21.296875 6.109375 26.703125 6.109375 
Q 34.1875 6.109375 38.703125 11.40625 
Q 43.21875 16.703125 43.21875 25.484375 
L 43.21875 27.484375 
z
M 52.203125 31.203125 
L 52.203125 0 
L 43.21875 0 
L 43.21875 8.296875 
Q 40.140625 3.328125 35.546875 0.953125 
Q 30.953125 -1.421875 24.3125 -1.421875 
Q 15.921875 -1.421875 10.953125 3.296875 
Q 6 8.015625 6 15.921875 
Q 6 25.140625 12.171875 29.828125 
Q 18.359375 34.515625 30.609375 34.515625 
L 43.21875 34.515625 
L 43.21875 35.40625 
Q 43.21875 41.609375 39.140625 45 
Q 35.0625 48.390625 27.6875 48.390625 
Q 23 48.390625 18.546875 47.265625 
Q 14.109375 46.140625 10.015625 43.890625 
L 10.015625 52.203125 
Q 14.9375 54.109375 19.578125 55.046875 
Q 24.21875 56 28.609375 56 
Q 40.484375 56 46.34375 49.84375 
Q 52.203125 43.703125 52.203125 31.203125 
" id="DejaVuSans-61"/>
     <path d="M 2.984375 54.6875 
L 12.5 54.6875 
L 29.59375 8.796875 
L 46.6875 54.6875 
L 56.203125 54.6875 
L 35.6875 0 
L 23.484375 0 
z
" id="DejaVuSans-76"/>
     <path d="M 9.8125 72.90625 
L 24.515625 72.90625 
L 43.109375 23.296875 
L 61.8125 72.90625 
L 76.515625 72.90625 
L 76.515625 0 
L 66.890625 0 
L 66.890625 64.015625 
L 48.09375 14.015625 
L 38.1875 14.015625 
L 19.390625 64.015625 
L 19.390625 0 
L 9.8125 0 
z
" id="DejaVuSans-4d"/>
     <path d="M 64.40625 67.28125 
L 64.40625 56.890625 
Q 59.421875 61.53125 53.78125 63.8125 
Q 48.140625 66.109375 41.796875 66.109375 
Q 29.296875 66.109375 22.65625 58.46875 
Q 16.015625 50.828125 16.015625 36.375 
Q 16.015625 21.96875 22.65625 14.328125 
Q 29.296875 6.6875 41.796875 6.6875 
Q 48.140625 6.6875 53.78125 8.984375 
Q 59.421875 11.28125 64.40625 15.921875 
L 64.40625 5.609375 
Q 59.234375 2.09375 53.4375 0.328125 
Q 47.65625 -1.421875 41.21875 -1.421875 
Q 24.65625 -1.421875 15.125 8.703125 
Q 5.609375 18.84375 5.609375 36.375 
Q 5.609375 53.953125 15.125 64.078125 
Q 24.65625 74.21875 41.21875 74.21875 
Q 47.75 74.21875 53.53125 72.484375 
Q 59.328125 70.75 64.40625 67.28125 
" id="DejaVuSans-43"/>
     <path d="M 8.6875 72.90625 
L 18.609375 72.90625 
L 18.609375 28.609375 
Q 18.609375 16.890625 22.84375 11.734375 
Q 27.09375 6.59375 36.625 6.59375 
Q 46.09375 6.59375 50.34375 11.734375 
Q 54.59375 16.890625 54.59375 28.609375 
L 54.59375 72.90625 
L 64.5 72.90625 
L 64.5 27.390625 
Q 64.5 13.140625 57.4375 5.859375 
Q 50.390625 -1.421875 36.625 -1.421875 
Q 22.796875 -1.421875 15.734375 5.859375 
Q 8.6875 13.140625 8.6875 27.390625 
z
" id="DejaVuSans-55"/>
     <path d="M 54.890625 33.015625 
L 54.890625 0 
L 45.90625 0 
L 45.90625 32.71875 
Q 45.90625 40.484375 42.875 44.328125 
Q 39.84375 48.1875 33.796875 48.1875 
Q 26.515625 48.1875 22.3125 43.546875 
Q 18.109375 38.921875 18.109375 30.90625 
L 18.109375 0 
L 9.078125 0 
L 9.078125 54.6875 
L 18.109375 54.6875 
L 18.109375 46.1875 
Q 21.34375 51.125 25.703125 53.5625 
Q 30.078125 56 35.796875 56 
Q 45.21875 56 50.046875 50.171875 
Q 54.890625 44.34375 54.890625 33.015625 
" id="DejaVuSans-6e"/>
     <path d="M 48.78125 52.59375 
L 48.78125 44.1875 
Q 44.96875 46.296875 41.140625 47.34375 
Q 37.3125 48.390625 33.40625 48.390625 
Q 24.65625 48.390625 19.8125 42.84375 
Q 14.984375 37.3125 14.984375 27.296875 
Q 14.984375 17.28125 19.8125 11.734375 
Q 24.65625 6.203125 33.40625 6.203125 
Q 37.3125 6.203125 41.140625 7.25 
Q 44.96875 8.296875 48.78125 10.40625 
L 48.78125 2.09375 
Q 45.015625 0.34375 40.984375 -0.53125 
Q 36.96875 -1.421875 32.421875 -1.421875 
Q 20.0625 -1.421875 12.78125 6.34375 
Q 5.515625 14.109375 5.515625 27.296875 
Q 5.515625 40.671875 12.859375 48.328125 
Q 20.21875 56 33.015625 56 
Q 37.15625 56 41.109375 55.140625 
Q 45.0625 54.296875 48.78125 52.59375 
" id="DejaVuSans-63"/>
     <path d="M 41.109375 46.296875 
Q 39.59375 47.171875 37.8125 47.578125 
Q 36.03125 48 33.890625 48 
Q 26.265625 48 22.1875 43.046875 
Q 18.109375 38.09375 18.109375 28.8125 
L 18.109375 0 
L 9.078125 0 
L 9.078125 54.6875 
L 18.109375 54.6875 
L 18.109375 46.1875 
Q 20.953125 51.171875 25.484375 53.578125 
Q 30.03125 56 36.53125 56 
Q 37.453125 56 38.578125 55.875 
Q 39.703125 55.765625 41.0625 55.515625 
z
" id="DejaVuSans-72"/>
     <path d="M 9.421875 54.6875 
L 18.40625 54.6875 
L 18.40625 0 
L 9.421875 0 
z
M 9.421875 75.984375 
L 18.40625 75.984375 
L 18.40625 64.59375 
L 9.421875 64.59375 
z
" id="DejaVuSans-69"/>
     <path d="M 32.171875 -5.078125 
Q 28.375 -14.84375 24.75 -17.8125 
Q 21.140625 -20.796875 15.09375 -20.796875 
L 7.90625 -20.796875 
L 7.90625 -13.28125 
L 13.1875 -13.28125 
Q 16.890625 -13.28125 18.9375 -11.515625 
Q 21 -9.765625 23.484375 -3.21875 
L 25.09375 0.875 
L 2.984375 54.6875 
L 12.5 54.6875 
L 29.59375 11.921875 
L 46.6875 54.6875 
L 56.203125 54.6875 
z
" id="DejaVuSans-79"/>
    </defs>
    <g transform="translate(118.112813 35.472)scale(0.12 -0.12)">
     <use xlink:href="#DejaVuSans-50"/>
     <use x="60.302734" xlink:href="#DejaVuSans-6c"/>
     <use x="88.085938" xlink:href="#DejaVuSans-6f"/>
     <use x="149.267578" xlink:href="#DejaVuSans-74"/>
     <use x="188.476562" xlink:href="#DejaVuSans-20"/>
     <use x="220.263672" xlink:href="#DejaVuSans-6f"/>
     <use x="281.445312" xlink:href="#DejaVuSans-66"/>
     <use x="316.650391" xlink:href="#DejaVuSans-20"/>
     <use x="348.4375" xlink:href="#DejaVuSans-54"/>
     <use x="409.255859" xlink:href="#DejaVuSans-65"/>
     <use x="470.779297" xlink:href="#DejaVuSans-73"/>
     <use x="522.878906" xlink:href="#DejaVuSans-74"/>
     <use x="562.087891" xlink:href="#DejaVuSans-20"/>
     <use x="593.875" xlink:href="#DejaVuSans-44"/>
     <use x="670.876953" xlink:href="#DejaVuSans-61"/>
     <use x="732.15625" xlink:href="#DejaVuSans-74"/>
     <use x="771.365234" xlink:href="#DejaVuSans-61"/>
     <use x="832.644531" xlink:href="#DejaVuSans-20"/>
     <use x="864.431641" xlink:href="#DejaVuSans-76"/>
     <use x="923.611328" xlink:href="#DejaVuSans-73"/>
     <use x="975.710938" xlink:href="#DejaVuSans-20"/>
     <use x="1007.498047" xlink:href="#DejaVuSans-4d"/>
     <use x="1093.777344" xlink:href="#DejaVuSans-43"/>
     <use x="1163.601562" xlink:href="#DejaVuSans-4d"/>
     <use x="1249.880859" xlink:href="#DejaVuSans-43"/>
     <use x="1319.705078" xlink:href="#DejaVuSans-20"/>
     <use x="1351.492188" xlink:href="#DejaVuSans-55"/>
     <use x="1424.685547" xlink:href="#DejaVuSans-6e"/>
     <use x="1488.064453" xlink:href="#DejaVuSans-63"/>
     <use x="1543.044922" xlink:href="#DejaVuSans-65"/>
     <use x="1604.568359" xlink:href="#DejaVuSans-72"/>
     <use x="1645.681641" xlink:href="#DejaVuSans-74"/>
     <use x="1684.890625" xlink:href="#DejaVuSans-61"/>
     <use x="1746.169922" xlink:href="#DejaVuSans-69"/>
     <use x="1773.953125" xlink:href="#DejaVuSans-6e"/>
     <use x="1837.332031" xlink:href="#DejaVuSans-74"/>
     <use x="1876.541016" xlink:href="#DejaVuSans-79"/>
     <use x="1935.720703" xlink:href="#DejaVuSans-20"/>
    </g>
   </g>
   <g id="legend_1">
    <g id="patch_7">
     <path d="M 277.843437 108.1845 
L 407.72 108.1845 
Q 409.72 108.1845 409.72 106.1845 
L 409.72 48.472 
Q 409.72 46.472 407.72 46.472 
L 277.843437 46.472 
Q 275.843437 46.472 275.843437 48.472 
L 275.843437 106.1845 
Q 275.843437 108.1845 277.843437 108.1845 
z
" style="fill:#ffffff;opacity:0.8;stroke:#cccccc;stroke-linejoin:miter;"/>
    </g>
    <g id="line2d_18">
     <path d="M 279.843437 54.570438 
L 299.843437 54.570438 
" style="fill:none;stroke:#1f77b4;stroke-linecap:square;stroke-width:1.5;"/>
    </g>
    <g id="line2d_19"/>
    <g id="text_15">
     <!-- actual -->
     <defs>
      <path d="M 8.5 21.578125 
L 8.5 54.6875 
L 17.484375 54.6875 
L 17.484375 21.921875 
Q 17.484375 14.15625 20.5 10.265625 
Q 23.53125 6.390625 29.59375 6.390625 
Q 36.859375 6.390625 41.078125 11.03125 
Q 45.3125 15.671875 45.3125 23.6875 
L 45.3125 54.6875 
L 54.296875 54.6875 
L 54.296875 0 
L 45.3125 0 
L 45.3125 8.40625 
Q 42.046875 3.421875 37.71875 1 
Q 33.40625 -1.421875 27.6875 -1.421875 
Q 18.265625 -1.421875 13.375 4.4375 
Q 8.5 10.296875 8.5 21.578125 
M 31.109375 56 
z
" id="DejaVuSans-75"/>
     </defs>
     <g transform="translate(307.843437 58.070438)scale(0.1 -0.1)">
      <use xlink:href="#DejaVuSans-61"/>
      <use x="61.279297" xlink:href="#DejaVuSans-63"/>
      <use x="116.259766" xlink:href="#DejaVuSans-74"/>
      <use x="155.46875" xlink:href="#DejaVuSans-75"/>
      <use x="218.847656" xlink:href="#DejaVuSans-61"/>
      <use x="280.126953" xlink:href="#DejaVuSans-6c"/>
     </g>
    </g>
    <g id="line2d_20">
     <path d="M 279.843437 69.248563 
L 299.843437 69.248563 
" style="fill:none;stroke:#ff7f0e;stroke-linecap:square;stroke-width:1.5;"/>
    </g>
    <g id="line2d_21"/>
    <g id="text_16">
     <!-- pred. (mean) -->
     <defs>
      <path d="M 18.109375 8.203125 
L 18.109375 -20.796875 
L 9.078125 -20.796875 
L 9.078125 54.6875 
L 18.109375 54.6875 
L 18.109375 46.390625 
Q 20.953125 51.265625 25.265625 53.625 
Q 29.59375 56 35.59375 56 
Q 45.5625 56 51.78125 48.09375 
Q 58.015625 40.1875 58.015625 27.296875 
Q 58.015625 14.40625 51.78125 6.484375 
Q 45.5625 -1.421875 35.59375 -1.421875 
Q 29.59375 -1.421875 25.265625 0.953125 
Q 20.953125 3.328125 18.109375 8.203125 
M 48.6875 27.296875 
Q 48.6875 37.203125 44.609375 42.84375 
Q 40.53125 48.484375 33.40625 48.484375 
Q 26.265625 48.484375 22.1875 42.84375 
Q 18.109375 37.203125 18.109375 27.296875 
Q 18.109375 17.390625 22.1875 11.75 
Q 26.265625 6.109375 33.40625 6.109375 
Q 40.53125 6.109375 44.609375 11.75 
Q 48.6875 17.390625 48.6875 27.296875 
" id="DejaVuSans-70"/>
      <path d="M 45.40625 46.390625 
L 45.40625 75.984375 
L 54.390625 75.984375 
L 54.390625 0 
L 45.40625 0 
L 45.40625 8.203125 
Q 42.578125 3.328125 38.25 0.953125 
Q 33.9375 -1.421875 27.875 -1.421875 
Q 17.96875 -1.421875 11.734375 6.484375 
Q 5.515625 14.40625 5.515625 27.296875 
Q 5.515625 40.1875 11.734375 48.09375 
Q 17.96875 56 27.875 56 
Q 33.9375 56 38.25 53.625 
Q 42.578125 51.265625 45.40625 46.390625 
M 14.796875 27.296875 
Q 14.796875 17.390625 18.875 11.75 
Q 22.953125 6.109375 30.078125 6.109375 
Q 37.203125 6.109375 41.296875 11.75 
Q 45.40625 17.390625 45.40625 27.296875 
Q 45.40625 37.203125 41.296875 42.84375 
Q 37.203125 48.484375 30.078125 48.484375 
Q 22.953125 48.484375 18.875 42.84375 
Q 14.796875 37.203125 14.796875 27.296875 
" id="DejaVuSans-64"/>
      <path d="M 31 75.875 
Q 24.46875 64.65625 21.28125 53.65625 
Q 18.109375 42.671875 18.109375 31.390625 
Q 18.109375 20.125 21.3125 9.0625 
Q 24.515625 -2 31 -13.1875 
L 23.1875 -13.1875 
Q 15.875 -1.703125 12.234375 9.375 
Q 8.59375 20.453125 8.59375 31.390625 
Q 8.59375 42.28125 12.203125 53.3125 
Q 15.828125 64.359375 23.1875 75.875 
z
" id="DejaVuSans-28"/>
      <path d="M 52 44.1875 
Q 55.375 50.25 60.0625 53.125 
Q 64.75 56 71.09375 56 
Q 79.640625 56 84.28125 50.015625 
Q 88.921875 44.046875 88.921875 33.015625 
L 88.921875 0 
L 79.890625 0 
L 79.890625 32.71875 
Q 79.890625 40.578125 77.09375 44.375 
Q 74.3125 48.1875 68.609375 48.1875 
Q 61.625 48.1875 57.5625 43.546875 
Q 53.515625 38.921875 53.515625 30.90625 
L 53.515625 0 
L 44.484375 0 
L 44.484375 32.71875 
Q 44.484375 40.625 41.703125 44.40625 
Q 38.921875 48.1875 33.109375 48.1875 
Q 26.21875 48.1875 22.15625 43.53125 
Q 18.109375 38.875 18.109375 30.90625 
L 18.109375 0 
L 9.078125 0 
L 9.078125 54.6875 
L 18.109375 54.6875 
L 18.109375 46.1875 
Q 21.1875 51.21875 25.484375 53.609375 
Q 29.78125 56 35.6875 56 
Q 41.65625 56 45.828125 52.96875 
Q 50 49.953125 52 44.1875 
" id="DejaVuSans-6d"/>
      <path d="M 8.015625 75.875 
L 15.828125 75.875 
Q 23.140625 64.359375 26.78125 53.3125 
Q 30.421875 42.28125 30.421875 31.390625 
Q 30.421875 20.453125 26.78125 9.375 
Q 23.140625 -1.703125 15.828125 -13.1875 
L 8.015625 -13.1875 
Q 14.5 -2 17.703125 9.0625 
Q 20.90625 20.125 20.90625 31.390625 
Q 20.90625 42.671875 17.703125 53.65625 
Q 14.5 64.65625 8.015625 75.875 
" id="DejaVuSans-29"/>
     </defs>
     <g transform="translate(307.843437 72.748563)scale(0.1 -0.1)">
      <use xlink:href="#DejaVuSans-70"/>
      <use x="63.476562" xlink:href="#DejaVuSans-72"/>
      <use x="104.558594" xlink:href="#DejaVuSans-65"/>
      <use x="166.082031" xlink:href="#DejaVuSans-64"/>
      <use x="229.558594" xlink:href="#DejaVuSans-2e"/>
      <use x="261.345703" xlink:href="#DejaVuSans-20"/>
      <use x="293.132812" xlink:href="#DejaVuSans-28"/>
      <use x="332.146484" xlink:href="#DejaVuSans-6d"/>
      <use x="429.558594" xlink:href="#DejaVuSans-65"/>
      <use x="491.082031" xlink:href="#DejaVuSans-61"/>
      <use x="552.361328" xlink:href="#DejaVuSans-6e"/>
      <use x="615.740234" xlink:href="#DejaVuSans-29"/>
     </g>
    </g>
    <g id="line2d_22">
     <path d="M 279.843437 83.926688 
L 299.843437 83.926688 
" style="fill:none;stroke:#2ca02c;stroke-linecap:square;stroke-width:1.5;"/>
    </g>
    <g id="line2d_23"/>
    <g id="text_17">
     <!-- pred.(5th percen.) -->
     <defs>
      <path d="M 54.890625 33.015625 
L 54.890625 0 
L 45.90625 0 
L 45.90625 32.71875 
Q 45.90625 40.484375 42.875 44.328125 
Q 39.84375 48.1875 33.796875 48.1875 
Q 26.515625 48.1875 22.3125 43.546875 
Q 18.109375 38.921875 18.109375 30.90625 
L 18.109375 0 
L 9.078125 0 
L 9.078125 75.984375 
L 18.109375 75.984375 
L 18.109375 46.1875 
Q 21.34375 51.125 25.703125 53.5625 
Q 30.078125 56 35.796875 56 
Q 45.21875 56 50.046875 50.171875 
Q 54.890625 44.34375 54.890625 33.015625 
" id="DejaVuSans-68"/>
     </defs>
     <g transform="translate(307.843437 87.426688)scale(0.1 -0.1)">
      <use xlink:href="#DejaVuSans-70"/>
      <use x="63.476562" xlink:href="#DejaVuSans-72"/>
      <use x="104.558594" xlink:href="#DejaVuSans-65"/>
      <use x="166.082031" xlink:href="#DejaVuSans-64"/>
      <use x="229.558594" xlink:href="#DejaVuSans-2e"/>
      <use x="261.345703" xlink:href="#DejaVuSans-28"/>
      <use x="300.359375" xlink:href="#DejaVuSans-35"/>
      <use x="363.982422" xlink:href="#DejaVuSans-74"/>
      <use x="403.191406" xlink:href="#DejaVuSans-68"/>
      <use x="466.570312" xlink:href="#DejaVuSans-20"/>
      <use x="498.357422" xlink:href="#DejaVuSans-70"/>
      <use x="561.833984" xlink:href="#DejaVuSans-65"/>
      <use x="623.357422" xlink:href="#DejaVuSans-72"/>
      <use x="664.439453" xlink:href="#DejaVuSans-63"/>
      <use x="719.419922" xlink:href="#DejaVuSans-65"/>
      <use x="780.943359" xlink:href="#DejaVuSans-6e"/>
      <use x="844.322266" xlink:href="#DejaVuSans-2e"/>
      <use x="876.109375" xlink:href="#DejaVuSans-29"/>
     </g>
    </g>
    <g id="line2d_24">
     <path d="M 279.843437 98.604813 
L 299.843437 98.604813 
" style="fill:none;stroke:#d62728;stroke-linecap:square;stroke-width:1.5;"/>
    </g>
    <g id="line2d_25"/>
    <g id="text_18">
     <!-- pred.(95th percen.) -->
     <defs>
      <path d="M 10.984375 1.515625 
L 10.984375 10.5 
Q 14.703125 8.734375 18.5 7.8125 
Q 22.3125 6.890625 25.984375 6.890625 
Q 35.75 6.890625 40.890625 13.453125 
Q 46.046875 20.015625 46.78125 33.40625 
Q 43.953125 29.203125 39.59375 26.953125 
Q 35.25 24.703125 29.984375 24.703125 
Q 19.046875 24.703125 12.671875 31.3125 
Q 6.296875 37.9375 6.296875 49.421875 
Q 6.296875 60.640625 12.9375 67.421875 
Q 19.578125 74.21875 30.609375 74.21875 
Q 43.265625 74.21875 49.921875 64.515625 
Q 56.59375 54.828125 56.59375 36.375 
Q 56.59375 19.140625 48.40625 8.859375 
Q 40.234375 -1.421875 26.421875 -1.421875 
Q 22.703125 -1.421875 18.890625 -0.6875 
Q 15.09375 0.046875 10.984375 1.515625 
M 30.609375 32.421875 
Q 37.25 32.421875 41.125 36.953125 
Q 45.015625 41.5 45.015625 49.421875 
Q 45.015625 57.28125 41.125 61.84375 
Q 37.25 66.40625 30.609375 66.40625 
Q 23.96875 66.40625 20.09375 61.84375 
Q 16.21875 57.28125 16.21875 49.421875 
Q 16.21875 41.5 20.09375 36.953125 
Q 23.96875 32.421875 30.609375 32.421875 
" id="DejaVuSans-39"/>
     </defs>
     <g transform="translate(307.843437 102.104813)scale(0.1 -0.1)">
      <use xlink:href="#DejaVuSans-70"/>
      <use x="63.476562" xlink:href="#DejaVuSans-72"/>
      <use x="104.558594" xlink:href="#DejaVuSans-65"/>
      <use x="166.082031" xlink:href="#DejaVuSans-64"/>
      <use x="229.558594" xlink:href="#DejaVuSans-2e"/>
      <use x="261.345703" xlink:href="#DejaVuSans-28"/>
      <use x="300.359375" xlink:href="#DejaVuSans-39"/>
      <use x="363.982422" xlink:href="#DejaVuSans-35"/>
      <use x="427.605469" xlink:href="#DejaVuSans-74"/>
      <use x="466.814453" xlink:href="#DejaVuSans-68"/>
      <use x="530.193359" xlink:href="#DejaVuSans-20"/>
      <use x="561.980469" xlink:href="#DejaVuSans-70"/>
      <use x="625.457031" xlink:href="#DejaVuSans-65"/>
      <use x="686.980469" xlink:href="#DejaVuSans-72"/>
      <use x="728.0625" xlink:href="#DejaVuSans-63"/>
      <use x="783.042969" xlink:href="#DejaVuSans-65"/>
      <use x="844.566406" xlink:href="#DejaVuSans-6e"/>
      <use x="907.945312" xlink:href="#DejaVuSans-2e"/>
      <use x="939.732422" xlink:href="#DejaVuSans-29"/>
     </g>
    </g>
   </g>
  </g>
 </g>
 <defs>
  <clipPath id="p28262d7766">
   <rect height="266.112" width="357.12" x="57.6" y="41.472"/>
  </clipPath>
 </defs>
</svg>
