<?xml version="1.0" encoding="utf-8" standalone="no"?>
<!DOCTYPE svg PUBLIC "-//W3C//DTD SVG 1.1//EN"
  "http://www.w3.org/Graphics/SVG/1.1/DTD/svg11.dtd">
<!-- Created with matplotlib (http://matplotlib.org/) -->
<svg height="345pt" version="1.1" viewBox="0 0 460 345" width="460pt" xmlns="http://www.w3.org/2000/svg" xmlns:xlink="http://www.w3.org/1999/xlink">
 <defs>
  <style type="text/css">
*{stroke-linecap:butt;stroke-linejoin:round;}
  </style>
 </defs>
 <g id="figure_1">
  <g id="patch_1">
   <path d="M 0 345.6 
L 460.8 345.6 
L 460.8 0 
L 0 0 
z
" style="fill:#ffffff;"/>
  </g>
  <g id="axes_1">
   <g id="patch_2">
    <path d="M 57.6 307.584 
L 414.72 307.584 
L 414.72 41.472 
L 57.6 41.472 
z
" style="fill:#ffffff;"/>
   </g>
   <g id="PolyCollection_1">
    <path clip-path="url(#p255234d4b4)" d="M 73.832727 87.234984 
L 73.832727 93.922364 
L 75.202578 95.938608 
L 76.572428 96.027027 
L 77.942278 93.515179 
L 79.312129 98.325133 
L 80.681979 96.578278 
L 82.05183 96.51541 
L 83.42168 95.800974 
L 84.79153 97.559251 
L 86.161381 92.835035 
L 87.531231 89.661942 
L 88.901082 86.029753 
L 90.270932 84.650019 
L 91.640783 82.950932 
L 93.010633 83.62497 
L 94.380483 82.358528 
L 95.750334 84.418839 
L 97.120184 81.51277 
L 98.490035 79.043353 
L 99.859885 78.223411 
L 101.229735 76.703155 
L 102.599586 77.512063 
L 103.969436 77.544847 
L 105.339287 76.267435 
L 106.709137 75.560683 
L 108.078987 76.492579 
L 109.448838 79.201017 
L 110.818688 84.272751 
L 112.188539 104.059943 
L 113.558389 109.723082 
L 114.928239 124.447356 
L 116.29809 118.311586 
L 117.66794 129.205253 
L 119.037791 125.090541 
L 120.407641 120.760583 
L 121.777491 112.254171 
L 123.147342 104.644144 
L 124.517192 104.785429 
L 125.887043 101.345896 
L 127.256893 98.421821 
L 128.626743 97.730433 
L 129.996594 97.54026 
L 131.366444 99.476608 
L 132.736295 100.701875 
L 134.106145 102.6431 
L 135.475995 106.83658 
L 136.845846 104.626678 
L 138.215696 101.959767 
L 139.585547 102.011926 
L 140.955397 103.913978 
L 142.325247 102.888228 
L 143.695098 105.905729 
L 145.064948 108.654772 
L 146.434799 103.101395 
L 147.804649 99.962252 
L 149.174499 100.002331 
L 150.54435 97.944952 
L 151.9142 99.630195 
L 153.284051 98.607594 
L 154.653901 93.734085 
L 156.023751 87.820816 
L 157.393602 91.749135 
L 158.763452 93.550981 
L 160.133303 91.50686 
L 161.503153 89.303541 
L 162.873003 88.069791 
L 164.242854 86.847472 
L 165.612704 89.956901 
L 166.982555 93.140276 
L 168.352405 92.270586 
L 169.722255 92.482692 
L 171.092106 92.657042 
L 172.461956 91.158551 
L 173.831807 91.768282 
L 175.201657 87.885324 
L 176.571507 87.152062 
L 177.941358 87.200401 
L 179.311208 91.502945 
L 180.681059 88.970319 
L 182.050909 128.617516 
L 183.420759 111.918279 
L 184.79061 110.065585 
L 186.16046 116.036982 
L 187.530311 104.386669 
L 188.900161 122.751129 
L 190.270012 148.059284 
L 191.639862 154.703152 
L 193.009712 151.019445 
L 194.379563 159.091395 
L 195.749413 162.199613 
L 197.119264 163.961032 
L 198.489114 157.030826 
L 199.858964 147.706894 
L 201.228815 148.199161 
L 202.598665 152.622879 
L 203.968516 148.350287 
L 205.338366 147.145237 
L 206.708216 149.843312 
L 208.078067 174.230346 
L 209.447917 180.956971 
L 210.817768 189.30501 
L 212.187618 185.267935 
L 213.557468 180.73126 
L 214.927319 173.163978 
L 216.297169 167.408633 
L 217.66702 157.734838 
L 219.03687 167.623131 
L 220.40672 178.41325 
L 221.776571 179.604828 
L 223.146421 189.643081 
L 224.516272 190.473841 
L 225.886122 190.134965 
L 227.255972 188.275545 
L 228.625823 186.963137 
L 229.995673 187.851909 
L 231.365524 191.913388 
L 232.735374 187.528647 
L 234.105224 181.590545 
L 235.475075 187.701369 
L 236.844925 188.767741 
L 238.214776 190.072258 
L 239.584626 186.717885 
L 240.954476 181.075436 
L 242.324327 182.446895 
L 243.694177 181.872444 
L 245.064028 169.502616 
L 246.433878 162.847177 
L 247.803728 168.438046 
L 249.173579 175.386669 
L 250.543429 223.462554 
L 251.91328 229.963721 
L 253.28313 220.259996 
L 254.65298 213.414796 
L 256.022831 213.733903 
L 257.392681 224.255493 
L 258.762532 237.157381 
L 260.132382 247.454218 
L 261.502232 252.123243 
L 262.872083 255.257093 
L 264.241933 262.654171 
L 265.611784 267.869984 
L 266.981634 265.871767 
L 268.351484 261.26664 
L 269.721335 256.782267 
L 271.091185 246.833926 
L 272.461036 245.738511 
L 273.830886 250.08387 
L 275.200736 248.318145 
L 276.570587 245.552179 
L 277.940437 242.937598 
L 279.310288 244.02979 
L 280.680138 239.769779 
L 282.049988 227.43371 
L 283.419839 219.966495 
L 284.789689 217.980506 
L 286.15954 214.587108 
L 287.52939 209.831869 
L 288.899241 216.245942 
L 290.269091 217.368386 
L 291.638941 220.444619 
L 293.008792 218.825781 
L 294.378642 211.397534 
L 295.748493 199.235464 
L 297.118343 202.633416 
L 298.488193 200.75271 
L 299.858044 189.625183 
L 301.227894 187.784662 
L 302.597745 192.512668 
L 303.967595 194.534746 
L 305.337445 193.306329 
L 306.707296 193.786824 
L 308.077146 188.789964 
L 309.446997 192.50248 
L 310.816847 189.795548 
L 312.186697 186.018624 
L 313.556548 184.424836 
L 314.926398 186.929077 
L 316.296249 205.649709 
L 317.666099 224.781154 
L 319.035949 224.208693 
L 320.4058 224.64985 
L 321.77565 224.303349 
L 323.145501 225.849815 
L 324.515351 229.914212 
L 325.885201 229.276172 
L 327.255052 227.603198 
L 328.624902 234.958808 
L 329.994753 232.148178 
L 331.364603 230.016016 
L 332.734453 230.927557 
L 334.104304 228.645195 
L 335.474154 224.921509 
L 336.844005 222.478293 
L 338.213855 225.890225 
L 339.583705 223.742164 
L 340.953556 225.047982 
L 342.323406 227.707744 
L 343.693257 231.060274 
L 345.063107 232.25552 
L 346.432957 230.238743 
L 347.802808 229.081354 
L 349.172658 225.998381 
L 350.542509 214.464313 
L 351.912359 217.317558 
L 353.282209 217.929788 
L 354.65206 216.676336 
L 356.02191 210.808599 
L 357.391761 208.1984 
L 358.761611 206.201343 
L 360.131461 203.595062 
L 361.501312 199.05559 
L 362.871162 240.675001 
L 364.241013 238.701427 
L 365.610863 236.552086 
L 366.980713 234.146782 
L 368.350564 229.829512 
L 369.720414 225.085853 
L 371.090265 220.541958 
L 372.460115 221.295873 
L 373.829965 222.222719 
L 375.199816 219.019288 
L 376.569666 213.831668 
L 377.939517 220.563959 
L 379.309367 216.47131 
L 380.679217 208.984206 
L 382.049068 217.53028 
L 383.418918 220.013819 
L 384.788769 230.712889 
L 386.158619 228.429121 
L 387.52847 239.591458 
L 388.89832 255.514561 
L 390.26817 272.562633 
L 391.638021 275.911025 
L 393.007871 276.087306 
L 394.377722 278.612291 
L 395.747572 277.083083 
L 397.117422 284.736475 
L 398.487273 295.488 
L 398.487273 276.756598 
L 398.487273 276.756598 
L 397.117422 269.534049 
L 395.747572 264.286196 
L 394.377722 264.384997 
L 393.007871 263.593397 
L 391.638021 258.897799 
L 390.26817 260.264121 
L 388.89832 246.971285 
L 387.52847 230.581167 
L 386.158619 220.056224 
L 384.788769 222.787667 
L 383.418918 214.78173 
L 382.049068 207.583348 
L 380.679217 201.560397 
L 379.309367 211.156461 
L 377.939517 213.163544 
L 376.569666 208.897907 
L 375.199816 214.003004 
L 373.829965 215.589943 
L 372.460115 216.310809 
L 371.090265 215.894029 
L 369.720414 216.696105 
L 368.350564 224.164936 
L 366.980713 226.400195 
L 365.610863 230.716392 
L 364.241013 226.616246 
L 362.871162 221.088799 
L 361.501312 193.687039 
L 360.131461 198.767583 
L 358.761611 201.518763 
L 357.391761 203.475448 
L 356.02191 204.315204 
L 354.65206 211.946813 
L 353.282209 212.866587 
L 351.912359 211.674453 
L 350.542509 206.804399 
L 349.172658 216.261371 
L 347.802808 224.176093 
L 346.432957 223.096919 
L 345.063107 225.388905 
L 343.693257 225.296649 
L 342.323406 223.067594 
L 340.953556 220.124407 
L 339.583705 215.682757 
L 338.213855 220.840119 
L 336.844005 216.900254 
L 335.474154 219.298028 
L 334.104304 220.93616 
L 332.734453 225.577269 
L 331.364603 224.787095 
L 329.994753 221.617646 
L 328.624902 228.975967 
L 327.255052 222.36784 
L 325.885201 223.125011 
L 324.515351 224.535134 
L 323.145501 221.362266 
L 321.77565 219.087574 
L 320.4058 219.386476 
L 319.035949 218.137419 
L 317.666099 212.709121 
L 316.296249 187.859341 
L 314.926398 178.221451 
L 313.556548 178.541903 
L 312.186697 180.236303 
L 310.816847 183.960098 
L 309.446997 184.930462 
L 308.077146 183.889315 
L 306.707296 185.455123 
L 305.337445 188.043581 
L 303.967595 184.401343 
L 302.597745 181.513783 
L 301.227894 180.28655 
L 299.858044 181.899339 
L 298.488193 194.807467 
L 297.118343 195.010144 
L 295.748493 191.763209 
L 294.378642 202.148771 
L 293.008792 213.704353 
L 291.638941 215.326534 
L 290.269091 211.874225 
L 288.899241 210.312562 
L 287.52939 204.588665 
L 286.15954 206.745771 
L 284.789689 209.191868 
L 283.419839 215.55049 
L 282.049988 218.614818 
L 280.680138 230.46993 
L 279.310288 236.741735 
L 277.940437 235.83325 
L 276.570587 236.083381 
L 275.200736 240.199802 
L 273.830886 241.145283 
L 272.461036 239.799549 
L 271.091185 233.764537 
L 269.721335 243.24499 
L 268.351484 250.80703 
L 266.981634 254.237508 
L 265.611784 258.093269 
L 264.241933 253.882438 
L 262.872083 248.190696 
L 261.502232 245.162401 
L 260.132382 241.027278 
L 258.762532 229.902766 
L 257.392681 216.235127 
L 256.022831 209.213483 
L 254.65298 206.976921 
L 253.28313 204.339794 
L 251.91328 223.308616 
L 250.543429 193.578576 
L 249.173579 164.336057 
L 247.803728 159.811548 
L 246.433878 156.363268 
L 245.064028 162.924361 
L 243.694177 174.246213 
L 242.324327 174.866711 
L 240.954476 175.878733 
L 239.584626 179.507304 
L 238.214776 182.714873 
L 236.844925 181.316825 
L 235.475075 176.060543 
L 234.105224 175.328581 
L 232.735374 181.544723 
L 231.365524 182.398439 
L 229.995673 180.684275 
L 228.625823 178.728205 
L 227.255972 182.462573 
L 225.886122 183.946563 
L 224.516272 182.749173 
L 223.146421 177.013614 
L 221.776571 172.021269 
L 220.40672 166.044157 
L 219.03687 155.793183 
L 217.66702 151.466259 
L 216.297169 160.727219 
L 214.927319 166.854353 
L 213.557468 175.088414 
L 212.187618 178.906009 
L 210.817768 178.857355 
L 209.447917 168.81132 
L 208.078067 151.560014 
L 206.708216 142.923297 
L 205.338366 140.3131 
L 203.968516 141.297662 
L 202.598665 142.501046 
L 201.228815 140.214313 
L 199.858964 140.701953 
L 198.489114 150.95192 
L 197.119264 155.124907 
L 195.749413 152.841047 
L 194.379563 150.149956 
L 193.009712 143.864074 
L 191.639862 143.430405 
L 190.270012 128.460722 
L 188.900161 108.228096 
L 187.530311 91.373209 
L 186.16046 110.563863 
L 184.79061 104.330442 
L 183.420759 105.866117 
L 182.050909 103.226486 
L 180.681059 71.779668 
L 179.311208 85.089952 
L 177.941358 78.522247 
L 176.571507 78.6067 
L 175.201657 78.304021 
L 173.831807 84.448303 
L 172.461956 82.523612 
L 171.092106 84.543257 
L 169.722255 85.464205 
L 168.352405 83.36602 
L 166.982555 86.018189 
L 165.612704 82.682217 
L 164.242854 78.79719 
L 162.873003 79.36112 
L 161.503153 79.670745 
L 160.133303 84.03274 
L 158.763452 85.354479 
L 157.393602 85.816887 
L 156.023751 77.458545 
L 154.653901 83.476149 
L 153.284051 89.895884 
L 151.9142 94.257278 
L 150.54435 89.731243 
L 149.174499 93.619893 
L 147.804649 94.260363 
L 146.434799 89.917925 
L 145.064948 102.751336 
L 143.695098 100.659897 
L 142.325247 96.456578 
L 140.955397 97.366257 
L 139.585547 96.375572 
L 138.215696 95.170369 
L 136.845846 97.619742 
L 135.475995 101.650544 
L 134.106145 97.280683 
L 132.736295 94.467878 
L 131.366444 93.781061 
L 129.996594 90.520271 
L 128.626743 91.130355 
L 127.256893 90.604706 
L 125.887043 93.574142 
L 124.517192 98.961049 
L 123.147342 97.48024 
L 121.777491 103.433227 
L 120.407641 114.830008 
L 119.037791 119.626307 
L 117.66794 120.59955 
L 116.29809 112.282642 
L 114.928239 112.716718 
L 113.558389 102.131438 
L 112.188539 90.146402 
L 110.818688 76.290568 
L 109.448838 70.636123 
L 108.078987 66.768905 
L 106.709137 64.944903 
L 105.339287 66.023859 
L 103.969436 66.50911 
L 102.599586 68.716499 
L 101.229735 65.766447 
L 99.859885 69.064678 
L 98.490035 68.034339 
L 97.120184 71.199401 
L 95.750334 76.238497 
L 94.380483 72.266519 
L 93.010633 74.87953 
L 91.640783 73.832485 
L 90.270932 75.494049 
L 88.901082 76.132022 
L 87.531231 80.481608 
L 86.161381 83.364097 
L 84.79153 90.770079 
L 83.42168 89.095946 
L 82.05183 89.085217 
L 80.681979 89.736296 
L 79.312129 91.651012 
L 77.942278 86.190019 
L 76.572428 88.682632 
L 75.202578 88.915302 
L 73.832727 87.234984 
z
" style="fill:#008000;fill-opacity:0.4;"/>
   </g>
   <g id="matplotlib.axis_1">
    <g id="xtick_1">
     <g id="line2d_1">
      <defs>
       <path d="M 0 0 
L 0 3.5 
" id="mbb038e7bf3" style="stroke:#000000;stroke-width:0.8;"/>
      </defs>
      <g>
       <use style="stroke:#000000;stroke-width:0.8;" x="73.832727" xlink:href="#mbb038e7bf3" y="307.584"/>
      </g>
     </g>
     <g id="text_1">
      <!-- 0.0 -->
      <defs>
       <path d="M 31.78125 66.40625 
Q 24.171875 66.40625 20.328125 58.90625 
Q 16.5 51.421875 16.5 36.375 
Q 16.5 21.390625 20.328125 13.890625 
Q 24.171875 6.390625 31.78125 6.390625 
Q 39.453125 6.390625 43.28125 13.890625 
Q 47.125 21.390625 47.125 36.375 
Q 47.125 51.421875 43.28125 58.90625 
Q 39.453125 66.40625 31.78125 66.40625 
M 31.78125 74.21875 
Q 44.046875 74.21875 50.515625 64.515625 
Q 56.984375 54.828125 56.984375 36.375 
Q 56.984375 17.96875 50.515625 8.265625 
Q 44.046875 -1.421875 31.78125 -1.421875 
Q 19.53125 -1.421875 13.0625 8.265625 
Q 6.59375 17.96875 6.59375 36.375 
Q 6.59375 54.828125 13.0625 64.515625 
Q 19.53125 74.21875 31.78125 74.21875 
" id="DejaVuSans-30"/>
       <path d="M 10.6875 12.40625 
L 21 12.40625 
L 21 0 
L 10.6875 0 
z
" id="DejaVuSans-2e"/>
      </defs>
      <g transform="translate(65.881165 322.182437)scale(0.1 -0.1)">
       <use xlink:href="#DejaVuSans-30"/>
       <use x="63.623047" xlink:href="#DejaVuSans-2e"/>
       <use x="95.410156" xlink:href="#DejaVuSans-30"/>
      </g>
     </g>
    </g>
    <g id="xtick_2">
     <g id="line2d_2">
      <g>
       <use style="stroke:#000000;stroke-width:0.8;" x="138.763636" xlink:href="#mbb038e7bf3" y="307.584"/>
      </g>
     </g>
     <g id="text_2">
      <!-- 0.2 -->
      <defs>
       <path d="M 19.1875 8.296875 
L 53.609375 8.296875 
L 53.609375 0 
L 7.328125 0 
L 7.328125 8.296875 
Q 12.9375 14.109375 22.625 23.890625 
Q 32.328125 33.6875 34.8125 36.53125 
Q 39.546875 41.84375 41.421875 45.53125 
Q 43.3125 49.21875 43.3125 52.78125 
Q 43.3125 58.59375 39.234375 62.25 
Q 35.15625 65.921875 28.609375 65.921875 
Q 23.96875 65.921875 18.8125 64.3125 
Q 13.671875 62.703125 7.8125 59.421875 
L 7.8125 69.390625 
Q 13.765625 71.78125 18.9375 73 
Q 24.125 74.21875 28.421875 74.21875 
Q 39.75 74.21875 46.484375 68.546875 
Q 53.21875 62.890625 53.21875 53.421875 
Q 53.21875 48.921875 51.53125 44.890625 
Q 49.859375 40.875 45.40625 35.40625 
Q 44.1875 33.984375 37.640625 27.21875 
Q 31.109375 20.453125 19.1875 8.296875 
" id="DejaVuSans-32"/>
      </defs>
      <g transform="translate(130.812074 322.182437)scale(0.1 -0.1)">
       <use xlink:href="#DejaVuSans-30"/>
       <use x="63.623047" xlink:href="#DejaVuSans-2e"/>
       <use x="95.410156" xlink:href="#DejaVuSans-32"/>
      </g>
     </g>
    </g>
    <g id="xtick_3">
     <g id="line2d_3">
      <g>
       <use style="stroke:#000000;stroke-width:0.8;" x="203.694545" xlink:href="#mbb038e7bf3" y="307.584"/>
      </g>
     </g>
     <g id="text_3">
      <!-- 0.4 -->
      <defs>
       <path d="M 37.796875 64.3125 
L 12.890625 25.390625 
L 37.796875 25.390625 
z
M 35.203125 72.90625 
L 47.609375 72.90625 
L 47.609375 25.390625 
L 58.015625 25.390625 
L 58.015625 17.1875 
L 47.609375 17.1875 
L 47.609375 0 
L 37.796875 0 
L 37.796875 17.1875 
L 4.890625 17.1875 
L 4.890625 26.703125 
z
" id="DejaVuSans-34"/>
      </defs>
      <g transform="translate(195.742983 322.182437)scale(0.1 -0.1)">
       <use xlink:href="#DejaVuSans-30"/>
       <use x="63.623047" xlink:href="#DejaVuSans-2e"/>
       <use x="95.410156" xlink:href="#DejaVuSans-34"/>
      </g>
     </g>
    </g>
    <g id="xtick_4">
     <g id="line2d_4">
      <g>
       <use style="stroke:#000000;stroke-width:0.8;" x="268.625455" xlink:href="#mbb038e7bf3" y="307.584"/>
      </g>
     </g>
     <g id="text_4">
      <!-- 0.6 -->
      <defs>
       <path d="M 33.015625 40.375 
Q 26.375 40.375 22.484375 35.828125 
Q 18.609375 31.296875 18.609375 23.390625 
Q 18.609375 15.53125 22.484375 10.953125 
Q 26.375 6.390625 33.015625 6.390625 
Q 39.65625 6.390625 43.53125 10.953125 
Q 47.40625 15.53125 47.40625 23.390625 
Q 47.40625 31.296875 43.53125 35.828125 
Q 39.65625 40.375 33.015625 40.375 
M 52.59375 71.296875 
L 52.59375 62.3125 
Q 48.875 64.0625 45.09375 64.984375 
Q 41.3125 65.921875 37.59375 65.921875 
Q 27.828125 65.921875 22.671875 59.328125 
Q 17.53125 52.734375 16.796875 39.40625 
Q 19.671875 43.65625 24.015625 45.921875 
Q 28.375 48.1875 33.59375 48.1875 
Q 44.578125 48.1875 50.953125 41.515625 
Q 57.328125 34.859375 57.328125 23.390625 
Q 57.328125 12.15625 50.6875 5.359375 
Q 44.046875 -1.421875 33.015625 -1.421875 
Q 20.359375 -1.421875 13.671875 8.265625 
Q 6.984375 17.96875 6.984375 36.375 
Q 6.984375 53.65625 15.1875 63.9375 
Q 23.390625 74.21875 37.203125 74.21875 
Q 40.921875 74.21875 44.703125 73.484375 
Q 48.484375 72.75 52.59375 71.296875 
" id="DejaVuSans-36"/>
      </defs>
      <g transform="translate(260.673892 322.182437)scale(0.1 -0.1)">
       <use xlink:href="#DejaVuSans-30"/>
       <use x="63.623047" xlink:href="#DejaVuSans-2e"/>
       <use x="95.410156" xlink:href="#DejaVuSans-36"/>
      </g>
     </g>
    </g>
    <g id="xtick_5">
     <g id="line2d_5">
      <g>
       <use style="stroke:#000000;stroke-width:0.8;" x="333.556364" xlink:href="#mbb038e7bf3" y="307.584"/>
      </g>
     </g>
     <g id="text_5">
      <!-- 0.8 -->
      <defs>
       <path d="M 31.78125 34.625 
Q 24.75 34.625 20.71875 30.859375 
Q 16.703125 27.09375 16.703125 20.515625 
Q 16.703125 13.921875 20.71875 10.15625 
Q 24.75 6.390625 31.78125 6.390625 
Q 38.8125 6.390625 42.859375 10.171875 
Q 46.921875 13.96875 46.921875 20.515625 
Q 46.921875 27.09375 42.890625 30.859375 
Q 38.875 34.625 31.78125 34.625 
M 21.921875 38.8125 
Q 15.578125 40.375 12.03125 44.71875 
Q 8.5 49.078125 8.5 55.328125 
Q 8.5 64.0625 14.71875 69.140625 
Q 20.953125 74.21875 31.78125 74.21875 
Q 42.671875 74.21875 48.875 69.140625 
Q 55.078125 64.0625 55.078125 55.328125 
Q 55.078125 49.078125 51.53125 44.71875 
Q 48 40.375 41.703125 38.8125 
Q 48.828125 37.15625 52.796875 32.3125 
Q 56.78125 27.484375 56.78125 20.515625 
Q 56.78125 9.90625 50.3125 4.234375 
Q 43.84375 -1.421875 31.78125 -1.421875 
Q 19.734375 -1.421875 13.25 4.234375 
Q 6.78125 9.90625 6.78125 20.515625 
Q 6.78125 27.484375 10.78125 32.3125 
Q 14.796875 37.15625 21.921875 38.8125 
M 18.3125 54.390625 
Q 18.3125 48.734375 21.84375 45.5625 
Q 25.390625 42.390625 31.78125 42.390625 
Q 38.140625 42.390625 41.71875 45.5625 
Q 45.3125 48.734375 45.3125 54.390625 
Q 45.3125 60.0625 41.71875 63.234375 
Q 38.140625 66.40625 31.78125 66.40625 
Q 25.390625 66.40625 21.84375 63.234375 
Q 18.3125 60.0625 18.3125 54.390625 
" id="DejaVuSans-38"/>
      </defs>
      <g transform="translate(325.604801 322.182437)scale(0.1 -0.1)">
       <use xlink:href="#DejaVuSans-30"/>
       <use x="63.623047" xlink:href="#DejaVuSans-2e"/>
       <use x="95.410156" xlink:href="#DejaVuSans-38"/>
      </g>
     </g>
    </g>
    <g id="xtick_6">
     <g id="line2d_6">
      <g>
       <use style="stroke:#000000;stroke-width:0.8;" x="398.487273" xlink:href="#mbb038e7bf3" y="307.584"/>
      </g>
     </g>
     <g id="text_6">
      <!-- 1.0 -->
      <defs>
       <path d="M 12.40625 8.296875 
L 28.515625 8.296875 
L 28.515625 63.921875 
L 10.984375 60.40625 
L 10.984375 69.390625 
L 28.421875 72.90625 
L 38.28125 72.90625 
L 38.28125 8.296875 
L 54.390625 8.296875 
L 54.390625 0 
L 12.40625 0 
z
" id="DejaVuSans-31"/>
      </defs>
      <g transform="translate(390.53571 322.182437)scale(0.1 -0.1)">
       <use xlink:href="#DejaVuSans-31"/>
       <use x="63.623047" xlink:href="#DejaVuSans-2e"/>
       <use x="95.410156" xlink:href="#DejaVuSans-30"/>
      </g>
     </g>
    </g>
   </g>
   <g id="matplotlib.axis_2">
    <g id="ytick_1">
     <g id="line2d_7">
      <defs>
       <path d="M 0 0 
L -3.5 0 
" id="md5013d0dc8" style="stroke:#000000;stroke-width:0.8;"/>
      </defs>
      <g>
       <use style="stroke:#000000;stroke-width:0.8;" x="57.6" xlink:href="#md5013d0dc8" y="305.480108"/>
      </g>
     </g>
     <g id="text_7">
      <!-- 0.2 -->
      <g transform="translate(34.696875 309.279327)scale(0.1 -0.1)">
       <use xlink:href="#DejaVuSans-30"/>
       <use x="63.623047" xlink:href="#DejaVuSans-2e"/>
       <use x="95.410156" xlink:href="#DejaVuSans-32"/>
      </g>
     </g>
    </g>
    <g id="ytick_2">
     <g id="line2d_8">
      <g>
       <use style="stroke:#000000;stroke-width:0.8;" x="57.6" xlink:href="#md5013d0dc8" y="272.787262"/>
      </g>
     </g>
     <g id="text_8">
      <!-- 0.3 -->
      <defs>
       <path d="M 40.578125 39.3125 
Q 47.65625 37.796875 51.625 33 
Q 55.609375 28.21875 55.609375 21.1875 
Q 55.609375 10.40625 48.1875 4.484375 
Q 40.765625 -1.421875 27.09375 -1.421875 
Q 22.515625 -1.421875 17.65625 -0.515625 
Q 12.796875 0.390625 7.625 2.203125 
L 7.625 11.71875 
Q 11.71875 9.328125 16.59375 8.109375 
Q 21.484375 6.890625 26.8125 6.890625 
Q 36.078125 6.890625 40.9375 10.546875 
Q 45.796875 14.203125 45.796875 21.1875 
Q 45.796875 27.640625 41.28125 31.265625 
Q 36.765625 34.90625 28.71875 34.90625 
L 20.21875 34.90625 
L 20.21875 43.015625 
L 29.109375 43.015625 
Q 36.375 43.015625 40.234375 45.921875 
Q 44.09375 48.828125 44.09375 54.296875 
Q 44.09375 59.90625 40.109375 62.90625 
Q 36.140625 65.921875 28.71875 65.921875 
Q 24.65625 65.921875 20.015625 65.03125 
Q 15.375 64.15625 9.8125 62.3125 
L 9.8125 71.09375 
Q 15.4375 72.65625 20.34375 73.4375 
Q 25.25 74.21875 29.59375 74.21875 
Q 40.828125 74.21875 47.359375 69.109375 
Q 53.90625 64.015625 53.90625 55.328125 
Q 53.90625 49.265625 50.4375 45.09375 
Q 46.96875 40.921875 40.578125 39.3125 
" id="DejaVuSans-33"/>
      </defs>
      <g transform="translate(34.696875 276.586481)scale(0.1 -0.1)">
       <use xlink:href="#DejaVuSans-30"/>
       <use x="63.623047" xlink:href="#DejaVuSans-2e"/>
       <use x="95.410156" xlink:href="#DejaVuSans-33"/>
      </g>
     </g>
    </g>
    <g id="ytick_3">
     <g id="line2d_9">
      <g>
       <use style="stroke:#000000;stroke-width:0.8;" x="57.6" xlink:href="#md5013d0dc8" y="240.094416"/>
      </g>
     </g>
     <g id="text_9">
      <!-- 0.4 -->
      <g transform="translate(34.696875 243.893635)scale(0.1 -0.1)">
       <use xlink:href="#DejaVuSans-30"/>
       <use x="63.623047" xlink:href="#DejaVuSans-2e"/>
       <use x="95.410156" xlink:href="#DejaVuSans-34"/>
      </g>
     </g>
    </g>
    <g id="ytick_4">
     <g id="line2d_10">
      <g>
       <use style="stroke:#000000;stroke-width:0.8;" x="57.6" xlink:href="#md5013d0dc8" y="207.401571"/>
      </g>
     </g>
     <g id="text_10">
      <!-- 0.5 -->
      <defs>
       <path d="M 10.796875 72.90625 
L 49.515625 72.90625 
L 49.515625 64.59375 
L 19.828125 64.59375 
L 19.828125 46.734375 
Q 21.96875 47.46875 24.109375 47.828125 
Q 26.265625 48.1875 28.421875 48.1875 
Q 40.625 48.1875 47.75 41.5 
Q 54.890625 34.8125 54.890625 23.390625 
Q 54.890625 11.625 47.5625 5.09375 
Q 40.234375 -1.421875 26.90625 -1.421875 
Q 22.3125 -1.421875 17.546875 -0.640625 
Q 12.796875 0.140625 7.71875 1.703125 
L 7.71875 11.625 
Q 12.109375 9.234375 16.796875 8.0625 
Q 21.484375 6.890625 26.703125 6.890625 
Q 35.15625 6.890625 40.078125 11.328125 
Q 45.015625 15.765625 45.015625 23.390625 
Q 45.015625 31 40.078125 35.4375 
Q 35.15625 39.890625 26.703125 39.890625 
Q 22.75 39.890625 18.8125 39.015625 
Q 14.890625 38.140625 10.796875 36.28125 
z
" id="DejaVuSans-35"/>
      </defs>
      <g transform="translate(34.696875 211.200789)scale(0.1 -0.1)">
       <use xlink:href="#DejaVuSans-30"/>
       <use x="63.623047" xlink:href="#DejaVuSans-2e"/>
       <use x="95.410156" xlink:href="#DejaVuSans-35"/>
      </g>
     </g>
    </g>
    <g id="ytick_5">
     <g id="line2d_11">
      <g>
       <use style="stroke:#000000;stroke-width:0.8;" x="57.6" xlink:href="#md5013d0dc8" y="174.708725"/>
      </g>
     </g>
     <g id="text_11">
      <!-- 0.6 -->
      <g transform="translate(34.696875 178.507943)scale(0.1 -0.1)">
       <use xlink:href="#DejaVuSans-30"/>
       <use x="63.623047" xlink:href="#DejaVuSans-2e"/>
       <use x="95.410156" xlink:href="#DejaVuSans-36"/>
      </g>
     </g>
    </g>
    <g id="ytick_6">
     <g id="line2d_12">
      <g>
       <use style="stroke:#000000;stroke-width:0.8;" x="57.6" xlink:href="#md5013d0dc8" y="142.015879"/>
      </g>
     </g>
     <g id="text_12">
      <!-- 0.7 -->
      <defs>
       <path d="M 8.203125 72.90625 
L 55.078125 72.90625 
L 55.078125 68.703125 
L 28.609375 0 
L 18.3125 0 
L 43.21875 64.59375 
L 8.203125 64.59375 
z
" id="DejaVuSans-37"/>
      </defs>
      <g transform="translate(34.696875 145.815098)scale(0.1 -0.1)">
       <use xlink:href="#DejaVuSans-30"/>
       <use x="63.623047" xlink:href="#DejaVuSans-2e"/>
       <use x="95.410156" xlink:href="#DejaVuSans-37"/>
      </g>
     </g>
    </g>
    <g id="ytick_7">
     <g id="line2d_13">
      <g>
       <use style="stroke:#000000;stroke-width:0.8;" x="57.6" xlink:href="#md5013d0dc8" y="109.323033"/>
      </g>
     </g>
     <g id="text_13">
      <!-- 0.8 -->
      <g transform="translate(34.696875 113.122252)scale(0.1 -0.1)">
       <use xlink:href="#DejaVuSans-30"/>
       <use x="63.623047" xlink:href="#DejaVuSans-2e"/>
       <use x="95.410156" xlink:href="#DejaVuSans-38"/>
      </g>
     </g>
    </g>
    <g id="ytick_8">
     <g id="line2d_14">
      <g>
       <use style="stroke:#000000;stroke-width:0.8;" x="57.6" xlink:href="#md5013d0dc8" y="76.630187"/>
      </g>
     </g>
     <g id="text_14">
      <!-- 0.9 -->
      <defs>
       <path d="M 10.984375 1.515625 
L 10.984375 10.5 
Q 14.703125 8.734375 18.5 7.8125 
Q 22.3125 6.890625 25.984375 6.890625 
Q 35.75 6.890625 40.890625 13.453125 
Q 46.046875 20.015625 46.78125 33.40625 
Q 43.953125 29.203125 39.59375 26.953125 
Q 35.25 24.703125 29.984375 24.703125 
Q 19.046875 24.703125 12.671875 31.3125 
Q 6.296875 37.9375 6.296875 49.421875 
Q 6.296875 60.640625 12.9375 67.421875 
Q 19.578125 74.21875 30.609375 74.21875 
Q 43.265625 74.21875 49.921875 64.515625 
Q 56.59375 54.828125 56.59375 36.375 
Q 56.59375 19.140625 48.40625 8.859375 
Q 40.234375 -1.421875 26.421875 -1.421875 
Q 22.703125 -1.421875 18.890625 -0.6875 
Q 15.09375 0.046875 10.984375 1.515625 
M 30.609375 32.421875 
Q 37.25 32.421875 41.125 36.953125 
Q 45.015625 41.5 45.015625 49.421875 
Q 45.015625 57.28125 41.125 61.84375 
Q 37.25 66.40625 30.609375 66.40625 
Q 23.96875 66.40625 20.09375 61.84375 
Q 16.21875 57.28125 16.21875 49.421875 
Q 16.21875 41.5 20.09375 36.953125 
Q 23.96875 32.421875 30.609375 32.421875 
" id="DejaVuSans-39"/>
      </defs>
      <g transform="translate(34.696875 80.429406)scale(0.1 -0.1)">
       <use xlink:href="#DejaVuSans-30"/>
       <use x="63.623047" xlink:href="#DejaVuSans-2e"/>
       <use x="95.410156" xlink:href="#DejaVuSans-39"/>
      </g>
     </g>
    </g>
    <g id="ytick_9">
     <g id="line2d_15">
      <g>
       <use style="stroke:#000000;stroke-width:0.8;" x="57.6" xlink:href="#md5013d0dc8" y="43.937341"/>
      </g>
     </g>
     <g id="text_15">
      <!-- 1.0 -->
      <g transform="translate(34.696875 47.73656)scale(0.1 -0.1)">
       <use xlink:href="#DejaVuSans-31"/>
       <use x="63.623047" xlink:href="#DejaVuSans-2e"/>
       <use x="95.410156" xlink:href="#DejaVuSans-30"/>
      </g>
     </g>
    </g>
   </g>
   <g id="line2d_16">
    <path clip-path="url(#p255234d4b4)" d="M 73.832727 92.258675 
L 75.202578 93.356828 
L 76.572428 85.669432 
L 77.942278 99.016613 
L 79.312129 91.667262 
L 80.681979 94.201611 
L 82.05183 90.231392 
L 83.42168 95.722155 
L 84.79153 86.176171 
L 86.161381 82.543669 
L 87.531231 76.123448 
L 88.901082 72.659641 
L 90.270932 66.662139 
L 91.640783 68.604748 
L 93.010633 69.196488 
L 94.380483 73.504751 
L 95.750334 67.253225 
L 97.120184 65.056593 
L 98.490035 56.102349 
L 99.859885 56.609089 
L 101.229735 53.905717 
L 102.599586 61.001699 
L 103.969436 54.835175 
L 105.339287 53.568 
L 106.709137 53.905717 
L 108.078987 59.396807 
L 109.448838 72.659641 
L 110.818688 75.278665 
L 112.188539 109.914447 
L 113.558389 112.448796 
L 116.29809 127.654566 
L 117.66794 129.682176 
L 119.037791 121.065323 
L 120.407641 113.800645 
L 121.777491 101.128898 
L 123.147342 105.183792 
L 124.517192 99.101288 
L 125.887043 96.228895 
L 127.256893 94.370633 
L 128.626743 94.96172 
L 129.996594 96.144547 
L 131.366444 98.425527 
L 132.736295 99.608354 
L 134.106145 106.704336 
L 135.475995 105.183792 
L 138.215696 95.468786 
L 139.585547 104.508031 
L 140.955397 102.396073 
L 142.325247 104.677053 
L 143.695098 103.409878 
L 145.064948 108.140206 
L 146.434799 97.411722 
L 147.804649 97.749439 
L 149.174499 95.975525 
L 150.54435 93.187806 
L 151.9142 97.580744 
L 153.284051 91.075848 
L 154.653901 79.164537 
L 156.023751 81.107799 
L 157.393602 90.569109 
L 158.763452 82.2903 
L 160.133303 82.036603 
L 161.503153 80.516059 
L 162.873003 72.659641 
L 165.612704 85.078019 
L 166.982555 88.203782 
L 168.352405 86.514215 
L 169.722255 88.964217 
L 171.092106 86.345193 
L 172.461956 86.683237 
L 173.831807 77.813014 
L 175.201657 77.559645 
L 176.571507 78.657798 
L 177.941358 84.655627 
L 179.311208 95.384438 
L 180.681059 110.674555 
L 182.050909 110.167816 
L 183.420759 109.492055 
L 184.79061 123.261955 
L 186.16046 105.01477 
L 187.530311 109.914447 
L 188.900161 134.159461 
L 190.270012 150.041319 
L 191.639862 148.18273 
L 193.009712 158.48915 
L 194.379563 157.306323 
L 195.749413 158.826867 
L 197.119264 156.968606 
L 198.489114 151.392841 
L 199.858964 147.00023 
L 201.228815 145.141642 
L 202.598665 145.141642 
L 203.968516 145.733055 
L 205.338366 152.490994 
L 206.708216 147.168925 
L 208.078067 171.414267 
L 209.447917 184.508405 
L 210.817768 181.128946 
L 212.187618 181.636012 
L 213.557468 172.512419 
L 216.297169 158.826867 
L 217.66702 158.48915 
L 219.03687 171.076223 
L 220.40672 177.749813 
L 221.776571 180.199815 
L 223.146421 184.423731 
L 224.516272 187.464819 
L 225.886122 186.451014 
L 227.255972 177.665466 
L 228.625823 183.409926 
L 229.995673 182.39612 
L 231.365524 181.974056 
L 232.735374 185.015144 
L 234.105224 178.763618 
L 235.475075 184.761775 
L 236.844925 185.352861 
L 238.214776 177.919162 
L 239.584626 182.565143 
L 240.954476 180.875576 
L 242.324327 177.074052 
L 243.694177 168.203829 
L 245.064028 161.783608 
L 246.433878 166.345568 
L 247.803728 166.683285 
L 249.173579 205.036243 
L 250.543429 226.746908 
L 251.91328 216.778533 
L 253.28313 204.529504 
L 254.65298 210.104942 
L 256.022831 216.356141 
L 257.392681 233.336151 
L 258.762532 243.811593 
L 260.132382 245.669854 
L 261.502232 248.542248 
L 262.872083 257.074427 
L 264.241933 264.761822 
L 265.611784 256.229643 
L 266.981634 257.91921 
L 268.351484 255.131491 
L 269.721335 244.994093 
L 271.091185 239.080611 
L 272.461036 249.724748 
L 273.830886 242.206374 
L 275.200736 242.375396 
L 276.570587 238.40485 
L 277.940437 241.86833 
L 279.310288 232.914087 
L 280.680138 216.187446 
L 282.049988 210.696356 
L 283.419839 221.678209 
L 284.789689 215.342336 
L 286.15954 205.120591 
L 287.52939 216.018424 
L 288.899241 215.595705 
L 290.269091 218.552773 
L 291.638941 213.484075 
L 293.008792 210.949725 
L 294.378642 196.673086 
L 295.748493 200.052219 
L 297.118343 202.586241 
L 298.488193 188.14058 
L 301.227894 178.679271 
L 302.597745 179.777424 
L 303.967595 192.026452 
L 305.337445 182.39612 
L 306.707296 186.95808 
L 308.077146 189.238733 
L 309.446997 186.704384 
L 310.816847 183.663295 
L 312.186697 184.170034 
L 313.556548 180.453185 
L 314.926398 186.873406 
L 316.296249 223.874842 
L 317.666099 221.340492 
L 319.035949 221.847231 
L 320.4058 219.566252 
L 321.77565 219.819948 
L 323.145501 219.904296 
L 324.515351 223.621472 
L 325.885201 222.100601 
L 327.255052 232.829412 
L 328.624902 229.45028 
L 329.994753 226.831583 
L 331.364603 225.311038 
L 332.734453 226.409191 
L 334.104304 220.157665 
L 335.474154 218.299077 
L 336.844005 223.030059 
L 338.213855 222.861037 
L 339.583705 220.411035 
L 340.953556 222.269623 
L 342.323406 228.858866 
L 343.693257 230.633107 
L 345.063107 227.591691 
L 346.432957 217.792338 
L 347.802808 225.986473 
L 349.172658 208.162006 
L 350.542509 217.369946 
L 351.912359 214.666902 
L 353.282209 212.301247 
L 354.65206 207.485918 
L 356.02191 205.627657 
L 357.391761 202.75559 
L 358.761611 202.248524 
L 360.131461 196.757434 
L 361.501312 247.866487 
L 362.871162 232.068977 
L 364.241013 234.518978 
L 365.610863 227.084952 
L 366.980713 224.043864 
L 368.350564 223.367776 
L 369.720414 212.2169 
L 371.090265 218.468426 
L 372.460115 222.692015 
L 373.829965 212.2169 
L 375.199816 207.739615 
L 376.569666 210.612008 
L 377.939517 203.93809 
L 379.309367 207.570593 
L 380.679217 207.232549 
L 382.049068 217.70799 
L 383.418918 221.002448 
L 384.788769 222.861037 
L 386.158619 231.393215 
L 387.52847 250.822901 
L 388.89832 265.860302 
L 390.26817 276.926503 
L 391.638021 265.184214 
L 393.007871 269.239108 
L 394.377722 268.648021 
L 395.747572 279.292158 
L 397.117422 288.41575 
L 398.487273 272.87161 
L 398.487273 272.87161 
" style="fill:none;stroke:#1f77b4;stroke-linecap:square;stroke-width:1.5;"/>
   </g>
   <g id="line2d_17">
    <path clip-path="url(#p255234d4b4)" d="M 73.832727 90.7431 
L 75.202578 92.250163 
L 76.572428 92.11127 
L 77.942278 89.662439 
L 79.312129 95.191689 
L 80.681979 93.097135 
L 82.05183 92.531742 
L 83.42168 92.443844 
L 84.79153 94.093784 
L 86.161381 87.368915 
L 87.531231 84.51517 
L 88.901082 80.441205 
L 90.270932 79.549875 
L 91.640783 77.919826 
L 93.010633 78.778232 
L 94.380483 76.671899 
L 95.750334 80.036726 
L 97.120184 75.773951 
L 98.490035 72.85758 
L 99.859885 73.181725 
L 101.229735 70.516473 
L 102.599586 72.666821 
L 103.969436 71.224113 
L 105.339287 70.537873 
L 106.709137 69.539592 
L 108.078987 70.99155 
L 109.448838 74.53339 
L 110.818688 80.010834 
L 112.188539 99.416464 
L 113.558389 106.5995 
L 114.928239 120.550783 
L 116.29809 115.491374 
L 117.66794 126.515107 
L 119.037791 122.954782 
L 120.407641 118.406996 
L 121.777491 107.064937 
L 123.147342 100.912923 
L 124.517192 102.130601 
L 125.887043 97.012985 
L 127.256893 94.083567 
L 128.626743 94.436695 
L 129.996594 93.829252 
L 131.366444 96.972708 
L 132.736295 97.74988 
L 134.106145 100.543212 
L 135.475995 104.858646 
L 136.845846 100.897127 
L 138.215696 98.434595 
L 139.585547 99.87634 
L 140.955397 100.743293 
L 142.325247 99.678555 
L 143.695098 104.027868 
L 145.064948 106.736497 
L 146.434799 95.00577 
L 147.804649 97.608651 
L 149.174499 96.875008 
L 150.54435 93.30341 
L 151.9142 97.70675 
L 153.284051 93.638976 
L 156.023751 81.815425 
L 157.393602 89.393968 
L 158.763452 89.025362 
L 160.133303 87.5648 
L 161.503153 83.843776 
L 162.873003 83.252211 
L 164.242854 82.52013 
L 165.612704 86.313789 
L 166.982555 89.615237 
L 168.352405 87.299066 
L 169.722255 88.819642 
L 171.092106 88.220369 
L 172.461956 86.359756 
L 173.831807 87.904969 
L 175.201657 82.493498 
L 177.941358 82.396161 
L 179.311208 88.518171 
L 180.681059 78.191566 
L 182.050909 119.906873 
L 183.420759 109.189438 
L 184.79061 107.655473 
L 186.16046 113.993834 
L 187.530311 96.325219 
L 188.900161 117.891384 
L 190.270012 141.328128 
L 191.639862 150.784294 
L 193.009712 148.487965 
L 194.379563 156.03398 
L 195.749413 159.036989 
L 197.119264 160.969447 
L 198.489114 154.822556 
L 199.858964 144.09762 
L 201.228815 145.467886 
L 202.598665 149.033631 
L 203.968516 145.821065 
L 205.338366 144.727319 
L 206.708216 147.505393 
L 208.078067 166.830973 
L 210.817768 186.159271 
L 212.187618 183.046413 
L 213.557468 178.549739 
L 214.927319 170.458385 
L 216.297169 165.0477 
L 217.66702 154.852518 
L 219.03687 163.580437 
L 220.40672 174.443596 
L 221.776571 177.123803 
L 223.146421 185.987546 
L 224.516272 187.874033 
L 225.886122 187.953029 
L 227.255972 186.187983 
L 228.625823 184.181989 
L 229.995673 185.346735 
L 231.365524 188.810381 
L 232.735374 185.284734 
L 234.105224 178.089284 
L 235.475075 184.253685 
L 236.844925 186.267141 
L 238.214776 187.618362 
L 239.584626 184.147712 
L 240.954476 178.588365 
L 242.324327 180.050135 
L 243.694177 179.374019 
L 245.064028 166.103265 
L 246.433878 160.50732 
L 247.803728 165.563895 
L 249.173579 171.674891 
L 250.543429 215.652509 
L 251.91328 226.096994 
L 253.28313 209.341896 
L 254.65298 210.863041 
L 256.022831 211.19698 
L 257.392681 221.319439 
L 258.762532 233.334899 
L 260.132382 243.582506 
L 261.502232 247.504708 
L 262.872083 250.969225 
L 264.241933 257.783938 
L 265.611784 261.922454 
L 266.981634 258.206407 
L 268.351484 253.879727 
L 269.721335 247.005322 
L 271.091185 237.84469 
L 272.461036 242.28223 
L 273.830886 243.86432 
L 275.200736 242.642869 
L 276.570587 238.737666 
L 277.940437 237.986029 
L 279.310288 239.083826 
L 280.680138 233.131684 
L 282.049988 221.398572 
L 283.419839 217.568354 
L 284.789689 212.608993 
L 287.52939 206.898045 
L 288.899241 213.153967 
L 290.269091 213.966049 
L 291.638941 217.31696 
L 293.008792 215.613263 
L 295.748493 194.670962 
L 297.118343 200.218654 
L 298.488193 197.19874 
L 299.858044 185.092785 
L 301.227894 185.387912 
L 302.597745 188.75441 
L 303.967595 190.782791 
L 305.337445 191.035085 
L 306.707296 190.789729 
L 308.077146 186.696625 
L 309.446997 190.055682 
L 310.816847 187.708497 
L 312.186697 183.946877 
L 313.556548 182.237308 
L 314.926398 184.216658 
L 316.296249 200.367289 
L 317.666099 219.558069 
L 319.035949 220.191238 
L 320.4058 221.395625 
L 321.77565 220.979782 
L 323.145501 223.261059 
L 324.515351 227.187918 
L 325.885201 225.036234 
L 327.255052 224.16388 
L 328.624902 231.270248 
L 329.994753 224.793833 
L 331.364603 226.731913 
L 332.734453 227.362311 
L 334.104304 223.351782 
L 335.474154 221.219997 
L 336.844005 218.868494 
L 338.213855 222.828637 
L 339.583705 218.402469 
L 340.953556 222.344491 
L 343.693257 227.324347 
L 345.063107 227.626489 
L 346.432957 225.341535 
L 347.802808 226.457498 
L 349.172658 219.457814 
L 350.542509 209.518888 
L 351.912359 214.114534 
L 353.282209 214.840387 
L 354.65206 213.773816 
L 356.02191 206.770516 
L 357.391761 205.605021 
L 358.761611 203.823336 
L 360.131461 200.754975 
L 361.501312 196.182542 
L 362.871162 232.546615 
L 364.241013 230.041026 
L 365.610863 232.769359 
L 366.980713 228.677575 
L 368.350564 225.947952 
L 369.720414 219.50391 
L 371.090265 217.950382 
L 372.460115 218.229068 
L 373.829965 218.02231 
L 375.199816 215.977076 
L 376.569666 210.830708 
L 377.939517 217.747929 
L 379.309367 213.493637 
L 380.679217 204.261104 
L 382.049068 214.384437 
L 383.418918 216.846972 
L 384.788769 227.688361 
L 386.158619 222.589553 
L 387.52847 236.054579 
L 390.26817 266.882243 
L 391.638021 263.698019 
L 393.007871 269.690187 
L 394.377722 270.73991 
L 395.747572 270.110181 
L 397.117422 276.824065 
L 398.487273 286.580723 
L 398.487273 286.580723 
" style="fill:none;stroke:#ff7f0e;stroke-linecap:square;stroke-width:1.5;"/>
   </g>
   <g id="line2d_18">
    <path clip-path="url(#p255234d4b4)" d="M 73.832727 93.922364 
L 75.202578 95.938608 
L 76.572428 96.027027 
L 77.942278 93.515179 
L 79.312129 98.325133 
L 80.681979 96.578278 
L 82.05183 96.51541 
L 83.42168 95.800974 
L 84.79153 97.559251 
L 86.161381 92.835035 
L 87.531231 89.661942 
L 88.901082 86.029753 
L 90.270932 84.650019 
L 91.640783 82.950932 
L 93.010633 83.62497 
L 94.380483 82.358528 
L 95.750334 84.418839 
L 97.120184 81.51277 
L 98.490035 79.043353 
L 99.859885 78.223411 
L 101.229735 76.703155 
L 102.599586 77.512063 
L 103.969436 77.544847 
L 105.339287 76.267435 
L 106.709137 75.560683 
L 108.078987 76.492579 
L 109.448838 79.201017 
L 110.818688 84.272751 
L 112.188539 104.059943 
L 113.558389 109.723082 
L 114.928239 124.447356 
L 116.29809 118.311586 
L 117.66794 129.205253 
L 120.407641 120.760583 
L 121.777491 112.254171 
L 123.147342 104.644144 
L 124.517192 104.785429 
L 125.887043 101.345896 
L 127.256893 98.421821 
L 128.626743 97.730433 
L 129.996594 97.54026 
L 131.366444 99.476608 
L 132.736295 100.701875 
L 134.106145 102.6431 
L 135.475995 106.83658 
L 136.845846 104.626678 
L 138.215696 101.959767 
L 139.585547 102.011926 
L 140.955397 103.913978 
L 142.325247 102.888228 
L 145.064948 108.654772 
L 146.434799 103.101395 
L 147.804649 99.962252 
L 149.174499 100.002331 
L 150.54435 97.944952 
L 151.9142 99.630195 
L 153.284051 98.607594 
L 154.653901 93.734085 
L 156.023751 87.820816 
L 157.393602 91.749135 
L 158.763452 93.550981 
L 161.503153 89.303541 
L 164.242854 86.847472 
L 166.982555 93.140276 
L 168.352405 92.270586 
L 171.092106 92.657042 
L 172.461956 91.158551 
L 173.831807 91.768282 
L 175.201657 87.885324 
L 176.571507 87.152062 
L 177.941358 87.200401 
L 179.311208 91.502945 
L 180.681059 88.970319 
L 182.050909 128.617516 
L 183.420759 111.918279 
L 184.79061 110.065585 
L 186.16046 116.036982 
L 187.530311 104.386669 
L 188.900161 122.751129 
L 190.270012 148.059284 
L 191.639862 154.703152 
L 193.009712 151.019445 
L 194.379563 159.091395 
L 195.749413 162.199613 
L 197.119264 163.961032 
L 198.489114 157.030826 
L 199.858964 147.706894 
L 201.228815 148.199161 
L 202.598665 152.622879 
L 203.968516 148.350287 
L 205.338366 147.145237 
L 206.708216 149.843312 
L 208.078067 174.230346 
L 209.447917 180.956971 
L 210.817768 189.30501 
L 212.187618 185.267935 
L 213.557468 180.73126 
L 214.927319 173.163978 
L 216.297169 167.408633 
L 217.66702 157.734838 
L 219.03687 167.623131 
L 220.40672 178.41325 
L 221.776571 179.604828 
L 223.146421 189.643081 
L 224.516272 190.473841 
L 225.886122 190.134965 
L 227.255972 188.275545 
L 228.625823 186.963137 
L 229.995673 187.851909 
L 231.365524 191.913388 
L 232.735374 187.528647 
L 234.105224 181.590545 
L 235.475075 187.701369 
L 236.844925 188.767741 
L 238.214776 190.072258 
L 239.584626 186.717885 
L 240.954476 181.075436 
L 242.324327 182.446895 
L 243.694177 181.872444 
L 245.064028 169.502616 
L 246.433878 162.847177 
L 247.803728 168.438046 
L 249.173579 175.386669 
L 250.543429 223.462554 
L 251.91328 229.963721 
L 253.28313 220.259996 
L 254.65298 213.414796 
L 256.022831 213.733903 
L 257.392681 224.255493 
L 258.762532 237.157381 
L 260.132382 247.454218 
L 261.502232 252.123243 
L 262.872083 255.257093 
L 264.241933 262.654171 
L 265.611784 267.869984 
L 266.981634 265.871767 
L 269.721335 256.782267 
L 271.091185 246.833926 
L 272.461036 245.738511 
L 273.830886 250.08387 
L 275.200736 248.318145 
L 277.940437 242.937598 
L 279.310288 244.02979 
L 280.680138 239.769779 
L 282.049988 227.43371 
L 283.419839 219.966495 
L 284.789689 217.980506 
L 286.15954 214.587108 
L 287.52939 209.831869 
L 288.899241 216.245942 
L 290.269091 217.368386 
L 291.638941 220.444619 
L 293.008792 218.825781 
L 294.378642 211.397534 
L 295.748493 199.235464 
L 297.118343 202.633416 
L 298.488193 200.75271 
L 299.858044 189.625183 
L 301.227894 187.784662 
L 302.597745 192.512668 
L 303.967595 194.534746 
L 305.337445 193.306329 
L 306.707296 193.786824 
L 308.077146 188.789964 
L 309.446997 192.50248 
L 310.816847 189.795548 
L 312.186697 186.018624 
L 313.556548 184.424836 
L 314.926398 186.929077 
L 317.666099 224.781154 
L 319.035949 224.208693 
L 320.4058 224.64985 
L 321.77565 224.303349 
L 323.145501 225.849815 
L 324.515351 229.914212 
L 325.885201 229.276172 
L 327.255052 227.603198 
L 328.624902 234.958808 
L 329.994753 232.148178 
L 331.364603 230.016016 
L 332.734453 230.927557 
L 334.104304 228.645195 
L 335.474154 224.921509 
L 336.844005 222.478293 
L 338.213855 225.890225 
L 339.583705 223.742164 
L 340.953556 225.047982 
L 342.323406 227.707744 
L 343.693257 231.060274 
L 345.063107 232.25552 
L 346.432957 230.238743 
L 347.802808 229.081354 
L 349.172658 225.998381 
L 350.542509 214.464313 
L 351.912359 217.317558 
L 353.282209 217.929788 
L 354.65206 216.676336 
L 356.02191 210.808599 
L 357.391761 208.1984 
L 358.761611 206.201343 
L 360.131461 203.595062 
L 361.501312 199.05559 
L 362.871162 240.675001 
L 365.610863 236.552086 
L 366.980713 234.146782 
L 368.350564 229.829512 
L 371.090265 220.541958 
L 372.460115 221.295873 
L 373.829965 222.222719 
L 375.199816 219.019288 
L 376.569666 213.831668 
L 377.939517 220.563959 
L 379.309367 216.47131 
L 380.679217 208.984206 
L 382.049068 217.53028 
L 383.418918 220.013819 
L 384.788769 230.712889 
L 386.158619 228.429121 
L 387.52847 239.591458 
L 390.26817 272.562633 
L 391.638021 275.911025 
L 393.007871 276.087306 
L 394.377722 278.612291 
L 395.747572 277.083083 
L 397.117422 284.736475 
L 398.487273 295.488 
L 398.487273 295.488 
" style="fill:none;stroke:#2ca02c;stroke-linecap:square;stroke-width:1.5;"/>
   </g>
   <g id="line2d_19">
    <path clip-path="url(#p255234d4b4)" d="M 73.832727 87.234984 
L 75.202578 88.915302 
L 76.572428 88.682632 
L 77.942278 86.190019 
L 79.312129 91.651012 
L 80.681979 89.736296 
L 82.05183 89.085217 
L 83.42168 89.095946 
L 84.79153 90.770079 
L 86.161381 83.364097 
L 87.531231 80.481608 
L 88.901082 76.132022 
L 90.270932 75.494049 
L 91.640783 73.832485 
L 93.010633 74.87953 
L 94.380483 72.266519 
L 95.750334 76.238497 
L 97.120184 71.199401 
L 98.490035 68.034339 
L 99.859885 69.064678 
L 101.229735 65.766447 
L 102.599586 68.716499 
L 103.969436 66.50911 
L 105.339287 66.023859 
L 106.709137 64.944903 
L 108.078987 66.768905 
L 109.448838 70.636123 
L 110.818688 76.290568 
L 112.188539 90.146402 
L 113.558389 102.131438 
L 114.928239 112.716718 
L 116.29809 112.282642 
L 117.66794 120.59955 
L 119.037791 119.626307 
L 120.407641 114.830008 
L 121.777491 103.433227 
L 123.147342 97.48024 
L 124.517192 98.961049 
L 125.887043 93.574142 
L 127.256893 90.604706 
L 128.626743 91.130355 
L 129.996594 90.520271 
L 131.366444 93.781061 
L 132.736295 94.467878 
L 134.106145 97.280683 
L 135.475995 101.650544 
L 136.845846 97.619742 
L 138.215696 95.170369 
L 139.585547 96.375572 
L 140.955397 97.366257 
L 142.325247 96.456578 
L 143.695098 100.659897 
L 145.064948 102.751336 
L 146.434799 89.917925 
L 147.804649 94.260363 
L 149.174499 93.619893 
L 150.54435 89.731243 
L 151.9142 94.257278 
L 153.284051 89.895884 
L 156.023751 77.458545 
L 157.393602 85.816887 
L 158.763452 85.354479 
L 160.133303 84.03274 
L 161.503153 79.670745 
L 162.873003 79.36112 
L 164.242854 78.79719 
L 165.612704 82.682217 
L 166.982555 86.018189 
L 168.352405 83.36602 
L 169.722255 85.464205 
L 171.092106 84.543257 
L 172.461956 82.523612 
L 173.831807 84.448303 
L 175.201657 78.304021 
L 176.571507 78.6067 
L 177.941358 78.522247 
L 179.311208 85.089952 
L 180.681059 71.779668 
L 182.050909 103.226486 
L 183.420759 105.866117 
L 184.79061 104.330442 
L 186.16046 110.563863 
L 187.530311 91.373209 
L 188.900161 108.228096 
L 190.270012 128.460722 
L 191.639862 143.430405 
L 193.009712 143.864074 
L 194.379563 150.149956 
L 195.749413 152.841047 
L 197.119264 155.124907 
L 198.489114 150.95192 
L 199.858964 140.701953 
L 201.228815 140.214313 
L 202.598665 142.501046 
L 203.968516 141.297662 
L 205.338366 140.3131 
L 206.708216 142.923297 
L 208.078067 151.560014 
L 209.447917 168.81132 
L 210.817768 178.857355 
L 212.187618 178.906009 
L 213.557468 175.088414 
L 214.927319 166.854353 
L 216.297169 160.727219 
L 217.66702 151.466259 
L 219.03687 155.793183 
L 220.40672 166.044157 
L 221.776571 172.021269 
L 223.146421 177.013614 
L 224.516272 182.749173 
L 225.886122 183.946563 
L 227.255972 182.462573 
L 228.625823 178.728205 
L 229.995673 180.684275 
L 231.365524 182.398439 
L 232.735374 181.544723 
L 234.105224 175.328581 
L 235.475075 176.060543 
L 236.844925 181.316825 
L 238.214776 182.714873 
L 239.584626 179.507304 
L 240.954476 175.878733 
L 242.324327 174.866711 
L 243.694177 174.246213 
L 245.064028 162.924361 
L 246.433878 156.363268 
L 247.803728 159.811548 
L 249.173579 164.336057 
L 251.91328 223.308616 
L 253.28313 204.339794 
L 254.65298 206.976921 
L 256.022831 209.213483 
L 257.392681 216.235127 
L 258.762532 229.902766 
L 260.132382 241.027278 
L 261.502232 245.162401 
L 262.872083 248.190696 
L 264.241933 253.882438 
L 265.611784 258.093269 
L 266.981634 254.237508 
L 268.351484 250.80703 
L 269.721335 243.24499 
L 271.091185 233.764537 
L 272.461036 239.799549 
L 273.830886 241.145283 
L 275.200736 240.199802 
L 276.570587 236.083381 
L 277.940437 235.83325 
L 279.310288 236.741735 
L 280.680138 230.46993 
L 282.049988 218.614818 
L 283.419839 215.55049 
L 284.789689 209.191868 
L 286.15954 206.745771 
L 287.52939 204.588665 
L 288.899241 210.312562 
L 290.269091 211.874225 
L 291.638941 215.326534 
L 293.008792 213.704353 
L 294.378642 202.148771 
L 295.748493 191.763209 
L 297.118343 195.010144 
L 298.488193 194.807467 
L 299.858044 181.899339 
L 301.227894 180.28655 
L 302.597745 181.513783 
L 303.967595 184.401343 
L 305.337445 188.043581 
L 306.707296 185.455123 
L 308.077146 183.889315 
L 309.446997 184.930462 
L 310.816847 183.960098 
L 312.186697 180.236303 
L 313.556548 178.541903 
L 314.926398 178.221451 
L 316.296249 187.859341 
L 317.666099 212.709121 
L 319.035949 218.137419 
L 320.4058 219.386476 
L 321.77565 219.087574 
L 323.145501 221.362266 
L 324.515351 224.535134 
L 325.885201 223.125011 
L 327.255052 222.36784 
L 328.624902 228.975967 
L 329.994753 221.617646 
L 331.364603 224.787095 
L 332.734453 225.577269 
L 334.104304 220.93616 
L 335.474154 219.298028 
L 336.844005 216.900254 
L 338.213855 220.840119 
L 339.583705 215.682757 
L 340.953556 220.124407 
L 342.323406 223.067594 
L 343.693257 225.296649 
L 345.063107 225.388905 
L 346.432957 223.096919 
L 347.802808 224.176093 
L 349.172658 216.261371 
L 350.542509 206.804399 
L 351.912359 211.674453 
L 353.282209 212.866587 
L 354.65206 211.946813 
L 356.02191 204.315204 
L 357.391761 203.475448 
L 358.761611 201.518763 
L 360.131461 198.767583 
L 361.501312 193.687039 
L 362.871162 221.088799 
L 364.241013 226.616246 
L 365.610863 230.716392 
L 366.980713 226.400195 
L 368.350564 224.164936 
L 369.720414 216.696105 
L 371.090265 215.894029 
L 372.460115 216.310809 
L 373.829965 215.589943 
L 375.199816 214.003004 
L 376.569666 208.897907 
L 377.939517 213.163544 
L 379.309367 211.156461 
L 380.679217 201.560397 
L 382.049068 207.583348 
L 383.418918 214.78173 
L 384.788769 222.787667 
L 386.158619 220.056224 
L 387.52847 230.581167 
L 388.89832 246.971285 
L 390.26817 260.264121 
L 391.638021 258.897799 
L 393.007871 263.593397 
L 394.377722 264.384997 
L 395.747572 264.286196 
L 397.117422 269.534049 
L 398.487273 276.756598 
L 398.487273 276.756598 
" style="fill:none;stroke:#d62728;stroke-linecap:square;stroke-width:1.5;"/>
   </g>
   <g id="patch_3">
    <path d="M 57.6 307.584 
L 57.6 41.472 
" style="fill:none;stroke:#000000;stroke-linecap:square;stroke-linejoin:miter;stroke-width:0.8;"/>
   </g>
   <g id="patch_4">
    <path d="M 414.72 307.584 
L 414.72 41.472 
" style="fill:none;stroke:#000000;stroke-linecap:square;stroke-linejoin:miter;stroke-width:0.8;"/>
   </g>
   <g id="patch_5">
    <path d="M 57.6 307.584 
L 414.72 307.584 
" style="fill:none;stroke:#000000;stroke-linecap:square;stroke-linejoin:miter;stroke-width:0.8;"/>
   </g>
   <g id="patch_6">
    <path d="M 57.6 41.472 
L 414.72 41.472 
" style="fill:none;stroke:#000000;stroke-linecap:square;stroke-linejoin:miter;stroke-width:0.8;"/>
   </g>
   <g id="text_16">
    <!-- Plot of Train Data vs MCMC Uncertainty  -->
    <defs>
     <path d="M 19.671875 64.796875 
L 19.671875 37.40625 
L 32.078125 37.40625 
Q 38.96875 37.40625 42.71875 40.96875 
Q 46.484375 44.53125 46.484375 51.125 
Q 46.484375 57.671875 42.71875 61.234375 
Q 38.96875 64.796875 32.078125 64.796875 
z
M 9.8125 72.90625 
L 32.078125 72.90625 
Q 44.34375 72.90625 50.609375 67.359375 
Q 56.890625 61.8125 56.890625 51.125 
Q 56.890625 40.328125 50.609375 34.8125 
Q 44.34375 29.296875 32.078125 29.296875 
L 19.671875 29.296875 
L 19.671875 0 
L 9.8125 0 
z
" id="DejaVuSans-50"/>
     <path d="M 9.421875 75.984375 
L 18.40625 75.984375 
L 18.40625 0 
L 9.421875 0 
z
" id="DejaVuSans-6c"/>
     <path d="M 30.609375 48.390625 
Q 23.390625 48.390625 19.1875 42.75 
Q 14.984375 37.109375 14.984375 27.296875 
Q 14.984375 17.484375 19.15625 11.84375 
Q 23.34375 6.203125 30.609375 6.203125 
Q 37.796875 6.203125 41.984375 11.859375 
Q 46.1875 17.53125 46.1875 27.296875 
Q 46.1875 37.015625 41.984375 42.703125 
Q 37.796875 48.390625 30.609375 48.390625 
M 30.609375 56 
Q 42.328125 56 49.015625 48.375 
Q 55.71875 40.765625 55.71875 27.296875 
Q 55.71875 13.875 49.015625 6.21875 
Q 42.328125 -1.421875 30.609375 -1.421875 
Q 18.84375 -1.421875 12.171875 6.21875 
Q 5.515625 13.875 5.515625 27.296875 
Q 5.515625 40.765625 12.171875 48.375 
Q 18.84375 56 30.609375 56 
" id="DejaVuSans-6f"/>
     <path d="M 18.3125 70.21875 
L 18.3125 54.6875 
L 36.8125 54.6875 
L 36.8125 47.703125 
L 18.3125 47.703125 
L 18.3125 18.015625 
Q 18.3125 11.328125 20.140625 9.421875 
Q 21.96875 7.515625 27.59375 7.515625 
L 36.8125 7.515625 
L 36.8125 0 
L 27.59375 0 
Q 17.1875 0 13.234375 3.875 
Q 9.28125 7.765625 9.28125 18.015625 
L 9.28125 47.703125 
L 2.6875 47.703125 
L 2.6875 54.6875 
L 9.28125 54.6875 
L 9.28125 70.21875 
z
" id="DejaVuSans-74"/>
     <path id="DejaVuSans-20"/>
     <path d="M 37.109375 75.984375 
L 37.109375 68.5 
L 28.515625 68.5 
Q 23.6875 68.5 21.796875 66.546875 
Q 19.921875 64.59375 19.921875 59.515625 
L 19.921875 54.6875 
L 34.71875 54.6875 
L 34.71875 47.703125 
L 19.921875 47.703125 
L 19.921875 0 
L 10.890625 0 
L 10.890625 47.703125 
L 2.296875 47.703125 
L 2.296875 54.6875 
L 10.890625 54.6875 
L 10.890625 58.5 
Q 10.890625 67.625 15.140625 71.796875 
Q 19.390625 75.984375 28.609375 75.984375 
z
" id="DejaVuSans-66"/>
     <path d="M -0.296875 72.90625 
L 61.375 72.90625 
L 61.375 64.59375 
L 35.5 64.59375 
L 35.5 0 
L 25.59375 0 
L 25.59375 64.59375 
L -0.296875 64.59375 
z
" id="DejaVuSans-54"/>
     <path d="M 41.109375 46.296875 
Q 39.59375 47.171875 37.8125 47.578125 
Q 36.03125 48 33.890625 48 
Q 26.265625 48 22.1875 43.046875 
Q 18.109375 38.09375 18.109375 28.8125 
L 18.109375 0 
L 9.078125 0 
L 9.078125 54.6875 
L 18.109375 54.6875 
L 18.109375 46.1875 
Q 20.953125 51.171875 25.484375 53.578125 
Q 30.03125 56 36.53125 56 
Q 37.453125 56 38.578125 55.875 
Q 39.703125 55.765625 41.0625 55.515625 
z
" id="DejaVuSans-72"/>
     <path d="M 34.28125 27.484375 
Q 23.390625 27.484375 19.1875 25 
Q 14.984375 22.515625 14.984375 16.5 
Q 14.984375 11.71875 18.140625 8.90625 
Q 21.296875 6.109375 26.703125 6.109375 
Q 34.1875 6.109375 38.703125 11.40625 
Q 43.21875 16.703125 43.21875 25.484375 
L 43.21875 27.484375 
z
M 52.203125 31.203125 
L 52.203125 0 
L 43.21875 0 
L 43.21875 8.296875 
Q 40.140625 3.328125 35.546875 0.953125 
Q 30.953125 -1.421875 24.3125 -1.421875 
Q 15.921875 -1.421875 10.953125 3.296875 
Q 6 8.015625 6 15.921875 
Q 6 25.140625 12.171875 29.828125 
Q 18.359375 34.515625 30.609375 34.515625 
L 43.21875 34.515625 
L 43.21875 35.40625 
Q 43.21875 41.609375 39.140625 45 
Q 35.0625 48.390625 27.6875 48.390625 
Q 23 48.390625 18.546875 47.265625 
Q 14.109375 46.140625 10.015625 43.890625 
L 10.015625 52.203125 
Q 14.9375 54.109375 19.578125 55.046875 
Q 24.21875 56 28.609375 56 
Q 40.484375 56 46.34375 49.84375 
Q 52.203125 43.703125 52.203125 31.203125 
" id="DejaVuSans-61"/>
     <path d="M 9.421875 54.6875 
L 18.40625 54.6875 
L 18.40625 0 
L 9.421875 0 
z
M 9.421875 75.984375 
L 18.40625 75.984375 
L 18.40625 64.59375 
L 9.421875 64.59375 
z
" id="DejaVuSans-69"/>
     <path d="M 54.890625 33.015625 
L 54.890625 0 
L 45.90625 0 
L 45.90625 32.71875 
Q 45.90625 40.484375 42.875 44.328125 
Q 39.84375 48.1875 33.796875 48.1875 
Q 26.515625 48.1875 22.3125 43.546875 
Q 18.109375 38.921875 18.109375 30.90625 
L 18.109375 0 
L 9.078125 0 
L 9.078125 54.6875 
L 18.109375 54.6875 
L 18.109375 46.1875 
Q 21.34375 51.125 25.703125 53.5625 
Q 30.078125 56 35.796875 56 
Q 45.21875 56 50.046875 50.171875 
Q 54.890625 44.34375 54.890625 33.015625 
" id="DejaVuSans-6e"/>
     <path d="M 19.671875 64.796875 
L 19.671875 8.109375 
L 31.59375 8.109375 
Q 46.6875 8.109375 53.6875 14.9375 
Q 60.6875 21.78125 60.6875 36.53125 
Q 60.6875 51.171875 53.6875 57.984375 
Q 46.6875 64.796875 31.59375 64.796875 
z
M 9.8125 72.90625 
L 30.078125 72.90625 
Q 51.265625 72.90625 61.171875 64.09375 
Q 71.09375 55.28125 71.09375 36.53125 
Q 71.09375 17.671875 61.125 8.828125 
Q 51.171875 0 30.078125 0 
L 9.8125 0 
z
" id="DejaVuSans-44"/>
     <path d="M 2.984375 54.6875 
L 12.5 54.6875 
L 29.59375 8.796875 
L 46.6875 54.6875 
L 56.203125 54.6875 
L 35.6875 0 
L 23.484375 0 
z
" id="DejaVuSans-76"/>
     <path d="M 44.28125 53.078125 
L 44.28125 44.578125 
Q 40.484375 46.53125 36.375 47.5 
Q 32.28125 48.484375 27.875 48.484375 
Q 21.1875 48.484375 17.84375 46.4375 
Q 14.5 44.390625 14.5 40.28125 
Q 14.5 37.15625 16.890625 35.375 
Q 19.28125 33.59375 26.515625 31.984375 
L 29.59375 31.296875 
Q 39.15625 29.25 43.1875 25.515625 
Q 47.21875 21.78125 47.21875 15.09375 
Q 47.21875 7.46875 41.1875 3.015625 
Q 35.15625 -1.421875 24.609375 -1.421875 
Q 20.21875 -1.421875 15.453125 -0.5625 
Q 10.6875 0.296875 5.421875 2 
L 5.421875 11.28125 
Q 10.40625 8.6875 15.234375 7.390625 
Q 20.0625 6.109375 24.8125 6.109375 
Q 31.15625 6.109375 34.5625 8.28125 
Q 37.984375 10.453125 37.984375 14.40625 
Q 37.984375 18.0625 35.515625 20.015625 
Q 33.0625 21.96875 24.703125 23.78125 
L 21.578125 24.515625 
Q 13.234375 26.265625 9.515625 29.90625 
Q 5.8125 33.546875 5.8125 39.890625 
Q 5.8125 47.609375 11.28125 51.796875 
Q 16.75 56 26.8125 56 
Q 31.78125 56 36.171875 55.265625 
Q 40.578125 54.546875 44.28125 53.078125 
" id="DejaVuSans-73"/>
     <path d="M 9.8125 72.90625 
L 24.515625 72.90625 
L 43.109375 23.296875 
L 61.8125 72.90625 
L 76.515625 72.90625 
L 76.515625 0 
L 66.890625 0 
L 66.890625 64.015625 
L 48.09375 14.015625 
L 38.1875 14.015625 
L 19.390625 64.015625 
L 19.390625 0 
L 9.8125 0 
z
" id="DejaVuSans-4d"/>
     <path d="M 64.40625 67.28125 
L 64.40625 56.890625 
Q 59.421875 61.53125 53.78125 63.8125 
Q 48.140625 66.109375 41.796875 66.109375 
Q 29.296875 66.109375 22.65625 58.46875 
Q 16.015625 50.828125 16.015625 36.375 
Q 16.015625 21.96875 22.65625 14.328125 
Q 29.296875 6.6875 41.796875 6.6875 
Q 48.140625 6.6875 53.78125 8.984375 
Q 59.421875 11.28125 64.40625 15.921875 
L 64.40625 5.609375 
Q 59.234375 2.09375 53.4375 0.328125 
Q 47.65625 -1.421875 41.21875 -1.421875 
Q 24.65625 -1.421875 15.125 8.703125 
Q 5.609375 18.84375 5.609375 36.375 
Q 5.609375 53.953125 15.125 64.078125 
Q 24.65625 74.21875 41.21875 74.21875 
Q 47.75 74.21875 53.53125 72.484375 
Q 59.328125 70.75 64.40625 67.28125 
" id="DejaVuSans-43"/>
     <path d="M 8.6875 72.90625 
L 18.609375 72.90625 
L 18.609375 28.609375 
Q 18.609375 16.890625 22.84375 11.734375 
Q 27.09375 6.59375 36.625 6.59375 
Q 46.09375 6.59375 50.34375 11.734375 
Q 54.59375 16.890625 54.59375 28.609375 
L 54.59375 72.90625 
L 64.5 72.90625 
L 64.5 27.390625 
Q 64.5 13.140625 57.4375 5.859375 
Q 50.390625 -1.421875 36.625 -1.421875 
Q 22.796875 -1.421875 15.734375 5.859375 
Q 8.6875 13.140625 8.6875 27.390625 
z
" id="DejaVuSans-55"/>
     <path d="M 48.78125 52.59375 
L 48.78125 44.1875 
Q 44.96875 46.296875 41.140625 47.34375 
Q 37.3125 48.390625 33.40625 48.390625 
Q 24.65625 48.390625 19.8125 42.84375 
Q 14.984375 37.3125 14.984375 27.296875 
Q 14.984375 17.28125 19.8125 11.734375 
Q 24.65625 6.203125 33.40625 6.203125 
Q 37.3125 6.203125 41.140625 7.25 
Q 44.96875 8.296875 48.78125 10.40625 
L 48.78125 2.09375 
Q 45.015625 0.34375 40.984375 -0.53125 
Q 36.96875 -1.421875 32.421875 -1.421875 
Q 20.0625 -1.421875 12.78125 6.34375 
Q 5.515625 14.109375 5.515625 27.296875 
Q 5.515625 40.671875 12.859375 48.328125 
Q 20.21875 56 33.015625 56 
Q 37.15625 56 41.109375 55.140625 
Q 45.0625 54.296875 48.78125 52.59375 
" id="DejaVuSans-63"/>
     <path d="M 56.203125 29.59375 
L 56.203125 25.203125 
L 14.890625 25.203125 
Q 15.484375 15.921875 20.484375 11.0625 
Q 25.484375 6.203125 34.421875 6.203125 
Q 39.59375 6.203125 44.453125 7.46875 
Q 49.3125 8.734375 54.109375 11.28125 
L 54.109375 2.78125 
Q 49.265625 0.734375 44.1875 -0.34375 
Q 39.109375 -1.421875 33.890625 -1.421875 
Q 20.796875 -1.421875 13.15625 6.1875 
Q 5.515625 13.8125 5.515625 26.8125 
Q 5.515625 40.234375 12.765625 48.109375 
Q 20.015625 56 32.328125 56 
Q 43.359375 56 49.78125 48.890625 
Q 56.203125 41.796875 56.203125 29.59375 
M 47.21875 32.234375 
Q 47.125 39.59375 43.09375 43.984375 
Q 39.0625 48.390625 32.421875 48.390625 
Q 24.90625 48.390625 20.390625 44.140625 
Q 15.875 39.890625 15.1875 32.171875 
z
" id="DejaVuSans-65"/>
     <path d="M 32.171875 -5.078125 
Q 28.375 -14.84375 24.75 -17.8125 
Q 21.140625 -20.796875 15.09375 -20.796875 
L 7.90625 -20.796875 
L 7.90625 -13.28125 
L 13.1875 -13.28125 
Q 16.890625 -13.28125 18.9375 -11.515625 
Q 21 -9.765625 23.484375 -3.21875 
L 25.09375 0.875 
L 2.984375 54.6875 
L 12.5 54.6875 
L 29.59375 11.921875 
L 46.6875 54.6875 
L 56.203125 54.6875 
z
" id="DejaVuSans-79"/>
    </defs>
    <g transform="translate(115.666875 35.472)scale(0.12 -0.12)">
     <use xlink:href="#DejaVuSans-50"/>
     <use x="60.302734" xlink:href="#DejaVuSans-6c"/>
     <use x="88.085938" xlink:href="#DejaVuSans-6f"/>
     <use x="149.267578" xlink:href="#DejaVuSans-74"/>
     <use x="188.476562" xlink:href="#DejaVuSans-20"/>
     <use x="220.263672" xlink:href="#DejaVuSans-6f"/>
     <use x="281.445312" xlink:href="#DejaVuSans-66"/>
     <use x="316.650391" xlink:href="#DejaVuSans-20"/>
     <use x="348.4375" xlink:href="#DejaVuSans-54"/>
     <use x="409.302734" xlink:href="#DejaVuSans-72"/>
     <use x="450.416016" xlink:href="#DejaVuSans-61"/>
     <use x="511.695312" xlink:href="#DejaVuSans-69"/>
     <use x="539.478516" xlink:href="#DejaVuSans-6e"/>
     <use x="602.857422" xlink:href="#DejaVuSans-20"/>
     <use x="634.644531" xlink:href="#DejaVuSans-44"/>
     <use x="711.646484" xlink:href="#DejaVuSans-61"/>
     <use x="772.925781" xlink:href="#DejaVuSans-74"/>
     <use x="812.134766" xlink:href="#DejaVuSans-61"/>
     <use x="873.414062" xlink:href="#DejaVuSans-20"/>
     <use x="905.201172" xlink:href="#DejaVuSans-76"/>
     <use x="964.380859" xlink:href="#DejaVuSans-73"/>
     <use x="1016.480469" xlink:href="#DejaVuSans-20"/>
     <use x="1048.267578" xlink:href="#DejaVuSans-4d"/>
     <use x="1134.546875" xlink:href="#DejaVuSans-43"/>
     <use x="1204.371094" xlink:href="#DejaVuSans-4d"/>
     <use x="1290.650391" xlink:href="#DejaVuSans-43"/>
     <use x="1360.474609" xlink:href="#DejaVuSans-20"/>
     <use x="1392.261719" xlink:href="#DejaVuSans-55"/>
     <use x="1465.455078" xlink:href="#DejaVuSans-6e"/>
     <use x="1528.833984" xlink:href="#DejaVuSans-63"/>
     <use x="1583.814453" xlink:href="#DejaVuSans-65"/>
     <use x="1645.337891" xlink:href="#DejaVuSans-72"/>
     <use x="1686.451172" xlink:href="#DejaVuSans-74"/>
     <use x="1725.660156" xlink:href="#DejaVuSans-61"/>
     <use x="1786.939453" xlink:href="#DejaVuSans-69"/>
     <use x="1814.722656" xlink:href="#DejaVuSans-6e"/>
     <use x="1878.101562" xlink:href="#DejaVuSans-74"/>
     <use x="1917.310547" xlink:href="#DejaVuSans-79"/>
     <use x="1976.490234" xlink:href="#DejaVuSans-20"/>
    </g>
   </g>
   <g id="legend_1">
    <g id="patch_7">
     <path d="M 277.843437 108.1845 
L 407.72 108.1845 
Q 409.72 108.1845 409.72 106.1845 
L 409.72 48.472 
Q 409.72 46.472 407.72 46.472 
L 277.843437 46.472 
Q 275.843437 46.472 275.843437 48.472 
L 275.843437 106.1845 
Q 275.843437 108.1845 277.843437 108.1845 
z
" style="fill:#ffffff;opacity:0.8;stroke:#cccccc;stroke-linejoin:miter;"/>
    </g>
    <g id="line2d_20">
     <path d="M 279.843437 54.570438 
L 299.843437 54.570438 
" style="fill:none;stroke:#1f77b4;stroke-linecap:square;stroke-width:1.5;"/>
    </g>
    <g id="line2d_21"/>
    <g id="text_17">
     <!-- actual -->
     <defs>
      <path d="M 8.5 21.578125 
L 8.5 54.6875 
L 17.484375 54.6875 
L 17.484375 21.921875 
Q 17.484375 14.15625 20.5 10.265625 
Q 23.53125 6.390625 29.59375 6.390625 
Q 36.859375 6.390625 41.078125 11.03125 
Q 45.3125 15.671875 45.3125 23.6875 
L 45.3125 54.6875 
L 54.296875 54.6875 
L 54.296875 0 
L 45.3125 0 
L 45.3125 8.40625 
Q 42.046875 3.421875 37.71875 1 
Q 33.40625 -1.421875 27.6875 -1.421875 
Q 18.265625 -1.421875 13.375 4.4375 
Q 8.5 10.296875 8.5 21.578125 
M 31.109375 56 
z
" id="DejaVuSans-75"/>
     </defs>
     <g transform="translate(307.843437 58.070438)scale(0.1 -0.1)">
      <use xlink:href="#DejaVuSans-61"/>
      <use x="61.279297" xlink:href="#DejaVuSans-63"/>
      <use x="116.259766" xlink:href="#DejaVuSans-74"/>
      <use x="155.46875" xlink:href="#DejaVuSans-75"/>
      <use x="218.847656" xlink:href="#DejaVuSans-61"/>
      <use x="280.126953" xlink:href="#DejaVuSans-6c"/>
     </g>
    </g>
    <g id="line2d_22">
     <path d="M 279.843437 69.248563 
L 299.843437 69.248563 
" style="fill:none;stroke:#ff7f0e;stroke-linecap:square;stroke-width:1.5;"/>
    </g>
    <g id="line2d_23"/>
    <g id="text_18">
     <!-- pred. (mean) -->
     <defs>
      <path d="M 18.109375 8.203125 
L 18.109375 -20.796875 
L 9.078125 -20.796875 
L 9.078125 54.6875 
L 18.109375 54.6875 
L 18.109375 46.390625 
Q 20.953125 51.265625 25.265625 53.625 
Q 29.59375 56 35.59375 56 
Q 45.5625 56 51.78125 48.09375 
Q 58.015625 40.1875 58.015625 27.296875 
Q 58.015625 14.40625 51.78125 6.484375 
Q 45.5625 -1.421875 35.59375 -1.421875 
Q 29.59375 -1.421875 25.265625 0.953125 
Q 20.953125 3.328125 18.109375 8.203125 
M 48.6875 27.296875 
Q 48.6875 37.203125 44.609375 42.84375 
Q 40.53125 48.484375 33.40625 48.484375 
Q 26.265625 48.484375 22.1875 42.84375 
Q 18.109375 37.203125 18.109375 27.296875 
Q 18.109375 17.390625 22.1875 11.75 
Q 26.265625 6.109375 33.40625 6.109375 
Q 40.53125 6.109375 44.609375 11.75 
Q 48.6875 17.390625 48.6875 27.296875 
" id="DejaVuSans-70"/>
      <path d="M 45.40625 46.390625 
L 45.40625 75.984375 
L 54.390625 75.984375 
L 54.390625 0 
L 45.40625 0 
L 45.40625 8.203125 
Q 42.578125 3.328125 38.25 0.953125 
Q 33.9375 -1.421875 27.875 -1.421875 
Q 17.96875 -1.421875 11.734375 6.484375 
Q 5.515625 14.40625 5.515625 27.296875 
Q 5.515625 40.1875 11.734375 48.09375 
Q 17.96875 56 27.875 56 
Q 33.9375 56 38.25 53.625 
Q 42.578125 51.265625 45.40625 46.390625 
M 14.796875 27.296875 
Q 14.796875 17.390625 18.875 11.75 
Q 22.953125 6.109375 30.078125 6.109375 
Q 37.203125 6.109375 41.296875 11.75 
Q 45.40625 17.390625 45.40625 27.296875 
Q 45.40625 37.203125 41.296875 42.84375 
Q 37.203125 48.484375 30.078125 48.484375 
Q 22.953125 48.484375 18.875 42.84375 
Q 14.796875 37.203125 14.796875 27.296875 
" id="DejaVuSans-64"/>
      <path d="M 31 75.875 
Q 24.46875 64.65625 21.28125 53.65625 
Q 18.109375 42.671875 18.109375 31.390625 
Q 18.109375 20.125 21.3125 9.0625 
Q 24.515625 -2 31 -13.1875 
L 23.1875 -13.1875 
Q 15.875 -1.703125 12.234375 9.375 
Q 8.59375 20.453125 8.59375 31.390625 
Q 8.59375 42.28125 12.203125 53.3125 
Q 15.828125 64.359375 23.1875 75.875 
z
" id="DejaVuSans-28"/>
      <path d="M 52 44.1875 
Q 55.375 50.25 60.0625 53.125 
Q 64.75 56 71.09375 56 
Q 79.640625 56 84.28125 50.015625 
Q 88.921875 44.046875 88.921875 33.015625 
L 88.921875 0 
L 79.890625 0 
L 79.890625 32.71875 
Q 79.890625 40.578125 77.09375 44.375 
Q 74.3125 48.1875 68.609375 48.1875 
Q 61.625 48.1875 57.5625 43.546875 
Q 53.515625 38.921875 53.515625 30.90625 
L 53.515625 0 
L 44.484375 0 
L 44.484375 32.71875 
Q 44.484375 40.625 41.703125 44.40625 
Q 38.921875 48.1875 33.109375 48.1875 
Q 26.21875 48.1875 22.15625 43.53125 
Q 18.109375 38.875 18.109375 30.90625 
L 18.109375 0 
L 9.078125 0 
L 9.078125 54.6875 
L 18.109375 54.6875 
L 18.109375 46.1875 
Q 21.1875 51.21875 25.484375 53.609375 
Q 29.78125 56 35.6875 56 
Q 41.65625 56 45.828125 52.96875 
Q 50 49.953125 52 44.1875 
" id="DejaVuSans-6d"/>
      <path d="M 8.015625 75.875 
L 15.828125 75.875 
Q 23.140625 64.359375 26.78125 53.3125 
Q 30.421875 42.28125 30.421875 31.390625 
Q 30.421875 20.453125 26.78125 9.375 
Q 23.140625 -1.703125 15.828125 -13.1875 
L 8.015625 -13.1875 
Q 14.5 -2 17.703125 9.0625 
Q 20.90625 20.125 20.90625 31.390625 
Q 20.90625 42.671875 17.703125 53.65625 
Q 14.5 64.65625 8.015625 75.875 
" id="DejaVuSans-29"/>
     </defs>
     <g transform="translate(307.843437 72.748563)scale(0.1 -0.1)">
      <use xlink:href="#DejaVuSans-70"/>
      <use x="63.476562" xlink:href="#DejaVuSans-72"/>
      <use x="104.558594" xlink:href="#DejaVuSans-65"/>
      <use x="166.082031" xlink:href="#DejaVuSans-64"/>
      <use x="229.558594" xlink:href="#DejaVuSans-2e"/>
      <use x="261.345703" xlink:href="#DejaVuSans-20"/>
      <use x="293.132812" xlink:href="#DejaVuSans-28"/>
      <use x="332.146484" xlink:href="#DejaVuSans-6d"/>
      <use x="429.558594" xlink:href="#DejaVuSans-65"/>
      <use x="491.082031" xlink:href="#DejaVuSans-61"/>
      <use x="552.361328" xlink:href="#DejaVuSans-6e"/>
      <use x="615.740234" xlink:href="#DejaVuSans-29"/>
     </g>
    </g>
    <g id="line2d_24">
     <path d="M 279.843437 83.926688 
L 299.843437 83.926688 
" style="fill:none;stroke:#2ca02c;stroke-linecap:square;stroke-width:1.5;"/>
    </g>
    <g id="line2d_25"/>
    <g id="text_19">
     <!-- pred.(5th percen.) -->
     <defs>
      <path d="M 54.890625 33.015625 
L 54.890625 0 
L 45.90625 0 
L 45.90625 32.71875 
Q 45.90625 40.484375 42.875 44.328125 
Q 39.84375 48.1875 33.796875 48.1875 
Q 26.515625 48.1875 22.3125 43.546875 
Q 18.109375 38.921875 18.109375 30.90625 
L 18.109375 0 
L 9.078125 0 
L 9.078125 75.984375 
L 18.109375 75.984375 
L 18.109375 46.1875 
Q 21.34375 51.125 25.703125 53.5625 
Q 30.078125 56 35.796875 56 
Q 45.21875 56 50.046875 50.171875 
Q 54.890625 44.34375 54.890625 33.015625 
" id="DejaVuSans-68"/>
     </defs>
     <g transform="translate(307.843437 87.426688)scale(0.1 -0.1)">
      <use xlink:href="#DejaVuSans-70"/>
      <use x="63.476562" xlink:href="#DejaVuSans-72"/>
      <use x="104.558594" xlink:href="#DejaVuSans-65"/>
      <use x="166.082031" xlink:href="#DejaVuSans-64"/>
      <use x="229.558594" xlink:href="#DejaVuSans-2e"/>
      <use x="261.345703" xlink:href="#DejaVuSans-28"/>
      <use x="300.359375" xlink:href="#DejaVuSans-35"/>
      <use x="363.982422" xlink:href="#DejaVuSans-74"/>
      <use x="403.191406" xlink:href="#DejaVuSans-68"/>
      <use x="466.570312" xlink:href="#DejaVuSans-20"/>
      <use x="498.357422" xlink:href="#DejaVuSans-70"/>
      <use x="561.833984" xlink:href="#DejaVuSans-65"/>
      <use x="623.357422" xlink:href="#DejaVuSans-72"/>
      <use x="664.439453" xlink:href="#DejaVuSans-63"/>
      <use x="719.419922" xlink:href="#DejaVuSans-65"/>
      <use x="780.943359" xlink:href="#DejaVuSans-6e"/>
      <use x="844.322266" xlink:href="#DejaVuSans-2e"/>
      <use x="876.109375" xlink:href="#DejaVuSans-29"/>
     </g>
    </g>
    <g id="line2d_26">
     <path d="M 279.843437 98.604813 
L 299.843437 98.604813 
" style="fill:none;stroke:#d62728;stroke-linecap:square;stroke-width:1.5;"/>
    </g>
    <g id="line2d_27"/>
    <g id="text_20">
     <!-- pred.(95th percen.) -->
     <g transform="translate(307.843437 102.104813)scale(0.1 -0.1)">
      <use xlink:href="#DejaVuSans-70"/>
      <use x="63.476562" xlink:href="#DejaVuSans-72"/>
      <use x="104.558594" xlink:href="#DejaVuSans-65"/>
      <use x="166.082031" xlink:href="#DejaVuSans-64"/>
      <use x="229.558594" xlink:href="#DejaVuSans-2e"/>
      <use x="261.345703" xlink:href="#DejaVuSans-28"/>
      <use x="300.359375" xlink:href="#DejaVuSans-39"/>
      <use x="363.982422" xlink:href="#DejaVuSans-35"/>
      <use x="427.605469" xlink:href="#DejaVuSans-74"/>
      <use x="466.814453" xlink:href="#DejaVuSans-68"/>
      <use x="530.193359" xlink:href="#DejaVuSans-20"/>
      <use x="561.980469" xlink:href="#DejaVuSans-70"/>
      <use x="625.457031" xlink:href="#DejaVuSans-65"/>
      <use x="686.980469" xlink:href="#DejaVuSans-72"/>
      <use x="728.0625" xlink:href="#DejaVuSans-63"/>
      <use x="783.042969" xlink:href="#DejaVuSans-65"/>
      <use x="844.566406" xlink:href="#DejaVuSans-6e"/>
      <use x="907.945312" xlink:href="#DejaVuSans-2e"/>
      <use x="939.732422" xlink:href="#DejaVuSans-29"/>
     </g>
    </g>
   </g>
  </g>
 </g>
 <defs>
  <clipPath id="p255234d4b4">
   <rect height="266.112" width="357.12" x="57.6" y="41.472"/>
  </clipPath>
 </defs>
</svg>
