<?xml version="1.0" encoding="utf-8" standalone="no"?>
<!DOCTYPE svg PUBLIC "-//W3C//DTD SVG 1.1//EN"
  "http://www.w3.org/Graphics/SVG/1.1/DTD/svg11.dtd">
<!-- Created with matplotlib (http://matplotlib.org/) -->
<svg height="345pt" version="1.1" viewBox="0 0 460 345" width="460pt" xmlns="http://www.w3.org/2000/svg" xmlns:xlink="http://www.w3.org/1999/xlink">
 <defs>
  <style type="text/css">
*{stroke-linecap:butt;stroke-linejoin:round;}
  </style>
 </defs>
 <g id="figure_1">
  <g id="patch_1">
   <path d="M 0 345.6 
L 460.8 345.6 
L 460.8 0 
L 0 0 
z
" style="fill:#ffffff;"/>
  </g>
  <g id="axes_1">
   <g id="patch_2">
    <path d="M 57.6 307.584 
L 414.72 307.584 
L 414.72 41.472 
L 57.6 41.472 
z
" style="fill:#ffffff;"/>
   </g>
   <g id="PolyCollection_1">
    <path clip-path="url(#p110f3e95cd)" d="M 73.832727 230.801713 
L 73.832727 267.710277 
L 75.900591 272.439632 
L 77.968454 267.176698 
L 80.036317 254.085187 
L 82.104181 241.449802 
L 84.172044 221.047454 
L 86.239907 245.045052 
L 88.307771 252.636257 
L 90.375634 224.321545 
L 92.443497 236.557262 
L 94.511361 239.280114 
L 96.579224 240.620843 
L 98.647087 233.764921 
L 100.714951 244.256805 
L 102.782814 251.632723 
L 104.850677 241.39902 
L 106.918541 232.890865 
L 108.986404 241.353827 
L 111.054268 238.504636 
L 113.122131 223.283836 
L 115.189994 204.430985 
L 117.257858 186.882002 
L 119.325721 170.620651 
L 121.393584 174.21158 
L 123.461448 172.023804 
L 125.529311 150.811639 
L 127.597174 149.135543 
L 129.665038 157.859441 
L 131.732901 160.848714 
L 133.800764 157.740752 
L 135.868628 153.960312 
L 137.936491 157.774123 
L 140.004354 156.880909 
L 142.072218 160.923678 
L 144.140081 164.090896 
L 146.207944 175.133481 
L 148.275808 192.271778 
L 150.343671 196.726817 
L 152.411534 192.992982 
L 154.479398 163.451686 
L 156.547261 145.300357 
L 158.615124 149.516421 
L 160.682988 128.401959 
L 162.750851 124.713181 
L 164.818715 117.555878 
L 166.886578 118.901852 
L 168.954441 117.311779 
L 171.022305 123.857388 
L 173.090168 129.871465 
L 175.158031 119.841582 
L 177.225895 116.272629 
L 179.293758 105.943907 
L 181.361621 90.634149 
L 183.429485 92.50567 
L 185.497348 76.520587 
L 187.565211 80.685584 
L 189.633075 85.663608 
L 191.700938 128.29823 
L 193.768801 142.779554 
L 195.836665 154.978463 
L 197.904528 152.047362 
L 199.972391 160.835296 
L 202.040255 167.500158 
L 204.108118 229.261364 
L 206.175981 252.765561 
L 208.243845 258.527223 
L 210.311708 261.345139 
L 212.379572 249.911533 
L 214.447435 233.072129 
L 216.515298 220.869402 
L 218.583162 219.937912 
L 220.651025 222.584343 
L 222.718888 208.73307 
L 224.786752 205.361153 
L 226.854615 214.476269 
L 228.922478 220.492717 
L 230.990342 228.86948 
L 233.058205 240.885456 
L 235.126068 249.163444 
L 237.193932 264.940734 
L 239.261795 269.25259 
L 241.329658 260.510712 
L 243.397522 256.55011 
L 245.465385 256.385694 
L 247.533248 266.439464 
L 249.601112 270.443428 
L 251.668975 273.034278 
L 253.736838 272.785852 
L 255.804702 262.860681 
L 257.872565 256.67124 
L 259.940428 241.913163 
L 262.008292 223.985084 
L 264.076155 213.389746 
L 266.144019 217.622321 
L 268.211882 221.4789 
L 270.279745 238.068556 
L 272.347609 248.149447 
L 274.415472 246.843852 
L 276.483335 253.402439 
L 278.551199 261.756338 
L 280.619062 259.694482 
L 282.686925 257.408122 
L 284.754789 256.040127 
L 286.822652 259.292454 
L 288.890515 264.664798 
L 290.958379 262.325645 
L 293.026242 260.690946 
L 295.094105 254.167029 
L 297.161969 234.020725 
L 299.229832 212.74448 
L 301.297695 202.627356 
L 303.365559 199.448085 
L 305.433422 210.906565 
L 307.501285 214.510723 
L 309.569149 223.254915 
L 311.637012 237.415431 
L 313.704876 229.118033 
L 315.772739 187.088233 
L 317.840602 159.54239 
L 319.908466 146.246459 
L 321.976329 152.723067 
L 324.044192 162.657615 
L 326.112056 163.687011 
L 328.179919 167.445476 
L 330.247782 181.006713 
L 332.315646 189.063376 
L 334.383509 191.599222 
L 336.451372 190.83119 
L 338.519236 179.948122 
L 340.587099 167.149408 
L 342.654962 152.307287 
L 344.722826 143.990107 
L 346.790689 157.941008 
L 348.858552 155.540176 
L 350.926416 167.87167 
L 352.994279 174.719314 
L 355.062142 182.43583 
L 357.130006 180.296083 
L 359.197869 176.705862 
L 361.265732 180.059502 
L 363.333596 171.523657 
L 365.401459 168.789679 
L 367.469323 169.40507 
L 369.537186 154.110058 
L 371.605049 148.369107 
L 373.672913 147.55106 
L 375.740776 151.860437 
L 377.808639 167.181251 
L 379.876503 180.372193 
L 381.944366 183.629068 
L 384.012229 178.329533 
L 386.080093 173.707247 
L 388.147956 178.75876 
L 390.215819 183.75482 
L 392.283683 182.2195 
L 394.351546 188.179338 
L 396.419409 195.73045 
L 398.487273 201.644649 
L 398.487273 181.274405 
L 398.487273 181.274405 
L 396.419409 174.216057 
L 394.351546 168.821467 
L 392.283683 157.601699 
L 390.215819 160.885751 
L 388.147956 160.075136 
L 386.080093 149.847004 
L 384.012229 153.991683 
L 381.944366 161.795208 
L 379.876503 159.376889 
L 377.808639 149.837958 
L 375.740776 130.880783 
L 373.672913 128.813682 
L 371.605049 133.175221 
L 369.537186 128.389683 
L 367.469323 143.662493 
L 365.401459 150.523496 
L 363.333596 146.13562 
L 361.265732 159.099797 
L 359.197869 157.179934 
L 357.130006 153.726765 
L 355.062142 164.067607 
L 352.994279 149.904023 
L 350.926416 150.171856 
L 348.858552 136.148403 
L 346.790689 140.274801 
L 344.722826 128.322941 
L 342.654962 124.107913 
L 340.587099 147.52351 
L 338.519236 152.507159 
L 336.451372 168.318129 
L 334.383509 170.571954 
L 332.315646 166.793164 
L 330.247782 158.803615 
L 328.179919 148.953759 
L 326.112056 144.672231 
L 324.044192 144.544986 
L 321.976329 134.06042 
L 319.908466 127.048775 
L 317.840602 135.640337 
L 315.772739 147.719072 
L 313.704876 188.067764 
L 311.637012 210.20957 
L 309.569149 202.41803 
L 307.501285 187.203383 
L 305.433422 190.167666 
L 303.365559 178.080598 
L 301.297695 175.266955 
L 299.229832 185.162396 
L 297.161969 194.664071 
L 295.094105 219.799458 
L 293.026242 227.778808 
L 290.958379 229.621366 
L 288.890515 232.489849 
L 286.822652 232.16466 
L 284.754789 225.122566 
L 282.686925 225.179308 
L 280.619062 226.336392 
L 278.551199 230.017023 
L 276.483335 228.581421 
L 274.415472 217.117018 
L 272.347609 218.164192 
L 270.279745 211.087503 
L 268.211882 195.249205 
L 266.144019 194.416773 
L 264.076155 186.5748 
L 262.008292 191.872837 
L 259.940428 206.092007 
L 257.872565 223.429993 
L 255.804702 228.938136 
L 253.736838 236.483108 
L 251.668975 242.380827 
L 249.601112 238.004163 
L 247.533248 237.157804 
L 245.465385 230.322879 
L 243.397522 222.239585 
L 241.329658 229.273035 
L 239.261795 232.425755 
L 237.193932 236.456894 
L 235.126068 224.231334 
L 233.058205 211.167379 
L 230.990342 207.483959 
L 228.922478 194.912899 
L 226.854615 191.091755 
L 224.786752 183.408508 
L 222.718888 180.336883 
L 220.651025 189.672782 
L 218.583162 196.553221 
L 216.515298 188.735493 
L 214.447435 202.045831 
L 212.379572 214.381891 
L 210.311708 229.884315 
L 208.243845 231.664067 
L 206.175981 226.12804 
L 204.108118 196.838794 
L 202.040255 149.024469 
L 199.972391 144.019572 
L 197.904528 129.661693 
L 195.836665 137.795602 
L 193.768801 126.193084 
L 191.700938 98.144081 
L 189.633075 67.242567 
L 187.565211 63.585739 
L 185.497348 58.629401 
L 183.429485 74.728591 
L 181.361621 74.632297 
L 179.293758 87.735396 
L 177.225895 98.344064 
L 175.158031 101.256195 
L 173.090168 111.092285 
L 171.022305 103.615527 
L 168.954441 101.984265 
L 166.886578 99.798371 
L 164.818715 100.605459 
L 162.750851 105.541801 
L 160.682988 92.186723 
L 158.615124 133.741856 
L 156.547261 129.147824 
L 154.479398 126.699245 
L 152.411534 171.808655 
L 150.343671 172.600879 
L 148.275808 171.875391 
L 146.207944 157.02168 
L 144.140081 141.321761 
L 142.072218 144.749934 
L 140.004354 132.221845 
L 137.936491 141.037652 
L 135.868628 128.721723 
L 133.800764 137.032764 
L 131.732901 140.784181 
L 129.665038 140.454485 
L 127.597174 125.311795 
L 125.529311 127.114869 
L 123.461448 150.887648 
L 121.393584 151.599066 
L 119.325721 142.45061 
L 117.257858 158.659745 
L 115.189994 174.240232 
L 113.122131 193.077668 
L 111.054268 206.221581 
L 108.986404 215.604299 
L 106.918541 208.600305 
L 104.850677 207.604461 
L 102.782814 222.804469 
L 100.714951 218.993195 
L 98.647087 203.503384 
L 96.579224 206.222722 
L 94.511361 209.890432 
L 92.443497 208.68428 
L 90.375634 186.636731 
L 88.307771 207.169237 
L 86.239907 219.13668 
L 84.172044 189.634632 
L 82.104181 208.375443 
L 80.036317 223.185579 
L 77.968454 228.354302 
L 75.900591 233.169489 
L 73.832727 230.801713 
z
" style="fill:#008000;fill-opacity:0.4;"/>
   </g>
   <g id="matplotlib.axis_1">
    <g id="xtick_1">
     <g id="line2d_1">
      <defs>
       <path d="M 0 0 
L 0 3.5 
" id="m9045e3cbe5" style="stroke:#000000;stroke-width:0.8;"/>
      </defs>
      <g>
       <use style="stroke:#000000;stroke-width:0.8;" x="73.832727" xlink:href="#m9045e3cbe5" y="307.584"/>
      </g>
     </g>
     <g id="text_1">
      <!-- 0.0 -->
      <defs>
       <path d="M 31.78125 66.40625 
Q 24.171875 66.40625 20.328125 58.90625 
Q 16.5 51.421875 16.5 36.375 
Q 16.5 21.390625 20.328125 13.890625 
Q 24.171875 6.390625 31.78125 6.390625 
Q 39.453125 6.390625 43.28125 13.890625 
Q 47.125 21.390625 47.125 36.375 
Q 47.125 51.421875 43.28125 58.90625 
Q 39.453125 66.40625 31.78125 66.40625 
M 31.78125 74.21875 
Q 44.046875 74.21875 50.515625 64.515625 
Q 56.984375 54.828125 56.984375 36.375 
Q 56.984375 17.96875 50.515625 8.265625 
Q 44.046875 -1.421875 31.78125 -1.421875 
Q 19.53125 -1.421875 13.0625 8.265625 
Q 6.59375 17.96875 6.59375 36.375 
Q 6.59375 54.828125 13.0625 64.515625 
Q 19.53125 74.21875 31.78125 74.21875 
" id="DejaVuSans-30"/>
       <path d="M 10.6875 12.40625 
L 21 12.40625 
L 21 0 
L 10.6875 0 
z
" id="DejaVuSans-2e"/>
      </defs>
      <g transform="translate(65.881165 322.182437)scale(0.1 -0.1)">
       <use xlink:href="#DejaVuSans-30"/>
       <use x="63.623047" xlink:href="#DejaVuSans-2e"/>
       <use x="95.410156" xlink:href="#DejaVuSans-30"/>
      </g>
     </g>
    </g>
    <g id="xtick_2">
     <g id="line2d_2">
      <g>
       <use style="stroke:#000000;stroke-width:0.8;" x="138.763636" xlink:href="#m9045e3cbe5" y="307.584"/>
      </g>
     </g>
     <g id="text_2">
      <!-- 0.2 -->
      <defs>
       <path d="M 19.1875 8.296875 
L 53.609375 8.296875 
L 53.609375 0 
L 7.328125 0 
L 7.328125 8.296875 
Q 12.9375 14.109375 22.625 23.890625 
Q 32.328125 33.6875 34.8125 36.53125 
Q 39.546875 41.84375 41.421875 45.53125 
Q 43.3125 49.21875 43.3125 52.78125 
Q 43.3125 58.59375 39.234375 62.25 
Q 35.15625 65.921875 28.609375 65.921875 
Q 23.96875 65.921875 18.8125 64.3125 
Q 13.671875 62.703125 7.8125 59.421875 
L 7.8125 69.390625 
Q 13.765625 71.78125 18.9375 73 
Q 24.125 74.21875 28.421875 74.21875 
Q 39.75 74.21875 46.484375 68.546875 
Q 53.21875 62.890625 53.21875 53.421875 
Q 53.21875 48.921875 51.53125 44.890625 
Q 49.859375 40.875 45.40625 35.40625 
Q 44.1875 33.984375 37.640625 27.21875 
Q 31.109375 20.453125 19.1875 8.296875 
" id="DejaVuSans-32"/>
      </defs>
      <g transform="translate(130.812074 322.182437)scale(0.1 -0.1)">
       <use xlink:href="#DejaVuSans-30"/>
       <use x="63.623047" xlink:href="#DejaVuSans-2e"/>
       <use x="95.410156" xlink:href="#DejaVuSans-32"/>
      </g>
     </g>
    </g>
    <g id="xtick_3">
     <g id="line2d_3">
      <g>
       <use style="stroke:#000000;stroke-width:0.8;" x="203.694545" xlink:href="#m9045e3cbe5" y="307.584"/>
      </g>
     </g>
     <g id="text_3">
      <!-- 0.4 -->
      <defs>
       <path d="M 37.796875 64.3125 
L 12.890625 25.390625 
L 37.796875 25.390625 
z
M 35.203125 72.90625 
L 47.609375 72.90625 
L 47.609375 25.390625 
L 58.015625 25.390625 
L 58.015625 17.1875 
L 47.609375 17.1875 
L 47.609375 0 
L 37.796875 0 
L 37.796875 17.1875 
L 4.890625 17.1875 
L 4.890625 26.703125 
z
" id="DejaVuSans-34"/>
      </defs>
      <g transform="translate(195.742983 322.182437)scale(0.1 -0.1)">
       <use xlink:href="#DejaVuSans-30"/>
       <use x="63.623047" xlink:href="#DejaVuSans-2e"/>
       <use x="95.410156" xlink:href="#DejaVuSans-34"/>
      </g>
     </g>
    </g>
    <g id="xtick_4">
     <g id="line2d_4">
      <g>
       <use style="stroke:#000000;stroke-width:0.8;" x="268.625455" xlink:href="#m9045e3cbe5" y="307.584"/>
      </g>
     </g>
     <g id="text_4">
      <!-- 0.6 -->
      <defs>
       <path d="M 33.015625 40.375 
Q 26.375 40.375 22.484375 35.828125 
Q 18.609375 31.296875 18.609375 23.390625 
Q 18.609375 15.53125 22.484375 10.953125 
Q 26.375 6.390625 33.015625 6.390625 
Q 39.65625 6.390625 43.53125 10.953125 
Q 47.40625 15.53125 47.40625 23.390625 
Q 47.40625 31.296875 43.53125 35.828125 
Q 39.65625 40.375 33.015625 40.375 
M 52.59375 71.296875 
L 52.59375 62.3125 
Q 48.875 64.0625 45.09375 64.984375 
Q 41.3125 65.921875 37.59375 65.921875 
Q 27.828125 65.921875 22.671875 59.328125 
Q 17.53125 52.734375 16.796875 39.40625 
Q 19.671875 43.65625 24.015625 45.921875 
Q 28.375 48.1875 33.59375 48.1875 
Q 44.578125 48.1875 50.953125 41.515625 
Q 57.328125 34.859375 57.328125 23.390625 
Q 57.328125 12.15625 50.6875 5.359375 
Q 44.046875 -1.421875 33.015625 -1.421875 
Q 20.359375 -1.421875 13.671875 8.265625 
Q 6.984375 17.96875 6.984375 36.375 
Q 6.984375 53.65625 15.1875 63.9375 
Q 23.390625 74.21875 37.203125 74.21875 
Q 40.921875 74.21875 44.703125 73.484375 
Q 48.484375 72.75 52.59375 71.296875 
" id="DejaVuSans-36"/>
      </defs>
      <g transform="translate(260.673892 322.182437)scale(0.1 -0.1)">
       <use xlink:href="#DejaVuSans-30"/>
       <use x="63.623047" xlink:href="#DejaVuSans-2e"/>
       <use x="95.410156" xlink:href="#DejaVuSans-36"/>
      </g>
     </g>
    </g>
    <g id="xtick_5">
     <g id="line2d_5">
      <g>
       <use style="stroke:#000000;stroke-width:0.8;" x="333.556364" xlink:href="#m9045e3cbe5" y="307.584"/>
      </g>
     </g>
     <g id="text_5">
      <!-- 0.8 -->
      <defs>
       <path d="M 31.78125 34.625 
Q 24.75 34.625 20.71875 30.859375 
Q 16.703125 27.09375 16.703125 20.515625 
Q 16.703125 13.921875 20.71875 10.15625 
Q 24.75 6.390625 31.78125 6.390625 
Q 38.8125 6.390625 42.859375 10.171875 
Q 46.921875 13.96875 46.921875 20.515625 
Q 46.921875 27.09375 42.890625 30.859375 
Q 38.875 34.625 31.78125 34.625 
M 21.921875 38.8125 
Q 15.578125 40.375 12.03125 44.71875 
Q 8.5 49.078125 8.5 55.328125 
Q 8.5 64.0625 14.71875 69.140625 
Q 20.953125 74.21875 31.78125 74.21875 
Q 42.671875 74.21875 48.875 69.140625 
Q 55.078125 64.0625 55.078125 55.328125 
Q 55.078125 49.078125 51.53125 44.71875 
Q 48 40.375 41.703125 38.8125 
Q 48.828125 37.15625 52.796875 32.3125 
Q 56.78125 27.484375 56.78125 20.515625 
Q 56.78125 9.90625 50.3125 4.234375 
Q 43.84375 -1.421875 31.78125 -1.421875 
Q 19.734375 -1.421875 13.25 4.234375 
Q 6.78125 9.90625 6.78125 20.515625 
Q 6.78125 27.484375 10.78125 32.3125 
Q 14.796875 37.15625 21.921875 38.8125 
M 18.3125 54.390625 
Q 18.3125 48.734375 21.84375 45.5625 
Q 25.390625 42.390625 31.78125 42.390625 
Q 38.140625 42.390625 41.71875 45.5625 
Q 45.3125 48.734375 45.3125 54.390625 
Q 45.3125 60.0625 41.71875 63.234375 
Q 38.140625 66.40625 31.78125 66.40625 
Q 25.390625 66.40625 21.84375 63.234375 
Q 18.3125 60.0625 18.3125 54.390625 
" id="DejaVuSans-38"/>
      </defs>
      <g transform="translate(325.604801 322.182437)scale(0.1 -0.1)">
       <use xlink:href="#DejaVuSans-30"/>
       <use x="63.623047" xlink:href="#DejaVuSans-2e"/>
       <use x="95.410156" xlink:href="#DejaVuSans-38"/>
      </g>
     </g>
    </g>
    <g id="xtick_6">
     <g id="line2d_6">
      <g>
       <use style="stroke:#000000;stroke-width:0.8;" x="398.487273" xlink:href="#m9045e3cbe5" y="307.584"/>
      </g>
     </g>
     <g id="text_6">
      <!-- 1.0 -->
      <defs>
       <path d="M 12.40625 8.296875 
L 28.515625 8.296875 
L 28.515625 63.921875 
L 10.984375 60.40625 
L 10.984375 69.390625 
L 28.421875 72.90625 
L 38.28125 72.90625 
L 38.28125 8.296875 
L 54.390625 8.296875 
L 54.390625 0 
L 12.40625 0 
z
" id="DejaVuSans-31"/>
      </defs>
      <g transform="translate(390.53571 322.182437)scale(0.1 -0.1)">
       <use xlink:href="#DejaVuSans-31"/>
       <use x="63.623047" xlink:href="#DejaVuSans-2e"/>
       <use x="95.410156" xlink:href="#DejaVuSans-30"/>
      </g>
     </g>
    </g>
   </g>
   <g id="matplotlib.axis_2">
    <g id="ytick_1">
     <g id="line2d_7">
      <defs>
       <path d="M 0 0 
L -3.5 0 
" id="m950bdbef33" style="stroke:#000000;stroke-width:0.8;"/>
      </defs>
      <g>
       <use style="stroke:#000000;stroke-width:0.8;" x="57.6" xlink:href="#m950bdbef33" y="252.476894"/>
      </g>
     </g>
     <g id="text_7">
      <!-- 0.35 -->
      <defs>
       <path d="M 40.578125 39.3125 
Q 47.65625 37.796875 51.625 33 
Q 55.609375 28.21875 55.609375 21.1875 
Q 55.609375 10.40625 48.1875 4.484375 
Q 40.765625 -1.421875 27.09375 -1.421875 
Q 22.515625 -1.421875 17.65625 -0.515625 
Q 12.796875 0.390625 7.625 2.203125 
L 7.625 11.71875 
Q 11.71875 9.328125 16.59375 8.109375 
Q 21.484375 6.890625 26.8125 6.890625 
Q 36.078125 6.890625 40.9375 10.546875 
Q 45.796875 14.203125 45.796875 21.1875 
Q 45.796875 27.640625 41.28125 31.265625 
Q 36.765625 34.90625 28.71875 34.90625 
L 20.21875 34.90625 
L 20.21875 43.015625 
L 29.109375 43.015625 
Q 36.375 43.015625 40.234375 45.921875 
Q 44.09375 48.828125 44.09375 54.296875 
Q 44.09375 59.90625 40.109375 62.90625 
Q 36.140625 65.921875 28.71875 65.921875 
Q 24.65625 65.921875 20.015625 65.03125 
Q 15.375 64.15625 9.8125 62.3125 
L 9.8125 71.09375 
Q 15.4375 72.65625 20.34375 73.4375 
Q 25.25 74.21875 29.59375 74.21875 
Q 40.828125 74.21875 47.359375 69.109375 
Q 53.90625 64.015625 53.90625 55.328125 
Q 53.90625 49.265625 50.4375 45.09375 
Q 46.96875 40.921875 40.578125 39.3125 
" id="DejaVuSans-33"/>
       <path d="M 10.796875 72.90625 
L 49.515625 72.90625 
L 49.515625 64.59375 
L 19.828125 64.59375 
L 19.828125 46.734375 
Q 21.96875 47.46875 24.109375 47.828125 
Q 26.265625 48.1875 28.421875 48.1875 
Q 40.625 48.1875 47.75 41.5 
Q 54.890625 34.8125 54.890625 23.390625 
Q 54.890625 11.625 47.5625 5.09375 
Q 40.234375 -1.421875 26.90625 -1.421875 
Q 22.3125 -1.421875 17.546875 -0.640625 
Q 12.796875 0.140625 7.71875 1.703125 
L 7.71875 11.625 
Q 12.109375 9.234375 16.796875 8.0625 
Q 21.484375 6.890625 26.703125 6.890625 
Q 35.15625 6.890625 40.078125 11.328125 
Q 45.015625 15.765625 45.015625 23.390625 
Q 45.015625 31 40.078125 35.4375 
Q 35.15625 39.890625 26.703125 39.890625 
Q 22.75 39.890625 18.8125 39.015625 
Q 14.890625 38.140625 10.796875 36.28125 
z
" id="DejaVuSans-35"/>
      </defs>
      <g transform="translate(28.334375 256.276113)scale(0.1 -0.1)">
       <use xlink:href="#DejaVuSans-30"/>
       <use x="63.623047" xlink:href="#DejaVuSans-2e"/>
       <use x="95.410156" xlink:href="#DejaVuSans-33"/>
       <use x="159.033203" xlink:href="#DejaVuSans-35"/>
      </g>
     </g>
    </g>
    <g id="ytick_2">
     <g id="line2d_8">
      <g>
       <use style="stroke:#000000;stroke-width:0.8;" x="57.6" xlink:href="#m950bdbef33" y="195.666558"/>
      </g>
     </g>
     <g id="text_8">
      <!-- 0.40 -->
      <g transform="translate(28.334375 199.465777)scale(0.1 -0.1)">
       <use xlink:href="#DejaVuSans-30"/>
       <use x="63.623047" xlink:href="#DejaVuSans-2e"/>
       <use x="95.410156" xlink:href="#DejaVuSans-34"/>
       <use x="159.033203" xlink:href="#DejaVuSans-30"/>
      </g>
     </g>
    </g>
    <g id="ytick_3">
     <g id="line2d_9">
      <g>
       <use style="stroke:#000000;stroke-width:0.8;" x="57.6" xlink:href="#m950bdbef33" y="138.856222"/>
      </g>
     </g>
     <g id="text_9">
      <!-- 0.45 -->
      <g transform="translate(28.334375 142.65544)scale(0.1 -0.1)">
       <use xlink:href="#DejaVuSans-30"/>
       <use x="63.623047" xlink:href="#DejaVuSans-2e"/>
       <use x="95.410156" xlink:href="#DejaVuSans-34"/>
       <use x="159.033203" xlink:href="#DejaVuSans-35"/>
      </g>
     </g>
    </g>
    <g id="ytick_4">
     <g id="line2d_10">
      <g>
       <use style="stroke:#000000;stroke-width:0.8;" x="57.6" xlink:href="#m950bdbef33" y="82.045885"/>
      </g>
     </g>
     <g id="text_10">
      <!-- 0.50 -->
      <g transform="translate(28.334375 85.845104)scale(0.1 -0.1)">
       <use xlink:href="#DejaVuSans-30"/>
       <use x="63.623047" xlink:href="#DejaVuSans-2e"/>
       <use x="95.410156" xlink:href="#DejaVuSans-35"/>
       <use x="159.033203" xlink:href="#DejaVuSans-30"/>
      </g>
     </g>
    </g>
   </g>
   <g id="line2d_11">
    <path clip-path="url(#p110f3e95cd)" d="M 73.832727 295.488 
L 75.900591 239.118512 
L 77.968454 238.531093 
L 80.036317 210.052071 
L 82.104181 197.721956 
L 84.172044 230.898056 
L 86.239907 233.246596 
L 88.307771 218.859946 
L 90.375634 189.208359 
L 92.443497 193.024877 
L 94.511361 248.220664 
L 96.579224 209.75893 
L 98.647087 212.401747 
L 100.714951 224.144443 
L 102.782814 215.630846 
L 104.850677 214.162867 
L 106.918541 231.485475 
L 108.986404 213.575448 
L 111.054268 201.831616 
L 113.122131 183.335306 
L 115.189994 173.059453 
L 117.257858 159.5545 
L 119.325721 171.885751 
L 121.393584 151.334044 
L 123.461448 123.442441 
L 125.529311 152.802023 
L 127.597174 145.755269 
L 129.665038 144.288426 
L 131.732901 143.113588 
L 133.800764 151.334044 
L 135.868628 143.701007 
L 137.936491 148.398086 
L 140.004354 138.709651 
L 142.072218 151.334044 
L 144.140081 150.746625 
L 146.207944 180.106207 
L 148.275808 180.400484 
L 150.343671 170.71205 
L 152.411534 127.553237 
L 154.479398 128.433797 
L 156.547261 127.553237 
L 158.615124 121.681321 
L 160.682988 101.422755 
L 162.750851 98.193655 
L 164.818715 115.809404 
L 166.886578 95.845116 
L 168.954441 124.911557 
L 171.022305 124.02986 
L 173.090168 101.422755 
L 175.158031 107.588949 
L 177.225895 91.73432 
L 179.293758 70.889472 
L 181.361621 94.377137 
L 183.429485 53.568 
L 185.497348 70.008911 
L 187.565211 62.375875 
L 189.633075 107.588949 
L 191.700938 125.497839 
L 193.768801 141.05819 
L 195.836665 139.590211 
L 197.904528 143.113588 
L 199.972391 148.104944 
L 202.040255 230.310637 
L 204.108118 235.301993 
L 206.175981 239.118512 
L 208.243845 241.760193 
L 210.311708 223.558161 
L 214.447435 205.354993 
L 216.515298 211.814328 
L 218.583162 212.401747 
L 220.651025 190.382061 
L 222.718888 189.208359 
L 224.786752 204.474433 
L 226.854615 206.235553 
L 228.922478 210.052071 
L 230.990342 236.475695 
L 233.058205 235.301993 
L 235.126068 260.256502 
L 237.193932 252.037182 
L 239.261795 241.760193 
L 241.329658 240.29335 
L 243.397522 243.816727 
L 245.465385 253.798303 
L 247.533248 257.028539 
L 249.601112 262.606177 
L 253.736838 242.641889 
L 255.804702 242.05447 
L 257.872565 218.273663 
L 259.940428 210.346349 
L 262.008292 194.785998 
L 264.076155 207.704668 
L 266.144019 204.767574 
L 268.211882 242.93503 
L 270.279745 228.548381 
L 272.347609 231.778616 
L 274.415472 239.118512 
L 276.483335 245.577847 
L 278.551199 246.458407 
L 280.619062 244.697287 
L 282.686925 240.879632 
L 284.754789 245.577847 
L 286.822652 248.513805 
L 288.890515 246.458407 
L 290.958379 249.687507 
L 293.026242 235.595135 
L 295.094105 214.162867 
L 297.161969 194.785998 
L 299.229832 184.804422 
L 301.297695 182.747888 
L 303.365559 195.373417 
L 305.433422 198.309375 
L 307.501285 205.942412 
L 309.569149 227.66782 
L 311.637012 216.512543 
L 313.704876 161.904175 
L 315.772739 148.985505 
L 317.840602 122.561881 
L 319.908466 143.701007 
L 321.976329 149.572924 
L 324.044192 142.819311 
L 326.112056 152.214604 
L 328.179919 175.996547 
L 330.247782 177.757668 
L 332.315646 172.766311 
L 334.383509 171.005191 
L 336.451372 164.545856 
L 338.519236 144.288426 
L 340.587099 142.819311 
L 342.654962 124.617279 
L 344.722826 146.342688 
L 346.790689 134.012572 
L 348.858552 147.223248 
L 350.926416 166.308112 
L 352.994279 166.013835 
L 355.062142 163.665296 
L 357.130006 160.141919 
L 359.197869 165.132138 
L 361.265732 154.857421 
L 363.333596 150.746625 
L 365.401459 163.371018 
L 367.469323 140.765049 
L 369.537186 127.25896 
L 371.605049 129.314358 
L 373.672913 146.635829 
L 375.740776 148.104944 
L 377.808639 169.830353 
L 379.876503 168.949793 
L 381.944366 161.316756 
L 384.012229 165.426416 
L 386.080093 162.784735 
L 388.147956 171.59261 
L 390.215819 171.298332 
L 392.283683 173.059453 
L 394.351546 179.813066 
L 396.419409 184.217003 
L 398.487273 187.446102 
L 398.487273 187.446102 
" style="fill:none;stroke:#1f77b4;stroke-linecap:square;stroke-width:1.5;"/>
   </g>
   <g id="line2d_12">
    <path clip-path="url(#p110f3e95cd)" d="M 73.832727 243.022999 
L 75.900591 246.436954 
L 77.968454 240.759585 
L 80.036317 232.472997 
L 82.104181 218.320503 
L 84.172044 198.235513 
L 86.239907 230.580142 
L 88.307771 219.015591 
L 90.375634 197.688798 
L 92.443497 222.131636 
L 94.511361 221.890451 
L 96.579224 217.090219 
L 98.647087 213.128546 
L 100.714951 230.192768 
L 102.782814 233.050713 
L 104.850677 217.403708 
L 106.918541 216.468983 
L 108.986404 223.938032 
L 111.054268 215.658973 
L 113.122131 201.405099 
L 115.189994 182.810519 
L 119.325721 150.855787 
L 121.393584 159.888231 
L 123.461448 157.369492 
L 125.529311 134.716301 
L 127.597174 133.960951 
L 129.665038 146.88758 
L 131.732901 147.374005 
L 133.800764 143.648487 
L 135.868628 137.0502 
L 137.936491 147.193249 
L 140.004354 140.076676 
L 142.072218 151.76502 
L 144.140081 148.439128 
L 146.207944 165.372649 
L 148.275808 178.745741 
L 150.343671 179.839831 
L 152.411534 178.419999 
L 154.479398 137.110603 
L 156.547261 135.370506 
L 158.615124 139.779561 
L 160.682988 103.766024 
L 162.750851 116.222214 
L 164.818715 106.784881 
L 166.886578 107.193462 
L 168.954441 108.814243 
L 171.022305 111.306934 
L 173.090168 118.336275 
L 175.158031 108.055148 
L 177.225895 105.375069 
L 179.293758 94.589886 
L 181.361621 81.869708 
L 183.429485 81.717881 
L 185.497348 68.172043 
L 187.565211 72.879365 
L 189.633075 77.943199 
L 191.700938 116.995127 
L 193.768801 133.251999 
L 195.836665 144.016658 
L 197.904528 136.806619 
L 199.972391 150.942336 
L 202.040255 155.426426 
L 204.108118 211.354932 
L 206.175981 235.258427 
L 208.243845 241.369299 
L 210.311708 239.979991 
L 212.379572 224.317038 
L 216.515298 197.705182 
L 218.583162 204.338877 
L 220.651025 199.087149 
L 222.718888 188.409499 
L 224.786752 190.464705 
L 226.854615 198.813216 
L 228.922478 202.510231 
L 230.990342 215.003916 
L 233.058205 220.298664 
L 235.126068 232.598861 
L 237.193932 245.918746 
L 239.261795 243.307242 
L 241.329658 239.391619 
L 243.397522 232.139125 
L 245.465385 239.284466 
L 247.533248 246.978271 
L 249.601112 248.484694 
L 251.668975 252.665307 
L 253.736838 247.915579 
L 255.804702 239.495098 
L 257.872565 233.092156 
L 259.940428 216.15358 
L 262.008292 200.96455 
L 264.076155 194.324874 
L 266.144019 202.158872 
L 268.211882 202.950646 
L 270.279745 220.559258 
L 272.347609 227.652125 
L 274.415472 226.006612 
L 276.483335 237.485623 
L 278.551199 239.785117 
L 280.619062 236.297287 
L 282.686925 234.855197 
L 284.754789 234.584809 
L 286.822652 241.563319 
L 288.890515 242.776596 
L 290.958379 239.702722 
L 293.026242 237.453956 
L 295.094105 230.027316 
L 297.161969 205.103499 
L 299.229832 193.170638 
L 301.297695 183.008385 
L 303.365559 184.923682 
L 305.433422 197.170214 
L 307.501285 195.213969 
L 309.569149 209.986987 
L 311.637012 218.69705 
L 313.704876 199.118555 
L 315.772739 158.540184 
L 317.840602 143.171151 
L 319.908466 133.612511 
L 321.976329 140.822479 
L 324.044192 151.102609 
L 326.112056 150.895931 
L 328.179919 155.479289 
L 330.247782 166.534015 
L 332.315646 173.876719 
L 334.383509 177.327529 
L 336.451372 175.262878 
L 338.519236 160.517205 
L 340.587099 153.758695 
L 342.654962 133.256378 
L 344.722826 134.245289 
L 346.790689 146.660468 
L 348.858552 142.250579 
L 350.926416 157.992124 
L 352.994279 157.859835 
L 355.062142 170.601687 
L 357.130006 161.510365 
L 359.197869 163.838799 
L 361.265732 165.691151 
L 363.333596 153.536708 
L 365.401459 156.813985 
L 367.469323 151.852371 
L 369.537186 136.340285 
L 371.605049 139.081129 
L 373.672913 135.096234 
L 375.740776 138.623409 
L 377.808639 157.271659 
L 379.876503 166.436583 
L 381.944366 168.655547 
L 384.012229 161.097519 
L 386.080093 157.300969 
L 388.147956 166.381138 
L 390.215819 168.212959 
L 392.283683 165.124653 
L 394.351546 175.2727 
L 396.419409 181.103082 
L 398.487273 188.012117 
L 398.487273 188.012117 
" style="fill:none;stroke:#ff7f0e;stroke-linecap:square;stroke-width:1.5;"/>
   </g>
   <g id="line2d_13">
    <path clip-path="url(#p110f3e95cd)" d="M 73.832727 267.710277 
L 75.900591 272.439632 
L 77.968454 267.176698 
L 82.104181 241.449802 
L 84.172044 221.047454 
L 86.239907 245.045052 
L 88.307771 252.636257 
L 90.375634 224.321545 
L 92.443497 236.557262 
L 94.511361 239.280114 
L 96.579224 240.620843 
L 98.647087 233.764921 
L 100.714951 244.256805 
L 102.782814 251.632723 
L 104.850677 241.39902 
L 106.918541 232.890865 
L 108.986404 241.353827 
L 111.054268 238.504636 
L 113.122131 223.283836 
L 115.189994 204.430985 
L 117.257858 186.882002 
L 119.325721 170.620651 
L 121.393584 174.21158 
L 123.461448 172.023804 
L 125.529311 150.811639 
L 127.597174 149.135543 
L 129.665038 157.859441 
L 131.732901 160.848714 
L 133.800764 157.740752 
L 135.868628 153.960312 
L 137.936491 157.774123 
L 140.004354 156.880909 
L 142.072218 160.923678 
L 144.140081 164.090896 
L 146.207944 175.133481 
L 148.275808 192.271778 
L 150.343671 196.726817 
L 152.411534 192.992982 
L 154.479398 163.451686 
L 156.547261 145.300357 
L 158.615124 149.516421 
L 160.682988 128.401959 
L 162.750851 124.713181 
L 164.818715 117.555878 
L 166.886578 118.901852 
L 168.954441 117.311779 
L 171.022305 123.857388 
L 173.090168 129.871465 
L 175.158031 119.841582 
L 177.225895 116.272629 
L 179.293758 105.943907 
L 181.361621 90.634149 
L 183.429485 92.50567 
L 185.497348 76.520587 
L 187.565211 80.685584 
L 189.633075 85.663608 
L 191.700938 128.29823 
L 193.768801 142.779554 
L 195.836665 154.978463 
L 197.904528 152.047362 
L 199.972391 160.835296 
L 202.040255 167.500158 
L 204.108118 229.261364 
L 206.175981 252.765561 
L 208.243845 258.527223 
L 210.311708 261.345139 
L 212.379572 249.911533 
L 214.447435 233.072129 
L 216.515298 220.869402 
L 218.583162 219.937912 
L 220.651025 222.584343 
L 222.718888 208.73307 
L 224.786752 205.361153 
L 226.854615 214.476269 
L 228.922478 220.492717 
L 230.990342 228.86948 
L 233.058205 240.885456 
L 235.126068 249.163444 
L 237.193932 264.940734 
L 239.261795 269.25259 
L 241.329658 260.510712 
L 243.397522 256.55011 
L 245.465385 256.385694 
L 247.533248 266.439464 
L 249.601112 270.443428 
L 251.668975 273.034278 
L 253.736838 272.785852 
L 255.804702 262.860681 
L 257.872565 256.67124 
L 259.940428 241.913163 
L 262.008292 223.985084 
L 264.076155 213.389746 
L 266.144019 217.622321 
L 268.211882 221.4789 
L 270.279745 238.068556 
L 272.347609 248.149447 
L 274.415472 246.843852 
L 276.483335 253.402439 
L 278.551199 261.756338 
L 280.619062 259.694482 
L 282.686925 257.408122 
L 284.754789 256.040127 
L 286.822652 259.292454 
L 288.890515 264.664798 
L 290.958379 262.325645 
L 293.026242 260.690946 
L 295.094105 254.167029 
L 297.161969 234.020725 
L 299.229832 212.74448 
L 301.297695 202.627356 
L 303.365559 199.448085 
L 305.433422 210.906565 
L 307.501285 214.510723 
L 309.569149 223.254915 
L 311.637012 237.415431 
L 313.704876 229.118033 
L 315.772739 187.088233 
L 317.840602 159.54239 
L 319.908466 146.246459 
L 321.976329 152.723067 
L 324.044192 162.657615 
L 326.112056 163.687011 
L 328.179919 167.445476 
L 330.247782 181.006713 
L 332.315646 189.063376 
L 334.383509 191.599222 
L 336.451372 190.83119 
L 338.519236 179.948122 
L 340.587099 167.149408 
L 342.654962 152.307287 
L 344.722826 143.990107 
L 346.790689 157.941008 
L 348.858552 155.540176 
L 350.926416 167.87167 
L 352.994279 174.719314 
L 355.062142 182.43583 
L 357.130006 180.296083 
L 359.197869 176.705862 
L 361.265732 180.059502 
L 363.333596 171.523657 
L 365.401459 168.789679 
L 367.469323 169.40507 
L 369.537186 154.110058 
L 371.605049 148.369107 
L 373.672913 147.55106 
L 375.740776 151.860437 
L 377.808639 167.181251 
L 379.876503 180.372193 
L 381.944366 183.629068 
L 384.012229 178.329533 
L 386.080093 173.707247 
L 390.215819 183.75482 
L 392.283683 182.2195 
L 394.351546 188.179338 
L 396.419409 195.73045 
L 398.487273 201.644649 
L 398.487273 201.644649 
" style="fill:none;stroke:#2ca02c;stroke-linecap:square;stroke-width:1.5;"/>
   </g>
   <g id="line2d_14">
    <path clip-path="url(#p110f3e95cd)" d="M 73.832727 230.801713 
L 75.900591 233.169489 
L 77.968454 228.354302 
L 80.036317 223.185579 
L 82.104181 208.375443 
L 84.172044 189.634632 
L 86.239907 219.13668 
L 88.307771 207.169237 
L 90.375634 186.636731 
L 92.443497 208.68428 
L 94.511361 209.890432 
L 96.579224 206.222722 
L 98.647087 203.503384 
L 100.714951 218.993195 
L 102.782814 222.804469 
L 104.850677 207.604461 
L 106.918541 208.600305 
L 108.986404 215.604299 
L 111.054268 206.221581 
L 113.122131 193.077668 
L 115.189994 174.240232 
L 119.325721 142.45061 
L 121.393584 151.599066 
L 123.461448 150.887648 
L 125.529311 127.114869 
L 127.597174 125.311795 
L 129.665038 140.454485 
L 131.732901 140.784181 
L 133.800764 137.032764 
L 135.868628 128.721723 
L 137.936491 141.037652 
L 140.004354 132.221845 
L 142.072218 144.749934 
L 144.140081 141.321761 
L 148.275808 171.875391 
L 150.343671 172.600879 
L 152.411534 171.808655 
L 154.479398 126.699245 
L 156.547261 129.147824 
L 158.615124 133.741856 
L 160.682988 92.186723 
L 162.750851 105.541801 
L 164.818715 100.605459 
L 166.886578 99.798371 
L 168.954441 101.984265 
L 171.022305 103.615527 
L 173.090168 111.092285 
L 175.158031 101.256195 
L 177.225895 98.344064 
L 179.293758 87.735396 
L 181.361621 74.632297 
L 183.429485 74.728591 
L 185.497348 58.629401 
L 187.565211 63.585739 
L 189.633075 67.242567 
L 191.700938 98.144081 
L 193.768801 126.193084 
L 195.836665 137.795602 
L 197.904528 129.661693 
L 199.972391 144.019572 
L 202.040255 149.024469 
L 204.108118 196.838794 
L 206.175981 226.12804 
L 208.243845 231.664067 
L 210.311708 229.884315 
L 212.379572 214.381891 
L 214.447435 202.045831 
L 216.515298 188.735493 
L 218.583162 196.553221 
L 220.651025 189.672782 
L 222.718888 180.336883 
L 224.786752 183.408508 
L 226.854615 191.091755 
L 228.922478 194.912899 
L 230.990342 207.483959 
L 233.058205 211.167379 
L 235.126068 224.231334 
L 237.193932 236.456894 
L 239.261795 232.425755 
L 241.329658 229.273035 
L 243.397522 222.239585 
L 245.465385 230.322879 
L 247.533248 237.157804 
L 249.601112 238.004163 
L 251.668975 242.380827 
L 253.736838 236.483108 
L 255.804702 228.938136 
L 257.872565 223.429993 
L 259.940428 206.092007 
L 262.008292 191.872837 
L 264.076155 186.5748 
L 266.144019 194.416773 
L 268.211882 195.249205 
L 270.279745 211.087503 
L 272.347609 218.164192 
L 274.415472 217.117018 
L 276.483335 228.581421 
L 278.551199 230.017023 
L 280.619062 226.336392 
L 282.686925 225.179308 
L 284.754789 225.122566 
L 286.822652 232.16466 
L 288.890515 232.489849 
L 290.958379 229.621366 
L 293.026242 227.778808 
L 295.094105 219.799458 
L 297.161969 194.664071 
L 301.297695 175.266955 
L 303.365559 178.080598 
L 305.433422 190.167666 
L 307.501285 187.203383 
L 309.569149 202.41803 
L 311.637012 210.20957 
L 313.704876 188.067764 
L 315.772739 147.719072 
L 317.840602 135.640337 
L 319.908466 127.048775 
L 321.976329 134.06042 
L 324.044192 144.544986 
L 326.112056 144.672231 
L 328.179919 148.953759 
L 330.247782 158.803615 
L 332.315646 166.793164 
L 334.383509 170.571954 
L 336.451372 168.318129 
L 338.519236 152.507159 
L 340.587099 147.52351 
L 342.654962 124.107913 
L 344.722826 128.322941 
L 346.790689 140.274801 
L 348.858552 136.148403 
L 350.926416 150.171856 
L 352.994279 149.904023 
L 355.062142 164.067607 
L 357.130006 153.726765 
L 359.197869 157.179934 
L 361.265732 159.099797 
L 363.333596 146.13562 
L 365.401459 150.523496 
L 367.469323 143.662493 
L 369.537186 128.389683 
L 371.605049 133.175221 
L 373.672913 128.813682 
L 375.740776 130.880783 
L 377.808639 149.837958 
L 379.876503 159.376889 
L 381.944366 161.795208 
L 384.012229 153.991683 
L 386.080093 149.847004 
L 388.147956 160.075136 
L 390.215819 160.885751 
L 392.283683 157.601699 
L 394.351546 168.821467 
L 396.419409 174.216057 
L 398.487273 181.274405 
L 398.487273 181.274405 
" style="fill:none;stroke:#d62728;stroke-linecap:square;stroke-width:1.5;"/>
   </g>
   <g id="patch_3">
    <path d="M 57.6 307.584 
L 57.6 41.472 
" style="fill:none;stroke:#000000;stroke-linecap:square;stroke-linejoin:miter;stroke-width:0.8;"/>
   </g>
   <g id="patch_4">
    <path d="M 414.72 307.584 
L 414.72 41.472 
" style="fill:none;stroke:#000000;stroke-linecap:square;stroke-linejoin:miter;stroke-width:0.8;"/>
   </g>
   <g id="patch_5">
    <path d="M 57.6 307.584 
L 414.72 307.584 
" style="fill:none;stroke:#000000;stroke-linecap:square;stroke-linejoin:miter;stroke-width:0.8;"/>
   </g>
   <g id="patch_6">
    <path d="M 57.6 41.472 
L 414.72 41.472 
" style="fill:none;stroke:#000000;stroke-linecap:square;stroke-linejoin:miter;stroke-width:0.8;"/>
   </g>
   <g id="text_11">
    <!-- Plot of Test Data vs MCMC Uncertainty  -->
    <defs>
     <path d="M 19.671875 64.796875 
L 19.671875 37.40625 
L 32.078125 37.40625 
Q 38.96875 37.40625 42.71875 40.96875 
Q 46.484375 44.53125 46.484375 51.125 
Q 46.484375 57.671875 42.71875 61.234375 
Q 38.96875 64.796875 32.078125 64.796875 
z
M 9.8125 72.90625 
L 32.078125 72.90625 
Q 44.34375 72.90625 50.609375 67.359375 
Q 56.890625 61.8125 56.890625 51.125 
Q 56.890625 40.328125 50.609375 34.8125 
Q 44.34375 29.296875 32.078125 29.296875 
L 19.671875 29.296875 
L 19.671875 0 
L 9.8125 0 
z
" id="DejaVuSans-50"/>
     <path d="M 9.421875 75.984375 
L 18.40625 75.984375 
L 18.40625 0 
L 9.421875 0 
z
" id="DejaVuSans-6c"/>
     <path d="M 30.609375 48.390625 
Q 23.390625 48.390625 19.1875 42.75 
Q 14.984375 37.109375 14.984375 27.296875 
Q 14.984375 17.484375 19.15625 11.84375 
Q 23.34375 6.203125 30.609375 6.203125 
Q 37.796875 6.203125 41.984375 11.859375 
Q 46.1875 17.53125 46.1875 27.296875 
Q 46.1875 37.015625 41.984375 42.703125 
Q 37.796875 48.390625 30.609375 48.390625 
M 30.609375 56 
Q 42.328125 56 49.015625 48.375 
Q 55.71875 40.765625 55.71875 27.296875 
Q 55.71875 13.875 49.015625 6.21875 
Q 42.328125 -1.421875 30.609375 -1.421875 
Q 18.84375 -1.421875 12.171875 6.21875 
Q 5.515625 13.875 5.515625 27.296875 
Q 5.515625 40.765625 12.171875 48.375 
Q 18.84375 56 30.609375 56 
" id="DejaVuSans-6f"/>
     <path d="M 18.3125 70.21875 
L 18.3125 54.6875 
L 36.8125 54.6875 
L 36.8125 47.703125 
L 18.3125 47.703125 
L 18.3125 18.015625 
Q 18.3125 11.328125 20.140625 9.421875 
Q 21.96875 7.515625 27.59375 7.515625 
L 36.8125 7.515625 
L 36.8125 0 
L 27.59375 0 
Q 17.1875 0 13.234375 3.875 
Q 9.28125 7.765625 9.28125 18.015625 
L 9.28125 47.703125 
L 2.6875 47.703125 
L 2.6875 54.6875 
L 9.28125 54.6875 
L 9.28125 70.21875 
z
" id="DejaVuSans-74"/>
     <path id="DejaVuSans-20"/>
     <path d="M 37.109375 75.984375 
L 37.109375 68.5 
L 28.515625 68.5 
Q 23.6875 68.5 21.796875 66.546875 
Q 19.921875 64.59375 19.921875 59.515625 
L 19.921875 54.6875 
L 34.71875 54.6875 
L 34.71875 47.703125 
L 19.921875 47.703125 
L 19.921875 0 
L 10.890625 0 
L 10.890625 47.703125 
L 2.296875 47.703125 
L 2.296875 54.6875 
L 10.890625 54.6875 
L 10.890625 58.5 
Q 10.890625 67.625 15.140625 71.796875 
Q 19.390625 75.984375 28.609375 75.984375 
z
" id="DejaVuSans-66"/>
     <path d="M -0.296875 72.90625 
L 61.375 72.90625 
L 61.375 64.59375 
L 35.5 64.59375 
L 35.5 0 
L 25.59375 0 
L 25.59375 64.59375 
L -0.296875 64.59375 
z
" id="DejaVuSans-54"/>
     <path d="M 56.203125 29.59375 
L 56.203125 25.203125 
L 14.890625 25.203125 
Q 15.484375 15.921875 20.484375 11.0625 
Q 25.484375 6.203125 34.421875 6.203125 
Q 39.59375 6.203125 44.453125 7.46875 
Q 49.3125 8.734375 54.109375 11.28125 
L 54.109375 2.78125 
Q 49.265625 0.734375 44.1875 -0.34375 
Q 39.109375 -1.421875 33.890625 -1.421875 
Q 20.796875 -1.421875 13.15625 6.1875 
Q 5.515625 13.8125 5.515625 26.8125 
Q 5.515625 40.234375 12.765625 48.109375 
Q 20.015625 56 32.328125 56 
Q 43.359375 56 49.78125 48.890625 
Q 56.203125 41.796875 56.203125 29.59375 
M 47.21875 32.234375 
Q 47.125 39.59375 43.09375 43.984375 
Q 39.0625 48.390625 32.421875 48.390625 
Q 24.90625 48.390625 20.390625 44.140625 
Q 15.875 39.890625 15.1875 32.171875 
z
" id="DejaVuSans-65"/>
     <path d="M 44.28125 53.078125 
L 44.28125 44.578125 
Q 40.484375 46.53125 36.375 47.5 
Q 32.28125 48.484375 27.875 48.484375 
Q 21.1875 48.484375 17.84375 46.4375 
Q 14.5 44.390625 14.5 40.28125 
Q 14.5 37.15625 16.890625 35.375 
Q 19.28125 33.59375 26.515625 31.984375 
L 29.59375 31.296875 
Q 39.15625 29.25 43.1875 25.515625 
Q 47.21875 21.78125 47.21875 15.09375 
Q 47.21875 7.46875 41.1875 3.015625 
Q 35.15625 -1.421875 24.609375 -1.421875 
Q 20.21875 -1.421875 15.453125 -0.5625 
Q 10.6875 0.296875 5.421875 2 
L 5.421875 11.28125 
Q 10.40625 8.6875 15.234375 7.390625 
Q 20.0625 6.109375 24.8125 6.109375 
Q 31.15625 6.109375 34.5625 8.28125 
Q 37.984375 10.453125 37.984375 14.40625 
Q 37.984375 18.0625 35.515625 20.015625 
Q 33.0625 21.96875 24.703125 23.78125 
L 21.578125 24.515625 
Q 13.234375 26.265625 9.515625 29.90625 
Q 5.8125 33.546875 5.8125 39.890625 
Q 5.8125 47.609375 11.28125 51.796875 
Q 16.75 56 26.8125 56 
Q 31.78125 56 36.171875 55.265625 
Q 40.578125 54.546875 44.28125 53.078125 
" id="DejaVuSans-73"/>
     <path d="M 19.671875 64.796875 
L 19.671875 8.109375 
L 31.59375 8.109375 
Q 46.6875 8.109375 53.6875 14.9375 
Q 60.6875 21.78125 60.6875 36.53125 
Q 60.6875 51.171875 53.6875 57.984375 
Q 46.6875 64.796875 31.59375 64.796875 
z
M 9.8125 72.90625 
L 30.078125 72.90625 
Q 51.265625 72.90625 61.171875 64.09375 
Q 71.09375 55.28125 71.09375 36.53125 
Q 71.09375 17.671875 61.125 8.828125 
Q 51.171875 0 30.078125 0 
L 9.8125 0 
z
" id="DejaVuSans-44"/>
     <path d="M 34.28125 27.484375 
Q 23.390625 27.484375 19.1875 25 
Q 14.984375 22.515625 14.984375 16.5 
Q 14.984375 11.71875 18.140625 8.90625 
Q 21.296875 6.109375 26.703125 6.109375 
Q 34.1875 6.109375 38.703125 11.40625 
Q 43.21875 16.703125 43.21875 25.484375 
L 43.21875 27.484375 
z
M 52.203125 31.203125 
L 52.203125 0 
L 43.21875 0 
L 43.21875 8.296875 
Q 40.140625 3.328125 35.546875 0.953125 
Q 30.953125 -1.421875 24.3125 -1.421875 
Q 15.921875 -1.421875 10.953125 3.296875 
Q 6 8.015625 6 15.921875 
Q 6 25.140625 12.171875 29.828125 
Q 18.359375 34.515625 30.609375 34.515625 
L 43.21875 34.515625 
L 43.21875 35.40625 
Q 43.21875 41.609375 39.140625 45 
Q 35.0625 48.390625 27.6875 48.390625 
Q 23 48.390625 18.546875 47.265625 
Q 14.109375 46.140625 10.015625 43.890625 
L 10.015625 52.203125 
Q 14.9375 54.109375 19.578125 55.046875 
Q 24.21875 56 28.609375 56 
Q 40.484375 56 46.34375 49.84375 
Q 52.203125 43.703125 52.203125 31.203125 
" id="DejaVuSans-61"/>
     <path d="M 2.984375 54.6875 
L 12.5 54.6875 
L 29.59375 8.796875 
L 46.6875 54.6875 
L 56.203125 54.6875 
L 35.6875 0 
L 23.484375 0 
z
" id="DejaVuSans-76"/>
     <path d="M 9.8125 72.90625 
L 24.515625 72.90625 
L 43.109375 23.296875 
L 61.8125 72.90625 
L 76.515625 72.90625 
L 76.515625 0 
L 66.890625 0 
L 66.890625 64.015625 
L 48.09375 14.015625 
L 38.1875 14.015625 
L 19.390625 64.015625 
L 19.390625 0 
L 9.8125 0 
z
" id="DejaVuSans-4d"/>
     <path d="M 64.40625 67.28125 
L 64.40625 56.890625 
Q 59.421875 61.53125 53.78125 63.8125 
Q 48.140625 66.109375 41.796875 66.109375 
Q 29.296875 66.109375 22.65625 58.46875 
Q 16.015625 50.828125 16.015625 36.375 
Q 16.015625 21.96875 22.65625 14.328125 
Q 29.296875 6.6875 41.796875 6.6875 
Q 48.140625 6.6875 53.78125 8.984375 
Q 59.421875 11.28125 64.40625 15.921875 
L 64.40625 5.609375 
Q 59.234375 2.09375 53.4375 0.328125 
Q 47.65625 -1.421875 41.21875 -1.421875 
Q 24.65625 -1.421875 15.125 8.703125 
Q 5.609375 18.84375 5.609375 36.375 
Q 5.609375 53.953125 15.125 64.078125 
Q 24.65625 74.21875 41.21875 74.21875 
Q 47.75 74.21875 53.53125 72.484375 
Q 59.328125 70.75 64.40625 67.28125 
" id="DejaVuSans-43"/>
     <path d="M 8.6875 72.90625 
L 18.609375 72.90625 
L 18.609375 28.609375 
Q 18.609375 16.890625 22.84375 11.734375 
Q 27.09375 6.59375 36.625 6.59375 
Q 46.09375 6.59375 50.34375 11.734375 
Q 54.59375 16.890625 54.59375 28.609375 
L 54.59375 72.90625 
L 64.5 72.90625 
L 64.5 27.390625 
Q 64.5 13.140625 57.4375 5.859375 
Q 50.390625 -1.421875 36.625 -1.421875 
Q 22.796875 -1.421875 15.734375 5.859375 
Q 8.6875 13.140625 8.6875 27.390625 
z
" id="DejaVuSans-55"/>
     <path d="M 54.890625 33.015625 
L 54.890625 0 
L 45.90625 0 
L 45.90625 32.71875 
Q 45.90625 40.484375 42.875 44.328125 
Q 39.84375 48.1875 33.796875 48.1875 
Q 26.515625 48.1875 22.3125 43.546875 
Q 18.109375 38.921875 18.109375 30.90625 
L 18.109375 0 
L 9.078125 0 
L 9.078125 54.6875 
L 18.109375 54.6875 
L 18.109375 46.1875 
Q 21.34375 51.125 25.703125 53.5625 
Q 30.078125 56 35.796875 56 
Q 45.21875 56 50.046875 50.171875 
Q 54.890625 44.34375 54.890625 33.015625 
" id="DejaVuSans-6e"/>
     <path d="M 48.78125 52.59375 
L 48.78125 44.1875 
Q 44.96875 46.296875 41.140625 47.34375 
Q 37.3125 48.390625 33.40625 48.390625 
Q 24.65625 48.390625 19.8125 42.84375 
Q 14.984375 37.3125 14.984375 27.296875 
Q 14.984375 17.28125 19.8125 11.734375 
Q 24.65625 6.203125 33.40625 6.203125 
Q 37.3125 6.203125 41.140625 7.25 
Q 44.96875 8.296875 48.78125 10.40625 
L 48.78125 2.09375 
Q 45.015625 0.34375 40.984375 -0.53125 
Q 36.96875 -1.421875 32.421875 -1.421875 
Q 20.0625 -1.421875 12.78125 6.34375 
Q 5.515625 14.109375 5.515625 27.296875 
Q 5.515625 40.671875 12.859375 48.328125 
Q 20.21875 56 33.015625 56 
Q 37.15625 56 41.109375 55.140625 
Q 45.0625 54.296875 48.78125 52.59375 
" id="DejaVuSans-63"/>
     <path d="M 41.109375 46.296875 
Q 39.59375 47.171875 37.8125 47.578125 
Q 36.03125 48 33.890625 48 
Q 26.265625 48 22.1875 43.046875 
Q 18.109375 38.09375 18.109375 28.8125 
L 18.109375 0 
L 9.078125 0 
L 9.078125 54.6875 
L 18.109375 54.6875 
L 18.109375 46.1875 
Q 20.953125 51.171875 25.484375 53.578125 
Q 30.03125 56 36.53125 56 
Q 37.453125 56 38.578125 55.875 
Q 39.703125 55.765625 41.0625 55.515625 
z
" id="DejaVuSans-72"/>
     <path d="M 9.421875 54.6875 
L 18.40625 54.6875 
L 18.40625 0 
L 9.421875 0 
z
M 9.421875 75.984375 
L 18.40625 75.984375 
L 18.40625 64.59375 
L 9.421875 64.59375 
z
" id="DejaVuSans-69"/>
     <path d="M 32.171875 -5.078125 
Q 28.375 -14.84375 24.75 -17.8125 
Q 21.140625 -20.796875 15.09375 -20.796875 
L 7.90625 -20.796875 
L 7.90625 -13.28125 
L 13.1875 -13.28125 
Q 16.890625 -13.28125 18.9375 -11.515625 
Q 21 -9.765625 23.484375 -3.21875 
L 25.09375 0.875 
L 2.984375 54.6875 
L 12.5 54.6875 
L 29.59375 11.921875 
L 46.6875 54.6875 
L 56.203125 54.6875 
z
" id="DejaVuSans-79"/>
    </defs>
    <g transform="translate(118.112813 35.472)scale(0.12 -0.12)">
     <use xlink:href="#DejaVuSans-50"/>
     <use x="60.302734" xlink:href="#DejaVuSans-6c"/>
     <use x="88.085938" xlink:href="#DejaVuSans-6f"/>
     <use x="149.267578" xlink:href="#DejaVuSans-74"/>
     <use x="188.476562" xlink:href="#DejaVuSans-20"/>
     <use x="220.263672" xlink:href="#DejaVuSans-6f"/>
     <use x="281.445312" xlink:href="#DejaVuSans-66"/>
     <use x="316.650391" xlink:href="#DejaVuSans-20"/>
     <use x="348.4375" xlink:href="#DejaVuSans-54"/>
     <use x="409.255859" xlink:href="#DejaVuSans-65"/>
     <use x="470.779297" xlink:href="#DejaVuSans-73"/>
     <use x="522.878906" xlink:href="#DejaVuSans-74"/>
     <use x="562.087891" xlink:href="#DejaVuSans-20"/>
     <use x="593.875" xlink:href="#DejaVuSans-44"/>
     <use x="670.876953" xlink:href="#DejaVuSans-61"/>
     <use x="732.15625" xlink:href="#DejaVuSans-74"/>
     <use x="771.365234" xlink:href="#DejaVuSans-61"/>
     <use x="832.644531" xlink:href="#DejaVuSans-20"/>
     <use x="864.431641" xlink:href="#DejaVuSans-76"/>
     <use x="923.611328" xlink:href="#DejaVuSans-73"/>
     <use x="975.710938" xlink:href="#DejaVuSans-20"/>
     <use x="1007.498047" xlink:href="#DejaVuSans-4d"/>
     <use x="1093.777344" xlink:href="#DejaVuSans-43"/>
     <use x="1163.601562" xlink:href="#DejaVuSans-4d"/>
     <use x="1249.880859" xlink:href="#DejaVuSans-43"/>
     <use x="1319.705078" xlink:href="#DejaVuSans-20"/>
     <use x="1351.492188" xlink:href="#DejaVuSans-55"/>
     <use x="1424.685547" xlink:href="#DejaVuSans-6e"/>
     <use x="1488.064453" xlink:href="#DejaVuSans-63"/>
     <use x="1543.044922" xlink:href="#DejaVuSans-65"/>
     <use x="1604.568359" xlink:href="#DejaVuSans-72"/>
     <use x="1645.681641" xlink:href="#DejaVuSans-74"/>
     <use x="1684.890625" xlink:href="#DejaVuSans-61"/>
     <use x="1746.169922" xlink:href="#DejaVuSans-69"/>
     <use x="1773.953125" xlink:href="#DejaVuSans-6e"/>
     <use x="1837.332031" xlink:href="#DejaVuSans-74"/>
     <use x="1876.541016" xlink:href="#DejaVuSans-79"/>
     <use x="1935.720703" xlink:href="#DejaVuSans-20"/>
    </g>
   </g>
   <g id="legend_1">
    <g id="patch_7">
     <path d="M 277.843437 108.1845 
L 407.72 108.1845 
Q 409.72 108.1845 409.72 106.1845 
L 409.72 48.472 
Q 409.72 46.472 407.72 46.472 
L 277.843437 46.472 
Q 275.843437 46.472 275.843437 48.472 
L 275.843437 106.1845 
Q 275.843437 108.1845 277.843437 108.1845 
z
" style="fill:#ffffff;opacity:0.8;stroke:#cccccc;stroke-linejoin:miter;"/>
    </g>
    <g id="line2d_15">
     <path d="M 279.843437 54.570438 
L 299.843437 54.570438 
" style="fill:none;stroke:#1f77b4;stroke-linecap:square;stroke-width:1.5;"/>
    </g>
    <g id="line2d_16"/>
    <g id="text_12">
     <!-- actual -->
     <defs>
      <path d="M 8.5 21.578125 
L 8.5 54.6875 
L 17.484375 54.6875 
L 17.484375 21.921875 
Q 17.484375 14.15625 20.5 10.265625 
Q 23.53125 6.390625 29.59375 6.390625 
Q 36.859375 6.390625 41.078125 11.03125 
Q 45.3125 15.671875 45.3125 23.6875 
L 45.3125 54.6875 
L 54.296875 54.6875 
L 54.296875 0 
L 45.3125 0 
L 45.3125 8.40625 
Q 42.046875 3.421875 37.71875 1 
Q 33.40625 -1.421875 27.6875 -1.421875 
Q 18.265625 -1.421875 13.375 4.4375 
Q 8.5 10.296875 8.5 21.578125 
M 31.109375 56 
z
" id="DejaVuSans-75"/>
     </defs>
     <g transform="translate(307.843437 58.070438)scale(0.1 -0.1)">
      <use xlink:href="#DejaVuSans-61"/>
      <use x="61.279297" xlink:href="#DejaVuSans-63"/>
      <use x="116.259766" xlink:href="#DejaVuSans-74"/>
      <use x="155.46875" xlink:href="#DejaVuSans-75"/>
      <use x="218.847656" xlink:href="#DejaVuSans-61"/>
      <use x="280.126953" xlink:href="#DejaVuSans-6c"/>
     </g>
    </g>
    <g id="line2d_17">
     <path d="M 279.843437 69.248563 
L 299.843437 69.248563 
" style="fill:none;stroke:#ff7f0e;stroke-linecap:square;stroke-width:1.5;"/>
    </g>
    <g id="line2d_18"/>
    <g id="text_13">
     <!-- pred. (mean) -->
     <defs>
      <path d="M 18.109375 8.203125 
L 18.109375 -20.796875 
L 9.078125 -20.796875 
L 9.078125 54.6875 
L 18.109375 54.6875 
L 18.109375 46.390625 
Q 20.953125 51.265625 25.265625 53.625 
Q 29.59375 56 35.59375 56 
Q 45.5625 56 51.78125 48.09375 
Q 58.015625 40.1875 58.015625 27.296875 
Q 58.015625 14.40625 51.78125 6.484375 
Q 45.5625 -1.421875 35.59375 -1.421875 
Q 29.59375 -1.421875 25.265625 0.953125 
Q 20.953125 3.328125 18.109375 8.203125 
M 48.6875 27.296875 
Q 48.6875 37.203125 44.609375 42.84375 
Q 40.53125 48.484375 33.40625 48.484375 
Q 26.265625 48.484375 22.1875 42.84375 
Q 18.109375 37.203125 18.109375 27.296875 
Q 18.109375 17.390625 22.1875 11.75 
Q 26.265625 6.109375 33.40625 6.109375 
Q 40.53125 6.109375 44.609375 11.75 
Q 48.6875 17.390625 48.6875 27.296875 
" id="DejaVuSans-70"/>
      <path d="M 45.40625 46.390625 
L 45.40625 75.984375 
L 54.390625 75.984375 
L 54.390625 0 
L 45.40625 0 
L 45.40625 8.203125 
Q 42.578125 3.328125 38.25 0.953125 
Q 33.9375 -1.421875 27.875 -1.421875 
Q 17.96875 -1.421875 11.734375 6.484375 
Q 5.515625 14.40625 5.515625 27.296875 
Q 5.515625 40.1875 11.734375 48.09375 
Q 17.96875 56 27.875 56 
Q 33.9375 56 38.25 53.625 
Q 42.578125 51.265625 45.40625 46.390625 
M 14.796875 27.296875 
Q 14.796875 17.390625 18.875 11.75 
Q 22.953125 6.109375 30.078125 6.109375 
Q 37.203125 6.109375 41.296875 11.75 
Q 45.40625 17.390625 45.40625 27.296875 
Q 45.40625 37.203125 41.296875 42.84375 
Q 37.203125 48.484375 30.078125 48.484375 
Q 22.953125 48.484375 18.875 42.84375 
Q 14.796875 37.203125 14.796875 27.296875 
" id="DejaVuSans-64"/>
      <path d="M 31 75.875 
Q 24.46875 64.65625 21.28125 53.65625 
Q 18.109375 42.671875 18.109375 31.390625 
Q 18.109375 20.125 21.3125 9.0625 
Q 24.515625 -2 31 -13.1875 
L 23.1875 -13.1875 
Q 15.875 -1.703125 12.234375 9.375 
Q 8.59375 20.453125 8.59375 31.390625 
Q 8.59375 42.28125 12.203125 53.3125 
Q 15.828125 64.359375 23.1875 75.875 
z
" id="DejaVuSans-28"/>
      <path d="M 52 44.1875 
Q 55.375 50.25 60.0625 53.125 
Q 64.75 56 71.09375 56 
Q 79.640625 56 84.28125 50.015625 
Q 88.921875 44.046875 88.921875 33.015625 
L 88.921875 0 
L 79.890625 0 
L 79.890625 32.71875 
Q 79.890625 40.578125 77.09375 44.375 
Q 74.3125 48.1875 68.609375 48.1875 
Q 61.625 48.1875 57.5625 43.546875 
Q 53.515625 38.921875 53.515625 30.90625 
L 53.515625 0 
L 44.484375 0 
L 44.484375 32.71875 
Q 44.484375 40.625 41.703125 44.40625 
Q 38.921875 48.1875 33.109375 48.1875 
Q 26.21875 48.1875 22.15625 43.53125 
Q 18.109375 38.875 18.109375 30.90625 
L 18.109375 0 
L 9.078125 0 
L 9.078125 54.6875 
L 18.109375 54.6875 
L 18.109375 46.1875 
Q 21.1875 51.21875 25.484375 53.609375 
Q 29.78125 56 35.6875 56 
Q 41.65625 56 45.828125 52.96875 
Q 50 49.953125 52 44.1875 
" id="DejaVuSans-6d"/>
      <path d="M 8.015625 75.875 
L 15.828125 75.875 
Q 23.140625 64.359375 26.78125 53.3125 
Q 30.421875 42.28125 30.421875 31.390625 
Q 30.421875 20.453125 26.78125 9.375 
Q 23.140625 -1.703125 15.828125 -13.1875 
L 8.015625 -13.1875 
Q 14.5 -2 17.703125 9.0625 
Q 20.90625 20.125 20.90625 31.390625 
Q 20.90625 42.671875 17.703125 53.65625 
Q 14.5 64.65625 8.015625 75.875 
" id="DejaVuSans-29"/>
     </defs>
     <g transform="translate(307.843437 72.748563)scale(0.1 -0.1)">
      <use xlink:href="#DejaVuSans-70"/>
      <use x="63.476562" xlink:href="#DejaVuSans-72"/>
      <use x="104.558594" xlink:href="#DejaVuSans-65"/>
      <use x="166.082031" xlink:href="#DejaVuSans-64"/>
      <use x="229.558594" xlink:href="#DejaVuSans-2e"/>
      <use x="261.345703" xlink:href="#DejaVuSans-20"/>
      <use x="293.132812" xlink:href="#DejaVuSans-28"/>
      <use x="332.146484" xlink:href="#DejaVuSans-6d"/>
      <use x="429.558594" xlink:href="#DejaVuSans-65"/>
      <use x="491.082031" xlink:href="#DejaVuSans-61"/>
      <use x="552.361328" xlink:href="#DejaVuSans-6e"/>
      <use x="615.740234" xlink:href="#DejaVuSans-29"/>
     </g>
    </g>
    <g id="line2d_19">
     <path d="M 279.843437 83.926688 
L 299.843437 83.926688 
" style="fill:none;stroke:#2ca02c;stroke-linecap:square;stroke-width:1.5;"/>
    </g>
    <g id="line2d_20"/>
    <g id="text_14">
     <!-- pred.(5th percen.) -->
     <defs>
      <path d="M 54.890625 33.015625 
L 54.890625 0 
L 45.90625 0 
L 45.90625 32.71875 
Q 45.90625 40.484375 42.875 44.328125 
Q 39.84375 48.1875 33.796875 48.1875 
Q 26.515625 48.1875 22.3125 43.546875 
Q 18.109375 38.921875 18.109375 30.90625 
L 18.109375 0 
L 9.078125 0 
L 9.078125 75.984375 
L 18.109375 75.984375 
L 18.109375 46.1875 
Q 21.34375 51.125 25.703125 53.5625 
Q 30.078125 56 35.796875 56 
Q 45.21875 56 50.046875 50.171875 
Q 54.890625 44.34375 54.890625 33.015625 
" id="DejaVuSans-68"/>
     </defs>
     <g transform="translate(307.843437 87.426688)scale(0.1 -0.1)">
      <use xlink:href="#DejaVuSans-70"/>
      <use x="63.476562" xlink:href="#DejaVuSans-72"/>
      <use x="104.558594" xlink:href="#DejaVuSans-65"/>
      <use x="166.082031" xlink:href="#DejaVuSans-64"/>
      <use x="229.558594" xlink:href="#DejaVuSans-2e"/>
      <use x="261.345703" xlink:href="#DejaVuSans-28"/>
      <use x="300.359375" xlink:href="#DejaVuSans-35"/>
      <use x="363.982422" xlink:href="#DejaVuSans-74"/>
      <use x="403.191406" xlink:href="#DejaVuSans-68"/>
      <use x="466.570312" xlink:href="#DejaVuSans-20"/>
      <use x="498.357422" xlink:href="#DejaVuSans-70"/>
      <use x="561.833984" xlink:href="#DejaVuSans-65"/>
      <use x="623.357422" xlink:href="#DejaVuSans-72"/>
      <use x="664.439453" xlink:href="#DejaVuSans-63"/>
      <use x="719.419922" xlink:href="#DejaVuSans-65"/>
      <use x="780.943359" xlink:href="#DejaVuSans-6e"/>
      <use x="844.322266" xlink:href="#DejaVuSans-2e"/>
      <use x="876.109375" xlink:href="#DejaVuSans-29"/>
     </g>
    </g>
    <g id="line2d_21">
     <path d="M 279.843437 98.604813 
L 299.843437 98.604813 
" style="fill:none;stroke:#d62728;stroke-linecap:square;stroke-width:1.5;"/>
    </g>
    <g id="line2d_22"/>
    <g id="text_15">
     <!-- pred.(95th percen.) -->
     <defs>
      <path d="M 10.984375 1.515625 
L 10.984375 10.5 
Q 14.703125 8.734375 18.5 7.8125 
Q 22.3125 6.890625 25.984375 6.890625 
Q 35.75 6.890625 40.890625 13.453125 
Q 46.046875 20.015625 46.78125 33.40625 
Q 43.953125 29.203125 39.59375 26.953125 
Q 35.25 24.703125 29.984375 24.703125 
Q 19.046875 24.703125 12.671875 31.3125 
Q 6.296875 37.9375 6.296875 49.421875 
Q 6.296875 60.640625 12.9375 67.421875 
Q 19.578125 74.21875 30.609375 74.21875 
Q 43.265625 74.21875 49.921875 64.515625 
Q 56.59375 54.828125 56.59375 36.375 
Q 56.59375 19.140625 48.40625 8.859375 
Q 40.234375 -1.421875 26.421875 -1.421875 
Q 22.703125 -1.421875 18.890625 -0.6875 
Q 15.09375 0.046875 10.984375 1.515625 
M 30.609375 32.421875 
Q 37.25 32.421875 41.125 36.953125 
Q 45.015625 41.5 45.015625 49.421875 
Q 45.015625 57.28125 41.125 61.84375 
Q 37.25 66.40625 30.609375 66.40625 
Q 23.96875 66.40625 20.09375 61.84375 
Q 16.21875 57.28125 16.21875 49.421875 
Q 16.21875 41.5 20.09375 36.953125 
Q 23.96875 32.421875 30.609375 32.421875 
" id="DejaVuSans-39"/>
     </defs>
     <g transform="translate(307.843437 102.104813)scale(0.1 -0.1)">
      <use xlink:href="#DejaVuSans-70"/>
      <use x="63.476562" xlink:href="#DejaVuSans-72"/>
      <use x="104.558594" xlink:href="#DejaVuSans-65"/>
      <use x="166.082031" xlink:href="#DejaVuSans-64"/>
      <use x="229.558594" xlink:href="#DejaVuSans-2e"/>
      <use x="261.345703" xlink:href="#DejaVuSans-28"/>
      <use x="300.359375" xlink:href="#DejaVuSans-39"/>
      <use x="363.982422" xlink:href="#DejaVuSans-35"/>
      <use x="427.605469" xlink:href="#DejaVuSans-74"/>
      <use x="466.814453" xlink:href="#DejaVuSans-68"/>
      <use x="530.193359" xlink:href="#DejaVuSans-20"/>
      <use x="561.980469" xlink:href="#DejaVuSans-70"/>
      <use x="625.457031" xlink:href="#DejaVuSans-65"/>
      <use x="686.980469" xlink:href="#DejaVuSans-72"/>
      <use x="728.0625" xlink:href="#DejaVuSans-63"/>
      <use x="783.042969" xlink:href="#DejaVuSans-65"/>
      <use x="844.566406" xlink:href="#DejaVuSans-6e"/>
      <use x="907.945312" xlink:href="#DejaVuSans-2e"/>
      <use x="939.732422" xlink:href="#DejaVuSans-29"/>
     </g>
    </g>
   </g>
  </g>
 </g>
 <defs>
  <clipPath id="p110f3e95cd">
   <rect height="266.112" width="357.12" x="57.6" y="41.472"/>
  </clipPath>
 </defs>
</svg>
