<?xml version="1.0" encoding="utf-8" standalone="no"?>
<!DOCTYPE svg PUBLIC "-//W3C//DTD SVG 1.1//EN"
  "http://www.w3.org/Graphics/SVG/1.1/DTD/svg11.dtd">
<!-- Created with matplotlib (http://matplotlib.org/) -->
<svg height="345pt" version="1.1" viewBox="0 0 460 345" width="460pt" xmlns="http://www.w3.org/2000/svg" xmlns:xlink="http://www.w3.org/1999/xlink">
 <defs>
  <style type="text/css">
*{stroke-linecap:butt;stroke-linejoin:round;}
  </style>
 </defs>
 <g id="figure_1">
  <g id="patch_1">
   <path d="M 0 345.6 
L 460.8 345.6 
L 460.8 0 
L 0 0 
z
" style="fill:#ffffff;"/>
  </g>
  <g id="axes_1">
   <g id="patch_2">
    <path d="M 57.6 307.584 
L 414.72 307.584 
L 414.72 41.472 
L 57.6 41.472 
z
" style="fill:#ffffff;"/>
   </g>
   <g id="PolyCollection_1">
    <path clip-path="url(#p1ad736697f)" d="M 73.832727 272.303872 
L 73.832727 289.812325 
L 75.48072 292.534212 
L 77.128713 275.231696 
L 78.776705 274.913776 
L 80.424698 248.603895 
L 82.07269 291.977403 
L 83.720683 264.295336 
L 85.368676 170.255054 
L 87.016668 223.686471 
L 88.664661 247.301023 
L 90.312653 230.726789 
L 91.960646 230.661082 
L 93.608639 250.351013 
L 95.256631 239.005714 
L 96.904624 223.344366 
L 98.552617 244.534358 
L 100.200609 246.840969 
L 101.848602 225.578657 
L 103.496594 236.550419 
L 105.144587 250.608804 
L 106.79258 233.666386 
L 108.440572 222.085701 
L 110.088565 247.855213 
L 111.736557 246.908243 
L 113.38455 222.240323 
L 115.032543 240.071855 
L 116.680535 253.029238 
L 118.328528 230.424124 
L 119.976521 223.922108 
L 121.624513 251.777942 
L 123.272506 245.170999 
L 124.920498 219.791213 
L 126.568491 244.297013 
L 128.216484 255.419226 
L 129.864476 228.420973 
L 131.512469 227.114302 
L 133.160461 254.960283 
L 134.808454 244.188756 
L 136.456447 216.007341 
L 138.104439 248.137936 
L 139.752432 255.382948 
L 141.400425 222.423612 
L 143.048417 230.121597 
L 144.69641 256.681296 
L 146.344402 240.033826 
L 147.992395 212.362311 
L 149.640388 251.701023 
L 151.28838 253.521185 
L 152.936373 215.17061 
L 154.584365 234.528542 
L 156.232358 258.575525 
L 157.880351 236.327638 
L 159.528343 210.97406 
L 161.176336 255.533705 
L 162.824329 254.656553 
L 164.472321 212.598304 
L 166.120314 240.494149 
L 167.768306 261.614111 
L 169.416299 231.901987 
L 171.064292 211.836653 
L 172.712284 258.679787 
L 174.360277 251.506748 
L 176.008269 203.901272 
L 177.656262 246.343923 
L 179.304255 262.765452 
L 180.952247 225.552217 
L 182.60024 209.077809 
L 184.248233 259.647074 
L 185.896225 250.485488 
L 187.544218 196.650053 
L 189.19221 250.488127 
L 190.840203 264.432994 
L 192.488196 219.25164 
L 194.136188 210.559452 
L 195.784181 262.042392 
L 197.432174 250.204464 
L 199.080166 191.672348 
L 200.728159 254.188276 
L 202.376151 266.221474 
L 204.024144 214.318823 
L 205.672137 212.765431 
L 207.320129 264.787901 
L 208.968122 249.931149 
L 210.616114 184.833661 
L 212.264107 258.053197 
L 213.9121 266.556444 
L 215.560092 207.913313 
L 217.208085 211.922177 
L 218.856078 265.737121 
L 220.50407 249.774497 
L 222.152063 175.97339 
L 223.800055 258.220874 
L 225.448048 267.401921 
L 227.096041 202.037348 
L 228.744033 209.876949 
L 230.392026 266.281131 
L 232.040018 248.515667 
L 233.688011 167.635619 
L 235.336004 259.639432 
L 236.983996 270.187494 
L 238.631989 202.820252 
L 240.279982 208.672523 
L 241.927974 267.957399 
L 243.575967 251.857314 
L 245.223959 164.487998 
L 246.871952 261.026016 
L 248.519945 272.073045 
L 250.167937 206.211403 
L 251.81593 201.909212 
L 253.463922 268.21866 
L 255.111915 257.629273 
L 256.759908 163.127375 
L 258.4079 259.438572 
L 260.055893 273.708152 
L 261.703886 212.033666 
L 263.351878 190.783736 
L 264.999871 268.034751 
L 266.647863 261.393287 
L 268.295856 162.666099 
L 269.943849 252.406528 
L 271.591841 273.596898 
L 273.239834 219.719202 
L 274.887826 173.461884 
L 276.535819 268.607351 
L 278.183812 269.360812 
L 279.831804 171.614521 
L 281.479797 234.80732 
L 283.12779 272.319809 
L 284.775782 235.818363 
L 286.423775 142.76017 
L 288.071767 269.118177 
L 289.71976 274.930888 
L 291.367753 187.455811 
L 293.015745 211.125731 
L 294.663738 275.145673 
L 296.311731 254.068351 
L 297.959723 136.061594 
L 299.607716 266.382177 
L 301.255708 277.843165 
L 302.903701 204.30557 
L 304.551694 178.778747 
L 306.199686 270.32852 
L 307.847679 267.376676 
L 309.495671 155.959175 
L 311.143664 242.990248 
L 312.791657 275.656483 
L 314.439649 232.20162 
L 316.087642 124.375391 
L 317.735635 271.250195 
L 319.383627 277.761999 
L 321.03162 181.834907 
L 322.679612 205.050548 
L 324.327605 276.44029 
L 325.975598 259.831212 
L 327.62359 134.386535 
L 329.271583 263.803972 
L 330.919575 279.719329 
L 332.567568 225.977828 
L 334.215561 139.324153 
L 335.863553 272.625582 
L 337.511546 276.52968 
L 339.159539 174.35791 
L 340.807531 214.496973 
L 342.455524 280.632681 
L 344.103516 262.448947 
L 345.751509 125.689907 
L 347.399502 267.623815 
L 349.047494 280.107059 
L 350.695487 220.395714 
L 352.343479 133.523028 
L 353.991472 272.921443 
L 355.639465 276.978303 
L 357.287457 173.886845 
L 358.93545 212.085881 
L 360.583443 281.011827 
L 362.231435 264.876633 
L 363.879428 131.359647 
L 365.52742 262.566502 
L 367.175413 279.727129 
L 368.823406 241.229651 
L 370.471398 97.353961 
L 372.119391 276.019671 
L 373.767383 282.72451 
L 375.415376 192.30861 
L 377.063369 178.766404 
L 378.711361 279.970502 
L 380.359354 275.718438 
L 382.007347 154.139907 
L 383.655339 228.152293 
L 385.303332 284.204759 
L 386.951324 263.787415 
L 388.599317 111.274814 
L 390.24731 272.428274 
L 391.895302 283.678349 
L 393.543295 238.809121 
L 395.191287 84.598401 
L 396.83928 278.273094 
L 398.487273 284.462635 
L 398.487273 278.800597 
L 398.487273 278.800597 
L 396.83928 268.482132 
L 395.191287 74.686066 
L 393.543295 210.967133 
L 391.895302 278.866052 
L 390.24731 249.493452 
L 388.599317 53.568 
L 386.951324 236.871399 
L 385.303332 271.604913 
L 383.655339 213.668227 
L 382.007347 100.722777 
L 380.359354 264.596131 
L 378.711361 269.12038 
L 377.063369 112.695707 
L 375.415376 184.958669 
L 373.767383 275.224952 
L 372.119391 264.080283 
L 370.471398 85.211572 
L 368.823406 218.444488 
L 367.175413 274.227826 
L 365.52742 238.542235 
L 363.879428 76.235328 
L 362.231435 250.520577 
L 360.583443 268.753433 
L 358.93545 169.453454 
L 357.287457 142.201922 
L 355.639465 265.548971 
L 353.991472 262.709727 
L 352.343479 104.158535 
L 350.695487 210.945645 
L 349.047494 272.4939 
L 347.399502 244.091536 
L 345.751509 76.389953 
L 344.103516 247.780799 
L 342.455524 270.054525 
L 340.807531 187.99771 
L 339.159539 142.022438 
L 337.511546 266.669214 
L 335.863553 262.690373 
L 334.215561 112.610925 
L 332.567568 215.346476 
L 330.919575 274.159879 
L 329.271583 240.946316 
L 327.62359 86.240229 
L 325.975598 251.478427 
L 324.327605 268.093919 
L 322.679612 172.199688 
L 321.03162 150.858389 
L 319.383627 267.334634 
L 317.735635 256.665249 
L 316.087642 108.452256 
L 314.439649 224.670096 
L 312.791657 270.346612 
L 311.143664 226.354588 
L 309.495671 106.65759 
L 307.847679 257.242219 
L 306.199686 264.534172 
L 304.551694 145.302976 
L 302.903701 189.329234 
L 301.255708 267.965038 
L 299.607716 244.143573 
L 297.959723 101.804867 
L 296.311731 245.280773 
L 294.663738 268.848734 
L 293.015745 198.21678 
L 291.367753 157.561022 
L 289.71976 260.427435 
L 288.071767 251.4659 
L 286.423775 125.65175 
L 284.775782 226.605765 
L 283.12779 266.089441 
L 281.479797 220.371783 
L 279.831804 128.429722 
L 278.183812 256.241908 
L 276.535819 255.577653 
L 274.887826 152.938596 
L 273.239834 203.875409 
L 271.591841 263.537335 
L 269.943849 229.827392 
L 268.295856 123.107874 
L 266.647863 245.47281 
L 264.999871 258.418521 
L 263.351878 172.828401 
L 261.703886 191.797604 
L 260.055893 260.53288 
L 258.4079 235.426631 
L 256.759908 130.303838 
L 255.111915 244.86729 
L 253.463922 259.149334 
L 251.81593 190.303903 
L 250.167937 180.312612 
L 248.519945 256.455144 
L 246.871952 238.469754 
L 245.223959 137.12383 
L 243.575967 238.303881 
L 241.927974 259.213988 
L 240.279982 200.503752 
L 238.631989 171.026545 
L 236.983996 254.5189 
L 235.336004 237.927908 
L 233.688011 142.757491 
L 232.040018 233.055611 
L 230.392026 255.899885 
L 228.744033 202.009731 
L 227.096041 169.208925 
L 225.448048 249.290523 
L 223.800055 236.991691 
L 222.152063 151.476105 
L 220.50407 234.465823 
L 218.856078 254.038362 
L 217.208085 202.835474 
L 215.560092 180.352933 
L 213.9121 247.398203 
L 212.264107 237.417474 
L 210.616114 160.825753 
L 208.968122 232.408278 
L 207.320129 251.844806 
L 205.672137 202.31112 
L 204.024144 188.423479 
L 202.376151 250.874394 
L 200.728159 232.512769 
L 199.080166 168.001308 
L 197.432174 228.505146 
L 195.784181 245.03814 
L 194.136188 199.030173 
L 192.488196 194.29019 
L 190.840203 247.499608 
L 189.19221 229.133529 
L 187.544218 171.683035 
L 185.896225 225.250842 
L 184.248233 240.514962 
L 182.60024 195.952381 
L 180.952247 199.727409 
L 179.304255 245.011534 
L 177.656262 225.765539 
L 176.008269 180.155044 
L 174.360277 226.54839 
L 172.712284 240.073297 
L 171.064292 196.696476 
L 169.416299 207.726602 
L 167.768306 245.33025 
L 166.120314 220.524772 
L 164.472321 188.185542 
L 162.824329 233.517899 
L 161.176336 235.740686 
L 159.528343 193.992715 
L 157.880351 214.4985 
L 156.232358 241.706253 
L 154.584365 216.683444 
L 152.936373 190.847749 
L 151.28838 231.473562 
L 149.640388 232.190666 
L 147.992395 193.609999 
L 146.344402 218.34105 
L 144.69641 239.683575 
L 143.048417 213.051388 
L 141.400425 197.787911 
L 139.752432 237.787272 
L 138.104439 228.870956 
L 136.456447 196.155249 
L 134.808454 225.024023 
L 133.160461 238.812837 
L 131.512469 210.205698 
L 129.864476 207.611018 
L 128.216484 240.484767 
L 126.568491 226.201657 
L 124.920498 200.881858 
L 123.272506 225.678385 
L 121.624513 235.343878 
L 119.976521 207.253964 
L 118.328528 208.542719 
L 116.680535 236.044081 
L 115.032543 221.755003 
L 113.38455 202.790348 
L 111.736557 227.854055 
L 110.088565 230.00908 
L 108.440572 204.02887 
L 106.79258 212.122239 
L 105.144587 232.665597 
L 103.496594 219.103369 
L 101.848602 206.466123 
L 100.200609 228.466296 
L 98.552617 226.756558 
L 96.904624 206.459577 
L 95.256631 222.786599 
L 93.608639 236.696641 
L 91.960646 216.438612 
L 90.312653 209.328384 
L 88.664661 237.617334 
L 87.016668 193.334818 
L 85.368676 159.454792 
L 83.720683 204.33258 
L 82.07269 207.309541 
L 80.424698 174.413552 
L 78.776705 187.256693 
L 77.128713 203.805904 
L 75.48072 284.457615 
L 73.832727 272.303872 
z
" style="fill:#008000;fill-opacity:0.4;"/>
   </g>
   <g id="matplotlib.axis_1">
    <g id="xtick_1">
     <g id="line2d_1">
      <defs>
       <path d="M 0 0 
L 0 3.5 
" id="m0eaf53f817" style="stroke:#000000;stroke-width:0.8;"/>
      </defs>
      <g>
       <use style="stroke:#000000;stroke-width:0.8;" x="73.832727" xlink:href="#m0eaf53f817" y="307.584"/>
      </g>
     </g>
     <g id="text_1">
      <!-- 0.0 -->
      <defs>
       <path d="M 31.78125 66.40625 
Q 24.171875 66.40625 20.328125 58.90625 
Q 16.5 51.421875 16.5 36.375 
Q 16.5 21.390625 20.328125 13.890625 
Q 24.171875 6.390625 31.78125 6.390625 
Q 39.453125 6.390625 43.28125 13.890625 
Q 47.125 21.390625 47.125 36.375 
Q 47.125 51.421875 43.28125 58.90625 
Q 39.453125 66.40625 31.78125 66.40625 
M 31.78125 74.21875 
Q 44.046875 74.21875 50.515625 64.515625 
Q 56.984375 54.828125 56.984375 36.375 
Q 56.984375 17.96875 50.515625 8.265625 
Q 44.046875 -1.421875 31.78125 -1.421875 
Q 19.53125 -1.421875 13.0625 8.265625 
Q 6.59375 17.96875 6.59375 36.375 
Q 6.59375 54.828125 13.0625 64.515625 
Q 19.53125 74.21875 31.78125 74.21875 
" id="DejaVuSans-30"/>
       <path d="M 10.6875 12.40625 
L 21 12.40625 
L 21 0 
L 10.6875 0 
z
" id="DejaVuSans-2e"/>
      </defs>
      <g transform="translate(65.881165 322.182437)scale(0.1 -0.1)">
       <use xlink:href="#DejaVuSans-30"/>
       <use x="63.623047" xlink:href="#DejaVuSans-2e"/>
       <use x="95.410156" xlink:href="#DejaVuSans-30"/>
      </g>
     </g>
    </g>
    <g id="xtick_2">
     <g id="line2d_2">
      <g>
       <use style="stroke:#000000;stroke-width:0.8;" x="138.763636" xlink:href="#m0eaf53f817" y="307.584"/>
      </g>
     </g>
     <g id="text_2">
      <!-- 0.2 -->
      <defs>
       <path d="M 19.1875 8.296875 
L 53.609375 8.296875 
L 53.609375 0 
L 7.328125 0 
L 7.328125 8.296875 
Q 12.9375 14.109375 22.625 23.890625 
Q 32.328125 33.6875 34.8125 36.53125 
Q 39.546875 41.84375 41.421875 45.53125 
Q 43.3125 49.21875 43.3125 52.78125 
Q 43.3125 58.59375 39.234375 62.25 
Q 35.15625 65.921875 28.609375 65.921875 
Q 23.96875 65.921875 18.8125 64.3125 
Q 13.671875 62.703125 7.8125 59.421875 
L 7.8125 69.390625 
Q 13.765625 71.78125 18.9375 73 
Q 24.125 74.21875 28.421875 74.21875 
Q 39.75 74.21875 46.484375 68.546875 
Q 53.21875 62.890625 53.21875 53.421875 
Q 53.21875 48.921875 51.53125 44.890625 
Q 49.859375 40.875 45.40625 35.40625 
Q 44.1875 33.984375 37.640625 27.21875 
Q 31.109375 20.453125 19.1875 8.296875 
" id="DejaVuSans-32"/>
      </defs>
      <g transform="translate(130.812074 322.182437)scale(0.1 -0.1)">
       <use xlink:href="#DejaVuSans-30"/>
       <use x="63.623047" xlink:href="#DejaVuSans-2e"/>
       <use x="95.410156" xlink:href="#DejaVuSans-32"/>
      </g>
     </g>
    </g>
    <g id="xtick_3">
     <g id="line2d_3">
      <g>
       <use style="stroke:#000000;stroke-width:0.8;" x="203.694545" xlink:href="#m0eaf53f817" y="307.584"/>
      </g>
     </g>
     <g id="text_3">
      <!-- 0.4 -->
      <defs>
       <path d="M 37.796875 64.3125 
L 12.890625 25.390625 
L 37.796875 25.390625 
z
M 35.203125 72.90625 
L 47.609375 72.90625 
L 47.609375 25.390625 
L 58.015625 25.390625 
L 58.015625 17.1875 
L 47.609375 17.1875 
L 47.609375 0 
L 37.796875 0 
L 37.796875 17.1875 
L 4.890625 17.1875 
L 4.890625 26.703125 
z
" id="DejaVuSans-34"/>
      </defs>
      <g transform="translate(195.742983 322.182437)scale(0.1 -0.1)">
       <use xlink:href="#DejaVuSans-30"/>
       <use x="63.623047" xlink:href="#DejaVuSans-2e"/>
       <use x="95.410156" xlink:href="#DejaVuSans-34"/>
      </g>
     </g>
    </g>
    <g id="xtick_4">
     <g id="line2d_4">
      <g>
       <use style="stroke:#000000;stroke-width:0.8;" x="268.625455" xlink:href="#m0eaf53f817" y="307.584"/>
      </g>
     </g>
     <g id="text_4">
      <!-- 0.6 -->
      <defs>
       <path d="M 33.015625 40.375 
Q 26.375 40.375 22.484375 35.828125 
Q 18.609375 31.296875 18.609375 23.390625 
Q 18.609375 15.53125 22.484375 10.953125 
Q 26.375 6.390625 33.015625 6.390625 
Q 39.65625 6.390625 43.53125 10.953125 
Q 47.40625 15.53125 47.40625 23.390625 
Q 47.40625 31.296875 43.53125 35.828125 
Q 39.65625 40.375 33.015625 40.375 
M 52.59375 71.296875 
L 52.59375 62.3125 
Q 48.875 64.0625 45.09375 64.984375 
Q 41.3125 65.921875 37.59375 65.921875 
Q 27.828125 65.921875 22.671875 59.328125 
Q 17.53125 52.734375 16.796875 39.40625 
Q 19.671875 43.65625 24.015625 45.921875 
Q 28.375 48.1875 33.59375 48.1875 
Q 44.578125 48.1875 50.953125 41.515625 
Q 57.328125 34.859375 57.328125 23.390625 
Q 57.328125 12.15625 50.6875 5.359375 
Q 44.046875 -1.421875 33.015625 -1.421875 
Q 20.359375 -1.421875 13.671875 8.265625 
Q 6.984375 17.96875 6.984375 36.375 
Q 6.984375 53.65625 15.1875 63.9375 
Q 23.390625 74.21875 37.203125 74.21875 
Q 40.921875 74.21875 44.703125 73.484375 
Q 48.484375 72.75 52.59375 71.296875 
" id="DejaVuSans-36"/>
      </defs>
      <g transform="translate(260.673892 322.182437)scale(0.1 -0.1)">
       <use xlink:href="#DejaVuSans-30"/>
       <use x="63.623047" xlink:href="#DejaVuSans-2e"/>
       <use x="95.410156" xlink:href="#DejaVuSans-36"/>
      </g>
     </g>
    </g>
    <g id="xtick_5">
     <g id="line2d_5">
      <g>
       <use style="stroke:#000000;stroke-width:0.8;" x="333.556364" xlink:href="#m0eaf53f817" y="307.584"/>
      </g>
     </g>
     <g id="text_5">
      <!-- 0.8 -->
      <defs>
       <path d="M 31.78125 34.625 
Q 24.75 34.625 20.71875 30.859375 
Q 16.703125 27.09375 16.703125 20.515625 
Q 16.703125 13.921875 20.71875 10.15625 
Q 24.75 6.390625 31.78125 6.390625 
Q 38.8125 6.390625 42.859375 10.171875 
Q 46.921875 13.96875 46.921875 20.515625 
Q 46.921875 27.09375 42.890625 30.859375 
Q 38.875 34.625 31.78125 34.625 
M 21.921875 38.8125 
Q 15.578125 40.375 12.03125 44.71875 
Q 8.5 49.078125 8.5 55.328125 
Q 8.5 64.0625 14.71875 69.140625 
Q 20.953125 74.21875 31.78125 74.21875 
Q 42.671875 74.21875 48.875 69.140625 
Q 55.078125 64.0625 55.078125 55.328125 
Q 55.078125 49.078125 51.53125 44.71875 
Q 48 40.375 41.703125 38.8125 
Q 48.828125 37.15625 52.796875 32.3125 
Q 56.78125 27.484375 56.78125 20.515625 
Q 56.78125 9.90625 50.3125 4.234375 
Q 43.84375 -1.421875 31.78125 -1.421875 
Q 19.734375 -1.421875 13.25 4.234375 
Q 6.78125 9.90625 6.78125 20.515625 
Q 6.78125 27.484375 10.78125 32.3125 
Q 14.796875 37.15625 21.921875 38.8125 
M 18.3125 54.390625 
Q 18.3125 48.734375 21.84375 45.5625 
Q 25.390625 42.390625 31.78125 42.390625 
Q 38.140625 42.390625 41.71875 45.5625 
Q 45.3125 48.734375 45.3125 54.390625 
Q 45.3125 60.0625 41.71875 63.234375 
Q 38.140625 66.40625 31.78125 66.40625 
Q 25.390625 66.40625 21.84375 63.234375 
Q 18.3125 60.0625 18.3125 54.390625 
" id="DejaVuSans-38"/>
      </defs>
      <g transform="translate(325.604801 322.182437)scale(0.1 -0.1)">
       <use xlink:href="#DejaVuSans-30"/>
       <use x="63.623047" xlink:href="#DejaVuSans-2e"/>
       <use x="95.410156" xlink:href="#DejaVuSans-38"/>
      </g>
     </g>
    </g>
    <g id="xtick_6">
     <g id="line2d_6">
      <g>
       <use style="stroke:#000000;stroke-width:0.8;" x="398.487273" xlink:href="#m0eaf53f817" y="307.584"/>
      </g>
     </g>
     <g id="text_6">
      <!-- 1.0 -->
      <defs>
       <path d="M 12.40625 8.296875 
L 28.515625 8.296875 
L 28.515625 63.921875 
L 10.984375 60.40625 
L 10.984375 69.390625 
L 28.421875 72.90625 
L 38.28125 72.90625 
L 38.28125 8.296875 
L 54.390625 8.296875 
L 54.390625 0 
L 12.40625 0 
z
" id="DejaVuSans-31"/>
      </defs>
      <g transform="translate(390.53571 322.182437)scale(0.1 -0.1)">
       <use xlink:href="#DejaVuSans-31"/>
       <use x="63.623047" xlink:href="#DejaVuSans-2e"/>
       <use x="95.410156" xlink:href="#DejaVuSans-30"/>
      </g>
     </g>
    </g>
   </g>
   <g id="matplotlib.axis_2">
    <g id="ytick_1">
     <g id="line2d_7">
      <defs>
       <path d="M 0 0 
L -3.5 0 
" id="m0ba88e0fc0" style="stroke:#000000;stroke-width:0.8;"/>
      </defs>
      <g>
       <use style="stroke:#000000;stroke-width:0.8;" x="57.6" xlink:href="#m0ba88e0fc0" y="298.126448"/>
      </g>
     </g>
     <g id="text_7">
      <!-- 0.0 -->
      <g transform="translate(34.696875 301.925667)scale(0.1 -0.1)">
       <use xlink:href="#DejaVuSans-30"/>
       <use x="63.623047" xlink:href="#DejaVuSans-2e"/>
       <use x="95.410156" xlink:href="#DejaVuSans-30"/>
      </g>
     </g>
    </g>
    <g id="ytick_2">
     <g id="line2d_8">
      <g>
       <use style="stroke:#000000;stroke-width:0.8;" x="57.6" xlink:href="#m0ba88e0fc0" y="264.354311"/>
      </g>
     </g>
     <g id="text_8">
      <!-- 0.1 -->
      <g transform="translate(34.696875 268.15353)scale(0.1 -0.1)">
       <use xlink:href="#DejaVuSans-30"/>
       <use x="63.623047" xlink:href="#DejaVuSans-2e"/>
       <use x="95.410156" xlink:href="#DejaVuSans-31"/>
      </g>
     </g>
    </g>
    <g id="ytick_3">
     <g id="line2d_9">
      <g>
       <use style="stroke:#000000;stroke-width:0.8;" x="57.6" xlink:href="#m0ba88e0fc0" y="230.582174"/>
      </g>
     </g>
     <g id="text_9">
      <!-- 0.2 -->
      <g transform="translate(34.696875 234.381393)scale(0.1 -0.1)">
       <use xlink:href="#DejaVuSans-30"/>
       <use x="63.623047" xlink:href="#DejaVuSans-2e"/>
       <use x="95.410156" xlink:href="#DejaVuSans-32"/>
      </g>
     </g>
    </g>
    <g id="ytick_4">
     <g id="line2d_10">
      <g>
       <use style="stroke:#000000;stroke-width:0.8;" x="57.6" xlink:href="#m0ba88e0fc0" y="196.810037"/>
      </g>
     </g>
     <g id="text_10">
      <!-- 0.3 -->
      <defs>
       <path d="M 40.578125 39.3125 
Q 47.65625 37.796875 51.625 33 
Q 55.609375 28.21875 55.609375 21.1875 
Q 55.609375 10.40625 48.1875 4.484375 
Q 40.765625 -1.421875 27.09375 -1.421875 
Q 22.515625 -1.421875 17.65625 -0.515625 
Q 12.796875 0.390625 7.625 2.203125 
L 7.625 11.71875 
Q 11.71875 9.328125 16.59375 8.109375 
Q 21.484375 6.890625 26.8125 6.890625 
Q 36.078125 6.890625 40.9375 10.546875 
Q 45.796875 14.203125 45.796875 21.1875 
Q 45.796875 27.640625 41.28125 31.265625 
Q 36.765625 34.90625 28.71875 34.90625 
L 20.21875 34.90625 
L 20.21875 43.015625 
L 29.109375 43.015625 
Q 36.375 43.015625 40.234375 45.921875 
Q 44.09375 48.828125 44.09375 54.296875 
Q 44.09375 59.90625 40.109375 62.90625 
Q 36.140625 65.921875 28.71875 65.921875 
Q 24.65625 65.921875 20.015625 65.03125 
Q 15.375 64.15625 9.8125 62.3125 
L 9.8125 71.09375 
Q 15.4375 72.65625 20.34375 73.4375 
Q 25.25 74.21875 29.59375 74.21875 
Q 40.828125 74.21875 47.359375 69.109375 
Q 53.90625 64.015625 53.90625 55.328125 
Q 53.90625 49.265625 50.4375 45.09375 
Q 46.96875 40.921875 40.578125 39.3125 
" id="DejaVuSans-33"/>
      </defs>
      <g transform="translate(34.696875 200.609256)scale(0.1 -0.1)">
       <use xlink:href="#DejaVuSans-30"/>
       <use x="63.623047" xlink:href="#DejaVuSans-2e"/>
       <use x="95.410156" xlink:href="#DejaVuSans-33"/>
      </g>
     </g>
    </g>
    <g id="ytick_5">
     <g id="line2d_11">
      <g>
       <use style="stroke:#000000;stroke-width:0.8;" x="57.6" xlink:href="#m0ba88e0fc0" y="163.0379"/>
      </g>
     </g>
     <g id="text_11">
      <!-- 0.4 -->
      <g transform="translate(34.696875 166.837119)scale(0.1 -0.1)">
       <use xlink:href="#DejaVuSans-30"/>
       <use x="63.623047" xlink:href="#DejaVuSans-2e"/>
       <use x="95.410156" xlink:href="#DejaVuSans-34"/>
      </g>
     </g>
    </g>
    <g id="ytick_6">
     <g id="line2d_12">
      <g>
       <use style="stroke:#000000;stroke-width:0.8;" x="57.6" xlink:href="#m0ba88e0fc0" y="129.265763"/>
      </g>
     </g>
     <g id="text_12">
      <!-- 0.5 -->
      <defs>
       <path d="M 10.796875 72.90625 
L 49.515625 72.90625 
L 49.515625 64.59375 
L 19.828125 64.59375 
L 19.828125 46.734375 
Q 21.96875 47.46875 24.109375 47.828125 
Q 26.265625 48.1875 28.421875 48.1875 
Q 40.625 48.1875 47.75 41.5 
Q 54.890625 34.8125 54.890625 23.390625 
Q 54.890625 11.625 47.5625 5.09375 
Q 40.234375 -1.421875 26.90625 -1.421875 
Q 22.3125 -1.421875 17.546875 -0.640625 
Q 12.796875 0.140625 7.71875 1.703125 
L 7.71875 11.625 
Q 12.109375 9.234375 16.796875 8.0625 
Q 21.484375 6.890625 26.703125 6.890625 
Q 35.15625 6.890625 40.078125 11.328125 
Q 45.015625 15.765625 45.015625 23.390625 
Q 45.015625 31 40.078125 35.4375 
Q 35.15625 39.890625 26.703125 39.890625 
Q 22.75 39.890625 18.8125 39.015625 
Q 14.890625 38.140625 10.796875 36.28125 
z
" id="DejaVuSans-35"/>
      </defs>
      <g transform="translate(34.696875 133.064982)scale(0.1 -0.1)">
       <use xlink:href="#DejaVuSans-30"/>
       <use x="63.623047" xlink:href="#DejaVuSans-2e"/>
       <use x="95.410156" xlink:href="#DejaVuSans-35"/>
      </g>
     </g>
    </g>
    <g id="ytick_7">
     <g id="line2d_13">
      <g>
       <use style="stroke:#000000;stroke-width:0.8;" x="57.6" xlink:href="#m0ba88e0fc0" y="95.493626"/>
      </g>
     </g>
     <g id="text_13">
      <!-- 0.6 -->
      <g transform="translate(34.696875 99.292845)scale(0.1 -0.1)">
       <use xlink:href="#DejaVuSans-30"/>
       <use x="63.623047" xlink:href="#DejaVuSans-2e"/>
       <use x="95.410156" xlink:href="#DejaVuSans-36"/>
      </g>
     </g>
    </g>
    <g id="ytick_8">
     <g id="line2d_14">
      <g>
       <use style="stroke:#000000;stroke-width:0.8;" x="57.6" xlink:href="#m0ba88e0fc0" y="61.721489"/>
      </g>
     </g>
     <g id="text_14">
      <!-- 0.7 -->
      <defs>
       <path d="M 8.203125 72.90625 
L 55.078125 72.90625 
L 55.078125 68.703125 
L 28.609375 0 
L 18.3125 0 
L 43.21875 64.59375 
L 8.203125 64.59375 
z
" id="DejaVuSans-37"/>
      </defs>
      <g transform="translate(34.696875 65.520707)scale(0.1 -0.1)">
       <use xlink:href="#DejaVuSans-30"/>
       <use x="63.623047" xlink:href="#DejaVuSans-2e"/>
       <use x="95.410156" xlink:href="#DejaVuSans-37"/>
      </g>
     </g>
    </g>
   </g>
   <g id="line2d_15">
    <path clip-path="url(#p1ad736697f)" d="M 73.832727 273.061173 
L 75.48072 291.530345 
L 77.128713 294.168759 
L 78.776705 295.488 
L 80.424698 267.784277 
L 82.07269 290.211104 
L 83.720683 277.018863 
L 85.368676 222.930759 
L 87.016668 224.249898 
L 88.664661 237.441971 
L 90.312653 213.696106 
L 91.960646 220.292142 
L 93.608639 237.441971 
L 95.256631 221.611619 
L 96.904624 209.738349 
L 98.552617 232.165412 
L 100.200609 230.845934 
L 101.848602 207.100069 
L 103.496594 221.611619 
L 105.144587 237.441971 
L 106.79258 217.653862 
L 108.440572 208.419209 
L 110.088565 234.803691 
L 111.736557 228.207655 
L 113.38455 203.142313 
L 115.032543 224.249898 
L 116.680535 238.761448 
L 118.328528 212.376966 
L 119.976521 209.738349 
L 121.624513 237.441971 
L 123.272506 225.569038 
L 124.920498 200.504033 
L 126.568491 226.888178 
L 128.216484 237.441971 
L 129.864476 205.780592 
L 131.512469 211.057826 
L 133.160461 238.761448 
L 134.808454 221.611619 
L 136.456447 196.546277 
L 138.104439 229.526795 
L 139.752432 237.441971 
L 141.400425 199.184556 
L 143.048417 213.696106 
L 144.69641 241.399727 
L 147.992395 193.90766 
L 149.640388 236.122831 
L 151.28838 236.122831 
L 152.936373 192.58852 
L 156.232358 242.719205 
L 157.880351 211.057826 
L 159.528343 192.58852 
L 161.176336 237.441971 
L 162.824329 232.165412 
L 164.472321 184.673006 
L 166.120314 220.292142 
L 167.768306 244.038344 
L 169.416299 204.461452 
L 171.064292 193.90766 
L 172.712284 244.038344 
L 174.360277 230.845934 
L 176.008269 178.07697 
L 177.656262 225.569038 
L 179.304255 245.357484 
L 180.952247 199.184556 
L 182.60024 195.226799 
L 184.248233 246.676624 
L 185.896225 229.526795 
L 187.544218 172.800074 
L 189.19221 232.165412 
L 190.840203 247.995763 
L 192.488196 192.58852 
L 194.136188 197.865416 
L 195.784181 250.63438 
L 197.432174 226.888178 
L 199.080166 168.842655 
L 200.728159 236.122831 
L 202.376151 249.315241 
L 204.024144 185.992484 
L 205.672137 200.504033 
L 207.320129 253.272998 
L 208.968122 226.888178 
L 210.616114 162.246281 
L 212.264107 241.399727 
L 213.9121 251.95352 
L 215.560092 182.034727 
L 217.208085 201.823173 
L 218.856078 255.911277 
L 220.50407 228.207655 
L 222.152063 159.608002 
L 223.800055 244.038344 
L 225.448048 254.592137 
L 227.096041 178.07697 
L 228.744033 203.142313 
L 230.392026 258.549556 
L 232.040018 230.845934 
L 233.688011 151.692488 
L 235.336004 244.038344 
L 236.983996 257.230417 
L 238.631989 175.438691 
L 240.279982 199.184556 
L 241.927974 259.869034 
L 243.575967 233.484552 
L 245.223959 142.457835 
L 246.871952 244.038344 
L 248.519945 259.869034 
L 250.167937 179.396448 
L 251.81593 189.950241 
L 253.463922 259.869034 
L 255.111915 238.761448 
L 256.759908 134.542659 
L 258.4079 241.399727 
L 260.055893 262.507313 
L 261.703886 188.630763 
L 263.351878 178.07697 
L 264.999871 262.507313 
L 266.647863 247.995763 
L 268.295856 130.584903 
L 269.943849 236.122831 
L 271.591841 266.46507 
L 273.239834 203.142313 
L 274.887826 158.288862 
L 276.535819 261.188173 
L 278.183812 255.911277 
L 279.831804 135.861799 
L 281.479797 224.249898 
L 283.12779 269.103518 
L 284.775782 224.249898 
L 286.423775 131.904042 
L 288.071767 258.549556 
L 289.71976 262.507313 
L 291.367753 156.969385 
L 293.015745 200.504033 
L 294.663738 270.422759 
L 296.311731 244.038344 
L 297.959723 113.435074 
L 299.607716 250.63438 
L 301.255708 270.422759 
L 302.903701 192.58852 
L 304.551694 167.523177 
L 306.199686 269.103518 
L 307.847679 259.869034 
L 309.495671 120.03111 
L 311.143664 233.484552 
L 312.791657 274.380414 
L 314.439649 229.526795 
L 316.087642 121.350249 
L 317.735635 263.82679 
L 319.383627 271.741966 
L 321.03162 160.927141 
L 322.679612 193.90766 
L 324.327605 274.380414 
L 325.975598 255.911277 
L 327.62359 98.923524 
L 329.271583 246.676624 
L 330.919575 275.699655 
L 332.567568 216.334385 
L 334.215561 129.265763 
L 335.863553 269.103518 
L 337.511546 270.422759 
L 339.159539 145.096452 
L 340.807531 204.461452 
L 342.455524 274.380414 
L 344.103516 255.911277 
L 345.751509 88.369731 
L 347.399502 250.63438 
L 349.047494 277.018863 
L 350.695487 217.653862 
L 352.343479 123.988866 
L 353.991472 270.422759 
L 355.639465 273.061173 
L 357.287457 149.054209 
L 358.93545 197.865416 
L 360.583443 277.018863 
L 362.231435 261.188173 
L 363.879428 83.092835 
L 365.52742 246.676624 
L 367.175413 278.33807 
L 368.823406 236.122831 
L 370.471398 92.327488 
L 372.119391 266.46507 
L 373.767383 277.018863 
L 375.415376 184.673006 
L 377.063369 163.565421 
L 378.711361 277.018863 
L 380.359354 273.061173 
L 382.007347 112.115934 
L 383.655339 222.930759 
L 385.303332 280.976552 
L 386.951324 262.507313 
L 388.599317 61.985249 
L 390.24731 254.592137 
L 391.895302 282.295759 
L 393.543295 238.761448 
L 395.191287 79.135078 
L 396.83928 271.741966 
L 398.487273 280.976552 
L 398.487273 280.976552 
" style="fill:none;stroke:#1f77b4;stroke-linecap:square;stroke-width:1.5;"/>
   </g>
   <g id="line2d_16">
    <path clip-path="url(#p1ad736697f)" d="M 73.832727 283.324792 
L 75.48072 288.619455 
L 77.128713 263.394288 
L 78.776705 260.760471 
L 80.424698 236.363774 
L 82.07269 279.934056 
L 83.720683 253.998483 
L 85.368676 165.913124 
L 87.016668 213.6356 
L 88.664661 241.524519 
L 90.312653 213.560114 
L 91.960646 220.277008 
L 93.608639 240.48974 
L 95.256631 226.654072 
L 96.904624 210.659307 
L 98.552617 230.614741 
L 100.200609 233.069688 
L 101.848602 210.550638 
L 103.496594 222.750452 
L 105.144587 236.906026 
L 106.79258 216.678923 
L 108.440572 207.883554 
L 110.088565 233.945651 
L 111.736557 232.591436 
L 113.38455 207.125707 
L 115.032543 225.338638 
L 116.680535 240.215848 
L 118.328528 212.962178 
L 119.976521 211.092939 
L 121.624513 239.18723 
L 123.272506 230.280355 
L 124.920498 205.43038 
L 126.568491 229.784901 
L 128.216484 244.370741 
L 129.864476 211.804781 
L 131.512469 213.977163 
L 133.160461 242.634032 
L 134.808454 229.417009 
L 136.456447 201.232549 
L 138.104439 232.540423 
L 139.752432 242.092254 
L 141.400425 202.461412 
L 143.048417 216.569842 
L 144.69641 243.647105 
L 146.344402 223.113426 
L 147.992395 198.656126 
L 149.640388 235.922769 
L 151.28838 236.97682 
L 152.936373 195.766354 
L 156.232358 245.738129 
L 157.880351 219.058695 
L 159.528343 199.030396 
L 161.176336 239.632239 
L 162.824329 238.777257 
L 164.472321 193.752926 
L 166.120314 223.843825 
L 167.768306 249.308985 
L 169.416299 212.414601 
L 171.064292 201.407047 
L 172.712284 243.894798 
L 174.360277 232.911355 
L 176.008269 186.18801 
L 177.656262 229.082945 
L 179.304255 249.415168 
L 180.952247 204.528727 
L 182.60024 200.068998 
L 184.248233 244.521018 
L 185.896225 231.814948 
L 187.544218 178.606816 
L 189.19221 232.575243 
L 190.840203 252.024813 
L 192.488196 198.926044 
L 194.136188 203.411038 
L 195.784181 248.792782 
L 197.432174 234.445397 
L 199.080166 177.194646 
L 200.728159 236.059112 
L 202.376151 255.216526 
L 204.024144 193.363461 
L 205.672137 206.294529 
L 207.320129 254.995802 
L 208.968122 237.311697 
L 210.616114 171.167691 
L 212.264107 240.77242 
L 213.9121 252.977259 
L 215.560092 185.394474 
L 217.208085 206.750235 
L 218.856078 257.044079 
L 220.50407 239.074943 
L 222.152063 162.700141 
L 223.800055 240.47015 
L 225.448048 254.823612 
L 227.096041 174.878307 
L 228.744033 205.373042 
L 230.392026 258.736024 
L 232.040018 237.813158 
L 233.688011 153.949473 
L 235.336004 241.435135 
L 236.983996 259.397628 
L 238.631989 176.486321 
L 240.279982 204.408007 
L 241.927974 261.873073 
L 243.575967 242.54706 
L 245.223959 149.042916 
L 246.871952 242.033149 
L 248.519945 261.341402 
L 250.167937 184.971592 
L 251.81593 197.437899 
L 253.463922 261.892087 
L 255.111915 248.905707 
L 256.759908 142.215294 
L 258.4079 239.13119 
L 260.055893 264.663827 
L 261.703886 195.729508 
L 263.351878 185.654174 
L 264.999871 261.025276 
L 266.647863 250.633552 
L 268.295856 132.850482 
L 269.943849 233.201382 
L 271.591841 266.862113 
L 273.239834 207.806725 
L 274.887826 168.057701 
L 276.535819 258.426244 
L 278.183812 260.508178 
L 279.831804 136.682804 
L 281.479797 223.068499 
L 283.12779 268.450457 
L 284.775782 229.872247 
L 286.423775 138.32266 
L 288.071767 254.667144 
L 289.71976 264.963716 
L 291.367753 162.944055 
L 293.015745 205.990924 
L 294.663738 271.921347 
L 296.311731 248.385091 
L 297.959723 113.519981 
L 299.607716 247.617355 
L 301.255708 271.189711 
L 302.903701 193.03405 
L 304.551694 171.963971 
L 306.199686 266.743553 
L 307.847679 260.647144 
L 309.495671 114.672248 
L 311.143664 229.110126 
L 312.791657 272.449435 
L 314.439649 227.829036 
L 316.087642 120.272266 
L 317.735635 259.4499 
L 319.383627 270.505313 
L 321.03162 156.934942 
L 322.679612 196.779413 
L 324.327605 272.691984 
L 325.975598 255.349164 
L 327.62359 94.97217 
L 329.271583 244.824595 
L 330.919575 276.122166 
L 332.567568 222.848166 
L 334.215561 134.069169 
L 335.863553 265.359813 
L 337.511546 269.663002 
L 339.159539 147.912867 
L 340.807531 206.025839 
L 342.455524 276.54633 
L 344.103516 258.959116 
L 345.751509 85.335505 
L 347.399502 248.221214 
L 349.047494 274.966531 
L 350.695487 217.01425 
L 352.343479 128.195516 
L 353.991472 265.758717 
L 355.639465 268.966545 
L 357.287457 148.62407 
L 358.93545 200.264137 
L 360.583443 276.532503 
L 362.231435 261.295705 
L 363.879428 84.401502 
L 365.52742 243.037116 
L 367.175413 276.262409 
L 368.823406 237.043055 
L 370.471398 93.914665 
L 372.119391 266.618369 
L 373.767383 277.138903 
L 375.415376 188.119915 
L 377.063369 167.695538 
L 378.711361 275.549543 
L 380.359354 272.207467 
L 382.007347 109.528363 
L 383.655339 219.455819 
L 385.303332 279.647697 
L 386.951324 258.690523 
L 388.599317 61.702937 
L 390.24731 255.029369 
L 391.895302 280.5513 
L 393.543295 233.847816 
L 395.191287 81.681954 
L 396.83928 270.726892 
L 398.487273 280.360726 
L 398.487273 280.360726 
" style="fill:none;stroke:#ff7f0e;stroke-linecap:square;stroke-width:1.5;"/>
   </g>
   <g id="line2d_17">
    <path clip-path="url(#p1ad736697f)" d="M 73.832727 289.812325 
L 75.48072 292.534212 
L 77.128713 275.231696 
L 78.776705 274.913776 
L 80.424698 248.603895 
L 82.07269 291.977403 
L 83.720683 264.295336 
L 85.368676 170.255054 
L 87.016668 223.686471 
L 88.664661 247.301023 
L 90.312653 230.726789 
L 91.960646 230.661082 
L 93.608639 250.351013 
L 95.256631 239.005714 
L 96.904624 223.344366 
L 98.552617 244.534358 
L 100.200609 246.840969 
L 101.848602 225.578657 
L 103.496594 236.550419 
L 105.144587 250.608804 
L 106.79258 233.666386 
L 108.440572 222.085701 
L 110.088565 247.855213 
L 111.736557 246.908243 
L 113.38455 222.240323 
L 115.032543 240.071855 
L 116.680535 253.029238 
L 118.328528 230.424124 
L 119.976521 223.922108 
L 121.624513 251.777942 
L 123.272506 245.170999 
L 124.920498 219.791213 
L 126.568491 244.297013 
L 128.216484 255.419226 
L 129.864476 228.420973 
L 131.512469 227.114302 
L 133.160461 254.960283 
L 134.808454 244.188756 
L 136.456447 216.007341 
L 138.104439 248.137936 
L 139.752432 255.382948 
L 141.400425 222.423612 
L 143.048417 230.121597 
L 144.69641 256.681296 
L 146.344402 240.033826 
L 147.992395 212.362311 
L 149.640388 251.701023 
L 151.28838 253.521185 
L 152.936373 215.17061 
L 154.584365 234.528542 
L 156.232358 258.575525 
L 157.880351 236.327638 
L 159.528343 210.97406 
L 161.176336 255.533705 
L 162.824329 254.656553 
L 164.472321 212.598304 
L 166.120314 240.494149 
L 167.768306 261.614111 
L 169.416299 231.901987 
L 171.064292 211.836653 
L 172.712284 258.679787 
L 174.360277 251.506748 
L 176.008269 203.901272 
L 177.656262 246.343923 
L 179.304255 262.765452 
L 180.952247 225.552217 
L 182.60024 209.077809 
L 184.248233 259.647074 
L 185.896225 250.485488 
L 187.544218 196.650053 
L 189.19221 250.488127 
L 190.840203 264.432994 
L 192.488196 219.25164 
L 194.136188 210.559452 
L 195.784181 262.042392 
L 197.432174 250.204464 
L 199.080166 191.672348 
L 200.728159 254.188276 
L 202.376151 266.221474 
L 204.024144 214.318823 
L 205.672137 212.765431 
L 207.320129 264.787901 
L 208.968122 249.931149 
L 210.616114 184.833661 
L 212.264107 258.053197 
L 213.9121 266.556444 
L 215.560092 207.913313 
L 217.208085 211.922177 
L 218.856078 265.737121 
L 220.50407 249.774497 
L 222.152063 175.97339 
L 223.800055 258.220874 
L 225.448048 267.401921 
L 227.096041 202.037348 
L 228.744033 209.876949 
L 230.392026 266.281131 
L 232.040018 248.515667 
L 233.688011 167.635619 
L 235.336004 259.639432 
L 236.983996 270.187494 
L 238.631989 202.820252 
L 240.279982 208.672523 
L 241.927974 267.957399 
L 243.575967 251.857314 
L 245.223959 164.487998 
L 246.871952 261.026016 
L 248.519945 272.073045 
L 250.167937 206.211403 
L 251.81593 201.909212 
L 253.463922 268.21866 
L 255.111915 257.629273 
L 256.759908 163.127375 
L 258.4079 259.438572 
L 260.055893 273.708152 
L 261.703886 212.033666 
L 263.351878 190.783736 
L 264.999871 268.034751 
L 266.647863 261.393287 
L 268.295856 162.666099 
L 269.943849 252.406528 
L 271.591841 273.596898 
L 273.239834 219.719202 
L 274.887826 173.461884 
L 276.535819 268.607351 
L 278.183812 269.360812 
L 279.831804 171.614521 
L 281.479797 234.80732 
L 283.12779 272.319809 
L 284.775782 235.818363 
L 286.423775 142.76017 
L 288.071767 269.118177 
L 289.71976 274.930888 
L 291.367753 187.455811 
L 293.015745 211.125731 
L 294.663738 275.145673 
L 296.311731 254.068351 
L 297.959723 136.061594 
L 299.607716 266.382177 
L 301.255708 277.843165 
L 302.903701 204.30557 
L 304.551694 178.778747 
L 306.199686 270.32852 
L 307.847679 267.376676 
L 309.495671 155.959175 
L 311.143664 242.990248 
L 312.791657 275.656483 
L 314.439649 232.20162 
L 316.087642 124.375391 
L 317.735635 271.250195 
L 319.383627 277.761999 
L 321.03162 181.834907 
L 322.679612 205.050548 
L 324.327605 276.44029 
L 325.975598 259.831212 
L 327.62359 134.386535 
L 329.271583 263.803972 
L 330.919575 279.719329 
L 332.567568 225.977828 
L 334.215561 139.324153 
L 335.863553 272.625582 
L 337.511546 276.52968 
L 339.159539 174.35791 
L 340.807531 214.496973 
L 342.455524 280.632681 
L 344.103516 262.448947 
L 345.751509 125.689907 
L 347.399502 267.623815 
L 349.047494 280.107059 
L 350.695487 220.395714 
L 352.343479 133.523028 
L 353.991472 272.921443 
L 355.639465 276.978303 
L 357.287457 173.886845 
L 358.93545 212.085881 
L 360.583443 281.011827 
L 362.231435 264.876633 
L 363.879428 131.359647 
L 365.52742 262.566502 
L 367.175413 279.727129 
L 368.823406 241.229651 
L 370.471398 97.353961 
L 372.119391 276.019671 
L 373.767383 282.72451 
L 375.415376 192.30861 
L 377.063369 178.766404 
L 378.711361 279.970502 
L 380.359354 275.718438 
L 382.007347 154.139907 
L 383.655339 228.152293 
L 385.303332 284.204759 
L 386.951324 263.787415 
L 388.599317 111.274814 
L 390.24731 272.428274 
L 391.895302 283.678349 
L 393.543295 238.809121 
L 395.191287 84.598401 
L 396.83928 278.273094 
L 398.487273 284.462635 
L 398.487273 284.462635 
" style="fill:none;stroke:#2ca02c;stroke-linecap:square;stroke-width:1.5;"/>
   </g>
   <g id="line2d_18">
    <path clip-path="url(#p1ad736697f)" d="M 73.832727 272.303872 
L 75.48072 284.457615 
L 77.128713 203.805904 
L 78.776705 187.256693 
L 80.424698 174.413552 
L 82.07269 207.309541 
L 83.720683 204.33258 
L 85.368676 159.454792 
L 87.016668 193.334818 
L 88.664661 237.617334 
L 90.312653 209.328384 
L 91.960646 216.438612 
L 93.608639 236.696641 
L 95.256631 222.786599 
L 96.904624 206.459577 
L 98.552617 226.756558 
L 100.200609 228.466296 
L 101.848602 206.466123 
L 103.496594 219.103369 
L 105.144587 232.665597 
L 106.79258 212.122239 
L 108.440572 204.02887 
L 110.088565 230.00908 
L 111.736557 227.854055 
L 113.38455 202.790348 
L 115.032543 221.755003 
L 116.680535 236.044081 
L 118.328528 208.542719 
L 119.976521 207.253964 
L 121.624513 235.343878 
L 123.272506 225.678385 
L 124.920498 200.881858 
L 126.568491 226.201657 
L 128.216484 240.484767 
L 129.864476 207.611018 
L 131.512469 210.205698 
L 133.160461 238.812837 
L 134.808454 225.024023 
L 136.456447 196.155249 
L 138.104439 228.870956 
L 139.752432 237.787272 
L 141.400425 197.787911 
L 143.048417 213.051388 
L 144.69641 239.683575 
L 146.344402 218.34105 
L 147.992395 193.609999 
L 149.640388 232.190666 
L 151.28838 231.473562 
L 152.936373 190.847749 
L 156.232358 241.706253 
L 157.880351 214.4985 
L 159.528343 193.992715 
L 161.176336 235.740686 
L 162.824329 233.517899 
L 164.472321 188.185542 
L 166.120314 220.524772 
L 167.768306 245.33025 
L 169.416299 207.726602 
L 171.064292 196.696476 
L 172.712284 240.073297 
L 174.360277 226.54839 
L 176.008269 180.155044 
L 177.656262 225.765539 
L 179.304255 245.011534 
L 180.952247 199.727409 
L 182.60024 195.952381 
L 184.248233 240.514962 
L 185.896225 225.250842 
L 187.544218 171.683035 
L 189.19221 229.133529 
L 190.840203 247.499608 
L 192.488196 194.29019 
L 194.136188 199.030173 
L 195.784181 245.03814 
L 197.432174 228.505146 
L 199.080166 168.001308 
L 200.728159 232.512769 
L 202.376151 250.874394 
L 204.024144 188.423479 
L 205.672137 202.31112 
L 207.320129 251.844806 
L 208.968122 232.408278 
L 210.616114 160.825753 
L 212.264107 237.417474 
L 213.9121 247.398203 
L 215.560092 180.352933 
L 217.208085 202.835474 
L 218.856078 254.038362 
L 220.50407 234.465823 
L 222.152063 151.476105 
L 223.800055 236.991691 
L 225.448048 249.290523 
L 227.096041 169.208925 
L 228.744033 202.009731 
L 230.392026 255.899885 
L 232.040018 233.055611 
L 233.688011 142.757491 
L 235.336004 237.927908 
L 236.983996 254.5189 
L 238.631989 171.026545 
L 240.279982 200.503752 
L 241.927974 259.213988 
L 243.575967 238.303881 
L 245.223959 137.12383 
L 246.871952 238.469754 
L 248.519945 256.455144 
L 250.167937 180.312612 
L 251.81593 190.303903 
L 253.463922 259.149334 
L 255.111915 244.86729 
L 256.759908 130.303838 
L 258.4079 235.426631 
L 260.055893 260.53288 
L 261.703886 191.797604 
L 263.351878 172.828401 
L 264.999871 258.418521 
L 266.647863 245.47281 
L 268.295856 123.107874 
L 269.943849 229.827392 
L 271.591841 263.537335 
L 273.239834 203.875409 
L 274.887826 152.938596 
L 276.535819 255.577653 
L 278.183812 256.241908 
L 279.831804 128.429722 
L 281.479797 220.371783 
L 283.12779 266.089441 
L 284.775782 226.605765 
L 286.423775 125.65175 
L 288.071767 251.4659 
L 289.71976 260.427435 
L 291.367753 157.561022 
L 293.015745 198.21678 
L 294.663738 268.848734 
L 296.311731 245.280773 
L 297.959723 101.804867 
L 299.607716 244.143573 
L 301.255708 267.965038 
L 302.903701 189.329234 
L 304.551694 145.302976 
L 306.199686 264.534172 
L 307.847679 257.242219 
L 309.495671 106.65759 
L 311.143664 226.354588 
L 312.791657 270.346612 
L 314.439649 224.670096 
L 316.087642 108.452256 
L 317.735635 256.665249 
L 319.383627 267.334634 
L 321.03162 150.858389 
L 322.679612 172.199688 
L 324.327605 268.093919 
L 325.975598 251.478427 
L 327.62359 86.240229 
L 329.271583 240.946316 
L 330.919575 274.159879 
L 332.567568 215.346476 
L 334.215561 112.610925 
L 335.863553 262.690373 
L 337.511546 266.669214 
L 339.159539 142.022438 
L 340.807531 187.99771 
L 342.455524 270.054525 
L 344.103516 247.780799 
L 345.751509 76.389953 
L 347.399502 244.091536 
L 349.047494 272.4939 
L 350.695487 210.945645 
L 352.343479 104.158535 
L 353.991472 262.709727 
L 355.639465 265.548971 
L 357.287457 142.201922 
L 358.93545 169.453454 
L 360.583443 268.753433 
L 362.231435 250.520577 
L 363.879428 76.235328 
L 365.52742 238.542235 
L 367.175413 274.227826 
L 368.823406 218.444488 
L 370.471398 85.211572 
L 372.119391 264.080283 
L 373.767383 275.224952 
L 375.415376 184.958669 
L 377.063369 112.695707 
L 378.711361 269.12038 
L 380.359354 264.596131 
L 382.007347 100.722777 
L 383.655339 213.668227 
L 385.303332 271.604913 
L 386.951324 236.871399 
L 388.599317 53.568 
L 390.24731 249.493452 
L 391.895302 278.866052 
L 393.543295 210.967133 
L 395.191287 74.686066 
L 396.83928 268.482132 
L 398.487273 278.800597 
L 398.487273 278.800597 
" style="fill:none;stroke:#d62728;stroke-linecap:square;stroke-width:1.5;"/>
   </g>
   <g id="patch_3">
    <path d="M 57.6 307.584 
L 57.6 41.472 
" style="fill:none;stroke:#000000;stroke-linecap:square;stroke-linejoin:miter;stroke-width:0.8;"/>
   </g>
   <g id="patch_4">
    <path d="M 414.72 307.584 
L 414.72 41.472 
" style="fill:none;stroke:#000000;stroke-linecap:square;stroke-linejoin:miter;stroke-width:0.8;"/>
   </g>
   <g id="patch_5">
    <path d="M 57.6 307.584 
L 414.72 307.584 
" style="fill:none;stroke:#000000;stroke-linecap:square;stroke-linejoin:miter;stroke-width:0.8;"/>
   </g>
   <g id="patch_6">
    <path d="M 57.6 41.472 
L 414.72 41.472 
" style="fill:none;stroke:#000000;stroke-linecap:square;stroke-linejoin:miter;stroke-width:0.8;"/>
   </g>
   <g id="text_15">
    <!-- Plot of Test Data vs MCMC Uncertainty  -->
    <defs>
     <path d="M 19.671875 64.796875 
L 19.671875 37.40625 
L 32.078125 37.40625 
Q 38.96875 37.40625 42.71875 40.96875 
Q 46.484375 44.53125 46.484375 51.125 
Q 46.484375 57.671875 42.71875 61.234375 
Q 38.96875 64.796875 32.078125 64.796875 
z
M 9.8125 72.90625 
L 32.078125 72.90625 
Q 44.34375 72.90625 50.609375 67.359375 
Q 56.890625 61.8125 56.890625 51.125 
Q 56.890625 40.328125 50.609375 34.8125 
Q 44.34375 29.296875 32.078125 29.296875 
L 19.671875 29.296875 
L 19.671875 0 
L 9.8125 0 
z
" id="DejaVuSans-50"/>
     <path d="M 9.421875 75.984375 
L 18.40625 75.984375 
L 18.40625 0 
L 9.421875 0 
z
" id="DejaVuSans-6c"/>
     <path d="M 30.609375 48.390625 
Q 23.390625 48.390625 19.1875 42.75 
Q 14.984375 37.109375 14.984375 27.296875 
Q 14.984375 17.484375 19.15625 11.84375 
Q 23.34375 6.203125 30.609375 6.203125 
Q 37.796875 6.203125 41.984375 11.859375 
Q 46.1875 17.53125 46.1875 27.296875 
Q 46.1875 37.015625 41.984375 42.703125 
Q 37.796875 48.390625 30.609375 48.390625 
M 30.609375 56 
Q 42.328125 56 49.015625 48.375 
Q 55.71875 40.765625 55.71875 27.296875 
Q 55.71875 13.875 49.015625 6.21875 
Q 42.328125 -1.421875 30.609375 -1.421875 
Q 18.84375 -1.421875 12.171875 6.21875 
Q 5.515625 13.875 5.515625 27.296875 
Q 5.515625 40.765625 12.171875 48.375 
Q 18.84375 56 30.609375 56 
" id="DejaVuSans-6f"/>
     <path d="M 18.3125 70.21875 
L 18.3125 54.6875 
L 36.8125 54.6875 
L 36.8125 47.703125 
L 18.3125 47.703125 
L 18.3125 18.015625 
Q 18.3125 11.328125 20.140625 9.421875 
Q 21.96875 7.515625 27.59375 7.515625 
L 36.8125 7.515625 
L 36.8125 0 
L 27.59375 0 
Q 17.1875 0 13.234375 3.875 
Q 9.28125 7.765625 9.28125 18.015625 
L 9.28125 47.703125 
L 2.6875 47.703125 
L 2.6875 54.6875 
L 9.28125 54.6875 
L 9.28125 70.21875 
z
" id="DejaVuSans-74"/>
     <path id="DejaVuSans-20"/>
     <path d="M 37.109375 75.984375 
L 37.109375 68.5 
L 28.515625 68.5 
Q 23.6875 68.5 21.796875 66.546875 
Q 19.921875 64.59375 19.921875 59.515625 
L 19.921875 54.6875 
L 34.71875 54.6875 
L 34.71875 47.703125 
L 19.921875 47.703125 
L 19.921875 0 
L 10.890625 0 
L 10.890625 47.703125 
L 2.296875 47.703125 
L 2.296875 54.6875 
L 10.890625 54.6875 
L 10.890625 58.5 
Q 10.890625 67.625 15.140625 71.796875 
Q 19.390625 75.984375 28.609375 75.984375 
z
" id="DejaVuSans-66"/>
     <path d="M -0.296875 72.90625 
L 61.375 72.90625 
L 61.375 64.59375 
L 35.5 64.59375 
L 35.5 0 
L 25.59375 0 
L 25.59375 64.59375 
L -0.296875 64.59375 
z
" id="DejaVuSans-54"/>
     <path d="M 56.203125 29.59375 
L 56.203125 25.203125 
L 14.890625 25.203125 
Q 15.484375 15.921875 20.484375 11.0625 
Q 25.484375 6.203125 34.421875 6.203125 
Q 39.59375 6.203125 44.453125 7.46875 
Q 49.3125 8.734375 54.109375 11.28125 
L 54.109375 2.78125 
Q 49.265625 0.734375 44.1875 -0.34375 
Q 39.109375 -1.421875 33.890625 -1.421875 
Q 20.796875 -1.421875 13.15625 6.1875 
Q 5.515625 13.8125 5.515625 26.8125 
Q 5.515625 40.234375 12.765625 48.109375 
Q 20.015625 56 32.328125 56 
Q 43.359375 56 49.78125 48.890625 
Q 56.203125 41.796875 56.203125 29.59375 
M 47.21875 32.234375 
Q 47.125 39.59375 43.09375 43.984375 
Q 39.0625 48.390625 32.421875 48.390625 
Q 24.90625 48.390625 20.390625 44.140625 
Q 15.875 39.890625 15.1875 32.171875 
z
" id="DejaVuSans-65"/>
     <path d="M 44.28125 53.078125 
L 44.28125 44.578125 
Q 40.484375 46.53125 36.375 47.5 
Q 32.28125 48.484375 27.875 48.484375 
Q 21.1875 48.484375 17.84375 46.4375 
Q 14.5 44.390625 14.5 40.28125 
Q 14.5 37.15625 16.890625 35.375 
Q 19.28125 33.59375 26.515625 31.984375 
L 29.59375 31.296875 
Q 39.15625 29.25 43.1875 25.515625 
Q 47.21875 21.78125 47.21875 15.09375 
Q 47.21875 7.46875 41.1875 3.015625 
Q 35.15625 -1.421875 24.609375 -1.421875 
Q 20.21875 -1.421875 15.453125 -0.5625 
Q 10.6875 0.296875 5.421875 2 
L 5.421875 11.28125 
Q 10.40625 8.6875 15.234375 7.390625 
Q 20.0625 6.109375 24.8125 6.109375 
Q 31.15625 6.109375 34.5625 8.28125 
Q 37.984375 10.453125 37.984375 14.40625 
Q 37.984375 18.0625 35.515625 20.015625 
Q 33.0625 21.96875 24.703125 23.78125 
L 21.578125 24.515625 
Q 13.234375 26.265625 9.515625 29.90625 
Q 5.8125 33.546875 5.8125 39.890625 
Q 5.8125 47.609375 11.28125 51.796875 
Q 16.75 56 26.8125 56 
Q 31.78125 56 36.171875 55.265625 
Q 40.578125 54.546875 44.28125 53.078125 
" id="DejaVuSans-73"/>
     <path d="M 19.671875 64.796875 
L 19.671875 8.109375 
L 31.59375 8.109375 
Q 46.6875 8.109375 53.6875 14.9375 
Q 60.6875 21.78125 60.6875 36.53125 
Q 60.6875 51.171875 53.6875 57.984375 
Q 46.6875 64.796875 31.59375 64.796875 
z
M 9.8125 72.90625 
L 30.078125 72.90625 
Q 51.265625 72.90625 61.171875 64.09375 
Q 71.09375 55.28125 71.09375 36.53125 
Q 71.09375 17.671875 61.125 8.828125 
Q 51.171875 0 30.078125 0 
L 9.8125 0 
z
" id="DejaVuSans-44"/>
     <path d="M 34.28125 27.484375 
Q 23.390625 27.484375 19.1875 25 
Q 14.984375 22.515625 14.984375 16.5 
Q 14.984375 11.71875 18.140625 8.90625 
Q 21.296875 6.109375 26.703125 6.109375 
Q 34.1875 6.109375 38.703125 11.40625 
Q 43.21875 16.703125 43.21875 25.484375 
L 43.21875 27.484375 
z
M 52.203125 31.203125 
L 52.203125 0 
L 43.21875 0 
L 43.21875 8.296875 
Q 40.140625 3.328125 35.546875 0.953125 
Q 30.953125 -1.421875 24.3125 -1.421875 
Q 15.921875 -1.421875 10.953125 3.296875 
Q 6 8.015625 6 15.921875 
Q 6 25.140625 12.171875 29.828125 
Q 18.359375 34.515625 30.609375 34.515625 
L 43.21875 34.515625 
L 43.21875 35.40625 
Q 43.21875 41.609375 39.140625 45 
Q 35.0625 48.390625 27.6875 48.390625 
Q 23 48.390625 18.546875 47.265625 
Q 14.109375 46.140625 10.015625 43.890625 
L 10.015625 52.203125 
Q 14.9375 54.109375 19.578125 55.046875 
Q 24.21875 56 28.609375 56 
Q 40.484375 56 46.34375 49.84375 
Q 52.203125 43.703125 52.203125 31.203125 
" id="DejaVuSans-61"/>
     <path d="M 2.984375 54.6875 
L 12.5 54.6875 
L 29.59375 8.796875 
L 46.6875 54.6875 
L 56.203125 54.6875 
L 35.6875 0 
L 23.484375 0 
z
" id="DejaVuSans-76"/>
     <path d="M 9.8125 72.90625 
L 24.515625 72.90625 
L 43.109375 23.296875 
L 61.8125 72.90625 
L 76.515625 72.90625 
L 76.515625 0 
L 66.890625 0 
L 66.890625 64.015625 
L 48.09375 14.015625 
L 38.1875 14.015625 
L 19.390625 64.015625 
L 19.390625 0 
L 9.8125 0 
z
" id="DejaVuSans-4d"/>
     <path d="M 64.40625 67.28125 
L 64.40625 56.890625 
Q 59.421875 61.53125 53.78125 63.8125 
Q 48.140625 66.109375 41.796875 66.109375 
Q 29.296875 66.109375 22.65625 58.46875 
Q 16.015625 50.828125 16.015625 36.375 
Q 16.015625 21.96875 22.65625 14.328125 
Q 29.296875 6.6875 41.796875 6.6875 
Q 48.140625 6.6875 53.78125 8.984375 
Q 59.421875 11.28125 64.40625 15.921875 
L 64.40625 5.609375 
Q 59.234375 2.09375 53.4375 0.328125 
Q 47.65625 -1.421875 41.21875 -1.421875 
Q 24.65625 -1.421875 15.125 8.703125 
Q 5.609375 18.84375 5.609375 36.375 
Q 5.609375 53.953125 15.125 64.078125 
Q 24.65625 74.21875 41.21875 74.21875 
Q 47.75 74.21875 53.53125 72.484375 
Q 59.328125 70.75 64.40625 67.28125 
" id="DejaVuSans-43"/>
     <path d="M 8.6875 72.90625 
L 18.609375 72.90625 
L 18.609375 28.609375 
Q 18.609375 16.890625 22.84375 11.734375 
Q 27.09375 6.59375 36.625 6.59375 
Q 46.09375 6.59375 50.34375 11.734375 
Q 54.59375 16.890625 54.59375 28.609375 
L 54.59375 72.90625 
L 64.5 72.90625 
L 64.5 27.390625 
Q 64.5 13.140625 57.4375 5.859375 
Q 50.390625 -1.421875 36.625 -1.421875 
Q 22.796875 -1.421875 15.734375 5.859375 
Q 8.6875 13.140625 8.6875 27.390625 
z
" id="DejaVuSans-55"/>
     <path d="M 54.890625 33.015625 
L 54.890625 0 
L 45.90625 0 
L 45.90625 32.71875 
Q 45.90625 40.484375 42.875 44.328125 
Q 39.84375 48.1875 33.796875 48.1875 
Q 26.515625 48.1875 22.3125 43.546875 
Q 18.109375 38.921875 18.109375 30.90625 
L 18.109375 0 
L 9.078125 0 
L 9.078125 54.6875 
L 18.109375 54.6875 
L 18.109375 46.1875 
Q 21.34375 51.125 25.703125 53.5625 
Q 30.078125 56 35.796875 56 
Q 45.21875 56 50.046875 50.171875 
Q 54.890625 44.34375 54.890625 33.015625 
" id="DejaVuSans-6e"/>
     <path d="M 48.78125 52.59375 
L 48.78125 44.1875 
Q 44.96875 46.296875 41.140625 47.34375 
Q 37.3125 48.390625 33.40625 48.390625 
Q 24.65625 48.390625 19.8125 42.84375 
Q 14.984375 37.3125 14.984375 27.296875 
Q 14.984375 17.28125 19.8125 11.734375 
Q 24.65625 6.203125 33.40625 6.203125 
Q 37.3125 6.203125 41.140625 7.25 
Q 44.96875 8.296875 48.78125 10.40625 
L 48.78125 2.09375 
Q 45.015625 0.34375 40.984375 -0.53125 
Q 36.96875 -1.421875 32.421875 -1.421875 
Q 20.0625 -1.421875 12.78125 6.34375 
Q 5.515625 14.109375 5.515625 27.296875 
Q 5.515625 40.671875 12.859375 48.328125 
Q 20.21875 56 33.015625 56 
Q 37.15625 56 41.109375 55.140625 
Q 45.0625 54.296875 48.78125 52.59375 
" id="DejaVuSans-63"/>
     <path d="M 41.109375 46.296875 
Q 39.59375 47.171875 37.8125 47.578125 
Q 36.03125 48 33.890625 48 
Q 26.265625 48 22.1875 43.046875 
Q 18.109375 38.09375 18.109375 28.8125 
L 18.109375 0 
L 9.078125 0 
L 9.078125 54.6875 
L 18.109375 54.6875 
L 18.109375 46.1875 
Q 20.953125 51.171875 25.484375 53.578125 
Q 30.03125 56 36.53125 56 
Q 37.453125 56 38.578125 55.875 
Q 39.703125 55.765625 41.0625 55.515625 
z
" id="DejaVuSans-72"/>
     <path d="M 9.421875 54.6875 
L 18.40625 54.6875 
L 18.40625 0 
L 9.421875 0 
z
M 9.421875 75.984375 
L 18.40625 75.984375 
L 18.40625 64.59375 
L 9.421875 64.59375 
z
" id="DejaVuSans-69"/>
     <path d="M 32.171875 -5.078125 
Q 28.375 -14.84375 24.75 -17.8125 
Q 21.140625 -20.796875 15.09375 -20.796875 
L 7.90625 -20.796875 
L 7.90625 -13.28125 
L 13.1875 -13.28125 
Q 16.890625 -13.28125 18.9375 -11.515625 
Q 21 -9.765625 23.484375 -3.21875 
L 25.09375 0.875 
L 2.984375 54.6875 
L 12.5 54.6875 
L 29.59375 11.921875 
L 46.6875 54.6875 
L 56.203125 54.6875 
z
" id="DejaVuSans-79"/>
    </defs>
    <g transform="translate(118.112813 35.472)scale(0.12 -0.12)">
     <use xlink:href="#DejaVuSans-50"/>
     <use x="60.302734" xlink:href="#DejaVuSans-6c"/>
     <use x="88.085938" xlink:href="#DejaVuSans-6f"/>
     <use x="149.267578" xlink:href="#DejaVuSans-74"/>
     <use x="188.476562" xlink:href="#DejaVuSans-20"/>
     <use x="220.263672" xlink:href="#DejaVuSans-6f"/>
     <use x="281.445312" xlink:href="#DejaVuSans-66"/>
     <use x="316.650391" xlink:href="#DejaVuSans-20"/>
     <use x="348.4375" xlink:href="#DejaVuSans-54"/>
     <use x="409.255859" xlink:href="#DejaVuSans-65"/>
     <use x="470.779297" xlink:href="#DejaVuSans-73"/>
     <use x="522.878906" xlink:href="#DejaVuSans-74"/>
     <use x="562.087891" xlink:href="#DejaVuSans-20"/>
     <use x="593.875" xlink:href="#DejaVuSans-44"/>
     <use x="670.876953" xlink:href="#DejaVuSans-61"/>
     <use x="732.15625" xlink:href="#DejaVuSans-74"/>
     <use x="771.365234" xlink:href="#DejaVuSans-61"/>
     <use x="832.644531" xlink:href="#DejaVuSans-20"/>
     <use x="864.431641" xlink:href="#DejaVuSans-76"/>
     <use x="923.611328" xlink:href="#DejaVuSans-73"/>
     <use x="975.710938" xlink:href="#DejaVuSans-20"/>
     <use x="1007.498047" xlink:href="#DejaVuSans-4d"/>
     <use x="1093.777344" xlink:href="#DejaVuSans-43"/>
     <use x="1163.601562" xlink:href="#DejaVuSans-4d"/>
     <use x="1249.880859" xlink:href="#DejaVuSans-43"/>
     <use x="1319.705078" xlink:href="#DejaVuSans-20"/>
     <use x="1351.492188" xlink:href="#DejaVuSans-55"/>
     <use x="1424.685547" xlink:href="#DejaVuSans-6e"/>
     <use x="1488.064453" xlink:href="#DejaVuSans-63"/>
     <use x="1543.044922" xlink:href="#DejaVuSans-65"/>
     <use x="1604.568359" xlink:href="#DejaVuSans-72"/>
     <use x="1645.681641" xlink:href="#DejaVuSans-74"/>
     <use x="1684.890625" xlink:href="#DejaVuSans-61"/>
     <use x="1746.169922" xlink:href="#DejaVuSans-69"/>
     <use x="1773.953125" xlink:href="#DejaVuSans-6e"/>
     <use x="1837.332031" xlink:href="#DejaVuSans-74"/>
     <use x="1876.541016" xlink:href="#DejaVuSans-79"/>
     <use x="1935.720703" xlink:href="#DejaVuSans-20"/>
    </g>
   </g>
   <g id="legend_1">
    <g id="patch_7">
     <path d="M 277.843437 108.1845 
L 407.72 108.1845 
Q 409.72 108.1845 409.72 106.1845 
L 409.72 48.472 
Q 409.72 46.472 407.72 46.472 
L 277.843437 46.472 
Q 275.843437 46.472 275.843437 48.472 
L 275.843437 106.1845 
Q 275.843437 108.1845 277.843437 108.1845 
z
" style="fill:#ffffff;opacity:0.8;stroke:#cccccc;stroke-linejoin:miter;"/>
    </g>
    <g id="line2d_19">
     <path d="M 279.843437 54.570438 
L 299.843437 54.570438 
" style="fill:none;stroke:#1f77b4;stroke-linecap:square;stroke-width:1.5;"/>
    </g>
    <g id="line2d_20"/>
    <g id="text_16">
     <!-- actual -->
     <defs>
      <path d="M 8.5 21.578125 
L 8.5 54.6875 
L 17.484375 54.6875 
L 17.484375 21.921875 
Q 17.484375 14.15625 20.5 10.265625 
Q 23.53125 6.390625 29.59375 6.390625 
Q 36.859375 6.390625 41.078125 11.03125 
Q 45.3125 15.671875 45.3125 23.6875 
L 45.3125 54.6875 
L 54.296875 54.6875 
L 54.296875 0 
L 45.3125 0 
L 45.3125 8.40625 
Q 42.046875 3.421875 37.71875 1 
Q 33.40625 -1.421875 27.6875 -1.421875 
Q 18.265625 -1.421875 13.375 4.4375 
Q 8.5 10.296875 8.5 21.578125 
M 31.109375 56 
z
" id="DejaVuSans-75"/>
     </defs>
     <g transform="translate(307.843437 58.070438)scale(0.1 -0.1)">
      <use xlink:href="#DejaVuSans-61"/>
      <use x="61.279297" xlink:href="#DejaVuSans-63"/>
      <use x="116.259766" xlink:href="#DejaVuSans-74"/>
      <use x="155.46875" xlink:href="#DejaVuSans-75"/>
      <use x="218.847656" xlink:href="#DejaVuSans-61"/>
      <use x="280.126953" xlink:href="#DejaVuSans-6c"/>
     </g>
    </g>
    <g id="line2d_21">
     <path d="M 279.843437 69.248563 
L 299.843437 69.248563 
" style="fill:none;stroke:#ff7f0e;stroke-linecap:square;stroke-width:1.5;"/>
    </g>
    <g id="line2d_22"/>
    <g id="text_17">
     <!-- pred. (mean) -->
     <defs>
      <path d="M 18.109375 8.203125 
L 18.109375 -20.796875 
L 9.078125 -20.796875 
L 9.078125 54.6875 
L 18.109375 54.6875 
L 18.109375 46.390625 
Q 20.953125 51.265625 25.265625 53.625 
Q 29.59375 56 35.59375 56 
Q 45.5625 56 51.78125 48.09375 
Q 58.015625 40.1875 58.015625 27.296875 
Q 58.015625 14.40625 51.78125 6.484375 
Q 45.5625 -1.421875 35.59375 -1.421875 
Q 29.59375 -1.421875 25.265625 0.953125 
Q 20.953125 3.328125 18.109375 8.203125 
M 48.6875 27.296875 
Q 48.6875 37.203125 44.609375 42.84375 
Q 40.53125 48.484375 33.40625 48.484375 
Q 26.265625 48.484375 22.1875 42.84375 
Q 18.109375 37.203125 18.109375 27.296875 
Q 18.109375 17.390625 22.1875 11.75 
Q 26.265625 6.109375 33.40625 6.109375 
Q 40.53125 6.109375 44.609375 11.75 
Q 48.6875 17.390625 48.6875 27.296875 
" id="DejaVuSans-70"/>
      <path d="M 45.40625 46.390625 
L 45.40625 75.984375 
L 54.390625 75.984375 
L 54.390625 0 
L 45.40625 0 
L 45.40625 8.203125 
Q 42.578125 3.328125 38.25 0.953125 
Q 33.9375 -1.421875 27.875 -1.421875 
Q 17.96875 -1.421875 11.734375 6.484375 
Q 5.515625 14.40625 5.515625 27.296875 
Q 5.515625 40.1875 11.734375 48.09375 
Q 17.96875 56 27.875 56 
Q 33.9375 56 38.25 53.625 
Q 42.578125 51.265625 45.40625 46.390625 
M 14.796875 27.296875 
Q 14.796875 17.390625 18.875 11.75 
Q 22.953125 6.109375 30.078125 6.109375 
Q 37.203125 6.109375 41.296875 11.75 
Q 45.40625 17.390625 45.40625 27.296875 
Q 45.40625 37.203125 41.296875 42.84375 
Q 37.203125 48.484375 30.078125 48.484375 
Q 22.953125 48.484375 18.875 42.84375 
Q 14.796875 37.203125 14.796875 27.296875 
" id="DejaVuSans-64"/>
      <path d="M 31 75.875 
Q 24.46875 64.65625 21.28125 53.65625 
Q 18.109375 42.671875 18.109375 31.390625 
Q 18.109375 20.125 21.3125 9.0625 
Q 24.515625 -2 31 -13.1875 
L 23.1875 -13.1875 
Q 15.875 -1.703125 12.234375 9.375 
Q 8.59375 20.453125 8.59375 31.390625 
Q 8.59375 42.28125 12.203125 53.3125 
Q 15.828125 64.359375 23.1875 75.875 
z
" id="DejaVuSans-28"/>
      <path d="M 52 44.1875 
Q 55.375 50.25 60.0625 53.125 
Q 64.75 56 71.09375 56 
Q 79.640625 56 84.28125 50.015625 
Q 88.921875 44.046875 88.921875 33.015625 
L 88.921875 0 
L 79.890625 0 
L 79.890625 32.71875 
Q 79.890625 40.578125 77.09375 44.375 
Q 74.3125 48.1875 68.609375 48.1875 
Q 61.625 48.1875 57.5625 43.546875 
Q 53.515625 38.921875 53.515625 30.90625 
L 53.515625 0 
L 44.484375 0 
L 44.484375 32.71875 
Q 44.484375 40.625 41.703125 44.40625 
Q 38.921875 48.1875 33.109375 48.1875 
Q 26.21875 48.1875 22.15625 43.53125 
Q 18.109375 38.875 18.109375 30.90625 
L 18.109375 0 
L 9.078125 0 
L 9.078125 54.6875 
L 18.109375 54.6875 
L 18.109375 46.1875 
Q 21.1875 51.21875 25.484375 53.609375 
Q 29.78125 56 35.6875 56 
Q 41.65625 56 45.828125 52.96875 
Q 50 49.953125 52 44.1875 
" id="DejaVuSans-6d"/>
      <path d="M 8.015625 75.875 
L 15.828125 75.875 
Q 23.140625 64.359375 26.78125 53.3125 
Q 30.421875 42.28125 30.421875 31.390625 
Q 30.421875 20.453125 26.78125 9.375 
Q 23.140625 -1.703125 15.828125 -13.1875 
L 8.015625 -13.1875 
Q 14.5 -2 17.703125 9.0625 
Q 20.90625 20.125 20.90625 31.390625 
Q 20.90625 42.671875 17.703125 53.65625 
Q 14.5 64.65625 8.015625 75.875 
" id="DejaVuSans-29"/>
     </defs>
     <g transform="translate(307.843437 72.748563)scale(0.1 -0.1)">
      <use xlink:href="#DejaVuSans-70"/>
      <use x="63.476562" xlink:href="#DejaVuSans-72"/>
      <use x="104.558594" xlink:href="#DejaVuSans-65"/>
      <use x="166.082031" xlink:href="#DejaVuSans-64"/>
      <use x="229.558594" xlink:href="#DejaVuSans-2e"/>
      <use x="261.345703" xlink:href="#DejaVuSans-20"/>
      <use x="293.132812" xlink:href="#DejaVuSans-28"/>
      <use x="332.146484" xlink:href="#DejaVuSans-6d"/>
      <use x="429.558594" xlink:href="#DejaVuSans-65"/>
      <use x="491.082031" xlink:href="#DejaVuSans-61"/>
      <use x="552.361328" xlink:href="#DejaVuSans-6e"/>
      <use x="615.740234" xlink:href="#DejaVuSans-29"/>
     </g>
    </g>
    <g id="line2d_23">
     <path d="M 279.843437 83.926688 
L 299.843437 83.926688 
" style="fill:none;stroke:#2ca02c;stroke-linecap:square;stroke-width:1.5;"/>
    </g>
    <g id="line2d_24"/>
    <g id="text_18">
     <!-- pred.(5th percen.) -->
     <defs>
      <path d="M 54.890625 33.015625 
L 54.890625 0 
L 45.90625 0 
L 45.90625 32.71875 
Q 45.90625 40.484375 42.875 44.328125 
Q 39.84375 48.1875 33.796875 48.1875 
Q 26.515625 48.1875 22.3125 43.546875 
Q 18.109375 38.921875 18.109375 30.90625 
L 18.109375 0 
L 9.078125 0 
L 9.078125 75.984375 
L 18.109375 75.984375 
L 18.109375 46.1875 
Q 21.34375 51.125 25.703125 53.5625 
Q 30.078125 56 35.796875 56 
Q 45.21875 56 50.046875 50.171875 
Q 54.890625 44.34375 54.890625 33.015625 
" id="DejaVuSans-68"/>
     </defs>
     <g transform="translate(307.843437 87.426688)scale(0.1 -0.1)">
      <use xlink:href="#DejaVuSans-70"/>
      <use x="63.476562" xlink:href="#DejaVuSans-72"/>
      <use x="104.558594" xlink:href="#DejaVuSans-65"/>
      <use x="166.082031" xlink:href="#DejaVuSans-64"/>
      <use x="229.558594" xlink:href="#DejaVuSans-2e"/>
      <use x="261.345703" xlink:href="#DejaVuSans-28"/>
      <use x="300.359375" xlink:href="#DejaVuSans-35"/>
      <use x="363.982422" xlink:href="#DejaVuSans-74"/>
      <use x="403.191406" xlink:href="#DejaVuSans-68"/>
      <use x="466.570312" xlink:href="#DejaVuSans-20"/>
      <use x="498.357422" xlink:href="#DejaVuSans-70"/>
      <use x="561.833984" xlink:href="#DejaVuSans-65"/>
      <use x="623.357422" xlink:href="#DejaVuSans-72"/>
      <use x="664.439453" xlink:href="#DejaVuSans-63"/>
      <use x="719.419922" xlink:href="#DejaVuSans-65"/>
      <use x="780.943359" xlink:href="#DejaVuSans-6e"/>
      <use x="844.322266" xlink:href="#DejaVuSans-2e"/>
      <use x="876.109375" xlink:href="#DejaVuSans-29"/>
     </g>
    </g>
    <g id="line2d_25">
     <path d="M 279.843437 98.604813 
L 299.843437 98.604813 
" style="fill:none;stroke:#d62728;stroke-linecap:square;stroke-width:1.5;"/>
    </g>
    <g id="line2d_26"/>
    <g id="text_19">
     <!-- pred.(95th percen.) -->
     <defs>
      <path d="M 10.984375 1.515625 
L 10.984375 10.5 
Q 14.703125 8.734375 18.5 7.8125 
Q 22.3125 6.890625 25.984375 6.890625 
Q 35.75 6.890625 40.890625 13.453125 
Q 46.046875 20.015625 46.78125 33.40625 
Q 43.953125 29.203125 39.59375 26.953125 
Q 35.25 24.703125 29.984375 24.703125 
Q 19.046875 24.703125 12.671875 31.3125 
Q 6.296875 37.9375 6.296875 49.421875 
Q 6.296875 60.640625 12.9375 67.421875 
Q 19.578125 74.21875 30.609375 74.21875 
Q 43.265625 74.21875 49.921875 64.515625 
Q 56.59375 54.828125 56.59375 36.375 
Q 56.59375 19.140625 48.40625 8.859375 
Q 40.234375 -1.421875 26.421875 -1.421875 
Q 22.703125 -1.421875 18.890625 -0.6875 
Q 15.09375 0.046875 10.984375 1.515625 
M 30.609375 32.421875 
Q 37.25 32.421875 41.125 36.953125 
Q 45.015625 41.5 45.015625 49.421875 
Q 45.015625 57.28125 41.125 61.84375 
Q 37.25 66.40625 30.609375 66.40625 
Q 23.96875 66.40625 20.09375 61.84375 
Q 16.21875 57.28125 16.21875 49.421875 
Q 16.21875 41.5 20.09375 36.953125 
Q 23.96875 32.421875 30.609375 32.421875 
" id="DejaVuSans-39"/>
     </defs>
     <g transform="translate(307.843437 102.104813)scale(0.1 -0.1)">
      <use xlink:href="#DejaVuSans-70"/>
      <use x="63.476562" xlink:href="#DejaVuSans-72"/>
      <use x="104.558594" xlink:href="#DejaVuSans-65"/>
      <use x="166.082031" xlink:href="#DejaVuSans-64"/>
      <use x="229.558594" xlink:href="#DejaVuSans-2e"/>
      <use x="261.345703" xlink:href="#DejaVuSans-28"/>
      <use x="300.359375" xlink:href="#DejaVuSans-39"/>
      <use x="363.982422" xlink:href="#DejaVuSans-35"/>
      <use x="427.605469" xlink:href="#DejaVuSans-74"/>
      <use x="466.814453" xlink:href="#DejaVuSans-68"/>
      <use x="530.193359" xlink:href="#DejaVuSans-20"/>
      <use x="561.980469" xlink:href="#DejaVuSans-70"/>
      <use x="625.457031" xlink:href="#DejaVuSans-65"/>
      <use x="686.980469" xlink:href="#DejaVuSans-72"/>
      <use x="728.0625" xlink:href="#DejaVuSans-63"/>
      <use x="783.042969" xlink:href="#DejaVuSans-65"/>
      <use x="844.566406" xlink:href="#DejaVuSans-6e"/>
      <use x="907.945312" xlink:href="#DejaVuSans-2e"/>
      <use x="939.732422" xlink:href="#DejaVuSans-29"/>
     </g>
    </g>
   </g>
  </g>
 </g>
 <defs>
  <clipPath id="p1ad736697f">
   <rect height="266.112" width="357.12" x="57.6" y="41.472"/>
  </clipPath>
 </defs>
</svg>
