<?xml version="1.0" encoding="utf-8" standalone="no"?>
<!DOCTYPE svg PUBLIC "-//W3C//DTD SVG 1.1//EN"
  "http://www.w3.org/Graphics/SVG/1.1/DTD/svg11.dtd">
<!-- Created with matplotlib (http://matplotlib.org/) -->
<svg height="345pt" version="1.1" viewBox="0 0 460 345" width="460pt" xmlns="http://www.w3.org/2000/svg" xmlns:xlink="http://www.w3.org/1999/xlink">
 <defs>
  <style type="text/css">
*{stroke-linecap:butt;stroke-linejoin:round;}
  </style>
 </defs>
 <g id="figure_1">
  <g id="patch_1">
   <path d="M 0 345.6 
L 460.8 345.6 
L 460.8 0 
L 0 0 
z
" style="fill:#ffffff;"/>
  </g>
  <g id="axes_1">
   <g id="patch_2">
    <path d="M 57.6 307.584 
L 414.72 307.584 
L 414.72 41.472 
L 57.6 41.472 
z
" style="fill:#ffffff;"/>
   </g>
   <g id="PolyCollection_1">
    <path clip-path="url(#p24ffa175d3)" d="M 73.832727 272.504064 
L 73.832727 277.241001 
L 74.92584 272.833218 
L 76.018953 185.940883 
L 77.112066 261.662266 
L 78.205179 282.539635 
L 79.298292 243.953144 
L 80.391405 174.780503 
L 81.484518 278.101101 
L 82.577631 282.404776 
L 83.670744 208.508863 
L 84.763857 231.688422 
L 85.85697 282.634029 
L 86.950083 271.29147 
L 88.043196 168.306539 
L 89.136309 274.841248 
L 90.229421 284.101887 
L 91.322534 230.618893 
L 92.415647 189.545961 
L 93.50876 278.639797 
L 94.601873 280.589612 
L 95.694986 195.241812 
L 96.788099 239.422428 
L 97.881212 284.023536 
L 98.974325 264.89741 
L 100.067438 156.416066 
L 101.160551 277.856942 
L 102.253664 285.722752 
L 103.346777 233.393763 
L 104.43989 187.849517 
L 105.533003 280.501137 
L 106.626116 282.101564 
L 107.719229 196.329047 
L 108.812342 239.127695 
L 109.905455 286.317134 
L 110.998567 269.551571 
L 112.09168 158.494763 
L 113.184793 277.875251 
L 114.277906 286.393332 
L 115.371019 242.693571 
L 116.464132 160.087746 
L 117.557245 280.703584 
L 118.650358 284.178476 
L 119.743471 203.056009 
L 120.836584 225.995354 
L 121.929697 286.630246 
L 123.02281 277.046838 
L 124.115923 173.435322 
L 125.209036 259.803026 
L 126.302149 287.569491 
L 127.395262 267.499376 
L 128.488375 140.57478 
L 129.581488 282.240841 
L 130.674601 288.005026 
L 131.767713 246.39706 
L 132.860826 158.697953 
L 133.953939 283.529816 
L 135.047052 286.558037 
L 136.140165 206.447313 
L 137.233278 218.642198 
L 138.326391 288.561199 
L 139.419504 281.66752 
L 140.512617 185.55353 
L 141.60573 246.090355 
L 142.698843 290.359839 
L 143.791956 274.675253 
L 144.885069 162.686462 
L 145.978182 271.260731 
L 147.071295 289.220454 
L 148.164408 269.392971 
L 149.257521 142.401975 
L 150.350634 283.880869 
L 151.443747 290.124317 
L 152.53686 265.459403 
L 153.629972 126.238714 
L 154.723085 286.406642 
L 155.816198 290.601855 
L 156.909311 272.082532 
L 158.002424 120.082173 
L 159.095537 288.114229 
L 160.18865 292.112246 
L 161.281763 272.897634 
L 162.374876 130.520492 
L 163.467989 288.882837 
L 164.561102 293.481384 
L 165.654215 279.504114 
L 166.747328 179.918686 
L 167.840441 260.213112 
L 168.933554 295.00565 
L 170.026667 285.839066 
L 171.11978 280.258548 
L 172.212893 208.678785 
L 173.306006 243.507913 
L 174.399118 274.395968 
L 175.492231 241.07748 
L 176.585344 217.389227 
L 177.678457 269.881129 
L 178.77157 264.304086 
L 179.864683 213.676143 
L 180.957796 260.280723 
L 182.050909 273.286267 
L 183.144022 235.514371 
L 184.237135 227.491753 
L 185.330248 271.115846 
L 186.423361 262.106965 
L 187.516474 210.211478 
L 188.609587 262.560256 
L 189.7027 274.523332 
L 190.795813 231.988288 
L 191.888926 228.0719 
L 192.982039 272.62596 
L 194.075152 261.261141 
L 195.168264 205.593178 
L 196.261377 266.097769 
L 197.35449 275.677969 
L 198.447603 227.601075 
L 199.540716 226.188711 
L 200.633829 272.790947 
L 201.726942 262.579416 
L 202.820055 201.313029 
L 203.913168 267.141686 
L 205.006281 276.282498 
L 206.099394 226.936172 
L 207.192507 225.893927 
L 208.28562 274.409432 
L 209.378733 261.962323 
L 210.471846 194.828427 
L 211.564959 267.503284 
L 212.658072 277.493927 
L 213.751185 226.652198 
L 214.844298 221.281706 
L 215.93741 275.046711 
L 217.030523 266.554629 
L 218.123636 191.799156 
L 219.216749 266.571543 
L 220.309862 279.058504 
L 221.402975 230.460994 
L 222.496088 213.512141 
L 223.589201 275.786704 
L 224.682314 271.06252 
L 225.775427 191.104448 
L 226.86854 261.912196 
L 227.961653 279.573595 
L 229.054766 235.565677 
L 230.147879 202.213367 
L 231.240992 275.475097 
L 232.334105 275.736086 
L 233.427218 198.39856 
L 234.520331 251.487829 
L 235.613444 279.473398 
L 236.706556 247.267564 
L 237.799669 178.545563 
L 238.892782 276.047403 
L 239.985895 280.452389 
L 241.079008 207.559519 
L 242.172121 233.195813 
L 243.265234 279.770892 
L 244.358347 261.114579 
L 245.45146 170.211718 
L 246.544573 274.653968 
L 247.637686 282.047704 
L 248.730799 223.676387 
L 249.823912 212.626038 
L 250.917025 278.905918 
L 252.010138 273.98758 
L 253.103251 180.864595 
L 254.196364 262.342347 
L 255.289477 281.126608 
L 256.38259 245.17497 
L 257.475702 174.537983 
L 258.568815 277.89261 
L 259.661928 281.335255 
L 260.755041 201.804405 
L 261.848154 233.204788 
L 262.941267 283.068991 
L 264.03438 267.507853 
L 265.127493 163.760137 
L 266.220606 275.421523 
L 267.313719 284.20767 
L 268.406832 233.139907 
L 269.499945 190.424777 
L 270.593058 279.304486 
L 271.686171 280.093069 
L 272.779284 192.427494 
L 273.872397 242.100222 
L 274.96551 284.784709 
L 276.058623 262.534766 
L 277.151736 152.478196 
L 278.244848 278.563108 
L 279.337961 285.659316 
L 280.431074 225.441414 
L 281.524187 192.064748 
L 282.6173 281.54113 
L 283.710413 280.306882 
L 284.803526 189.808256 
L 285.896639 240.867763 
L 286.989752 287.096805 
L 288.082865 267.540619 
L 289.175978 151.70542 
L 290.269091 278.323246 
L 291.362204 285.915323 
L 292.455317 233.598849 
L 293.54843 168.136204 
L 294.641543 281.080537 
L 295.734656 284.635829 
L 296.827769 201.067377 
L 297.920882 230.970751 
L 299.013994 287.872883 
L 300.107107 277.884971 
L 301.20022 170.280457 
L 302.293333 267.206464 
L 303.386446 286.682863 
L 304.479559 264.127518 
L 305.572672 135.531482 
L 306.665785 282.652921 
L 307.758898 288.244661 
L 308.852011 233.17887 
L 309.945124 168.46922 
L 311.038237 284.82673 
L 312.13135 284.955477 
L 313.224463 198.417781 
L 314.317576 227.113888 
L 315.410689 289.696646 
L 316.503802 280.788085 
L 317.596915 177.585646 
L 318.690028 249.78727 
L 319.78314 289.793414 
L 320.876253 276.720687 
L 321.969366 155.362451 
L 323.062479 278.428935 
L 324.155592 289.321647 
L 325.248705 266.749939 
L 326.341818 131.729476 
L 327.434931 285.590108 
L 328.528044 291.077358 
L 329.621157 266.058341 
L 330.71427 116.327493 
L 331.807383 286.840435 
L 332.900496 290.870658 
L 333.993609 257.151271 
L 335.086722 108.787173 
L 336.179835 288.690213 
L 337.272948 292.005616 
L 338.366061 269.038146 
L 339.459174 109.38217 
L 340.552287 291.246001 
L 341.645399 293.43068 
L 342.738512 273.831121 
L 343.831625 149.137768 
L 344.924738 284.171194 
L 346.017851 293.611593 
L 347.110964 281.203318 
L 348.204077 274.128252 
L 349.29719 88.02 
L 350.390303 295.488 
L 351.483416 295.4235 
L 352.576529 276.063552 
L 353.669642 140.572775 
L 354.762755 281.6123 
L 355.855868 290.302994 
L 356.948981 262.177677 
L 358.042094 124.05242 
L 359.135207 283.470788 
L 360.22832 288.777243 
L 361.321433 224.065155 
L 362.414545 183.813905 
L 363.507658 286.601201 
L 364.600771 284.498248 
L 365.693884 191.504642 
L 366.786997 236.351282 
L 367.88011 289.655294 
L 368.973223 278.131924 
L 370.066336 165.683831 
L 371.159449 265.056187 
L 372.252562 290.230848 
L 373.345675 268.61208 
L 374.438788 135.922526 
L 375.531901 283.121029 
L 376.625014 289.765419 
L 377.718127 261.666486 
L 378.81124 118.463347 
L 379.904353 286.183145 
L 380.997466 289.967908 
L 382.090579 251.495739 
L 383.183691 142.985306 
L 384.276804 287.688148 
L 385.369917 290.735993 
L 386.46303 237.71358 
L 387.556143 164.568124 
L 388.649256 290.064816 
L 389.742369 289.098512 
L 390.835482 232.303409 
L 391.928595 160.449754 
L 393.021708 291.201643 
L 394.114821 290.296524 
L 395.207934 252.750852 
L 396.301047 118.593954 
L 397.39416 291.766254 
L 398.487273 292.678536 
L 398.487273 285.974753 
L 398.487273 285.974753 
L 397.39416 284.596182 
L 396.301047 98.606469 
L 395.207934 208.615452 
L 394.114821 279.914095 
L 393.021708 279.544648 
L 391.928595 106.013514 
L 390.835482 204.650241 
L 389.742369 279.701977 
L 388.649256 279.765197 
L 387.556143 113.486976 
L 386.46303 209.545417 
L 385.369917 283.841656 
L 384.276804 281.688953 
L 383.183691 116.179532 
L 382.090579 216.374952 
L 380.997466 285.436939 
L 379.904353 281.123869 
L 378.81124 109.295765 
L 377.718127 225.716226 
L 376.625014 286.202065 
L 375.531901 270.488886 
L 374.438788 95.65359 
L 373.345675 237.379095 
L 372.252562 283.575739 
L 371.159449 250.593704 
L 370.066336 112.102207 
L 368.973223 256.870942 
L 367.88011 276.387069 
L 366.786997 194.417459 
L 365.693884 162.957749 
L 364.600771 275.980501 
L 363.507658 278.312934 
L 362.414545 135.888293 
L 361.321433 212.036623 
L 360.22832 284.999431 
L 359.135207 276.658031 
L 358.042094 107.150765 
L 356.948981 229.019289 
L 355.855868 285.889306 
L 354.762755 265.239326 
L 353.669642 79.542 
L 352.576529 218.261102 
L 351.483416 289.267098 
L 350.390303 289.057681 
L 349.29719 58.092622 
L 348.204077 210.608552 
L 347.110964 230.017301 
L 346.017851 286.287669 
L 344.924738 264.548661 
L 343.831625 81.376202 
L 342.738512 219.677426 
L 341.645399 287.856768 
L 340.552287 286.292641 
L 339.459174 79.899822 
L 338.366061 219.799939 
L 337.272948 286.892217 
L 336.179835 283.754015 
L 335.086722 95.325022 
L 333.993609 218.063832 
L 332.900496 286.247594 
L 331.807383 281.558706 
L 330.71427 97.937764 
L 329.621157 224.849236 
L 328.528044 287.159212 
L 327.434931 276.012741 
L 326.341818 96.337261 
L 325.248705 232.107541 
L 324.155592 284.955153 
L 323.062479 259.575207 
L 321.969366 103.264361 
L 320.876253 246.610023 
L 319.78314 279.442321 
L 318.690028 240.543481 
L 317.596915 128.668145 
L 316.503802 264.183347 
L 315.410689 275.950216 
L 314.317576 167.458513 
L 313.224463 182.328888 
L 312.13135 279.825999 
L 311.038237 279.12209 
L 309.945124 132.190859 
L 308.852011 218.504747 
L 307.758898 283.901417 
L 306.665785 272.663276 
L 305.572672 114.241815 
L 304.479559 238.596605 
L 303.386446 282.075379 
L 302.293333 251.043919 
L 301.20022 123.142768 
L 300.107107 261.611733 
L 299.013994 276.797037 
L 297.920882 192.726256 
L 296.827769 182.906728 
L 295.734656 280.439444 
L 294.641543 275.767336 
L 293.54843 141.042744 
L 292.455317 224.238278 
L 291.362204 280.605074 
L 290.269091 262.289489 
L 289.175978 115.544024 
L 288.082865 251.531128 
L 286.989752 278.555095 
L 285.896639 231.792757 
L 284.803526 152.016898 
L 283.710413 275.058467 
L 282.6173 276.671722 
L 281.524187 155.442504 
L 280.431074 219.968357 
L 279.337961 279.288699 
L 278.244848 263.680644 
L 277.151736 125.837044 
L 276.058623 250.271339 
L 274.96551 278.163203 
L 273.872397 235.620826 
L 272.779284 156.589447 
L 271.686171 274.825812 
L 270.593058 274.783326 
L 269.499945 161.009136 
L 268.406832 228.134294 
L 267.313719 277.438412 
L 266.220606 258.419672 
L 265.127493 130.939684 
L 264.03438 257.270629 
L 262.941267 276.540943 
L 261.848154 219.270126 
L 260.755041 171.51744 
L 259.661928 273.253631 
L 258.568815 268.836269 
L 257.475702 158.644876 
L 256.38259 238.61401 
L 255.289477 276.026002 
L 254.196364 246.858675 
L 253.103251 140.681471 
L 252.010138 268.16425 
L 250.917025 274.450454 
L 249.823912 188.680495 
L 248.730799 213.101126 
L 247.637686 271.97024 
L 246.544573 259.40765 
L 245.45146 146.405255 
L 244.358347 254.343835 
L 243.265234 275.282448 
L 242.172121 225.161709 
L 241.079008 180.022508 
L 239.985895 272.221892 
L 238.892782 265.110973 
L 237.799669 164.648701 
L 236.706556 240.167912 
L 235.613444 275.131676 
L 234.520331 240.261655 
L 233.427218 163.920095 
L 232.334105 267.318907 
L 231.240992 266.728875 
L 230.147879 186.440033 
L 229.054766 221.360096 
L 227.961653 272.694304 
L 226.86854 246.005083 
L 225.775427 157.911851 
L 224.682314 262.069809 
L 223.589201 270.580425 
L 222.496088 199.752626 
L 221.402975 214.592746 
L 220.309862 270.098606 
L 219.216749 249.437908 
L 218.123636 165.17556 
L 217.030523 255.933329 
L 215.93741 268.706931 
L 214.844298 211.571097 
L 213.751185 205.679946 
L 212.658072 265.779983 
L 211.564959 250.415726 
L 210.471846 172.129419 
L 209.378733 248.940161 
L 208.28562 267.839948 
L 207.192507 217.745723 
L 206.099394 206.778125 
L 205.006281 264.095328 
L 203.913168 250.79301 
L 202.820055 178.976322 
L 201.726942 252.130771 
L 200.633829 264.258012 
L 199.540716 218.43513 
L 198.447603 204.69577 
L 197.35449 265.183967 
L 196.261377 250.821646 
L 195.168264 184.386536 
L 194.075152 248.49733 
L 192.982039 263.690278 
L 191.888926 220.067703 
L 190.795813 211.307374 
L 189.7027 264.003391 
L 188.609587 246.636211 
L 187.516474 188.289806 
L 186.423361 248.929023 
L 185.330248 260.964221 
L 184.237135 218.941692 
L 183.144022 217.037037 
L 182.050909 262.450489 
L 180.957796 245.973143 
L 179.864683 192.171352 
L 178.77157 250.739643 
L 177.678457 259.991321 
L 176.585344 206.05865 
L 175.492231 219.327905 
L 174.399118 269.203477 
L 173.306006 210.240185 
L 172.212893 189.35457 
L 171.11978 214.173906 
L 170.026667 245.828212 
L 168.933554 275.317645 
L 167.840441 213.245803 
L 166.747328 136.906822 
L 165.654215 227.964704 
L 164.561102 288.029312 
L 163.467989 276.852007 
L 162.374876 77.577858 
L 161.281763 224.229572 
L 160.18865 287.186622 
L 159.095537 281.601463 
L 158.002424 87.872517 
L 156.909311 225.23689 
L 155.816198 285.913739 
L 154.723085 276.964868 
L 153.629972 93.322424 
L 152.53686 228.426013 
L 151.443747 285.871394 
L 150.350634 268.157926 
L 149.257521 96.808557 
L 148.164408 237.794297 
L 147.071295 283.302634 
L 145.978182 253.397825 
L 144.885069 109.213132 
L 143.791956 251.272163 
L 142.698843 278.0354 
L 141.60573 226.06998 
L 140.512617 145.313022 
L 139.419504 269.363492 
L 138.326391 276.214031 
L 137.233278 154.728741 
L 136.140165 198.280954 
L 135.047052 282.200932 
L 133.953939 278.074964 
L 132.860826 130.633287 
L 131.767713 223.933757 
L 130.674601 283.071109 
L 129.581488 269.0986 
L 128.488375 113.756824 
L 127.395262 242.932341 
L 126.302149 281.380296 
L 125.209036 246.248538 
L 124.115923 125.332903 
L 123.02281 264.713399 
L 121.929697 275.933261 
L 120.836584 179.632163 
L 119.743471 185.178657 
L 118.650358 277.917733 
L 117.557245 274.32512 
L 116.464132 138.999943 
L 115.371019 228.89959 
L 114.277906 282.237322 
L 113.184793 259.995128 
L 112.09168 122.234781 
L 110.998567 254.527205 
L 109.905455 277.445585 
L 108.812342 224.882499 
L 107.719229 165.79492 
L 106.626116 277.405556 
L 105.533003 275.805804 
L 104.43989 154.392024 
L 103.346777 226.498761 
L 102.253664 280.249436 
L 101.160551 260.806272 
L 100.067438 126.860199 
L 98.974325 253.322332 
L 97.881212 277.102939 
L 96.788099 230.785673 
L 95.694986 155.441138 
L 94.601873 274.077033 
L 93.50876 273.488894 
L 92.415647 160.779239 
L 91.322534 225.025502 
L 90.229421 276.966263 
L 89.136309 255.799644 
L 88.043196 135.159365 
L 86.950083 261.055642 
L 85.85697 276.135447 
L 84.763857 215.151665 
L 83.670744 185.249999 
L 82.577631 274.422533 
L 81.484518 267.248357 
L 80.391405 158.95069 
L 79.298292 238.063287 
L 78.205179 278.520573 
L 77.112066 245.444786 
L 76.018953 149.973445 
L 74.92584 263.947104 
L 73.832727 272.504064 
z
" style="fill:#008000;fill-opacity:0.4;"/>
   </g>
   <g id="matplotlib.axis_1">
    <g id="xtick_1">
     <g id="line2d_1">
      <defs>
       <path d="M 0 0 
L 0 3.5 
" id="m07c512df97" style="stroke:#000000;stroke-width:0.8;"/>
      </defs>
      <g>
       <use style="stroke:#000000;stroke-width:0.8;" x="73.832727" xlink:href="#m07c512df97" y="307.584"/>
      </g>
     </g>
     <g id="text_1">
      <!-- 0.0 -->
      <defs>
       <path d="M 31.78125 66.40625 
Q 24.171875 66.40625 20.328125 58.90625 
Q 16.5 51.421875 16.5 36.375 
Q 16.5 21.390625 20.328125 13.890625 
Q 24.171875 6.390625 31.78125 6.390625 
Q 39.453125 6.390625 43.28125 13.890625 
Q 47.125 21.390625 47.125 36.375 
Q 47.125 51.421875 43.28125 58.90625 
Q 39.453125 66.40625 31.78125 66.40625 
M 31.78125 74.21875 
Q 44.046875 74.21875 50.515625 64.515625 
Q 56.984375 54.828125 56.984375 36.375 
Q 56.984375 17.96875 50.515625 8.265625 
Q 44.046875 -1.421875 31.78125 -1.421875 
Q 19.53125 -1.421875 13.0625 8.265625 
Q 6.59375 17.96875 6.59375 36.375 
Q 6.59375 54.828125 13.0625 64.515625 
Q 19.53125 74.21875 31.78125 74.21875 
" id="DejaVuSans-30"/>
       <path d="M 10.6875 12.40625 
L 21 12.40625 
L 21 0 
L 10.6875 0 
z
" id="DejaVuSans-2e"/>
      </defs>
      <g transform="translate(65.881165 322.182437)scale(0.1 -0.1)">
       <use xlink:href="#DejaVuSans-30"/>
       <use x="63.623047" xlink:href="#DejaVuSans-2e"/>
       <use x="95.410156" xlink:href="#DejaVuSans-30"/>
      </g>
     </g>
    </g>
    <g id="xtick_2">
     <g id="line2d_2">
      <g>
       <use style="stroke:#000000;stroke-width:0.8;" x="138.763636" xlink:href="#m07c512df97" y="307.584"/>
      </g>
     </g>
     <g id="text_2">
      <!-- 0.2 -->
      <defs>
       <path d="M 19.1875 8.296875 
L 53.609375 8.296875 
L 53.609375 0 
L 7.328125 0 
L 7.328125 8.296875 
Q 12.9375 14.109375 22.625 23.890625 
Q 32.328125 33.6875 34.8125 36.53125 
Q 39.546875 41.84375 41.421875 45.53125 
Q 43.3125 49.21875 43.3125 52.78125 
Q 43.3125 58.59375 39.234375 62.25 
Q 35.15625 65.921875 28.609375 65.921875 
Q 23.96875 65.921875 18.8125 64.3125 
Q 13.671875 62.703125 7.8125 59.421875 
L 7.8125 69.390625 
Q 13.765625 71.78125 18.9375 73 
Q 24.125 74.21875 28.421875 74.21875 
Q 39.75 74.21875 46.484375 68.546875 
Q 53.21875 62.890625 53.21875 53.421875 
Q 53.21875 48.921875 51.53125 44.890625 
Q 49.859375 40.875 45.40625 35.40625 
Q 44.1875 33.984375 37.640625 27.21875 
Q 31.109375 20.453125 19.1875 8.296875 
" id="DejaVuSans-32"/>
      </defs>
      <g transform="translate(130.812074 322.182437)scale(0.1 -0.1)">
       <use xlink:href="#DejaVuSans-30"/>
       <use x="63.623047" xlink:href="#DejaVuSans-2e"/>
       <use x="95.410156" xlink:href="#DejaVuSans-32"/>
      </g>
     </g>
    </g>
    <g id="xtick_3">
     <g id="line2d_3">
      <g>
       <use style="stroke:#000000;stroke-width:0.8;" x="203.694545" xlink:href="#m07c512df97" y="307.584"/>
      </g>
     </g>
     <g id="text_3">
      <!-- 0.4 -->
      <defs>
       <path d="M 37.796875 64.3125 
L 12.890625 25.390625 
L 37.796875 25.390625 
z
M 35.203125 72.90625 
L 47.609375 72.90625 
L 47.609375 25.390625 
L 58.015625 25.390625 
L 58.015625 17.1875 
L 47.609375 17.1875 
L 47.609375 0 
L 37.796875 0 
L 37.796875 17.1875 
L 4.890625 17.1875 
L 4.890625 26.703125 
z
" id="DejaVuSans-34"/>
      </defs>
      <g transform="translate(195.742983 322.182437)scale(0.1 -0.1)">
       <use xlink:href="#DejaVuSans-30"/>
       <use x="63.623047" xlink:href="#DejaVuSans-2e"/>
       <use x="95.410156" xlink:href="#DejaVuSans-34"/>
      </g>
     </g>
    </g>
    <g id="xtick_4">
     <g id="line2d_4">
      <g>
       <use style="stroke:#000000;stroke-width:0.8;" x="268.625455" xlink:href="#m07c512df97" y="307.584"/>
      </g>
     </g>
     <g id="text_4">
      <!-- 0.6 -->
      <defs>
       <path d="M 33.015625 40.375 
Q 26.375 40.375 22.484375 35.828125 
Q 18.609375 31.296875 18.609375 23.390625 
Q 18.609375 15.53125 22.484375 10.953125 
Q 26.375 6.390625 33.015625 6.390625 
Q 39.65625 6.390625 43.53125 10.953125 
Q 47.40625 15.53125 47.40625 23.390625 
Q 47.40625 31.296875 43.53125 35.828125 
Q 39.65625 40.375 33.015625 40.375 
M 52.59375 71.296875 
L 52.59375 62.3125 
Q 48.875 64.0625 45.09375 64.984375 
Q 41.3125 65.921875 37.59375 65.921875 
Q 27.828125 65.921875 22.671875 59.328125 
Q 17.53125 52.734375 16.796875 39.40625 
Q 19.671875 43.65625 24.015625 45.921875 
Q 28.375 48.1875 33.59375 48.1875 
Q 44.578125 48.1875 50.953125 41.515625 
Q 57.328125 34.859375 57.328125 23.390625 
Q 57.328125 12.15625 50.6875 5.359375 
Q 44.046875 -1.421875 33.015625 -1.421875 
Q 20.359375 -1.421875 13.671875 8.265625 
Q 6.984375 17.96875 6.984375 36.375 
Q 6.984375 53.65625 15.1875 63.9375 
Q 23.390625 74.21875 37.203125 74.21875 
Q 40.921875 74.21875 44.703125 73.484375 
Q 48.484375 72.75 52.59375 71.296875 
" id="DejaVuSans-36"/>
      </defs>
      <g transform="translate(260.673892 322.182437)scale(0.1 -0.1)">
       <use xlink:href="#DejaVuSans-30"/>
       <use x="63.623047" xlink:href="#DejaVuSans-2e"/>
       <use x="95.410156" xlink:href="#DejaVuSans-36"/>
      </g>
     </g>
    </g>
    <g id="xtick_5">
     <g id="line2d_5">
      <g>
       <use style="stroke:#000000;stroke-width:0.8;" x="333.556364" xlink:href="#m07c512df97" y="307.584"/>
      </g>
     </g>
     <g id="text_5">
      <!-- 0.8 -->
      <defs>
       <path d="M 31.78125 34.625 
Q 24.75 34.625 20.71875 30.859375 
Q 16.703125 27.09375 16.703125 20.515625 
Q 16.703125 13.921875 20.71875 10.15625 
Q 24.75 6.390625 31.78125 6.390625 
Q 38.8125 6.390625 42.859375 10.171875 
Q 46.921875 13.96875 46.921875 20.515625 
Q 46.921875 27.09375 42.890625 30.859375 
Q 38.875 34.625 31.78125 34.625 
M 21.921875 38.8125 
Q 15.578125 40.375 12.03125 44.71875 
Q 8.5 49.078125 8.5 55.328125 
Q 8.5 64.0625 14.71875 69.140625 
Q 20.953125 74.21875 31.78125 74.21875 
Q 42.671875 74.21875 48.875 69.140625 
Q 55.078125 64.0625 55.078125 55.328125 
Q 55.078125 49.078125 51.53125 44.71875 
Q 48 40.375 41.703125 38.8125 
Q 48.828125 37.15625 52.796875 32.3125 
Q 56.78125 27.484375 56.78125 20.515625 
Q 56.78125 9.90625 50.3125 4.234375 
Q 43.84375 -1.421875 31.78125 -1.421875 
Q 19.734375 -1.421875 13.25 4.234375 
Q 6.78125 9.90625 6.78125 20.515625 
Q 6.78125 27.484375 10.78125 32.3125 
Q 14.796875 37.15625 21.921875 38.8125 
M 18.3125 54.390625 
Q 18.3125 48.734375 21.84375 45.5625 
Q 25.390625 42.390625 31.78125 42.390625 
Q 38.140625 42.390625 41.71875 45.5625 
Q 45.3125 48.734375 45.3125 54.390625 
Q 45.3125 60.0625 41.71875 63.234375 
Q 38.140625 66.40625 31.78125 66.40625 
Q 25.390625 66.40625 21.84375 63.234375 
Q 18.3125 60.0625 18.3125 54.390625 
" id="DejaVuSans-38"/>
      </defs>
      <g transform="translate(325.604801 322.182437)scale(0.1 -0.1)">
       <use xlink:href="#DejaVuSans-30"/>
       <use x="63.623047" xlink:href="#DejaVuSans-2e"/>
       <use x="95.410156" xlink:href="#DejaVuSans-38"/>
      </g>
     </g>
    </g>
    <g id="xtick_6">
     <g id="line2d_6">
      <g>
       <use style="stroke:#000000;stroke-width:0.8;" x="398.487273" xlink:href="#m07c512df97" y="307.584"/>
      </g>
     </g>
     <g id="text_6">
      <!-- 1.0 -->
      <defs>
       <path d="M 12.40625 8.296875 
L 28.515625 8.296875 
L 28.515625 63.921875 
L 10.984375 60.40625 
L 10.984375 69.390625 
L 28.421875 72.90625 
L 38.28125 72.90625 
L 38.28125 8.296875 
L 54.390625 8.296875 
L 54.390625 0 
L 12.40625 0 
z
" id="DejaVuSans-31"/>
      </defs>
      <g transform="translate(390.53571 322.182437)scale(0.1 -0.1)">
       <use xlink:href="#DejaVuSans-31"/>
       <use x="63.623047" xlink:href="#DejaVuSans-2e"/>
       <use x="95.410156" xlink:href="#DejaVuSans-30"/>
      </g>
     </g>
    </g>
   </g>
   <g id="matplotlib.axis_2">
    <g id="ytick_1">
     <g id="line2d_7">
      <defs>
       <path d="M 0 0 
L -3.5 0 
" id="m5cf5fe94dd" style="stroke:#000000;stroke-width:0.8;"/>
      </defs>
      <g>
       <use style="stroke:#000000;stroke-width:0.8;" x="57.6" xlink:href="#m5cf5fe94dd" y="298.936822"/>
      </g>
     </g>
     <g id="text_7">
      <!-- 0.0 -->
      <g transform="translate(34.696875 302.736041)scale(0.1 -0.1)">
       <use xlink:href="#DejaVuSans-30"/>
       <use x="63.623047" xlink:href="#DejaVuSans-2e"/>
       <use x="95.410156" xlink:href="#DejaVuSans-30"/>
      </g>
     </g>
    </g>
    <g id="ytick_2">
     <g id="line2d_8">
      <g>
       <use style="stroke:#000000;stroke-width:0.8;" x="57.6" xlink:href="#m5cf5fe94dd" y="245.92886"/>
      </g>
     </g>
     <g id="text_8">
      <!-- 0.2 -->
      <g transform="translate(34.696875 249.728078)scale(0.1 -0.1)">
       <use xlink:href="#DejaVuSans-30"/>
       <use x="63.623047" xlink:href="#DejaVuSans-2e"/>
       <use x="95.410156" xlink:href="#DejaVuSans-32"/>
      </g>
     </g>
    </g>
    <g id="ytick_3">
     <g id="line2d_9">
      <g>
       <use style="stroke:#000000;stroke-width:0.8;" x="57.6" xlink:href="#m5cf5fe94dd" y="192.920897"/>
      </g>
     </g>
     <g id="text_9">
      <!-- 0.4 -->
      <g transform="translate(34.696875 196.720116)scale(0.1 -0.1)">
       <use xlink:href="#DejaVuSans-30"/>
       <use x="63.623047" xlink:href="#DejaVuSans-2e"/>
       <use x="95.410156" xlink:href="#DejaVuSans-34"/>
      </g>
     </g>
    </g>
    <g id="ytick_4">
     <g id="line2d_10">
      <g>
       <use style="stroke:#000000;stroke-width:0.8;" x="57.6" xlink:href="#m5cf5fe94dd" y="139.912935"/>
      </g>
     </g>
     <g id="text_10">
      <!-- 0.6 -->
      <g transform="translate(34.696875 143.712154)scale(0.1 -0.1)">
       <use xlink:href="#DejaVuSans-30"/>
       <use x="63.623047" xlink:href="#DejaVuSans-2e"/>
       <use x="95.410156" xlink:href="#DejaVuSans-36"/>
      </g>
     </g>
    </g>
    <g id="ytick_5">
     <g id="line2d_11">
      <g>
       <use style="stroke:#000000;stroke-width:0.8;" x="57.6" xlink:href="#m5cf5fe94dd" y="86.904973"/>
      </g>
     </g>
     <g id="text_11">
      <!-- 0.8 -->
      <g transform="translate(34.696875 90.704191)scale(0.1 -0.1)">
       <use xlink:href="#DejaVuSans-30"/>
       <use x="63.623047" xlink:href="#DejaVuSans-2e"/>
       <use x="95.410156" xlink:href="#DejaVuSans-38"/>
      </g>
     </g>
    </g>
   </g>
   <g id="line2d_12">
    <path clip-path="url(#p24ffa175d3)" d="M 73.832727 276.159963 
L 74.92584 265.806846 
L 76.018953 156.063931 
L 77.112066 249.241857 
L 78.205179 279.265885 
L 79.298292 237.853362 
L 80.391405 165.381671 
L 81.484518 270.983338 
L 82.577631 274.08934 
L 83.670744 182.981904 
L 84.763857 223.359129 
L 85.85697 278.230587 
L 86.950083 260.630353 
L 88.043196 141.569434 
L 89.136309 261.665599 
L 90.229421 280.30121 
L 91.322534 225.42962 
L 92.415647 177.805412 
L 93.50876 275.124638 
L 94.601873 276.159963 
L 95.694986 166.416916 
L 96.788099 234.74736 
L 97.881212 281.336535 
L 98.974325 260.630353 
L 100.067438 135.357431 
L 101.160551 265.806846 
L 102.253664 281.336535 
L 103.346777 224.394375 
L 104.43989 176.769901 
L 105.533003 278.230587 
L 106.626116 277.195288 
L 107.719229 166.416916 
L 108.812342 233.712115 
L 109.905455 282.371834 
L 110.998567 264.7716 
L 112.09168 127.074937 
L 113.184793 264.7716 
L 114.277906 284.442457 
L 115.371019 238.888872 
L 116.464132 157.099177 
L 117.557245 278.230587 
L 118.650358 282.371834 
L 119.743471 189.193907 
L 120.836584 214.04139 
L 121.929697 283.407132 
L 123.02281 275.124638 
L 124.115923 133.28694 
L 125.209036 252.347859 
L 126.302149 284.442457 
L 127.395262 261.665599 
L 128.488375 116.721951 
L 129.581488 272.018849 
L 130.674601 285.477782 
L 131.767713 236.818116 
L 132.860826 153.993175 
L 133.953939 280.30121 
L 135.047052 284.442457 
L 136.140165 197.476402 
L 137.233278 202.652894 
L 138.326391 284.442457 
L 139.419504 281.336535 
L 140.512617 148.816682 
L 141.60573 238.888872 
L 142.698843 287.548379 
L 143.791956 277.195288 
L 144.885069 109.474703 
L 145.978182 259.594842 
L 147.071295 287.548379 
L 148.164408 272.018849 
L 149.257521 89.803978 
L 150.350634 270.983338 
L 151.443747 288.583704 
L 152.53686 267.877337 
L 153.629972 85.662466 
L 154.723085 277.195288 
L 155.816198 289.619029 
L 156.909311 267.877337 
L 158.002424 76.344726 
L 159.095537 278.230587 
L 160.18865 290.654328 
L 161.281763 277.195288 
L 162.374876 56.674002 
L 163.467989 276.159963 
L 164.561102 290.654328 
L 165.654215 289.619029 
L 166.747328 116.721951 
L 167.840441 251.312348 
L 168.933554 291.689626 
L 170.026667 294.795575 
L 171.11978 294.795575 
L 172.212893 190.229153 
L 173.306006 241.994609 
L 174.399118 269.948093 
L 175.492231 225.42962 
L 176.585344 217.147126 
L 177.678457 263.736355 
L 178.77157 250.277103 
L 179.864683 200.582138 
L 180.957796 249.241857 
L 182.050909 262.700844 
L 183.144022 218.182372 
L 184.237135 221.288373 
L 185.330248 263.736355 
L 186.423361 248.206612 
L 187.516474 196.440891 
L 188.609587 251.312348 
L 189.7027 264.7716 
L 190.795813 213.005879 
L 191.888926 222.323884 
L 192.982039 265.806846 
L 194.075152 247.171366 
L 195.168264 192.299644 
L 196.261377 254.41835 
L 197.35449 266.842091 
L 198.447603 210.935388 
L 199.540716 222.323884 
L 200.633829 266.842091 
L 201.726942 248.206612 
L 202.820055 186.087906 
L 203.913168 256.489106 
L 205.006281 267.877337 
L 206.099394 208.864632 
L 207.192507 220.253128 
L 208.28562 269.948093 
L 209.378733 250.277103 
L 210.471846 180.911413 
L 211.564959 256.489106 
L 212.658072 269.948093 
L 213.751185 209.899878 
L 214.844298 214.04139 
L 215.93741 272.018849 
L 217.030523 254.41835 
L 218.123636 175.734656 
L 219.216749 255.45386 
L 220.309862 273.054041 
L 221.402975 216.111881 
L 222.496088 205.758896 
L 223.589201 272.018849 
L 224.682314 261.665599 
L 225.775427 171.593409 
L 226.86854 251.312348 
L 227.961653 275.124638 
L 229.054766 224.394375 
L 230.147879 193.33489 
L 231.240992 270.983338 
L 232.334105 266.842091 
L 233.427218 173.664165 
L 234.520331 244.065365 
L 235.613444 277.195288 
L 236.706556 239.924118 
L 237.799669 174.69941 
L 238.892782 269.948093 
L 239.985895 273.054041 
L 241.079008 186.087906 
L 242.172121 228.535622 
L 243.265234 278.230587 
L 244.358347 254.41835 
L 245.45146 159.169668 
L 246.544573 263.736355 
L 247.637686 276.159963 
L 248.730799 209.899878 
L 249.823912 204.723385 
L 250.917025 277.195288 
L 252.010138 267.877337 
L 253.103251 157.099177 
L 254.196364 253.383104 
L 255.289477 279.265885 
L 256.38259 237.853362 
L 257.475702 169.522918 
L 258.568815 274.08934 
L 259.661928 276.159963 
L 260.755041 180.911413 
L 262.941267 280.30121 
L 264.03438 261.665599 
L 265.127493 143.639925 
L 266.220606 263.736355 
L 267.313719 280.30121 
L 268.406832 224.394375 
L 269.499945 182.981904 
L 270.593058 278.230587 
L 271.686171 275.124638 
L 272.779284 163.310915 
L 273.872397 238.888872 
L 274.96551 282.371834 
L 276.058623 259.594842 
L 277.151736 137.428187 
L 278.244848 267.877337 
L 279.337961 282.371834 
L 280.431074 221.288373 
L 281.524187 182.981904 
L 282.6173 280.30121 
L 283.710413 277.195288 
L 284.803526 162.275669 
L 285.896639 237.853362 
L 286.989752 283.407132 
L 288.082865 265.806846 
L 289.175978 129.145693 
L 290.269091 267.877337 
L 291.362204 284.442457 
L 292.455317 234.74736 
L 293.54843 164.346425 
L 294.641543 279.265885 
L 295.734656 281.336535 
L 296.827769 181.946659 
L 297.920882 221.288373 
L 299.013994 284.442457 
L 300.107107 274.08934 
L 301.20022 129.145693 
L 302.293333 257.524351 
L 303.386446 285.477782 
L 304.479559 259.594842 
L 305.572672 122.933955 
L 306.665785 274.08934 
L 307.758898 286.513081 
L 308.852011 231.641624 
L 309.945124 165.381671 
L 311.038237 282.371834 
L 312.13135 284.442457 
L 313.224463 188.158397 
L 314.317576 215.076635 
L 315.410689 286.513081 
L 316.503802 281.336535 
L 317.596915 137.428187 
L 318.690028 248.206612 
L 319.78314 287.548379 
L 320.876253 275.124638 
L 321.969366 103.262965 
L 323.062479 265.806846 
L 324.155592 289.619029 
L 325.248705 267.877337 
L 326.341818 94.980471 
L 327.434931 275.124638 
L 328.528044 289.619029 
L 329.621157 261.665599 
L 330.71427 100.156963 
L 331.807383 280.30121 
L 332.900496 290.654328 
L 333.993609 260.630353 
L 335.086722 97.050962 
L 336.179835 282.371834 
L 337.272948 290.654328 
L 338.366061 268.912847 
L 339.459174 71.168234 
L 340.552287 283.407132 
L 341.645399 292.724951 
L 342.738512 284.442457 
L 343.831625 53.568 
L 344.924738 273.054041 
L 346.017851 292.724951 
L 347.110964 294.795575 
L 348.204077 273.054041 
L 349.29719 57.709247 
L 350.390303 286.513081 
L 351.483416 291.689626 
L 352.576529 280.30121 
L 353.669642 90.839224 
L 354.762755 268.912847 
L 355.855868 288.583704 
L 356.948981 259.594842 
L 358.042094 123.9692 
L 359.135207 278.230587 
L 360.22832 287.548379 
L 361.321433 222.323884 
L 362.414545 180.911413 
L 363.507658 284.442457 
L 364.600771 284.442457 
L 365.693884 172.628919 
L 367.88011 287.548379 
L 368.973223 278.230587 
L 370.066336 123.9692 
L 371.159449 258.559597 
L 372.252562 289.619029 
L 373.345675 269.948093 
L 374.438788 104.29821 
L 375.531901 273.054041 
L 376.625014 288.583704 
L 377.718127 256.489106 
L 378.81124 116.721951 
L 379.904353 281.336535 
L 380.997466 288.583704 
L 382.090579 240.959363 
L 383.183691 144.675435 
L 384.276804 284.442457 
L 385.369917 289.619029 
L 387.556143 164.346425 
L 388.649256 287.548379 
L 389.742369 291.689626 
L 390.835482 230.606378 
L 391.928595 163.310915 
L 393.021708 288.583704 
L 394.114821 292.724951 
L 395.207934 249.241857 
L 396.301047 120.863198 
L 397.39416 287.548379 
L 398.487273 292.724951 
L 398.487273 292.724951 
" style="fill:none;stroke:#1f77b4;stroke-linecap:square;stroke-width:1.5;"/>
   </g>
   <g id="line2d_13">
    <path clip-path="url(#p24ffa175d3)" d="M 73.832727 274.421866 
L 74.92584 266.996069 
L 76.018953 156.761662 
L 77.112066 248.009806 
L 78.205179 280.051985 
L 79.298292 240.289743 
L 80.391405 171.092518 
L 81.484518 269.455983 
L 82.577631 276.776101 
L 83.670744 189.331159 
L 84.763857 226.205058 
L 85.85697 279.725245 
L 86.950083 268.640107 
L 88.043196 144.1131 
L 89.136309 258.946814 
L 90.229421 279.267959 
L 91.322534 227.186644 
L 92.415647 184.473616 
L 93.50876 275.285955 
L 94.601873 275.997363 
L 95.694986 161.545222 
L 96.788099 234.396431 
L 97.881212 280.903144 
L 98.974325 262.180011 
L 100.067438 134.648922 
L 101.160551 263.791901 
L 102.253664 281.941168 
L 104.43989 182.568083 
L 105.533003 277.735124 
L 106.626116 279.05223 
L 107.719229 170.930944 
L 108.812342 232.874502 
L 109.905455 282.951759 
L 110.998567 266.430519 
L 112.09168 129.265761 
L 113.184793 263.406014 
L 114.277906 283.571971 
L 115.371019 239.860727 
L 116.464132 156.256412 
L 117.557245 276.452124 
L 118.650358 279.625402 
L 119.743471 190.127877 
L 120.836584 215.429255 
L 121.929697 282.92142 
L 123.02281 274.01491 
L 124.115923 131.97074 
L 125.209036 249.071987 
L 126.302149 284.616679 
L 127.395262 262.955339 
L 128.488375 120.190164 
L 129.581488 271.864229 
L 130.674601 284.454094 
L 131.767713 242.389485 
L 132.860826 154.221771 
L 133.953939 280.301592 
L 135.047052 283.87228 
L 136.140165 201.756157 
L 137.233278 205.909781 
L 138.326391 284.558544 
L 139.419504 278.400921 
L 140.512617 152.779382 
L 141.60573 236.328983 
L 142.698843 286.403154 
L 143.791956 270.088587 
L 144.885069 116.794844 
L 145.978182 257.711588 
L 147.071295 286.331691 
L 148.164408 263.762963 
L 149.257521 103.346946 
L 150.350634 273.59061 
L 151.443747 287.57504 
L 152.53686 259.051269 
L 153.629972 98.88465 
L 154.723085 279.642857 
L 155.816198 287.742856 
L 156.909311 264.156496 
L 158.002424 93.44929 
L 159.095537 283.775688 
L 160.18865 289.290803 
L 161.281763 264.659705 
L 162.374876 85.652564 
L 163.467989 283.522649 
L 164.561102 290.607622 
L 165.654215 270.855294 
L 166.747328 149.409452 
L 167.840441 240.972233 
L 168.933554 290.036337 
L 170.026667 278.482394 
L 171.11978 269.502408 
L 172.212893 199.549849 
L 173.306006 233.294168 
L 174.399118 271.316982 
L 175.492231 223.701465 
L 176.585344 213.837849 
L 177.678457 262.394394 
L 178.77157 254.897772 
L 179.864683 199.576071 
L 180.957796 248.340809 
L 182.050909 265.575175 
L 183.144022 220.503872 
L 184.237135 223.466796 
L 185.330248 263.395795 
L 186.423361 252.869878 
L 187.516474 195.949196 
L 188.609587 249.166555 
L 189.7027 267.164203 
L 190.795813 215.033119 
L 191.888926 224.574911 
L 192.982039 265.974104 
L 194.075152 252.355858 
L 195.168264 192.805308 
L 196.261377 253.246079 
L 197.35449 268.425821 
L 198.447603 208.733364 
L 199.540716 222.797993 
L 200.633829 266.469307 
L 201.726942 255.513124 
L 202.820055 188.072149 
L 203.913168 253.316077 
L 205.006281 267.972795 
L 206.099394 210.425876 
L 207.192507 222.518203 
L 208.28562 269.726101 
L 209.378733 253.068925 
L 210.471846 181.155547 
L 211.564959 253.024034 
L 212.658072 269.544663 
L 213.751185 209.483002 
L 214.844298 217.647118 
L 215.93741 270.570572 
L 217.030523 259.652713 
L 218.123636 174.857461 
L 219.216749 251.920661 
L 220.309862 273.105965 
L 221.402975 217.859272 
L 222.496088 209.383437 
L 223.589201 272.177117 
L 224.682314 265.151254 
L 225.775427 165.530397 
L 226.86854 248.274632 
L 227.961653 275.094564 
L 229.054766 224.817749 
L 230.147879 197.970213 
L 231.240992 268.722912 
L 232.334105 270.235339 
L 233.427218 170.351171 
L 234.520331 242.185713 
L 235.613444 276.752786 
L 236.706556 242.663213 
L 237.799669 175.053957 
L 238.892782 267.214878 
L 239.985895 274.892921 
L 241.079008 184.58909 
L 243.265234 277.368576 
L 244.358347 256.933783 
L 245.45146 156.021418 
L 246.544573 261.772002 
L 247.637686 275.214664 
L 248.730799 215.757867 
L 249.823912 207.49394 
L 250.917025 276.331539 
L 252.010138 270.356255 
L 253.103251 147.438839 
L 254.196364 249.186553 
L 255.289477 277.957308 
L 256.38259 242.564734 
L 257.475702 170.792482 
L 258.568815 270.859526 
L 259.661928 275.814304 
L 260.755041 176.51871 
L 262.941267 280.22853 
L 264.03438 264.745544 
L 265.127493 139.023746 
L 266.220606 261.204559 
L 267.313719 279.649724 
L 269.499945 185.388654 
L 270.593058 276.556095 
L 271.686171 276.551519 
L 272.779284 162.065812 
L 273.872397 237.566379 
L 274.96551 281.761754 
L 276.058623 259.781575 
L 277.151736 133.494436 
L 278.244848 266.287727 
L 279.337961 281.191134 
L 280.431074 222.258855 
L 281.524187 186.162448 
L 282.6173 278.830813 
L 283.710413 276.934594 
L 284.803526 157.932684 
L 285.896639 235.561516 
L 286.989752 283.8545 
L 288.082865 264.224969 
L 289.175978 121.892256 
L 290.269091 265.252799 
L 291.362204 282.295232 
L 292.455317 230.771028 
L 293.54843 163.642827 
L 294.641543 277.826951 
L 295.734656 282.006521 
L 296.827769 187.469707 
L 297.920882 221.147766 
L 299.013994 284.233465 
L 300.107107 274.376719 
L 301.20022 129.616218 
L 302.293333 254.404758 
L 303.386446 284.145383 
L 304.479559 259.536154 
L 305.572672 120.387141 
L 306.665785 274.6951 
L 307.758898 285.056611 
L 308.852011 229.958081 
L 309.945124 163.225027 
L 311.038237 281.773706 
L 312.13135 282.148078 
L 313.224463 187.628401 
L 314.317576 213.617378 
L 315.410689 285.617164 
L 316.503802 276.949327 
L 317.596915 137.07631 
L 318.690028 242.94789 
L 319.78314 286.198021 
L 320.876253 271.168718 
L 321.969366 110.307835 
L 323.062479 265.636687 
L 324.155592 286.884847 
L 325.248705 260.72263 
L 326.341818 102.000664 
L 327.434931 278.927831 
L 328.528044 288.72686 
L 329.621157 258.993257 
L 330.71427 102.424027 
L 331.807383 282.861647 
L 332.900496 288.031542 
L 333.993609 250.555134 
L 335.086722 99.625747 
L 336.179835 285.034419 
L 337.272948 289.009785 
L 338.366061 260.705129 
L 339.459174 85.732898 
L 340.552287 287.973855 
L 341.645399 290.40064 
L 342.738512 264.700327 
L 343.831625 92.755126 
L 344.924738 275.281383 
L 346.017851 290.460631 
L 347.110964 272.550094 
L 348.204077 263.63471 
L 349.29719 65.913038 
L 350.390303 292.622281 
L 351.483416 292.159117 
L 352.576529 266.471052 
L 353.669642 88.799044 
L 354.762755 272.431283 
L 355.855868 287.782726 
L 356.948981 256.39265 
L 358.042094 111.929067 
L 359.135207 278.188251 
L 360.22832 286.180404 
L 361.321433 220.277159 
L 362.414545 176.879582 
L 363.507658 283.392067 
L 364.600771 281.47197 
L 365.693884 170.264629 
L 366.786997 224.582385 
L 367.88011 285.715049 
L 368.973223 273.750727 
L 370.066336 119.837851 
L 371.159449 253.79137 
L 372.252562 287.500475 
L 373.345675 262.86683 
L 374.438788 101.687758 
L 375.531901 273.918546 
L 376.625014 287.49422 
L 377.718127 255.466939 
L 378.81124 113.410365 
L 379.904353 282.392869 
L 380.997466 287.10998 
L 382.090579 245.585878 
L 383.183691 138.306463 
L 384.276804 284.368853 
L 385.369917 287.714202 
L 386.46303 232.854093 
L 387.556143 157.086447 
L 388.649256 286.551968 
L 389.742369 285.545209 
L 390.835482 226.990327 
L 391.928595 151.534844 
L 393.021708 287.534276 
L 394.114821 286.545487 
L 395.207934 245.430271 
L 396.301047 110.373598 
L 397.39416 288.260452 
L 398.487273 289.276484 
L 398.487273 289.276484 
" style="fill:none;stroke:#ff7f0e;stroke-linecap:square;stroke-width:1.5;"/>
   </g>
   <g id="line2d_14">
    <path clip-path="url(#p24ffa175d3)" d="M 73.832727 277.241001 
L 74.92584 272.833218 
L 76.018953 185.940883 
L 77.112066 261.662266 
L 78.205179 282.539635 
L 79.298292 243.953144 
L 80.391405 174.780503 
L 81.484518 278.101101 
L 82.577631 282.404776 
L 83.670744 208.508863 
L 84.763857 231.688422 
L 85.85697 282.634029 
L 86.950083 271.29147 
L 88.043196 168.306539 
L 89.136309 274.841248 
L 90.229421 284.101887 
L 91.322534 230.618893 
L 92.415647 189.545961 
L 93.50876 278.639797 
L 94.601873 280.589612 
L 95.694986 195.241812 
L 97.881212 284.023536 
L 98.974325 264.89741 
L 100.067438 156.416066 
L 101.160551 277.856942 
L 102.253664 285.722752 
L 103.346777 233.393763 
L 104.43989 187.849517 
L 105.533003 280.501137 
L 106.626116 282.101564 
L 107.719229 196.329047 
L 108.812342 239.127695 
L 109.905455 286.317134 
L 110.998567 269.551571 
L 112.09168 158.494763 
L 113.184793 277.875251 
L 114.277906 286.393332 
L 115.371019 242.693571 
L 116.464132 160.087746 
L 117.557245 280.703584 
L 118.650358 284.178476 
L 119.743471 203.056009 
L 120.836584 225.995354 
L 121.929697 286.630246 
L 123.02281 277.046838 
L 124.115923 173.435322 
L 125.209036 259.803026 
L 126.302149 287.569491 
L 127.395262 267.499376 
L 128.488375 140.57478 
L 129.581488 282.240841 
L 130.674601 288.005026 
L 131.767713 246.39706 
L 132.860826 158.697953 
L 133.953939 283.529816 
L 135.047052 286.558037 
L 136.140165 206.447313 
L 137.233278 218.642198 
L 138.326391 288.561199 
L 139.419504 281.66752 
L 140.512617 185.55353 
L 141.60573 246.090355 
L 142.698843 290.359839 
L 143.791956 274.675253 
L 144.885069 162.686462 
L 145.978182 271.260731 
L 147.071295 289.220454 
L 148.164408 269.392971 
L 149.257521 142.401975 
L 150.350634 283.880869 
L 151.443747 290.124317 
L 152.53686 265.459403 
L 153.629972 126.238714 
L 154.723085 286.406642 
L 155.816198 290.601855 
L 156.909311 272.082532 
L 158.002424 120.082173 
L 159.095537 288.114229 
L 160.18865 292.112246 
L 161.281763 272.897634 
L 162.374876 130.520492 
L 163.467989 288.882837 
L 164.561102 293.481384 
L 165.654215 279.504114 
L 166.747328 179.918686 
L 167.840441 260.213112 
L 168.933554 295.00565 
L 170.026667 285.839066 
L 171.11978 280.258548 
L 172.212893 208.678785 
L 173.306006 243.507913 
L 174.399118 274.395968 
L 175.492231 241.07748 
L 176.585344 217.389227 
L 177.678457 269.881129 
L 178.77157 264.304086 
L 179.864683 213.676143 
L 180.957796 260.280723 
L 182.050909 273.286267 
L 183.144022 235.514371 
L 184.237135 227.491753 
L 185.330248 271.115846 
L 186.423361 262.106965 
L 187.516474 210.211478 
L 188.609587 262.560256 
L 189.7027 274.523332 
L 190.795813 231.988288 
L 191.888926 228.0719 
L 192.982039 272.62596 
L 194.075152 261.261141 
L 195.168264 205.593178 
L 196.261377 266.097769 
L 197.35449 275.677969 
L 198.447603 227.601075 
L 199.540716 226.188711 
L 200.633829 272.790947 
L 201.726942 262.579416 
L 202.820055 201.313029 
L 203.913168 267.141686 
L 205.006281 276.282498 
L 206.099394 226.936172 
L 207.192507 225.893927 
L 208.28562 274.409432 
L 209.378733 261.962323 
L 210.471846 194.828427 
L 211.564959 267.503284 
L 212.658072 277.493927 
L 213.751185 226.652198 
L 214.844298 221.281706 
L 215.93741 275.046711 
L 217.030523 266.554629 
L 218.123636 191.799156 
L 219.216749 266.571543 
L 220.309862 279.058504 
L 221.402975 230.460994 
L 222.496088 213.512141 
L 223.589201 275.786704 
L 224.682314 271.06252 
L 225.775427 191.104448 
L 226.86854 261.912196 
L 227.961653 279.573595 
L 229.054766 235.565677 
L 230.147879 202.213367 
L 231.240992 275.475097 
L 232.334105 275.736086 
L 233.427218 198.39856 
L 234.520331 251.487829 
L 235.613444 279.473398 
L 236.706556 247.267564 
L 237.799669 178.545563 
L 238.892782 276.047403 
L 239.985895 280.452389 
L 241.079008 207.559519 
L 242.172121 233.195813 
L 243.265234 279.770892 
L 244.358347 261.114579 
L 245.45146 170.211718 
L 246.544573 274.653968 
L 247.637686 282.047704 
L 248.730799 223.676387 
L 249.823912 212.626038 
L 250.917025 278.905918 
L 252.010138 273.98758 
L 253.103251 180.864595 
L 254.196364 262.342347 
L 255.289477 281.126608 
L 256.38259 245.17497 
L 257.475702 174.537983 
L 258.568815 277.89261 
L 259.661928 281.335255 
L 260.755041 201.804405 
L 261.848154 233.204788 
L 262.941267 283.068991 
L 264.03438 267.507853 
L 265.127493 163.760137 
L 266.220606 275.421523 
L 267.313719 284.20767 
L 268.406832 233.139907 
L 269.499945 190.424777 
L 270.593058 279.304486 
L 271.686171 280.093069 
L 272.779284 192.427494 
L 273.872397 242.100222 
L 274.96551 284.784709 
L 276.058623 262.534766 
L 277.151736 152.478196 
L 278.244848 278.563108 
L 279.337961 285.659316 
L 280.431074 225.441414 
L 281.524187 192.064748 
L 282.6173 281.54113 
L 283.710413 280.306882 
L 284.803526 189.808256 
L 286.989752 287.096805 
L 288.082865 267.540619 
L 289.175978 151.70542 
L 290.269091 278.323246 
L 291.362204 285.915323 
L 292.455317 233.598849 
L 293.54843 168.136204 
L 294.641543 281.080537 
L 295.734656 284.635829 
L 296.827769 201.067377 
L 297.920882 230.970751 
L 299.013994 287.872883 
L 300.107107 277.884971 
L 301.20022 170.280457 
L 302.293333 267.206464 
L 303.386446 286.682863 
L 304.479559 264.127518 
L 305.572672 135.531482 
L 306.665785 282.652921 
L 307.758898 288.244661 
L 308.852011 233.17887 
L 309.945124 168.46922 
L 311.038237 284.82673 
L 312.13135 284.955477 
L 313.224463 198.417781 
L 314.317576 227.113888 
L 315.410689 289.696646 
L 316.503802 280.788085 
L 317.596915 177.585646 
L 318.690028 249.78727 
L 319.78314 289.793414 
L 320.876253 276.720687 
L 321.969366 155.362451 
L 323.062479 278.428935 
L 324.155592 289.321647 
L 325.248705 266.749939 
L 326.341818 131.729476 
L 327.434931 285.590108 
L 328.528044 291.077358 
L 329.621157 266.058341 
L 330.71427 116.327493 
L 331.807383 286.840435 
L 332.900496 290.870658 
L 333.993609 257.151271 
L 335.086722 108.787173 
L 336.179835 288.690213 
L 337.272948 292.005616 
L 338.366061 269.038146 
L 339.459174 109.38217 
L 340.552287 291.246001 
L 341.645399 293.43068 
L 342.738512 273.831121 
L 343.831625 149.137768 
L 344.924738 284.171194 
L 346.017851 293.611593 
L 347.110964 281.203318 
L 348.204077 274.128252 
L 349.29719 88.02 
L 350.390303 295.488 
L 351.483416 295.4235 
L 352.576529 276.063552 
L 353.669642 140.572775 
L 354.762755 281.6123 
L 355.855868 290.302994 
L 356.948981 262.177677 
L 358.042094 124.05242 
L 359.135207 283.470788 
L 360.22832 288.777243 
L 361.321433 224.065155 
L 362.414545 183.813905 
L 363.507658 286.601201 
L 364.600771 284.498248 
L 365.693884 191.504642 
L 366.786997 236.351282 
L 367.88011 289.655294 
L 368.973223 278.131924 
L 370.066336 165.683831 
L 371.159449 265.056187 
L 372.252562 290.230848 
L 373.345675 268.61208 
L 374.438788 135.922526 
L 375.531901 283.121029 
L 376.625014 289.765419 
L 377.718127 261.666486 
L 378.81124 118.463347 
L 379.904353 286.183145 
L 380.997466 289.967908 
L 382.090579 251.495739 
L 383.183691 142.985306 
L 384.276804 287.688148 
L 385.369917 290.735993 
L 386.46303 237.71358 
L 387.556143 164.568124 
L 388.649256 290.064816 
L 389.742369 289.098512 
L 390.835482 232.303409 
L 391.928595 160.449754 
L 393.021708 291.201643 
L 394.114821 290.296524 
L 395.207934 252.750852 
L 396.301047 118.593954 
L 397.39416 291.766254 
L 398.487273 292.678536 
L 398.487273 292.678536 
" style="fill:none;stroke:#2ca02c;stroke-linecap:square;stroke-width:1.5;"/>
   </g>
   <g id="line2d_15">
    <path clip-path="url(#p24ffa175d3)" d="M 73.832727 272.504064 
L 74.92584 263.947104 
L 76.018953 149.973445 
L 77.112066 245.444786 
L 78.205179 278.520573 
L 79.298292 238.063287 
L 80.391405 158.95069 
L 81.484518 267.248357 
L 82.577631 274.422533 
L 83.670744 185.249999 
L 84.763857 215.151665 
L 85.85697 276.135447 
L 86.950083 261.055642 
L 88.043196 135.159365 
L 89.136309 255.799644 
L 90.229421 276.966263 
L 91.322534 225.025502 
L 92.415647 160.779239 
L 93.50876 273.488894 
L 94.601873 274.077033 
L 95.694986 155.441138 
L 96.788099 230.785673 
L 97.881212 277.102939 
L 98.974325 253.322332 
L 100.067438 126.860199 
L 101.160551 260.806272 
L 102.253664 280.249436 
L 103.346777 226.498761 
L 104.43989 154.392024 
L 105.533003 275.805804 
L 106.626116 277.405556 
L 107.719229 165.79492 
L 108.812342 224.882499 
L 109.905455 277.445585 
L 110.998567 254.527205 
L 112.09168 122.234781 
L 113.184793 259.995128 
L 114.277906 282.237322 
L 115.371019 228.89959 
L 116.464132 138.999943 
L 117.557245 274.32512 
L 118.650358 277.917733 
L 119.743471 185.178657 
L 120.836584 179.632163 
L 121.929697 275.933261 
L 123.02281 264.713399 
L 124.115923 125.332903 
L 125.209036 246.248538 
L 126.302149 281.380296 
L 127.395262 242.932341 
L 128.488375 113.756824 
L 129.581488 269.0986 
L 130.674601 283.071109 
L 131.767713 223.933757 
L 132.860826 130.633287 
L 133.953939 278.074964 
L 135.047052 282.200932 
L 136.140165 198.280954 
L 137.233278 154.728741 
L 138.326391 276.214031 
L 139.419504 269.363492 
L 140.512617 145.313022 
L 141.60573 226.06998 
L 142.698843 278.0354 
L 143.791956 251.272163 
L 144.885069 109.213132 
L 145.978182 253.397825 
L 147.071295 283.302634 
L 148.164408 237.794297 
L 149.257521 96.808557 
L 150.350634 268.157926 
L 151.443747 285.871394 
L 152.53686 228.426013 
L 153.629972 93.322424 
L 154.723085 276.964868 
L 155.816198 285.913739 
L 156.909311 225.23689 
L 158.002424 87.872517 
L 159.095537 281.601463 
L 160.18865 287.186622 
L 161.281763 224.229572 
L 162.374876 77.577858 
L 163.467989 276.852007 
L 164.561102 288.029312 
L 165.654215 227.964704 
L 166.747328 136.906822 
L 167.840441 213.245803 
L 168.933554 275.317645 
L 172.212893 189.35457 
L 173.306006 210.240185 
L 174.399118 269.203477 
L 175.492231 219.327905 
L 176.585344 206.05865 
L 177.678457 259.991321 
L 178.77157 250.739643 
L 179.864683 192.171352 
L 180.957796 245.973143 
L 182.050909 262.450489 
L 183.144022 217.037037 
L 184.237135 218.941692 
L 185.330248 260.964221 
L 186.423361 248.929023 
L 187.516474 188.289806 
L 188.609587 246.636211 
L 189.7027 264.003391 
L 190.795813 211.307374 
L 191.888926 220.067703 
L 192.982039 263.690278 
L 194.075152 248.49733 
L 195.168264 184.386536 
L 196.261377 250.821646 
L 197.35449 265.183967 
L 198.447603 204.69577 
L 199.540716 218.43513 
L 200.633829 264.258012 
L 201.726942 252.130771 
L 202.820055 178.976322 
L 203.913168 250.79301 
L 205.006281 264.095328 
L 206.099394 206.778125 
L 207.192507 217.745723 
L 208.28562 267.839948 
L 209.378733 248.940161 
L 210.471846 172.129419 
L 211.564959 250.415726 
L 212.658072 265.779983 
L 213.751185 205.679946 
L 214.844298 211.571097 
L 215.93741 268.706931 
L 217.030523 255.933329 
L 218.123636 165.17556 
L 219.216749 249.437908 
L 220.309862 270.098606 
L 221.402975 214.592746 
L 222.496088 199.752626 
L 223.589201 270.580425 
L 224.682314 262.069809 
L 225.775427 157.911851 
L 226.86854 246.005083 
L 227.961653 272.694304 
L 229.054766 221.360096 
L 230.147879 186.440033 
L 231.240992 266.728875 
L 232.334105 267.318907 
L 233.427218 163.920095 
L 234.520331 240.261655 
L 235.613444 275.131676 
L 236.706556 240.167912 
L 237.799669 164.648701 
L 238.892782 265.110973 
L 239.985895 272.221892 
L 241.079008 180.022508 
L 242.172121 225.161709 
L 243.265234 275.282448 
L 244.358347 254.343835 
L 245.45146 146.405255 
L 246.544573 259.40765 
L 247.637686 271.97024 
L 248.730799 213.101126 
L 249.823912 188.680495 
L 250.917025 274.450454 
L 252.010138 268.16425 
L 253.103251 140.681471 
L 254.196364 246.858675 
L 255.289477 276.026002 
L 256.38259 238.61401 
L 257.475702 158.644876 
L 258.568815 268.836269 
L 259.661928 273.253631 
L 260.755041 171.51744 
L 261.848154 219.270126 
L 262.941267 276.540943 
L 264.03438 257.270629 
L 265.127493 130.939684 
L 266.220606 258.419672 
L 267.313719 277.438412 
L 268.406832 228.134294 
L 269.499945 161.009136 
L 270.593058 274.783326 
L 271.686171 274.825812 
L 272.779284 156.589447 
L 273.872397 235.620826 
L 274.96551 278.163203 
L 276.058623 250.271339 
L 277.151736 125.837044 
L 278.244848 263.680644 
L 279.337961 279.288699 
L 281.524187 155.442504 
L 282.6173 276.671722 
L 283.710413 275.058467 
L 284.803526 152.016898 
L 285.896639 231.792757 
L 286.989752 278.555095 
L 288.082865 251.531128 
L 289.175978 115.544024 
L 290.269091 262.289489 
L 291.362204 280.605074 
L 292.455317 224.238278 
L 293.54843 141.042744 
L 294.641543 275.767336 
L 295.734656 280.439444 
L 296.827769 182.906728 
L 297.920882 192.726256 
L 299.013994 276.797037 
L 300.107107 261.611733 
L 301.20022 123.142768 
L 302.293333 251.043919 
L 303.386446 282.075379 
L 304.479559 238.596605 
L 305.572672 114.241815 
L 306.665785 272.663276 
L 307.758898 283.901417 
L 308.852011 218.504747 
L 309.945124 132.190859 
L 311.038237 279.12209 
L 312.13135 279.825999 
L 313.224463 182.328888 
L 314.317576 167.458513 
L 315.410689 275.950216 
L 316.503802 264.183347 
L 317.596915 128.668145 
L 318.690028 240.543481 
L 319.78314 279.442321 
L 320.876253 246.610023 
L 321.969366 103.264361 
L 323.062479 259.575207 
L 324.155592 284.955153 
L 325.248705 232.107541 
L 326.341818 96.337261 
L 327.434931 276.012741 
L 328.528044 287.159212 
L 329.621157 224.849236 
L 330.71427 97.937764 
L 331.807383 281.558706 
L 332.900496 286.247594 
L 333.993609 218.063832 
L 335.086722 95.325022 
L 336.179835 283.754015 
L 337.272948 286.892217 
L 338.366061 219.799939 
L 339.459174 79.899822 
L 340.552287 286.292641 
L 341.645399 287.856768 
L 342.738512 219.677426 
L 343.831625 81.376202 
L 344.924738 264.548661 
L 346.017851 286.287669 
L 347.110964 230.017301 
L 348.204077 210.608552 
L 349.29719 58.092622 
L 350.390303 289.057681 
L 351.483416 289.267098 
L 352.576529 218.261102 
L 353.669642 79.542 
L 354.762755 265.239326 
L 355.855868 285.889306 
L 356.948981 229.019289 
L 358.042094 107.150765 
L 359.135207 276.658031 
L 360.22832 284.999431 
L 362.414545 135.888293 
L 363.507658 278.312934 
L 364.600771 275.980501 
L 365.693884 162.957749 
L 366.786997 194.417459 
L 367.88011 276.387069 
L 368.973223 256.870942 
L 370.066336 112.102207 
L 371.159449 250.593704 
L 372.252562 283.575739 
L 373.345675 237.379095 
L 374.438788 95.65359 
L 375.531901 270.488886 
L 376.625014 286.202065 
L 377.718127 225.716226 
L 378.81124 109.295765 
L 379.904353 281.123869 
L 380.997466 285.436939 
L 382.090579 216.374952 
L 383.183691 116.179532 
L 384.276804 281.688953 
L 385.369917 283.841656 
L 386.46303 209.545417 
L 387.556143 113.486976 
L 388.649256 279.765197 
L 389.742369 279.701977 
L 390.835482 204.650241 
L 391.928595 106.013514 
L 393.021708 279.544648 
L 394.114821 279.914095 
L 395.207934 208.615452 
L 396.301047 98.606469 
L 397.39416 284.596182 
L 398.487273 285.974753 
L 398.487273 285.974753 
" style="fill:none;stroke:#d62728;stroke-linecap:square;stroke-width:1.5;"/>
   </g>
   <g id="patch_3">
    <path d="M 57.6 307.584 
L 57.6 41.472 
" style="fill:none;stroke:#000000;stroke-linecap:square;stroke-linejoin:miter;stroke-width:0.8;"/>
   </g>
   <g id="patch_4">
    <path d="M 414.72 307.584 
L 414.72 41.472 
" style="fill:none;stroke:#000000;stroke-linecap:square;stroke-linejoin:miter;stroke-width:0.8;"/>
   </g>
   <g id="patch_5">
    <path d="M 57.6 307.584 
L 414.72 307.584 
" style="fill:none;stroke:#000000;stroke-linecap:square;stroke-linejoin:miter;stroke-width:0.8;"/>
   </g>
   <g id="patch_6">
    <path d="M 57.6 41.472 
L 414.72 41.472 
" style="fill:none;stroke:#000000;stroke-linecap:square;stroke-linejoin:miter;stroke-width:0.8;"/>
   </g>
   <g id="text_12">
    <!-- Plot of Train Data vs MCMC Uncertainty  -->
    <defs>
     <path d="M 19.671875 64.796875 
L 19.671875 37.40625 
L 32.078125 37.40625 
Q 38.96875 37.40625 42.71875 40.96875 
Q 46.484375 44.53125 46.484375 51.125 
Q 46.484375 57.671875 42.71875 61.234375 
Q 38.96875 64.796875 32.078125 64.796875 
z
M 9.8125 72.90625 
L 32.078125 72.90625 
Q 44.34375 72.90625 50.609375 67.359375 
Q 56.890625 61.8125 56.890625 51.125 
Q 56.890625 40.328125 50.609375 34.8125 
Q 44.34375 29.296875 32.078125 29.296875 
L 19.671875 29.296875 
L 19.671875 0 
L 9.8125 0 
z
" id="DejaVuSans-50"/>
     <path d="M 9.421875 75.984375 
L 18.40625 75.984375 
L 18.40625 0 
L 9.421875 0 
z
" id="DejaVuSans-6c"/>
     <path d="M 30.609375 48.390625 
Q 23.390625 48.390625 19.1875 42.75 
Q 14.984375 37.109375 14.984375 27.296875 
Q 14.984375 17.484375 19.15625 11.84375 
Q 23.34375 6.203125 30.609375 6.203125 
Q 37.796875 6.203125 41.984375 11.859375 
Q 46.1875 17.53125 46.1875 27.296875 
Q 46.1875 37.015625 41.984375 42.703125 
Q 37.796875 48.390625 30.609375 48.390625 
M 30.609375 56 
Q 42.328125 56 49.015625 48.375 
Q 55.71875 40.765625 55.71875 27.296875 
Q 55.71875 13.875 49.015625 6.21875 
Q 42.328125 -1.421875 30.609375 -1.421875 
Q 18.84375 -1.421875 12.171875 6.21875 
Q 5.515625 13.875 5.515625 27.296875 
Q 5.515625 40.765625 12.171875 48.375 
Q 18.84375 56 30.609375 56 
" id="DejaVuSans-6f"/>
     <path d="M 18.3125 70.21875 
L 18.3125 54.6875 
L 36.8125 54.6875 
L 36.8125 47.703125 
L 18.3125 47.703125 
L 18.3125 18.015625 
Q 18.3125 11.328125 20.140625 9.421875 
Q 21.96875 7.515625 27.59375 7.515625 
L 36.8125 7.515625 
L 36.8125 0 
L 27.59375 0 
Q 17.1875 0 13.234375 3.875 
Q 9.28125 7.765625 9.28125 18.015625 
L 9.28125 47.703125 
L 2.6875 47.703125 
L 2.6875 54.6875 
L 9.28125 54.6875 
L 9.28125 70.21875 
z
" id="DejaVuSans-74"/>
     <path id="DejaVuSans-20"/>
     <path d="M 37.109375 75.984375 
L 37.109375 68.5 
L 28.515625 68.5 
Q 23.6875 68.5 21.796875 66.546875 
Q 19.921875 64.59375 19.921875 59.515625 
L 19.921875 54.6875 
L 34.71875 54.6875 
L 34.71875 47.703125 
L 19.921875 47.703125 
L 19.921875 0 
L 10.890625 0 
L 10.890625 47.703125 
L 2.296875 47.703125 
L 2.296875 54.6875 
L 10.890625 54.6875 
L 10.890625 58.5 
Q 10.890625 67.625 15.140625 71.796875 
Q 19.390625 75.984375 28.609375 75.984375 
z
" id="DejaVuSans-66"/>
     <path d="M -0.296875 72.90625 
L 61.375 72.90625 
L 61.375 64.59375 
L 35.5 64.59375 
L 35.5 0 
L 25.59375 0 
L 25.59375 64.59375 
L -0.296875 64.59375 
z
" id="DejaVuSans-54"/>
     <path d="M 41.109375 46.296875 
Q 39.59375 47.171875 37.8125 47.578125 
Q 36.03125 48 33.890625 48 
Q 26.265625 48 22.1875 43.046875 
Q 18.109375 38.09375 18.109375 28.8125 
L 18.109375 0 
L 9.078125 0 
L 9.078125 54.6875 
L 18.109375 54.6875 
L 18.109375 46.1875 
Q 20.953125 51.171875 25.484375 53.578125 
Q 30.03125 56 36.53125 56 
Q 37.453125 56 38.578125 55.875 
Q 39.703125 55.765625 41.0625 55.515625 
z
" id="DejaVuSans-72"/>
     <path d="M 34.28125 27.484375 
Q 23.390625 27.484375 19.1875 25 
Q 14.984375 22.515625 14.984375 16.5 
Q 14.984375 11.71875 18.140625 8.90625 
Q 21.296875 6.109375 26.703125 6.109375 
Q 34.1875 6.109375 38.703125 11.40625 
Q 43.21875 16.703125 43.21875 25.484375 
L 43.21875 27.484375 
z
M 52.203125 31.203125 
L 52.203125 0 
L 43.21875 0 
L 43.21875 8.296875 
Q 40.140625 3.328125 35.546875 0.953125 
Q 30.953125 -1.421875 24.3125 -1.421875 
Q 15.921875 -1.421875 10.953125 3.296875 
Q 6 8.015625 6 15.921875 
Q 6 25.140625 12.171875 29.828125 
Q 18.359375 34.515625 30.609375 34.515625 
L 43.21875 34.515625 
L 43.21875 35.40625 
Q 43.21875 41.609375 39.140625 45 
Q 35.0625 48.390625 27.6875 48.390625 
Q 23 48.390625 18.546875 47.265625 
Q 14.109375 46.140625 10.015625 43.890625 
L 10.015625 52.203125 
Q 14.9375 54.109375 19.578125 55.046875 
Q 24.21875 56 28.609375 56 
Q 40.484375 56 46.34375 49.84375 
Q 52.203125 43.703125 52.203125 31.203125 
" id="DejaVuSans-61"/>
     <path d="M 9.421875 54.6875 
L 18.40625 54.6875 
L 18.40625 0 
L 9.421875 0 
z
M 9.421875 75.984375 
L 18.40625 75.984375 
L 18.40625 64.59375 
L 9.421875 64.59375 
z
" id="DejaVuSans-69"/>
     <path d="M 54.890625 33.015625 
L 54.890625 0 
L 45.90625 0 
L 45.90625 32.71875 
Q 45.90625 40.484375 42.875 44.328125 
Q 39.84375 48.1875 33.796875 48.1875 
Q 26.515625 48.1875 22.3125 43.546875 
Q 18.109375 38.921875 18.109375 30.90625 
L 18.109375 0 
L 9.078125 0 
L 9.078125 54.6875 
L 18.109375 54.6875 
L 18.109375 46.1875 
Q 21.34375 51.125 25.703125 53.5625 
Q 30.078125 56 35.796875 56 
Q 45.21875 56 50.046875 50.171875 
Q 54.890625 44.34375 54.890625 33.015625 
" id="DejaVuSans-6e"/>
     <path d="M 19.671875 64.796875 
L 19.671875 8.109375 
L 31.59375 8.109375 
Q 46.6875 8.109375 53.6875 14.9375 
Q 60.6875 21.78125 60.6875 36.53125 
Q 60.6875 51.171875 53.6875 57.984375 
Q 46.6875 64.796875 31.59375 64.796875 
z
M 9.8125 72.90625 
L 30.078125 72.90625 
Q 51.265625 72.90625 61.171875 64.09375 
Q 71.09375 55.28125 71.09375 36.53125 
Q 71.09375 17.671875 61.125 8.828125 
Q 51.171875 0 30.078125 0 
L 9.8125 0 
z
" id="DejaVuSans-44"/>
     <path d="M 2.984375 54.6875 
L 12.5 54.6875 
L 29.59375 8.796875 
L 46.6875 54.6875 
L 56.203125 54.6875 
L 35.6875 0 
L 23.484375 0 
z
" id="DejaVuSans-76"/>
     <path d="M 44.28125 53.078125 
L 44.28125 44.578125 
Q 40.484375 46.53125 36.375 47.5 
Q 32.28125 48.484375 27.875 48.484375 
Q 21.1875 48.484375 17.84375 46.4375 
Q 14.5 44.390625 14.5 40.28125 
Q 14.5 37.15625 16.890625 35.375 
Q 19.28125 33.59375 26.515625 31.984375 
L 29.59375 31.296875 
Q 39.15625 29.25 43.1875 25.515625 
Q 47.21875 21.78125 47.21875 15.09375 
Q 47.21875 7.46875 41.1875 3.015625 
Q 35.15625 -1.421875 24.609375 -1.421875 
Q 20.21875 -1.421875 15.453125 -0.5625 
Q 10.6875 0.296875 5.421875 2 
L 5.421875 11.28125 
Q 10.40625 8.6875 15.234375 7.390625 
Q 20.0625 6.109375 24.8125 6.109375 
Q 31.15625 6.109375 34.5625 8.28125 
Q 37.984375 10.453125 37.984375 14.40625 
Q 37.984375 18.0625 35.515625 20.015625 
Q 33.0625 21.96875 24.703125 23.78125 
L 21.578125 24.515625 
Q 13.234375 26.265625 9.515625 29.90625 
Q 5.8125 33.546875 5.8125 39.890625 
Q 5.8125 47.609375 11.28125 51.796875 
Q 16.75 56 26.8125 56 
Q 31.78125 56 36.171875 55.265625 
Q 40.578125 54.546875 44.28125 53.078125 
" id="DejaVuSans-73"/>
     <path d="M 9.8125 72.90625 
L 24.515625 72.90625 
L 43.109375 23.296875 
L 61.8125 72.90625 
L 76.515625 72.90625 
L 76.515625 0 
L 66.890625 0 
L 66.890625 64.015625 
L 48.09375 14.015625 
L 38.1875 14.015625 
L 19.390625 64.015625 
L 19.390625 0 
L 9.8125 0 
z
" id="DejaVuSans-4d"/>
     <path d="M 64.40625 67.28125 
L 64.40625 56.890625 
Q 59.421875 61.53125 53.78125 63.8125 
Q 48.140625 66.109375 41.796875 66.109375 
Q 29.296875 66.109375 22.65625 58.46875 
Q 16.015625 50.828125 16.015625 36.375 
Q 16.015625 21.96875 22.65625 14.328125 
Q 29.296875 6.6875 41.796875 6.6875 
Q 48.140625 6.6875 53.78125 8.984375 
Q 59.421875 11.28125 64.40625 15.921875 
L 64.40625 5.609375 
Q 59.234375 2.09375 53.4375 0.328125 
Q 47.65625 -1.421875 41.21875 -1.421875 
Q 24.65625 -1.421875 15.125 8.703125 
Q 5.609375 18.84375 5.609375 36.375 
Q 5.609375 53.953125 15.125 64.078125 
Q 24.65625 74.21875 41.21875 74.21875 
Q 47.75 74.21875 53.53125 72.484375 
Q 59.328125 70.75 64.40625 67.28125 
" id="DejaVuSans-43"/>
     <path d="M 8.6875 72.90625 
L 18.609375 72.90625 
L 18.609375 28.609375 
Q 18.609375 16.890625 22.84375 11.734375 
Q 27.09375 6.59375 36.625 6.59375 
Q 46.09375 6.59375 50.34375 11.734375 
Q 54.59375 16.890625 54.59375 28.609375 
L 54.59375 72.90625 
L 64.5 72.90625 
L 64.5 27.390625 
Q 64.5 13.140625 57.4375 5.859375 
Q 50.390625 -1.421875 36.625 -1.421875 
Q 22.796875 -1.421875 15.734375 5.859375 
Q 8.6875 13.140625 8.6875 27.390625 
z
" id="DejaVuSans-55"/>
     <path d="M 48.78125 52.59375 
L 48.78125 44.1875 
Q 44.96875 46.296875 41.140625 47.34375 
Q 37.3125 48.390625 33.40625 48.390625 
Q 24.65625 48.390625 19.8125 42.84375 
Q 14.984375 37.3125 14.984375 27.296875 
Q 14.984375 17.28125 19.8125 11.734375 
Q 24.65625 6.203125 33.40625 6.203125 
Q 37.3125 6.203125 41.140625 7.25 
Q 44.96875 8.296875 48.78125 10.40625 
L 48.78125 2.09375 
Q 45.015625 0.34375 40.984375 -0.53125 
Q 36.96875 -1.421875 32.421875 -1.421875 
Q 20.0625 -1.421875 12.78125 6.34375 
Q 5.515625 14.109375 5.515625 27.296875 
Q 5.515625 40.671875 12.859375 48.328125 
Q 20.21875 56 33.015625 56 
Q 37.15625 56 41.109375 55.140625 
Q 45.0625 54.296875 48.78125 52.59375 
" id="DejaVuSans-63"/>
     <path d="M 56.203125 29.59375 
L 56.203125 25.203125 
L 14.890625 25.203125 
Q 15.484375 15.921875 20.484375 11.0625 
Q 25.484375 6.203125 34.421875 6.203125 
Q 39.59375 6.203125 44.453125 7.46875 
Q 49.3125 8.734375 54.109375 11.28125 
L 54.109375 2.78125 
Q 49.265625 0.734375 44.1875 -0.34375 
Q 39.109375 -1.421875 33.890625 -1.421875 
Q 20.796875 -1.421875 13.15625 6.1875 
Q 5.515625 13.8125 5.515625 26.8125 
Q 5.515625 40.234375 12.765625 48.109375 
Q 20.015625 56 32.328125 56 
Q 43.359375 56 49.78125 48.890625 
Q 56.203125 41.796875 56.203125 29.59375 
M 47.21875 32.234375 
Q 47.125 39.59375 43.09375 43.984375 
Q 39.0625 48.390625 32.421875 48.390625 
Q 24.90625 48.390625 20.390625 44.140625 
Q 15.875 39.890625 15.1875 32.171875 
z
" id="DejaVuSans-65"/>
     <path d="M 32.171875 -5.078125 
Q 28.375 -14.84375 24.75 -17.8125 
Q 21.140625 -20.796875 15.09375 -20.796875 
L 7.90625 -20.796875 
L 7.90625 -13.28125 
L 13.1875 -13.28125 
Q 16.890625 -13.28125 18.9375 -11.515625 
Q 21 -9.765625 23.484375 -3.21875 
L 25.09375 0.875 
L 2.984375 54.6875 
L 12.5 54.6875 
L 29.59375 11.921875 
L 46.6875 54.6875 
L 56.203125 54.6875 
z
" id="DejaVuSans-79"/>
    </defs>
    <g transform="translate(115.666875 35.472)scale(0.12 -0.12)">
     <use xlink:href="#DejaVuSans-50"/>
     <use x="60.302734" xlink:href="#DejaVuSans-6c"/>
     <use x="88.085938" xlink:href="#DejaVuSans-6f"/>
     <use x="149.267578" xlink:href="#DejaVuSans-74"/>
     <use x="188.476562" xlink:href="#DejaVuSans-20"/>
     <use x="220.263672" xlink:href="#DejaVuSans-6f"/>
     <use x="281.445312" xlink:href="#DejaVuSans-66"/>
     <use x="316.650391" xlink:href="#DejaVuSans-20"/>
     <use x="348.4375" xlink:href="#DejaVuSans-54"/>
     <use x="409.302734" xlink:href="#DejaVuSans-72"/>
     <use x="450.416016" xlink:href="#DejaVuSans-61"/>
     <use x="511.695312" xlink:href="#DejaVuSans-69"/>
     <use x="539.478516" xlink:href="#DejaVuSans-6e"/>
     <use x="602.857422" xlink:href="#DejaVuSans-20"/>
     <use x="634.644531" xlink:href="#DejaVuSans-44"/>
     <use x="711.646484" xlink:href="#DejaVuSans-61"/>
     <use x="772.925781" xlink:href="#DejaVuSans-74"/>
     <use x="812.134766" xlink:href="#DejaVuSans-61"/>
     <use x="873.414062" xlink:href="#DejaVuSans-20"/>
     <use x="905.201172" xlink:href="#DejaVuSans-76"/>
     <use x="964.380859" xlink:href="#DejaVuSans-73"/>
     <use x="1016.480469" xlink:href="#DejaVuSans-20"/>
     <use x="1048.267578" xlink:href="#DejaVuSans-4d"/>
     <use x="1134.546875" xlink:href="#DejaVuSans-43"/>
     <use x="1204.371094" xlink:href="#DejaVuSans-4d"/>
     <use x="1290.650391" xlink:href="#DejaVuSans-43"/>
     <use x="1360.474609" xlink:href="#DejaVuSans-20"/>
     <use x="1392.261719" xlink:href="#DejaVuSans-55"/>
     <use x="1465.455078" xlink:href="#DejaVuSans-6e"/>
     <use x="1528.833984" xlink:href="#DejaVuSans-63"/>
     <use x="1583.814453" xlink:href="#DejaVuSans-65"/>
     <use x="1645.337891" xlink:href="#DejaVuSans-72"/>
     <use x="1686.451172" xlink:href="#DejaVuSans-74"/>
     <use x="1725.660156" xlink:href="#DejaVuSans-61"/>
     <use x="1786.939453" xlink:href="#DejaVuSans-69"/>
     <use x="1814.722656" xlink:href="#DejaVuSans-6e"/>
     <use x="1878.101562" xlink:href="#DejaVuSans-74"/>
     <use x="1917.310547" xlink:href="#DejaVuSans-79"/>
     <use x="1976.490234" xlink:href="#DejaVuSans-20"/>
    </g>
   </g>
   <g id="legend_1">
    <g id="patch_7">
     <path d="M 277.843437 108.1845 
L 407.72 108.1845 
Q 409.72 108.1845 409.72 106.1845 
L 409.72 48.472 
Q 409.72 46.472 407.72 46.472 
L 277.843437 46.472 
Q 275.843437 46.472 275.843437 48.472 
L 275.843437 106.1845 
Q 275.843437 108.1845 277.843437 108.1845 
z
" style="fill:#ffffff;opacity:0.8;stroke:#cccccc;stroke-linejoin:miter;"/>
    </g>
    <g id="line2d_16">
     <path d="M 279.843437 54.570438 
L 299.843437 54.570438 
" style="fill:none;stroke:#1f77b4;stroke-linecap:square;stroke-width:1.5;"/>
    </g>
    <g id="line2d_17"/>
    <g id="text_13">
     <!-- actual -->
     <defs>
      <path d="M 8.5 21.578125 
L 8.5 54.6875 
L 17.484375 54.6875 
L 17.484375 21.921875 
Q 17.484375 14.15625 20.5 10.265625 
Q 23.53125 6.390625 29.59375 6.390625 
Q 36.859375 6.390625 41.078125 11.03125 
Q 45.3125 15.671875 45.3125 23.6875 
L 45.3125 54.6875 
L 54.296875 54.6875 
L 54.296875 0 
L 45.3125 0 
L 45.3125 8.40625 
Q 42.046875 3.421875 37.71875 1 
Q 33.40625 -1.421875 27.6875 -1.421875 
Q 18.265625 -1.421875 13.375 4.4375 
Q 8.5 10.296875 8.5 21.578125 
M 31.109375 56 
z
" id="DejaVuSans-75"/>
     </defs>
     <g transform="translate(307.843437 58.070438)scale(0.1 -0.1)">
      <use xlink:href="#DejaVuSans-61"/>
      <use x="61.279297" xlink:href="#DejaVuSans-63"/>
      <use x="116.259766" xlink:href="#DejaVuSans-74"/>
      <use x="155.46875" xlink:href="#DejaVuSans-75"/>
      <use x="218.847656" xlink:href="#DejaVuSans-61"/>
      <use x="280.126953" xlink:href="#DejaVuSans-6c"/>
     </g>
    </g>
    <g id="line2d_18">
     <path d="M 279.843437 69.248563 
L 299.843437 69.248563 
" style="fill:none;stroke:#ff7f0e;stroke-linecap:square;stroke-width:1.5;"/>
    </g>
    <g id="line2d_19"/>
    <g id="text_14">
     <!-- pred. (mean) -->
     <defs>
      <path d="M 18.109375 8.203125 
L 18.109375 -20.796875 
L 9.078125 -20.796875 
L 9.078125 54.6875 
L 18.109375 54.6875 
L 18.109375 46.390625 
Q 20.953125 51.265625 25.265625 53.625 
Q 29.59375 56 35.59375 56 
Q 45.5625 56 51.78125 48.09375 
Q 58.015625 40.1875 58.015625 27.296875 
Q 58.015625 14.40625 51.78125 6.484375 
Q 45.5625 -1.421875 35.59375 -1.421875 
Q 29.59375 -1.421875 25.265625 0.953125 
Q 20.953125 3.328125 18.109375 8.203125 
M 48.6875 27.296875 
Q 48.6875 37.203125 44.609375 42.84375 
Q 40.53125 48.484375 33.40625 48.484375 
Q 26.265625 48.484375 22.1875 42.84375 
Q 18.109375 37.203125 18.109375 27.296875 
Q 18.109375 17.390625 22.1875 11.75 
Q 26.265625 6.109375 33.40625 6.109375 
Q 40.53125 6.109375 44.609375 11.75 
Q 48.6875 17.390625 48.6875 27.296875 
" id="DejaVuSans-70"/>
      <path d="M 45.40625 46.390625 
L 45.40625 75.984375 
L 54.390625 75.984375 
L 54.390625 0 
L 45.40625 0 
L 45.40625 8.203125 
Q 42.578125 3.328125 38.25 0.953125 
Q 33.9375 -1.421875 27.875 -1.421875 
Q 17.96875 -1.421875 11.734375 6.484375 
Q 5.515625 14.40625 5.515625 27.296875 
Q 5.515625 40.1875 11.734375 48.09375 
Q 17.96875 56 27.875 56 
Q 33.9375 56 38.25 53.625 
Q 42.578125 51.265625 45.40625 46.390625 
M 14.796875 27.296875 
Q 14.796875 17.390625 18.875 11.75 
Q 22.953125 6.109375 30.078125 6.109375 
Q 37.203125 6.109375 41.296875 11.75 
Q 45.40625 17.390625 45.40625 27.296875 
Q 45.40625 37.203125 41.296875 42.84375 
Q 37.203125 48.484375 30.078125 48.484375 
Q 22.953125 48.484375 18.875 42.84375 
Q 14.796875 37.203125 14.796875 27.296875 
" id="DejaVuSans-64"/>
      <path d="M 31 75.875 
Q 24.46875 64.65625 21.28125 53.65625 
Q 18.109375 42.671875 18.109375 31.390625 
Q 18.109375 20.125 21.3125 9.0625 
Q 24.515625 -2 31 -13.1875 
L 23.1875 -13.1875 
Q 15.875 -1.703125 12.234375 9.375 
Q 8.59375 20.453125 8.59375 31.390625 
Q 8.59375 42.28125 12.203125 53.3125 
Q 15.828125 64.359375 23.1875 75.875 
z
" id="DejaVuSans-28"/>
      <path d="M 52 44.1875 
Q 55.375 50.25 60.0625 53.125 
Q 64.75 56 71.09375 56 
Q 79.640625 56 84.28125 50.015625 
Q 88.921875 44.046875 88.921875 33.015625 
L 88.921875 0 
L 79.890625 0 
L 79.890625 32.71875 
Q 79.890625 40.578125 77.09375 44.375 
Q 74.3125 48.1875 68.609375 48.1875 
Q 61.625 48.1875 57.5625 43.546875 
Q 53.515625 38.921875 53.515625 30.90625 
L 53.515625 0 
L 44.484375 0 
L 44.484375 32.71875 
Q 44.484375 40.625 41.703125 44.40625 
Q 38.921875 48.1875 33.109375 48.1875 
Q 26.21875 48.1875 22.15625 43.53125 
Q 18.109375 38.875 18.109375 30.90625 
L 18.109375 0 
L 9.078125 0 
L 9.078125 54.6875 
L 18.109375 54.6875 
L 18.109375 46.1875 
Q 21.1875 51.21875 25.484375 53.609375 
Q 29.78125 56 35.6875 56 
Q 41.65625 56 45.828125 52.96875 
Q 50 49.953125 52 44.1875 
" id="DejaVuSans-6d"/>
      <path d="M 8.015625 75.875 
L 15.828125 75.875 
Q 23.140625 64.359375 26.78125 53.3125 
Q 30.421875 42.28125 30.421875 31.390625 
Q 30.421875 20.453125 26.78125 9.375 
Q 23.140625 -1.703125 15.828125 -13.1875 
L 8.015625 -13.1875 
Q 14.5 -2 17.703125 9.0625 
Q 20.90625 20.125 20.90625 31.390625 
Q 20.90625 42.671875 17.703125 53.65625 
Q 14.5 64.65625 8.015625 75.875 
" id="DejaVuSans-29"/>
     </defs>
     <g transform="translate(307.843437 72.748563)scale(0.1 -0.1)">
      <use xlink:href="#DejaVuSans-70"/>
      <use x="63.476562" xlink:href="#DejaVuSans-72"/>
      <use x="104.558594" xlink:href="#DejaVuSans-65"/>
      <use x="166.082031" xlink:href="#DejaVuSans-64"/>
      <use x="229.558594" xlink:href="#DejaVuSans-2e"/>
      <use x="261.345703" xlink:href="#DejaVuSans-20"/>
      <use x="293.132812" xlink:href="#DejaVuSans-28"/>
      <use x="332.146484" xlink:href="#DejaVuSans-6d"/>
      <use x="429.558594" xlink:href="#DejaVuSans-65"/>
      <use x="491.082031" xlink:href="#DejaVuSans-61"/>
      <use x="552.361328" xlink:href="#DejaVuSans-6e"/>
      <use x="615.740234" xlink:href="#DejaVuSans-29"/>
     </g>
    </g>
    <g id="line2d_20">
     <path d="M 279.843437 83.926688 
L 299.843437 83.926688 
" style="fill:none;stroke:#2ca02c;stroke-linecap:square;stroke-width:1.5;"/>
    </g>
    <g id="line2d_21"/>
    <g id="text_15">
     <!-- pred.(5th percen.) -->
     <defs>
      <path d="M 10.796875 72.90625 
L 49.515625 72.90625 
L 49.515625 64.59375 
L 19.828125 64.59375 
L 19.828125 46.734375 
Q 21.96875 47.46875 24.109375 47.828125 
Q 26.265625 48.1875 28.421875 48.1875 
Q 40.625 48.1875 47.75 41.5 
Q 54.890625 34.8125 54.890625 23.390625 
Q 54.890625 11.625 47.5625 5.09375 
Q 40.234375 -1.421875 26.90625 -1.421875 
Q 22.3125 -1.421875 17.546875 -0.640625 
Q 12.796875 0.140625 7.71875 1.703125 
L 7.71875 11.625 
Q 12.109375 9.234375 16.796875 8.0625 
Q 21.484375 6.890625 26.703125 6.890625 
Q 35.15625 6.890625 40.078125 11.328125 
Q 45.015625 15.765625 45.015625 23.390625 
Q 45.015625 31 40.078125 35.4375 
Q 35.15625 39.890625 26.703125 39.890625 
Q 22.75 39.890625 18.8125 39.015625 
Q 14.890625 38.140625 10.796875 36.28125 
z
" id="DejaVuSans-35"/>
      <path d="M 54.890625 33.015625 
L 54.890625 0 
L 45.90625 0 
L 45.90625 32.71875 
Q 45.90625 40.484375 42.875 44.328125 
Q 39.84375 48.1875 33.796875 48.1875 
Q 26.515625 48.1875 22.3125 43.546875 
Q 18.109375 38.921875 18.109375 30.90625 
L 18.109375 0 
L 9.078125 0 
L 9.078125 75.984375 
L 18.109375 75.984375 
L 18.109375 46.1875 
Q 21.34375 51.125 25.703125 53.5625 
Q 30.078125 56 35.796875 56 
Q 45.21875 56 50.046875 50.171875 
Q 54.890625 44.34375 54.890625 33.015625 
" id="DejaVuSans-68"/>
     </defs>
     <g transform="translate(307.843437 87.426688)scale(0.1 -0.1)">
      <use xlink:href="#DejaVuSans-70"/>
      <use x="63.476562" xlink:href="#DejaVuSans-72"/>
      <use x="104.558594" xlink:href="#DejaVuSans-65"/>
      <use x="166.082031" xlink:href="#DejaVuSans-64"/>
      <use x="229.558594" xlink:href="#DejaVuSans-2e"/>
      <use x="261.345703" xlink:href="#DejaVuSans-28"/>
      <use x="300.359375" xlink:href="#DejaVuSans-35"/>
      <use x="363.982422" xlink:href="#DejaVuSans-74"/>
      <use x="403.191406" xlink:href="#DejaVuSans-68"/>
      <use x="466.570312" xlink:href="#DejaVuSans-20"/>
      <use x="498.357422" xlink:href="#DejaVuSans-70"/>
      <use x="561.833984" xlink:href="#DejaVuSans-65"/>
      <use x="623.357422" xlink:href="#DejaVuSans-72"/>
      <use x="664.439453" xlink:href="#DejaVuSans-63"/>
      <use x="719.419922" xlink:href="#DejaVuSans-65"/>
      <use x="780.943359" xlink:href="#DejaVuSans-6e"/>
      <use x="844.322266" xlink:href="#DejaVuSans-2e"/>
      <use x="876.109375" xlink:href="#DejaVuSans-29"/>
     </g>
    </g>
    <g id="line2d_22">
     <path d="M 279.843437 98.604813 
L 299.843437 98.604813 
" style="fill:none;stroke:#d62728;stroke-linecap:square;stroke-width:1.5;"/>
    </g>
    <g id="line2d_23"/>
    <g id="text_16">
     <!-- pred.(95th percen.) -->
     <defs>
      <path d="M 10.984375 1.515625 
L 10.984375 10.5 
Q 14.703125 8.734375 18.5 7.8125 
Q 22.3125 6.890625 25.984375 6.890625 
Q 35.75 6.890625 40.890625 13.453125 
Q 46.046875 20.015625 46.78125 33.40625 
Q 43.953125 29.203125 39.59375 26.953125 
Q 35.25 24.703125 29.984375 24.703125 
Q 19.046875 24.703125 12.671875 31.3125 
Q 6.296875 37.9375 6.296875 49.421875 
Q 6.296875 60.640625 12.9375 67.421875 
Q 19.578125 74.21875 30.609375 74.21875 
Q 43.265625 74.21875 49.921875 64.515625 
Q 56.59375 54.828125 56.59375 36.375 
Q 56.59375 19.140625 48.40625 8.859375 
Q 40.234375 -1.421875 26.421875 -1.421875 
Q 22.703125 -1.421875 18.890625 -0.6875 
Q 15.09375 0.046875 10.984375 1.515625 
M 30.609375 32.421875 
Q 37.25 32.421875 41.125 36.953125 
Q 45.015625 41.5 45.015625 49.421875 
Q 45.015625 57.28125 41.125 61.84375 
Q 37.25 66.40625 30.609375 66.40625 
Q 23.96875 66.40625 20.09375 61.84375 
Q 16.21875 57.28125 16.21875 49.421875 
Q 16.21875 41.5 20.09375 36.953125 
Q 23.96875 32.421875 30.609375 32.421875 
" id="DejaVuSans-39"/>
     </defs>
     <g transform="translate(307.843437 102.104813)scale(0.1 -0.1)">
      <use xlink:href="#DejaVuSans-70"/>
      <use x="63.476562" xlink:href="#DejaVuSans-72"/>
      <use x="104.558594" xlink:href="#DejaVuSans-65"/>
      <use x="166.082031" xlink:href="#DejaVuSans-64"/>
      <use x="229.558594" xlink:href="#DejaVuSans-2e"/>
      <use x="261.345703" xlink:href="#DejaVuSans-28"/>
      <use x="300.359375" xlink:href="#DejaVuSans-39"/>
      <use x="363.982422" xlink:href="#DejaVuSans-35"/>
      <use x="427.605469" xlink:href="#DejaVuSans-74"/>
      <use x="466.814453" xlink:href="#DejaVuSans-68"/>
      <use x="530.193359" xlink:href="#DejaVuSans-20"/>
      <use x="561.980469" xlink:href="#DejaVuSans-70"/>
      <use x="625.457031" xlink:href="#DejaVuSans-65"/>
      <use x="686.980469" xlink:href="#DejaVuSans-72"/>
      <use x="728.0625" xlink:href="#DejaVuSans-63"/>
      <use x="783.042969" xlink:href="#DejaVuSans-65"/>
      <use x="844.566406" xlink:href="#DejaVuSans-6e"/>
      <use x="907.945312" xlink:href="#DejaVuSans-2e"/>
      <use x="939.732422" xlink:href="#DejaVuSans-29"/>
     </g>
    </g>
   </g>
  </g>
 </g>
 <defs>
  <clipPath id="p24ffa175d3">
   <rect height="266.112" width="357.12" x="57.6" y="41.472"/>
  </clipPath>
 </defs>
</svg>
