<?xml version="1.0" encoding="utf-8" standalone="no"?>
<!DOCTYPE svg PUBLIC "-//W3C//DTD SVG 1.1//EN"
  "http://www.w3.org/Graphics/SVG/1.1/DTD/svg11.dtd">
<!-- Created with matplotlib (http://matplotlib.org/) -->
<svg height="345pt" version="1.1" viewBox="0 0 460 345" width="460pt" xmlns="http://www.w3.org/2000/svg" xmlns:xlink="http://www.w3.org/1999/xlink">
 <defs>
  <style type="text/css">
*{stroke-linecap:butt;stroke-linejoin:round;}
  </style>
 </defs>
 <g id="figure_1">
  <g id="patch_1">
   <path d="M 0 345.6 
L 460.8 345.6 
L 460.8 0 
L 0 0 
z
" style="fill:#ffffff;"/>
  </g>
  <g id="axes_1">
   <g id="patch_2">
    <path d="M 57.6 307.584 
L 414.72 307.584 
L 414.72 41.472 
L 57.6 41.472 
z
" style="fill:#ffffff;"/>
   </g>
   <g id="PolyCollection_1">
    <path clip-path="url(#p668b27dcbe)" d="M 73.832727 69.536635 
L 73.832727 131.688509 
L 74.92584 117.560026 
L 76.018953 131.862454 
L 77.112066 123.165337 
L 78.205179 117.718957 
L 79.298292 117.610728 
L 80.391405 205.747311 
L 81.484518 143.203986 
L 82.577631 165.088178 
L 83.670744 266.863598 
L 84.763857 182.255337 
L 85.85697 132.113018 
L 86.950083 117.683053 
L 88.043196 118.266394 
L 89.136309 138.321797 
L 90.229421 129.17482 
L 91.322534 132.780995 
L 92.415647 148.0858 
L 93.50876 132.308117 
L 94.601873 147.350576 
L 95.694986 143.130851 
L 96.788099 128.360674 
L 97.881212 229.145876 
L 98.974325 132.313878 
L 100.067438 134.648345 
L 101.160551 117.721779 
L 102.253664 119.247964 
L 103.346777 124.572445 
L 104.43989 118.309128 
L 105.533003 217.503135 
L 106.626116 137.320039 
L 107.719229 144.464349 
L 108.812342 137.627411 
L 109.905455 117.708598 
L 110.998567 126.580334 
L 112.09168 118.401325 
L 113.184793 215.925536 
L 114.277906 138.127079 
L 115.371019 146.3786 
L 116.464132 144.009213 
L 117.557245 131.265863 
L 118.650358 181.70907 
L 119.743471 153.817489 
L 120.836584 233.292854 
L 121.929697 225.347668 
L 123.02281 260.550807 
L 124.115923 192.068922 
L 125.209036 143.459298 
L 126.302149 137.727003 
L 127.395262 117.745349 
L 128.488375 128.568553 
L 129.581488 120.002148 
L 130.674601 172.591812 
L 131.767713 153.301213 
L 132.860826 231.84113 
L 133.953939 227.482826 
L 135.047052 251.812647 
L 136.140165 201.80282 
L 137.233278 208.866725 
L 138.326391 277.958832 
L 139.419504 162.954145 
L 140.512617 146.99483 
L 141.60573 205.560724 
L 142.698843 275.170043 
L 143.791956 167.523316 
L 144.885069 137.76105 
L 145.978182 142.347945 
L 147.071295 126.364016 
L 148.164408 251.436484 
L 149.257521 120.267592 
L 150.350634 128.552391 
L 151.443747 119.630329 
L 152.53686 118.32281 
L 153.629972 219.569458 
L 154.723085 135.984826 
L 155.816198 141.905942 
L 156.909311 129.526002 
L 158.002424 210.210628 
L 159.095537 142.641977 
L 160.18865 160.43227 
L 161.281763 256.594811 
L 162.374876 195.066966 
L 163.467989 149.348979 
L 164.561102 157.232193 
L 165.654215 239.426318 
L 166.747328 213.454703 
L 167.840441 279.325092 
L 168.933554 165.247185 
L 170.026667 141.37065 
L 171.11978 159.003282 
L 172.212893 256.503474 
L 173.306006 195.128816 
L 174.399118 149.517575 
L 175.492231 157.892336 
L 176.585344 245.635685 
L 177.678457 205.297048 
L 178.77157 253.464377 
L 179.864683 200.940465 
L 180.957796 211.140458 
L 182.050909 275.45551 
L 183.144022 167.102929 
L 184.237135 138.169787 
L 185.330248 144.302223 
L 186.423361 132.586005 
L 187.516474 158.828091 
L 188.609587 138.563024 
L 189.7027 177.270196 
L 190.795813 283.461934 
L 191.888926 194.933224 
L 192.982039 169.55306 
L 194.075152 262.595848 
L 195.168264 189.366564 
L 196.261377 138.091813 
L 197.35449 123.355568 
L 198.447603 261.458437 
L 199.540716 154.198144 
L 200.633829 150.71539 
L 201.726942 223.202469 
L 202.820055 239.680686 
L 203.913168 214.562236 
L 205.006281 272.597795 
L 206.099394 177.076165 
L 207.192507 131.62415 
L 208.28562 117.473484 
L 209.378733 129.309355 
L 210.471846 120.829418 
L 211.564959 147.968379 
L 212.658072 134.704866 
L 213.751185 157.601844 
L 214.844298 245.296949 
L 215.93741 205.633983 
L 217.030523 256.05102 
L 218.123636 198.714462 
L 219.216749 176.111107 
L 220.309862 278.356654 
L 221.402975 164.273344 
L 222.496088 144.652844 
L 223.589201 192.830054 
L 224.682314 285.220807 
L 225.775427 214.83245 
L 226.86854 149.084515 
L 227.961653 153.260555 
L 229.054766 198.820192 
L 230.147879 281.243922 
L 231.240992 173.574307 
L 232.334105 176.501829 
L 233.427218 273.029496 
L 234.520331 174.257461 
L 235.613444 132.946388 
L 236.706556 120.578539 
L 237.799669 238.58008 
L 238.892782 126.315885 
L 239.985895 127.135273 
L 241.079008 190.552462 
L 242.172121 150.703486 
L 243.265234 223.854977 
L 244.358347 243.596471 
L 245.45146 207.250523 
L 246.544573 250.224768 
L 247.637686 204.372643 
L 248.730799 245.747577 
L 249.823912 210.461338 
L 250.917025 274.548479 
L 252.010138 174.117903 
L 253.103251 132.91221 
L 254.196364 120.536307 
L 255.289477 236.65164 
L 256.38259 127.535073 
L 257.475702 128.153146 
L 258.568815 177.098642 
L 259.661928 153.651368 
L 260.755041 232.810877 
L 261.848154 225.979924 
L 262.941267 258.084702 
L 264.03438 194.622588 
L 265.127493 149.6394 
L 266.220606 158.436823 
L 267.313719 250.48669 
L 268.406832 200.52366 
L 269.499945 204.196496 
L 270.593058 282.0683 
L 271.686171 180.052777 
L 272.779284 176.340169 
L 273.872397 272.296164 
L 274.96551 175.580875 
L 276.058623 132.207197 
L 277.151736 118.559316 
L 278.244848 182.980109 
L 279.337961 154.130499 
L 280.431074 234.067853 
L 281.524187 224.076305 
L 282.6173 265.386013 
L 283.710413 186.095066 
L 284.803526 134.840619 
L 285.896639 118.295331 
L 286.989752 165.415038 
L 288.082865 143.350676 
L 289.175978 198.321997 
L 290.269091 282.805772 
L 291.362204 187.59191 
L 292.455317 171.520431 
L 293.54843 265.74387 
L 294.641543 185.176711 
L 295.734656 133.692582 
L 296.827769 117.557705 
L 297.920882 128.541087 
L 299.013994 120.025038 
L 300.107107 172.17808 
L 301.20022 153.210287 
L 302.293333 231.530685 
L 303.386446 227.866791 
L 304.479559 249.705528 
L 305.572672 204.637838 
L 306.665785 233.33464 
L 307.758898 231.198156 
L 308.852011 237.821577 
L 309.945124 233.001755 
L 311.038237 253.374568 
L 312.13135 199.598881 
L 313.224463 187.486393 
L 314.317576 285.436513 
L 315.410689 216.752486 
L 316.503802 150.315234 
L 317.596915 155.341955 
L 318.690028 224.789294 
L 319.78314 235.563359 
L 320.876253 224.731312 
L 321.969366 278.943892 
L 323.062479 165.401064 
L 324.155592 140.55623 
L 325.248705 156.110032 
L 326.341818 227.473541 
L 327.434931 231.57473 
L 328.528044 235.537442 
L 329.621157 240.045341 
L 330.71427 225.305414 
L 331.807383 278.256109 
L 332.900496 166.548703 
L 333.993609 139.054419 
L 335.086722 148.509089 
L 336.179835 147.08492 
L 337.272948 142.060859 
L 338.366061 125.131297 
L 339.459174 259.258806 
L 340.552287 143.619606 
L 341.645399 139.808348 
L 342.738512 155.587045 
L 343.831625 220.873826 
L 344.924738 244.621695 
L 346.017851 205.92926 
L 347.110964 241.16861 
L 348.204077 218.157209 
L 349.29719 278.766349 
L 350.390303 165.751902 
L 351.483416 140.033818 
L 352.576529 153.542564 
L 353.669642 189.420537 
L 354.762755 285.974704 
L 355.855868 223.95505 
L 356.948981 139.363656 
L 358.042094 139.098076 
L 359.135207 122.696318 
L 360.22832 259.481303 
L 361.321433 144.102483 
L 362.414545 140.044825 
L 363.507658 156.839947 
L 364.600771 236.114752 
L 365.693884 218.564802 
L 366.786997 277.749692 
L 367.88011 167.563534 
L 368.973223 137.964383 
L 370.066336 143.347515 
L 371.159449 129.318092 
L 372.252562 214.729331 
L 373.345675 140.724092 
L 374.438788 152.114349 
L 375.531901 180.775491 
L 376.625014 285.769944 
L 377.718127 221.464571 
L 378.81124 144.918931 
L 379.904353 146.798413 
L 380.997466 145.873139 
L 382.090579 137.735888 
L 383.183691 117.747721 
L 384.276804 127.854715 
L 385.369917 119.51466 
L 386.46303 187.443223 
L 387.556143 151.222949 
L 388.649256 225.339037 
L 389.742369 239.189354 
L 390.835482 215.643036 
L 391.928595 274.635229 
L 393.021708 173.938825 
L 394.114821 133.0371 
L 395.207934 120.847985 
L 396.301047 242.670797 
L 397.39416 123.686385 
L 398.487273 125.812375 
L 398.487273 53.568 
L 398.487273 53.568 
L 397.39416 97.236159 
L 396.301047 113.741624 
L 395.207934 64.065635 
L 394.114821 77.105602 
L 393.021708 120.61578 
L 391.928595 200.095328 
L 390.835482 170.359237 
L 389.742369 213.914085 
L 388.649256 181.650607 
L 387.556143 136.263196 
L 386.46303 115.357174 
L 385.369917 66.770615 
L 384.276804 104.119388 
L 383.183691 79.663694 
L 382.090579 77.490036 
L 380.997466 100.868149 
L 379.904353 109.360838 
L 378.81124 105.857621 
L 377.718127 119.846668 
L 376.625014 209.650831 
L 375.531901 163.316972 
L 374.438788 129.158138 
L 373.345675 120.770538 
L 372.252562 114.998327 
L 371.159449 64.740627 
L 370.066336 92.484843 
L 368.973223 105.689843 
L 367.88011 126.807248 
L 366.786997 208.487608 
L 365.693884 190.378492 
L 364.600771 187.018782 
L 363.507658 143.697508 
L 362.414545 121.723495 
L 361.321433 101.597047 
L 360.22832 113.670828 
L 359.135207 63.47444 
L 358.042094 82.484584 
L 356.948981 94.107329 
L 355.855868 119.085111 
L 354.762755 212.661136 
L 353.669642 167.172702 
L 352.576529 130.622613 
L 351.483416 117.68015 
L 350.390303 128.073182 
L 349.29719 207.987385 
L 348.204077 188.276685 
L 347.110964 184.784502 
L 346.017851 149.421076 
L 344.924738 214.432868 
L 343.831625 181.561333 
L 342.738512 138.964379 
L 341.645399 120.496888 
L 340.552287 101.671298 
L 339.459174 113.903243 
L 338.366061 63.072768 
L 337.272948 88.411975 
L 336.179835 105.290694 
L 335.086722 110.68727 
L 333.993609 111.973186 
L 332.900496 127.582628 
L 331.807383 208.424063 
L 330.71427 191.666217 
L 329.621157 210.065068 
L 328.528044 209.352209 
L 327.434931 212.932883 
L 326.341818 183.925913 
L 325.248705 140.843562 
L 324.155592 120.515328 
L 323.062479 127.836263 
L 321.969366 208.05342 
L 320.876253 189.971273 
L 319.78314 213.684088 
L 318.690028 182.937558 
L 317.596915 140.980799 
L 316.503802 117.80545 
L 315.410689 120.09929 
L 314.317576 209.378172 
L 313.224463 166.46994 
L 312.13135 133.364697 
L 311.038237 210.671271 
L 309.945124 208.950032 
L 308.852011 209.674012 
L 307.758898 212.518894 
L 306.665785 182.018646 
L 305.572672 146.331113 
L 304.479559 210.53576 
L 303.386446 210.622783 
L 302.293333 184.145272 
L 301.20022 135.634335 
L 300.107107 115.842438 
L 299.013994 67.734096 
L 297.920882 105.585206 
L 296.827769 78.789096 
L 295.734656 70.030326 
L 294.641543 111.984823 
L 293.54843 196.518118 
L 292.455317 153.821827 
L 291.362204 122.206605 
L 290.269091 214.20921 
L 289.175978 172.100473 
L 288.082865 130.312943 
L 286.989752 114.621776 
L 285.896639 72.409902 
L 284.803526 73.035458 
L 283.710413 109.908264 
L 282.6173 210.390555 
L 281.524187 202.985501 
L 280.431074 185.013318 
L 279.337961 136.451178 
L 278.244848 114.331574 
L 277.151736 69.967306 
L 276.058623 72.771725 
L 274.96551 118.467565 
L 273.872397 199.863623 
L 272.779284 153.72312 
L 271.686171 123.758224 
L 270.593058 214.119793 
L 269.499945 172.3302 
L 268.406832 137.165534 
L 267.313719 192.024155 
L 266.220606 148.469719 
L 265.127493 122.193399 
L 264.03438 120.657861 
L 262.941267 210.586595 
L 261.848154 207.16674 
L 260.755041 184.539732 
L 259.661928 136.03433 
L 258.568815 115.787138 
L 257.475702 56.721956 
L 256.38259 97.797328 
L 255.289477 113.760085 
L 254.196364 64.695046 
L 253.103251 76.508906 
L 252.010138 120.341752 
L 250.917025 200.042282 
L 249.823912 168.737302 
L 248.730799 186.565266 
L 247.637686 150.344207 
L 246.544573 188.252097 
L 245.45146 153.319612 
L 244.358347 214.244162 
L 243.265234 181.141709 
L 242.172121 136.071393 
L 241.079008 115.38397 
L 239.985895 55.116423 
L 238.892782 97.185989 
L 237.799669 113.752362 
L 236.706556 64.507508 
L 235.613444 76.691286 
L 234.520331 120.622571 
L 233.427218 200.35435 
L 232.334105 152.702282 
L 231.240992 124.744553 
L 230.147879 214.588978 
L 229.054766 171.805592 
L 227.961653 133.6941 
L 226.86854 115.303214 
L 225.775427 119.956377 
L 224.682314 213.256015 
L 223.589201 169.32366 
L 222.496088 132.635237 
L 221.402975 129.379016 
L 220.309862 203.818111 
L 219.216749 161.708733 
L 218.123636 130.907762 
L 217.030523 190.602146 
L 215.93741 154.950644 
L 214.844298 190.205281 
L 213.751185 147.227865 
L 212.658072 123.756521 
L 211.564959 116.584726 
L 210.471846 69.502465 
L 209.378733 107.910007 
L 208.28562 78.014298 
L 207.192507 69.176453 
L 206.099394 116.13654 
L 205.006281 198.787348 
L 203.913168 168.105758 
L 202.820055 213.997023 
L 201.726942 182.062473 
L 200.633829 140.773895 
L 199.540716 100.508134 
L 198.447603 113.715879 
L 197.35449 62.836792 
L 196.261377 82.194198 
L 195.168264 113.637649 
L 194.075152 195.074258 
L 192.982039 153.616545 
L 191.888926 122.280406 
L 190.795813 207.324333 
L 189.7027 162.052049 
L 188.609587 127.450468 
L 187.516474 116.420089 
L 186.423361 68.270286 
L 185.330248 95.668494 
L 184.237135 106.846763 
L 183.144022 124.871504 
L 182.050909 215.025303 
L 180.957796 174.548041 
L 179.864683 138.99632 
L 178.77157 189.493003 
L 177.678457 153.681209 
L 176.585344 190.359674 
L 175.492231 146.504499 
L 174.399118 121.707279 
L 173.306006 121.412729 
L 172.212893 194.227187 
L 171.11978 151.481281 
L 170.026667 123.26371 
L 168.933554 128.424215 
L 167.840441 204.511952 
L 166.747328 177.521853 
L 165.654215 188.183706 
L 164.561102 144.293424 
L 163.467989 121.138611 
L 162.374876 121.296078 
L 161.281763 194.203872 
L 160.18865 152.922487 
L 159.095537 126.154252 
L 158.002424 115.092552 
L 156.909311 64.713594 
L 155.816198 91.357534 
L 154.723085 110.309963 
L 153.629972 114.726687 
L 152.53686 65.666208 
L 151.443747 98.749711 
L 150.350634 64.114444 
L 149.257521 104.580821 
L 148.164408 114.093238 
L 147.071295 63.156646 
L 145.978182 89.470834 
L 144.885069 104.517699 
L 143.791956 124.102294 
L 142.698843 215.27924 
L 141.60573 175.412492 
L 140.512617 136.017785 
L 139.419504 126.532276 
L 138.326391 214.829846 
L 137.233278 173.89336 
L 136.140165 138.724178 
L 135.047052 210.552706 
L 133.953939 209.852894 
L 132.860826 184.21677 
L 131.767713 135.71845 
L 130.674601 115.825666 
L 129.581488 67.708263 
L 128.488375 105.554551 
L 127.395262 79.360298 
L 126.302149 77.396501 
L 125.209036 99.932256 
L 124.115923 115.473021 
L 123.02281 210.559595 
L 121.929697 205.70202 
L 120.836584 184.7048 
L 119.743471 136.301197 
L 118.650358 115.693169 
L 117.557245 66.651941 
L 116.464132 94.543424 
L 115.371019 107.301332 
L 114.277906 114.985971 
L 113.184793 114.808087 
L 112.09168 65.351105 
L 110.998567 100.0008 
L 109.905455 80.462984 
L 108.812342 77.141154 
L 107.719229 100.222841 
L 106.626116 112.937516 
L 105.533003 114.754152 
L 104.43989 65.31084 
L 103.346777 98.965156 
L 102.253664 79.203436 
L 101.160551 85.946439 
L 100.067438 70.071322 
L 98.974325 103.437299 
L 97.881212 114.657429 
L 96.788099 64.051692 
L 95.694986 91.720357 
L 94.601873 106.471606 
L 93.50876 113.812169 
L 92.415647 116.767147 
L 91.322534 67.489171 
L 90.229421 98.449373 
L 89.136309 114.958878 
L 88.043196 74.500768 
L 86.950083 87.714116 
L 85.85697 66.808278 
L 84.763857 112.389882 
L 83.670744 198.275539 
L 82.577631 157.106152 
L 81.484518 127.422834 
L 80.391405 114.486431 
L 79.298292 67.404805 
L 78.205179 91.233885 
L 77.112066 75.540979 
L 76.018953 113.583758 
L 74.92584 77.038118 
L 73.832727 69.536635 
z
" style="fill:#008000;fill-opacity:0.4;"/>
   </g>
   <g id="matplotlib.axis_1">
    <g id="xtick_1">
     <g id="line2d_1">
      <defs>
       <path d="M 0 0 
L 0 3.5 
" id="md8ef2a811a" style="stroke:#000000;stroke-width:0.8;"/>
      </defs>
      <g>
       <use style="stroke:#000000;stroke-width:0.8;" x="73.832727" xlink:href="#md8ef2a811a" y="307.584"/>
      </g>
     </g>
     <g id="text_1">
      <!-- 0.0 -->
      <defs>
       <path d="M 31.78125 66.40625 
Q 24.171875 66.40625 20.328125 58.90625 
Q 16.5 51.421875 16.5 36.375 
Q 16.5 21.390625 20.328125 13.890625 
Q 24.171875 6.390625 31.78125 6.390625 
Q 39.453125 6.390625 43.28125 13.890625 
Q 47.125 21.390625 47.125 36.375 
Q 47.125 51.421875 43.28125 58.90625 
Q 39.453125 66.40625 31.78125 66.40625 
M 31.78125 74.21875 
Q 44.046875 74.21875 50.515625 64.515625 
Q 56.984375 54.828125 56.984375 36.375 
Q 56.984375 17.96875 50.515625 8.265625 
Q 44.046875 -1.421875 31.78125 -1.421875 
Q 19.53125 -1.421875 13.0625 8.265625 
Q 6.59375 17.96875 6.59375 36.375 
Q 6.59375 54.828125 13.0625 64.515625 
Q 19.53125 74.21875 31.78125 74.21875 
" id="DejaVuSans-30"/>
       <path d="M 10.6875 12.40625 
L 21 12.40625 
L 21 0 
L 10.6875 0 
z
" id="DejaVuSans-2e"/>
      </defs>
      <g transform="translate(65.881165 322.182437)scale(0.1 -0.1)">
       <use xlink:href="#DejaVuSans-30"/>
       <use x="63.623047" xlink:href="#DejaVuSans-2e"/>
       <use x="95.410156" xlink:href="#DejaVuSans-30"/>
      </g>
     </g>
    </g>
    <g id="xtick_2">
     <g id="line2d_2">
      <g>
       <use style="stroke:#000000;stroke-width:0.8;" x="138.763636" xlink:href="#md8ef2a811a" y="307.584"/>
      </g>
     </g>
     <g id="text_2">
      <!-- 0.2 -->
      <defs>
       <path d="M 19.1875 8.296875 
L 53.609375 8.296875 
L 53.609375 0 
L 7.328125 0 
L 7.328125 8.296875 
Q 12.9375 14.109375 22.625 23.890625 
Q 32.328125 33.6875 34.8125 36.53125 
Q 39.546875 41.84375 41.421875 45.53125 
Q 43.3125 49.21875 43.3125 52.78125 
Q 43.3125 58.59375 39.234375 62.25 
Q 35.15625 65.921875 28.609375 65.921875 
Q 23.96875 65.921875 18.8125 64.3125 
Q 13.671875 62.703125 7.8125 59.421875 
L 7.8125 69.390625 
Q 13.765625 71.78125 18.9375 73 
Q 24.125 74.21875 28.421875 74.21875 
Q 39.75 74.21875 46.484375 68.546875 
Q 53.21875 62.890625 53.21875 53.421875 
Q 53.21875 48.921875 51.53125 44.890625 
Q 49.859375 40.875 45.40625 35.40625 
Q 44.1875 33.984375 37.640625 27.21875 
Q 31.109375 20.453125 19.1875 8.296875 
" id="DejaVuSans-32"/>
      </defs>
      <g transform="translate(130.812074 322.182437)scale(0.1 -0.1)">
       <use xlink:href="#DejaVuSans-30"/>
       <use x="63.623047" xlink:href="#DejaVuSans-2e"/>
       <use x="95.410156" xlink:href="#DejaVuSans-32"/>
      </g>
     </g>
    </g>
    <g id="xtick_3">
     <g id="line2d_3">
      <g>
       <use style="stroke:#000000;stroke-width:0.8;" x="203.694545" xlink:href="#md8ef2a811a" y="307.584"/>
      </g>
     </g>
     <g id="text_3">
      <!-- 0.4 -->
      <defs>
       <path d="M 37.796875 64.3125 
L 12.890625 25.390625 
L 37.796875 25.390625 
z
M 35.203125 72.90625 
L 47.609375 72.90625 
L 47.609375 25.390625 
L 58.015625 25.390625 
L 58.015625 17.1875 
L 47.609375 17.1875 
L 47.609375 0 
L 37.796875 0 
L 37.796875 17.1875 
L 4.890625 17.1875 
L 4.890625 26.703125 
z
" id="DejaVuSans-34"/>
      </defs>
      <g transform="translate(195.742983 322.182437)scale(0.1 -0.1)">
       <use xlink:href="#DejaVuSans-30"/>
       <use x="63.623047" xlink:href="#DejaVuSans-2e"/>
       <use x="95.410156" xlink:href="#DejaVuSans-34"/>
      </g>
     </g>
    </g>
    <g id="xtick_4">
     <g id="line2d_4">
      <g>
       <use style="stroke:#000000;stroke-width:0.8;" x="268.625455" xlink:href="#md8ef2a811a" y="307.584"/>
      </g>
     </g>
     <g id="text_4">
      <!-- 0.6 -->
      <defs>
       <path d="M 33.015625 40.375 
Q 26.375 40.375 22.484375 35.828125 
Q 18.609375 31.296875 18.609375 23.390625 
Q 18.609375 15.53125 22.484375 10.953125 
Q 26.375 6.390625 33.015625 6.390625 
Q 39.65625 6.390625 43.53125 10.953125 
Q 47.40625 15.53125 47.40625 23.390625 
Q 47.40625 31.296875 43.53125 35.828125 
Q 39.65625 40.375 33.015625 40.375 
M 52.59375 71.296875 
L 52.59375 62.3125 
Q 48.875 64.0625 45.09375 64.984375 
Q 41.3125 65.921875 37.59375 65.921875 
Q 27.828125 65.921875 22.671875 59.328125 
Q 17.53125 52.734375 16.796875 39.40625 
Q 19.671875 43.65625 24.015625 45.921875 
Q 28.375 48.1875 33.59375 48.1875 
Q 44.578125 48.1875 50.953125 41.515625 
Q 57.328125 34.859375 57.328125 23.390625 
Q 57.328125 12.15625 50.6875 5.359375 
Q 44.046875 -1.421875 33.015625 -1.421875 
Q 20.359375 -1.421875 13.671875 8.265625 
Q 6.984375 17.96875 6.984375 36.375 
Q 6.984375 53.65625 15.1875 63.9375 
Q 23.390625 74.21875 37.203125 74.21875 
Q 40.921875 74.21875 44.703125 73.484375 
Q 48.484375 72.75 52.59375 71.296875 
" id="DejaVuSans-36"/>
      </defs>
      <g transform="translate(260.673892 322.182437)scale(0.1 -0.1)">
       <use xlink:href="#DejaVuSans-30"/>
       <use x="63.623047" xlink:href="#DejaVuSans-2e"/>
       <use x="95.410156" xlink:href="#DejaVuSans-36"/>
      </g>
     </g>
    </g>
    <g id="xtick_5">
     <g id="line2d_5">
      <g>
       <use style="stroke:#000000;stroke-width:0.8;" x="333.556364" xlink:href="#md8ef2a811a" y="307.584"/>
      </g>
     </g>
     <g id="text_5">
      <!-- 0.8 -->
      <defs>
       <path d="M 31.78125 34.625 
Q 24.75 34.625 20.71875 30.859375 
Q 16.703125 27.09375 16.703125 20.515625 
Q 16.703125 13.921875 20.71875 10.15625 
Q 24.75 6.390625 31.78125 6.390625 
Q 38.8125 6.390625 42.859375 10.171875 
Q 46.921875 13.96875 46.921875 20.515625 
Q 46.921875 27.09375 42.890625 30.859375 
Q 38.875 34.625 31.78125 34.625 
M 21.921875 38.8125 
Q 15.578125 40.375 12.03125 44.71875 
Q 8.5 49.078125 8.5 55.328125 
Q 8.5 64.0625 14.71875 69.140625 
Q 20.953125 74.21875 31.78125 74.21875 
Q 42.671875 74.21875 48.875 69.140625 
Q 55.078125 64.0625 55.078125 55.328125 
Q 55.078125 49.078125 51.53125 44.71875 
Q 48 40.375 41.703125 38.8125 
Q 48.828125 37.15625 52.796875 32.3125 
Q 56.78125 27.484375 56.78125 20.515625 
Q 56.78125 9.90625 50.3125 4.234375 
Q 43.84375 -1.421875 31.78125 -1.421875 
Q 19.734375 -1.421875 13.25 4.234375 
Q 6.78125 9.90625 6.78125 20.515625 
Q 6.78125 27.484375 10.78125 32.3125 
Q 14.796875 37.15625 21.921875 38.8125 
M 18.3125 54.390625 
Q 18.3125 48.734375 21.84375 45.5625 
Q 25.390625 42.390625 31.78125 42.390625 
Q 38.140625 42.390625 41.71875 45.5625 
Q 45.3125 48.734375 45.3125 54.390625 
Q 45.3125 60.0625 41.71875 63.234375 
Q 38.140625 66.40625 31.78125 66.40625 
Q 25.390625 66.40625 21.84375 63.234375 
Q 18.3125 60.0625 18.3125 54.390625 
" id="DejaVuSans-38"/>
      </defs>
      <g transform="translate(325.604801 322.182437)scale(0.1 -0.1)">
       <use xlink:href="#DejaVuSans-30"/>
       <use x="63.623047" xlink:href="#DejaVuSans-2e"/>
       <use x="95.410156" xlink:href="#DejaVuSans-38"/>
      </g>
     </g>
    </g>
    <g id="xtick_6">
     <g id="line2d_6">
      <g>
       <use style="stroke:#000000;stroke-width:0.8;" x="398.487273" xlink:href="#md8ef2a811a" y="307.584"/>
      </g>
     </g>
     <g id="text_6">
      <!-- 1.0 -->
      <defs>
       <path d="M 12.40625 8.296875 
L 28.515625 8.296875 
L 28.515625 63.921875 
L 10.984375 60.40625 
L 10.984375 69.390625 
L 28.421875 72.90625 
L 38.28125 72.90625 
L 38.28125 8.296875 
L 54.390625 8.296875 
L 54.390625 0 
L 12.40625 0 
z
" id="DejaVuSans-31"/>
      </defs>
      <g transform="translate(390.53571 322.182437)scale(0.1 -0.1)">
       <use xlink:href="#DejaVuSans-31"/>
       <use x="63.623047" xlink:href="#DejaVuSans-2e"/>
       <use x="95.410156" xlink:href="#DejaVuSans-30"/>
      </g>
     </g>
    </g>
   </g>
   <g id="matplotlib.axis_2">
    <g id="ytick_1">
     <g id="line2d_7">
      <defs>
       <path d="M 0 0 
L -3.5 0 
" id="med4549f6f9" style="stroke:#000000;stroke-width:0.8;"/>
      </defs>
      <g>
       <use style="stroke:#000000;stroke-width:0.8;" x="57.6" xlink:href="#med4549f6f9" y="287.47965"/>
      </g>
     </g>
     <g id="text_7">
      <!-- 0.2 -->
      <g transform="translate(34.696875 291.278869)scale(0.1 -0.1)">
       <use xlink:href="#DejaVuSans-30"/>
       <use x="63.623047" xlink:href="#DejaVuSans-2e"/>
       <use x="95.410156" xlink:href="#DejaVuSans-32"/>
      </g>
     </g>
    </g>
    <g id="ytick_2">
     <g id="line2d_8">
      <g>
       <use style="stroke:#000000;stroke-width:0.8;" x="57.6" xlink:href="#med4549f6f9" y="250.434825"/>
      </g>
     </g>
     <g id="text_8">
      <!-- 0.3 -->
      <defs>
       <path d="M 40.578125 39.3125 
Q 47.65625 37.796875 51.625 33 
Q 55.609375 28.21875 55.609375 21.1875 
Q 55.609375 10.40625 48.1875 4.484375 
Q 40.765625 -1.421875 27.09375 -1.421875 
Q 22.515625 -1.421875 17.65625 -0.515625 
Q 12.796875 0.390625 7.625 2.203125 
L 7.625 11.71875 
Q 11.71875 9.328125 16.59375 8.109375 
Q 21.484375 6.890625 26.8125 6.890625 
Q 36.078125 6.890625 40.9375 10.546875 
Q 45.796875 14.203125 45.796875 21.1875 
Q 45.796875 27.640625 41.28125 31.265625 
Q 36.765625 34.90625 28.71875 34.90625 
L 20.21875 34.90625 
L 20.21875 43.015625 
L 29.109375 43.015625 
Q 36.375 43.015625 40.234375 45.921875 
Q 44.09375 48.828125 44.09375 54.296875 
Q 44.09375 59.90625 40.109375 62.90625 
Q 36.140625 65.921875 28.71875 65.921875 
Q 24.65625 65.921875 20.015625 65.03125 
Q 15.375 64.15625 9.8125 62.3125 
L 9.8125 71.09375 
Q 15.4375 72.65625 20.34375 73.4375 
Q 25.25 74.21875 29.59375 74.21875 
Q 40.828125 74.21875 47.359375 69.109375 
Q 53.90625 64.015625 53.90625 55.328125 
Q 53.90625 49.265625 50.4375 45.09375 
Q 46.96875 40.921875 40.578125 39.3125 
" id="DejaVuSans-33"/>
      </defs>
      <g transform="translate(34.696875 254.234044)scale(0.1 -0.1)">
       <use xlink:href="#DejaVuSans-30"/>
       <use x="63.623047" xlink:href="#DejaVuSans-2e"/>
       <use x="95.410156" xlink:href="#DejaVuSans-33"/>
      </g>
     </g>
    </g>
    <g id="ytick_3">
     <g id="line2d_9">
      <g>
       <use style="stroke:#000000;stroke-width:0.8;" x="57.6" xlink:href="#med4549f6f9" y="213.390001"/>
      </g>
     </g>
     <g id="text_9">
      <!-- 0.4 -->
      <g transform="translate(34.696875 217.189219)scale(0.1 -0.1)">
       <use xlink:href="#DejaVuSans-30"/>
       <use x="63.623047" xlink:href="#DejaVuSans-2e"/>
       <use x="95.410156" xlink:href="#DejaVuSans-34"/>
      </g>
     </g>
    </g>
    <g id="ytick_4">
     <g id="line2d_10">
      <g>
       <use style="stroke:#000000;stroke-width:0.8;" x="57.6" xlink:href="#med4549f6f9" y="176.345176"/>
      </g>
     </g>
     <g id="text_10">
      <!-- 0.5 -->
      <defs>
       <path d="M 10.796875 72.90625 
L 49.515625 72.90625 
L 49.515625 64.59375 
L 19.828125 64.59375 
L 19.828125 46.734375 
Q 21.96875 47.46875 24.109375 47.828125 
Q 26.265625 48.1875 28.421875 48.1875 
Q 40.625 48.1875 47.75 41.5 
Q 54.890625 34.8125 54.890625 23.390625 
Q 54.890625 11.625 47.5625 5.09375 
Q 40.234375 -1.421875 26.90625 -1.421875 
Q 22.3125 -1.421875 17.546875 -0.640625 
Q 12.796875 0.140625 7.71875 1.703125 
L 7.71875 11.625 
Q 12.109375 9.234375 16.796875 8.0625 
Q 21.484375 6.890625 26.703125 6.890625 
Q 35.15625 6.890625 40.078125 11.328125 
Q 45.015625 15.765625 45.015625 23.390625 
Q 45.015625 31 40.078125 35.4375 
Q 35.15625 39.890625 26.703125 39.890625 
Q 22.75 39.890625 18.8125 39.015625 
Q 14.890625 38.140625 10.796875 36.28125 
z
" id="DejaVuSans-35"/>
      </defs>
      <g transform="translate(34.696875 180.144395)scale(0.1 -0.1)">
       <use xlink:href="#DejaVuSans-30"/>
       <use x="63.623047" xlink:href="#DejaVuSans-2e"/>
       <use x="95.410156" xlink:href="#DejaVuSans-35"/>
      </g>
     </g>
    </g>
    <g id="ytick_5">
     <g id="line2d_11">
      <g>
       <use style="stroke:#000000;stroke-width:0.8;" x="57.6" xlink:href="#med4549f6f9" y="139.300351"/>
      </g>
     </g>
     <g id="text_11">
      <!-- 0.6 -->
      <g transform="translate(34.696875 143.09957)scale(0.1 -0.1)">
       <use xlink:href="#DejaVuSans-30"/>
       <use x="63.623047" xlink:href="#DejaVuSans-2e"/>
       <use x="95.410156" xlink:href="#DejaVuSans-36"/>
      </g>
     </g>
    </g>
    <g id="ytick_6">
     <g id="line2d_12">
      <g>
       <use style="stroke:#000000;stroke-width:0.8;" x="57.6" xlink:href="#med4549f6f9" y="102.255527"/>
      </g>
     </g>
     <g id="text_12">
      <!-- 0.7 -->
      <defs>
       <path d="M 8.203125 72.90625 
L 55.078125 72.90625 
L 55.078125 68.703125 
L 28.609375 0 
L 18.3125 0 
L 43.21875 64.59375 
L 8.203125 64.59375 
z
" id="DejaVuSans-37"/>
      </defs>
      <g transform="translate(34.696875 106.054746)scale(0.1 -0.1)">
       <use xlink:href="#DejaVuSans-30"/>
       <use x="63.623047" xlink:href="#DejaVuSans-2e"/>
       <use x="95.410156" xlink:href="#DejaVuSans-37"/>
      </g>
     </g>
    </g>
    <g id="ytick_7">
     <g id="line2d_13">
      <g>
       <use style="stroke:#000000;stroke-width:0.8;" x="57.6" xlink:href="#med4549f6f9" y="65.210702"/>
      </g>
     </g>
     <g id="text_13">
      <!-- 0.8 -->
      <g transform="translate(34.696875 69.009921)scale(0.1 -0.1)">
       <use xlink:href="#DejaVuSans-30"/>
       <use x="63.623047" xlink:href="#DejaVuSans-2e"/>
       <use x="95.410156" xlink:href="#DejaVuSans-38"/>
      </g>
     </g>
    </g>
   </g>
   <g id="line2d_14">
    <path clip-path="url(#p668b27dcbe)" d="M 73.832727 79.118441 
L 74.92584 77.203594 
L 76.018953 119.171305 
L 77.112066 74.82013 
L 78.205179 96.917738 
L 79.298292 64.052681 
L 80.391405 204.092861 
L 81.484518 130.838943 
L 82.577631 159.64648 
L 83.670744 267.447661 
L 84.763857 110.529118 
L 85.85697 75.877759 
L 86.950083 90.081486 
L 88.043196 74.03515 
L 89.136309 134.67123 
L 91.322534 67.343002 
L 92.415647 143.680902 
L 93.50876 116.402204 
L 94.601873 111.115908 
L 95.694986 95.227012 
L 96.788099 59.791785 
L 97.881212 224.395277 
L 98.974325 107.7289 
L 100.067438 76.354526 
L 101.160551 87.471308 
L 102.253664 80.177182 
L 103.346777 104.069982 
L 104.43989 61.532522 
L 105.533003 215.785319 
L 106.626116 116.887862 
L 107.719229 105.268382 
L 108.812342 77.990426 
L 109.905455 80.359072 
L 110.998567 104.494886 
L 112.09168 61.606241 
L 113.184793 214.188687 
L 114.277906 118.772703 
L 115.371019 112.130566 
L 116.464132 98.388418 
L 117.557245 63.746691 
L 118.650358 177.204616 
L 119.743471 147.86956 
L 120.836584 226.882837 
L 121.929697 206.989396 
L 123.02281 256.767638 
L 124.115923 118.594517 
L 125.209036 105.446938 
L 126.302149 78.35791 
L 127.395262 78.995452 
L 128.488375 110.539861 
L 129.581488 64.813211 
L 130.674601 173.076711 
L 131.767713 147.294995 
L 132.860826 225.516994 
L 133.953939 211.558875 
L 135.047052 245.983519 
L 136.140165 142.473982 
L 137.233278 197.805984 
L 138.326391 283.568087 
L 139.419504 146.148087 
L 140.512617 139.341471 
L 141.60573 200.347259 
L 142.698843 279.72802 
L 143.791956 131.082328 
L 144.885069 110.744719 
L 145.978182 92.92764 
L 147.071295 58.156997 
L 148.164408 249.544638 
L 149.257521 112.366541 
L 150.350634 73.422428 
L 151.443747 103.312045 
L 152.53686 61.49844 
L 153.629972 217.93503 
L 154.723085 114.41512 
L 155.816198 96.659906 
L 156.909311 61.285433 
L 158.002424 205.053804 
L 159.095537 129.618316 
L 160.18865 154.712851 
L 161.281763 254.554951 
L 162.374876 123.963794 
L 163.467989 125.552647 
L 164.561102 148.236674 
L 165.654215 234.949348 
L 166.747328 179.939635 
L 167.840441 282.191131 
L 168.933554 139.600044 
L 170.026667 127.565292 
L 171.11978 154.59653 
L 172.212893 254.48827 
L 173.306006 124.10123 
L 174.399118 126.08461 
L 175.492231 150.353786 
L 176.585344 241.804863 
L 177.678457 157.655692 
L 178.77157 246.623283 
L 179.864683 143.091519 
L 180.957796 199.931245 
L 182.050909 280.04216 
L 183.144022 132.137364 
L 184.237135 112.867387 
L 185.330248 99.790935 
L 186.423361 66.067919 
L 187.516474 154.625054 
L 188.609587 132.675625 
L 189.7027 173.266751 
L 190.795813 291.148569 
L 191.888926 189.719469 
L 192.982039 160.179555 
L 194.075152 260.71958 
L 195.168264 114.074308 
L 196.261377 89.444315 
L 197.35449 57.998445 
L 198.447603 262.052082 
L 199.540716 150.919831 
L 200.633829 144.190268 
L 201.726942 217.664973 
L 202.820055 236.759358 
L 203.913168 169.680812 
L 205.006281 272.232741 
L 206.099394 113.708305 
L 207.192507 78.76281 
L 208.28562 78.452745 
L 209.378733 113.040757 
L 210.471846 67.154444 
L 211.564959 150.277474 
L 212.658072 126.781423 
L 213.751185 150.260433 
L 214.844298 241.416633 
L 215.93741 158.867057 
L 217.030523 249.789875 
L 218.123636 134.64641 
L 219.216749 167.702248 
L 220.309862 283.386197 
L 221.402975 144.277694 
L 222.496088 136.148207 
L 223.589201 188.245826 
L 224.682314 294.372951 
L 225.775427 216.33136 
L 226.86854 125.53079 
L 227.961653 137.212135 
L 229.054766 194.679771 
L 230.147879 288.470969 
L 231.240992 172.587719 
L 232.334105 165.839264 
L 233.427218 275.078895 
L 234.520331 118.149238 
L 235.613444 85.855783 
L 236.706556 61.25024 
L 237.799669 234.740785 
L 238.892782 101.75394 
L 239.985895 62.998015 
L 241.079008 187.633845 
L 242.172121 145.16714 
L 243.265234 216.163917 
L 244.358347 241.143242 
L 245.45146 156.185382 
L 246.544573 242.791737 
L 247.637686 154.332771 
L 248.730799 237.319105 
L 249.823912 171.744579 
L 250.917025 274.984801 
L 252.010138 118.056626 
L 253.103251 85.687599 
L 254.196364 61.483252 
L 255.289477 232.62923 
L 256.38259 102.33258 
L 257.475702 64.15937 
L 258.568815 174.848565 
L 259.661928 147.650255 
L 260.755041 226.47201 
L 261.848154 208.370427 
L 262.941267 253.668468 
L 264.03438 124.18384 
L 265.127493 126.532853 
L 266.220606 152.145274 
L 267.313719 247.353807 
L 268.406832 141.311144 
L 269.499945 193.335414 
L 270.593058 289.553049 
L 271.686171 179.570669 
L 272.779284 165.69553 
L 273.872397 273.849377 
L 274.96551 115.961001 
L 276.058623 82.191679 
L 277.151736 68.172806 
L 278.244848 176.204406 
L 279.337961 148.089977 
L 280.431074 227.757836 
L 281.524187 204.056928 
L 282.6173 262.849657 
L 283.710413 111.571189 
L 284.803526 81.135531 
L 285.896639 70.599242 
L 286.989752 158.653309 
L 288.082865 137.741135 
L 289.175978 192.62897 
L 290.269091 290.712552 
L 291.362204 187.586798 
L 292.455317 161.817307 
L 293.54843 264.798956 
L 294.641543 110.905123 
L 295.734656 78.529798 
L 296.827769 78.981375 
L 297.920882 110.582462 
L 299.013994 64.848774 
L 300.107107 172.70404 
L 301.20022 147.190158 
L 302.293333 225.212856 
L 303.386446 212.568346 
L 304.479559 243.40594 
L 305.572672 149.685127 
L 306.665785 223.006467 
L 307.758898 219.565002 
L 308.852011 223.91814 
L 309.945124 210.838724 
L 311.038237 247.972456 
L 312.13135 137.229175 
L 313.224463 177.92699 
L 314.317576 294.316272 
L 315.410689 215.204456 
L 316.503802 127.215218 
L 317.596915 143.91095 
L 318.690028 219.691325 
L 319.78314 230.571761 
L 320.876253 189.472751 
L 321.969366 281.786972 
L 323.062479 138.279396 
L 324.155592 125.027351 
L 325.248705 144.610357 
L 326.341818 222.474503 
L 327.434931 221.697303 
L 328.528044 217.497901 
L 329.621157 230.129446 
L 330.71427 191.069012 
L 331.807383 280.74416 
L 332.900496 134.368574 
L 333.993609 117.344625 
L 335.086722 115.413849 
L 336.179835 109.904172 
L 337.272948 91.428065 
L 338.366061 57.709496 
L 339.459174 259.327065 
L 340.552287 139.538179 
L 341.645399 124.593926 
L 342.738512 142.755152 
L 343.831625 215.814214 
L 344.924738 242.388319 
L 346.017851 152.492384 
L 347.110964 231.943531 
L 348.204077 189.71169 
L 349.29719 281.457273 
L 350.390303 136.998756 
L 351.483416 122.540161 
L 352.576529 134.937212 
L 353.669642 186.085372 
L 354.762755 295.488 
L 355.855868 226.148238 
L 356.948981 112.140938 
L 358.042094 88.497449 
L 359.135207 58.428165 
L 360.22832 259.48821 
L 361.321433 140.135342 
L 362.414545 125.728609 
L 363.507658 147.197567 
L 364.600771 231.417494 
L 365.693884 191.841397 
L 366.786997 279.95103 
L 367.88011 131.603178 
L 368.973223 111.802719 
L 370.066336 96.299089 
L 371.159449 60.913132 
L 372.252562 209.640694 
L 373.345675 124.198288 
L 374.438788 132.966057 
L 375.531901 178.037013 
L 376.625014 294.914176 
L 377.718127 220.456301 
L 378.81124 119.557683 
L 379.904353 114.172106 
L 380.997466 105.310984 
L 382.090579 78.257519 
L 383.183691 79.353675 
L 384.276804 108.906184 
L 385.369917 63.581471 
L 386.46303 186.82738 
L 387.556143 145.613901 
L 388.649256 217.837973 
L 389.742369 236.109962 
L 390.835482 171.733836 
L 391.928595 275.151132 
L 393.021708 118.381509 
L 394.114821 86.252903 
L 395.207934 60.734206 
L 396.301047 239.43066 
L 397.39416 102.048817 
L 398.487273 62.39937 
L 398.487273 62.39937 
" style="fill:none;stroke:#1f77b4;stroke-linecap:square;stroke-width:1.5;"/>
   </g>
   <g id="line2d_15">
    <path clip-path="url(#p668b27dcbe)" d="M 73.832727 80.990761 
L 74.92584 83.204172 
L 76.018953 118.17344 
L 77.112066 81.942568 
L 78.205179 96.506163 
L 79.298292 74.79234 
L 80.391405 194.524774 
L 81.484518 131.470159 
L 82.577631 160.21008 
L 83.670744 256.856385 
L 84.763857 121.449916 
L 85.85697 78.722961 
L 86.950083 92.924915 
L 88.043196 81.724739 
L 89.136309 130.128204 
L 91.322534 76.475723 
L 92.415647 140.72094 
L 93.50876 117.203514 
L 94.601873 111.502678 
L 95.694986 98.016212 
L 96.788099 72.391736 
L 97.881212 215.19216 
L 98.974325 110.017898 
L 100.067438 80.615689 
L 101.160551 91.451816 
L 102.253664 86.195239 
L 103.346777 103.522534 
L 104.43989 72.671632 
L 105.533003 204.166585 
L 106.626116 118.175466 
L 107.719229 105.78588 
L 108.812342 84.634587 
L 109.905455 86.63983 
L 110.998567 105.47497 
L 112.09168 72.70731 
L 113.184793 202.750687 
L 114.277906 119.918209 
L 115.371019 112.214756 
L 116.464132 100.599826 
L 117.557245 74.901953 
L 118.650358 172.849265 
L 119.743471 148.634138 
L 120.836584 226.050992 
L 121.929697 209.375373 
L 123.02281 254.355653 
L 124.115923 126.666414 
L 126.302149 84.860282 
L 127.395262 85.638533 
L 128.488375 110.635275 
L 129.581488 74.871922 
L 130.674601 164.668674 
L 131.767713 148.026098 
L 132.860826 224.708913 
L 133.953939 213.634513 
L 135.047052 246.189475 
L 136.140165 148.17845 
L 137.233278 200.501803 
L 138.326391 269.516973 
L 139.419504 146.25914 
L 140.512617 139.217389 
L 142.698843 267.09622 
L 143.791956 134.848718 
L 144.885069 109.554977 
L 145.978182 95.92709 
L 147.071295 71.372052 
L 148.164408 234.702328 
L 149.257521 113.210549 
L 150.350634 76.485389 
L 151.443747 102.770988 
L 152.53686 73.060948 
L 153.629972 206.042499 
L 154.723085 115.917088 
L 155.816198 97.973324 
L 156.909311 73.193992 
L 158.002424 198.553284 
L 159.095537 130.279359 
L 160.18865 155.067141 
L 161.281763 247.317143 
L 162.374876 131.433056 
L 163.467989 125.302754 
L 164.561102 147.132392 
L 165.654215 231.339516 
L 166.747328 183.237844 
L 167.840441 270.37756 
L 168.933554 143.022596 
L 170.026667 126.667344 
L 171.11978 153.830882 
L 172.212893 247.19522 
L 173.306006 131.546104 
L 174.399118 125.842009 
L 175.492231 149.265933 
L 176.585344 237.084644 
L 177.678457 161.640874 
L 178.77157 244.580812 
L 179.864683 148.100945 
L 180.957796 202.631609 
L 182.050909 267.403625 
L 183.144022 135.654481 
L 184.237135 111.651528 
L 185.330248 101.633891 
L 186.423361 76.410142 
L 187.516474 151.270565 
L 188.609587 133.072013 
L 189.7027 173.300854 
L 190.795813 272.635455 
L 191.888926 183.353147 
L 192.982039 163.27333 
L 194.075152 253.905984 
L 195.168264 123.653254 
L 196.261377 90.83331 
L 197.35449 71.001385 
L 198.447603 243.455403 
L 199.540716 144.939892 
L 200.633829 144.64976 
L 201.726942 216.886897 
L 202.820055 235.850273 
L 203.913168 175.014097 
L 205.006281 263.513556 
L 206.099394 123.779477 
L 207.192507 80.705972 
L 208.28562 84.093083 
L 209.378733 112.760509 
L 210.471846 76.476751 
L 211.564959 143.024426 
L 212.658072 127.213048 
L 213.751185 149.590736 
L 214.844298 236.790269 
L 215.93741 162.796951 
L 217.030523 247.08076 
L 218.123636 140.520371 
L 219.216749 169.453846 
L 220.309862 267.763258 
L 221.402975 147.906858 
L 222.496088 135.775849 
L 223.589201 188.255403 
L 224.682314 275.332759 
L 226.86854 126.169072 
L 227.961653 137.057468 
L 229.054766 194.111068 
L 230.147879 272.208617 
L 231.240992 166.819397 
L 232.334105 168.753062 
L 233.427218 263.512078 
L 234.520331 127.516059 
L 235.613444 86.594216 
L 236.706556 72.557089 
L 237.799669 223.629967 
L 238.892782 104.897684 
L 239.985895 69.120812 
L 241.079008 181.187706 
L 242.172121 145.885957 
L 243.265234 216.650831 
L 244.358347 239.505658 
L 245.45146 161.540615 
L 246.544573 241.465372 
L 247.637686 158.57906 
L 248.730799 236.967499 
L 249.823912 175.376192 
L 250.917025 265.434703 
L 252.010138 127.079089 
L 253.103251 86.450574 
L 254.196364 72.701972 
L 255.289477 221.967231 
L 256.38259 105.383631 
L 257.475702 70.283861 
L 258.568815 169.271181 
L 259.661928 148.398531 
L 260.755041 225.612675 
L 261.848154 210.667406 
L 262.941267 252.072959 
L 264.03438 131.460791 
L 265.127493 126.298452 
L 266.220606 151.076003 
L 267.313719 241.589474 
L 268.406832 146.428192 
L 269.499945 196.040257 
L 270.593058 272.920786 
L 271.686171 172.405346 
L 272.779284 168.88743 
L 273.872397 262.898022 
L 274.96551 125.790414 
L 276.058623 83.503523 
L 277.151736 77.013062 
L 278.244848 171.96142 
L 279.337961 148.874045 
L 280.431074 226.792403 
L 281.524187 206.607055 
L 282.6173 258.675217 
L 283.710413 120.897686 
L 284.803526 83.504076 
L 285.896639 79.081873 
L 286.989752 155.166669 
L 288.082865 138.179619 
L 289.175978 193.050971 
L 290.269091 273.463864 
L 291.362204 178.715304 
L 292.455317 164.983078 
L 293.54843 256.80974 
L 294.641543 121.444618 
L 295.734656 81.177851 
L 296.827769 84.851739 
L 297.920882 110.640864 
L 299.013994 74.896091 
L 300.107107 164.312271 
L 301.20022 147.916645 
L 302.293333 224.425458 
L 303.386446 214.567874 
L 304.479559 244.146577 
L 305.572672 155.111714 
L 306.665785 224.478045 
L 307.758898 221.069737 
L 308.852011 227.643003 
L 309.945124 215.56412 
L 311.038237 247.68328 
L 312.13135 143.244617 
L 313.224463 180.183283 
L 314.317576 274.826474 
L 316.503802 127.959755 
L 317.596915 143.954356 
L 318.690028 217.956802 
L 319.78314 230.585183 
L 320.876253 194.878784 
L 321.969366 270.570875 
L 323.062479 141.124497 
L 324.155592 124.018594 
L 325.248705 143.692253 
L 326.341818 220.40336 
L 327.434931 222.8028 
L 328.528044 221.837366 
L 329.621157 233.027819 
L 330.71427 196.386495 
L 331.807383 270.003205 
L 332.900496 138.039677 
L 333.993609 116.137186 
L 335.086722 115.44271 
L 336.179835 110.523105 
L 337.272948 94.958895 
L 338.366061 71.134548 
L 339.459174 241.599564 
L 340.552287 135.342647 
L 341.645399 123.772755 
L 342.738512 141.847672 
L 343.831625 214.314249 
L 344.924738 240.430282 
L 346.017851 157.906608 
L 347.110964 232.366708 
L 348.204077 192.924234 
L 349.29719 270.416752 
L 350.390303 140.135895 
L 351.483416 121.443154 
L 352.576529 134.054816 
L 353.669642 185.474214 
L 354.762755 275.827062 
L 355.855868 209.168276 
L 356.948981 111.973282 
L 359.135207 71.385806 
L 360.22832 241.761158 
L 361.321433 135.756549 
L 362.414545 124.95065 
L 363.507658 146.327053 
L 364.600771 228.318691 
L 365.693884 194.828536 
L 366.786997 269.586229 
L 367.88011 135.908483 
L 368.973223 110.596587 
L 370.066336 98.701744 
L 371.159449 73.076177 
L 372.252562 202.624673 
L 373.345675 125.039333 
L 374.438788 132.682943 
L 375.531901 177.403234 
L 376.625014 275.047396 
L 377.718127 206.358847 
L 378.81124 119.840873 
L 379.904353 114.138773 
L 380.997466 106.483834 
L 382.090579 84.901504 
L 383.183691 85.913676 
L 384.276804 109.22767 
L 385.369917 74.038427 
L 386.46303 177.690166 
L 387.556143 146.345146 
L 388.649256 218.175578 
L 389.742369 235.358926 
L 390.835482 177.078 
L 391.928595 265.513115 
L 393.021708 127.331843 
L 394.114821 86.934549 
L 395.207934 72.235222 
L 396.301047 227.259021 
L 397.39416 105.085926 
L 398.487273 68.139269 
L 398.487273 68.139269 
" style="fill:none;stroke:#ff7f0e;stroke-linecap:square;stroke-width:1.5;"/>
   </g>
   <g id="line2d_16">
    <path clip-path="url(#p668b27dcbe)" d="M 73.832727 131.688509 
L 74.92584 117.560026 
L 76.018953 131.862454 
L 77.112066 123.165337 
L 78.205179 117.718957 
L 79.298292 117.610728 
L 80.391405 205.747311 
L 81.484518 143.203986 
L 82.577631 165.088178 
L 83.670744 266.863598 
L 84.763857 182.255337 
L 85.85697 132.113018 
L 86.950083 117.683053 
L 88.043196 118.266394 
L 89.136309 138.321797 
L 90.229421 129.17482 
L 91.322534 132.780995 
L 92.415647 148.0858 
L 93.50876 132.308117 
L 94.601873 147.350576 
L 95.694986 143.130851 
L 96.788099 128.360674 
L 97.881212 229.145876 
L 98.974325 132.313878 
L 100.067438 134.648345 
L 101.160551 117.721779 
L 102.253664 119.247964 
L 103.346777 124.572445 
L 104.43989 118.309128 
L 105.533003 217.503135 
L 106.626116 137.320039 
L 107.719229 144.464349 
L 108.812342 137.627411 
L 109.905455 117.708598 
L 110.998567 126.580334 
L 112.09168 118.401325 
L 113.184793 215.925536 
L 114.277906 138.127079 
L 115.371019 146.3786 
L 116.464132 144.009213 
L 117.557245 131.265863 
L 118.650358 181.70907 
L 119.743471 153.817489 
L 120.836584 233.292854 
L 121.929697 225.347668 
L 123.02281 260.550807 
L 124.115923 192.068922 
L 125.209036 143.459298 
L 126.302149 137.727003 
L 127.395262 117.745349 
L 128.488375 128.568553 
L 129.581488 120.002148 
L 130.674601 172.591812 
L 131.767713 153.301213 
L 132.860826 231.84113 
L 133.953939 227.482826 
L 135.047052 251.812647 
L 136.140165 201.80282 
L 137.233278 208.866725 
L 138.326391 277.958832 
L 139.419504 162.954145 
L 140.512617 146.99483 
L 141.60573 205.560724 
L 142.698843 275.170043 
L 143.791956 167.523316 
L 144.885069 137.76105 
L 145.978182 142.347945 
L 147.071295 126.364016 
L 148.164408 251.436484 
L 149.257521 120.267592 
L 150.350634 128.552391 
L 151.443747 119.630329 
L 152.53686 118.32281 
L 153.629972 219.569458 
L 154.723085 135.984826 
L 155.816198 141.905942 
L 156.909311 129.526002 
L 158.002424 210.210628 
L 159.095537 142.641977 
L 160.18865 160.43227 
L 161.281763 256.594811 
L 162.374876 195.066966 
L 163.467989 149.348979 
L 164.561102 157.232193 
L 165.654215 239.426318 
L 166.747328 213.454703 
L 167.840441 279.325092 
L 168.933554 165.247185 
L 170.026667 141.37065 
L 171.11978 159.003282 
L 172.212893 256.503474 
L 173.306006 195.128816 
L 174.399118 149.517575 
L 175.492231 157.892336 
L 176.585344 245.635685 
L 177.678457 205.297048 
L 178.77157 253.464377 
L 179.864683 200.940465 
L 180.957796 211.140458 
L 182.050909 275.45551 
L 183.144022 167.102929 
L 184.237135 138.169787 
L 185.330248 144.302223 
L 186.423361 132.586005 
L 187.516474 158.828091 
L 188.609587 138.563024 
L 189.7027 177.270196 
L 190.795813 283.461934 
L 191.888926 194.933224 
L 192.982039 169.55306 
L 194.075152 262.595848 
L 195.168264 189.366564 
L 196.261377 138.091813 
L 197.35449 123.355568 
L 198.447603 261.458437 
L 199.540716 154.198144 
L 200.633829 150.71539 
L 201.726942 223.202469 
L 202.820055 239.680686 
L 203.913168 214.562236 
L 205.006281 272.597795 
L 206.099394 177.076165 
L 207.192507 131.62415 
L 208.28562 117.473484 
L 209.378733 129.309355 
L 210.471846 120.829418 
L 211.564959 147.968379 
L 212.658072 134.704866 
L 213.751185 157.601844 
L 214.844298 245.296949 
L 215.93741 205.633983 
L 217.030523 256.05102 
L 218.123636 198.714462 
L 219.216749 176.111107 
L 220.309862 278.356654 
L 221.402975 164.273344 
L 222.496088 144.652844 
L 223.589201 192.830054 
L 224.682314 285.220807 
L 226.86854 149.084515 
L 227.961653 153.260555 
L 229.054766 198.820192 
L 230.147879 281.243922 
L 231.240992 173.574307 
L 232.334105 176.501829 
L 233.427218 273.029496 
L 234.520331 174.257461 
L 235.613444 132.946388 
L 236.706556 120.578539 
L 237.799669 238.58008 
L 238.892782 126.315885 
L 239.985895 127.135273 
L 241.079008 190.552462 
L 242.172121 150.703486 
L 243.265234 223.854977 
L 244.358347 243.596471 
L 245.45146 207.250523 
L 246.544573 250.224768 
L 247.637686 204.372643 
L 248.730799 245.747577 
L 249.823912 210.461338 
L 250.917025 274.548479 
L 252.010138 174.117903 
L 253.103251 132.91221 
L 254.196364 120.536307 
L 255.289477 236.65164 
L 256.38259 127.535073 
L 257.475702 128.153146 
L 258.568815 177.098642 
L 259.661928 153.651368 
L 260.755041 232.810877 
L 261.848154 225.979924 
L 262.941267 258.084702 
L 264.03438 194.622588 
L 265.127493 149.6394 
L 266.220606 158.436823 
L 267.313719 250.48669 
L 268.406832 200.52366 
L 269.499945 204.196496 
L 270.593058 282.0683 
L 271.686171 180.052777 
L 272.779284 176.340169 
L 273.872397 272.296164 
L 274.96551 175.580875 
L 276.058623 132.207197 
L 277.151736 118.559316 
L 278.244848 182.980109 
L 279.337961 154.130499 
L 280.431074 234.067853 
L 281.524187 224.076305 
L 282.6173 265.386013 
L 283.710413 186.095066 
L 284.803526 134.840619 
L 285.896639 118.295331 
L 286.989752 165.415038 
L 288.082865 143.350676 
L 289.175978 198.321997 
L 290.269091 282.805772 
L 291.362204 187.59191 
L 292.455317 171.520431 
L 293.54843 265.74387 
L 294.641543 185.176711 
L 295.734656 133.692582 
L 296.827769 117.557705 
L 297.920882 128.541087 
L 299.013994 120.025038 
L 300.107107 172.17808 
L 301.20022 153.210287 
L 302.293333 231.530685 
L 303.386446 227.866791 
L 304.479559 249.705528 
L 305.572672 204.637838 
L 306.665785 233.33464 
L 307.758898 231.198156 
L 308.852011 237.821577 
L 309.945124 233.001755 
L 311.038237 253.374568 
L 312.13135 199.598881 
L 313.224463 187.486393 
L 314.317576 285.436513 
L 316.503802 150.315234 
L 317.596915 155.341955 
L 318.690028 224.789294 
L 319.78314 235.563359 
L 320.876253 224.731312 
L 321.969366 278.943892 
L 323.062479 165.401064 
L 324.155592 140.55623 
L 325.248705 156.110032 
L 326.341818 227.473541 
L 329.621157 240.045341 
L 330.71427 225.305414 
L 331.807383 278.256109 
L 332.900496 166.548703 
L 333.993609 139.054419 
L 335.086722 148.509089 
L 336.179835 147.08492 
L 337.272948 142.060859 
L 338.366061 125.131297 
L 339.459174 259.258806 
L 340.552287 143.619606 
L 341.645399 139.808348 
L 342.738512 155.587045 
L 343.831625 220.873826 
L 344.924738 244.621695 
L 346.017851 205.92926 
L 347.110964 241.16861 
L 348.204077 218.157209 
L 349.29719 278.766349 
L 350.390303 165.751902 
L 351.483416 140.033818 
L 352.576529 153.542564 
L 353.669642 189.420537 
L 354.762755 285.974704 
L 355.855868 223.95505 
L 356.948981 139.363656 
L 358.042094 139.098076 
L 359.135207 122.696318 
L 360.22832 259.481303 
L 361.321433 144.102483 
L 362.414545 140.044825 
L 363.507658 156.839947 
L 364.600771 236.114752 
L 365.693884 218.564802 
L 366.786997 277.749692 
L 367.88011 167.563534 
L 368.973223 137.964383 
L 370.066336 143.347515 
L 371.159449 129.318092 
L 372.252562 214.729331 
L 373.345675 140.724092 
L 374.438788 152.114349 
L 375.531901 180.775491 
L 376.625014 285.769944 
L 377.718127 221.464571 
L 378.81124 144.918931 
L 379.904353 146.798413 
L 380.997466 145.873139 
L 382.090579 137.735888 
L 383.183691 117.747721 
L 384.276804 127.854715 
L 385.369917 119.51466 
L 386.46303 187.443223 
L 387.556143 151.222949 
L 388.649256 225.339037 
L 389.742369 239.189354 
L 390.835482 215.643036 
L 391.928595 274.635229 
L 393.021708 173.938825 
L 394.114821 133.0371 
L 395.207934 120.847985 
L 396.301047 242.670797 
L 397.39416 123.686385 
L 398.487273 125.812375 
L 398.487273 125.812375 
" style="fill:none;stroke:#2ca02c;stroke-linecap:square;stroke-width:1.5;"/>
   </g>
   <g id="line2d_17">
    <path clip-path="url(#p668b27dcbe)" d="M 73.832727 69.536635 
L 74.92584 77.038118 
L 76.018953 113.583758 
L 77.112066 75.540979 
L 78.205179 91.233885 
L 79.298292 67.404805 
L 80.391405 114.486431 
L 81.484518 127.422834 
L 82.577631 157.106152 
L 83.670744 198.275539 
L 84.763857 112.389882 
L 85.85697 66.808278 
L 86.950083 87.714116 
L 88.043196 74.500768 
L 89.136309 114.958878 
L 90.229421 98.449373 
L 91.322534 67.489171 
L 92.415647 116.767147 
L 93.50876 113.812169 
L 94.601873 106.471606 
L 95.694986 91.720357 
L 96.788099 64.051692 
L 97.881212 114.657429 
L 98.974325 103.437299 
L 100.067438 70.071322 
L 101.160551 85.946439 
L 102.253664 79.203436 
L 103.346777 98.965156 
L 104.43989 65.31084 
L 105.533003 114.754152 
L 106.626116 112.937516 
L 107.719229 100.222841 
L 108.812342 77.141154 
L 109.905455 80.462984 
L 110.998567 100.0008 
L 112.09168 65.351105 
L 113.184793 114.808087 
L 114.277906 114.985971 
L 115.371019 107.301332 
L 116.464132 94.543424 
L 117.557245 66.651941 
L 118.650358 115.693169 
L 119.743471 136.301197 
L 120.836584 184.7048 
L 121.929697 205.70202 
L 123.02281 210.559595 
L 124.115923 115.473021 
L 125.209036 99.932256 
L 126.302149 77.396501 
L 127.395262 79.360298 
L 128.488375 105.554551 
L 129.581488 67.708263 
L 130.674601 115.825666 
L 131.767713 135.71845 
L 132.860826 184.21677 
L 133.953939 209.852894 
L 135.047052 210.552706 
L 136.140165 138.724178 
L 137.233278 173.89336 
L 138.326391 214.829846 
L 139.419504 126.532276 
L 140.512617 136.017785 
L 142.698843 215.27924 
L 143.791956 124.102294 
L 144.885069 104.517699 
L 145.978182 89.470834 
L 147.071295 63.156646 
L 148.164408 114.093238 
L 149.257521 104.580821 
L 150.350634 64.114444 
L 151.443747 98.749711 
L 152.53686 65.666208 
L 153.629972 114.726687 
L 154.723085 110.309963 
L 155.816198 91.357534 
L 156.909311 64.713594 
L 158.002424 115.092552 
L 159.095537 126.154252 
L 160.18865 152.922487 
L 161.281763 194.203872 
L 162.374876 121.296078 
L 163.467989 121.138611 
L 164.561102 144.293424 
L 165.654215 188.183706 
L 166.747328 177.521853 
L 167.840441 204.511952 
L 168.933554 128.424215 
L 170.026667 123.26371 
L 171.11978 151.481281 
L 172.212893 194.227187 
L 173.306006 121.412729 
L 174.399118 121.707279 
L 175.492231 146.504499 
L 176.585344 190.359674 
L 177.678457 153.681209 
L 178.77157 189.493003 
L 179.864683 138.99632 
L 180.957796 174.548041 
L 182.050909 215.025303 
L 183.144022 124.871504 
L 184.237135 106.846763 
L 185.330248 95.668494 
L 186.423361 68.270286 
L 187.516474 116.420089 
L 188.609587 127.450468 
L 189.7027 162.052049 
L 190.795813 207.324333 
L 191.888926 122.280406 
L 192.982039 153.616545 
L 194.075152 195.074258 
L 195.168264 113.637649 
L 196.261377 82.194198 
L 197.35449 62.836792 
L 198.447603 113.715879 
L 199.540716 100.508134 
L 201.726942 182.062473 
L 202.820055 213.997023 
L 203.913168 168.105758 
L 205.006281 198.787348 
L 206.099394 116.13654 
L 207.192507 69.176453 
L 208.28562 78.014298 
L 209.378733 107.910007 
L 210.471846 69.502465 
L 211.564959 116.584726 
L 212.658072 123.756521 
L 213.751185 147.227865 
L 214.844298 190.205281 
L 215.93741 154.950644 
L 217.030523 190.602146 
L 218.123636 130.907762 
L 219.216749 161.708733 
L 220.309862 203.818111 
L 221.402975 129.379016 
L 222.496088 132.635237 
L 223.589201 169.32366 
L 224.682314 213.256015 
L 225.775427 119.956377 
L 226.86854 115.303214 
L 227.961653 133.6941 
L 229.054766 171.805592 
L 230.147879 214.588978 
L 231.240992 124.744553 
L 232.334105 152.702282 
L 233.427218 200.35435 
L 234.520331 120.622571 
L 235.613444 76.691286 
L 236.706556 64.507508 
L 237.799669 113.752362 
L 238.892782 97.185989 
L 239.985895 55.116423 
L 241.079008 115.38397 
L 242.172121 136.071393 
L 243.265234 181.141709 
L 244.358347 214.244162 
L 245.45146 153.319612 
L 246.544573 188.252097 
L 247.637686 150.344207 
L 248.730799 186.565266 
L 249.823912 168.737302 
L 250.917025 200.042282 
L 252.010138 120.341752 
L 253.103251 76.508906 
L 254.196364 64.695046 
L 255.289477 113.760085 
L 256.38259 97.797328 
L 257.475702 56.721956 
L 258.568815 115.787138 
L 259.661928 136.03433 
L 260.755041 184.539732 
L 261.848154 207.16674 
L 262.941267 210.586595 
L 264.03438 120.657861 
L 265.127493 122.193399 
L 266.220606 148.469719 
L 267.313719 192.024155 
L 268.406832 137.165534 
L 269.499945 172.3302 
L 270.593058 214.119793 
L 271.686171 123.758224 
L 272.779284 153.72312 
L 273.872397 199.863623 
L 274.96551 118.467565 
L 276.058623 72.771725 
L 277.151736 69.967306 
L 278.244848 114.331574 
L 279.337961 136.451178 
L 280.431074 185.013318 
L 281.524187 202.985501 
L 282.6173 210.390555 
L 283.710413 109.908264 
L 284.803526 73.035458 
L 285.896639 72.409902 
L 286.989752 114.621776 
L 288.082865 130.312943 
L 290.269091 214.20921 
L 291.362204 122.206605 
L 292.455317 153.821827 
L 293.54843 196.518118 
L 294.641543 111.984823 
L 295.734656 70.030326 
L 296.827769 78.789096 
L 297.920882 105.585206 
L 299.013994 67.734096 
L 300.107107 115.842438 
L 301.20022 135.634335 
L 302.293333 184.145272 
L 303.386446 210.622783 
L 304.479559 210.53576 
L 305.572672 146.331113 
L 306.665785 182.018646 
L 307.758898 212.518894 
L 308.852011 209.674012 
L 309.945124 208.950032 
L 311.038237 210.671271 
L 312.13135 133.364697 
L 313.224463 166.46994 
L 314.317576 209.378172 
L 315.410689 120.09929 
L 316.503802 117.80545 
L 317.596915 140.980799 
L 318.690028 182.937558 
L 319.78314 213.684088 
L 320.876253 189.971273 
L 321.969366 208.05342 
L 323.062479 127.836263 
L 324.155592 120.515328 
L 325.248705 140.843562 
L 326.341818 183.925913 
L 327.434931 212.932883 
L 328.528044 209.352209 
L 329.621157 210.065068 
L 330.71427 191.666217 
L 331.807383 208.424063 
L 332.900496 127.582628 
L 333.993609 111.973186 
L 335.086722 110.68727 
L 336.179835 105.290694 
L 337.272948 88.411975 
L 338.366061 63.072768 
L 339.459174 113.903243 
L 340.552287 101.671298 
L 342.738512 138.964379 
L 343.831625 181.561333 
L 344.924738 214.432868 
L 346.017851 149.421076 
L 347.110964 184.784502 
L 348.204077 188.276685 
L 349.29719 207.987385 
L 350.390303 128.073182 
L 351.483416 117.68015 
L 352.576529 130.622613 
L 353.669642 167.172702 
L 354.762755 212.661136 
L 355.855868 119.085111 
L 356.948981 94.107329 
L 358.042094 82.484584 
L 359.135207 63.47444 
L 360.22832 113.670828 
L 361.321433 101.597047 
L 363.507658 143.697508 
L 364.600771 187.018782 
L 365.693884 190.378492 
L 366.786997 208.487608 
L 367.88011 126.807248 
L 368.973223 105.689843 
L 370.066336 92.484843 
L 371.159449 64.740627 
L 372.252562 114.998327 
L 373.345675 120.770538 
L 374.438788 129.158138 
L 375.531901 163.316972 
L 376.625014 209.650831 
L 377.718127 119.846668 
L 378.81124 105.857621 
L 379.904353 109.360838 
L 380.997466 100.868149 
L 382.090579 77.490036 
L 383.183691 79.663694 
L 384.276804 104.119388 
L 385.369917 66.770615 
L 386.46303 115.357174 
L 387.556143 136.263196 
L 388.649256 181.650607 
L 389.742369 213.914085 
L 390.835482 170.359237 
L 391.928595 200.095328 
L 393.021708 120.61578 
L 394.114821 77.105602 
L 395.207934 64.065635 
L 396.301047 113.741624 
L 397.39416 97.236159 
L 398.487273 53.568 
L 398.487273 53.568 
" style="fill:none;stroke:#d62728;stroke-linecap:square;stroke-width:1.5;"/>
   </g>
   <g id="patch_3">
    <path d="M 57.6 307.584 
L 57.6 41.472 
" style="fill:none;stroke:#000000;stroke-linecap:square;stroke-linejoin:miter;stroke-width:0.8;"/>
   </g>
   <g id="patch_4">
    <path d="M 414.72 307.584 
L 414.72 41.472 
" style="fill:none;stroke:#000000;stroke-linecap:square;stroke-linejoin:miter;stroke-width:0.8;"/>
   </g>
   <g id="patch_5">
    <path d="M 57.6 307.584 
L 414.72 307.584 
" style="fill:none;stroke:#000000;stroke-linecap:square;stroke-linejoin:miter;stroke-width:0.8;"/>
   </g>
   <g id="patch_6">
    <path d="M 57.6 41.472 
L 414.72 41.472 
" style="fill:none;stroke:#000000;stroke-linecap:square;stroke-linejoin:miter;stroke-width:0.8;"/>
   </g>
   <g id="text_14">
    <!-- Plot of Train Data vs MCMC Uncertainty  -->
    <defs>
     <path d="M 19.671875 64.796875 
L 19.671875 37.40625 
L 32.078125 37.40625 
Q 38.96875 37.40625 42.71875 40.96875 
Q 46.484375 44.53125 46.484375 51.125 
Q 46.484375 57.671875 42.71875 61.234375 
Q 38.96875 64.796875 32.078125 64.796875 
z
M 9.8125 72.90625 
L 32.078125 72.90625 
Q 44.34375 72.90625 50.609375 67.359375 
Q 56.890625 61.8125 56.890625 51.125 
Q 56.890625 40.328125 50.609375 34.8125 
Q 44.34375 29.296875 32.078125 29.296875 
L 19.671875 29.296875 
L 19.671875 0 
L 9.8125 0 
z
" id="DejaVuSans-50"/>
     <path d="M 9.421875 75.984375 
L 18.40625 75.984375 
L 18.40625 0 
L 9.421875 0 
z
" id="DejaVuSans-6c"/>
     <path d="M 30.609375 48.390625 
Q 23.390625 48.390625 19.1875 42.75 
Q 14.984375 37.109375 14.984375 27.296875 
Q 14.984375 17.484375 19.15625 11.84375 
Q 23.34375 6.203125 30.609375 6.203125 
Q 37.796875 6.203125 41.984375 11.859375 
Q 46.1875 17.53125 46.1875 27.296875 
Q 46.1875 37.015625 41.984375 42.703125 
Q 37.796875 48.390625 30.609375 48.390625 
M 30.609375 56 
Q 42.328125 56 49.015625 48.375 
Q 55.71875 40.765625 55.71875 27.296875 
Q 55.71875 13.875 49.015625 6.21875 
Q 42.328125 -1.421875 30.609375 -1.421875 
Q 18.84375 -1.421875 12.171875 6.21875 
Q 5.515625 13.875 5.515625 27.296875 
Q 5.515625 40.765625 12.171875 48.375 
Q 18.84375 56 30.609375 56 
" id="DejaVuSans-6f"/>
     <path d="M 18.3125 70.21875 
L 18.3125 54.6875 
L 36.8125 54.6875 
L 36.8125 47.703125 
L 18.3125 47.703125 
L 18.3125 18.015625 
Q 18.3125 11.328125 20.140625 9.421875 
Q 21.96875 7.515625 27.59375 7.515625 
L 36.8125 7.515625 
L 36.8125 0 
L 27.59375 0 
Q 17.1875 0 13.234375 3.875 
Q 9.28125 7.765625 9.28125 18.015625 
L 9.28125 47.703125 
L 2.6875 47.703125 
L 2.6875 54.6875 
L 9.28125 54.6875 
L 9.28125 70.21875 
z
" id="DejaVuSans-74"/>
     <path id="DejaVuSans-20"/>
     <path d="M 37.109375 75.984375 
L 37.109375 68.5 
L 28.515625 68.5 
Q 23.6875 68.5 21.796875 66.546875 
Q 19.921875 64.59375 19.921875 59.515625 
L 19.921875 54.6875 
L 34.71875 54.6875 
L 34.71875 47.703125 
L 19.921875 47.703125 
L 19.921875 0 
L 10.890625 0 
L 10.890625 47.703125 
L 2.296875 47.703125 
L 2.296875 54.6875 
L 10.890625 54.6875 
L 10.890625 58.5 
Q 10.890625 67.625 15.140625 71.796875 
Q 19.390625 75.984375 28.609375 75.984375 
z
" id="DejaVuSans-66"/>
     <path d="M -0.296875 72.90625 
L 61.375 72.90625 
L 61.375 64.59375 
L 35.5 64.59375 
L 35.5 0 
L 25.59375 0 
L 25.59375 64.59375 
L -0.296875 64.59375 
z
" id="DejaVuSans-54"/>
     <path d="M 41.109375 46.296875 
Q 39.59375 47.171875 37.8125 47.578125 
Q 36.03125 48 33.890625 48 
Q 26.265625 48 22.1875 43.046875 
Q 18.109375 38.09375 18.109375 28.8125 
L 18.109375 0 
L 9.078125 0 
L 9.078125 54.6875 
L 18.109375 54.6875 
L 18.109375 46.1875 
Q 20.953125 51.171875 25.484375 53.578125 
Q 30.03125 56 36.53125 56 
Q 37.453125 56 38.578125 55.875 
Q 39.703125 55.765625 41.0625 55.515625 
z
" id="DejaVuSans-72"/>
     <path d="M 34.28125 27.484375 
Q 23.390625 27.484375 19.1875 25 
Q 14.984375 22.515625 14.984375 16.5 
Q 14.984375 11.71875 18.140625 8.90625 
Q 21.296875 6.109375 26.703125 6.109375 
Q 34.1875 6.109375 38.703125 11.40625 
Q 43.21875 16.703125 43.21875 25.484375 
L 43.21875 27.484375 
z
M 52.203125 31.203125 
L 52.203125 0 
L 43.21875 0 
L 43.21875 8.296875 
Q 40.140625 3.328125 35.546875 0.953125 
Q 30.953125 -1.421875 24.3125 -1.421875 
Q 15.921875 -1.421875 10.953125 3.296875 
Q 6 8.015625 6 15.921875 
Q 6 25.140625 12.171875 29.828125 
Q 18.359375 34.515625 30.609375 34.515625 
L 43.21875 34.515625 
L 43.21875 35.40625 
Q 43.21875 41.609375 39.140625 45 
Q 35.0625 48.390625 27.6875 48.390625 
Q 23 48.390625 18.546875 47.265625 
Q 14.109375 46.140625 10.015625 43.890625 
L 10.015625 52.203125 
Q 14.9375 54.109375 19.578125 55.046875 
Q 24.21875 56 28.609375 56 
Q 40.484375 56 46.34375 49.84375 
Q 52.203125 43.703125 52.203125 31.203125 
" id="DejaVuSans-61"/>
     <path d="M 9.421875 54.6875 
L 18.40625 54.6875 
L 18.40625 0 
L 9.421875 0 
z
M 9.421875 75.984375 
L 18.40625 75.984375 
L 18.40625 64.59375 
L 9.421875 64.59375 
z
" id="DejaVuSans-69"/>
     <path d="M 54.890625 33.015625 
L 54.890625 0 
L 45.90625 0 
L 45.90625 32.71875 
Q 45.90625 40.484375 42.875 44.328125 
Q 39.84375 48.1875 33.796875 48.1875 
Q 26.515625 48.1875 22.3125 43.546875 
Q 18.109375 38.921875 18.109375 30.90625 
L 18.109375 0 
L 9.078125 0 
L 9.078125 54.6875 
L 18.109375 54.6875 
L 18.109375 46.1875 
Q 21.34375 51.125 25.703125 53.5625 
Q 30.078125 56 35.796875 56 
Q 45.21875 56 50.046875 50.171875 
Q 54.890625 44.34375 54.890625 33.015625 
" id="DejaVuSans-6e"/>
     <path d="M 19.671875 64.796875 
L 19.671875 8.109375 
L 31.59375 8.109375 
Q 46.6875 8.109375 53.6875 14.9375 
Q 60.6875 21.78125 60.6875 36.53125 
Q 60.6875 51.171875 53.6875 57.984375 
Q 46.6875 64.796875 31.59375 64.796875 
z
M 9.8125 72.90625 
L 30.078125 72.90625 
Q 51.265625 72.90625 61.171875 64.09375 
Q 71.09375 55.28125 71.09375 36.53125 
Q 71.09375 17.671875 61.125 8.828125 
Q 51.171875 0 30.078125 0 
L 9.8125 0 
z
" id="DejaVuSans-44"/>
     <path d="M 2.984375 54.6875 
L 12.5 54.6875 
L 29.59375 8.796875 
L 46.6875 54.6875 
L 56.203125 54.6875 
L 35.6875 0 
L 23.484375 0 
z
" id="DejaVuSans-76"/>
     <path d="M 44.28125 53.078125 
L 44.28125 44.578125 
Q 40.484375 46.53125 36.375 47.5 
Q 32.28125 48.484375 27.875 48.484375 
Q 21.1875 48.484375 17.84375 46.4375 
Q 14.5 44.390625 14.5 40.28125 
Q 14.5 37.15625 16.890625 35.375 
Q 19.28125 33.59375 26.515625 31.984375 
L 29.59375 31.296875 
Q 39.15625 29.25 43.1875 25.515625 
Q 47.21875 21.78125 47.21875 15.09375 
Q 47.21875 7.46875 41.1875 3.015625 
Q 35.15625 -1.421875 24.609375 -1.421875 
Q 20.21875 -1.421875 15.453125 -0.5625 
Q 10.6875 0.296875 5.421875 2 
L 5.421875 11.28125 
Q 10.40625 8.6875 15.234375 7.390625 
Q 20.0625 6.109375 24.8125 6.109375 
Q 31.15625 6.109375 34.5625 8.28125 
Q 37.984375 10.453125 37.984375 14.40625 
Q 37.984375 18.0625 35.515625 20.015625 
Q 33.0625 21.96875 24.703125 23.78125 
L 21.578125 24.515625 
Q 13.234375 26.265625 9.515625 29.90625 
Q 5.8125 33.546875 5.8125 39.890625 
Q 5.8125 47.609375 11.28125 51.796875 
Q 16.75 56 26.8125 56 
Q 31.78125 56 36.171875 55.265625 
Q 40.578125 54.546875 44.28125 53.078125 
" id="DejaVuSans-73"/>
     <path d="M 9.8125 72.90625 
L 24.515625 72.90625 
L 43.109375 23.296875 
L 61.8125 72.90625 
L 76.515625 72.90625 
L 76.515625 0 
L 66.890625 0 
L 66.890625 64.015625 
L 48.09375 14.015625 
L 38.1875 14.015625 
L 19.390625 64.015625 
L 19.390625 0 
L 9.8125 0 
z
" id="DejaVuSans-4d"/>
     <path d="M 64.40625 67.28125 
L 64.40625 56.890625 
Q 59.421875 61.53125 53.78125 63.8125 
Q 48.140625 66.109375 41.796875 66.109375 
Q 29.296875 66.109375 22.65625 58.46875 
Q 16.015625 50.828125 16.015625 36.375 
Q 16.015625 21.96875 22.65625 14.328125 
Q 29.296875 6.6875 41.796875 6.6875 
Q 48.140625 6.6875 53.78125 8.984375 
Q 59.421875 11.28125 64.40625 15.921875 
L 64.40625 5.609375 
Q 59.234375 2.09375 53.4375 0.328125 
Q 47.65625 -1.421875 41.21875 -1.421875 
Q 24.65625 -1.421875 15.125 8.703125 
Q 5.609375 18.84375 5.609375 36.375 
Q 5.609375 53.953125 15.125 64.078125 
Q 24.65625 74.21875 41.21875 74.21875 
Q 47.75 74.21875 53.53125 72.484375 
Q 59.328125 70.75 64.40625 67.28125 
" id="DejaVuSans-43"/>
     <path d="M 8.6875 72.90625 
L 18.609375 72.90625 
L 18.609375 28.609375 
Q 18.609375 16.890625 22.84375 11.734375 
Q 27.09375 6.59375 36.625 6.59375 
Q 46.09375 6.59375 50.34375 11.734375 
Q 54.59375 16.890625 54.59375 28.609375 
L 54.59375 72.90625 
L 64.5 72.90625 
L 64.5 27.390625 
Q 64.5 13.140625 57.4375 5.859375 
Q 50.390625 -1.421875 36.625 -1.421875 
Q 22.796875 -1.421875 15.734375 5.859375 
Q 8.6875 13.140625 8.6875 27.390625 
z
" id="DejaVuSans-55"/>
     <path d="M 48.78125 52.59375 
L 48.78125 44.1875 
Q 44.96875 46.296875 41.140625 47.34375 
Q 37.3125 48.390625 33.40625 48.390625 
Q 24.65625 48.390625 19.8125 42.84375 
Q 14.984375 37.3125 14.984375 27.296875 
Q 14.984375 17.28125 19.8125 11.734375 
Q 24.65625 6.203125 33.40625 6.203125 
Q 37.3125 6.203125 41.140625 7.25 
Q 44.96875 8.296875 48.78125 10.40625 
L 48.78125 2.09375 
Q 45.015625 0.34375 40.984375 -0.53125 
Q 36.96875 -1.421875 32.421875 -1.421875 
Q 20.0625 -1.421875 12.78125 6.34375 
Q 5.515625 14.109375 5.515625 27.296875 
Q 5.515625 40.671875 12.859375 48.328125 
Q 20.21875 56 33.015625 56 
Q 37.15625 56 41.109375 55.140625 
Q 45.0625 54.296875 48.78125 52.59375 
" id="DejaVuSans-63"/>
     <path d="M 56.203125 29.59375 
L 56.203125 25.203125 
L 14.890625 25.203125 
Q 15.484375 15.921875 20.484375 11.0625 
Q 25.484375 6.203125 34.421875 6.203125 
Q 39.59375 6.203125 44.453125 7.46875 
Q 49.3125 8.734375 54.109375 11.28125 
L 54.109375 2.78125 
Q 49.265625 0.734375 44.1875 -0.34375 
Q 39.109375 -1.421875 33.890625 -1.421875 
Q 20.796875 -1.421875 13.15625 6.1875 
Q 5.515625 13.8125 5.515625 26.8125 
Q 5.515625 40.234375 12.765625 48.109375 
Q 20.015625 56 32.328125 56 
Q 43.359375 56 49.78125 48.890625 
Q 56.203125 41.796875 56.203125 29.59375 
M 47.21875 32.234375 
Q 47.125 39.59375 43.09375 43.984375 
Q 39.0625 48.390625 32.421875 48.390625 
Q 24.90625 48.390625 20.390625 44.140625 
Q 15.875 39.890625 15.1875 32.171875 
z
" id="DejaVuSans-65"/>
     <path d="M 32.171875 -5.078125 
Q 28.375 -14.84375 24.75 -17.8125 
Q 21.140625 -20.796875 15.09375 -20.796875 
L 7.90625 -20.796875 
L 7.90625 -13.28125 
L 13.1875 -13.28125 
Q 16.890625 -13.28125 18.9375 -11.515625 
Q 21 -9.765625 23.484375 -3.21875 
L 25.09375 0.875 
L 2.984375 54.6875 
L 12.5 54.6875 
L 29.59375 11.921875 
L 46.6875 54.6875 
L 56.203125 54.6875 
z
" id="DejaVuSans-79"/>
    </defs>
    <g transform="translate(115.666875 35.472)scale(0.12 -0.12)">
     <use xlink:href="#DejaVuSans-50"/>
     <use x="60.302734" xlink:href="#DejaVuSans-6c"/>
     <use x="88.085938" xlink:href="#DejaVuSans-6f"/>
     <use x="149.267578" xlink:href="#DejaVuSans-74"/>
     <use x="188.476562" xlink:href="#DejaVuSans-20"/>
     <use x="220.263672" xlink:href="#DejaVuSans-6f"/>
     <use x="281.445312" xlink:href="#DejaVuSans-66"/>
     <use x="316.650391" xlink:href="#DejaVuSans-20"/>
     <use x="348.4375" xlink:href="#DejaVuSans-54"/>
     <use x="409.302734" xlink:href="#DejaVuSans-72"/>
     <use x="450.416016" xlink:href="#DejaVuSans-61"/>
     <use x="511.695312" xlink:href="#DejaVuSans-69"/>
     <use x="539.478516" xlink:href="#DejaVuSans-6e"/>
     <use x="602.857422" xlink:href="#DejaVuSans-20"/>
     <use x="634.644531" xlink:href="#DejaVuSans-44"/>
     <use x="711.646484" xlink:href="#DejaVuSans-61"/>
     <use x="772.925781" xlink:href="#DejaVuSans-74"/>
     <use x="812.134766" xlink:href="#DejaVuSans-61"/>
     <use x="873.414062" xlink:href="#DejaVuSans-20"/>
     <use x="905.201172" xlink:href="#DejaVuSans-76"/>
     <use x="964.380859" xlink:href="#DejaVuSans-73"/>
     <use x="1016.480469" xlink:href="#DejaVuSans-20"/>
     <use x="1048.267578" xlink:href="#DejaVuSans-4d"/>
     <use x="1134.546875" xlink:href="#DejaVuSans-43"/>
     <use x="1204.371094" xlink:href="#DejaVuSans-4d"/>
     <use x="1290.650391" xlink:href="#DejaVuSans-43"/>
     <use x="1360.474609" xlink:href="#DejaVuSans-20"/>
     <use x="1392.261719" xlink:href="#DejaVuSans-55"/>
     <use x="1465.455078" xlink:href="#DejaVuSans-6e"/>
     <use x="1528.833984" xlink:href="#DejaVuSans-63"/>
     <use x="1583.814453" xlink:href="#DejaVuSans-65"/>
     <use x="1645.337891" xlink:href="#DejaVuSans-72"/>
     <use x="1686.451172" xlink:href="#DejaVuSans-74"/>
     <use x="1725.660156" xlink:href="#DejaVuSans-61"/>
     <use x="1786.939453" xlink:href="#DejaVuSans-69"/>
     <use x="1814.722656" xlink:href="#DejaVuSans-6e"/>
     <use x="1878.101562" xlink:href="#DejaVuSans-74"/>
     <use x="1917.310547" xlink:href="#DejaVuSans-79"/>
     <use x="1976.490234" xlink:href="#DejaVuSans-20"/>
    </g>
   </g>
   <g id="legend_1">
    <g id="patch_7">
     <path d="M 277.843437 108.1845 
L 407.72 108.1845 
Q 409.72 108.1845 409.72 106.1845 
L 409.72 48.472 
Q 409.72 46.472 407.72 46.472 
L 277.843437 46.472 
Q 275.843437 46.472 275.843437 48.472 
L 275.843437 106.1845 
Q 275.843437 108.1845 277.843437 108.1845 
z
" style="fill:#ffffff;opacity:0.8;stroke:#cccccc;stroke-linejoin:miter;"/>
    </g>
    <g id="line2d_18">
     <path d="M 279.843437 54.570438 
L 299.843437 54.570438 
" style="fill:none;stroke:#1f77b4;stroke-linecap:square;stroke-width:1.5;"/>
    </g>
    <g id="line2d_19"/>
    <g id="text_15">
     <!-- actual -->
     <defs>
      <path d="M 8.5 21.578125 
L 8.5 54.6875 
L 17.484375 54.6875 
L 17.484375 21.921875 
Q 17.484375 14.15625 20.5 10.265625 
Q 23.53125 6.390625 29.59375 6.390625 
Q 36.859375 6.390625 41.078125 11.03125 
Q 45.3125 15.671875 45.3125 23.6875 
L 45.3125 54.6875 
L 54.296875 54.6875 
L 54.296875 0 
L 45.3125 0 
L 45.3125 8.40625 
Q 42.046875 3.421875 37.71875 1 
Q 33.40625 -1.421875 27.6875 -1.421875 
Q 18.265625 -1.421875 13.375 4.4375 
Q 8.5 10.296875 8.5 21.578125 
M 31.109375 56 
z
" id="DejaVuSans-75"/>
     </defs>
     <g transform="translate(307.843437 58.070438)scale(0.1 -0.1)">
      <use xlink:href="#DejaVuSans-61"/>
      <use x="61.279297" xlink:href="#DejaVuSans-63"/>
      <use x="116.259766" xlink:href="#DejaVuSans-74"/>
      <use x="155.46875" xlink:href="#DejaVuSans-75"/>
      <use x="218.847656" xlink:href="#DejaVuSans-61"/>
      <use x="280.126953" xlink:href="#DejaVuSans-6c"/>
     </g>
    </g>
    <g id="line2d_20">
     <path d="M 279.843437 69.248563 
L 299.843437 69.248563 
" style="fill:none;stroke:#ff7f0e;stroke-linecap:square;stroke-width:1.5;"/>
    </g>
    <g id="line2d_21"/>
    <g id="text_16">
     <!-- pred. (mean) -->
     <defs>
      <path d="M 18.109375 8.203125 
L 18.109375 -20.796875 
L 9.078125 -20.796875 
L 9.078125 54.6875 
L 18.109375 54.6875 
L 18.109375 46.390625 
Q 20.953125 51.265625 25.265625 53.625 
Q 29.59375 56 35.59375 56 
Q 45.5625 56 51.78125 48.09375 
Q 58.015625 40.1875 58.015625 27.296875 
Q 58.015625 14.40625 51.78125 6.484375 
Q 45.5625 -1.421875 35.59375 -1.421875 
Q 29.59375 -1.421875 25.265625 0.953125 
Q 20.953125 3.328125 18.109375 8.203125 
M 48.6875 27.296875 
Q 48.6875 37.203125 44.609375 42.84375 
Q 40.53125 48.484375 33.40625 48.484375 
Q 26.265625 48.484375 22.1875 42.84375 
Q 18.109375 37.203125 18.109375 27.296875 
Q 18.109375 17.390625 22.1875 11.75 
Q 26.265625 6.109375 33.40625 6.109375 
Q 40.53125 6.109375 44.609375 11.75 
Q 48.6875 17.390625 48.6875 27.296875 
" id="DejaVuSans-70"/>
      <path d="M 45.40625 46.390625 
L 45.40625 75.984375 
L 54.390625 75.984375 
L 54.390625 0 
L 45.40625 0 
L 45.40625 8.203125 
Q 42.578125 3.328125 38.25 0.953125 
Q 33.9375 -1.421875 27.875 -1.421875 
Q 17.96875 -1.421875 11.734375 6.484375 
Q 5.515625 14.40625 5.515625 27.296875 
Q 5.515625 40.1875 11.734375 48.09375 
Q 17.96875 56 27.875 56 
Q 33.9375 56 38.25 53.625 
Q 42.578125 51.265625 45.40625 46.390625 
M 14.796875 27.296875 
Q 14.796875 17.390625 18.875 11.75 
Q 22.953125 6.109375 30.078125 6.109375 
Q 37.203125 6.109375 41.296875 11.75 
Q 45.40625 17.390625 45.40625 27.296875 
Q 45.40625 37.203125 41.296875 42.84375 
Q 37.203125 48.484375 30.078125 48.484375 
Q 22.953125 48.484375 18.875 42.84375 
Q 14.796875 37.203125 14.796875 27.296875 
" id="DejaVuSans-64"/>
      <path d="M 31 75.875 
Q 24.46875 64.65625 21.28125 53.65625 
Q 18.109375 42.671875 18.109375 31.390625 
Q 18.109375 20.125 21.3125 9.0625 
Q 24.515625 -2 31 -13.1875 
L 23.1875 -13.1875 
Q 15.875 -1.703125 12.234375 9.375 
Q 8.59375 20.453125 8.59375 31.390625 
Q 8.59375 42.28125 12.203125 53.3125 
Q 15.828125 64.359375 23.1875 75.875 
z
" id="DejaVuSans-28"/>
      <path d="M 52 44.1875 
Q 55.375 50.25 60.0625 53.125 
Q 64.75 56 71.09375 56 
Q 79.640625 56 84.28125 50.015625 
Q 88.921875 44.046875 88.921875 33.015625 
L 88.921875 0 
L 79.890625 0 
L 79.890625 32.71875 
Q 79.890625 40.578125 77.09375 44.375 
Q 74.3125 48.1875 68.609375 48.1875 
Q 61.625 48.1875 57.5625 43.546875 
Q 53.515625 38.921875 53.515625 30.90625 
L 53.515625 0 
L 44.484375 0 
L 44.484375 32.71875 
Q 44.484375 40.625 41.703125 44.40625 
Q 38.921875 48.1875 33.109375 48.1875 
Q 26.21875 48.1875 22.15625 43.53125 
Q 18.109375 38.875 18.109375 30.90625 
L 18.109375 0 
L 9.078125 0 
L 9.078125 54.6875 
L 18.109375 54.6875 
L 18.109375 46.1875 
Q 21.1875 51.21875 25.484375 53.609375 
Q 29.78125 56 35.6875 56 
Q 41.65625 56 45.828125 52.96875 
Q 50 49.953125 52 44.1875 
" id="DejaVuSans-6d"/>
      <path d="M 8.015625 75.875 
L 15.828125 75.875 
Q 23.140625 64.359375 26.78125 53.3125 
Q 30.421875 42.28125 30.421875 31.390625 
Q 30.421875 20.453125 26.78125 9.375 
Q 23.140625 -1.703125 15.828125 -13.1875 
L 8.015625 -13.1875 
Q 14.5 -2 17.703125 9.0625 
Q 20.90625 20.125 20.90625 31.390625 
Q 20.90625 42.671875 17.703125 53.65625 
Q 14.5 64.65625 8.015625 75.875 
" id="DejaVuSans-29"/>
     </defs>
     <g transform="translate(307.843437 72.748563)scale(0.1 -0.1)">
      <use xlink:href="#DejaVuSans-70"/>
      <use x="63.476562" xlink:href="#DejaVuSans-72"/>
      <use x="104.558594" xlink:href="#DejaVuSans-65"/>
      <use x="166.082031" xlink:href="#DejaVuSans-64"/>
      <use x="229.558594" xlink:href="#DejaVuSans-2e"/>
      <use x="261.345703" xlink:href="#DejaVuSans-20"/>
      <use x="293.132812" xlink:href="#DejaVuSans-28"/>
      <use x="332.146484" xlink:href="#DejaVuSans-6d"/>
      <use x="429.558594" xlink:href="#DejaVuSans-65"/>
      <use x="491.082031" xlink:href="#DejaVuSans-61"/>
      <use x="552.361328" xlink:href="#DejaVuSans-6e"/>
      <use x="615.740234" xlink:href="#DejaVuSans-29"/>
     </g>
    </g>
    <g id="line2d_22">
     <path d="M 279.843437 83.926688 
L 299.843437 83.926688 
" style="fill:none;stroke:#2ca02c;stroke-linecap:square;stroke-width:1.5;"/>
    </g>
    <g id="line2d_23"/>
    <g id="text_17">
     <!-- pred.(5th percen.) -->
     <defs>
      <path d="M 54.890625 33.015625 
L 54.890625 0 
L 45.90625 0 
L 45.90625 32.71875 
Q 45.90625 40.484375 42.875 44.328125 
Q 39.84375 48.1875 33.796875 48.1875 
Q 26.515625 48.1875 22.3125 43.546875 
Q 18.109375 38.921875 18.109375 30.90625 
L 18.109375 0 
L 9.078125 0 
L 9.078125 75.984375 
L 18.109375 75.984375 
L 18.109375 46.1875 
Q 21.34375 51.125 25.703125 53.5625 
Q 30.078125 56 35.796875 56 
Q 45.21875 56 50.046875 50.171875 
Q 54.890625 44.34375 54.890625 33.015625 
" id="DejaVuSans-68"/>
     </defs>
     <g transform="translate(307.843437 87.426688)scale(0.1 -0.1)">
      <use xlink:href="#DejaVuSans-70"/>
      <use x="63.476562" xlink:href="#DejaVuSans-72"/>
      <use x="104.558594" xlink:href="#DejaVuSans-65"/>
      <use x="166.082031" xlink:href="#DejaVuSans-64"/>
      <use x="229.558594" xlink:href="#DejaVuSans-2e"/>
      <use x="261.345703" xlink:href="#DejaVuSans-28"/>
      <use x="300.359375" xlink:href="#DejaVuSans-35"/>
      <use x="363.982422" xlink:href="#DejaVuSans-74"/>
      <use x="403.191406" xlink:href="#DejaVuSans-68"/>
      <use x="466.570312" xlink:href="#DejaVuSans-20"/>
      <use x="498.357422" xlink:href="#DejaVuSans-70"/>
      <use x="561.833984" xlink:href="#DejaVuSans-65"/>
      <use x="623.357422" xlink:href="#DejaVuSans-72"/>
      <use x="664.439453" xlink:href="#DejaVuSans-63"/>
      <use x="719.419922" xlink:href="#DejaVuSans-65"/>
      <use x="780.943359" xlink:href="#DejaVuSans-6e"/>
      <use x="844.322266" xlink:href="#DejaVuSans-2e"/>
      <use x="876.109375" xlink:href="#DejaVuSans-29"/>
     </g>
    </g>
    <g id="line2d_24">
     <path d="M 279.843437 98.604813 
L 299.843437 98.604813 
" style="fill:none;stroke:#d62728;stroke-linecap:square;stroke-width:1.5;"/>
    </g>
    <g id="line2d_25"/>
    <g id="text_18">
     <!-- pred.(95th percen.) -->
     <defs>
      <path d="M 10.984375 1.515625 
L 10.984375 10.5 
Q 14.703125 8.734375 18.5 7.8125 
Q 22.3125 6.890625 25.984375 6.890625 
Q 35.75 6.890625 40.890625 13.453125 
Q 46.046875 20.015625 46.78125 33.40625 
Q 43.953125 29.203125 39.59375 26.953125 
Q 35.25 24.703125 29.984375 24.703125 
Q 19.046875 24.703125 12.671875 31.3125 
Q 6.296875 37.9375 6.296875 49.421875 
Q 6.296875 60.640625 12.9375 67.421875 
Q 19.578125 74.21875 30.609375 74.21875 
Q 43.265625 74.21875 49.921875 64.515625 
Q 56.59375 54.828125 56.59375 36.375 
Q 56.59375 19.140625 48.40625 8.859375 
Q 40.234375 -1.421875 26.421875 -1.421875 
Q 22.703125 -1.421875 18.890625 -0.6875 
Q 15.09375 0.046875 10.984375 1.515625 
M 30.609375 32.421875 
Q 37.25 32.421875 41.125 36.953125 
Q 45.015625 41.5 45.015625 49.421875 
Q 45.015625 57.28125 41.125 61.84375 
Q 37.25 66.40625 30.609375 66.40625 
Q 23.96875 66.40625 20.09375 61.84375 
Q 16.21875 57.28125 16.21875 49.421875 
Q 16.21875 41.5 20.09375 36.953125 
Q 23.96875 32.421875 30.609375 32.421875 
" id="DejaVuSans-39"/>
     </defs>
     <g transform="translate(307.843437 102.104813)scale(0.1 -0.1)">
      <use xlink:href="#DejaVuSans-70"/>
      <use x="63.476562" xlink:href="#DejaVuSans-72"/>
      <use x="104.558594" xlink:href="#DejaVuSans-65"/>
      <use x="166.082031" xlink:href="#DejaVuSans-64"/>
      <use x="229.558594" xlink:href="#DejaVuSans-2e"/>
      <use x="261.345703" xlink:href="#DejaVuSans-28"/>
      <use x="300.359375" xlink:href="#DejaVuSans-39"/>
      <use x="363.982422" xlink:href="#DejaVuSans-35"/>
      <use x="427.605469" xlink:href="#DejaVuSans-74"/>
      <use x="466.814453" xlink:href="#DejaVuSans-68"/>
      <use x="530.193359" xlink:href="#DejaVuSans-20"/>
      <use x="561.980469" xlink:href="#DejaVuSans-70"/>
      <use x="625.457031" xlink:href="#DejaVuSans-65"/>
      <use x="686.980469" xlink:href="#DejaVuSans-72"/>
      <use x="728.0625" xlink:href="#DejaVuSans-63"/>
      <use x="783.042969" xlink:href="#DejaVuSans-65"/>
      <use x="844.566406" xlink:href="#DejaVuSans-6e"/>
      <use x="907.945312" xlink:href="#DejaVuSans-2e"/>
      <use x="939.732422" xlink:href="#DejaVuSans-29"/>
     </g>
    </g>
   </g>
  </g>
 </g>
 <defs>
  <clipPath id="p668b27dcbe">
   <rect height="266.112" width="357.12" x="57.6" y="41.472"/>
  </clipPath>
 </defs>
</svg>
