<?xml version="1.0" encoding="utf-8" standalone="no"?>
<!DOCTYPE svg PUBLIC "-//W3C//DTD SVG 1.1//EN"
  "http://www.w3.org/Graphics/SVG/1.1/DTD/svg11.dtd">
<!-- Created with matplotlib (http://matplotlib.org/) -->
<svg height="345pt" version="1.1" viewBox="0 0 460 345" width="460pt" xmlns="http://www.w3.org/2000/svg" xmlns:xlink="http://www.w3.org/1999/xlink">
 <defs>
  <style type="text/css">
*{stroke-linecap:butt;stroke-linejoin:round;}
  </style>
 </defs>
 <g id="figure_1">
  <g id="patch_1">
   <path d="M 0 345.6 
L 460.8 345.6 
L 460.8 0 
L 0 0 
z
" style="fill:#ffffff;"/>
  </g>
  <g id="axes_1">
   <g id="patch_2">
    <path d="M 57.6 307.584 
L 414.72 307.584 
L 414.72 41.472 
L 57.6 41.472 
z
" style="fill:#ffffff;"/>
   </g>
   <g id="PolyCollection_1">
    <path clip-path="url(#p486043a364)" d="M 73.832727 174.232401 
L 73.832727 204.440203 
L 75.48072 281.879446 
L 77.128713 167.091534 
L 78.776705 172.809848 
L 80.424698 269.909673 
L 82.07269 181.04287 
L 83.720683 131.797971 
L 85.368676 117.793066 
L 87.016668 118.256952 
L 88.664661 146.330963 
L 90.312653 132.928751 
L 91.960646 148.693304 
L 93.608639 146.930026 
L 95.256631 140.464849 
L 96.904624 120.853922 
L 98.552617 239.139139 
L 100.200609 126.927495 
L 101.848602 127.628142 
L 103.496594 187.547843 
L 105.144587 152.892356 
L 106.79258 230.182888 
L 108.440572 233.302185 
L 110.088565 235.448172 
L 111.736557 247.465546 
L 113.38455 210.744565 
L 115.032543 263.243718 
L 116.680535 193.364072 
L 118.328528 144.005633 
L 119.976521 138.812535 
L 121.624513 118.410451 
L 123.272506 159.188829 
L 124.920498 136.426687 
L 126.568491 164.596903 
L 128.216484 270.330653 
L 129.864476 179.8854 
L 131.512469 131.631724 
L 133.160461 117.658244 
L 134.808454 118.919658 
L 136.456447 128.23602 
L 138.104439 121.449167 
L 139.752432 135.472742 
L 141.400425 130.07183 
L 143.048417 136.555891 
L 144.69641 118.306005 
L 146.344402 118.2322 
L 147.992395 147.733347 
L 149.640388 133.48008 
L 151.28838 151.080111 
L 152.936373 156.27487 
L 154.584365 223.649533 
L 156.232358 240.995332 
L 157.880351 214.914968 
L 159.528343 272.905921 
L 161.176336 179.169238 
L 162.824329 131.613683 
L 164.472321 117.491805 
L 166.120314 119.932606 
L 167.768306 121.788156 
L 169.416299 117.443776 
L 171.064292 185.329227 
L 172.712284 153.217181 
L 174.360277 231.317464 
L 176.008269 231.686031 
L 177.656262 239.640861 
L 179.304255 231.443102 
L 180.952247 267.147266 
L 182.60024 186.039951 
L 184.248233 134.477522 
L 185.896225 117.875863 
L 187.544218 139.864537 
L 189.19221 128.17011 
L 190.840203 127.482119 
L 192.488196 238.232191 
L 194.136188 127.528889 
L 195.784181 128.053513 
L 197.432174 181.9985 
L 199.080166 154.229386 
L 200.728159 234.144393 
L 202.376151 226.857202 
L 204.024144 260.137636 
L 205.672137 194.622944 
L 207.320129 147.852183 
L 208.968122 151.210408 
L 210.616114 156.480417 
L 212.264107 226.249377 
L 213.9121 235.83198 
L 215.560092 228.06455 
L 217.208085 277.125665 
L 218.856078 171.295854 
L 220.50407 134.975911 
L 222.152063 128.146978 
L 223.800055 231.918526 
L 225.448048 131.412223 
L 227.096041 133.031455 
L 228.744033 122.783339 
L 230.392026 119.63592 
L 232.040018 189.349513 
L 233.688011 150.898016 
L 235.336004 224.277718 
L 236.983996 246.343882 
L 238.631989 206.074945 
L 240.279982 237.830525 
L 241.927974 226.688976 
L 243.575967 261.945785 
L 245.223959 192.664759 
L 246.871952 143.541644 
L 248.519945 137.26558 
L 250.167937 117.978779 
L 251.81593 119.609484 
L 253.463922 123.819592 
L 255.111915 117.935323 
L 256.759908 223.040843 
L 258.4079 134.873864 
L 260.055893 139.239433 
L 261.703886 122.297705 
L 263.351878 257.448623 
L 264.999871 130.741792 
L 266.647863 134.517375 
L 268.295856 130.259598 
L 269.943849 197.928085 
L 271.591841 147.97674 
L 273.239834 213.377102 
L 274.887826 270.613763 
L 276.535819 177.361441 
L 278.183812 131.771429 
L 279.831804 117.52474 
L 281.479797 126.883706 
L 283.12779 118.606745 
L 284.775782 214.934284 
L 286.423775 139.476931 
L 288.071767 149.117019 
L 289.71976 152.631192 
L 291.367753 166.414613 
L 293.015745 275.372105 
L 294.663738 172.479501 
L 296.311731 134.750415 
L 297.959723 126.967301 
L 299.607716 246.057527 
L 301.255708 122.582149 
L 302.903701 125.913597 
L 304.551694 190.542452 
L 306.199686 151.220783 
L 307.847679 225.288894 
L 309.495671 243.454323 
L 311.143664 210.26574 
L 312.791657 260.885584 
L 314.439649 195.934531 
L 316.087642 150.115129 
L 317.735635 159.279089 
L 319.383627 255.200228 
L 321.03162 198.443041 
L 322.679612 160.957238 
L 324.327605 251.893076 
L 325.975598 201.174503 
L 327.62359 202.853082 
L 329.271583 284.914834 
L 330.919575 194.556414 
L 332.567568 165.597457 
L 334.215561 255.025192 
L 335.863553 199.82614 
L 337.511546 180.580192 
L 339.159539 283.088774 
L 340.807531 178.965946 
L 342.455524 176.337892 
L 344.103516 273.775963 
L 345.751509 175.725396 
L 347.399502 132.674338 
L 349.047494 119.278327 
L 350.695487 204.884845 
L 352.343479 145.596472 
L 353.991472 197.227134 
L 355.639465 286.43696 
L 357.287457 212.131319 
L 358.93545 153.395583 
L 360.583443 166.709811 
L 362.231435 269.417274 
L 363.879428 181.20423 
L 365.52742 131.834458 
L 367.175413 117.829006 
L 368.823406 118.219453 
L 370.471398 147.977821 
L 372.119391 133.547349 
L 373.767383 151.453345 
L 375.415376 158.011085 
L 377.063369 243.596492 
L 378.711361 209.700476 
L 380.359354 273.092964 
L 382.007347 178.962887 
L 383.655339 131.632822 
L 385.303332 117.438902 
L 386.951324 120.571101 
L 388.599317 119.512109 
L 390.24731 119.829835 
L 391.895302 119.029588 
L 393.543295 122.153388 
L 395.191287 117.444737 
L 396.83928 197.205103 
L 398.487273 146.592199 
L 398.487273 134.736527 
L 398.487273 134.736527 
L 396.83928 114.613094 
L 395.191287 67.551462 
L 393.543295 91.238152 
L 391.895302 80.317806 
L 390.24731 83.589381 
L 388.599317 82.450633 
L 386.951324 83.264096 
L 385.303332 83.628039 
L 383.655339 67.07365 
L 382.007347 114.726163 
L 380.359354 199.02211 
L 378.711361 166.161226 
L 377.063369 189.928083 
L 375.415376 145.56295 
L 373.767383 121.323115 
L 372.119391 117.976692 
L 370.471398 115.057814 
L 368.823406 72.853787 
L 367.175413 88.295938 
L 365.52742 66.008376 
L 363.879428 113.244958 
L 362.231435 199.536732 
L 360.583443 157.982994 
L 358.93545 124.123512 
L 357.287457 120.408251 
L 355.639465 214.12075 
L 353.991472 171.369514 
L 352.343479 133.753271 
L 350.695487 114.127664 
L 349.047494 67.534847 
L 347.399502 73.750057 
L 345.751509 119.314249 
L 344.103516 200.909448 
L 342.455524 152.713084 
L 340.807531 125.764955 
L 339.159539 206.83358 
L 337.511546 163.787513 
L 335.863553 131.917209 
L 334.215561 192.12576 
L 332.567568 153.41691 
L 330.919575 121.531206 
L 329.271583 214.645716 
L 327.62359 172.22731 
L 325.975598 136.907669 
L 324.327605 192.653081 
L 322.679612 150.737182 
L 321.03162 127.498037 
L 319.383627 193.983456 
L 317.735635 150.17862 
L 316.087642 122.699954 
L 314.439649 121.774316 
L 312.791657 192.890731 
L 311.143664 158.444959 
L 309.495671 215.053457 
L 307.847679 181.928733 
L 306.199686 136.374008 
L 304.551694 115.47914 
L 302.903701 53.568 
L 301.255708 98.407623 
L 299.607716 114.358581 
L 297.959723 61.617899 
L 296.311731 85.454565 
L 294.663738 124.758563 
L 293.015745 202.255041 
L 291.367753 156.81606 
L 289.71976 124.739273 
L 288.071767 116.238939 
L 286.423775 117.524111 
L 284.775782 114.98305 
L 283.12779 65.082548 
L 281.479797 100.35699 
L 279.831804 79.225101 
L 278.183812 68.374575 
L 276.535819 112.58005 
L 274.887826 216.177797 
L 273.239834 177.599195 
L 271.591841 135.399365 
L 269.943849 115.398356 
L 268.295856 64.021432 
L 266.647863 90.614779 
L 264.999871 103.802318 
L 263.351878 113.701139 
L 261.703886 63.628357 
L 260.055893 81.68257 
L 258.4079 107.404244 
L 256.759908 114.59971 
L 255.111915 64.996217 
L 253.463922 96.243015 
L 251.81593 79.559451 
L 250.167937 85.950216 
L 248.519945 75.543344 
L 246.871952 99.023598 
L 245.223959 115.358393 
L 243.575967 211.436364 
L 241.927974 206.656542 
L 240.279982 183.8313 
L 238.631989 148.033594 
L 236.983996 215.257113 
L 235.336004 181.50093 
L 233.688011 136.296848 
L 232.040018 115.390952 
L 230.392026 66.780887 
L 228.744033 104.995675 
L 227.096041 65.481238 
L 225.448048 101.715007 
L 223.800055 114.676625 
L 222.152063 62.295881 
L 220.50407 87.064558 
L 218.856078 121.725727 
L 217.208085 210.204364 
L 215.560092 196.646742 
L 213.9121 214.434556 
L 212.264107 183.807814 
L 210.616114 139.998921 
L 208.968122 119.690308 
L 207.320129 114.76236 
L 205.672137 119.007181 
L 204.024144 211.484155 
L 202.376151 207.576986 
L 200.728159 185.239642 
L 199.080166 136.746131 
L 197.432174 115.744953 
L 195.784181 55.828729 
L 194.136188 97.714902 
L 192.488196 114.5486 
L 190.840203 60.981437 
L 189.19221 92.699789 
L 187.544218 115.049194 
L 185.896225 75.427783 
L 184.248233 71.114355 
L 182.60024 109.681002 
L 180.952247 211.320833 
L 179.304255 205.705218 
L 177.656262 210.666 
L 176.008269 213.446377 
L 174.360277 184.037269 
L 172.712284 136.921916 
L 171.064292 114.736678 
L 169.416299 68.592608 
L 167.768306 90.126633 
L 166.120314 80.998209 
L 164.472321 84.418266 
L 162.824329 66.866714 
L 161.176336 114.51148 
L 159.528343 198.928756 
L 157.880351 167.572717 
L 156.232358 214.977431 
L 154.584365 182.827826 
L 152.936373 139.242279 
L 151.28838 119.745418 
L 149.640388 117.556237 
L 147.992395 115.068185 
L 146.344402 72.891251 
L 144.69641 89.171255 
L 143.048417 73.859121 
L 141.400425 102.100018 
L 139.752432 116.848637 
L 138.104439 70.450637 
L 136.456447 108.609397 
L 134.808454 77.170405 
L 133.160461 85.984755 
L 131.512469 66.469445 
L 129.864476 114.162105 
L 128.216484 199.982359 
L 126.568491 156.666939 
L 124.920498 125.895712 
L 123.272506 114.743384 
L 121.624513 73.347822 
L 119.976521 78.973552 
L 118.328528 100.79247 
L 116.680535 117.241603 
L 115.032543 193.914773 
L 113.38455 159.822155 
L 111.736557 211.338883 
L 110.088565 209.943562 
L 108.440572 213.812248 
L 106.79258 183.610463 
L 105.144587 136.654533 
L 103.496594 115.617238 
L 101.848602 55.160739 
L 100.200609 97.235555 
L 98.552617 113.810491 
L 96.904624 65.744873 
L 95.256631 83.213882 
L 93.608639 103.378524 
L 91.960646 110.209708 
L 90.312653 114.932402 
L 88.664661 115.072434 
L 87.016668 73.068624 
L 85.368676 88.158273 
L 83.720683 66.022651 
L 82.07269 113.31994 
L 80.424698 199.227568 
L 78.776705 151.329534 
L 77.128713 125.893465 
L 75.48072 215.552682 
L 73.832727 174.232401 
z
" style="fill:#008000;fill-opacity:0.4;"/>
   </g>
   <g id="matplotlib.axis_1">
    <g id="xtick_1">
     <g id="line2d_1">
      <defs>
       <path d="M 0 0 
L 0 3.5 
" id="mfa66f92598" style="stroke:#000000;stroke-width:0.8;"/>
      </defs>
      <g>
       <use style="stroke:#000000;stroke-width:0.8;" x="73.832727" xlink:href="#mfa66f92598" y="307.584"/>
      </g>
     </g>
     <g id="text_1">
      <!-- 0.0 -->
      <defs>
       <path d="M 31.78125 66.40625 
Q 24.171875 66.40625 20.328125 58.90625 
Q 16.5 51.421875 16.5 36.375 
Q 16.5 21.390625 20.328125 13.890625 
Q 24.171875 6.390625 31.78125 6.390625 
Q 39.453125 6.390625 43.28125 13.890625 
Q 47.125 21.390625 47.125 36.375 
Q 47.125 51.421875 43.28125 58.90625 
Q 39.453125 66.40625 31.78125 66.40625 
M 31.78125 74.21875 
Q 44.046875 74.21875 50.515625 64.515625 
Q 56.984375 54.828125 56.984375 36.375 
Q 56.984375 17.96875 50.515625 8.265625 
Q 44.046875 -1.421875 31.78125 -1.421875 
Q 19.53125 -1.421875 13.0625 8.265625 
Q 6.59375 17.96875 6.59375 36.375 
Q 6.59375 54.828125 13.0625 64.515625 
Q 19.53125 74.21875 31.78125 74.21875 
" id="DejaVuSans-30"/>
       <path d="M 10.6875 12.40625 
L 21 12.40625 
L 21 0 
L 10.6875 0 
z
" id="DejaVuSans-2e"/>
      </defs>
      <g transform="translate(65.881165 322.182437)scale(0.1 -0.1)">
       <use xlink:href="#DejaVuSans-30"/>
       <use x="63.623047" xlink:href="#DejaVuSans-2e"/>
       <use x="95.410156" xlink:href="#DejaVuSans-30"/>
      </g>
     </g>
    </g>
    <g id="xtick_2">
     <g id="line2d_2">
      <g>
       <use style="stroke:#000000;stroke-width:0.8;" x="138.763636" xlink:href="#mfa66f92598" y="307.584"/>
      </g>
     </g>
     <g id="text_2">
      <!-- 0.2 -->
      <defs>
       <path d="M 19.1875 8.296875 
L 53.609375 8.296875 
L 53.609375 0 
L 7.328125 0 
L 7.328125 8.296875 
Q 12.9375 14.109375 22.625 23.890625 
Q 32.328125 33.6875 34.8125 36.53125 
Q 39.546875 41.84375 41.421875 45.53125 
Q 43.3125 49.21875 43.3125 52.78125 
Q 43.3125 58.59375 39.234375 62.25 
Q 35.15625 65.921875 28.609375 65.921875 
Q 23.96875 65.921875 18.8125 64.3125 
Q 13.671875 62.703125 7.8125 59.421875 
L 7.8125 69.390625 
Q 13.765625 71.78125 18.9375 73 
Q 24.125 74.21875 28.421875 74.21875 
Q 39.75 74.21875 46.484375 68.546875 
Q 53.21875 62.890625 53.21875 53.421875 
Q 53.21875 48.921875 51.53125 44.890625 
Q 49.859375 40.875 45.40625 35.40625 
Q 44.1875 33.984375 37.640625 27.21875 
Q 31.109375 20.453125 19.1875 8.296875 
" id="DejaVuSans-32"/>
      </defs>
      <g transform="translate(130.812074 322.182437)scale(0.1 -0.1)">
       <use xlink:href="#DejaVuSans-30"/>
       <use x="63.623047" xlink:href="#DejaVuSans-2e"/>
       <use x="95.410156" xlink:href="#DejaVuSans-32"/>
      </g>
     </g>
    </g>
    <g id="xtick_3">
     <g id="line2d_3">
      <g>
       <use style="stroke:#000000;stroke-width:0.8;" x="203.694545" xlink:href="#mfa66f92598" y="307.584"/>
      </g>
     </g>
     <g id="text_3">
      <!-- 0.4 -->
      <defs>
       <path d="M 37.796875 64.3125 
L 12.890625 25.390625 
L 37.796875 25.390625 
z
M 35.203125 72.90625 
L 47.609375 72.90625 
L 47.609375 25.390625 
L 58.015625 25.390625 
L 58.015625 17.1875 
L 47.609375 17.1875 
L 47.609375 0 
L 37.796875 0 
L 37.796875 17.1875 
L 4.890625 17.1875 
L 4.890625 26.703125 
z
" id="DejaVuSans-34"/>
      </defs>
      <g transform="translate(195.742983 322.182437)scale(0.1 -0.1)">
       <use xlink:href="#DejaVuSans-30"/>
       <use x="63.623047" xlink:href="#DejaVuSans-2e"/>
       <use x="95.410156" xlink:href="#DejaVuSans-34"/>
      </g>
     </g>
    </g>
    <g id="xtick_4">
     <g id="line2d_4">
      <g>
       <use style="stroke:#000000;stroke-width:0.8;" x="268.625455" xlink:href="#mfa66f92598" y="307.584"/>
      </g>
     </g>
     <g id="text_4">
      <!-- 0.6 -->
      <defs>
       <path d="M 33.015625 40.375 
Q 26.375 40.375 22.484375 35.828125 
Q 18.609375 31.296875 18.609375 23.390625 
Q 18.609375 15.53125 22.484375 10.953125 
Q 26.375 6.390625 33.015625 6.390625 
Q 39.65625 6.390625 43.53125 10.953125 
Q 47.40625 15.53125 47.40625 23.390625 
Q 47.40625 31.296875 43.53125 35.828125 
Q 39.65625 40.375 33.015625 40.375 
M 52.59375 71.296875 
L 52.59375 62.3125 
Q 48.875 64.0625 45.09375 64.984375 
Q 41.3125 65.921875 37.59375 65.921875 
Q 27.828125 65.921875 22.671875 59.328125 
Q 17.53125 52.734375 16.796875 39.40625 
Q 19.671875 43.65625 24.015625 45.921875 
Q 28.375 48.1875 33.59375 48.1875 
Q 44.578125 48.1875 50.953125 41.515625 
Q 57.328125 34.859375 57.328125 23.390625 
Q 57.328125 12.15625 50.6875 5.359375 
Q 44.046875 -1.421875 33.015625 -1.421875 
Q 20.359375 -1.421875 13.671875 8.265625 
Q 6.984375 17.96875 6.984375 36.375 
Q 6.984375 53.65625 15.1875 63.9375 
Q 23.390625 74.21875 37.203125 74.21875 
Q 40.921875 74.21875 44.703125 73.484375 
Q 48.484375 72.75 52.59375 71.296875 
" id="DejaVuSans-36"/>
      </defs>
      <g transform="translate(260.673892 322.182437)scale(0.1 -0.1)">
       <use xlink:href="#DejaVuSans-30"/>
       <use x="63.623047" xlink:href="#DejaVuSans-2e"/>
       <use x="95.410156" xlink:href="#DejaVuSans-36"/>
      </g>
     </g>
    </g>
    <g id="xtick_5">
     <g id="line2d_5">
      <g>
       <use style="stroke:#000000;stroke-width:0.8;" x="333.556364" xlink:href="#mfa66f92598" y="307.584"/>
      </g>
     </g>
     <g id="text_5">
      <!-- 0.8 -->
      <defs>
       <path d="M 31.78125 34.625 
Q 24.75 34.625 20.71875 30.859375 
Q 16.703125 27.09375 16.703125 20.515625 
Q 16.703125 13.921875 20.71875 10.15625 
Q 24.75 6.390625 31.78125 6.390625 
Q 38.8125 6.390625 42.859375 10.171875 
Q 46.921875 13.96875 46.921875 20.515625 
Q 46.921875 27.09375 42.890625 30.859375 
Q 38.875 34.625 31.78125 34.625 
M 21.921875 38.8125 
Q 15.578125 40.375 12.03125 44.71875 
Q 8.5 49.078125 8.5 55.328125 
Q 8.5 64.0625 14.71875 69.140625 
Q 20.953125 74.21875 31.78125 74.21875 
Q 42.671875 74.21875 48.875 69.140625 
Q 55.078125 64.0625 55.078125 55.328125 
Q 55.078125 49.078125 51.53125 44.71875 
Q 48 40.375 41.703125 38.8125 
Q 48.828125 37.15625 52.796875 32.3125 
Q 56.78125 27.484375 56.78125 20.515625 
Q 56.78125 9.90625 50.3125 4.234375 
Q 43.84375 -1.421875 31.78125 -1.421875 
Q 19.734375 -1.421875 13.25 4.234375 
Q 6.78125 9.90625 6.78125 20.515625 
Q 6.78125 27.484375 10.78125 32.3125 
Q 14.796875 37.15625 21.921875 38.8125 
M 18.3125 54.390625 
Q 18.3125 48.734375 21.84375 45.5625 
Q 25.390625 42.390625 31.78125 42.390625 
Q 38.140625 42.390625 41.71875 45.5625 
Q 45.3125 48.734375 45.3125 54.390625 
Q 45.3125 60.0625 41.71875 63.234375 
Q 38.140625 66.40625 31.78125 66.40625 
Q 25.390625 66.40625 21.84375 63.234375 
Q 18.3125 60.0625 18.3125 54.390625 
" id="DejaVuSans-38"/>
      </defs>
      <g transform="translate(325.604801 322.182437)scale(0.1 -0.1)">
       <use xlink:href="#DejaVuSans-30"/>
       <use x="63.623047" xlink:href="#DejaVuSans-2e"/>
       <use x="95.410156" xlink:href="#DejaVuSans-38"/>
      </g>
     </g>
    </g>
    <g id="xtick_6">
     <g id="line2d_6">
      <g>
       <use style="stroke:#000000;stroke-width:0.8;" x="398.487273" xlink:href="#mfa66f92598" y="307.584"/>
      </g>
     </g>
     <g id="text_6">
      <!-- 1.0 -->
      <defs>
       <path d="M 12.40625 8.296875 
L 28.515625 8.296875 
L 28.515625 63.921875 
L 10.984375 60.40625 
L 10.984375 69.390625 
L 28.421875 72.90625 
L 38.28125 72.90625 
L 38.28125 8.296875 
L 54.390625 8.296875 
L 54.390625 0 
L 12.40625 0 
z
" id="DejaVuSans-31"/>
      </defs>
      <g transform="translate(390.53571 322.182437)scale(0.1 -0.1)">
       <use xlink:href="#DejaVuSans-31"/>
       <use x="63.623047" xlink:href="#DejaVuSans-2e"/>
       <use x="95.410156" xlink:href="#DejaVuSans-30"/>
      </g>
     </g>
    </g>
   </g>
   <g id="matplotlib.axis_2">
    <g id="ytick_1">
     <g id="line2d_7">
      <defs>
       <path d="M 0 0 
L -3.5 0 
" id="m86a02bafa8" style="stroke:#000000;stroke-width:0.8;"/>
      </defs>
      <g>
       <use style="stroke:#000000;stroke-width:0.8;" x="57.6" xlink:href="#m86a02bafa8" y="288.992159"/>
      </g>
     </g>
     <g id="text_7">
      <!-- 0.2 -->
      <g transform="translate(34.696875 292.791378)scale(0.1 -0.1)">
       <use xlink:href="#DejaVuSans-30"/>
       <use x="63.623047" xlink:href="#DejaVuSans-2e"/>
       <use x="95.410156" xlink:href="#DejaVuSans-32"/>
      </g>
     </g>
    </g>
    <g id="ytick_2">
     <g id="line2d_8">
      <g>
       <use style="stroke:#000000;stroke-width:0.8;" x="57.6" xlink:href="#m86a02bafa8" y="251.640418"/>
      </g>
     </g>
     <g id="text_8">
      <!-- 0.3 -->
      <defs>
       <path d="M 40.578125 39.3125 
Q 47.65625 37.796875 51.625 33 
Q 55.609375 28.21875 55.609375 21.1875 
Q 55.609375 10.40625 48.1875 4.484375 
Q 40.765625 -1.421875 27.09375 -1.421875 
Q 22.515625 -1.421875 17.65625 -0.515625 
Q 12.796875 0.390625 7.625 2.203125 
L 7.625 11.71875 
Q 11.71875 9.328125 16.59375 8.109375 
Q 21.484375 6.890625 26.8125 6.890625 
Q 36.078125 6.890625 40.9375 10.546875 
Q 45.796875 14.203125 45.796875 21.1875 
Q 45.796875 27.640625 41.28125 31.265625 
Q 36.765625 34.90625 28.71875 34.90625 
L 20.21875 34.90625 
L 20.21875 43.015625 
L 29.109375 43.015625 
Q 36.375 43.015625 40.234375 45.921875 
Q 44.09375 48.828125 44.09375 54.296875 
Q 44.09375 59.90625 40.109375 62.90625 
Q 36.140625 65.921875 28.71875 65.921875 
Q 24.65625 65.921875 20.015625 65.03125 
Q 15.375 64.15625 9.8125 62.3125 
L 9.8125 71.09375 
Q 15.4375 72.65625 20.34375 73.4375 
Q 25.25 74.21875 29.59375 74.21875 
Q 40.828125 74.21875 47.359375 69.109375 
Q 53.90625 64.015625 53.90625 55.328125 
Q 53.90625 49.265625 50.4375 45.09375 
Q 46.96875 40.921875 40.578125 39.3125 
" id="DejaVuSans-33"/>
      </defs>
      <g transform="translate(34.696875 255.439637)scale(0.1 -0.1)">
       <use xlink:href="#DejaVuSans-30"/>
       <use x="63.623047" xlink:href="#DejaVuSans-2e"/>
       <use x="95.410156" xlink:href="#DejaVuSans-33"/>
      </g>
     </g>
    </g>
    <g id="ytick_3">
     <g id="line2d_9">
      <g>
       <use style="stroke:#000000;stroke-width:0.8;" x="57.6" xlink:href="#m86a02bafa8" y="214.288678"/>
      </g>
     </g>
     <g id="text_9">
      <!-- 0.4 -->
      <g transform="translate(34.696875 218.087897)scale(0.1 -0.1)">
       <use xlink:href="#DejaVuSans-30"/>
       <use x="63.623047" xlink:href="#DejaVuSans-2e"/>
       <use x="95.410156" xlink:href="#DejaVuSans-34"/>
      </g>
     </g>
    </g>
    <g id="ytick_4">
     <g id="line2d_10">
      <g>
       <use style="stroke:#000000;stroke-width:0.8;" x="57.6" xlink:href="#m86a02bafa8" y="176.936938"/>
      </g>
     </g>
     <g id="text_10">
      <!-- 0.5 -->
      <defs>
       <path d="M 10.796875 72.90625 
L 49.515625 72.90625 
L 49.515625 64.59375 
L 19.828125 64.59375 
L 19.828125 46.734375 
Q 21.96875 47.46875 24.109375 47.828125 
Q 26.265625 48.1875 28.421875 48.1875 
Q 40.625 48.1875 47.75 41.5 
Q 54.890625 34.8125 54.890625 23.390625 
Q 54.890625 11.625 47.5625 5.09375 
Q 40.234375 -1.421875 26.90625 -1.421875 
Q 22.3125 -1.421875 17.546875 -0.640625 
Q 12.796875 0.140625 7.71875 1.703125 
L 7.71875 11.625 
Q 12.109375 9.234375 16.796875 8.0625 
Q 21.484375 6.890625 26.703125 6.890625 
Q 35.15625 6.890625 40.078125 11.328125 
Q 45.015625 15.765625 45.015625 23.390625 
Q 45.015625 31 40.078125 35.4375 
Q 35.15625 39.890625 26.703125 39.890625 
Q 22.75 39.890625 18.8125 39.015625 
Q 14.890625 38.140625 10.796875 36.28125 
z
" id="DejaVuSans-35"/>
      </defs>
      <g transform="translate(34.696875 180.736156)scale(0.1 -0.1)">
       <use xlink:href="#DejaVuSans-30"/>
       <use x="63.623047" xlink:href="#DejaVuSans-2e"/>
       <use x="95.410156" xlink:href="#DejaVuSans-35"/>
      </g>
     </g>
    </g>
    <g id="ytick_5">
     <g id="line2d_11">
      <g>
       <use style="stroke:#000000;stroke-width:0.8;" x="57.6" xlink:href="#m86a02bafa8" y="139.585197"/>
      </g>
     </g>
     <g id="text_11">
      <!-- 0.6 -->
      <g transform="translate(34.696875 143.384416)scale(0.1 -0.1)">
       <use xlink:href="#DejaVuSans-30"/>
       <use x="63.623047" xlink:href="#DejaVuSans-2e"/>
       <use x="95.410156" xlink:href="#DejaVuSans-36"/>
      </g>
     </g>
    </g>
    <g id="ytick_6">
     <g id="line2d_12">
      <g>
       <use style="stroke:#000000;stroke-width:0.8;" x="57.6" xlink:href="#m86a02bafa8" y="102.233457"/>
      </g>
     </g>
     <g id="text_12">
      <!-- 0.7 -->
      <defs>
       <path d="M 8.203125 72.90625 
L 55.078125 72.90625 
L 55.078125 68.703125 
L 28.609375 0 
L 18.3125 0 
L 43.21875 64.59375 
L 8.203125 64.59375 
z
" id="DejaVuSans-37"/>
      </defs>
      <g transform="translate(34.696875 106.032675)scale(0.1 -0.1)">
       <use xlink:href="#DejaVuSans-30"/>
       <use x="63.623047" xlink:href="#DejaVuSans-2e"/>
       <use x="95.410156" xlink:href="#DejaVuSans-37"/>
      </g>
     </g>
    </g>
    <g id="ytick_7">
     <g id="line2d_13">
      <g>
       <use style="stroke:#000000;stroke-width:0.8;" x="57.6" xlink:href="#m86a02bafa8" y="64.881716"/>
      </g>
     </g>
     <g id="text_13">
      <!-- 0.8 -->
      <g transform="translate(34.696875 68.680935)scale(0.1 -0.1)">
       <use xlink:href="#DejaVuSans-30"/>
       <use x="63.623047" xlink:href="#DejaVuSans-2e"/>
       <use x="95.410156" xlink:href="#DejaVuSans-38"/>
      </g>
     </g>
    </g>
   </g>
   <g id="line2d_14">
    <path clip-path="url(#p486043a364)" d="M 73.832727 196.203339 
L 75.48072 288.711274 
L 77.128713 165.411311 
L 78.776705 162.864296 
L 80.424698 270.566172 
L 82.07269 111.124291 
L 83.720683 75.48849 
L 85.368676 90.750411 
L 87.016668 72.185476 
L 88.664661 144.440923 
L 90.312653 117.548044 
L 91.960646 114.945001 
L 93.608639 107.94902 
L 95.256631 85.298551 
L 96.904624 60.983689 
L 98.552617 235.12684 
L 100.200609 101.872639 
L 101.848602 62.96109 
L 103.496594 184.786032 
L 105.144587 147.081691 
L 106.79258 223.053637 
L 108.440572 223.753983 
L 110.088565 215.097343 
L 111.736557 240.433029 
L 113.38455 162.337263 
L 115.032543 258.510898 
L 116.680535 118.974133 
L 118.328528 106.314881 
L 119.976521 80.425643 
L 121.624513 71.320036 
L 123.272506 152.337081 
L 124.920498 129.661213 
L 126.568491 161.21559 
L 128.216484 271.62472 
L 129.864476 111.774212 
L 131.512469 76.044657 
L 133.160461 88.247845 
L 134.808454 77.637709 
L 136.456447 114.561772 
L 138.104439 68.424155 
L 139.752432 137.204397 
L 141.400425 104.737517 
L 143.048417 75.254295 
L 144.69641 90.887118 
L 146.344402 71.932978 
L 147.992395 146.007829 
L 149.640388 120.109626 
L 151.28838 124.354651 
L 152.936373 143.545229 
L 154.584365 218.525859 
L 156.232358 238.159055 
L 157.880351 169.248455 
L 159.528343 272.091617 
L 161.176336 112.185454 
L 162.824329 76.471588 
L 164.472321 86.386234 
L 166.120314 82.516967 
L 167.768306 94.116176 
L 169.416299 66.401932 
L 171.064292 184.386369 
L 172.712284 147.427569 
L 174.360277 224.288486 
L 176.008269 219.747635 
L 177.656262 227.1571 
L 179.304255 204.625783 
L 180.952247 264.843512 
L 182.60024 111.210574 
L 184.248233 79.482138 
L 185.896225 74.702609 
L 187.544218 131.511245 
L 190.840203 58.834469 
L 192.488196 234.208735 
L 194.136188 102.110569 
L 195.784181 63.441807 
L 197.432174 179.485073 
L 199.080166 148.207846 
L 200.728159 227.601212 
L 202.376151 208.80619 
L 204.024144 255.861539 
L 205.672137 122.482582 
L 207.320129 119.550097 
L 208.968122 124.526469 
L 210.616114 144.286661 
L 212.264107 221.191653 
L 213.9121 229.890873 
L 215.560092 195.709549 
L 217.208085 278.5643 
L 218.856078 123.458957 
L 220.50407 95.230752 
L 222.152063 59.299872 
L 223.800055 227.284095 
L 225.448048 106.127376 
L 227.096041 72.004693 
L 228.744033 108.913068 
L 230.392026 63.151584 
L 232.040018 188.672481 
L 233.688011 145.338859 
L 235.336004 216.468152 
L 236.983996 244.092005 
L 238.631989 151.244916 
L 240.279982 227.84213 
L 241.927974 207.774908 
L 243.575967 258.165394 
L 245.223959 118.485572 
L 246.871952 104.643764 
L 248.519945 76.080889 
L 250.167937 87.058192 
L 251.81593 80.690093 
L 253.463922 101.101325 
L 255.111915 61.270924 
L 256.759908 221.398582 
L 258.4079 111.727522 
L 260.055893 87.596057 
L 261.703886 58.574875 
L 263.351878 256.591392 
L 264.999871 126.200201 
L 266.647863 97.663845 
L 268.295856 62.015717 
L 269.943849 193.131532 
L 271.591841 142.35819 
L 273.239834 205.138622 
L 274.887826 273.110572 
L 276.535819 113.475584 
L 278.183812 78.052687 
L 279.831804 80.042788 
L 281.479797 104.940337 
L 283.12779 61.350109 
L 284.775782 213.178958 
L 286.423775 121.180501 
L 288.071767 120.825659 
L 289.71976 129.555134 
L 291.367753 164.380029 
L 293.015745 278.518731 
L 294.663738 122.71491 
L 296.311731 93.844256 
L 297.959723 58.247674 
L 299.607716 243.034577 
L 301.255708 103.214313 
L 302.903701 62.762378 
L 304.551694 188.080456 
L 306.199686 145.632444 
L 307.847679 217.581234 
L 309.495671 240.797208 
L 311.143664 161.070665 
L 312.791657 255.541434 
L 314.439649 124.462971 
L 316.087642 127.061159 
L 317.735635 153.926398 
L 319.383627 252.669832 
L 321.03162 130.99355 
L 322.679612 152.781941 
L 324.327605 248.729224 
L 325.975598 141.067688 
L 327.62359 192.027414 
L 329.271583 293.154637 
L 330.919575 194.842615 
L 332.567568 156.46669 
L 334.215561 250.683093 
L 335.863553 135.776067 
L 337.511546 171.684162 
L 339.159539 289.811282 
L 340.807531 170.911355 
L 342.455524 165.749718 
L 344.103516 275.685601 
L 345.751509 116.777104 
L 347.399502 83.18631 
L 349.047494 65.193977 
L 350.695487 198.060094 
L 352.343479 138.317853 
L 353.991472 189.323895 
L 355.639465 295.488 
L 358.93545 131.529547 
L 360.583443 160.801359 
L 362.231435 270.410789 
L 363.879428 111.045479 
L 365.52742 75.4545 
L 367.175413 90.902806 
L 368.823406 71.892638 
L 370.471398 146.261821 
L 372.119391 120.517881 
L 373.767383 125.881964 
L 375.415376 149.611151 
L 377.063369 239.36701 
L 378.711361 169.502821 
L 380.359354 272.307136 
L 382.007347 112.377816 
L 383.655339 76.697939 
L 385.303332 85.425921 
L 386.951324 85.32283 
L 388.599317 84.871621 
L 390.24731 86.264841 
L 391.895302 82.175199 
L 393.543295 95.390991 
L 395.191287 64.897777 
L 396.83928 195.886222 
L 398.487273 140.277698 
L 398.487273 140.277698 
" style="fill:none;stroke:#1f77b4;stroke-linecap:square;stroke-width:1.5;"/>
   </g>
   <g id="line2d_15">
    <path clip-path="url(#p486043a364)" d="M 73.832727 197.655017 
L 75.48072 272.938861 
L 77.128713 161.269247 
L 78.776705 165.197606 
L 80.424698 260.498774 
L 82.07269 122.050966 
L 83.720683 78.213744 
L 85.368676 93.323042 
L 87.016668 80.400941 
L 88.664661 139.112079 
L 90.312653 118.245127 
L 91.960646 115.00714 
L 93.608639 108.809027 
L 95.256631 90.168404 
L 96.904624 73.255005 
L 98.552617 224.153025 
L 100.200609 105.019573 
L 101.848602 69.150801 
L 103.496594 178.555962 
L 105.144587 147.841532 
L 106.79258 222.940607 
L 108.440572 224.832667 
L 110.088565 219.723983 
L 111.736557 241.898295 
L 113.38455 167.635386 
L 115.032543 253.986961 
L 116.680535 127.459874 
L 119.976521 86.383786 
L 121.624513 80.178963 
L 123.272506 149.13405 
L 124.920498 130.041202 
L 126.568491 160.82891 
L 128.216484 260.058508 
L 129.864476 122.702847 
L 131.512469 78.58145 
L 133.160461 91.356622 
L 134.808454 84.309617 
L 136.456447 112.300549 
L 138.104439 77.35393 
L 139.752432 130.84562 
L 143.048417 82.079988 
L 144.69641 94.536659 
L 146.344402 80.243987 
L 147.992395 140.569326 
L 149.640388 120.69512 
L 151.28838 123.844131 
L 152.936373 142.377777 
L 154.584365 216.858313 
L 156.232358 237.155432 
L 157.880351 174.622374 
L 159.528343 263.771508 
L 161.176336 122.689495 
L 162.824329 78.891674 
L 164.472321 89.928177 
L 166.120314 87.918808 
L 167.768306 95.572076 
L 169.416299 75.720483 
L 171.064292 176.691728 
L 172.712284 148.21143 
L 174.360277 224.042597 
L 176.008269 221.241363 
L 177.656262 230.659413 
L 179.304255 209.721143 
L 180.952247 260.375126 
L 182.60024 120.695041 
L 184.248233 82.043129 
L 185.896225 81.853564 
L 187.544218 129.426166 
L 189.19221 97.765495 
L 190.840203 70.693348 
L 192.488196 223.088547 
L 194.136188 105.292493 
L 195.784181 69.633909 
L 197.432174 173.615657 
L 199.080166 148.985043 
L 200.728159 226.848741 
L 202.376151 211.155795 
L 204.024144 254.005432 
L 205.672137 130.065843 
L 207.320129 119.272465 
L 208.968122 123.921654 
L 210.616114 143.109102 
L 212.264107 219.297052 
L 213.9121 230.138185 
L 215.560092 201.108434 
L 217.208085 269.260272 
L 218.856078 129.750119 
L 220.50407 94.857183 
L 222.152063 71.425097 
L 223.800055 217.575363 
L 225.448048 108.66541 
L 227.096041 77.018226 
L 228.744033 108.644481 
L 230.392026 74.076598 
L 232.040018 179.338476 
L 233.688011 146.062193 
L 235.336004 217.012523 
L 236.983996 242.092973 
L 238.631989 156.738324 
L 240.279982 228.914872 
L 241.927974 210.291861 
L 243.575967 255.692049 
L 245.223959 126.659776 
L 248.519945 83.197011 
L 250.167937 91.653486 
L 251.81593 86.584262 
L 253.463922 101.105011 
L 255.111915 72.441154 
L 256.759908 209.27298 
L 258.4079 113.519611 
L 260.055893 90.053913 
L 261.703886 71.458331 
L 263.351878 240.036706 
L 264.999871 124.210802 
L 266.647863 97.334834 
L 268.295856 73.129014 
L 269.943849 187.669493 
L 271.591841 143.018922 
L 273.239834 206.370068 
L 274.887826 263.361282 
L 276.535819 122.049784 
L 278.183812 80.109295 
L 279.831804 85.215905 
L 281.479797 105.813998 
L 283.12779 72.511447 
L 284.775782 201.855069 
L 286.423775 122.186483 
L 288.071767 120.598428 
L 289.71976 128.703134 
L 291.367753 163.413525 
L 293.015745 264.761571 
L 294.663738 131.348439 
L 296.311731 93.600273 
L 297.959723 70.745358 
L 299.607716 229.988334 
L 301.255708 106.089971 
L 302.903701 68.213099 
L 304.551694 181.044227 
L 306.199686 146.36055 
L 307.847679 218.028816 
L 309.495671 239.418582 
L 311.143664 166.435637 
L 312.791657 251.741639 
L 314.439649 131.902248 
L 316.087642 126.829478 
L 317.735635 152.866039 
L 319.383627 245.989903 
L 321.03162 137.413353 
L 322.679612 153.634226 
L 324.327605 243.022728 
L 325.975598 146.28151 
L 327.62359 194.730294 
L 329.271583 275.421812 
L 330.919575 184.611543 
L 332.567568 159.342818 
L 334.215561 246.651199 
L 335.863553 141.581455 
L 337.511546 173.639818 
L 339.159539 272.306447 
L 340.807531 168.792863 
L 342.455524 168.544832 
L 344.103516 264.209103 
L 345.751509 126.566135 
L 347.399502 84.314021 
L 349.047494 75.029571 
L 350.695487 192.404503 
L 352.343479 138.932895 
L 353.991472 190.790996 
L 355.639465 276.559925 
L 357.287457 199.254696 
L 358.93545 132.555392 
L 360.583443 161.548993 
L 362.231435 259.27211 
L 363.879428 122.061537 
L 365.52742 78.201252 
L 367.175413 93.450583 
L 368.823406 80.194746 
L 370.471398 140.807355 
L 372.119391 121.087635 
L 373.767383 125.309322 
L 375.415376 148.448614 
L 377.063369 235.208821 
L 378.711361 173.10356 
L 380.359354 263.955484 
L 382.007347 122.836089 
L 383.655339 79.061467 
L 385.303332 89.201508 
L 386.951324 90.041561 
L 388.599317 88.562527 
L 390.24731 89.628854 
L 391.895302 86.619011 
L 393.543295 96.604093 
L 395.191287 74.741083 
L 396.83928 187.253418 
L 398.487273 140.91382 
L 398.487273 140.91382 
" style="fill:none;stroke:#ff7f0e;stroke-linecap:square;stroke-width:1.5;"/>
   </g>
   <g id="line2d_16">
    <path clip-path="url(#p486043a364)" d="M 73.832727 204.440203 
L 75.48072 281.879446 
L 77.128713 167.091534 
L 78.776705 172.809848 
L 80.424698 269.909673 
L 82.07269 181.04287 
L 83.720683 131.797971 
L 85.368676 117.793066 
L 87.016668 118.256952 
L 88.664661 146.330963 
L 90.312653 132.928751 
L 91.960646 148.693304 
L 93.608639 146.930026 
L 95.256631 140.464849 
L 96.904624 120.853922 
L 98.552617 239.139139 
L 100.200609 126.927495 
L 101.848602 127.628142 
L 103.496594 187.547843 
L 105.144587 152.892356 
L 106.79258 230.182888 
L 108.440572 233.302185 
L 110.088565 235.448172 
L 111.736557 247.465546 
L 113.38455 210.744565 
L 115.032543 263.243718 
L 116.680535 193.364072 
L 118.328528 144.005633 
L 119.976521 138.812535 
L 121.624513 118.410451 
L 123.272506 159.188829 
L 124.920498 136.426687 
L 126.568491 164.596903 
L 128.216484 270.330653 
L 129.864476 179.8854 
L 131.512469 131.631724 
L 133.160461 117.658244 
L 134.808454 118.919658 
L 136.456447 128.23602 
L 138.104439 121.449167 
L 139.752432 135.472742 
L 141.400425 130.07183 
L 143.048417 136.555891 
L 144.69641 118.306005 
L 146.344402 118.2322 
L 147.992395 147.733347 
L 149.640388 133.48008 
L 151.28838 151.080111 
L 152.936373 156.27487 
L 154.584365 223.649533 
L 156.232358 240.995332 
L 157.880351 214.914968 
L 159.528343 272.905921 
L 161.176336 179.169238 
L 162.824329 131.613683 
L 164.472321 117.491805 
L 166.120314 119.932606 
L 167.768306 121.788156 
L 169.416299 117.443776 
L 171.064292 185.329227 
L 172.712284 153.217181 
L 174.360277 231.317464 
L 176.008269 231.686031 
L 177.656262 239.640861 
L 179.304255 231.443102 
L 180.952247 267.147266 
L 182.60024 186.039951 
L 184.248233 134.477522 
L 185.896225 117.875863 
L 187.544218 139.864537 
L 189.19221 128.17011 
L 190.840203 127.482119 
L 192.488196 238.232191 
L 194.136188 127.528889 
L 195.784181 128.053513 
L 197.432174 181.9985 
L 199.080166 154.229386 
L 200.728159 234.144393 
L 202.376151 226.857202 
L 204.024144 260.137636 
L 205.672137 194.622944 
L 207.320129 147.852183 
L 208.968122 151.210408 
L 210.616114 156.480417 
L 212.264107 226.249377 
L 213.9121 235.83198 
L 215.560092 228.06455 
L 217.208085 277.125665 
L 218.856078 171.295854 
L 220.50407 134.975911 
L 222.152063 128.146978 
L 223.800055 231.918526 
L 225.448048 131.412223 
L 227.096041 133.031455 
L 228.744033 122.783339 
L 230.392026 119.63592 
L 232.040018 189.349513 
L 233.688011 150.898016 
L 235.336004 224.277718 
L 236.983996 246.343882 
L 238.631989 206.074945 
L 240.279982 237.830525 
L 241.927974 226.688976 
L 243.575967 261.945785 
L 245.223959 192.664759 
L 246.871952 143.541644 
L 248.519945 137.26558 
L 250.167937 117.978779 
L 251.81593 119.609484 
L 253.463922 123.819592 
L 255.111915 117.935323 
L 256.759908 223.040843 
L 258.4079 134.873864 
L 260.055893 139.239433 
L 261.703886 122.297705 
L 263.351878 257.448623 
L 264.999871 130.741792 
L 266.647863 134.517375 
L 268.295856 130.259598 
L 269.943849 197.928085 
L 271.591841 147.97674 
L 273.239834 213.377102 
L 274.887826 270.613763 
L 276.535819 177.361441 
L 278.183812 131.771429 
L 279.831804 117.52474 
L 281.479797 126.883706 
L 283.12779 118.606745 
L 284.775782 214.934284 
L 286.423775 139.476931 
L 288.071767 149.117019 
L 289.71976 152.631192 
L 291.367753 166.414613 
L 293.015745 275.372105 
L 294.663738 172.479501 
L 296.311731 134.750415 
L 297.959723 126.967301 
L 299.607716 246.057527 
L 301.255708 122.582149 
L 302.903701 125.913597 
L 304.551694 190.542452 
L 306.199686 151.220783 
L 307.847679 225.288894 
L 309.495671 243.454323 
L 311.143664 210.26574 
L 312.791657 260.885584 
L 314.439649 195.934531 
L 316.087642 150.115129 
L 317.735635 159.279089 
L 319.383627 255.200228 
L 321.03162 198.443041 
L 322.679612 160.957238 
L 324.327605 251.893076 
L 325.975598 201.174503 
L 327.62359 202.853082 
L 329.271583 284.914834 
L 330.919575 194.556414 
L 332.567568 165.597457 
L 334.215561 255.025192 
L 335.863553 199.82614 
L 337.511546 180.580192 
L 339.159539 283.088774 
L 340.807531 178.965946 
L 342.455524 176.337892 
L 344.103516 273.775963 
L 345.751509 175.725396 
L 347.399502 132.674338 
L 349.047494 119.278327 
L 350.695487 204.884845 
L 352.343479 145.596472 
L 353.991472 197.227134 
L 355.639465 286.43696 
L 357.287457 212.131319 
L 358.93545 153.395583 
L 360.583443 166.709811 
L 362.231435 269.417274 
L 363.879428 181.20423 
L 365.52742 131.834458 
L 367.175413 117.829006 
L 368.823406 118.219453 
L 370.471398 147.977821 
L 372.119391 133.547349 
L 373.767383 151.453345 
L 375.415376 158.011085 
L 377.063369 243.596492 
L 378.711361 209.700476 
L 380.359354 273.092964 
L 382.007347 178.962887 
L 383.655339 131.632822 
L 385.303332 117.438902 
L 386.951324 120.571101 
L 388.599317 119.512109 
L 390.24731 119.829835 
L 391.895302 119.029588 
L 393.543295 122.153388 
L 395.191287 117.444737 
L 396.83928 197.205103 
L 398.487273 146.592199 
L 398.487273 146.592199 
" style="fill:none;stroke:#2ca02c;stroke-linecap:square;stroke-width:1.5;"/>
   </g>
   <g id="line2d_17">
    <path clip-path="url(#p486043a364)" d="M 73.832727 174.232401 
L 75.48072 215.552682 
L 77.128713 125.893465 
L 78.776705 151.329534 
L 80.424698 199.227568 
L 82.07269 113.31994 
L 83.720683 66.022651 
L 85.368676 88.158273 
L 87.016668 73.068624 
L 88.664661 115.072434 
L 90.312653 114.932402 
L 91.960646 110.209708 
L 93.608639 103.378524 
L 95.256631 83.213882 
L 96.904624 65.744873 
L 98.552617 113.810491 
L 100.200609 97.235555 
L 101.848602 55.160739 
L 103.496594 115.617238 
L 105.144587 136.654533 
L 106.79258 183.610463 
L 108.440572 213.812248 
L 110.088565 209.943562 
L 111.736557 211.338883 
L 113.38455 159.822155 
L 115.032543 193.914773 
L 116.680535 117.241603 
L 118.328528 100.79247 
L 119.976521 78.973552 
L 121.624513 73.347822 
L 123.272506 114.743384 
L 124.920498 125.895712 
L 126.568491 156.666939 
L 128.216484 199.982359 
L 129.864476 114.162105 
L 131.512469 66.469445 
L 133.160461 85.984755 
L 134.808454 77.170405 
L 136.456447 108.609397 
L 138.104439 70.450637 
L 139.752432 116.848637 
L 141.400425 102.100018 
L 143.048417 73.859121 
L 144.69641 89.171255 
L 146.344402 72.891251 
L 147.992395 115.068185 
L 149.640388 117.556237 
L 151.28838 119.745418 
L 152.936373 139.242279 
L 154.584365 182.827826 
L 156.232358 214.977431 
L 157.880351 167.572717 
L 159.528343 198.928756 
L 161.176336 114.51148 
L 162.824329 66.866714 
L 164.472321 84.418266 
L 166.120314 80.998209 
L 167.768306 90.126633 
L 169.416299 68.592608 
L 171.064292 114.736678 
L 172.712284 136.921916 
L 174.360277 184.037269 
L 176.008269 213.446377 
L 177.656262 210.666 
L 179.304255 205.705218 
L 180.952247 211.320833 
L 182.60024 109.681002 
L 184.248233 71.114355 
L 185.896225 75.427783 
L 187.544218 115.049194 
L 189.19221 92.699789 
L 190.840203 60.981437 
L 192.488196 114.5486 
L 194.136188 97.714902 
L 195.784181 55.828729 
L 197.432174 115.744953 
L 199.080166 136.746131 
L 200.728159 185.239642 
L 202.376151 207.576986 
L 204.024144 211.484155 
L 205.672137 119.007181 
L 207.320129 114.76236 
L 208.968122 119.690308 
L 210.616114 139.998921 
L 212.264107 183.807814 
L 213.9121 214.434556 
L 215.560092 196.646742 
L 217.208085 210.204364 
L 218.856078 121.725727 
L 220.50407 87.064558 
L 222.152063 62.295881 
L 223.800055 114.676625 
L 225.448048 101.715007 
L 227.096041 65.481238 
L 228.744033 104.995675 
L 230.392026 66.780887 
L 232.040018 115.390952 
L 233.688011 136.296848 
L 235.336004 181.50093 
L 236.983996 215.257113 
L 238.631989 148.033594 
L 240.279982 183.8313 
L 241.927974 206.656542 
L 243.575967 211.436364 
L 245.223959 115.358393 
L 246.871952 99.023598 
L 248.519945 75.543344 
L 250.167937 85.950216 
L 251.81593 79.559451 
L 253.463922 96.243015 
L 255.111915 64.996217 
L 256.759908 114.59971 
L 258.4079 107.404244 
L 260.055893 81.68257 
L 261.703886 63.628357 
L 263.351878 113.701139 
L 264.999871 103.802318 
L 266.647863 90.614779 
L 268.295856 64.021432 
L 269.943849 115.398356 
L 271.591841 135.399365 
L 273.239834 177.599195 
L 274.887826 216.177797 
L 276.535819 112.58005 
L 278.183812 68.374575 
L 279.831804 79.225101 
L 281.479797 100.35699 
L 283.12779 65.082548 
L 284.775782 114.98305 
L 286.423775 117.524111 
L 288.071767 116.238939 
L 289.71976 124.739273 
L 291.367753 156.81606 
L 293.015745 202.255041 
L 294.663738 124.758563 
L 296.311731 85.454565 
L 297.959723 61.617899 
L 299.607716 114.358581 
L 301.255708 98.407623 
L 302.903701 53.568 
L 304.551694 115.47914 
L 306.199686 136.374008 
L 307.847679 181.928733 
L 309.495671 215.053457 
L 311.143664 158.444959 
L 312.791657 192.890731 
L 314.439649 121.774316 
L 316.087642 122.699954 
L 317.735635 150.17862 
L 319.383627 193.983456 
L 321.03162 127.498037 
L 322.679612 150.737182 
L 324.327605 192.653081 
L 325.975598 136.907669 
L 327.62359 172.22731 
L 329.271583 214.645716 
L 330.919575 121.531206 
L 332.567568 153.41691 
L 334.215561 192.12576 
L 335.863553 131.917209 
L 337.511546 163.787513 
L 339.159539 206.83358 
L 340.807531 125.764955 
L 342.455524 152.713084 
L 344.103516 200.909448 
L 345.751509 119.314249 
L 347.399502 73.750057 
L 349.047494 67.534847 
L 350.695487 114.127664 
L 352.343479 133.753271 
L 353.991472 171.369514 
L 355.639465 214.12075 
L 357.287457 120.408251 
L 358.93545 124.123512 
L 360.583443 157.982994 
L 362.231435 199.536732 
L 363.879428 113.244958 
L 365.52742 66.008376 
L 367.175413 88.295938 
L 368.823406 72.853787 
L 370.471398 115.057814 
L 372.119391 117.976692 
L 373.767383 121.323115 
L 375.415376 145.56295 
L 377.063369 189.928083 
L 378.711361 166.161226 
L 380.359354 199.02211 
L 382.007347 114.726163 
L 383.655339 67.07365 
L 385.303332 83.628039 
L 386.951324 83.264096 
L 388.599317 82.450633 
L 390.24731 83.589381 
L 391.895302 80.317806 
L 393.543295 91.238152 
L 395.191287 67.551462 
L 396.83928 114.613094 
L 398.487273 134.736527 
L 398.487273 134.736527 
" style="fill:none;stroke:#d62728;stroke-linecap:square;stroke-width:1.5;"/>
   </g>
   <g id="patch_3">
    <path d="M 57.6 307.584 
L 57.6 41.472 
" style="fill:none;stroke:#000000;stroke-linecap:square;stroke-linejoin:miter;stroke-width:0.8;"/>
   </g>
   <g id="patch_4">
    <path d="M 414.72 307.584 
L 414.72 41.472 
" style="fill:none;stroke:#000000;stroke-linecap:square;stroke-linejoin:miter;stroke-width:0.8;"/>
   </g>
   <g id="patch_5">
    <path d="M 57.6 307.584 
L 414.72 307.584 
" style="fill:none;stroke:#000000;stroke-linecap:square;stroke-linejoin:miter;stroke-width:0.8;"/>
   </g>
   <g id="patch_6">
    <path d="M 57.6 41.472 
L 414.72 41.472 
" style="fill:none;stroke:#000000;stroke-linecap:square;stroke-linejoin:miter;stroke-width:0.8;"/>
   </g>
   <g id="text_14">
    <!-- Plot of Test Data vs MCMC Uncertainty  -->
    <defs>
     <path d="M 19.671875 64.796875 
L 19.671875 37.40625 
L 32.078125 37.40625 
Q 38.96875 37.40625 42.71875 40.96875 
Q 46.484375 44.53125 46.484375 51.125 
Q 46.484375 57.671875 42.71875 61.234375 
Q 38.96875 64.796875 32.078125 64.796875 
z
M 9.8125 72.90625 
L 32.078125 72.90625 
Q 44.34375 72.90625 50.609375 67.359375 
Q 56.890625 61.8125 56.890625 51.125 
Q 56.890625 40.328125 50.609375 34.8125 
Q 44.34375 29.296875 32.078125 29.296875 
L 19.671875 29.296875 
L 19.671875 0 
L 9.8125 0 
z
" id="DejaVuSans-50"/>
     <path d="M 9.421875 75.984375 
L 18.40625 75.984375 
L 18.40625 0 
L 9.421875 0 
z
" id="DejaVuSans-6c"/>
     <path d="M 30.609375 48.390625 
Q 23.390625 48.390625 19.1875 42.75 
Q 14.984375 37.109375 14.984375 27.296875 
Q 14.984375 17.484375 19.15625 11.84375 
Q 23.34375 6.203125 30.609375 6.203125 
Q 37.796875 6.203125 41.984375 11.859375 
Q 46.1875 17.53125 46.1875 27.296875 
Q 46.1875 37.015625 41.984375 42.703125 
Q 37.796875 48.390625 30.609375 48.390625 
M 30.609375 56 
Q 42.328125 56 49.015625 48.375 
Q 55.71875 40.765625 55.71875 27.296875 
Q 55.71875 13.875 49.015625 6.21875 
Q 42.328125 -1.421875 30.609375 -1.421875 
Q 18.84375 -1.421875 12.171875 6.21875 
Q 5.515625 13.875 5.515625 27.296875 
Q 5.515625 40.765625 12.171875 48.375 
Q 18.84375 56 30.609375 56 
" id="DejaVuSans-6f"/>
     <path d="M 18.3125 70.21875 
L 18.3125 54.6875 
L 36.8125 54.6875 
L 36.8125 47.703125 
L 18.3125 47.703125 
L 18.3125 18.015625 
Q 18.3125 11.328125 20.140625 9.421875 
Q 21.96875 7.515625 27.59375 7.515625 
L 36.8125 7.515625 
L 36.8125 0 
L 27.59375 0 
Q 17.1875 0 13.234375 3.875 
Q 9.28125 7.765625 9.28125 18.015625 
L 9.28125 47.703125 
L 2.6875 47.703125 
L 2.6875 54.6875 
L 9.28125 54.6875 
L 9.28125 70.21875 
z
" id="DejaVuSans-74"/>
     <path id="DejaVuSans-20"/>
     <path d="M 37.109375 75.984375 
L 37.109375 68.5 
L 28.515625 68.5 
Q 23.6875 68.5 21.796875 66.546875 
Q 19.921875 64.59375 19.921875 59.515625 
L 19.921875 54.6875 
L 34.71875 54.6875 
L 34.71875 47.703125 
L 19.921875 47.703125 
L 19.921875 0 
L 10.890625 0 
L 10.890625 47.703125 
L 2.296875 47.703125 
L 2.296875 54.6875 
L 10.890625 54.6875 
L 10.890625 58.5 
Q 10.890625 67.625 15.140625 71.796875 
Q 19.390625 75.984375 28.609375 75.984375 
z
" id="DejaVuSans-66"/>
     <path d="M -0.296875 72.90625 
L 61.375 72.90625 
L 61.375 64.59375 
L 35.5 64.59375 
L 35.5 0 
L 25.59375 0 
L 25.59375 64.59375 
L -0.296875 64.59375 
z
" id="DejaVuSans-54"/>
     <path d="M 56.203125 29.59375 
L 56.203125 25.203125 
L 14.890625 25.203125 
Q 15.484375 15.921875 20.484375 11.0625 
Q 25.484375 6.203125 34.421875 6.203125 
Q 39.59375 6.203125 44.453125 7.46875 
Q 49.3125 8.734375 54.109375 11.28125 
L 54.109375 2.78125 
Q 49.265625 0.734375 44.1875 -0.34375 
Q 39.109375 -1.421875 33.890625 -1.421875 
Q 20.796875 -1.421875 13.15625 6.1875 
Q 5.515625 13.8125 5.515625 26.8125 
Q 5.515625 40.234375 12.765625 48.109375 
Q 20.015625 56 32.328125 56 
Q 43.359375 56 49.78125 48.890625 
Q 56.203125 41.796875 56.203125 29.59375 
M 47.21875 32.234375 
Q 47.125 39.59375 43.09375 43.984375 
Q 39.0625 48.390625 32.421875 48.390625 
Q 24.90625 48.390625 20.390625 44.140625 
Q 15.875 39.890625 15.1875 32.171875 
z
" id="DejaVuSans-65"/>
     <path d="M 44.28125 53.078125 
L 44.28125 44.578125 
Q 40.484375 46.53125 36.375 47.5 
Q 32.28125 48.484375 27.875 48.484375 
Q 21.1875 48.484375 17.84375 46.4375 
Q 14.5 44.390625 14.5 40.28125 
Q 14.5 37.15625 16.890625 35.375 
Q 19.28125 33.59375 26.515625 31.984375 
L 29.59375 31.296875 
Q 39.15625 29.25 43.1875 25.515625 
Q 47.21875 21.78125 47.21875 15.09375 
Q 47.21875 7.46875 41.1875 3.015625 
Q 35.15625 -1.421875 24.609375 -1.421875 
Q 20.21875 -1.421875 15.453125 -0.5625 
Q 10.6875 0.296875 5.421875 2 
L 5.421875 11.28125 
Q 10.40625 8.6875 15.234375 7.390625 
Q 20.0625 6.109375 24.8125 6.109375 
Q 31.15625 6.109375 34.5625 8.28125 
Q 37.984375 10.453125 37.984375 14.40625 
Q 37.984375 18.0625 35.515625 20.015625 
Q 33.0625 21.96875 24.703125 23.78125 
L 21.578125 24.515625 
Q 13.234375 26.265625 9.515625 29.90625 
Q 5.8125 33.546875 5.8125 39.890625 
Q 5.8125 47.609375 11.28125 51.796875 
Q 16.75 56 26.8125 56 
Q 31.78125 56 36.171875 55.265625 
Q 40.578125 54.546875 44.28125 53.078125 
" id="DejaVuSans-73"/>
     <path d="M 19.671875 64.796875 
L 19.671875 8.109375 
L 31.59375 8.109375 
Q 46.6875 8.109375 53.6875 14.9375 
Q 60.6875 21.78125 60.6875 36.53125 
Q 60.6875 51.171875 53.6875 57.984375 
Q 46.6875 64.796875 31.59375 64.796875 
z
M 9.8125 72.90625 
L 30.078125 72.90625 
Q 51.265625 72.90625 61.171875 64.09375 
Q 71.09375 55.28125 71.09375 36.53125 
Q 71.09375 17.671875 61.125 8.828125 
Q 51.171875 0 30.078125 0 
L 9.8125 0 
z
" id="DejaVuSans-44"/>
     <path d="M 34.28125 27.484375 
Q 23.390625 27.484375 19.1875 25 
Q 14.984375 22.515625 14.984375 16.5 
Q 14.984375 11.71875 18.140625 8.90625 
Q 21.296875 6.109375 26.703125 6.109375 
Q 34.1875 6.109375 38.703125 11.40625 
Q 43.21875 16.703125 43.21875 25.484375 
L 43.21875 27.484375 
z
M 52.203125 31.203125 
L 52.203125 0 
L 43.21875 0 
L 43.21875 8.296875 
Q 40.140625 3.328125 35.546875 0.953125 
Q 30.953125 -1.421875 24.3125 -1.421875 
Q 15.921875 -1.421875 10.953125 3.296875 
Q 6 8.015625 6 15.921875 
Q 6 25.140625 12.171875 29.828125 
Q 18.359375 34.515625 30.609375 34.515625 
L 43.21875 34.515625 
L 43.21875 35.40625 
Q 43.21875 41.609375 39.140625 45 
Q 35.0625 48.390625 27.6875 48.390625 
Q 23 48.390625 18.546875 47.265625 
Q 14.109375 46.140625 10.015625 43.890625 
L 10.015625 52.203125 
Q 14.9375 54.109375 19.578125 55.046875 
Q 24.21875 56 28.609375 56 
Q 40.484375 56 46.34375 49.84375 
Q 52.203125 43.703125 52.203125 31.203125 
" id="DejaVuSans-61"/>
     <path d="M 2.984375 54.6875 
L 12.5 54.6875 
L 29.59375 8.796875 
L 46.6875 54.6875 
L 56.203125 54.6875 
L 35.6875 0 
L 23.484375 0 
z
" id="DejaVuSans-76"/>
     <path d="M 9.8125 72.90625 
L 24.515625 72.90625 
L 43.109375 23.296875 
L 61.8125 72.90625 
L 76.515625 72.90625 
L 76.515625 0 
L 66.890625 0 
L 66.890625 64.015625 
L 48.09375 14.015625 
L 38.1875 14.015625 
L 19.390625 64.015625 
L 19.390625 0 
L 9.8125 0 
z
" id="DejaVuSans-4d"/>
     <path d="M 64.40625 67.28125 
L 64.40625 56.890625 
Q 59.421875 61.53125 53.78125 63.8125 
Q 48.140625 66.109375 41.796875 66.109375 
Q 29.296875 66.109375 22.65625 58.46875 
Q 16.015625 50.828125 16.015625 36.375 
Q 16.015625 21.96875 22.65625 14.328125 
Q 29.296875 6.6875 41.796875 6.6875 
Q 48.140625 6.6875 53.78125 8.984375 
Q 59.421875 11.28125 64.40625 15.921875 
L 64.40625 5.609375 
Q 59.234375 2.09375 53.4375 0.328125 
Q 47.65625 -1.421875 41.21875 -1.421875 
Q 24.65625 -1.421875 15.125 8.703125 
Q 5.609375 18.84375 5.609375 36.375 
Q 5.609375 53.953125 15.125 64.078125 
Q 24.65625 74.21875 41.21875 74.21875 
Q 47.75 74.21875 53.53125 72.484375 
Q 59.328125 70.75 64.40625 67.28125 
" id="DejaVuSans-43"/>
     <path d="M 8.6875 72.90625 
L 18.609375 72.90625 
L 18.609375 28.609375 
Q 18.609375 16.890625 22.84375 11.734375 
Q 27.09375 6.59375 36.625 6.59375 
Q 46.09375 6.59375 50.34375 11.734375 
Q 54.59375 16.890625 54.59375 28.609375 
L 54.59375 72.90625 
L 64.5 72.90625 
L 64.5 27.390625 
Q 64.5 13.140625 57.4375 5.859375 
Q 50.390625 -1.421875 36.625 -1.421875 
Q 22.796875 -1.421875 15.734375 5.859375 
Q 8.6875 13.140625 8.6875 27.390625 
z
" id="DejaVuSans-55"/>
     <path d="M 54.890625 33.015625 
L 54.890625 0 
L 45.90625 0 
L 45.90625 32.71875 
Q 45.90625 40.484375 42.875 44.328125 
Q 39.84375 48.1875 33.796875 48.1875 
Q 26.515625 48.1875 22.3125 43.546875 
Q 18.109375 38.921875 18.109375 30.90625 
L 18.109375 0 
L 9.078125 0 
L 9.078125 54.6875 
L 18.109375 54.6875 
L 18.109375 46.1875 
Q 21.34375 51.125 25.703125 53.5625 
Q 30.078125 56 35.796875 56 
Q 45.21875 56 50.046875 50.171875 
Q 54.890625 44.34375 54.890625 33.015625 
" id="DejaVuSans-6e"/>
     <path d="M 48.78125 52.59375 
L 48.78125 44.1875 
Q 44.96875 46.296875 41.140625 47.34375 
Q 37.3125 48.390625 33.40625 48.390625 
Q 24.65625 48.390625 19.8125 42.84375 
Q 14.984375 37.3125 14.984375 27.296875 
Q 14.984375 17.28125 19.8125 11.734375 
Q 24.65625 6.203125 33.40625 6.203125 
Q 37.3125 6.203125 41.140625 7.25 
Q 44.96875 8.296875 48.78125 10.40625 
L 48.78125 2.09375 
Q 45.015625 0.34375 40.984375 -0.53125 
Q 36.96875 -1.421875 32.421875 -1.421875 
Q 20.0625 -1.421875 12.78125 6.34375 
Q 5.515625 14.109375 5.515625 27.296875 
Q 5.515625 40.671875 12.859375 48.328125 
Q 20.21875 56 33.015625 56 
Q 37.15625 56 41.109375 55.140625 
Q 45.0625 54.296875 48.78125 52.59375 
" id="DejaVuSans-63"/>
     <path d="M 41.109375 46.296875 
Q 39.59375 47.171875 37.8125 47.578125 
Q 36.03125 48 33.890625 48 
Q 26.265625 48 22.1875 43.046875 
Q 18.109375 38.09375 18.109375 28.8125 
L 18.109375 0 
L 9.078125 0 
L 9.078125 54.6875 
L 18.109375 54.6875 
L 18.109375 46.1875 
Q 20.953125 51.171875 25.484375 53.578125 
Q 30.03125 56 36.53125 56 
Q 37.453125 56 38.578125 55.875 
Q 39.703125 55.765625 41.0625 55.515625 
z
" id="DejaVuSans-72"/>
     <path d="M 9.421875 54.6875 
L 18.40625 54.6875 
L 18.40625 0 
L 9.421875 0 
z
M 9.421875 75.984375 
L 18.40625 75.984375 
L 18.40625 64.59375 
L 9.421875 64.59375 
z
" id="DejaVuSans-69"/>
     <path d="M 32.171875 -5.078125 
Q 28.375 -14.84375 24.75 -17.8125 
Q 21.140625 -20.796875 15.09375 -20.796875 
L 7.90625 -20.796875 
L 7.90625 -13.28125 
L 13.1875 -13.28125 
Q 16.890625 -13.28125 18.9375 -11.515625 
Q 21 -9.765625 23.484375 -3.21875 
L 25.09375 0.875 
L 2.984375 54.6875 
L 12.5 54.6875 
L 29.59375 11.921875 
L 46.6875 54.6875 
L 56.203125 54.6875 
z
" id="DejaVuSans-79"/>
    </defs>
    <g transform="translate(118.112813 35.472)scale(0.12 -0.12)">
     <use xlink:href="#DejaVuSans-50"/>
     <use x="60.302734" xlink:href="#DejaVuSans-6c"/>
     <use x="88.085938" xlink:href="#DejaVuSans-6f"/>
     <use x="149.267578" xlink:href="#DejaVuSans-74"/>
     <use x="188.476562" xlink:href="#DejaVuSans-20"/>
     <use x="220.263672" xlink:href="#DejaVuSans-6f"/>
     <use x="281.445312" xlink:href="#DejaVuSans-66"/>
     <use x="316.650391" xlink:href="#DejaVuSans-20"/>
     <use x="348.4375" xlink:href="#DejaVuSans-54"/>
     <use x="409.255859" xlink:href="#DejaVuSans-65"/>
     <use x="470.779297" xlink:href="#DejaVuSans-73"/>
     <use x="522.878906" xlink:href="#DejaVuSans-74"/>
     <use x="562.087891" xlink:href="#DejaVuSans-20"/>
     <use x="593.875" xlink:href="#DejaVuSans-44"/>
     <use x="670.876953" xlink:href="#DejaVuSans-61"/>
     <use x="732.15625" xlink:href="#DejaVuSans-74"/>
     <use x="771.365234" xlink:href="#DejaVuSans-61"/>
     <use x="832.644531" xlink:href="#DejaVuSans-20"/>
     <use x="864.431641" xlink:href="#DejaVuSans-76"/>
     <use x="923.611328" xlink:href="#DejaVuSans-73"/>
     <use x="975.710938" xlink:href="#DejaVuSans-20"/>
     <use x="1007.498047" xlink:href="#DejaVuSans-4d"/>
     <use x="1093.777344" xlink:href="#DejaVuSans-43"/>
     <use x="1163.601562" xlink:href="#DejaVuSans-4d"/>
     <use x="1249.880859" xlink:href="#DejaVuSans-43"/>
     <use x="1319.705078" xlink:href="#DejaVuSans-20"/>
     <use x="1351.492188" xlink:href="#DejaVuSans-55"/>
     <use x="1424.685547" xlink:href="#DejaVuSans-6e"/>
     <use x="1488.064453" xlink:href="#DejaVuSans-63"/>
     <use x="1543.044922" xlink:href="#DejaVuSans-65"/>
     <use x="1604.568359" xlink:href="#DejaVuSans-72"/>
     <use x="1645.681641" xlink:href="#DejaVuSans-74"/>
     <use x="1684.890625" xlink:href="#DejaVuSans-61"/>
     <use x="1746.169922" xlink:href="#DejaVuSans-69"/>
     <use x="1773.953125" xlink:href="#DejaVuSans-6e"/>
     <use x="1837.332031" xlink:href="#DejaVuSans-74"/>
     <use x="1876.541016" xlink:href="#DejaVuSans-79"/>
     <use x="1935.720703" xlink:href="#DejaVuSans-20"/>
    </g>
   </g>
   <g id="legend_1">
    <g id="patch_7">
     <path d="M 277.843437 108.1845 
L 407.72 108.1845 
Q 409.72 108.1845 409.72 106.1845 
L 409.72 48.472 
Q 409.72 46.472 407.72 46.472 
L 277.843437 46.472 
Q 275.843437 46.472 275.843437 48.472 
L 275.843437 106.1845 
Q 275.843437 108.1845 277.843437 108.1845 
z
" style="fill:#ffffff;opacity:0.8;stroke:#cccccc;stroke-linejoin:miter;"/>
    </g>
    <g id="line2d_18">
     <path d="M 279.843437 54.570438 
L 299.843437 54.570438 
" style="fill:none;stroke:#1f77b4;stroke-linecap:square;stroke-width:1.5;"/>
    </g>
    <g id="line2d_19"/>
    <g id="text_15">
     <!-- actual -->
     <defs>
      <path d="M 8.5 21.578125 
L 8.5 54.6875 
L 17.484375 54.6875 
L 17.484375 21.921875 
Q 17.484375 14.15625 20.5 10.265625 
Q 23.53125 6.390625 29.59375 6.390625 
Q 36.859375 6.390625 41.078125 11.03125 
Q 45.3125 15.671875 45.3125 23.6875 
L 45.3125 54.6875 
L 54.296875 54.6875 
L 54.296875 0 
L 45.3125 0 
L 45.3125 8.40625 
Q 42.046875 3.421875 37.71875 1 
Q 33.40625 -1.421875 27.6875 -1.421875 
Q 18.265625 -1.421875 13.375 4.4375 
Q 8.5 10.296875 8.5 21.578125 
M 31.109375 56 
z
" id="DejaVuSans-75"/>
     </defs>
     <g transform="translate(307.843437 58.070438)scale(0.1 -0.1)">
      <use xlink:href="#DejaVuSans-61"/>
      <use x="61.279297" xlink:href="#DejaVuSans-63"/>
      <use x="116.259766" xlink:href="#DejaVuSans-74"/>
      <use x="155.46875" xlink:href="#DejaVuSans-75"/>
      <use x="218.847656" xlink:href="#DejaVuSans-61"/>
      <use x="280.126953" xlink:href="#DejaVuSans-6c"/>
     </g>
    </g>
    <g id="line2d_20">
     <path d="M 279.843437 69.248563 
L 299.843437 69.248563 
" style="fill:none;stroke:#ff7f0e;stroke-linecap:square;stroke-width:1.5;"/>
    </g>
    <g id="line2d_21"/>
    <g id="text_16">
     <!-- pred. (mean) -->
     <defs>
      <path d="M 18.109375 8.203125 
L 18.109375 -20.796875 
L 9.078125 -20.796875 
L 9.078125 54.6875 
L 18.109375 54.6875 
L 18.109375 46.390625 
Q 20.953125 51.265625 25.265625 53.625 
Q 29.59375 56 35.59375 56 
Q 45.5625 56 51.78125 48.09375 
Q 58.015625 40.1875 58.015625 27.296875 
Q 58.015625 14.40625 51.78125 6.484375 
Q 45.5625 -1.421875 35.59375 -1.421875 
Q 29.59375 -1.421875 25.265625 0.953125 
Q 20.953125 3.328125 18.109375 8.203125 
M 48.6875 27.296875 
Q 48.6875 37.203125 44.609375 42.84375 
Q 40.53125 48.484375 33.40625 48.484375 
Q 26.265625 48.484375 22.1875 42.84375 
Q 18.109375 37.203125 18.109375 27.296875 
Q 18.109375 17.390625 22.1875 11.75 
Q 26.265625 6.109375 33.40625 6.109375 
Q 40.53125 6.109375 44.609375 11.75 
Q 48.6875 17.390625 48.6875 27.296875 
" id="DejaVuSans-70"/>
      <path d="M 45.40625 46.390625 
L 45.40625 75.984375 
L 54.390625 75.984375 
L 54.390625 0 
L 45.40625 0 
L 45.40625 8.203125 
Q 42.578125 3.328125 38.25 0.953125 
Q 33.9375 -1.421875 27.875 -1.421875 
Q 17.96875 -1.421875 11.734375 6.484375 
Q 5.515625 14.40625 5.515625 27.296875 
Q 5.515625 40.1875 11.734375 48.09375 
Q 17.96875 56 27.875 56 
Q 33.9375 56 38.25 53.625 
Q 42.578125 51.265625 45.40625 46.390625 
M 14.796875 27.296875 
Q 14.796875 17.390625 18.875 11.75 
Q 22.953125 6.109375 30.078125 6.109375 
Q 37.203125 6.109375 41.296875 11.75 
Q 45.40625 17.390625 45.40625 27.296875 
Q 45.40625 37.203125 41.296875 42.84375 
Q 37.203125 48.484375 30.078125 48.484375 
Q 22.953125 48.484375 18.875 42.84375 
Q 14.796875 37.203125 14.796875 27.296875 
" id="DejaVuSans-64"/>
      <path d="M 31 75.875 
Q 24.46875 64.65625 21.28125 53.65625 
Q 18.109375 42.671875 18.109375 31.390625 
Q 18.109375 20.125 21.3125 9.0625 
Q 24.515625 -2 31 -13.1875 
L 23.1875 -13.1875 
Q 15.875 -1.703125 12.234375 9.375 
Q 8.59375 20.453125 8.59375 31.390625 
Q 8.59375 42.28125 12.203125 53.3125 
Q 15.828125 64.359375 23.1875 75.875 
z
" id="DejaVuSans-28"/>
      <path d="M 52 44.1875 
Q 55.375 50.25 60.0625 53.125 
Q 64.75 56 71.09375 56 
Q 79.640625 56 84.28125 50.015625 
Q 88.921875 44.046875 88.921875 33.015625 
L 88.921875 0 
L 79.890625 0 
L 79.890625 32.71875 
Q 79.890625 40.578125 77.09375 44.375 
Q 74.3125 48.1875 68.609375 48.1875 
Q 61.625 48.1875 57.5625 43.546875 
Q 53.515625 38.921875 53.515625 30.90625 
L 53.515625 0 
L 44.484375 0 
L 44.484375 32.71875 
Q 44.484375 40.625 41.703125 44.40625 
Q 38.921875 48.1875 33.109375 48.1875 
Q 26.21875 48.1875 22.15625 43.53125 
Q 18.109375 38.875 18.109375 30.90625 
L 18.109375 0 
L 9.078125 0 
L 9.078125 54.6875 
L 18.109375 54.6875 
L 18.109375 46.1875 
Q 21.1875 51.21875 25.484375 53.609375 
Q 29.78125 56 35.6875 56 
Q 41.65625 56 45.828125 52.96875 
Q 50 49.953125 52 44.1875 
" id="DejaVuSans-6d"/>
      <path d="M 8.015625 75.875 
L 15.828125 75.875 
Q 23.140625 64.359375 26.78125 53.3125 
Q 30.421875 42.28125 30.421875 31.390625 
Q 30.421875 20.453125 26.78125 9.375 
Q 23.140625 -1.703125 15.828125 -13.1875 
L 8.015625 -13.1875 
Q 14.5 -2 17.703125 9.0625 
Q 20.90625 20.125 20.90625 31.390625 
Q 20.90625 42.671875 17.703125 53.65625 
Q 14.5 64.65625 8.015625 75.875 
" id="DejaVuSans-29"/>
     </defs>
     <g transform="translate(307.843437 72.748563)scale(0.1 -0.1)">
      <use xlink:href="#DejaVuSans-70"/>
      <use x="63.476562" xlink:href="#DejaVuSans-72"/>
      <use x="104.558594" xlink:href="#DejaVuSans-65"/>
      <use x="166.082031" xlink:href="#DejaVuSans-64"/>
      <use x="229.558594" xlink:href="#DejaVuSans-2e"/>
      <use x="261.345703" xlink:href="#DejaVuSans-20"/>
      <use x="293.132812" xlink:href="#DejaVuSans-28"/>
      <use x="332.146484" xlink:href="#DejaVuSans-6d"/>
      <use x="429.558594" xlink:href="#DejaVuSans-65"/>
      <use x="491.082031" xlink:href="#DejaVuSans-61"/>
      <use x="552.361328" xlink:href="#DejaVuSans-6e"/>
      <use x="615.740234" xlink:href="#DejaVuSans-29"/>
     </g>
    </g>
    <g id="line2d_22">
     <path d="M 279.843437 83.926688 
L 299.843437 83.926688 
" style="fill:none;stroke:#2ca02c;stroke-linecap:square;stroke-width:1.5;"/>
    </g>
    <g id="line2d_23"/>
    <g id="text_17">
     <!-- pred.(5th percen.) -->
     <defs>
      <path d="M 54.890625 33.015625 
L 54.890625 0 
L 45.90625 0 
L 45.90625 32.71875 
Q 45.90625 40.484375 42.875 44.328125 
Q 39.84375 48.1875 33.796875 48.1875 
Q 26.515625 48.1875 22.3125 43.546875 
Q 18.109375 38.921875 18.109375 30.90625 
L 18.109375 0 
L 9.078125 0 
L 9.078125 75.984375 
L 18.109375 75.984375 
L 18.109375 46.1875 
Q 21.34375 51.125 25.703125 53.5625 
Q 30.078125 56 35.796875 56 
Q 45.21875 56 50.046875 50.171875 
Q 54.890625 44.34375 54.890625 33.015625 
" id="DejaVuSans-68"/>
     </defs>
     <g transform="translate(307.843437 87.426688)scale(0.1 -0.1)">
      <use xlink:href="#DejaVuSans-70"/>
      <use x="63.476562" xlink:href="#DejaVuSans-72"/>
      <use x="104.558594" xlink:href="#DejaVuSans-65"/>
      <use x="166.082031" xlink:href="#DejaVuSans-64"/>
      <use x="229.558594" xlink:href="#DejaVuSans-2e"/>
      <use x="261.345703" xlink:href="#DejaVuSans-28"/>
      <use x="300.359375" xlink:href="#DejaVuSans-35"/>
      <use x="363.982422" xlink:href="#DejaVuSans-74"/>
      <use x="403.191406" xlink:href="#DejaVuSans-68"/>
      <use x="466.570312" xlink:href="#DejaVuSans-20"/>
      <use x="498.357422" xlink:href="#DejaVuSans-70"/>
      <use x="561.833984" xlink:href="#DejaVuSans-65"/>
      <use x="623.357422" xlink:href="#DejaVuSans-72"/>
      <use x="664.439453" xlink:href="#DejaVuSans-63"/>
      <use x="719.419922" xlink:href="#DejaVuSans-65"/>
      <use x="780.943359" xlink:href="#DejaVuSans-6e"/>
      <use x="844.322266" xlink:href="#DejaVuSans-2e"/>
      <use x="876.109375" xlink:href="#DejaVuSans-29"/>
     </g>
    </g>
    <g id="line2d_24">
     <path d="M 279.843437 98.604813 
L 299.843437 98.604813 
" style="fill:none;stroke:#d62728;stroke-linecap:square;stroke-width:1.5;"/>
    </g>
    <g id="line2d_25"/>
    <g id="text_18">
     <!-- pred.(95th percen.) -->
     <defs>
      <path d="M 10.984375 1.515625 
L 10.984375 10.5 
Q 14.703125 8.734375 18.5 7.8125 
Q 22.3125 6.890625 25.984375 6.890625 
Q 35.75 6.890625 40.890625 13.453125 
Q 46.046875 20.015625 46.78125 33.40625 
Q 43.953125 29.203125 39.59375 26.953125 
Q 35.25 24.703125 29.984375 24.703125 
Q 19.046875 24.703125 12.671875 31.3125 
Q 6.296875 37.9375 6.296875 49.421875 
Q 6.296875 60.640625 12.9375 67.421875 
Q 19.578125 74.21875 30.609375 74.21875 
Q 43.265625 74.21875 49.921875 64.515625 
Q 56.59375 54.828125 56.59375 36.375 
Q 56.59375 19.140625 48.40625 8.859375 
Q 40.234375 -1.421875 26.421875 -1.421875 
Q 22.703125 -1.421875 18.890625 -0.6875 
Q 15.09375 0.046875 10.984375 1.515625 
M 30.609375 32.421875 
Q 37.25 32.421875 41.125 36.953125 
Q 45.015625 41.5 45.015625 49.421875 
Q 45.015625 57.28125 41.125 61.84375 
Q 37.25 66.40625 30.609375 66.40625 
Q 23.96875 66.40625 20.09375 61.84375 
Q 16.21875 57.28125 16.21875 49.421875 
Q 16.21875 41.5 20.09375 36.953125 
Q 23.96875 32.421875 30.609375 32.421875 
" id="DejaVuSans-39"/>
     </defs>
     <g transform="translate(307.843437 102.104813)scale(0.1 -0.1)">
      <use xlink:href="#DejaVuSans-70"/>
      <use x="63.476562" xlink:href="#DejaVuSans-72"/>
      <use x="104.558594" xlink:href="#DejaVuSans-65"/>
      <use x="166.082031" xlink:href="#DejaVuSans-64"/>
      <use x="229.558594" xlink:href="#DejaVuSans-2e"/>
      <use x="261.345703" xlink:href="#DejaVuSans-28"/>
      <use x="300.359375" xlink:href="#DejaVuSans-39"/>
      <use x="363.982422" xlink:href="#DejaVuSans-35"/>
      <use x="427.605469" xlink:href="#DejaVuSans-74"/>
      <use x="466.814453" xlink:href="#DejaVuSans-68"/>
      <use x="530.193359" xlink:href="#DejaVuSans-20"/>
      <use x="561.980469" xlink:href="#DejaVuSans-70"/>
      <use x="625.457031" xlink:href="#DejaVuSans-65"/>
      <use x="686.980469" xlink:href="#DejaVuSans-72"/>
      <use x="728.0625" xlink:href="#DejaVuSans-63"/>
      <use x="783.042969" xlink:href="#DejaVuSans-65"/>
      <use x="844.566406" xlink:href="#DejaVuSans-6e"/>
      <use x="907.945312" xlink:href="#DejaVuSans-2e"/>
      <use x="939.732422" xlink:href="#DejaVuSans-29"/>
     </g>
    </g>
   </g>
  </g>
 </g>
 <defs>
  <clipPath id="p486043a364">
   <rect height="266.112" width="357.12" x="57.6" y="41.472"/>
  </clipPath>
 </defs>
</svg>
