<?xml version="1.0" encoding="utf-8" standalone="no"?>
<!DOCTYPE svg PUBLIC "-//W3C//DTD SVG 1.1//EN"
  "http://www.w3.org/Graphics/SVG/1.1/DTD/svg11.dtd">
<!-- Created with matplotlib (http://matplotlib.org/) -->
<svg height="345pt" version="1.1" viewBox="0 0 460 345" width="460pt" xmlns="http://www.w3.org/2000/svg" xmlns:xlink="http://www.w3.org/1999/xlink">
 <defs>
  <style type="text/css">
*{stroke-linecap:butt;stroke-linejoin:round;}
  </style>
 </defs>
 <g id="figure_1">
  <g id="patch_1">
   <path d="M 0 345.6 
L 460.8 345.6 
L 460.8 0 
L 0 0 
z
" style="fill:#ffffff;"/>
  </g>
  <g id="axes_1">
   <g id="patch_2">
    <path d="M 57.6 307.584 
L 414.72 307.584 
L 414.72 41.472 
L 57.6 41.472 
z
" style="fill:#ffffff;"/>
   </g>
   <g id="PolyCollection_1">
    <path clip-path="url(#p817b60aefb)" d="M 73.832727 96.497906 
L 73.832727 103.355966 
L 75.48072 128.447263 
L 77.128713 152.825341 
L 78.776705 171.035335 
L 80.424698 187.562894 
L 82.07269 203.537674 
L 83.720683 219.313753 
L 85.368676 234.188501 
L 87.016668 246.945704 
L 88.664661 258.339695 
L 90.312653 267.650802 
L 91.960646 273.952357 
L 93.608639 277.233384 
L 95.256631 277.260002 
L 96.904624 274.021384 
L 98.552617 266.891842 
L 100.200609 255.670578 
L 101.848602 243.172713 
L 103.496594 226.360036 
L 105.144587 205.062098 
L 106.79258 180.677599 
L 108.440572 157.329934 
L 110.088565 136.299199 
L 111.736557 116.673342 
L 113.38455 102.017936 
L 115.032543 92.196865 
L 116.680535 86.113458 
L 118.328528 83.249609 
L 119.976521 83.706072 
L 121.624513 88.509246 
L 123.272506 100.601962 
L 124.920498 122.403739 
L 126.568491 146.696589 
L 128.216484 166.026513 
L 129.864476 183.531271 
L 131.512469 200.318878 
L 133.160461 216.837141 
L 134.808454 232.54437 
L 136.456447 246.219424 
L 138.104439 258.602244 
L 139.752432 268.878149 
L 141.400425 276.075516 
L 143.048417 280.181455 
L 144.69641 281.012428 
L 146.344402 278.65062 
L 147.992395 272.484018 
L 149.640388 261.684042 
L 151.28838 248.51719 
L 152.936373 232.450896 
L 154.584365 211.300264 
L 156.232358 186.560209 
L 157.880351 161.066043 
L 159.528343 139.09663 
L 161.176336 118.183888 
L 162.824329 102.288499 
L 164.472321 91.535562 
L 166.120314 84.712836 
L 167.768306 81.311123 
L 169.416299 81.379494 
L 171.064292 85.992238 
L 172.712284 99.708203 
L 174.360277 126.7021 
L 176.008269 154.086356 
L 177.656262 171.668757 
L 179.304255 186.939182 
L 180.952247 201.672494 
L 182.60024 216.321096 
L 184.248233 230.373752 
L 185.896225 242.600789 
L 187.544218 252.89741 
L 189.19221 261.594918 
L 190.840203 267.767687 
L 192.488196 270.945012 
L 194.136188 271.058344 
L 195.784181 267.964827 
L 197.432174 261.281442 
L 199.080166 251.842607 
L 200.728159 240.241785 
L 202.376151 224.49154 
L 204.024144 204.799441 
L 205.672137 182.295165 
L 207.320129 160.707367 
L 208.968122 141.204449 
L 210.616114 122.59595 
L 212.264107 107.507082 
L 213.9121 97.340239 
L 215.560092 90.956869 
L 217.208085 87.656897 
L 218.856078 87.408559 
L 220.50407 90.576145 
L 222.152063 98.118147 
L 223.800055 111.377795 
L 225.448048 129.605002 
L 227.096041 149.465523 
L 228.744033 169.252168 
L 230.392026 189.011903 
L 232.040018 208.197614 
L 233.688011 226.780228 
L 235.336004 243.4829 
L 236.983996 259.005647 
L 238.631989 272.441708 
L 240.279982 282.298718 
L 241.927974 288.794508 
L 243.575967 291.964636 
L 245.223959 292.214956 
L 246.871952 289.025933 
L 248.519945 281.353372 
L 250.167937 268.160199 
L 251.81593 250.659415 
L 253.463922 231.365221 
L 255.111915 206.030972 
L 256.759908 176.716481 
L 258.4079 148.602829 
L 260.055893 123.711547 
L 261.703886 103.600577 
L 263.351878 89.765331 
L 264.999871 80.722259 
L 266.647863 75.864104 
L 268.295856 74.789759 
L 269.943849 79.581031 
L 271.591841 104.080732 
L 273.239834 157.546126 
L 274.887826 181.630764 
L 276.535819 187.544086 
L 278.183812 193.83379 
L 279.831804 201.208296 
L 281.479797 208.839286 
L 283.12779 216.197375 
L 284.775782 222.624397 
L 286.423775 227.807776 
L 288.071767 231.502048 
L 289.71976 233.572366 
L 291.367753 233.960505 
L 293.015745 232.605216 
L 294.663738 229.465638 
L 296.311731 224.427169 
L 297.959723 217.355847 
L 299.607716 208.54926 
L 301.255708 198.036242 
L 302.903701 186.44987 
L 304.551694 175.958286 
L 306.199686 165.713905 
L 307.847679 155.705557 
L 309.495671 146.41988 
L 311.143664 138.502215 
L 312.791657 132.341714 
L 314.439649 128.248141 
L 316.087642 126.435597 
L 317.735635 127.041149 
L 319.383627 130.067676 
L 321.03162 135.463577 
L 322.679612 143.127486 
L 324.327605 152.776697 
L 325.975598 164.120387 
L 327.62359 176.748513 
L 329.271583 189.785891 
L 330.919575 202.659035 
L 332.567568 215.206154 
L 334.215561 227.138949 
L 335.863553 237.527778 
L 337.511546 245.980717 
L 339.159539 252.332641 
L 340.807531 256.758443 
L 342.455524 258.700156 
L 344.103516 257.961751 
L 345.751509 254.682971 
L 347.399502 249.163597 
L 349.047494 240.929318 
L 350.695487 229.497061 
L 352.343479 214.804553 
L 353.991472 197.18084 
L 355.639465 177.825438 
L 357.287457 160.826928 
L 358.93545 144.321568 
L 360.583443 128.652673 
L 362.231435 115.337369 
L 363.879428 105.745842 
L 365.52742 99.892281 
L 367.175413 97.016908 
L 368.823406 97.055616 
L 370.471398 99.752741 
L 372.119391 105.530073 
L 373.767383 114.550949 
L 375.415376 127.834117 
L 377.063369 144.264467 
L 378.711361 162.721007 
L 380.359354 182.64832 
L 382.007347 202.451148 
L 383.655339 221.611286 
L 385.303332 239.2649 
L 386.951324 255.297282 
L 388.599317 269.78882 
L 390.24731 280.806847 
L 391.895302 288.396778 
L 393.543295 292.528743 
L 395.191287 293.730461 
L 396.83928 291.758164 
L 398.487273 285.670766 
L 398.487273 275.753883 
L 398.487273 275.753883 
L 396.83928 279.882224 
L 395.191287 281.304597 
L 393.543295 280.328816 
L 391.895302 276.95329 
L 390.24731 271.104316 
L 388.599317 262.514465 
L 386.951324 250.765285 
L 385.303332 235.654348 
L 383.655339 218.411649 
L 382.007347 199.399145 
L 380.359354 179.341825 
L 378.711361 159.349664 
L 377.063369 140.927146 
L 375.415376 124.974102 
L 373.767383 111.657069 
L 372.119391 101.773972 
L 370.471398 95.425693 
L 368.823406 92.462785 
L 367.175413 92.831303 
L 365.52742 96.534368 
L 363.879428 103.400523 
L 362.231435 112.29523 
L 360.583443 124.118527 
L 358.93545 139.251227 
L 357.287457 156.746361 
L 355.639465 174.726611 
L 353.991472 191.688702 
L 352.343479 207.582797 
L 350.695487 222.303293 
L 349.047494 235.240224 
L 347.399502 245.622901 
L 345.751509 252.818434 
L 344.103516 256.412836 
L 342.455524 256.783428 
L 340.807531 254.479679 
L 339.159539 249.750747 
L 337.511546 242.83239 
L 335.863553 234.233722 
L 334.215561 224.094103 
L 332.567568 212.611599 
L 330.919575 199.936687 
L 329.271583 186.069753 
L 327.62359 172.422342 
L 325.975598 159.649859 
L 324.327605 148.260606 
L 322.679612 138.755426 
L 321.03162 131.417251 
L 319.383627 126.329418 
L 317.735635 123.459735 
L 316.087642 122.683941 
L 314.439649 124.084308 
L 312.791657 127.651917 
L 311.143664 133.303938 
L 309.495671 141.021808 
L 307.847679 150.589865 
L 306.199686 161.519843 
L 304.551694 173.114357 
L 302.903701 184.534123 
L 301.255708 194.845988 
L 299.607716 204.208713 
L 297.959723 212.508966 
L 296.311731 219.553967 
L 294.663738 224.960849 
L 293.015745 228.54705 
L 291.367753 230.274199 
L 289.71976 230.09125 
L 288.071767 228.161057 
L 286.423775 224.641914 
L 284.775782 219.737771 
L 283.12779 213.690128 
L 281.479797 206.703789 
L 279.831804 198.798253 
L 278.183812 190.564088 
L 276.535819 184.377344 
L 274.887826 174.151969 
L 273.239834 143.45848 
L 271.591841 94.672125 
L 269.943849 68.803768 
L 268.295856 63.559025 
L 266.647863 65.35971 
L 264.999871 71.609355 
L 263.351878 82.920303 
L 261.703886 99.892548 
L 260.055893 120.006052 
L 258.4079 144.397765 
L 256.759908 169.94429 
L 255.111915 195.693467 
L 253.463922 221.047344 
L 251.81593 244.847316 
L 250.167937 262.912914 
L 248.519945 272.857581 
L 246.871952 278.072214 
L 245.223959 280.31578 
L 243.575967 280.03765 
L 241.927974 277.444831 
L 240.279982 272.405353 
L 238.631989 264.718441 
L 236.983996 254.081039 
L 235.336004 239.853192 
L 233.688011 223.502365 
L 232.040018 205.174474 
L 230.392026 185.842851 
L 228.744033 166.168477 
L 227.096041 146.424797 
L 225.448048 125.705485 
L 223.800055 106.396957 
L 222.152063 91.949699 
L 220.50407 83.468144 
L 218.856078 80.026613 
L 217.208085 80.568039 
L 215.560092 84.898582 
L 213.9121 93.107465 
L 212.264107 104.911696 
L 210.616114 118.630386 
L 208.968122 136.340555 
L 207.320129 156.822527 
L 205.672137 177.434957 
L 204.024144 197.172003 
L 202.376151 215.99058 
L 200.728159 233.242642 
L 199.080166 248.129736 
L 197.432174 258.872126 
L 195.784181 264.263388 
L 194.136188 266.319943 
L 192.488196 265.785201 
L 190.840203 262.920154 
L 189.19221 257.725556 
L 187.544218 249.641538 
L 185.896225 239.210951 
L 184.248233 227.131183 
L 182.60024 213.571199 
L 180.952247 198.78043 
L 179.304255 183.67939 
L 177.656262 168.732595 
L 176.008269 148.810933 
L 174.360277 119.536895 
L 172.712284 92.217911 
L 171.064292 77.185649 
L 169.416299 72.011726 
L 167.768306 72.345404 
L 166.120314 76.804548 
L 164.472321 85.470299 
L 162.824329 98.745331 
L 161.176336 114.728302 
L 159.528343 134.544403 
L 157.880351 157.29729 
L 156.232358 179.897833 
L 154.584365 202.153846 
L 152.936373 223.39026 
L 151.28838 242.890701 
L 149.640388 258.507739 
L 147.992395 267.097846 
L 146.344402 271.527779 
L 144.69641 272.986671 
L 143.048417 271.995482 
L 141.400425 268.626388 
L 139.752432 262.827788 
L 138.104439 254.445378 
L 136.456447 242.769472 
L 134.808454 229.188608 
L 133.160461 213.932998 
L 131.512469 197.385787 
L 129.864476 180.295643 
L 128.216484 163.127901 
L 126.568491 142.313863 
L 124.920498 116.339898 
L 123.272506 93.731101 
L 121.624513 80.441267 
L 119.976521 75.052378 
L 118.328528 74.835105 
L 116.680535 78.59226 
L 115.032543 86.392579 
L 113.38455 98.545908 
L 111.736557 113.336955 
L 110.088565 131.619539 
L 108.440572 153.307472 
L 106.79258 175.336976 
L 105.144587 196.708177 
L 103.496594 217.294863 
L 101.848602 236.286727 
L 100.200609 252.603199 
L 98.552617 263.078111 
L 96.904624 268.439037 
L 95.256631 270.540315 
L 93.608639 270.125176 
L 91.960646 267.345258 
L 90.312653 262.132251 
L 88.664661 254.418117 
L 87.016668 243.541942 
L 85.368676 230.797158 
L 83.720683 216.429585 
L 82.07269 200.701373 
L 80.424698 184.312492 
L 78.776705 168.093452 
L 77.128713 148.669569 
L 75.48072 122.080402 
L 73.832727 96.497906 
z
" style="fill:#008000;fill-opacity:0.4;"/>
   </g>
   <g id="matplotlib.axis_1">
    <g id="xtick_1">
     <g id="line2d_1">
      <defs>
       <path d="M 0 0 
L 0 3.5 
" id="m2bc89baa52" style="stroke:#000000;stroke-width:0.8;"/>
      </defs>
      <g>
       <use style="stroke:#000000;stroke-width:0.8;" x="73.832727" xlink:href="#m2bc89baa52" y="307.584"/>
      </g>
     </g>
     <g id="text_1">
      <!-- 0.0 -->
      <defs>
       <path d="M 31.78125 66.40625 
Q 24.171875 66.40625 20.328125 58.90625 
Q 16.5 51.421875 16.5 36.375 
Q 16.5 21.390625 20.328125 13.890625 
Q 24.171875 6.390625 31.78125 6.390625 
Q 39.453125 6.390625 43.28125 13.890625 
Q 47.125 21.390625 47.125 36.375 
Q 47.125 51.421875 43.28125 58.90625 
Q 39.453125 66.40625 31.78125 66.40625 
M 31.78125 74.21875 
Q 44.046875 74.21875 50.515625 64.515625 
Q 56.984375 54.828125 56.984375 36.375 
Q 56.984375 17.96875 50.515625 8.265625 
Q 44.046875 -1.421875 31.78125 -1.421875 
Q 19.53125 -1.421875 13.0625 8.265625 
Q 6.59375 17.96875 6.59375 36.375 
Q 6.59375 54.828125 13.0625 64.515625 
Q 19.53125 74.21875 31.78125 74.21875 
" id="DejaVuSans-30"/>
       <path d="M 10.6875 12.40625 
L 21 12.40625 
L 21 0 
L 10.6875 0 
z
" id="DejaVuSans-2e"/>
      </defs>
      <g transform="translate(65.881165 322.182437)scale(0.1 -0.1)">
       <use xlink:href="#DejaVuSans-30"/>
       <use x="63.623047" xlink:href="#DejaVuSans-2e"/>
       <use x="95.410156" xlink:href="#DejaVuSans-30"/>
      </g>
     </g>
    </g>
    <g id="xtick_2">
     <g id="line2d_2">
      <g>
       <use style="stroke:#000000;stroke-width:0.8;" x="138.763636" xlink:href="#m2bc89baa52" y="307.584"/>
      </g>
     </g>
     <g id="text_2">
      <!-- 0.2 -->
      <defs>
       <path d="M 19.1875 8.296875 
L 53.609375 8.296875 
L 53.609375 0 
L 7.328125 0 
L 7.328125 8.296875 
Q 12.9375 14.109375 22.625 23.890625 
Q 32.328125 33.6875 34.8125 36.53125 
Q 39.546875 41.84375 41.421875 45.53125 
Q 43.3125 49.21875 43.3125 52.78125 
Q 43.3125 58.59375 39.234375 62.25 
Q 35.15625 65.921875 28.609375 65.921875 
Q 23.96875 65.921875 18.8125 64.3125 
Q 13.671875 62.703125 7.8125 59.421875 
L 7.8125 69.390625 
Q 13.765625 71.78125 18.9375 73 
Q 24.125 74.21875 28.421875 74.21875 
Q 39.75 74.21875 46.484375 68.546875 
Q 53.21875 62.890625 53.21875 53.421875 
Q 53.21875 48.921875 51.53125 44.890625 
Q 49.859375 40.875 45.40625 35.40625 
Q 44.1875 33.984375 37.640625 27.21875 
Q 31.109375 20.453125 19.1875 8.296875 
" id="DejaVuSans-32"/>
      </defs>
      <g transform="translate(130.812074 322.182437)scale(0.1 -0.1)">
       <use xlink:href="#DejaVuSans-30"/>
       <use x="63.623047" xlink:href="#DejaVuSans-2e"/>
       <use x="95.410156" xlink:href="#DejaVuSans-32"/>
      </g>
     </g>
    </g>
    <g id="xtick_3">
     <g id="line2d_3">
      <g>
       <use style="stroke:#000000;stroke-width:0.8;" x="203.694545" xlink:href="#m2bc89baa52" y="307.584"/>
      </g>
     </g>
     <g id="text_3">
      <!-- 0.4 -->
      <defs>
       <path d="M 37.796875 64.3125 
L 12.890625 25.390625 
L 37.796875 25.390625 
z
M 35.203125 72.90625 
L 47.609375 72.90625 
L 47.609375 25.390625 
L 58.015625 25.390625 
L 58.015625 17.1875 
L 47.609375 17.1875 
L 47.609375 0 
L 37.796875 0 
L 37.796875 17.1875 
L 4.890625 17.1875 
L 4.890625 26.703125 
z
" id="DejaVuSans-34"/>
      </defs>
      <g transform="translate(195.742983 322.182437)scale(0.1 -0.1)">
       <use xlink:href="#DejaVuSans-30"/>
       <use x="63.623047" xlink:href="#DejaVuSans-2e"/>
       <use x="95.410156" xlink:href="#DejaVuSans-34"/>
      </g>
     </g>
    </g>
    <g id="xtick_4">
     <g id="line2d_4">
      <g>
       <use style="stroke:#000000;stroke-width:0.8;" x="268.625455" xlink:href="#m2bc89baa52" y="307.584"/>
      </g>
     </g>
     <g id="text_4">
      <!-- 0.6 -->
      <defs>
       <path d="M 33.015625 40.375 
Q 26.375 40.375 22.484375 35.828125 
Q 18.609375 31.296875 18.609375 23.390625 
Q 18.609375 15.53125 22.484375 10.953125 
Q 26.375 6.390625 33.015625 6.390625 
Q 39.65625 6.390625 43.53125 10.953125 
Q 47.40625 15.53125 47.40625 23.390625 
Q 47.40625 31.296875 43.53125 35.828125 
Q 39.65625 40.375 33.015625 40.375 
M 52.59375 71.296875 
L 52.59375 62.3125 
Q 48.875 64.0625 45.09375 64.984375 
Q 41.3125 65.921875 37.59375 65.921875 
Q 27.828125 65.921875 22.671875 59.328125 
Q 17.53125 52.734375 16.796875 39.40625 
Q 19.671875 43.65625 24.015625 45.921875 
Q 28.375 48.1875 33.59375 48.1875 
Q 44.578125 48.1875 50.953125 41.515625 
Q 57.328125 34.859375 57.328125 23.390625 
Q 57.328125 12.15625 50.6875 5.359375 
Q 44.046875 -1.421875 33.015625 -1.421875 
Q 20.359375 -1.421875 13.671875 8.265625 
Q 6.984375 17.96875 6.984375 36.375 
Q 6.984375 53.65625 15.1875 63.9375 
Q 23.390625 74.21875 37.203125 74.21875 
Q 40.921875 74.21875 44.703125 73.484375 
Q 48.484375 72.75 52.59375 71.296875 
" id="DejaVuSans-36"/>
      </defs>
      <g transform="translate(260.673892 322.182437)scale(0.1 -0.1)">
       <use xlink:href="#DejaVuSans-30"/>
       <use x="63.623047" xlink:href="#DejaVuSans-2e"/>
       <use x="95.410156" xlink:href="#DejaVuSans-36"/>
      </g>
     </g>
    </g>
    <g id="xtick_5">
     <g id="line2d_5">
      <g>
       <use style="stroke:#000000;stroke-width:0.8;" x="333.556364" xlink:href="#m2bc89baa52" y="307.584"/>
      </g>
     </g>
     <g id="text_5">
      <!-- 0.8 -->
      <defs>
       <path d="M 31.78125 34.625 
Q 24.75 34.625 20.71875 30.859375 
Q 16.703125 27.09375 16.703125 20.515625 
Q 16.703125 13.921875 20.71875 10.15625 
Q 24.75 6.390625 31.78125 6.390625 
Q 38.8125 6.390625 42.859375 10.171875 
Q 46.921875 13.96875 46.921875 20.515625 
Q 46.921875 27.09375 42.890625 30.859375 
Q 38.875 34.625 31.78125 34.625 
M 21.921875 38.8125 
Q 15.578125 40.375 12.03125 44.71875 
Q 8.5 49.078125 8.5 55.328125 
Q 8.5 64.0625 14.71875 69.140625 
Q 20.953125 74.21875 31.78125 74.21875 
Q 42.671875 74.21875 48.875 69.140625 
Q 55.078125 64.0625 55.078125 55.328125 
Q 55.078125 49.078125 51.53125 44.71875 
Q 48 40.375 41.703125 38.8125 
Q 48.828125 37.15625 52.796875 32.3125 
Q 56.78125 27.484375 56.78125 20.515625 
Q 56.78125 9.90625 50.3125 4.234375 
Q 43.84375 -1.421875 31.78125 -1.421875 
Q 19.734375 -1.421875 13.25 4.234375 
Q 6.78125 9.90625 6.78125 20.515625 
Q 6.78125 27.484375 10.78125 32.3125 
Q 14.796875 37.15625 21.921875 38.8125 
M 18.3125 54.390625 
Q 18.3125 48.734375 21.84375 45.5625 
Q 25.390625 42.390625 31.78125 42.390625 
Q 38.140625 42.390625 41.71875 45.5625 
Q 45.3125 48.734375 45.3125 54.390625 
Q 45.3125 60.0625 41.71875 63.234375 
Q 38.140625 66.40625 31.78125 66.40625 
Q 25.390625 66.40625 21.84375 63.234375 
Q 18.3125 60.0625 18.3125 54.390625 
" id="DejaVuSans-38"/>
      </defs>
      <g transform="translate(325.604801 322.182437)scale(0.1 -0.1)">
       <use xlink:href="#DejaVuSans-30"/>
       <use x="63.623047" xlink:href="#DejaVuSans-2e"/>
       <use x="95.410156" xlink:href="#DejaVuSans-38"/>
      </g>
     </g>
    </g>
    <g id="xtick_6">
     <g id="line2d_6">
      <g>
       <use style="stroke:#000000;stroke-width:0.8;" x="398.487273" xlink:href="#m2bc89baa52" y="307.584"/>
      </g>
     </g>
     <g id="text_6">
      <!-- 1.0 -->
      <defs>
       <path d="M 12.40625 8.296875 
L 28.515625 8.296875 
L 28.515625 63.921875 
L 10.984375 60.40625 
L 10.984375 69.390625 
L 28.421875 72.90625 
L 38.28125 72.90625 
L 38.28125 8.296875 
L 54.390625 8.296875 
L 54.390625 0 
L 12.40625 0 
z
" id="DejaVuSans-31"/>
      </defs>
      <g transform="translate(390.53571 322.182437)scale(0.1 -0.1)">
       <use xlink:href="#DejaVuSans-31"/>
       <use x="63.623047" xlink:href="#DejaVuSans-2e"/>
       <use x="95.410156" xlink:href="#DejaVuSans-30"/>
      </g>
     </g>
    </g>
   </g>
   <g id="matplotlib.axis_2">
    <g id="ytick_1">
     <g id="line2d_7">
      <defs>
       <path d="M 0 0 
L -3.5 0 
" id="m5def2c298e" style="stroke:#000000;stroke-width:0.8;"/>
      </defs>
      <g>
       <use style="stroke:#000000;stroke-width:0.8;" x="57.6" xlink:href="#m5def2c298e" y="270.502555"/>
      </g>
     </g>
     <g id="text_7">
      <!-- 0.2 -->
      <g transform="translate(34.696875 274.301773)scale(0.1 -0.1)">
       <use xlink:href="#DejaVuSans-30"/>
       <use x="63.623047" xlink:href="#DejaVuSans-2e"/>
       <use x="95.410156" xlink:href="#DejaVuSans-32"/>
      </g>
     </g>
    </g>
    <g id="ytick_2">
     <g id="line2d_8">
      <g>
       <use style="stroke:#000000;stroke-width:0.8;" x="57.6" xlink:href="#m5def2c298e" y="213.245077"/>
      </g>
     </g>
     <g id="text_8">
      <!-- 0.4 -->
      <g transform="translate(34.696875 217.044296)scale(0.1 -0.1)">
       <use xlink:href="#DejaVuSans-30"/>
       <use x="63.623047" xlink:href="#DejaVuSans-2e"/>
       <use x="95.410156" xlink:href="#DejaVuSans-34"/>
      </g>
     </g>
    </g>
    <g id="ytick_3">
     <g id="line2d_9">
      <g>
       <use style="stroke:#000000;stroke-width:0.8;" x="57.6" xlink:href="#m5def2c298e" y="155.987599"/>
      </g>
     </g>
     <g id="text_9">
      <!-- 0.6 -->
      <g transform="translate(34.696875 159.786818)scale(0.1 -0.1)">
       <use xlink:href="#DejaVuSans-30"/>
       <use x="63.623047" xlink:href="#DejaVuSans-2e"/>
       <use x="95.410156" xlink:href="#DejaVuSans-36"/>
      </g>
     </g>
    </g>
    <g id="ytick_4">
     <g id="line2d_10">
      <g>
       <use style="stroke:#000000;stroke-width:0.8;" x="57.6" xlink:href="#m5def2c298e" y="98.730122"/>
      </g>
     </g>
     <g id="text_10">
      <!-- 0.8 -->
      <g transform="translate(34.696875 102.52934)scale(0.1 -0.1)">
       <use xlink:href="#DejaVuSans-30"/>
       <use x="63.623047" xlink:href="#DejaVuSans-2e"/>
       <use x="95.410156" xlink:href="#DejaVuSans-38"/>
      </g>
     </g>
    </g>
    <g id="ytick_5">
     <g id="line2d_11">
      <g>
       <use style="stroke:#000000;stroke-width:0.8;" x="57.6" xlink:href="#m5def2c298e" y="41.472644"/>
      </g>
     </g>
     <g id="text_11">
      <!-- 1.0 -->
      <g transform="translate(34.696875 45.271863)scale(0.1 -0.1)">
       <use xlink:href="#DejaVuSans-31"/>
       <use x="63.623047" xlink:href="#DejaVuSans-2e"/>
       <use x="95.410156" xlink:href="#DejaVuSans-30"/>
      </g>
     </g>
    </g>
   </g>
   <g id="line2d_12">
    <path clip-path="url(#p817b60aefb)" d="M 73.832727 101.187899 
L 75.48072 127.387489 
L 77.128713 150.064313 
L 78.776705 168.312844 
L 83.720683 218.031229 
L 85.368676 233.490462 
L 87.016668 247.43867 
L 88.664661 259.26692 
L 90.312653 268.43241 
L 91.960646 274.483381 
L 93.608639 277.080866 
L 95.256631 276.014732 
L 96.904624 271.217128 
L 98.552617 262.768501 
L 100.200609 250.900171 
L 101.848602 235.988606 
L 103.496594 218.545402 
L 106.79258 178.679883 
L 110.088565 137.342274 
L 111.736557 118.21341 
L 113.38455 101.226834 
L 115.032543 87.180716 
L 116.680535 76.85204 
L 118.328528 71.107683 
L 119.976521 71.227351 
L 121.624513 79.348179 
L 123.272506 97.30212 
L 126.568491 144.639167 
L 128.216484 163.710488 
L 133.160461 215.549977 
L 134.808454 231.904144 
L 136.456447 246.837753 
L 138.104439 259.705226 
L 139.752432 269.923968 
L 141.400425 276.999847 
L 143.048417 280.551528 
L 144.69641 280.328224 
L 146.344402 276.224294 
L 147.992395 268.287835 
L 149.640388 256.723543 
L 151.28838 241.889848 
L 152.936373 224.28804 
L 154.584365 204.546807 
L 161.176336 119.912812 
L 162.824329 101.653116 
L 164.472321 86.275761 
L 166.120314 74.616708 
L 167.768306 67.644178 
L 169.416299 66.945064 
L 171.064292 75.636177 
L 172.712284 97.009821 
L 174.360277 125.857856 
L 176.008269 150.225493 
L 177.656262 168.3054 
L 182.60024 214.803625 
L 184.248233 229.238236 
L 185.896225 242.302388 
L 187.544218 253.427516 
L 189.19221 262.1046 
L 190.840203 267.908504 
L 192.488196 270.517441 
L 194.136188 269.72872 
L 195.784181 265.471054 
L 197.432174 257.811435 
L 199.080166 246.956848 
L 200.728159 233.249408 
L 202.376151 217.157767 
L 205.672137 180.230988 
L 208.968122 141.758257 
L 210.616114 123.883045 
L 212.264107 107.950293 
L 213.9121 94.692897 
L 215.560092 84.795656 
L 217.208085 78.922184 
L 218.856078 77.800796 
L 220.50407 82.32385 
L 222.152063 93.255162 
L 223.800055 109.924245 
L 233.688011 226.278597 
L 235.336004 244.432366 
L 236.983996 260.714675 
L 238.631989 274.410664 
L 240.279982 284.888209 
L 241.927974 291.625697 
L 243.575967 294.236638 
L 245.223959 292.489998 
L 246.871952 286.324513 
L 248.519945 275.854984 
L 250.167937 261.374854 
L 251.81593 243.348196 
L 253.463922 222.397398 
L 256.759908 174.874265 
L 260.055893 126.033064 
L 261.703886 103.608745 
L 263.351878 83.854056 
L 264.999871 67.791903 
L 266.647863 56.73033 
L 268.295856 53.568 
L 269.943849 67.024366 
L 273.239834 150.656928 
L 274.887826 171.247862 
L 276.535819 181.857387 
L 279.831804 198.745193 
L 281.479797 206.640141 
L 283.12779 213.876913 
L 284.775782 220.146607 
L 286.423775 225.167801 
L 288.071767 228.69887 
L 289.71976 230.552581 
L 291.367753 230.602681 
L 293.015745 228.792486 
L 294.663738 225.139459 
L 296.311731 219.734926 
L 297.959723 212.744933 
L 299.607716 204.404522 
L 301.255708 195.010574 
L 307.847679 154.373511 
L 309.495671 145.502896 
L 311.143664 137.952639 
L 312.791657 132.070578 
L 314.439649 128.146437 
L 316.087642 126.398366 
L 317.735635 126.960921 
L 319.383627 129.875613 
L 321.03162 135.087475 
L 322.679612 142.447351 
L 324.327605 151.718196 
L 325.975598 162.583374 
L 329.271583 187.487228 
L 332.567568 213.431164 
L 334.215561 225.497891 
L 335.863553 236.274321 
L 337.511546 245.286361 
L 339.159539 252.115461 
L 340.807531 256.419505 
L 342.455524 257.947994 
L 344.103516 256.554347 
L 345.751509 252.206786 
L 347.399502 244.991485 
L 349.047494 235.113425 
L 350.695487 222.891817 
L 352.343479 208.750365 
L 355.639465 176.839914 
L 358.93545 144.243518 
L 360.583443 129.347699 
L 362.231435 116.256063 
L 363.879428 105.568955 
L 365.52742 97.818869 
L 367.175413 93.455849 
L 368.823406 92.830598 
L 370.471398 96.157543 
L 372.119391 103.42867 
L 373.767383 114.309309 
L 375.415376 128.165905 
L 377.063369 144.314231 
L 378.711361 162.215495 
L 386.951324 256.957153 
L 388.599317 271.740747 
L 390.24731 283.446752 
L 391.895302 291.508033 
L 393.543295 295.488 
L 395.191287 295.101512 
L 396.83928 290.231764 
L 398.487273 280.939161 
L 398.487273 280.939161 
" style="fill:none;stroke:#1f77b4;stroke-linecap:square;stroke-width:1.5;"/>
   </g>
   <g id="line2d_13">
    <path clip-path="url(#p817b60aefb)" d="M 73.832727 98.93931 
L 75.48072 124.597709 
L 77.128713 150.200935 
L 78.776705 169.373857 
L 83.720683 217.105987 
L 85.368676 231.559273 
L 87.016668 244.604144 
L 88.664661 255.848233 
L 90.312653 264.829468 
L 91.960646 271.152266 
L 93.608639 274.565972 
L 95.256631 274.880396 
L 96.904624 271.813763 
L 98.552617 264.931828 
L 100.200609 253.811292 
L 101.848602 238.46134 
L 103.496594 219.693967 
L 106.79258 177.31251 
L 110.088565 134.904005 
L 111.736557 116.112132 
L 113.38455 100.690803 
L 115.032543 89.3723 
L 116.680535 82.095532 
L 118.328528 78.480088 
L 119.976521 78.506822 
L 121.624513 83.345827 
L 123.272506 96.146794 
L 124.920498 118.833359 
L 126.568491 144.072864 
L 128.216484 164.431047 
L 131.512469 198.366169 
L 134.808454 229.93764 
L 136.456447 243.841075 
L 138.104439 255.969166 
L 139.752432 265.832144 
L 141.400425 272.998222 
L 143.048417 277.215118 
L 144.69641 278.334095 
L 146.344402 276.119234 
L 147.992395 270.124756 
L 149.640388 259.790767 
L 151.28838 244.866414 
L 152.936373 225.957346 
L 156.232358 182.057036 
L 159.528343 137.604392 
L 161.176336 117.585814 
L 162.824329 100.941656 
L 164.472321 88.590262 
L 166.120314 80.520324 
L 167.768306 76.273661 
L 169.416299 75.758762 
L 171.064292 80.395088 
L 172.712284 94.790628 
L 176.008269 150.523069 
L 177.656262 169.937577 
L 182.60024 214.261996 
L 184.248233 227.826672 
L 185.896225 240.095811 
L 187.544218 250.713898 
L 189.19221 259.269958 
L 190.840203 265.374916 
L 192.488196 268.732891 
L 194.136188 269.107584 
L 195.784181 266.226301 
L 197.432174 259.751737 
L 199.080166 249.416603 
L 200.728159 235.327932 
L 202.376151 218.198695 
L 205.672137 179.241219 
L 208.968122 139.678626 
L 210.616114 121.82227 
L 212.264107 106.807702 
L 213.9121 95.423637 
L 215.560092 87.810304 
L 217.208085 83.732225 
L 218.856078 83.0487 
L 220.50407 86.147019 
L 222.152063 94.205498 
L 223.800055 108.467484 
L 227.096041 148.020041 
L 232.040018 206.099356 
L 233.688011 224.210217 
L 235.336004 240.952238 
L 236.983996 255.956106 
L 238.631989 268.647554 
L 240.279982 278.426272 
L 241.927974 284.999424 
L 243.575967 288.385813 
L 245.223959 288.616177 
L 246.871952 285.417716 
L 248.519945 278.053105 
L 250.167937 265.487732 
L 251.81593 247.159839 
L 253.463922 224.032995 
L 260.055893 122.876025 
L 261.703886 102.183779 
L 263.351878 86.447124 
L 264.999871 75.952345 
L 266.647863 69.970556 
L 268.295856 68.080682 
L 269.943849 72.782749 
L 271.591841 97.739948 
L 273.239834 147.283191 
L 274.887826 176.164457 
L 276.535819 185.592542 
L 278.183812 192.137193 
L 281.479797 207.348541 
L 283.12779 214.329006 
L 284.775782 220.387952 
L 286.423775 225.291731 
L 288.071767 228.828389 
L 289.71976 230.803447 
L 291.367753 231.055348 
L 293.015745 229.471236 
L 294.663738 226.007753 
L 296.311731 220.710827 
L 297.959723 213.730546 
L 299.607716 205.317065 
L 301.255708 195.792913 
L 309.495671 144.970229 
L 311.143664 137.189927 
L 312.791657 131.182758 
L 314.439649 127.219618 
L 316.087642 125.470461 
L 317.735635 126.031822 
L 319.383627 128.949879 
L 321.03162 134.21886 
L 322.679612 141.752584 
L 324.327605 151.340877 
L 325.975598 162.61311 
L 329.271583 188.015079 
L 332.567568 213.285335 
L 334.215561 224.726763 
L 335.863553 234.953901 
L 337.511546 243.659883 
L 339.159539 250.507503 
L 340.807531 255.163842 
L 342.455524 257.336141 
L 344.103516 256.771686 
L 345.751509 253.242733 
L 347.399502 246.583029 
L 349.047494 236.796125 
L 350.695487 224.193787 
L 352.343479 209.408852 
L 355.639465 176.3029 
L 358.93545 142.767884 
L 360.583443 127.677525 
L 362.231435 114.889256 
L 363.879428 105.038235 
L 365.52742 98.368367 
L 367.175413 94.859075 
L 368.823406 94.455137 
L 370.471398 97.240469 
L 372.119391 103.452751 
L 373.767383 113.295226 
L 375.415376 126.629306 
L 377.063369 142.886084 
L 380.359354 180.794392 
L 383.655339 219.150215 
L 385.303332 236.588983 
L 386.951324 252.386887 
L 388.599317 266.02199 
L 390.24731 276.842812 
L 391.895302 284.450466 
L 393.543295 288.822707 
L 395.191287 290.05604 
L 396.83928 288.013225 
L 398.487273 282.089887 
L 398.487273 282.089887 
" style="fill:none;stroke:#ff7f0e;stroke-linecap:square;stroke-width:1.5;"/>
   </g>
   <g id="line2d_14">
    <path clip-path="url(#p817b60aefb)" d="M 73.832727 103.355966 
L 75.48072 128.447263 
L 77.128713 152.825341 
L 78.776705 171.035335 
L 82.07269 203.537674 
L 85.368676 234.188501 
L 87.016668 246.945704 
L 88.664661 258.339695 
L 90.312653 267.650802 
L 91.960646 273.952357 
L 93.608639 277.233384 
L 95.256631 277.260002 
L 96.904624 274.021384 
L 98.552617 266.891842 
L 100.200609 255.670578 
L 101.848602 243.172713 
L 103.496594 226.360036 
L 105.144587 205.062098 
L 108.440572 157.329934 
L 111.736557 116.673342 
L 113.38455 102.017936 
L 115.032543 92.196865 
L 116.680535 86.113458 
L 118.328528 83.249609 
L 119.976521 83.706072 
L 121.624513 88.509246 
L 123.272506 100.601962 
L 124.920498 122.403739 
L 126.568491 146.696589 
L 128.216484 166.026513 
L 131.512469 200.318878 
L 134.808454 232.54437 
L 136.456447 246.219424 
L 138.104439 258.602244 
L 139.752432 268.878149 
L 141.400425 276.075516 
L 143.048417 280.181455 
L 144.69641 281.012428 
L 146.344402 278.65062 
L 147.992395 272.484018 
L 149.640388 261.684042 
L 151.28838 248.51719 
L 152.936373 232.450896 
L 154.584365 211.300264 
L 157.880351 161.066043 
L 161.176336 118.183888 
L 162.824329 102.288499 
L 164.472321 91.535562 
L 166.120314 84.712836 
L 167.768306 81.311123 
L 169.416299 81.379494 
L 171.064292 85.992238 
L 172.712284 99.708203 
L 176.008269 154.086356 
L 177.656262 171.668757 
L 180.952247 201.672494 
L 184.248233 230.373752 
L 185.896225 242.600789 
L 187.544218 252.89741 
L 189.19221 261.594918 
L 190.840203 267.767687 
L 192.488196 270.945012 
L 194.136188 271.058344 
L 195.784181 267.964827 
L 197.432174 261.281442 
L 199.080166 251.842607 
L 200.728159 240.241785 
L 202.376151 224.49154 
L 204.024144 204.799441 
L 207.320129 160.707367 
L 210.616114 122.59595 
L 212.264107 107.507082 
L 213.9121 97.340239 
L 215.560092 90.956869 
L 217.208085 87.656897 
L 218.856078 87.408559 
L 220.50407 90.576145 
L 222.152063 98.118147 
L 223.800055 111.377795 
L 225.448048 129.605002 
L 232.040018 208.197614 
L 233.688011 226.780228 
L 235.336004 243.4829 
L 236.983996 259.005647 
L 238.631989 272.441708 
L 240.279982 282.298718 
L 241.927974 288.794508 
L 243.575967 291.964636 
L 245.223959 292.214956 
L 246.871952 289.025933 
L 248.519945 281.353372 
L 250.167937 268.160199 
L 251.81593 250.659415 
L 253.463922 231.365221 
L 255.111915 206.030972 
L 258.4079 148.602829 
L 260.055893 123.711547 
L 261.703886 103.600577 
L 263.351878 89.765331 
L 264.999871 80.722259 
L 266.647863 75.864104 
L 268.295856 74.789759 
L 269.943849 79.581031 
L 271.591841 104.080732 
L 273.239834 157.546126 
L 274.887826 181.630764 
L 278.183812 193.83379 
L 283.12779 216.197375 
L 284.775782 222.624397 
L 286.423775 227.807776 
L 288.071767 231.502048 
L 289.71976 233.572366 
L 291.367753 233.960505 
L 293.015745 232.605216 
L 294.663738 229.465638 
L 296.311731 224.427169 
L 297.959723 217.355847 
L 299.607716 208.54926 
L 301.255708 198.036242 
L 302.903701 186.44987 
L 306.199686 165.713905 
L 307.847679 155.705557 
L 309.495671 146.41988 
L 311.143664 138.502215 
L 312.791657 132.341714 
L 314.439649 128.248141 
L 316.087642 126.435597 
L 317.735635 127.041149 
L 319.383627 130.067676 
L 321.03162 135.463577 
L 322.679612 143.127486 
L 324.327605 152.776697 
L 325.975598 164.120387 
L 334.215561 227.138949 
L 335.863553 237.527778 
L 337.511546 245.980717 
L 339.159539 252.332641 
L 340.807531 256.758443 
L 342.455524 258.700156 
L 344.103516 257.961751 
L 345.751509 254.682971 
L 347.399502 249.163597 
L 349.047494 240.929318 
L 350.695487 229.497061 
L 352.343479 214.804553 
L 353.991472 197.18084 
L 355.639465 177.825438 
L 358.93545 144.321568 
L 360.583443 128.652673 
L 362.231435 115.337369 
L 363.879428 105.745842 
L 365.52742 99.892281 
L 367.175413 97.016908 
L 368.823406 97.055616 
L 370.471398 99.752741 
L 372.119391 105.530073 
L 373.767383 114.550949 
L 375.415376 127.834117 
L 377.063369 144.264467 
L 378.711361 162.721007 
L 383.655339 221.611286 
L 385.303332 239.2649 
L 386.951324 255.297282 
L 388.599317 269.78882 
L 390.24731 280.806847 
L 391.895302 288.396778 
L 393.543295 292.528743 
L 395.191287 293.730461 
L 396.83928 291.758164 
L 398.487273 285.670766 
L 398.487273 285.670766 
" style="fill:none;stroke:#2ca02c;stroke-linecap:square;stroke-width:1.5;"/>
   </g>
   <g id="line2d_15">
    <path clip-path="url(#p817b60aefb)" d="M 73.832727 96.497906 
L 77.128713 148.669569 
L 78.776705 168.093452 
L 83.720683 216.429585 
L 85.368676 230.797158 
L 87.016668 243.541942 
L 88.664661 254.418117 
L 90.312653 262.132251 
L 91.960646 267.345258 
L 93.608639 270.125176 
L 95.256631 270.540315 
L 96.904624 268.439037 
L 98.552617 263.078111 
L 100.200609 252.603199 
L 101.848602 236.286727 
L 103.496594 217.294863 
L 106.79258 175.336976 
L 110.088565 131.619539 
L 111.736557 113.336955 
L 113.38455 98.545908 
L 115.032543 86.392579 
L 116.680535 78.59226 
L 118.328528 74.835105 
L 119.976521 75.052378 
L 121.624513 80.441267 
L 123.272506 93.731101 
L 124.920498 116.339898 
L 126.568491 142.313863 
L 128.216484 163.127901 
L 133.160461 213.932998 
L 134.808454 229.188608 
L 136.456447 242.769472 
L 138.104439 254.445378 
L 139.752432 262.827788 
L 141.400425 268.626388 
L 143.048417 271.995482 
L 144.69641 272.986671 
L 146.344402 271.527779 
L 147.992395 267.097846 
L 149.640388 258.507739 
L 151.28838 242.890701 
L 152.936373 223.39026 
L 156.232358 179.897833 
L 159.528343 134.544403 
L 161.176336 114.728302 
L 162.824329 98.745331 
L 164.472321 85.470299 
L 166.120314 76.804548 
L 167.768306 72.345404 
L 169.416299 72.011726 
L 171.064292 77.185649 
L 172.712284 92.217911 
L 174.360277 119.536895 
L 176.008269 148.810933 
L 177.656262 168.732595 
L 182.60024 213.571199 
L 184.248233 227.131183 
L 185.896225 239.210951 
L 187.544218 249.641538 
L 189.19221 257.725556 
L 190.840203 262.920154 
L 192.488196 265.785201 
L 194.136188 266.319943 
L 195.784181 264.263388 
L 197.432174 258.872126 
L 199.080166 248.129736 
L 200.728159 233.242642 
L 202.376151 215.99058 
L 205.672137 177.434957 
L 208.968122 136.340555 
L 210.616114 118.630386 
L 212.264107 104.911696 
L 213.9121 93.107465 
L 215.560092 84.898582 
L 217.208085 80.568039 
L 218.856078 80.026613 
L 220.50407 83.468144 
L 222.152063 91.949699 
L 223.800055 106.396957 
L 225.448048 125.705485 
L 228.744033 166.168477 
L 232.040018 205.174474 
L 233.688011 223.502365 
L 235.336004 239.853192 
L 236.983996 254.081039 
L 238.631989 264.718441 
L 240.279982 272.405353 
L 241.927974 277.444831 
L 243.575967 280.03765 
L 245.223959 280.31578 
L 246.871952 278.072214 
L 248.519945 272.857581 
L 250.167937 262.912914 
L 251.81593 244.847316 
L 255.111915 195.693467 
L 260.055893 120.006052 
L 261.703886 99.892548 
L 263.351878 82.920303 
L 264.999871 71.609355 
L 266.647863 65.35971 
L 268.295856 63.559025 
L 269.943849 68.803768 
L 271.591841 94.672125 
L 273.239834 143.45848 
L 274.887826 174.151969 
L 276.535819 184.377344 
L 278.183812 190.564088 
L 281.479797 206.703789 
L 283.12779 213.690128 
L 284.775782 219.737771 
L 286.423775 224.641914 
L 288.071767 228.161057 
L 289.71976 230.09125 
L 291.367753 230.274199 
L 293.015745 228.54705 
L 294.663738 224.960849 
L 296.311731 219.553967 
L 297.959723 212.508966 
L 299.607716 204.208713 
L 301.255708 194.845988 
L 302.903701 184.534123 
L 307.847679 150.589865 
L 309.495671 141.021808 
L 311.143664 133.303938 
L 312.791657 127.651917 
L 314.439649 124.084308 
L 316.087642 122.683941 
L 317.735635 123.459735 
L 319.383627 126.329418 
L 321.03162 131.417251 
L 322.679612 138.755426 
L 324.327605 148.260606 
L 325.975598 159.649859 
L 327.62359 172.422342 
L 332.567568 212.611599 
L 334.215561 224.094103 
L 335.863553 234.233722 
L 337.511546 242.83239 
L 339.159539 249.750747 
L 340.807531 254.479679 
L 342.455524 256.783428 
L 344.103516 256.412836 
L 345.751509 252.818434 
L 347.399502 245.622901 
L 349.047494 235.240224 
L 350.695487 222.303293 
L 352.343479 207.582797 
L 355.639465 174.726611 
L 358.93545 139.251227 
L 360.583443 124.118527 
L 362.231435 112.29523 
L 363.879428 103.400523 
L 365.52742 96.534368 
L 367.175413 92.831303 
L 368.823406 92.462785 
L 370.471398 95.425693 
L 372.119391 101.773972 
L 373.767383 111.657069 
L 375.415376 124.974102 
L 377.063369 140.927146 
L 378.711361 159.349664 
L 383.655339 218.411649 
L 385.303332 235.654348 
L 386.951324 250.765285 
L 388.599317 262.514465 
L 390.24731 271.104316 
L 391.895302 276.95329 
L 393.543295 280.328816 
L 395.191287 281.304597 
L 396.83928 279.882224 
L 398.487273 275.753883 
L 398.487273 275.753883 
" style="fill:none;stroke:#d62728;stroke-linecap:square;stroke-width:1.5;"/>
   </g>
   <g id="patch_3">
    <path d="M 57.6 307.584 
L 57.6 41.472 
" style="fill:none;stroke:#000000;stroke-linecap:square;stroke-linejoin:miter;stroke-width:0.8;"/>
   </g>
   <g id="patch_4">
    <path d="M 414.72 307.584 
L 414.72 41.472 
" style="fill:none;stroke:#000000;stroke-linecap:square;stroke-linejoin:miter;stroke-width:0.8;"/>
   </g>
   <g id="patch_5">
    <path d="M 57.6 307.584 
L 414.72 307.584 
" style="fill:none;stroke:#000000;stroke-linecap:square;stroke-linejoin:miter;stroke-width:0.8;"/>
   </g>
   <g id="patch_6">
    <path d="M 57.6 41.472 
L 414.72 41.472 
" style="fill:none;stroke:#000000;stroke-linecap:square;stroke-linejoin:miter;stroke-width:0.8;"/>
   </g>
   <g id="text_12">
    <!-- Plot of Test Data vs MCMC Uncertainty  -->
    <defs>
     <path d="M 19.671875 64.796875 
L 19.671875 37.40625 
L 32.078125 37.40625 
Q 38.96875 37.40625 42.71875 40.96875 
Q 46.484375 44.53125 46.484375 51.125 
Q 46.484375 57.671875 42.71875 61.234375 
Q 38.96875 64.796875 32.078125 64.796875 
z
M 9.8125 72.90625 
L 32.078125 72.90625 
Q 44.34375 72.90625 50.609375 67.359375 
Q 56.890625 61.8125 56.890625 51.125 
Q 56.890625 40.328125 50.609375 34.8125 
Q 44.34375 29.296875 32.078125 29.296875 
L 19.671875 29.296875 
L 19.671875 0 
L 9.8125 0 
z
" id="DejaVuSans-50"/>
     <path d="M 9.421875 75.984375 
L 18.40625 75.984375 
L 18.40625 0 
L 9.421875 0 
z
" id="DejaVuSans-6c"/>
     <path d="M 30.609375 48.390625 
Q 23.390625 48.390625 19.1875 42.75 
Q 14.984375 37.109375 14.984375 27.296875 
Q 14.984375 17.484375 19.15625 11.84375 
Q 23.34375 6.203125 30.609375 6.203125 
Q 37.796875 6.203125 41.984375 11.859375 
Q 46.1875 17.53125 46.1875 27.296875 
Q 46.1875 37.015625 41.984375 42.703125 
Q 37.796875 48.390625 30.609375 48.390625 
M 30.609375 56 
Q 42.328125 56 49.015625 48.375 
Q 55.71875 40.765625 55.71875 27.296875 
Q 55.71875 13.875 49.015625 6.21875 
Q 42.328125 -1.421875 30.609375 -1.421875 
Q 18.84375 -1.421875 12.171875 6.21875 
Q 5.515625 13.875 5.515625 27.296875 
Q 5.515625 40.765625 12.171875 48.375 
Q 18.84375 56 30.609375 56 
" id="DejaVuSans-6f"/>
     <path d="M 18.3125 70.21875 
L 18.3125 54.6875 
L 36.8125 54.6875 
L 36.8125 47.703125 
L 18.3125 47.703125 
L 18.3125 18.015625 
Q 18.3125 11.328125 20.140625 9.421875 
Q 21.96875 7.515625 27.59375 7.515625 
L 36.8125 7.515625 
L 36.8125 0 
L 27.59375 0 
Q 17.1875 0 13.234375 3.875 
Q 9.28125 7.765625 9.28125 18.015625 
L 9.28125 47.703125 
L 2.6875 47.703125 
L 2.6875 54.6875 
L 9.28125 54.6875 
L 9.28125 70.21875 
z
" id="DejaVuSans-74"/>
     <path id="DejaVuSans-20"/>
     <path d="M 37.109375 75.984375 
L 37.109375 68.5 
L 28.515625 68.5 
Q 23.6875 68.5 21.796875 66.546875 
Q 19.921875 64.59375 19.921875 59.515625 
L 19.921875 54.6875 
L 34.71875 54.6875 
L 34.71875 47.703125 
L 19.921875 47.703125 
L 19.921875 0 
L 10.890625 0 
L 10.890625 47.703125 
L 2.296875 47.703125 
L 2.296875 54.6875 
L 10.890625 54.6875 
L 10.890625 58.5 
Q 10.890625 67.625 15.140625 71.796875 
Q 19.390625 75.984375 28.609375 75.984375 
z
" id="DejaVuSans-66"/>
     <path d="M -0.296875 72.90625 
L 61.375 72.90625 
L 61.375 64.59375 
L 35.5 64.59375 
L 35.5 0 
L 25.59375 0 
L 25.59375 64.59375 
L -0.296875 64.59375 
z
" id="DejaVuSans-54"/>
     <path d="M 56.203125 29.59375 
L 56.203125 25.203125 
L 14.890625 25.203125 
Q 15.484375 15.921875 20.484375 11.0625 
Q 25.484375 6.203125 34.421875 6.203125 
Q 39.59375 6.203125 44.453125 7.46875 
Q 49.3125 8.734375 54.109375 11.28125 
L 54.109375 2.78125 
Q 49.265625 0.734375 44.1875 -0.34375 
Q 39.109375 -1.421875 33.890625 -1.421875 
Q 20.796875 -1.421875 13.15625 6.1875 
Q 5.515625 13.8125 5.515625 26.8125 
Q 5.515625 40.234375 12.765625 48.109375 
Q 20.015625 56 32.328125 56 
Q 43.359375 56 49.78125 48.890625 
Q 56.203125 41.796875 56.203125 29.59375 
M 47.21875 32.234375 
Q 47.125 39.59375 43.09375 43.984375 
Q 39.0625 48.390625 32.421875 48.390625 
Q 24.90625 48.390625 20.390625 44.140625 
Q 15.875 39.890625 15.1875 32.171875 
z
" id="DejaVuSans-65"/>
     <path d="M 44.28125 53.078125 
L 44.28125 44.578125 
Q 40.484375 46.53125 36.375 47.5 
Q 32.28125 48.484375 27.875 48.484375 
Q 21.1875 48.484375 17.84375 46.4375 
Q 14.5 44.390625 14.5 40.28125 
Q 14.5 37.15625 16.890625 35.375 
Q 19.28125 33.59375 26.515625 31.984375 
L 29.59375 31.296875 
Q 39.15625 29.25 43.1875 25.515625 
Q 47.21875 21.78125 47.21875 15.09375 
Q 47.21875 7.46875 41.1875 3.015625 
Q 35.15625 -1.421875 24.609375 -1.421875 
Q 20.21875 -1.421875 15.453125 -0.5625 
Q 10.6875 0.296875 5.421875 2 
L 5.421875 11.28125 
Q 10.40625 8.6875 15.234375 7.390625 
Q 20.0625 6.109375 24.8125 6.109375 
Q 31.15625 6.109375 34.5625 8.28125 
Q 37.984375 10.453125 37.984375 14.40625 
Q 37.984375 18.0625 35.515625 20.015625 
Q 33.0625 21.96875 24.703125 23.78125 
L 21.578125 24.515625 
Q 13.234375 26.265625 9.515625 29.90625 
Q 5.8125 33.546875 5.8125 39.890625 
Q 5.8125 47.609375 11.28125 51.796875 
Q 16.75 56 26.8125 56 
Q 31.78125 56 36.171875 55.265625 
Q 40.578125 54.546875 44.28125 53.078125 
" id="DejaVuSans-73"/>
     <path d="M 19.671875 64.796875 
L 19.671875 8.109375 
L 31.59375 8.109375 
Q 46.6875 8.109375 53.6875 14.9375 
Q 60.6875 21.78125 60.6875 36.53125 
Q 60.6875 51.171875 53.6875 57.984375 
Q 46.6875 64.796875 31.59375 64.796875 
z
M 9.8125 72.90625 
L 30.078125 72.90625 
Q 51.265625 72.90625 61.171875 64.09375 
Q 71.09375 55.28125 71.09375 36.53125 
Q 71.09375 17.671875 61.125 8.828125 
Q 51.171875 0 30.078125 0 
L 9.8125 0 
z
" id="DejaVuSans-44"/>
     <path d="M 34.28125 27.484375 
Q 23.390625 27.484375 19.1875 25 
Q 14.984375 22.515625 14.984375 16.5 
Q 14.984375 11.71875 18.140625 8.90625 
Q 21.296875 6.109375 26.703125 6.109375 
Q 34.1875 6.109375 38.703125 11.40625 
Q 43.21875 16.703125 43.21875 25.484375 
L 43.21875 27.484375 
z
M 52.203125 31.203125 
L 52.203125 0 
L 43.21875 0 
L 43.21875 8.296875 
Q 40.140625 3.328125 35.546875 0.953125 
Q 30.953125 -1.421875 24.3125 -1.421875 
Q 15.921875 -1.421875 10.953125 3.296875 
Q 6 8.015625 6 15.921875 
Q 6 25.140625 12.171875 29.828125 
Q 18.359375 34.515625 30.609375 34.515625 
L 43.21875 34.515625 
L 43.21875 35.40625 
Q 43.21875 41.609375 39.140625 45 
Q 35.0625 48.390625 27.6875 48.390625 
Q 23 48.390625 18.546875 47.265625 
Q 14.109375 46.140625 10.015625 43.890625 
L 10.015625 52.203125 
Q 14.9375 54.109375 19.578125 55.046875 
Q 24.21875 56 28.609375 56 
Q 40.484375 56 46.34375 49.84375 
Q 52.203125 43.703125 52.203125 31.203125 
" id="DejaVuSans-61"/>
     <path d="M 2.984375 54.6875 
L 12.5 54.6875 
L 29.59375 8.796875 
L 46.6875 54.6875 
L 56.203125 54.6875 
L 35.6875 0 
L 23.484375 0 
z
" id="DejaVuSans-76"/>
     <path d="M 9.8125 72.90625 
L 24.515625 72.90625 
L 43.109375 23.296875 
L 61.8125 72.90625 
L 76.515625 72.90625 
L 76.515625 0 
L 66.890625 0 
L 66.890625 64.015625 
L 48.09375 14.015625 
L 38.1875 14.015625 
L 19.390625 64.015625 
L 19.390625 0 
L 9.8125 0 
z
" id="DejaVuSans-4d"/>
     <path d="M 64.40625 67.28125 
L 64.40625 56.890625 
Q 59.421875 61.53125 53.78125 63.8125 
Q 48.140625 66.109375 41.796875 66.109375 
Q 29.296875 66.109375 22.65625 58.46875 
Q 16.015625 50.828125 16.015625 36.375 
Q 16.015625 21.96875 22.65625 14.328125 
Q 29.296875 6.6875 41.796875 6.6875 
Q 48.140625 6.6875 53.78125 8.984375 
Q 59.421875 11.28125 64.40625 15.921875 
L 64.40625 5.609375 
Q 59.234375 2.09375 53.4375 0.328125 
Q 47.65625 -1.421875 41.21875 -1.421875 
Q 24.65625 -1.421875 15.125 8.703125 
Q 5.609375 18.84375 5.609375 36.375 
Q 5.609375 53.953125 15.125 64.078125 
Q 24.65625 74.21875 41.21875 74.21875 
Q 47.75 74.21875 53.53125 72.484375 
Q 59.328125 70.75 64.40625 67.28125 
" id="DejaVuSans-43"/>
     <path d="M 8.6875 72.90625 
L 18.609375 72.90625 
L 18.609375 28.609375 
Q 18.609375 16.890625 22.84375 11.734375 
Q 27.09375 6.59375 36.625 6.59375 
Q 46.09375 6.59375 50.34375 11.734375 
Q 54.59375 16.890625 54.59375 28.609375 
L 54.59375 72.90625 
L 64.5 72.90625 
L 64.5 27.390625 
Q 64.5 13.140625 57.4375 5.859375 
Q 50.390625 -1.421875 36.625 -1.421875 
Q 22.796875 -1.421875 15.734375 5.859375 
Q 8.6875 13.140625 8.6875 27.390625 
z
" id="DejaVuSans-55"/>
     <path d="M 54.890625 33.015625 
L 54.890625 0 
L 45.90625 0 
L 45.90625 32.71875 
Q 45.90625 40.484375 42.875 44.328125 
Q 39.84375 48.1875 33.796875 48.1875 
Q 26.515625 48.1875 22.3125 43.546875 
Q 18.109375 38.921875 18.109375 30.90625 
L 18.109375 0 
L 9.078125 0 
L 9.078125 54.6875 
L 18.109375 54.6875 
L 18.109375 46.1875 
Q 21.34375 51.125 25.703125 53.5625 
Q 30.078125 56 35.796875 56 
Q 45.21875 56 50.046875 50.171875 
Q 54.890625 44.34375 54.890625 33.015625 
" id="DejaVuSans-6e"/>
     <path d="M 48.78125 52.59375 
L 48.78125 44.1875 
Q 44.96875 46.296875 41.140625 47.34375 
Q 37.3125 48.390625 33.40625 48.390625 
Q 24.65625 48.390625 19.8125 42.84375 
Q 14.984375 37.3125 14.984375 27.296875 
Q 14.984375 17.28125 19.8125 11.734375 
Q 24.65625 6.203125 33.40625 6.203125 
Q 37.3125 6.203125 41.140625 7.25 
Q 44.96875 8.296875 48.78125 10.40625 
L 48.78125 2.09375 
Q 45.015625 0.34375 40.984375 -0.53125 
Q 36.96875 -1.421875 32.421875 -1.421875 
Q 20.0625 -1.421875 12.78125 6.34375 
Q 5.515625 14.109375 5.515625 27.296875 
Q 5.515625 40.671875 12.859375 48.328125 
Q 20.21875 56 33.015625 56 
Q 37.15625 56 41.109375 55.140625 
Q 45.0625 54.296875 48.78125 52.59375 
" id="DejaVuSans-63"/>
     <path d="M 41.109375 46.296875 
Q 39.59375 47.171875 37.8125 47.578125 
Q 36.03125 48 33.890625 48 
Q 26.265625 48 22.1875 43.046875 
Q 18.109375 38.09375 18.109375 28.8125 
L 18.109375 0 
L 9.078125 0 
L 9.078125 54.6875 
L 18.109375 54.6875 
L 18.109375 46.1875 
Q 20.953125 51.171875 25.484375 53.578125 
Q 30.03125 56 36.53125 56 
Q 37.453125 56 38.578125 55.875 
Q 39.703125 55.765625 41.0625 55.515625 
z
" id="DejaVuSans-72"/>
     <path d="M 9.421875 54.6875 
L 18.40625 54.6875 
L 18.40625 0 
L 9.421875 0 
z
M 9.421875 75.984375 
L 18.40625 75.984375 
L 18.40625 64.59375 
L 9.421875 64.59375 
z
" id="DejaVuSans-69"/>
     <path d="M 32.171875 -5.078125 
Q 28.375 -14.84375 24.75 -17.8125 
Q 21.140625 -20.796875 15.09375 -20.796875 
L 7.90625 -20.796875 
L 7.90625 -13.28125 
L 13.1875 -13.28125 
Q 16.890625 -13.28125 18.9375 -11.515625 
Q 21 -9.765625 23.484375 -3.21875 
L 25.09375 0.875 
L 2.984375 54.6875 
L 12.5 54.6875 
L 29.59375 11.921875 
L 46.6875 54.6875 
L 56.203125 54.6875 
z
" id="DejaVuSans-79"/>
    </defs>
    <g transform="translate(118.112813 35.472)scale(0.12 -0.12)">
     <use xlink:href="#DejaVuSans-50"/>
     <use x="60.302734" xlink:href="#DejaVuSans-6c"/>
     <use x="88.085938" xlink:href="#DejaVuSans-6f"/>
     <use x="149.267578" xlink:href="#DejaVuSans-74"/>
     <use x="188.476562" xlink:href="#DejaVuSans-20"/>
     <use x="220.263672" xlink:href="#DejaVuSans-6f"/>
     <use x="281.445312" xlink:href="#DejaVuSans-66"/>
     <use x="316.650391" xlink:href="#DejaVuSans-20"/>
     <use x="348.4375" xlink:href="#DejaVuSans-54"/>
     <use x="409.255859" xlink:href="#DejaVuSans-65"/>
     <use x="470.779297" xlink:href="#DejaVuSans-73"/>
     <use x="522.878906" xlink:href="#DejaVuSans-74"/>
     <use x="562.087891" xlink:href="#DejaVuSans-20"/>
     <use x="593.875" xlink:href="#DejaVuSans-44"/>
     <use x="670.876953" xlink:href="#DejaVuSans-61"/>
     <use x="732.15625" xlink:href="#DejaVuSans-74"/>
     <use x="771.365234" xlink:href="#DejaVuSans-61"/>
     <use x="832.644531" xlink:href="#DejaVuSans-20"/>
     <use x="864.431641" xlink:href="#DejaVuSans-76"/>
     <use x="923.611328" xlink:href="#DejaVuSans-73"/>
     <use x="975.710938" xlink:href="#DejaVuSans-20"/>
     <use x="1007.498047" xlink:href="#DejaVuSans-4d"/>
     <use x="1093.777344" xlink:href="#DejaVuSans-43"/>
     <use x="1163.601562" xlink:href="#DejaVuSans-4d"/>
     <use x="1249.880859" xlink:href="#DejaVuSans-43"/>
     <use x="1319.705078" xlink:href="#DejaVuSans-20"/>
     <use x="1351.492188" xlink:href="#DejaVuSans-55"/>
     <use x="1424.685547" xlink:href="#DejaVuSans-6e"/>
     <use x="1488.064453" xlink:href="#DejaVuSans-63"/>
     <use x="1543.044922" xlink:href="#DejaVuSans-65"/>
     <use x="1604.568359" xlink:href="#DejaVuSans-72"/>
     <use x="1645.681641" xlink:href="#DejaVuSans-74"/>
     <use x="1684.890625" xlink:href="#DejaVuSans-61"/>
     <use x="1746.169922" xlink:href="#DejaVuSans-69"/>
     <use x="1773.953125" xlink:href="#DejaVuSans-6e"/>
     <use x="1837.332031" xlink:href="#DejaVuSans-74"/>
     <use x="1876.541016" xlink:href="#DejaVuSans-79"/>
     <use x="1935.720703" xlink:href="#DejaVuSans-20"/>
    </g>
   </g>
   <g id="legend_1">
    <g id="patch_7">
     <path d="M 277.843437 108.1845 
L 407.72 108.1845 
Q 409.72 108.1845 409.72 106.1845 
L 409.72 48.472 
Q 409.72 46.472 407.72 46.472 
L 277.843437 46.472 
Q 275.843437 46.472 275.843437 48.472 
L 275.843437 106.1845 
Q 275.843437 108.1845 277.843437 108.1845 
z
" style="fill:#ffffff;opacity:0.8;stroke:#cccccc;stroke-linejoin:miter;"/>
    </g>
    <g id="line2d_16">
     <path d="M 279.843437 54.570438 
L 299.843437 54.570438 
" style="fill:none;stroke:#1f77b4;stroke-linecap:square;stroke-width:1.5;"/>
    </g>
    <g id="line2d_17"/>
    <g id="text_13">
     <!-- actual -->
     <defs>
      <path d="M 8.5 21.578125 
L 8.5 54.6875 
L 17.484375 54.6875 
L 17.484375 21.921875 
Q 17.484375 14.15625 20.5 10.265625 
Q 23.53125 6.390625 29.59375 6.390625 
Q 36.859375 6.390625 41.078125 11.03125 
Q 45.3125 15.671875 45.3125 23.6875 
L 45.3125 54.6875 
L 54.296875 54.6875 
L 54.296875 0 
L 45.3125 0 
L 45.3125 8.40625 
Q 42.046875 3.421875 37.71875 1 
Q 33.40625 -1.421875 27.6875 -1.421875 
Q 18.265625 -1.421875 13.375 4.4375 
Q 8.5 10.296875 8.5 21.578125 
M 31.109375 56 
z
" id="DejaVuSans-75"/>
     </defs>
     <g transform="translate(307.843437 58.070438)scale(0.1 -0.1)">
      <use xlink:href="#DejaVuSans-61"/>
      <use x="61.279297" xlink:href="#DejaVuSans-63"/>
      <use x="116.259766" xlink:href="#DejaVuSans-74"/>
      <use x="155.46875" xlink:href="#DejaVuSans-75"/>
      <use x="218.847656" xlink:href="#DejaVuSans-61"/>
      <use x="280.126953" xlink:href="#DejaVuSans-6c"/>
     </g>
    </g>
    <g id="line2d_18">
     <path d="M 279.843437 69.248563 
L 299.843437 69.248563 
" style="fill:none;stroke:#ff7f0e;stroke-linecap:square;stroke-width:1.5;"/>
    </g>
    <g id="line2d_19"/>
    <g id="text_14">
     <!-- pred. (mean) -->
     <defs>
      <path d="M 18.109375 8.203125 
L 18.109375 -20.796875 
L 9.078125 -20.796875 
L 9.078125 54.6875 
L 18.109375 54.6875 
L 18.109375 46.390625 
Q 20.953125 51.265625 25.265625 53.625 
Q 29.59375 56 35.59375 56 
Q 45.5625 56 51.78125 48.09375 
Q 58.015625 40.1875 58.015625 27.296875 
Q 58.015625 14.40625 51.78125 6.484375 
Q 45.5625 -1.421875 35.59375 -1.421875 
Q 29.59375 -1.421875 25.265625 0.953125 
Q 20.953125 3.328125 18.109375 8.203125 
M 48.6875 27.296875 
Q 48.6875 37.203125 44.609375 42.84375 
Q 40.53125 48.484375 33.40625 48.484375 
Q 26.265625 48.484375 22.1875 42.84375 
Q 18.109375 37.203125 18.109375 27.296875 
Q 18.109375 17.390625 22.1875 11.75 
Q 26.265625 6.109375 33.40625 6.109375 
Q 40.53125 6.109375 44.609375 11.75 
Q 48.6875 17.390625 48.6875 27.296875 
" id="DejaVuSans-70"/>
      <path d="M 45.40625 46.390625 
L 45.40625 75.984375 
L 54.390625 75.984375 
L 54.390625 0 
L 45.40625 0 
L 45.40625 8.203125 
Q 42.578125 3.328125 38.25 0.953125 
Q 33.9375 -1.421875 27.875 -1.421875 
Q 17.96875 -1.421875 11.734375 6.484375 
Q 5.515625 14.40625 5.515625 27.296875 
Q 5.515625 40.1875 11.734375 48.09375 
Q 17.96875 56 27.875 56 
Q 33.9375 56 38.25 53.625 
Q 42.578125 51.265625 45.40625 46.390625 
M 14.796875 27.296875 
Q 14.796875 17.390625 18.875 11.75 
Q 22.953125 6.109375 30.078125 6.109375 
Q 37.203125 6.109375 41.296875 11.75 
Q 45.40625 17.390625 45.40625 27.296875 
Q 45.40625 37.203125 41.296875 42.84375 
Q 37.203125 48.484375 30.078125 48.484375 
Q 22.953125 48.484375 18.875 42.84375 
Q 14.796875 37.203125 14.796875 27.296875 
" id="DejaVuSans-64"/>
      <path d="M 31 75.875 
Q 24.46875 64.65625 21.28125 53.65625 
Q 18.109375 42.671875 18.109375 31.390625 
Q 18.109375 20.125 21.3125 9.0625 
Q 24.515625 -2 31 -13.1875 
L 23.1875 -13.1875 
Q 15.875 -1.703125 12.234375 9.375 
Q 8.59375 20.453125 8.59375 31.390625 
Q 8.59375 42.28125 12.203125 53.3125 
Q 15.828125 64.359375 23.1875 75.875 
z
" id="DejaVuSans-28"/>
      <path d="M 52 44.1875 
Q 55.375 50.25 60.0625 53.125 
Q 64.75 56 71.09375 56 
Q 79.640625 56 84.28125 50.015625 
Q 88.921875 44.046875 88.921875 33.015625 
L 88.921875 0 
L 79.890625 0 
L 79.890625 32.71875 
Q 79.890625 40.578125 77.09375 44.375 
Q 74.3125 48.1875 68.609375 48.1875 
Q 61.625 48.1875 57.5625 43.546875 
Q 53.515625 38.921875 53.515625 30.90625 
L 53.515625 0 
L 44.484375 0 
L 44.484375 32.71875 
Q 44.484375 40.625 41.703125 44.40625 
Q 38.921875 48.1875 33.109375 48.1875 
Q 26.21875 48.1875 22.15625 43.53125 
Q 18.109375 38.875 18.109375 30.90625 
L 18.109375 0 
L 9.078125 0 
L 9.078125 54.6875 
L 18.109375 54.6875 
L 18.109375 46.1875 
Q 21.1875 51.21875 25.484375 53.609375 
Q 29.78125 56 35.6875 56 
Q 41.65625 56 45.828125 52.96875 
Q 50 49.953125 52 44.1875 
" id="DejaVuSans-6d"/>
      <path d="M 8.015625 75.875 
L 15.828125 75.875 
Q 23.140625 64.359375 26.78125 53.3125 
Q 30.421875 42.28125 30.421875 31.390625 
Q 30.421875 20.453125 26.78125 9.375 
Q 23.140625 -1.703125 15.828125 -13.1875 
L 8.015625 -13.1875 
Q 14.5 -2 17.703125 9.0625 
Q 20.90625 20.125 20.90625 31.390625 
Q 20.90625 42.671875 17.703125 53.65625 
Q 14.5 64.65625 8.015625 75.875 
" id="DejaVuSans-29"/>
     </defs>
     <g transform="translate(307.843437 72.748563)scale(0.1 -0.1)">
      <use xlink:href="#DejaVuSans-70"/>
      <use x="63.476562" xlink:href="#DejaVuSans-72"/>
      <use x="104.558594" xlink:href="#DejaVuSans-65"/>
      <use x="166.082031" xlink:href="#DejaVuSans-64"/>
      <use x="229.558594" xlink:href="#DejaVuSans-2e"/>
      <use x="261.345703" xlink:href="#DejaVuSans-20"/>
      <use x="293.132812" xlink:href="#DejaVuSans-28"/>
      <use x="332.146484" xlink:href="#DejaVuSans-6d"/>
      <use x="429.558594" xlink:href="#DejaVuSans-65"/>
      <use x="491.082031" xlink:href="#DejaVuSans-61"/>
      <use x="552.361328" xlink:href="#DejaVuSans-6e"/>
      <use x="615.740234" xlink:href="#DejaVuSans-29"/>
     </g>
    </g>
    <g id="line2d_20">
     <path d="M 279.843437 83.926688 
L 299.843437 83.926688 
" style="fill:none;stroke:#2ca02c;stroke-linecap:square;stroke-width:1.5;"/>
    </g>
    <g id="line2d_21"/>
    <g id="text_15">
     <!-- pred.(5th percen.) -->
     <defs>
      <path d="M 10.796875 72.90625 
L 49.515625 72.90625 
L 49.515625 64.59375 
L 19.828125 64.59375 
L 19.828125 46.734375 
Q 21.96875 47.46875 24.109375 47.828125 
Q 26.265625 48.1875 28.421875 48.1875 
Q 40.625 48.1875 47.75 41.5 
Q 54.890625 34.8125 54.890625 23.390625 
Q 54.890625 11.625 47.5625 5.09375 
Q 40.234375 -1.421875 26.90625 -1.421875 
Q 22.3125 -1.421875 17.546875 -0.640625 
Q 12.796875 0.140625 7.71875 1.703125 
L 7.71875 11.625 
Q 12.109375 9.234375 16.796875 8.0625 
Q 21.484375 6.890625 26.703125 6.890625 
Q 35.15625 6.890625 40.078125 11.328125 
Q 45.015625 15.765625 45.015625 23.390625 
Q 45.015625 31 40.078125 35.4375 
Q 35.15625 39.890625 26.703125 39.890625 
Q 22.75 39.890625 18.8125 39.015625 
Q 14.890625 38.140625 10.796875 36.28125 
z
" id="DejaVuSans-35"/>
      <path d="M 54.890625 33.015625 
L 54.890625 0 
L 45.90625 0 
L 45.90625 32.71875 
Q 45.90625 40.484375 42.875 44.328125 
Q 39.84375 48.1875 33.796875 48.1875 
Q 26.515625 48.1875 22.3125 43.546875 
Q 18.109375 38.921875 18.109375 30.90625 
L 18.109375 0 
L 9.078125 0 
L 9.078125 75.984375 
L 18.109375 75.984375 
L 18.109375 46.1875 
Q 21.34375 51.125 25.703125 53.5625 
Q 30.078125 56 35.796875 56 
Q 45.21875 56 50.046875 50.171875 
Q 54.890625 44.34375 54.890625 33.015625 
" id="DejaVuSans-68"/>
     </defs>
     <g transform="translate(307.843437 87.426688)scale(0.1 -0.1)">
      <use xlink:href="#DejaVuSans-70"/>
      <use x="63.476562" xlink:href="#DejaVuSans-72"/>
      <use x="104.558594" xlink:href="#DejaVuSans-65"/>
      <use x="166.082031" xlink:href="#DejaVuSans-64"/>
      <use x="229.558594" xlink:href="#DejaVuSans-2e"/>
      <use x="261.345703" xlink:href="#DejaVuSans-28"/>
      <use x="300.359375" xlink:href="#DejaVuSans-35"/>
      <use x="363.982422" xlink:href="#DejaVuSans-74"/>
      <use x="403.191406" xlink:href="#DejaVuSans-68"/>
      <use x="466.570312" xlink:href="#DejaVuSans-20"/>
      <use x="498.357422" xlink:href="#DejaVuSans-70"/>
      <use x="561.833984" xlink:href="#DejaVuSans-65"/>
      <use x="623.357422" xlink:href="#DejaVuSans-72"/>
      <use x="664.439453" xlink:href="#DejaVuSans-63"/>
      <use x="719.419922" xlink:href="#DejaVuSans-65"/>
      <use x="780.943359" xlink:href="#DejaVuSans-6e"/>
      <use x="844.322266" xlink:href="#DejaVuSans-2e"/>
      <use x="876.109375" xlink:href="#DejaVuSans-29"/>
     </g>
    </g>
    <g id="line2d_22">
     <path d="M 279.843437 98.604813 
L 299.843437 98.604813 
" style="fill:none;stroke:#d62728;stroke-linecap:square;stroke-width:1.5;"/>
    </g>
    <g id="line2d_23"/>
    <g id="text_16">
     <!-- pred.(95th percen.) -->
     <defs>
      <path d="M 10.984375 1.515625 
L 10.984375 10.5 
Q 14.703125 8.734375 18.5 7.8125 
Q 22.3125 6.890625 25.984375 6.890625 
Q 35.75 6.890625 40.890625 13.453125 
Q 46.046875 20.015625 46.78125 33.40625 
Q 43.953125 29.203125 39.59375 26.953125 
Q 35.25 24.703125 29.984375 24.703125 
Q 19.046875 24.703125 12.671875 31.3125 
Q 6.296875 37.9375 6.296875 49.421875 
Q 6.296875 60.640625 12.9375 67.421875 
Q 19.578125 74.21875 30.609375 74.21875 
Q 43.265625 74.21875 49.921875 64.515625 
Q 56.59375 54.828125 56.59375 36.375 
Q 56.59375 19.140625 48.40625 8.859375 
Q 40.234375 -1.421875 26.421875 -1.421875 
Q 22.703125 -1.421875 18.890625 -0.6875 
Q 15.09375 0.046875 10.984375 1.515625 
M 30.609375 32.421875 
Q 37.25 32.421875 41.125 36.953125 
Q 45.015625 41.5 45.015625 49.421875 
Q 45.015625 57.28125 41.125 61.84375 
Q 37.25 66.40625 30.609375 66.40625 
Q 23.96875 66.40625 20.09375 61.84375 
Q 16.21875 57.28125 16.21875 49.421875 
Q 16.21875 41.5 20.09375 36.953125 
Q 23.96875 32.421875 30.609375 32.421875 
" id="DejaVuSans-39"/>
     </defs>
     <g transform="translate(307.843437 102.104813)scale(0.1 -0.1)">
      <use xlink:href="#DejaVuSans-70"/>
      <use x="63.476562" xlink:href="#DejaVuSans-72"/>
      <use x="104.558594" xlink:href="#DejaVuSans-65"/>
      <use x="166.082031" xlink:href="#DejaVuSans-64"/>
      <use x="229.558594" xlink:href="#DejaVuSans-2e"/>
      <use x="261.345703" xlink:href="#DejaVuSans-28"/>
      <use x="300.359375" xlink:href="#DejaVuSans-39"/>
      <use x="363.982422" xlink:href="#DejaVuSans-35"/>
      <use x="427.605469" xlink:href="#DejaVuSans-74"/>
      <use x="466.814453" xlink:href="#DejaVuSans-68"/>
      <use x="530.193359" xlink:href="#DejaVuSans-20"/>
      <use x="561.980469" xlink:href="#DejaVuSans-70"/>
      <use x="625.457031" xlink:href="#DejaVuSans-65"/>
      <use x="686.980469" xlink:href="#DejaVuSans-72"/>
      <use x="728.0625" xlink:href="#DejaVuSans-63"/>
      <use x="783.042969" xlink:href="#DejaVuSans-65"/>
      <use x="844.566406" xlink:href="#DejaVuSans-6e"/>
      <use x="907.945312" xlink:href="#DejaVuSans-2e"/>
      <use x="939.732422" xlink:href="#DejaVuSans-29"/>
     </g>
    </g>
   </g>
  </g>
 </g>
 <defs>
  <clipPath id="p817b60aefb">
   <rect height="266.112" width="357.12" x="57.6" y="41.472"/>
  </clipPath>
 </defs>
</svg>
