<?xml version="1.0" encoding="utf-8" standalone="no"?>
<!DOCTYPE svg PUBLIC "-//W3C//DTD SVG 1.1//EN"
  "http://www.w3.org/Graphics/SVG/1.1/DTD/svg11.dtd">
<!-- Created with matplotlib (http://matplotlib.org/) -->
<svg height="345pt" version="1.1" viewBox="0 0 460 345" width="460pt" xmlns="http://www.w3.org/2000/svg" xmlns:xlink="http://www.w3.org/1999/xlink">
 <defs>
  <style type="text/css">
*{stroke-linecap:butt;stroke-linejoin:round;}
  </style>
 </defs>
 <g id="figure_1">
  <g id="patch_1">
   <path d="M 0 345.6 
L 460.8 345.6 
L 460.8 0 
L 0 0 
z
" style="fill:#ffffff;"/>
  </g>
  <g id="axes_1">
   <g id="patch_2">
    <path d="M 57.6 307.584 
L 414.72 307.584 
L 414.72 41.472 
L 57.6 41.472 
z
" style="fill:#ffffff;"/>
   </g>
   <g id="PolyCollection_1">
    <path clip-path="url(#p54ae5427fd)" d="M 73.832727 200.669667 
L 73.832727 202.883881 
L 74.92584 211.045407 
L 76.018953 218.730713 
L 77.112066 225.335436 
L 78.205179 230.512822 
L 79.298292 234.128145 
L 80.391405 236.010073 
L 81.484518 236.118385 
L 82.577631 234.443329 
L 83.670744 230.871099 
L 84.763857 225.253525 
L 85.85697 217.555123 
L 86.950083 207.877156 
L 88.043196 196.472738 
L 89.136309 183.975056 
L 90.229421 172.804007 
L 91.322534 161.871618 
L 92.415647 151.233239 
L 93.50876 141.531046 
L 94.601873 133.371826 
L 95.694986 127.175656 
L 96.788099 123.2829 
L 97.881212 121.855291 
L 98.974325 122.920301 
L 100.067438 126.564639 
L 101.160551 132.706372 
L 102.253664 141.206201 
L 103.346777 151.787669 
L 104.43989 164.114268 
L 105.533003 177.71424 
L 106.626116 191.632257 
L 107.719229 205.253912 
L 108.812342 218.530869 
L 109.905455 230.881699 
L 110.998567 241.358914 
L 112.09168 249.881506 
L 113.184793 256.729162 
L 114.277906 261.216971 
L 115.371019 262.904425 
L 116.464132 261.676327 
L 117.557245 257.494848 
L 118.650358 250.628834 
L 119.743471 241.694684 
L 120.836584 229.304351 
L 121.929697 213.268319 
L 123.02281 194.183138 
L 124.115923 173.361166 
L 125.209036 155.425995 
L 126.302149 137.875554 
L 127.395262 121.70617 
L 128.488375 108.920652 
L 129.581488 100.555583 
L 130.674601 95.448364 
L 131.767713 93.30135 
L 132.860826 93.984433 
L 133.953939 97.70735 
L 135.047052 105.041955 
L 136.140165 116.319369 
L 137.233278 131.697168 
L 138.326391 149.807807 
L 139.419504 169.147754 
L 140.512617 189.258468 
L 141.60573 208.8082 
L 142.698843 227.582203 
L 143.791956 244.446204 
L 144.885069 260.301149 
L 145.978182 273.520521 
L 147.071295 283.086421 
L 148.164408 289.201706 
L 149.257521 292.257007 
L 150.350634 292.487584 
L 151.443747 289.361418 
L 152.53686 281.747645 
L 153.629972 268.457538 
L 154.723085 249.972377 
L 155.816198 230.365248 
L 156.909311 204.54344 
L 158.002424 174.5715 
L 159.095537 146.027649 
L 160.18865 120.925718 
L 161.281763 101.676507 
L 162.374876 88.557432 
L 163.467989 80.063259 
L 164.561102 75.781303 
L 165.654215 75.575133 
L 166.747328 83.607682 
L 167.840441 124.117586 
L 168.933554 178.269395 
L 170.026667 187.303523 
L 171.11978 190.032417 
L 172.212893 194.120186 
L 173.306006 199.264845 
L 174.399118 204.394448 
L 175.492231 209.192007 
L 176.585344 213.375418 
L 177.678457 216.556036 
L 178.77157 218.641635 
L 179.864683 219.505405 
L 180.957796 219.057568 
L 182.050909 217.283698 
L 183.144022 214.168119 
L 184.237135 209.681006 
L 185.330248 203.948199 
L 186.423361 197.077418 
L 187.516474 189.49773 
L 188.609587 182.288341 
L 189.7027 175.074141 
L 190.795813 168.011473 
L 191.888926 161.353747 
L 192.982039 155.410858 
L 194.075152 150.486876 
L 195.168264 146.892805 
L 196.261377 144.829743 
L 197.35449 144.388583 
L 198.447603 145.669887 
L 199.540716 148.663389 
L 200.633829 153.275472 
L 201.726942 159.368979 
L 202.820055 166.828074 
L 203.913168 175.252414 
L 205.006281 184.217259 
L 206.099394 193.318208 
L 207.192507 202.165581 
L 208.28562 210.790416 
L 209.378733 218.950616 
L 210.471846 225.993389 
L 211.564959 231.607499 
L 212.658072 235.585768 
L 213.751185 237.815066 
L 214.844298 238.236887 
L 215.93741 236.792611 
L 217.030523 233.439311 
L 218.123636 227.93955 
L 219.216749 220.324181 
L 220.309862 210.57682 
L 221.402975 198.944416 
L 222.496088 185.929369 
L 223.589201 173.938899 
L 224.682314 162.510741 
L 225.775427 151.302675 
L 226.86854 140.97158 
L 227.961653 132.17644 
L 229.054766 125.41831 
L 230.147879 121.026495 
L 231.240992 119.150982 
L 232.334105 119.880844 
L 233.427218 123.254943 
L 234.520331 129.263898 
L 235.613444 137.765132 
L 236.706556 148.479872 
L 237.799669 161.042834 
L 238.892782 175.071009 
L 239.985895 189.617755 
L 241.079008 203.8733 
L 242.172121 217.791655 
L 243.265234 230.785691 
L 244.358347 241.91851 
L 245.45146 251.165728 
L 246.544573 258.75945 
L 247.637686 263.868257 
L 248.730799 266.120564 
L 249.823912 265.363742 
L 250.917025 261.555564 
L 252.010138 254.392313 
L 253.103251 245.433584 
L 254.196364 233.297691 
L 255.289477 217.269946 
L 256.38259 197.80329 
L 257.475702 176.16186 
L 258.568815 156.835741 
L 259.661928 138.416525 
L 260.755041 121.351843 
L 261.848154 107.88257 
L 262.941267 98.95725 
L 264.03438 93.527039 
L 265.127493 90.987551 
L 266.220606 91.400994 
L 267.313719 95.093691 
L 268.406832 102.722489 
L 269.499945 115.137283 
L 270.593058 131.739391 
L 271.686171 150.604416 
L 272.779284 170.009459 
L 273.872397 189.820298 
L 274.96551 209.056679 
L 276.058623 227.55768 
L 277.151736 244.122655 
L 278.244848 259.721889 
L 279.337961 272.747846 
L 280.431074 282.172008 
L 281.524187 288.230846 
L 282.6173 291.197512 
L 283.710413 291.284418 
L 284.803526 288.003038 
L 285.896639 280.165024 
L 286.989752 266.743895 
L 288.082865 248.777728 
L 289.175978 229.143612 
L 290.269091 203.476144 
L 291.362204 173.860799 
L 292.455317 145.959028 
L 293.54843 121.172855 
L 294.641543 102.134657 
L 295.734656 89.125184 
L 296.827769 80.671172 
L 297.920882 76.405565 
L 299.013994 76.097335 
L 300.107107 83.338757 
L 301.20022 119.294795 
L 302.293333 173.527928 
L 303.386446 185.809764 
L 304.479559 189.449417 
L 305.572672 194.251184 
L 306.665785 200.094773 
L 307.758898 206.020007 
L 308.852011 211.597979 
L 309.945124 216.423605 
L 311.038237 220.183617 
L 312.13135 222.702279 
L 313.224463 223.856606 
L 314.317576 223.583611 
L 315.410689 221.875759 
L 316.503802 218.627045 
L 317.596915 213.853446 
L 318.690028 207.577169 
L 319.78314 199.952087 
L 320.876253 191.272428 
L 321.969366 182.812976 
L 323.062479 174.629849 
L 324.155592 166.579185 
L 325.248705 158.919912 
L 326.341818 151.985482 
L 327.434931 146.201706 
L 328.528044 141.906226 
L 329.621157 139.300413 
L 330.71427 138.547751 
L 331.807383 139.733442 
L 332.900496 142.870533 
L 333.993609 147.883003 
L 335.086722 154.589952 
L 336.179835 162.823639 
L 337.272948 172.255626 
L 338.366061 182.437702 
L 339.459174 192.757368 
L 340.552287 202.826306 
L 341.645399 212.677765 
L 342.738512 221.994397 
L 343.831625 230.003754 
L 344.924738 236.464272 
L 346.017851 241.085711 
L 347.110964 243.793335 
L 348.204077 244.523023 
L 349.29719 243.265415 
L 350.390303 239.929354 
L 351.483416 234.307867 
L 352.576529 226.260283 
L 353.669642 215.705208 
L 354.762755 202.85572 
L 355.855868 188.279962 
L 356.948981 173.967451 
L 358.042094 160.925857 
L 359.135207 148.107405 
L 360.22832 136.159256 
L 361.321433 125.983777 
L 362.414545 118.192632 
L 363.507658 113.069116 
L 364.600771 110.802603 
L 365.693884 111.340136 
L 366.786997 114.629251 
L 367.88011 120.877367 
L 368.973223 130.071215 
L 370.066336 141.81012 
L 371.159449 155.712372 
L 372.252562 171.319379 
L 373.345675 187.757812 
L 374.438788 203.925697 
L 375.531901 219.635703 
L 376.625014 234.193552 
L 377.718127 246.680833 
L 378.81124 257.936383 
L 379.904353 266.899957 
L 380.997466 272.871535 
L 382.090579 275.867811 
L 383.183691 275.650481 
L 384.276804 272.274336 
L 385.369917 264.956671 
L 386.46303 253.510086 
L 387.556143 240.868787 
L 388.649256 223.915211 
L 389.742369 202.540465 
L 390.835482 178.222454 
L 391.928595 155.376363 
L 393.021708 134.541093 
L 394.114821 115.410643 
L 395.207934 101.667941 
L 396.301047 92.424167 
L 397.39416 86.759423 
L 398.487273 84.290203 
L 398.487273 75.764937 
L 398.487273 75.764937 
L 397.39416 79.054757 
L 396.301047 86.323461 
L 395.207934 97.875821 
L 394.114821 112.406519 
L 393.021708 130.047119 
L 391.928595 151.338203 
L 390.835482 173.160258 
L 389.742369 194.411706 
L 388.649256 214.922063 
L 387.556143 233.953914 
L 386.46303 250.409086 
L 385.369917 260.997245 
L 384.276804 266.482948 
L 383.183691 268.720953 
L 382.090579 268.528455 
L 380.997466 265.966084 
L 379.904353 261.051937 
L 378.81124 253.769746 
L 377.718127 243.312526 
L 376.625014 230.839119 
L 375.531901 216.721335 
L 374.438788 201.199785 
L 373.345675 184.343969 
L 372.252562 167.571212 
L 371.159449 151.90385 
L 370.066336 138.24871 
L 368.973223 127.131228 
L 367.88011 118.673009 
L 366.786997 112.810755 
L 365.693884 109.654052 
L 364.600771 109.150999 
L 363.507658 111.144462 
L 362.414545 115.296684 
L 361.321433 121.984535 
L 360.22832 131.204945 
L 359.135207 142.969555 
L 358.042094 156.628553 
L 356.948981 171.166046 
L 355.855868 185.173666 
L 354.762755 198.030088 
L 353.669642 209.812649 
L 352.576529 220.344128 
L 351.483416 229.160944 
L 350.390303 235.876317 
L 349.29719 240.055579 
L 348.204077 241.693295 
L 347.110964 240.899324 
L 346.017851 237.975173 
L 344.924738 233.22351 
L 343.831625 226.911407 
L 342.738512 219.178575 
L 341.645399 210.295149 
L 340.552287 200.46335 
L 339.459174 189.386391 
L 338.366061 178.290767 
L 337.272948 167.751819 
L 336.179835 158.075945 
L 335.086722 149.754001 
L 333.993609 143.047712 
L 332.900496 138.107617 
L 331.807383 135.035475 
L 330.71427 133.838568 
L 329.621157 134.445445 
L 328.528044 136.81353 
L 327.434931 140.955468 
L 326.341818 146.75287 
L 325.248705 153.998031 
L 324.155592 162.412945 
L 323.062479 171.54536 
L 321.969366 180.807872 
L 320.876253 189.47364 
L 319.78314 197.200477 
L 318.690028 204.059378 
L 317.596915 209.949939 
L 316.503802 214.709973 
L 315.410689 218.090913 
L 314.317576 220.053263 
L 313.224463 220.506174 
L 312.13135 219.567216 
L 311.038237 217.283161 
L 309.945124 213.842957 
L 308.852011 209.386343 
L 307.758898 204.093932 
L 306.665785 197.940289 
L 305.572672 191.225815 
L 304.479559 186.180324 
L 303.386446 180.396065 
L 302.293333 158.29746 
L 301.20022 108.536802 
L 300.107107 72.869571 
L 299.013994 64.788402 
L 297.920882 65.765591 
L 296.827769 71.284134 
L 295.734656 81.675687 
L 294.641543 97.914696 
L 293.54843 117.863324 
L 292.455317 141.839003 
L 291.362204 167.298335 
L 290.269091 193.142505 
L 289.175978 218.799544 
L 288.082865 242.997448 
L 286.989752 261.198248 
L 285.896639 271.23314 
L 284.803526 276.536338 
L 283.710413 278.846862 
L 282.6173 278.77518 
L 281.524187 276.385867 
L 280.431074 271.691186 
L 279.337961 264.338069 
L 278.244848 254.168774 
L 277.151736 240.411587 
L 276.058623 224.244548 
L 274.96551 206.032628 
L 273.872397 186.773651 
L 272.779284 166.950153 
L 271.686171 147.541231 
L 270.593058 128.465587 
L 269.499945 110.864851 
L 268.406832 97.368142 
L 267.313719 88.81613 
L 266.220606 84.764232 
L 265.127493 84.513567 
L 264.03438 87.880437 
L 262.941267 94.880591 
L 261.848154 105.396579 
L 260.755041 117.672465 
L 259.661928 133.663525 
L 258.568815 152.74255 
L 257.475702 172.40718 
L 256.38259 191.256262 
L 255.289477 209.226595 
L 254.196364 225.916093 
L 253.103251 240.590093 
L 252.010138 252.19903 
L 250.917025 258.906557 
L 249.823912 261.756723 
L 248.730799 261.87432 
L 247.637686 259.691288 
L 246.544573 255.282222 
L 245.45146 248.112091 
L 244.358347 238.66609 
L 243.265234 227.576978 
L 242.172121 215.031258 
L 241.079008 201.261025 
L 239.985895 186.077604 
L 238.892782 171.056658 
L 237.799669 156.930821 
L 236.706556 144.435214 
L 235.613444 134.07422 
L 234.520331 126.148686 
L 233.427218 120.664895 
L 232.334105 117.51918 
L 231.240992 116.634411 
L 230.147879 117.97931 
L 229.054766 121.602415 
L 227.961653 127.569635 
L 226.86854 135.785674 
L 225.775427 146.177267 
L 224.682314 158.199849 
L 223.589201 171.047827 
L 222.496088 183.656727 
L 221.402975 195.110859 
L 220.309862 205.560824 
L 219.216749 214.943236 
L 218.123636 222.835687 
L 217.030523 228.928716 
L 215.93741 232.950708 
L 214.844298 234.823604 
L 213.751185 234.547303 
L 212.658072 232.325975 
L 211.564959 228.430739 
L 210.471846 222.988108 
L 209.378733 216.257248 
L 208.28562 208.530603 
L 207.192507 199.905767 
L 206.099394 190.017031 
L 205.006281 180.162976 
L 203.913168 170.741118 
L 202.820055 162.034922 
L 201.726942 154.420597 
L 200.633829 148.20951 
L 199.540716 143.568808 
L 198.447603 140.584541 
L 197.35449 139.342198 
L 196.261377 139.710288 
L 195.168264 141.668104 
L 194.075152 145.218852 
L 192.982039 150.294355 
L 191.888926 156.580869 
L 190.795813 163.922464 
L 189.7027 171.927849 
L 188.609587 180.139506 
L 187.516474 187.954728 
L 186.423361 194.928785 
L 185.330248 201.106588 
L 184.237135 206.399068 
L 183.144022 210.693185 
L 182.050909 213.849823 
L 180.957796 215.747035 
L 179.864683 216.356579 
L 178.77157 215.702837 
L 177.678457 213.859997 
L 176.585344 210.980192 
L 175.492231 207.138048 
L 174.399118 202.525751 
L 173.306006 197.114489 
L 172.212893 191.18932 
L 171.11978 186.73427 
L 170.026667 182.388156 
L 168.933554 162.557482 
L 167.840441 112.502719 
L 166.747328 73.073274 
L 165.654215 64.120038 
L 164.561102 65.009089 
L 163.467989 70.502157 
L 162.374876 80.938141 
L 161.281763 97.32379 
L 160.18865 117.662085 
L 159.095537 141.925294 
L 158.002424 167.679965 
L 156.909311 193.952214 
L 155.816198 220.024734 
L 154.723085 244.56845 
L 153.629972 262.381145 
L 152.53686 272.256838 
L 151.443747 277.382074 
L 150.350634 279.637061 
L 149.257521 279.507483 
L 148.164408 277.032818 
L 147.071295 272.27765 
L 145.978182 264.836566 
L 144.885069 254.553217 
L 143.791956 240.654137 
L 142.698843 224.257505 
L 141.60573 205.76366 
L 140.512617 186.200296 
L 139.419504 166.028674 
L 138.326391 146.654079 
L 137.233278 128.660872 
L 136.140165 112.634202 
L 135.047052 100.323301 
L 133.953939 92.232166 
L 132.860826 88.063866 
L 131.767713 87.521564 
L 130.674601 90.454799 
L 129.581488 96.885337 
L 128.488375 106.551149 
L 127.395262 118.008741 
L 126.302149 133.089376 
L 125.209036 151.168346 
L 124.115923 170.234772 
L 123.02281 188.418605 
L 121.929697 205.659861 
L 120.836584 221.804021 
L 119.743471 236.149062 
L 118.650358 247.811106 
L 117.557245 255.64878 
L 116.464132 259.110116 
L 115.371019 259.691156 
L 114.277906 257.86351 
L 113.184793 253.748358 
L 112.09168 246.978857 
L 110.998567 238.144957 
L 109.905455 227.698898 
L 108.812342 215.801673 
L 107.719229 202.733117 
L 106.626116 188.231928 
L 105.533003 173.627585 
L 104.43989 159.922138 
L 103.346777 147.588392 
L 102.253664 137.289057 
L 101.160551 129.222824 
L 100.067438 123.552855 
L 98.974325 120.146816 
L 97.881212 118.94622 
L 96.788099 119.978606 
L 95.694986 123.21774 
L 94.601873 128.680447 
L 93.50876 136.334685 
L 92.415647 146.082961 
L 91.322534 157.46467 
L 90.229421 169.717623 
L 89.136309 181.96503 
L 88.043196 193.113031 
L 86.950083 203.245857 
L 85.85697 212.394936 
L 84.763857 220.185907 
L 83.670744 226.26817 
L 82.577631 230.45285 
L 81.484518 232.575899 
L 80.391405 232.667 
L 79.298292 230.840537 
L 78.205179 227.352912 
L 77.112066 222.343108 
L 76.018953 216.069522 
L 74.92584 208.775374 
L 73.832727 200.669667 
z
" style="fill:#008000;fill-opacity:0.4;"/>
   </g>
   <g id="matplotlib.axis_1">
    <g id="xtick_1">
     <g id="line2d_1">
      <defs>
       <path d="M 0 0 
L 0 3.5 
" id="mfde3c0a244" style="stroke:#000000;stroke-width:0.8;"/>
      </defs>
      <g>
       <use style="stroke:#000000;stroke-width:0.8;" x="73.832727" xlink:href="#mfde3c0a244" y="307.584"/>
      </g>
     </g>
     <g id="text_1">
      <!-- 0.0 -->
      <defs>
       <path d="M 31.78125 66.40625 
Q 24.171875 66.40625 20.328125 58.90625 
Q 16.5 51.421875 16.5 36.375 
Q 16.5 21.390625 20.328125 13.890625 
Q 24.171875 6.390625 31.78125 6.390625 
Q 39.453125 6.390625 43.28125 13.890625 
Q 47.125 21.390625 47.125 36.375 
Q 47.125 51.421875 43.28125 58.90625 
Q 39.453125 66.40625 31.78125 66.40625 
M 31.78125 74.21875 
Q 44.046875 74.21875 50.515625 64.515625 
Q 56.984375 54.828125 56.984375 36.375 
Q 56.984375 17.96875 50.515625 8.265625 
Q 44.046875 -1.421875 31.78125 -1.421875 
Q 19.53125 -1.421875 13.0625 8.265625 
Q 6.59375 17.96875 6.59375 36.375 
Q 6.59375 54.828125 13.0625 64.515625 
Q 19.53125 74.21875 31.78125 74.21875 
" id="DejaVuSans-30"/>
       <path d="M 10.6875 12.40625 
L 21 12.40625 
L 21 0 
L 10.6875 0 
z
" id="DejaVuSans-2e"/>
      </defs>
      <g transform="translate(65.881165 322.182437)scale(0.1 -0.1)">
       <use xlink:href="#DejaVuSans-30"/>
       <use x="63.623047" xlink:href="#DejaVuSans-2e"/>
       <use x="95.410156" xlink:href="#DejaVuSans-30"/>
      </g>
     </g>
    </g>
    <g id="xtick_2">
     <g id="line2d_2">
      <g>
       <use style="stroke:#000000;stroke-width:0.8;" x="138.763636" xlink:href="#mfde3c0a244" y="307.584"/>
      </g>
     </g>
     <g id="text_2">
      <!-- 0.2 -->
      <defs>
       <path d="M 19.1875 8.296875 
L 53.609375 8.296875 
L 53.609375 0 
L 7.328125 0 
L 7.328125 8.296875 
Q 12.9375 14.109375 22.625 23.890625 
Q 32.328125 33.6875 34.8125 36.53125 
Q 39.546875 41.84375 41.421875 45.53125 
Q 43.3125 49.21875 43.3125 52.78125 
Q 43.3125 58.59375 39.234375 62.25 
Q 35.15625 65.921875 28.609375 65.921875 
Q 23.96875 65.921875 18.8125 64.3125 
Q 13.671875 62.703125 7.8125 59.421875 
L 7.8125 69.390625 
Q 13.765625 71.78125 18.9375 73 
Q 24.125 74.21875 28.421875 74.21875 
Q 39.75 74.21875 46.484375 68.546875 
Q 53.21875 62.890625 53.21875 53.421875 
Q 53.21875 48.921875 51.53125 44.890625 
Q 49.859375 40.875 45.40625 35.40625 
Q 44.1875 33.984375 37.640625 27.21875 
Q 31.109375 20.453125 19.1875 8.296875 
" id="DejaVuSans-32"/>
      </defs>
      <g transform="translate(130.812074 322.182437)scale(0.1 -0.1)">
       <use xlink:href="#DejaVuSans-30"/>
       <use x="63.623047" xlink:href="#DejaVuSans-2e"/>
       <use x="95.410156" xlink:href="#DejaVuSans-32"/>
      </g>
     </g>
    </g>
    <g id="xtick_3">
     <g id="line2d_3">
      <g>
       <use style="stroke:#000000;stroke-width:0.8;" x="203.694545" xlink:href="#mfde3c0a244" y="307.584"/>
      </g>
     </g>
     <g id="text_3">
      <!-- 0.4 -->
      <defs>
       <path d="M 37.796875 64.3125 
L 12.890625 25.390625 
L 37.796875 25.390625 
z
M 35.203125 72.90625 
L 47.609375 72.90625 
L 47.609375 25.390625 
L 58.015625 25.390625 
L 58.015625 17.1875 
L 47.609375 17.1875 
L 47.609375 0 
L 37.796875 0 
L 37.796875 17.1875 
L 4.890625 17.1875 
L 4.890625 26.703125 
z
" id="DejaVuSans-34"/>
      </defs>
      <g transform="translate(195.742983 322.182437)scale(0.1 -0.1)">
       <use xlink:href="#DejaVuSans-30"/>
       <use x="63.623047" xlink:href="#DejaVuSans-2e"/>
       <use x="95.410156" xlink:href="#DejaVuSans-34"/>
      </g>
     </g>
    </g>
    <g id="xtick_4">
     <g id="line2d_4">
      <g>
       <use style="stroke:#000000;stroke-width:0.8;" x="268.625455" xlink:href="#mfde3c0a244" y="307.584"/>
      </g>
     </g>
     <g id="text_4">
      <!-- 0.6 -->
      <defs>
       <path d="M 33.015625 40.375 
Q 26.375 40.375 22.484375 35.828125 
Q 18.609375 31.296875 18.609375 23.390625 
Q 18.609375 15.53125 22.484375 10.953125 
Q 26.375 6.390625 33.015625 6.390625 
Q 39.65625 6.390625 43.53125 10.953125 
Q 47.40625 15.53125 47.40625 23.390625 
Q 47.40625 31.296875 43.53125 35.828125 
Q 39.65625 40.375 33.015625 40.375 
M 52.59375 71.296875 
L 52.59375 62.3125 
Q 48.875 64.0625 45.09375 64.984375 
Q 41.3125 65.921875 37.59375 65.921875 
Q 27.828125 65.921875 22.671875 59.328125 
Q 17.53125 52.734375 16.796875 39.40625 
Q 19.671875 43.65625 24.015625 45.921875 
Q 28.375 48.1875 33.59375 48.1875 
Q 44.578125 48.1875 50.953125 41.515625 
Q 57.328125 34.859375 57.328125 23.390625 
Q 57.328125 12.15625 50.6875 5.359375 
Q 44.046875 -1.421875 33.015625 -1.421875 
Q 20.359375 -1.421875 13.671875 8.265625 
Q 6.984375 17.96875 6.984375 36.375 
Q 6.984375 53.65625 15.1875 63.9375 
Q 23.390625 74.21875 37.203125 74.21875 
Q 40.921875 74.21875 44.703125 73.484375 
Q 48.484375 72.75 52.59375 71.296875 
" id="DejaVuSans-36"/>
      </defs>
      <g transform="translate(260.673892 322.182437)scale(0.1 -0.1)">
       <use xlink:href="#DejaVuSans-30"/>
       <use x="63.623047" xlink:href="#DejaVuSans-2e"/>
       <use x="95.410156" xlink:href="#DejaVuSans-36"/>
      </g>
     </g>
    </g>
    <g id="xtick_5">
     <g id="line2d_5">
      <g>
       <use style="stroke:#000000;stroke-width:0.8;" x="333.556364" xlink:href="#mfde3c0a244" y="307.584"/>
      </g>
     </g>
     <g id="text_5">
      <!-- 0.8 -->
      <defs>
       <path d="M 31.78125 34.625 
Q 24.75 34.625 20.71875 30.859375 
Q 16.703125 27.09375 16.703125 20.515625 
Q 16.703125 13.921875 20.71875 10.15625 
Q 24.75 6.390625 31.78125 6.390625 
Q 38.8125 6.390625 42.859375 10.171875 
Q 46.921875 13.96875 46.921875 20.515625 
Q 46.921875 27.09375 42.890625 30.859375 
Q 38.875 34.625 31.78125 34.625 
M 21.921875 38.8125 
Q 15.578125 40.375 12.03125 44.71875 
Q 8.5 49.078125 8.5 55.328125 
Q 8.5 64.0625 14.71875 69.140625 
Q 20.953125 74.21875 31.78125 74.21875 
Q 42.671875 74.21875 48.875 69.140625 
Q 55.078125 64.0625 55.078125 55.328125 
Q 55.078125 49.078125 51.53125 44.71875 
Q 48 40.375 41.703125 38.8125 
Q 48.828125 37.15625 52.796875 32.3125 
Q 56.78125 27.484375 56.78125 20.515625 
Q 56.78125 9.90625 50.3125 4.234375 
Q 43.84375 -1.421875 31.78125 -1.421875 
Q 19.734375 -1.421875 13.25 4.234375 
Q 6.78125 9.90625 6.78125 20.515625 
Q 6.78125 27.484375 10.78125 32.3125 
Q 14.796875 37.15625 21.921875 38.8125 
M 18.3125 54.390625 
Q 18.3125 48.734375 21.84375 45.5625 
Q 25.390625 42.390625 31.78125 42.390625 
Q 38.140625 42.390625 41.71875 45.5625 
Q 45.3125 48.734375 45.3125 54.390625 
Q 45.3125 60.0625 41.71875 63.234375 
Q 38.140625 66.40625 31.78125 66.40625 
Q 25.390625 66.40625 21.84375 63.234375 
Q 18.3125 60.0625 18.3125 54.390625 
" id="DejaVuSans-38"/>
      </defs>
      <g transform="translate(325.604801 322.182437)scale(0.1 -0.1)">
       <use xlink:href="#DejaVuSans-30"/>
       <use x="63.623047" xlink:href="#DejaVuSans-2e"/>
       <use x="95.410156" xlink:href="#DejaVuSans-38"/>
      </g>
     </g>
    </g>
    <g id="xtick_6">
     <g id="line2d_6">
      <g>
       <use style="stroke:#000000;stroke-width:0.8;" x="398.487273" xlink:href="#mfde3c0a244" y="307.584"/>
      </g>
     </g>
     <g id="text_6">
      <!-- 1.0 -->
      <defs>
       <path d="M 12.40625 8.296875 
L 28.515625 8.296875 
L 28.515625 63.921875 
L 10.984375 60.40625 
L 10.984375 69.390625 
L 28.421875 72.90625 
L 38.28125 72.90625 
L 38.28125 8.296875 
L 54.390625 8.296875 
L 54.390625 0 
L 12.40625 0 
z
" id="DejaVuSans-31"/>
      </defs>
      <g transform="translate(390.53571 322.182437)scale(0.1 -0.1)">
       <use xlink:href="#DejaVuSans-31"/>
       <use x="63.623047" xlink:href="#DejaVuSans-2e"/>
       <use x="95.410156" xlink:href="#DejaVuSans-30"/>
      </g>
     </g>
    </g>
   </g>
   <g id="matplotlib.axis_2">
    <g id="ytick_1">
     <g id="line2d_7">
      <defs>
       <path d="M 0 0 
L -3.5 0 
" id="m21d83593c3" style="stroke:#000000;stroke-width:0.8;"/>
      </defs>
      <g>
       <use style="stroke:#000000;stroke-width:0.8;" x="57.6" xlink:href="#m21d83593c3" y="267.890771"/>
      </g>
     </g>
     <g id="text_7">
      <!-- 0.2 -->
      <g transform="translate(34.696875 271.68999)scale(0.1 -0.1)">
       <use xlink:href="#DejaVuSans-30"/>
       <use x="63.623047" xlink:href="#DejaVuSans-2e"/>
       <use x="95.410156" xlink:href="#DejaVuSans-32"/>
      </g>
     </g>
    </g>
    <g id="ytick_2">
     <g id="line2d_8">
      <g>
       <use style="stroke:#000000;stroke-width:0.8;" x="57.6" xlink:href="#m21d83593c3" y="212.036677"/>
      </g>
     </g>
     <g id="text_8">
      <!-- 0.4 -->
      <g transform="translate(34.696875 215.835896)scale(0.1 -0.1)">
       <use xlink:href="#DejaVuSans-30"/>
       <use x="63.623047" xlink:href="#DejaVuSans-2e"/>
       <use x="95.410156" xlink:href="#DejaVuSans-34"/>
      </g>
     </g>
    </g>
    <g id="ytick_3">
     <g id="line2d_9">
      <g>
       <use style="stroke:#000000;stroke-width:0.8;" x="57.6" xlink:href="#m21d83593c3" y="156.182583"/>
      </g>
     </g>
     <g id="text_9">
      <!-- 0.6 -->
      <g transform="translate(34.696875 159.981802)scale(0.1 -0.1)">
       <use xlink:href="#DejaVuSans-30"/>
       <use x="63.623047" xlink:href="#DejaVuSans-2e"/>
       <use x="95.410156" xlink:href="#DejaVuSans-36"/>
      </g>
     </g>
    </g>
    <g id="ytick_4">
     <g id="line2d_10">
      <g>
       <use style="stroke:#000000;stroke-width:0.8;" x="57.6" xlink:href="#m21d83593c3" y="100.328489"/>
      </g>
     </g>
     <g id="text_10">
      <!-- 0.8 -->
      <g transform="translate(34.696875 104.127708)scale(0.1 -0.1)">
       <use xlink:href="#DejaVuSans-30"/>
       <use x="63.623047" xlink:href="#DejaVuSans-2e"/>
       <use x="95.410156" xlink:href="#DejaVuSans-38"/>
      </g>
     </g>
    </g>
    <g id="ytick_5">
     <g id="line2d_11">
      <g>
       <use style="stroke:#000000;stroke-width:0.8;" x="57.6" xlink:href="#m21d83593c3" y="44.474395"/>
      </g>
     </g>
     <g id="text_11">
      <!-- 1.0 -->
      <g transform="translate(34.696875 48.273614)scale(0.1 -0.1)">
       <use xlink:href="#DejaVuSans-31"/>
       <use x="63.623047" xlink:href="#DejaVuSans-2e"/>
       <use x="95.410156" xlink:href="#DejaVuSans-30"/>
      </g>
     </g>
    </g>
   </g>
   <g id="line2d_12">
    <path clip-path="url(#p54ae5427fd)" d="M 73.832727 200.605858 
L 74.92584 208.925604 
L 76.018953 216.489086 
L 77.112066 222.969837 
L 78.205179 228.073225 
L 79.298292 231.551539 
L 80.391405 233.214874 
L 81.484518 232.940631 
L 82.577631 230.681332 
L 83.670744 226.468258 
L 84.763857 220.412557 
L 85.85697 212.703854 
L 86.950083 203.604385 
L 89.136309 182.590399 
L 92.415647 150.224627 
L 93.50876 140.977144 
L 94.601873 133.20365 
L 95.694986 127.26636 
L 96.788099 123.462976 
L 97.881212 122.013562 
L 98.974325 123.044908 
L 100.067438 126.582147 
L 101.160551 132.545968 
L 102.253664 140.756241 
L 103.346777 150.94319 
L 105.533003 175.775362 
L 109.905455 229.659482 
L 110.998567 240.843426 
L 112.09168 250.069964 
L 113.184793 256.906505 
L 114.277906 261.003962 
L 115.371019 262.113224 
L 116.464132 260.099125 
L 117.557245 254.947981 
L 118.650358 246.773176 
L 119.743471 235.814044 
L 120.836584 222.429449 
L 123.02281 190.352442 
L 126.302149 138.368199 
L 127.395262 122.796078 
L 128.488375 109.260955 
L 129.581488 98.398172 
L 130.674601 90.783024 
L 131.767713 86.933281 
L 132.860826 87.32035 
L 133.953939 92.328786 
L 135.047052 102.011094 
L 136.140165 115.67105 
L 138.326391 149.642627 
L 140.512617 187.949878 
L 143.791956 245.745461 
L 144.885069 262.172708 
L 145.978182 275.938509 
L 147.071295 286.405566 
L 148.164408 293.050527 
L 149.257521 295.488 
L 150.350634 293.491495 
L 151.443747 287.007394 
L 152.53686 276.161646 
L 153.629972 261.260611 
L 154.723085 242.784635 
L 156.909311 197.804216 
L 161.281763 100.752701 
L 162.374876 80.857752 
L 163.467989 64.819249 
L 164.561102 54.236294 
L 165.654215 53.568 
L 166.747328 76.824248 
L 167.840441 129.229073 
L 168.933554 165.14549 
L 170.026667 178.301363 
L 171.11978 185.251567 
L 173.306006 196.867822 
L 174.399118 202.175637 
L 175.492231 206.910109 
L 176.585344 210.863462 
L 177.678457 213.853052 
L 178.77157 215.728912 
L 179.864683 216.381009 
L 180.957796 215.745948 
L 182.050909 213.810883 
L 183.144022 210.614911 
L 184.237135 206.248517 
L 185.330248 200.85385 
L 187.516474 187.767236 
L 191.888926 159.672905 
L 192.982039 153.916862 
L 194.075152 149.211154 
L 195.168264 145.778362 
L 196.261377 143.794983 
L 197.35449 143.385014 
L 198.447603 144.610173 
L 199.540716 147.468507 
L 200.633829 151.891592 
L 201.726942 157.746219 
L 202.820055 164.838013 
L 205.006281 181.69031 
L 208.28562 208.721737 
L 209.378733 216.756069 
L 210.471846 223.711579 
L 211.564959 229.274089 
L 212.658072 233.176893 
L 213.751185 235.211379 
L 214.844298 235.239026 
L 215.93741 233.197839 
L 217.030523 229.107643 
L 218.123636 223.071771 
L 219.216749 215.275935 
L 220.309862 205.982093 
L 222.496088 184.282219 
L 225.775427 150.335218 
L 226.86854 140.488421 
L 227.961653 132.117847 
L 229.054766 125.610286 
L 230.147879 121.289134 
L 231.240992 119.397635 
L 232.334105 120.083803 
L 233.427218 123.390365 
L 234.520331 129.247505 
L 235.613444 137.47956 
L 236.706556 147.815919 
L 237.799669 159.903862 
L 239.985895 187.557783 
L 243.265234 229.682661 
L 244.358347 241.604159 
L 245.45146 251.559593 
L 246.544573 259.08677 
L 247.637686 263.807558 
L 248.730799 265.445758 
L 249.823912 263.841629 
L 250.917025 258.961657 
L 252.010138 250.903866 
L 253.103251 239.897816 
L 254.196364 226.299858 
L 256.38259 193.31634 
L 259.661928 139.02253 
L 260.755041 122.533284 
L 261.848154 108.064281 
L 262.941267 96.292472 
L 264.03438 87.84091 
L 265.127493 83.299134 
L 266.220606 83.271207 
L 267.313719 88.383253 
L 268.406832 98.949172 
L 269.499945 114.133108 
L 271.686171 150.207033 
L 278.244848 261.515027 
L 279.337961 275.013565 
L 280.431074 285.242684 
L 281.524187 291.689084 
L 282.6173 293.977426 
L 283.710413 291.888483 
L 284.803526 285.373941 
L 285.896639 274.563101 
L 286.989752 259.762604 
L 288.082865 241.45056 
L 290.269091 196.96836 
L 294.641543 101.315152 
L 295.734656 81.774318 
L 296.827769 66.050273 
L 297.920882 55.657222 
L 299.013994 54.601021 
L 300.107107 75.240226 
L 301.20022 124.446008 
L 302.293333 161.815748 
L 303.386446 176.603957 
L 304.479559 184.512617 
L 306.665785 197.72993 
L 308.852011 209.287259 
L 309.945124 213.903042 
L 311.038237 217.451732 
L 312.13135 219.757947 
L 313.224463 220.690431 
L 314.317576 220.17015 
L 315.410689 218.174204 
L 316.503802 214.738619 
L 317.596915 209.958905 
L 318.690028 203.987823 
L 319.78314 197.031196 
L 321.969366 181.206055 
L 324.155592 164.883813 
L 325.248705 157.360267 
L 326.341818 150.694639 
L 327.434931 145.182957 
L 328.528044 141.084104 
L 329.621157 138.606696 
L 330.71427 137.898745 
L 331.807383 139.040682 
L 332.900496 142.03893 
L 333.993609 146.824509 
L 335.086722 153.255829 
L 336.179835 161.121202 
L 338.366061 180.002679 
L 341.645399 210.705953 
L 342.738512 219.945338 
L 343.831625 228.013182 
L 344.924738 234.548111 
L 346.017851 239.239017 
L 347.110964 241.840701 
L 348.204077 242.184204 
L 349.29719 240.18742 
L 350.390303 235.860124 
L 351.483416 229.306763 
L 352.576529 220.725061 
L 353.669642 210.401269 
L 355.855868 186.054749 
L 359.135207 147.440021 
L 360.22832 136.094379 
L 361.321433 126.360407 
L 362.414545 118.687451 
L 363.507658 113.456156 
L 364.600771 110.960874 
L 365.693884 111.389555 
L 366.786997 114.805591 
L 367.88011 121.135535 
L 368.973223 130.172728 
L 370.066336 141.603827 
L 371.159449 155.036178 
L 373.345675 185.975995 
L 376.625014 233.682373 
L 377.718127 247.35378 
L 378.81124 258.879551 
L 379.904353 267.728515 
L 380.997466 273.461659 
L 382.090579 275.752514 
L 383.183691 274.403638 
L 384.276804 269.359176 
L 385.369917 260.711286 
L 386.46303 248.700142 
L 387.556143 233.7103 
L 388.649256 216.25785 
L 390.835482 176.589156 
L 393.021708 135.719319 
L 394.114821 116.909894 
L 395.207934 100.288274 
L 396.301047 86.645353 
L 397.39416 76.76616 
L 398.487273 71.578432 
L 398.487273 71.578432 
" style="fill:none;stroke:#1f77b4;stroke-linecap:square;stroke-width:1.5;"/>
   </g>
   <g id="line2d_13">
    <path clip-path="url(#p54ae5427fd)" d="M 73.832727 201.422635 
L 74.92584 209.425735 
L 76.018953 216.697982 
L 77.112066 222.955851 
L 78.205179 227.962315 
L 79.298292 231.492765 
L 80.391405 233.341355 
L 81.484518 233.33575 
L 82.577631 231.356436 
L 83.670744 227.359313 
L 84.763857 221.402853 
L 85.85697 213.665798 
L 86.950083 204.441245 
L 89.136309 183.030101 
L 92.415647 149.732526 
L 93.50876 140.19302 
L 94.601873 132.247565 
L 95.694986 126.270893 
L 96.788099 122.507687 
L 97.881212 121.095597 
L 98.974325 122.111691 
L 100.067438 125.597592 
L 101.160551 131.554047 
L 102.253664 139.897406 
L 103.346777 150.399534 
L 105.533003 176.026972 
L 108.812342 216.450787 
L 109.905455 228.368636 
L 110.998567 238.962101 
L 112.09168 247.899651 
L 113.184793 254.81272 
L 114.277906 259.363056 
L 115.371019 261.274392 
L 116.464132 260.299731 
L 117.557245 256.180576 
L 118.650358 248.685616 
L 119.743471 237.778012 
L 120.836584 223.823372 
L 123.02281 190.055205 
L 126.302149 136.543536 
L 127.395262 121.05144 
L 128.488375 108.327093 
L 129.581488 98.915507 
L 130.674601 92.883888 
L 131.767713 90.081901 
L 132.860826 90.464953 
L 133.953939 94.313481 
L 135.047052 102.203131 
L 136.140165 114.460987 
L 137.233278 130.358844 
L 139.419504 167.631608 
L 142.698843 224.993364 
L 143.791956 241.862584 
L 144.885069 256.918055 
L 145.978182 269.525423 
L 147.071295 279.080262 
L 148.164408 285.375326 
L 149.257521 288.5375 
L 150.350634 288.664558 
L 151.443747 285.487743 
L 152.53686 278.193196 
L 153.629972 265.573036 
L 154.723085 246.871104 
L 155.816198 223.069585 
L 160.18865 120.255821 
L 161.281763 99.857401 
L 162.374876 84.757231 
L 163.467989 74.99986 
L 164.561102 69.689799 
L 165.654215 68.652243 
L 166.747328 76.790758 
L 167.840441 116.231421 
L 168.933554 166.257037 
L 170.026667 184.430302 
L 171.11978 188.274959 
L 172.212893 192.663317 
L 174.399118 203.137148 
L 175.492231 207.747879 
L 176.585344 211.603333 
L 177.678457 214.538433 
L 178.77157 216.412816 
L 179.864683 217.112072 
L 180.957796 216.555597 
L 182.050909 214.708143 
L 183.144022 211.585895 
L 184.237135 207.2656 
L 185.330248 201.881235 
L 186.423361 195.618102 
L 188.609587 181.392169 
L 190.795813 166.713899 
L 191.888926 159.952749 
L 192.982039 153.987737 
L 194.075152 149.10223 
L 195.168264 145.538208 
L 196.261377 143.479468 
L 197.35449 143.05017 
L 198.447603 144.314477 
L 199.540716 147.276092 
L 200.633829 151.872359 
L 201.726942 157.963755 
L 202.820055 165.325662 
L 205.006281 182.578438 
L 208.28562 209.181528 
L 209.378733 216.902965 
L 210.471846 223.604768 
L 211.564959 229.046447 
L 212.658072 232.991724 
L 213.751185 235.221402 
L 214.844298 235.545216 
L 215.93741 233.823563 
L 217.030523 229.990413 
L 218.123636 224.082122 
L 219.216749 216.26445 
L 220.309862 206.832358 
L 222.496088 184.69583 
L 225.775427 149.781802 
L 226.86854 139.632828 
L 227.961653 131.095537 
L 229.054766 124.576131 
L 230.147879 120.335459 
L 231.240992 118.515513 
L 232.334105 119.191927 
L 233.427218 122.413148 
L 234.520331 128.197747 
L 235.613444 136.490612 
L 236.706556 147.094137 
L 237.799669 159.6091 
L 243.265234 228.269844 
L 244.358347 239.516324 
L 245.45146 249.099468 
L 246.544573 256.632638 
L 247.637686 261.760251 
L 248.730799 264.206232 
L 249.823912 263.72942 
L 250.917025 260.056938 
L 252.010138 252.897169 
L 253.103251 242.10865 
L 254.196364 227.966666 
L 256.38259 193.034817 
L 259.661928 137.064939 
L 260.755041 120.682115 
L 261.848154 107.154693 
L 262.941267 97.098012 
L 264.03438 90.572692 
L 265.127493 87.376419 
L 266.220606 87.441908 
L 267.313719 91.149215 
L 268.406832 99.388467 
L 269.499945 112.800398 
L 271.686171 149.189388 
L 276.058623 224.979517 
L 277.151736 241.597742 
L 278.244848 256.422767 
L 279.337961 268.838659 
L 280.431074 278.255665 
L 281.524187 284.456217 
L 282.6173 287.535336 
L 283.710413 287.559156 
L 284.803526 284.239366 
L 285.896639 276.772281 
L 286.989752 264.01708 
L 288.082865 245.342132 
L 290.269091 195.913974 
L 292.455317 144.279804 
L 293.54843 120.51668 
L 294.641543 100.380191 
L 295.734656 85.422801 
L 296.827769 75.708591 
L 297.920882 70.391614 
L 299.013994 69.269419 
L 300.107107 76.602619 
L 301.20022 112.026607 
L 302.293333 161.964016 
L 303.386446 182.442035 
L 305.572672 192.735384 
L 307.758898 204.682863 
L 308.852011 209.992823 
L 309.945124 214.480972 
L 311.038237 217.962202 
L 312.13135 220.273121 
L 313.224463 221.275954 
L 314.317576 220.8679 
L 315.410689 218.994219 
L 316.503802 215.659759 
L 317.596915 210.938801 
L 318.690028 204.976634 
L 319.78314 197.982192 
L 321.969366 181.951734 
L 325.248705 157.459466 
L 326.341818 150.549941 
L 327.434931 144.835975 
L 328.528044 140.595533 
L 329.621157 138.039143 
L 330.71427 137.306313 
L 331.807383 138.473536 
L 332.900496 141.556475 
L 333.993609 146.504712 
L 335.086722 153.183462 
L 336.179835 161.35856 
L 338.366061 180.754048 
L 341.645399 210.947343 
L 342.738512 219.78313 
L 343.831625 227.522783 
L 344.924738 233.90345 
L 346.017851 238.658009 
L 347.110964 241.528219 
L 348.204077 242.286398 
L 349.29719 240.750588 
L 350.390303 236.806184 
L 351.483416 230.447872 
L 352.576529 221.828499 
L 353.669642 211.281534 
L 355.855868 186.299694 
L 359.135207 146.571929 
L 360.22832 134.943294 
L 361.321433 125.150737 
L 362.414545 117.656675 
L 363.507658 112.718558 
L 364.600771 110.442476 
L 365.693884 110.875937 
L 366.786997 114.073365 
L 367.88011 120.097937 
L 368.973223 128.953842 
L 370.066336 140.489628 
L 371.159449 154.312759 
L 376.625014 231.612851 
L 377.718127 244.395677 
L 378.81124 255.355764 
L 379.904353 264.032078 
L 380.997466 270.049776 
L 382.090579 273.186621 
L 383.183691 273.268092 
L 384.276804 270.006592 
L 385.369917 262.94689 
L 386.46303 251.649979 
L 387.556143 236.144545 
L 389.742369 196.548878 
L 393.021708 133.266036 
L 394.114821 114.94109 
L 395.207934 100.098444 
L 396.301047 89.372827 
L 397.39416 82.61553 
L 398.487273 79.434928 
L 398.487273 79.434928 
" style="fill:none;stroke:#ff7f0e;stroke-linecap:square;stroke-width:1.5;"/>
   </g>
   <g id="line2d_14">
    <path clip-path="url(#p54ae5427fd)" d="M 73.832727 202.883881 
L 74.92584 211.045407 
L 76.018953 218.730713 
L 77.112066 225.335436 
L 78.205179 230.512822 
L 79.298292 234.128145 
L 80.391405 236.010073 
L 81.484518 236.118385 
L 82.577631 234.443329 
L 83.670744 230.871099 
L 84.763857 225.253525 
L 85.85697 217.555123 
L 86.950083 207.877156 
L 92.415647 151.233239 
L 93.50876 141.531046 
L 94.601873 133.371826 
L 95.694986 127.175656 
L 96.788099 123.2829 
L 97.881212 121.855291 
L 98.974325 122.920301 
L 100.067438 126.564639 
L 101.160551 132.706372 
L 102.253664 141.206201 
L 103.346777 151.787669 
L 104.43989 164.114268 
L 109.905455 230.881699 
L 110.998567 241.358914 
L 112.09168 249.881506 
L 113.184793 256.729162 
L 114.277906 261.216971 
L 115.371019 262.904425 
L 116.464132 261.676327 
L 117.557245 257.494848 
L 118.650358 250.628834 
L 119.743471 241.694684 
L 120.836584 229.304351 
L 121.929697 213.268319 
L 126.302149 137.875554 
L 127.395262 121.70617 
L 128.488375 108.920652 
L 129.581488 100.555583 
L 130.674601 95.448364 
L 131.767713 93.30135 
L 132.860826 93.984433 
L 133.953939 97.70735 
L 135.047052 105.041955 
L 136.140165 116.319369 
L 137.233278 131.697168 
L 139.419504 169.147754 
L 142.698843 227.582203 
L 144.885069 260.301149 
L 145.978182 273.520521 
L 147.071295 283.086421 
L 148.164408 289.201706 
L 149.257521 292.257007 
L 150.350634 292.487584 
L 151.443747 289.361418 
L 152.53686 281.747645 
L 153.629972 268.457538 
L 155.816198 230.365248 
L 156.909311 204.54344 
L 159.095537 146.027649 
L 160.18865 120.925718 
L 161.281763 101.676507 
L 162.374876 88.557432 
L 163.467989 80.063259 
L 164.561102 75.781303 
L 165.654215 75.575133 
L 166.747328 83.607682 
L 167.840441 124.117586 
L 168.933554 178.269395 
L 170.026667 187.303523 
L 171.11978 190.032417 
L 172.212893 194.120186 
L 175.492231 209.192007 
L 176.585344 213.375418 
L 177.678457 216.556036 
L 178.77157 218.641635 
L 179.864683 219.505405 
L 180.957796 219.057568 
L 182.050909 217.283698 
L 183.144022 214.168119 
L 184.237135 209.681006 
L 185.330248 203.948199 
L 186.423361 197.077418 
L 189.7027 175.074141 
L 191.888926 161.353747 
L 192.982039 155.410858 
L 194.075152 150.486876 
L 195.168264 146.892805 
L 196.261377 144.829743 
L 197.35449 144.388583 
L 198.447603 145.669887 
L 199.540716 148.663389 
L 200.633829 153.275472 
L 201.726942 159.368979 
L 202.820055 166.828074 
L 205.006281 184.217259 
L 208.28562 210.790416 
L 209.378733 218.950616 
L 210.471846 225.993389 
L 211.564959 231.607499 
L 212.658072 235.585768 
L 213.751185 237.815066 
L 214.844298 238.236887 
L 215.93741 236.792611 
L 217.030523 233.439311 
L 218.123636 227.93955 
L 219.216749 220.324181 
L 220.309862 210.57682 
L 221.402975 198.944416 
L 223.589201 173.938899 
L 225.775427 151.302675 
L 226.86854 140.97158 
L 227.961653 132.17644 
L 229.054766 125.41831 
L 230.147879 121.026495 
L 231.240992 119.150982 
L 232.334105 119.880844 
L 233.427218 123.254943 
L 234.520331 129.263898 
L 235.613444 137.765132 
L 236.706556 148.479872 
L 237.799669 161.042834 
L 243.265234 230.785691 
L 244.358347 241.91851 
L 245.45146 251.165728 
L 246.544573 258.75945 
L 247.637686 263.868257 
L 248.730799 266.120564 
L 249.823912 265.363742 
L 250.917025 261.555564 
L 252.010138 254.392313 
L 253.103251 245.433584 
L 254.196364 233.297691 
L 255.289477 217.269946 
L 256.38259 197.80329 
L 257.475702 176.16186 
L 259.661928 138.416525 
L 260.755041 121.351843 
L 261.848154 107.88257 
L 262.941267 98.95725 
L 264.03438 93.527039 
L 265.127493 90.987551 
L 266.220606 91.400994 
L 267.313719 95.093691 
L 268.406832 102.722489 
L 269.499945 115.137283 
L 270.593058 131.739391 
L 277.151736 244.122655 
L 278.244848 259.721889 
L 279.337961 272.747846 
L 280.431074 282.172008 
L 281.524187 288.230846 
L 282.6173 291.197512 
L 283.710413 291.284418 
L 284.803526 288.003038 
L 285.896639 280.165024 
L 286.989752 266.743895 
L 289.175978 229.143612 
L 290.269091 203.476144 
L 292.455317 145.959028 
L 293.54843 121.172855 
L 294.641543 102.134657 
L 295.734656 89.125184 
L 296.827769 80.671172 
L 297.920882 76.405565 
L 299.013994 76.097335 
L 300.107107 83.338757 
L 301.20022 119.294795 
L 302.293333 173.527928 
L 303.386446 185.809764 
L 304.479559 189.449417 
L 305.572672 194.251184 
L 308.852011 211.597979 
L 309.945124 216.423605 
L 311.038237 220.183617 
L 312.13135 222.702279 
L 313.224463 223.856606 
L 314.317576 223.583611 
L 315.410689 221.875759 
L 316.503802 218.627045 
L 317.596915 213.853446 
L 318.690028 207.577169 
L 319.78314 199.952087 
L 323.062479 174.629849 
L 325.248705 158.919912 
L 326.341818 151.985482 
L 327.434931 146.201706 
L 328.528044 141.906226 
L 329.621157 139.300413 
L 330.71427 138.547751 
L 331.807383 139.733442 
L 332.900496 142.870533 
L 333.993609 147.883003 
L 335.086722 154.589952 
L 336.179835 162.823639 
L 338.366061 182.437702 
L 341.645399 212.677765 
L 342.738512 221.994397 
L 343.831625 230.003754 
L 344.924738 236.464272 
L 346.017851 241.085711 
L 347.110964 243.793335 
L 348.204077 244.523023 
L 349.29719 243.265415 
L 350.390303 239.929354 
L 351.483416 234.307867 
L 352.576529 226.260283 
L 353.669642 215.705208 
L 354.762755 202.85572 
L 356.948981 173.967451 
L 360.22832 136.159256 
L 361.321433 125.983777 
L 362.414545 118.192632 
L 363.507658 113.069116 
L 364.600771 110.802603 
L 365.693884 111.340136 
L 366.786997 114.629251 
L 367.88011 120.877367 
L 368.973223 130.071215 
L 370.066336 141.81012 
L 371.159449 155.712372 
L 376.625014 234.193552 
L 378.81124 257.936383 
L 379.904353 266.899957 
L 380.997466 272.871535 
L 382.090579 275.867811 
L 383.183691 275.650481 
L 384.276804 272.274336 
L 385.369917 264.956671 
L 386.46303 253.510086 
L 387.556143 240.868787 
L 388.649256 223.915211 
L 389.742369 202.540465 
L 391.928595 155.376363 
L 394.114821 115.410643 
L 395.207934 101.667941 
L 396.301047 92.424167 
L 397.39416 86.759423 
L 398.487273 84.290203 
L 398.487273 84.290203 
" style="fill:none;stroke:#2ca02c;stroke-linecap:square;stroke-width:1.5;"/>
   </g>
   <g id="line2d_15">
    <path clip-path="url(#p54ae5427fd)" d="M 73.832727 200.669667 
L 74.92584 208.775374 
L 76.018953 216.069522 
L 77.112066 222.343108 
L 78.205179 227.352912 
L 79.298292 230.840537 
L 80.391405 232.667 
L 81.484518 232.575899 
L 82.577631 230.45285 
L 83.670744 226.26817 
L 84.763857 220.185907 
L 85.85697 212.394936 
L 86.950083 203.245857 
L 89.136309 181.96503 
L 92.415647 146.082961 
L 93.50876 136.334685 
L 94.601873 128.680447 
L 95.694986 123.21774 
L 96.788099 119.978606 
L 97.881212 118.94622 
L 98.974325 120.146816 
L 100.067438 123.552855 
L 101.160551 129.222824 
L 102.253664 137.289057 
L 103.346777 147.588392 
L 104.43989 159.922138 
L 106.626116 188.231928 
L 108.812342 215.801673 
L 109.905455 227.698898 
L 110.998567 238.144957 
L 112.09168 246.978857 
L 113.184793 253.748358 
L 114.277906 257.86351 
L 115.371019 259.691156 
L 116.464132 259.110116 
L 117.557245 255.64878 
L 118.650358 247.811106 
L 119.743471 236.149062 
L 120.836584 221.804021 
L 123.02281 188.418605 
L 126.302149 133.089376 
L 127.395262 118.008741 
L 128.488375 106.551149 
L 129.581488 96.885337 
L 130.674601 90.454799 
L 131.767713 87.521564 
L 132.860826 88.063866 
L 133.953939 92.232166 
L 135.047052 100.323301 
L 136.140165 112.634202 
L 137.233278 128.660872 
L 139.419504 166.028674 
L 141.60573 205.76366 
L 142.698843 224.257505 
L 143.791956 240.654137 
L 144.885069 254.553217 
L 145.978182 264.836566 
L 147.071295 272.27765 
L 148.164408 277.032818 
L 149.257521 279.507483 
L 150.350634 279.637061 
L 151.443747 277.382074 
L 152.53686 272.256838 
L 153.629972 262.381145 
L 154.723085 244.56845 
L 156.909311 193.952214 
L 160.18865 117.662085 
L 161.281763 97.32379 
L 162.374876 80.938141 
L 163.467989 70.502157 
L 164.561102 65.009089 
L 165.654215 64.120038 
L 166.747328 73.073274 
L 167.840441 112.502719 
L 168.933554 162.557482 
L 170.026667 182.388156 
L 172.212893 191.18932 
L 174.399118 202.525751 
L 175.492231 207.138048 
L 176.585344 210.980192 
L 177.678457 213.859997 
L 178.77157 215.702837 
L 179.864683 216.356579 
L 180.957796 215.747035 
L 182.050909 213.849823 
L 183.144022 210.693185 
L 184.237135 206.399068 
L 185.330248 201.106588 
L 186.423361 194.928785 
L 187.516474 187.954728 
L 191.888926 156.580869 
L 192.982039 150.294355 
L 194.075152 145.218852 
L 195.168264 141.668104 
L 196.261377 139.710288 
L 197.35449 139.342198 
L 198.447603 140.584541 
L 199.540716 143.568808 
L 200.633829 148.20951 
L 201.726942 154.420597 
L 202.820055 162.034922 
L 205.006281 180.162976 
L 207.192507 199.905767 
L 208.28562 208.530603 
L 209.378733 216.257248 
L 210.471846 222.988108 
L 211.564959 228.430739 
L 212.658072 232.325975 
L 213.751185 234.547303 
L 214.844298 234.823604 
L 215.93741 232.950708 
L 217.030523 228.928716 
L 218.123636 222.835687 
L 219.216749 214.943236 
L 220.309862 205.560824 
L 222.496088 183.656727 
L 225.775427 146.177267 
L 226.86854 135.785674 
L 227.961653 127.569635 
L 229.054766 121.602415 
L 230.147879 117.97931 
L 231.240992 116.634411 
L 232.334105 117.51918 
L 233.427218 120.664895 
L 234.520331 126.148686 
L 235.613444 134.07422 
L 236.706556 144.435214 
L 237.799669 156.930821 
L 239.985895 186.077604 
L 242.172121 215.031258 
L 243.265234 227.576978 
L 244.358347 238.66609 
L 245.45146 248.112091 
L 246.544573 255.282222 
L 247.637686 259.691288 
L 248.730799 261.87432 
L 249.823912 261.756723 
L 250.917025 258.906557 
L 252.010138 252.19903 
L 253.103251 240.590093 
L 254.196364 225.916093 
L 256.38259 191.256262 
L 260.755041 117.672465 
L 261.848154 105.396579 
L 262.941267 94.880591 
L 264.03438 87.880437 
L 265.127493 84.513567 
L 266.220606 84.764232 
L 267.313719 88.81613 
L 268.406832 97.368142 
L 269.499945 110.864851 
L 271.686171 147.541231 
L 276.058623 224.244548 
L 277.151736 240.411587 
L 278.244848 254.168774 
L 279.337961 264.338069 
L 280.431074 271.691186 
L 281.524187 276.385867 
L 282.6173 278.77518 
L 283.710413 278.846862 
L 284.803526 276.536338 
L 285.896639 271.23314 
L 286.989752 261.198248 
L 288.082865 242.997448 
L 290.269091 193.142505 
L 293.54843 117.863324 
L 294.641543 97.914696 
L 295.734656 81.675687 
L 296.827769 71.284134 
L 297.920882 65.765591 
L 299.013994 64.788402 
L 300.107107 72.869571 
L 301.20022 108.536802 
L 302.293333 158.29746 
L 303.386446 180.396065 
L 304.479559 186.180324 
L 305.572672 191.225815 
L 307.758898 204.093932 
L 308.852011 209.386343 
L 309.945124 213.842957 
L 311.038237 217.283161 
L 312.13135 219.567216 
L 313.224463 220.506174 
L 314.317576 220.053263 
L 315.410689 218.090913 
L 316.503802 214.709973 
L 317.596915 209.949939 
L 318.690028 204.059378 
L 319.78314 197.200477 
L 320.876253 189.47364 
L 323.062479 171.54536 
L 325.248705 153.998031 
L 326.341818 146.75287 
L 327.434931 140.955468 
L 328.528044 136.81353 
L 329.621157 134.445445 
L 330.71427 133.838568 
L 331.807383 135.035475 
L 332.900496 138.107617 
L 333.993609 143.047712 
L 335.086722 149.754001 
L 336.179835 158.075945 
L 338.366061 178.290767 
L 340.552287 200.46335 
L 342.738512 219.178575 
L 343.831625 226.911407 
L 344.924738 233.22351 
L 346.017851 237.975173 
L 347.110964 240.899324 
L 348.204077 241.693295 
L 349.29719 240.055579 
L 350.390303 235.876317 
L 351.483416 229.160944 
L 352.576529 220.344128 
L 353.669642 209.812649 
L 355.855868 185.173666 
L 359.135207 142.969555 
L 360.22832 131.204945 
L 361.321433 121.984535 
L 362.414545 115.296684 
L 363.507658 111.144462 
L 364.600771 109.150999 
L 365.693884 109.654052 
L 366.786997 112.810755 
L 367.88011 118.673009 
L 368.973223 127.131228 
L 370.066336 138.24871 
L 371.159449 151.90385 
L 373.345675 184.343969 
L 375.531901 216.721335 
L 376.625014 230.839119 
L 377.718127 243.312526 
L 378.81124 253.769746 
L 379.904353 261.051937 
L 380.997466 265.966084 
L 382.090579 268.528455 
L 383.183691 268.720953 
L 384.276804 266.482948 
L 385.369917 260.997245 
L 386.46303 250.409086 
L 387.556143 233.953914 
L 389.742369 194.411706 
L 393.021708 130.047119 
L 394.114821 112.406519 
L 395.207934 97.875821 
L 396.301047 86.323461 
L 397.39416 79.054757 
L 398.487273 75.764937 
L 398.487273 75.764937 
" style="fill:none;stroke:#d62728;stroke-linecap:square;stroke-width:1.5;"/>
   </g>
   <g id="patch_3">
    <path d="M 57.6 307.584 
L 57.6 41.472 
" style="fill:none;stroke:#000000;stroke-linecap:square;stroke-linejoin:miter;stroke-width:0.8;"/>
   </g>
   <g id="patch_4">
    <path d="M 414.72 307.584 
L 414.72 41.472 
" style="fill:none;stroke:#000000;stroke-linecap:square;stroke-linejoin:miter;stroke-width:0.8;"/>
   </g>
   <g id="patch_5">
    <path d="M 57.6 307.584 
L 414.72 307.584 
" style="fill:none;stroke:#000000;stroke-linecap:square;stroke-linejoin:miter;stroke-width:0.8;"/>
   </g>
   <g id="patch_6">
    <path d="M 57.6 41.472 
L 414.72 41.472 
" style="fill:none;stroke:#000000;stroke-linecap:square;stroke-linejoin:miter;stroke-width:0.8;"/>
   </g>
   <g id="text_12">
    <!-- Plot of Train Data vs MCMC Uncertainty  -->
    <defs>
     <path d="M 19.671875 64.796875 
L 19.671875 37.40625 
L 32.078125 37.40625 
Q 38.96875 37.40625 42.71875 40.96875 
Q 46.484375 44.53125 46.484375 51.125 
Q 46.484375 57.671875 42.71875 61.234375 
Q 38.96875 64.796875 32.078125 64.796875 
z
M 9.8125 72.90625 
L 32.078125 72.90625 
Q 44.34375 72.90625 50.609375 67.359375 
Q 56.890625 61.8125 56.890625 51.125 
Q 56.890625 40.328125 50.609375 34.8125 
Q 44.34375 29.296875 32.078125 29.296875 
L 19.671875 29.296875 
L 19.671875 0 
L 9.8125 0 
z
" id="DejaVuSans-50"/>
     <path d="M 9.421875 75.984375 
L 18.40625 75.984375 
L 18.40625 0 
L 9.421875 0 
z
" id="DejaVuSans-6c"/>
     <path d="M 30.609375 48.390625 
Q 23.390625 48.390625 19.1875 42.75 
Q 14.984375 37.109375 14.984375 27.296875 
Q 14.984375 17.484375 19.15625 11.84375 
Q 23.34375 6.203125 30.609375 6.203125 
Q 37.796875 6.203125 41.984375 11.859375 
Q 46.1875 17.53125 46.1875 27.296875 
Q 46.1875 37.015625 41.984375 42.703125 
Q 37.796875 48.390625 30.609375 48.390625 
M 30.609375 56 
Q 42.328125 56 49.015625 48.375 
Q 55.71875 40.765625 55.71875 27.296875 
Q 55.71875 13.875 49.015625 6.21875 
Q 42.328125 -1.421875 30.609375 -1.421875 
Q 18.84375 -1.421875 12.171875 6.21875 
Q 5.515625 13.875 5.515625 27.296875 
Q 5.515625 40.765625 12.171875 48.375 
Q 18.84375 56 30.609375 56 
" id="DejaVuSans-6f"/>
     <path d="M 18.3125 70.21875 
L 18.3125 54.6875 
L 36.8125 54.6875 
L 36.8125 47.703125 
L 18.3125 47.703125 
L 18.3125 18.015625 
Q 18.3125 11.328125 20.140625 9.421875 
Q 21.96875 7.515625 27.59375 7.515625 
L 36.8125 7.515625 
L 36.8125 0 
L 27.59375 0 
Q 17.1875 0 13.234375 3.875 
Q 9.28125 7.765625 9.28125 18.015625 
L 9.28125 47.703125 
L 2.6875 47.703125 
L 2.6875 54.6875 
L 9.28125 54.6875 
L 9.28125 70.21875 
z
" id="DejaVuSans-74"/>
     <path id="DejaVuSans-20"/>
     <path d="M 37.109375 75.984375 
L 37.109375 68.5 
L 28.515625 68.5 
Q 23.6875 68.5 21.796875 66.546875 
Q 19.921875 64.59375 19.921875 59.515625 
L 19.921875 54.6875 
L 34.71875 54.6875 
L 34.71875 47.703125 
L 19.921875 47.703125 
L 19.921875 0 
L 10.890625 0 
L 10.890625 47.703125 
L 2.296875 47.703125 
L 2.296875 54.6875 
L 10.890625 54.6875 
L 10.890625 58.5 
Q 10.890625 67.625 15.140625 71.796875 
Q 19.390625 75.984375 28.609375 75.984375 
z
" id="DejaVuSans-66"/>
     <path d="M -0.296875 72.90625 
L 61.375 72.90625 
L 61.375 64.59375 
L 35.5 64.59375 
L 35.5 0 
L 25.59375 0 
L 25.59375 64.59375 
L -0.296875 64.59375 
z
" id="DejaVuSans-54"/>
     <path d="M 41.109375 46.296875 
Q 39.59375 47.171875 37.8125 47.578125 
Q 36.03125 48 33.890625 48 
Q 26.265625 48 22.1875 43.046875 
Q 18.109375 38.09375 18.109375 28.8125 
L 18.109375 0 
L 9.078125 0 
L 9.078125 54.6875 
L 18.109375 54.6875 
L 18.109375 46.1875 
Q 20.953125 51.171875 25.484375 53.578125 
Q 30.03125 56 36.53125 56 
Q 37.453125 56 38.578125 55.875 
Q 39.703125 55.765625 41.0625 55.515625 
z
" id="DejaVuSans-72"/>
     <path d="M 34.28125 27.484375 
Q 23.390625 27.484375 19.1875 25 
Q 14.984375 22.515625 14.984375 16.5 
Q 14.984375 11.71875 18.140625 8.90625 
Q 21.296875 6.109375 26.703125 6.109375 
Q 34.1875 6.109375 38.703125 11.40625 
Q 43.21875 16.703125 43.21875 25.484375 
L 43.21875 27.484375 
z
M 52.203125 31.203125 
L 52.203125 0 
L 43.21875 0 
L 43.21875 8.296875 
Q 40.140625 3.328125 35.546875 0.953125 
Q 30.953125 -1.421875 24.3125 -1.421875 
Q 15.921875 -1.421875 10.953125 3.296875 
Q 6 8.015625 6 15.921875 
Q 6 25.140625 12.171875 29.828125 
Q 18.359375 34.515625 30.609375 34.515625 
L 43.21875 34.515625 
L 43.21875 35.40625 
Q 43.21875 41.609375 39.140625 45 
Q 35.0625 48.390625 27.6875 48.390625 
Q 23 48.390625 18.546875 47.265625 
Q 14.109375 46.140625 10.015625 43.890625 
L 10.015625 52.203125 
Q 14.9375 54.109375 19.578125 55.046875 
Q 24.21875 56 28.609375 56 
Q 40.484375 56 46.34375 49.84375 
Q 52.203125 43.703125 52.203125 31.203125 
" id="DejaVuSans-61"/>
     <path d="M 9.421875 54.6875 
L 18.40625 54.6875 
L 18.40625 0 
L 9.421875 0 
z
M 9.421875 75.984375 
L 18.40625 75.984375 
L 18.40625 64.59375 
L 9.421875 64.59375 
z
" id="DejaVuSans-69"/>
     <path d="M 54.890625 33.015625 
L 54.890625 0 
L 45.90625 0 
L 45.90625 32.71875 
Q 45.90625 40.484375 42.875 44.328125 
Q 39.84375 48.1875 33.796875 48.1875 
Q 26.515625 48.1875 22.3125 43.546875 
Q 18.109375 38.921875 18.109375 30.90625 
L 18.109375 0 
L 9.078125 0 
L 9.078125 54.6875 
L 18.109375 54.6875 
L 18.109375 46.1875 
Q 21.34375 51.125 25.703125 53.5625 
Q 30.078125 56 35.796875 56 
Q 45.21875 56 50.046875 50.171875 
Q 54.890625 44.34375 54.890625 33.015625 
" id="DejaVuSans-6e"/>
     <path d="M 19.671875 64.796875 
L 19.671875 8.109375 
L 31.59375 8.109375 
Q 46.6875 8.109375 53.6875 14.9375 
Q 60.6875 21.78125 60.6875 36.53125 
Q 60.6875 51.171875 53.6875 57.984375 
Q 46.6875 64.796875 31.59375 64.796875 
z
M 9.8125 72.90625 
L 30.078125 72.90625 
Q 51.265625 72.90625 61.171875 64.09375 
Q 71.09375 55.28125 71.09375 36.53125 
Q 71.09375 17.671875 61.125 8.828125 
Q 51.171875 0 30.078125 0 
L 9.8125 0 
z
" id="DejaVuSans-44"/>
     <path d="M 2.984375 54.6875 
L 12.5 54.6875 
L 29.59375 8.796875 
L 46.6875 54.6875 
L 56.203125 54.6875 
L 35.6875 0 
L 23.484375 0 
z
" id="DejaVuSans-76"/>
     <path d="M 44.28125 53.078125 
L 44.28125 44.578125 
Q 40.484375 46.53125 36.375 47.5 
Q 32.28125 48.484375 27.875 48.484375 
Q 21.1875 48.484375 17.84375 46.4375 
Q 14.5 44.390625 14.5 40.28125 
Q 14.5 37.15625 16.890625 35.375 
Q 19.28125 33.59375 26.515625 31.984375 
L 29.59375 31.296875 
Q 39.15625 29.25 43.1875 25.515625 
Q 47.21875 21.78125 47.21875 15.09375 
Q 47.21875 7.46875 41.1875 3.015625 
Q 35.15625 -1.421875 24.609375 -1.421875 
Q 20.21875 -1.421875 15.453125 -0.5625 
Q 10.6875 0.296875 5.421875 2 
L 5.421875 11.28125 
Q 10.40625 8.6875 15.234375 7.390625 
Q 20.0625 6.109375 24.8125 6.109375 
Q 31.15625 6.109375 34.5625 8.28125 
Q 37.984375 10.453125 37.984375 14.40625 
Q 37.984375 18.0625 35.515625 20.015625 
Q 33.0625 21.96875 24.703125 23.78125 
L 21.578125 24.515625 
Q 13.234375 26.265625 9.515625 29.90625 
Q 5.8125 33.546875 5.8125 39.890625 
Q 5.8125 47.609375 11.28125 51.796875 
Q 16.75 56 26.8125 56 
Q 31.78125 56 36.171875 55.265625 
Q 40.578125 54.546875 44.28125 53.078125 
" id="DejaVuSans-73"/>
     <path d="M 9.8125 72.90625 
L 24.515625 72.90625 
L 43.109375 23.296875 
L 61.8125 72.90625 
L 76.515625 72.90625 
L 76.515625 0 
L 66.890625 0 
L 66.890625 64.015625 
L 48.09375 14.015625 
L 38.1875 14.015625 
L 19.390625 64.015625 
L 19.390625 0 
L 9.8125 0 
z
" id="DejaVuSans-4d"/>
     <path d="M 64.40625 67.28125 
L 64.40625 56.890625 
Q 59.421875 61.53125 53.78125 63.8125 
Q 48.140625 66.109375 41.796875 66.109375 
Q 29.296875 66.109375 22.65625 58.46875 
Q 16.015625 50.828125 16.015625 36.375 
Q 16.015625 21.96875 22.65625 14.328125 
Q 29.296875 6.6875 41.796875 6.6875 
Q 48.140625 6.6875 53.78125 8.984375 
Q 59.421875 11.28125 64.40625 15.921875 
L 64.40625 5.609375 
Q 59.234375 2.09375 53.4375 0.328125 
Q 47.65625 -1.421875 41.21875 -1.421875 
Q 24.65625 -1.421875 15.125 8.703125 
Q 5.609375 18.84375 5.609375 36.375 
Q 5.609375 53.953125 15.125 64.078125 
Q 24.65625 74.21875 41.21875 74.21875 
Q 47.75 74.21875 53.53125 72.484375 
Q 59.328125 70.75 64.40625 67.28125 
" id="DejaVuSans-43"/>
     <path d="M 8.6875 72.90625 
L 18.609375 72.90625 
L 18.609375 28.609375 
Q 18.609375 16.890625 22.84375 11.734375 
Q 27.09375 6.59375 36.625 6.59375 
Q 46.09375 6.59375 50.34375 11.734375 
Q 54.59375 16.890625 54.59375 28.609375 
L 54.59375 72.90625 
L 64.5 72.90625 
L 64.5 27.390625 
Q 64.5 13.140625 57.4375 5.859375 
Q 50.390625 -1.421875 36.625 -1.421875 
Q 22.796875 -1.421875 15.734375 5.859375 
Q 8.6875 13.140625 8.6875 27.390625 
z
" id="DejaVuSans-55"/>
     <path d="M 48.78125 52.59375 
L 48.78125 44.1875 
Q 44.96875 46.296875 41.140625 47.34375 
Q 37.3125 48.390625 33.40625 48.390625 
Q 24.65625 48.390625 19.8125 42.84375 
Q 14.984375 37.3125 14.984375 27.296875 
Q 14.984375 17.28125 19.8125 11.734375 
Q 24.65625 6.203125 33.40625 6.203125 
Q 37.3125 6.203125 41.140625 7.25 
Q 44.96875 8.296875 48.78125 10.40625 
L 48.78125 2.09375 
Q 45.015625 0.34375 40.984375 -0.53125 
Q 36.96875 -1.421875 32.421875 -1.421875 
Q 20.0625 -1.421875 12.78125 6.34375 
Q 5.515625 14.109375 5.515625 27.296875 
Q 5.515625 40.671875 12.859375 48.328125 
Q 20.21875 56 33.015625 56 
Q 37.15625 56 41.109375 55.140625 
Q 45.0625 54.296875 48.78125 52.59375 
" id="DejaVuSans-63"/>
     <path d="M 56.203125 29.59375 
L 56.203125 25.203125 
L 14.890625 25.203125 
Q 15.484375 15.921875 20.484375 11.0625 
Q 25.484375 6.203125 34.421875 6.203125 
Q 39.59375 6.203125 44.453125 7.46875 
Q 49.3125 8.734375 54.109375 11.28125 
L 54.109375 2.78125 
Q 49.265625 0.734375 44.1875 -0.34375 
Q 39.109375 -1.421875 33.890625 -1.421875 
Q 20.796875 -1.421875 13.15625 6.1875 
Q 5.515625 13.8125 5.515625 26.8125 
Q 5.515625 40.234375 12.765625 48.109375 
Q 20.015625 56 32.328125 56 
Q 43.359375 56 49.78125 48.890625 
Q 56.203125 41.796875 56.203125 29.59375 
M 47.21875 32.234375 
Q 47.125 39.59375 43.09375 43.984375 
Q 39.0625 48.390625 32.421875 48.390625 
Q 24.90625 48.390625 20.390625 44.140625 
Q 15.875 39.890625 15.1875 32.171875 
z
" id="DejaVuSans-65"/>
     <path d="M 32.171875 -5.078125 
Q 28.375 -14.84375 24.75 -17.8125 
Q 21.140625 -20.796875 15.09375 -20.796875 
L 7.90625 -20.796875 
L 7.90625 -13.28125 
L 13.1875 -13.28125 
Q 16.890625 -13.28125 18.9375 -11.515625 
Q 21 -9.765625 23.484375 -3.21875 
L 25.09375 0.875 
L 2.984375 54.6875 
L 12.5 54.6875 
L 29.59375 11.921875 
L 46.6875 54.6875 
L 56.203125 54.6875 
z
" id="DejaVuSans-79"/>
    </defs>
    <g transform="translate(115.666875 35.472)scale(0.12 -0.12)">
     <use xlink:href="#DejaVuSans-50"/>
     <use x="60.302734" xlink:href="#DejaVuSans-6c"/>
     <use x="88.085938" xlink:href="#DejaVuSans-6f"/>
     <use x="149.267578" xlink:href="#DejaVuSans-74"/>
     <use x="188.476562" xlink:href="#DejaVuSans-20"/>
     <use x="220.263672" xlink:href="#DejaVuSans-6f"/>
     <use x="281.445312" xlink:href="#DejaVuSans-66"/>
     <use x="316.650391" xlink:href="#DejaVuSans-20"/>
     <use x="348.4375" xlink:href="#DejaVuSans-54"/>
     <use x="409.302734" xlink:href="#DejaVuSans-72"/>
     <use x="450.416016" xlink:href="#DejaVuSans-61"/>
     <use x="511.695312" xlink:href="#DejaVuSans-69"/>
     <use x="539.478516" xlink:href="#DejaVuSans-6e"/>
     <use x="602.857422" xlink:href="#DejaVuSans-20"/>
     <use x="634.644531" xlink:href="#DejaVuSans-44"/>
     <use x="711.646484" xlink:href="#DejaVuSans-61"/>
     <use x="772.925781" xlink:href="#DejaVuSans-74"/>
     <use x="812.134766" xlink:href="#DejaVuSans-61"/>
     <use x="873.414062" xlink:href="#DejaVuSans-20"/>
     <use x="905.201172" xlink:href="#DejaVuSans-76"/>
     <use x="964.380859" xlink:href="#DejaVuSans-73"/>
     <use x="1016.480469" xlink:href="#DejaVuSans-20"/>
     <use x="1048.267578" xlink:href="#DejaVuSans-4d"/>
     <use x="1134.546875" xlink:href="#DejaVuSans-43"/>
     <use x="1204.371094" xlink:href="#DejaVuSans-4d"/>
     <use x="1290.650391" xlink:href="#DejaVuSans-43"/>
     <use x="1360.474609" xlink:href="#DejaVuSans-20"/>
     <use x="1392.261719" xlink:href="#DejaVuSans-55"/>
     <use x="1465.455078" xlink:href="#DejaVuSans-6e"/>
     <use x="1528.833984" xlink:href="#DejaVuSans-63"/>
     <use x="1583.814453" xlink:href="#DejaVuSans-65"/>
     <use x="1645.337891" xlink:href="#DejaVuSans-72"/>
     <use x="1686.451172" xlink:href="#DejaVuSans-74"/>
     <use x="1725.660156" xlink:href="#DejaVuSans-61"/>
     <use x="1786.939453" xlink:href="#DejaVuSans-69"/>
     <use x="1814.722656" xlink:href="#DejaVuSans-6e"/>
     <use x="1878.101562" xlink:href="#DejaVuSans-74"/>
     <use x="1917.310547" xlink:href="#DejaVuSans-79"/>
     <use x="1976.490234" xlink:href="#DejaVuSans-20"/>
    </g>
   </g>
   <g id="legend_1">
    <g id="patch_7">
     <path d="M 277.843437 108.1845 
L 407.72 108.1845 
Q 409.72 108.1845 409.72 106.1845 
L 409.72 48.472 
Q 409.72 46.472 407.72 46.472 
L 277.843437 46.472 
Q 275.843437 46.472 275.843437 48.472 
L 275.843437 106.1845 
Q 275.843437 108.1845 277.843437 108.1845 
z
" style="fill:#ffffff;opacity:0.8;stroke:#cccccc;stroke-linejoin:miter;"/>
    </g>
    <g id="line2d_16">
     <path d="M 279.843437 54.570438 
L 299.843437 54.570438 
" style="fill:none;stroke:#1f77b4;stroke-linecap:square;stroke-width:1.5;"/>
    </g>
    <g id="line2d_17"/>
    <g id="text_13">
     <!-- actual -->
     <defs>
      <path d="M 8.5 21.578125 
L 8.5 54.6875 
L 17.484375 54.6875 
L 17.484375 21.921875 
Q 17.484375 14.15625 20.5 10.265625 
Q 23.53125 6.390625 29.59375 6.390625 
Q 36.859375 6.390625 41.078125 11.03125 
Q 45.3125 15.671875 45.3125 23.6875 
L 45.3125 54.6875 
L 54.296875 54.6875 
L 54.296875 0 
L 45.3125 0 
L 45.3125 8.40625 
Q 42.046875 3.421875 37.71875 1 
Q 33.40625 -1.421875 27.6875 -1.421875 
Q 18.265625 -1.421875 13.375 4.4375 
Q 8.5 10.296875 8.5 21.578125 
M 31.109375 56 
z
" id="DejaVuSans-75"/>
     </defs>
     <g transform="translate(307.843437 58.070438)scale(0.1 -0.1)">
      <use xlink:href="#DejaVuSans-61"/>
      <use x="61.279297" xlink:href="#DejaVuSans-63"/>
      <use x="116.259766" xlink:href="#DejaVuSans-74"/>
      <use x="155.46875" xlink:href="#DejaVuSans-75"/>
      <use x="218.847656" xlink:href="#DejaVuSans-61"/>
      <use x="280.126953" xlink:href="#DejaVuSans-6c"/>
     </g>
    </g>
    <g id="line2d_18">
     <path d="M 279.843437 69.248563 
L 299.843437 69.248563 
" style="fill:none;stroke:#ff7f0e;stroke-linecap:square;stroke-width:1.5;"/>
    </g>
    <g id="line2d_19"/>
    <g id="text_14">
     <!-- pred. (mean) -->
     <defs>
      <path d="M 18.109375 8.203125 
L 18.109375 -20.796875 
L 9.078125 -20.796875 
L 9.078125 54.6875 
L 18.109375 54.6875 
L 18.109375 46.390625 
Q 20.953125 51.265625 25.265625 53.625 
Q 29.59375 56 35.59375 56 
Q 45.5625 56 51.78125 48.09375 
Q 58.015625 40.1875 58.015625 27.296875 
Q 58.015625 14.40625 51.78125 6.484375 
Q 45.5625 -1.421875 35.59375 -1.421875 
Q 29.59375 -1.421875 25.265625 0.953125 
Q 20.953125 3.328125 18.109375 8.203125 
M 48.6875 27.296875 
Q 48.6875 37.203125 44.609375 42.84375 
Q 40.53125 48.484375 33.40625 48.484375 
Q 26.265625 48.484375 22.1875 42.84375 
Q 18.109375 37.203125 18.109375 27.296875 
Q 18.109375 17.390625 22.1875 11.75 
Q 26.265625 6.109375 33.40625 6.109375 
Q 40.53125 6.109375 44.609375 11.75 
Q 48.6875 17.390625 48.6875 27.296875 
" id="DejaVuSans-70"/>
      <path d="M 45.40625 46.390625 
L 45.40625 75.984375 
L 54.390625 75.984375 
L 54.390625 0 
L 45.40625 0 
L 45.40625 8.203125 
Q 42.578125 3.328125 38.25 0.953125 
Q 33.9375 -1.421875 27.875 -1.421875 
Q 17.96875 -1.421875 11.734375 6.484375 
Q 5.515625 14.40625 5.515625 27.296875 
Q 5.515625 40.1875 11.734375 48.09375 
Q 17.96875 56 27.875 56 
Q 33.9375 56 38.25 53.625 
Q 42.578125 51.265625 45.40625 46.390625 
M 14.796875 27.296875 
Q 14.796875 17.390625 18.875 11.75 
Q 22.953125 6.109375 30.078125 6.109375 
Q 37.203125 6.109375 41.296875 11.75 
Q 45.40625 17.390625 45.40625 27.296875 
Q 45.40625 37.203125 41.296875 42.84375 
Q 37.203125 48.484375 30.078125 48.484375 
Q 22.953125 48.484375 18.875 42.84375 
Q 14.796875 37.203125 14.796875 27.296875 
" id="DejaVuSans-64"/>
      <path d="M 31 75.875 
Q 24.46875 64.65625 21.28125 53.65625 
Q 18.109375 42.671875 18.109375 31.390625 
Q 18.109375 20.125 21.3125 9.0625 
Q 24.515625 -2 31 -13.1875 
L 23.1875 -13.1875 
Q 15.875 -1.703125 12.234375 9.375 
Q 8.59375 20.453125 8.59375 31.390625 
Q 8.59375 42.28125 12.203125 53.3125 
Q 15.828125 64.359375 23.1875 75.875 
z
" id="DejaVuSans-28"/>
      <path d="M 52 44.1875 
Q 55.375 50.25 60.0625 53.125 
Q 64.75 56 71.09375 56 
Q 79.640625 56 84.28125 50.015625 
Q 88.921875 44.046875 88.921875 33.015625 
L 88.921875 0 
L 79.890625 0 
L 79.890625 32.71875 
Q 79.890625 40.578125 77.09375 44.375 
Q 74.3125 48.1875 68.609375 48.1875 
Q 61.625 48.1875 57.5625 43.546875 
Q 53.515625 38.921875 53.515625 30.90625 
L 53.515625 0 
L 44.484375 0 
L 44.484375 32.71875 
Q 44.484375 40.625 41.703125 44.40625 
Q 38.921875 48.1875 33.109375 48.1875 
Q 26.21875 48.1875 22.15625 43.53125 
Q 18.109375 38.875 18.109375 30.90625 
L 18.109375 0 
L 9.078125 0 
L 9.078125 54.6875 
L 18.109375 54.6875 
L 18.109375 46.1875 
Q 21.1875 51.21875 25.484375 53.609375 
Q 29.78125 56 35.6875 56 
Q 41.65625 56 45.828125 52.96875 
Q 50 49.953125 52 44.1875 
" id="DejaVuSans-6d"/>
      <path d="M 8.015625 75.875 
L 15.828125 75.875 
Q 23.140625 64.359375 26.78125 53.3125 
Q 30.421875 42.28125 30.421875 31.390625 
Q 30.421875 20.453125 26.78125 9.375 
Q 23.140625 -1.703125 15.828125 -13.1875 
L 8.015625 -13.1875 
Q 14.5 -2 17.703125 9.0625 
Q 20.90625 20.125 20.90625 31.390625 
Q 20.90625 42.671875 17.703125 53.65625 
Q 14.5 64.65625 8.015625 75.875 
" id="DejaVuSans-29"/>
     </defs>
     <g transform="translate(307.843437 72.748563)scale(0.1 -0.1)">
      <use xlink:href="#DejaVuSans-70"/>
      <use x="63.476562" xlink:href="#DejaVuSans-72"/>
      <use x="104.558594" xlink:href="#DejaVuSans-65"/>
      <use x="166.082031" xlink:href="#DejaVuSans-64"/>
      <use x="229.558594" xlink:href="#DejaVuSans-2e"/>
      <use x="261.345703" xlink:href="#DejaVuSans-20"/>
      <use x="293.132812" xlink:href="#DejaVuSans-28"/>
      <use x="332.146484" xlink:href="#DejaVuSans-6d"/>
      <use x="429.558594" xlink:href="#DejaVuSans-65"/>
      <use x="491.082031" xlink:href="#DejaVuSans-61"/>
      <use x="552.361328" xlink:href="#DejaVuSans-6e"/>
      <use x="615.740234" xlink:href="#DejaVuSans-29"/>
     </g>
    </g>
    <g id="line2d_20">
     <path d="M 279.843437 83.926688 
L 299.843437 83.926688 
" style="fill:none;stroke:#2ca02c;stroke-linecap:square;stroke-width:1.5;"/>
    </g>
    <g id="line2d_21"/>
    <g id="text_15">
     <!-- pred.(5th percen.) -->
     <defs>
      <path d="M 10.796875 72.90625 
L 49.515625 72.90625 
L 49.515625 64.59375 
L 19.828125 64.59375 
L 19.828125 46.734375 
Q 21.96875 47.46875 24.109375 47.828125 
Q 26.265625 48.1875 28.421875 48.1875 
Q 40.625 48.1875 47.75 41.5 
Q 54.890625 34.8125 54.890625 23.390625 
Q 54.890625 11.625 47.5625 5.09375 
Q 40.234375 -1.421875 26.90625 -1.421875 
Q 22.3125 -1.421875 17.546875 -0.640625 
Q 12.796875 0.140625 7.71875 1.703125 
L 7.71875 11.625 
Q 12.109375 9.234375 16.796875 8.0625 
Q 21.484375 6.890625 26.703125 6.890625 
Q 35.15625 6.890625 40.078125 11.328125 
Q 45.015625 15.765625 45.015625 23.390625 
Q 45.015625 31 40.078125 35.4375 
Q 35.15625 39.890625 26.703125 39.890625 
Q 22.75 39.890625 18.8125 39.015625 
Q 14.890625 38.140625 10.796875 36.28125 
z
" id="DejaVuSans-35"/>
      <path d="M 54.890625 33.015625 
L 54.890625 0 
L 45.90625 0 
L 45.90625 32.71875 
Q 45.90625 40.484375 42.875 44.328125 
Q 39.84375 48.1875 33.796875 48.1875 
Q 26.515625 48.1875 22.3125 43.546875 
Q 18.109375 38.921875 18.109375 30.90625 
L 18.109375 0 
L 9.078125 0 
L 9.078125 75.984375 
L 18.109375 75.984375 
L 18.109375 46.1875 
Q 21.34375 51.125 25.703125 53.5625 
Q 30.078125 56 35.796875 56 
Q 45.21875 56 50.046875 50.171875 
Q 54.890625 44.34375 54.890625 33.015625 
" id="DejaVuSans-68"/>
     </defs>
     <g transform="translate(307.843437 87.426688)scale(0.1 -0.1)">
      <use xlink:href="#DejaVuSans-70"/>
      <use x="63.476562" xlink:href="#DejaVuSans-72"/>
      <use x="104.558594" xlink:href="#DejaVuSans-65"/>
      <use x="166.082031" xlink:href="#DejaVuSans-64"/>
      <use x="229.558594" xlink:href="#DejaVuSans-2e"/>
      <use x="261.345703" xlink:href="#DejaVuSans-28"/>
      <use x="300.359375" xlink:href="#DejaVuSans-35"/>
      <use x="363.982422" xlink:href="#DejaVuSans-74"/>
      <use x="403.191406" xlink:href="#DejaVuSans-68"/>
      <use x="466.570312" xlink:href="#DejaVuSans-20"/>
      <use x="498.357422" xlink:href="#DejaVuSans-70"/>
      <use x="561.833984" xlink:href="#DejaVuSans-65"/>
      <use x="623.357422" xlink:href="#DejaVuSans-72"/>
      <use x="664.439453" xlink:href="#DejaVuSans-63"/>
      <use x="719.419922" xlink:href="#DejaVuSans-65"/>
      <use x="780.943359" xlink:href="#DejaVuSans-6e"/>
      <use x="844.322266" xlink:href="#DejaVuSans-2e"/>
      <use x="876.109375" xlink:href="#DejaVuSans-29"/>
     </g>
    </g>
    <g id="line2d_22">
     <path d="M 279.843437 98.604813 
L 299.843437 98.604813 
" style="fill:none;stroke:#d62728;stroke-linecap:square;stroke-width:1.5;"/>
    </g>
    <g id="line2d_23"/>
    <g id="text_16">
     <!-- pred.(95th percen.) -->
     <defs>
      <path d="M 10.984375 1.515625 
L 10.984375 10.5 
Q 14.703125 8.734375 18.5 7.8125 
Q 22.3125 6.890625 25.984375 6.890625 
Q 35.75 6.890625 40.890625 13.453125 
Q 46.046875 20.015625 46.78125 33.40625 
Q 43.953125 29.203125 39.59375 26.953125 
Q 35.25 24.703125 29.984375 24.703125 
Q 19.046875 24.703125 12.671875 31.3125 
Q 6.296875 37.9375 6.296875 49.421875 
Q 6.296875 60.640625 12.9375 67.421875 
Q 19.578125 74.21875 30.609375 74.21875 
Q 43.265625 74.21875 49.921875 64.515625 
Q 56.59375 54.828125 56.59375 36.375 
Q 56.59375 19.140625 48.40625 8.859375 
Q 40.234375 -1.421875 26.421875 -1.421875 
Q 22.703125 -1.421875 18.890625 -0.6875 
Q 15.09375 0.046875 10.984375 1.515625 
M 30.609375 32.421875 
Q 37.25 32.421875 41.125 36.953125 
Q 45.015625 41.5 45.015625 49.421875 
Q 45.015625 57.28125 41.125 61.84375 
Q 37.25 66.40625 30.609375 66.40625 
Q 23.96875 66.40625 20.09375 61.84375 
Q 16.21875 57.28125 16.21875 49.421875 
Q 16.21875 41.5 20.09375 36.953125 
Q 23.96875 32.421875 30.609375 32.421875 
" id="DejaVuSans-39"/>
     </defs>
     <g transform="translate(307.843437 102.104813)scale(0.1 -0.1)">
      <use xlink:href="#DejaVuSans-70"/>
      <use x="63.476562" xlink:href="#DejaVuSans-72"/>
      <use x="104.558594" xlink:href="#DejaVuSans-65"/>
      <use x="166.082031" xlink:href="#DejaVuSans-64"/>
      <use x="229.558594" xlink:href="#DejaVuSans-2e"/>
      <use x="261.345703" xlink:href="#DejaVuSans-28"/>
      <use x="300.359375" xlink:href="#DejaVuSans-39"/>
      <use x="363.982422" xlink:href="#DejaVuSans-35"/>
      <use x="427.605469" xlink:href="#DejaVuSans-74"/>
      <use x="466.814453" xlink:href="#DejaVuSans-68"/>
      <use x="530.193359" xlink:href="#DejaVuSans-20"/>
      <use x="561.980469" xlink:href="#DejaVuSans-70"/>
      <use x="625.457031" xlink:href="#DejaVuSans-65"/>
      <use x="686.980469" xlink:href="#DejaVuSans-72"/>
      <use x="728.0625" xlink:href="#DejaVuSans-63"/>
      <use x="783.042969" xlink:href="#DejaVuSans-65"/>
      <use x="844.566406" xlink:href="#DejaVuSans-6e"/>
      <use x="907.945312" xlink:href="#DejaVuSans-2e"/>
      <use x="939.732422" xlink:href="#DejaVuSans-29"/>
     </g>
    </g>
   </g>
  </g>
 </g>
 <defs>
  <clipPath id="p54ae5427fd">
   <rect height="266.112" width="357.12" x="57.6" y="41.472"/>
  </clipPath>
 </defs>
</svg>
