<?xml version="1.0" encoding="utf-8" standalone="no"?>
<!DOCTYPE svg PUBLIC "-//W3C//DTD SVG 1.1//EN"
  "http://www.w3.org/Graphics/SVG/1.1/DTD/svg11.dtd">
<!-- Created with matplotlib (http://matplotlib.org/) -->
<svg height="345pt" version="1.1" viewBox="0 0 460 345" width="460pt" xmlns="http://www.w3.org/2000/svg" xmlns:xlink="http://www.w3.org/1999/xlink">
 <defs>
  <style type="text/css">
*{stroke-linecap:butt;stroke-linejoin:round;}
  </style>
 </defs>
 <g id="figure_1">
  <g id="patch_1">
   <path d="M 0 345.6 
L 460.8 345.6 
L 460.8 0 
L 0 0 
z
" style="fill:#ffffff;"/>
  </g>
  <g id="axes_1">
   <g id="patch_2">
    <path d="M 57.6 307.584 
L 414.72 307.584 
L 414.72 41.472 
L 57.6 41.472 
z
" style="fill:#ffffff;"/>
   </g>
   <g id="PolyCollection_1">
    <path clip-path="url(#p2d22c8398b)" d="M 73.832727 236.134209 
L 73.832727 266.463958 
L 75.900591 272.931756 
L 77.968454 257.33062 
L 80.036317 245.422377 
L 82.104181 225.612925 
L 84.172044 203.940301 
L 86.239907 262.28058 
L 88.307771 221.226693 
L 90.375634 212.792565 
L 92.443497 250.84319 
L 94.511361 222.173737 
L 96.579224 226.27351 
L 98.647087 229.300583 
L 100.714951 249.650147 
L 102.782814 237.494837 
L 104.850677 222.212659 
L 106.918541 229.452217 
L 108.986404 237.429106 
L 111.054268 223.571256 
L 113.122131 209.043822 
L 115.189994 189.762604 
L 117.257858 174.612468 
L 119.325721 160.00066 
L 121.393584 174.76225 
L 123.461448 165.766947 
L 125.529311 143.778834 
L 127.597174 139.985563 
L 129.665038 160.935698 
L 131.732901 152.591781 
L 133.800764 148.855632 
L 135.868628 143.492649 
L 137.936491 159.873082 
L 140.004354 145.775224 
L 142.072218 164.12633 
L 144.140081 151.497865 
L 146.207944 179.770937 
L 148.275808 186.626725 
L 150.343671 187.149131 
L 152.411534 186.185321 
L 154.479398 150.528889 
L 156.547261 141.946906 
L 158.615124 145.471683 
L 160.682988 117.691649 
L 162.750851 129.904546 
L 164.818715 111.960118 
L 166.886578 111.371594 
L 168.954441 115.615219 
L 171.022305 115.062483 
L 173.090168 127.354678 
L 175.158031 116.524861 
L 177.225895 109.813115 
L 179.293758 102.494003 
L 181.361621 89.460331 
L 183.429485 84.925987 
L 185.497348 78.490032 
L 187.565211 76.41355 
L 189.633075 83.741205 
L 191.700938 133.05867 
L 193.768801 139.805046 
L 195.836665 150.470819 
L 197.904528 142.673445 
L 199.972391 162.994074 
L 202.040255 160.342715 
L 204.108118 250.87136 
L 206.175981 247.983341 
L 208.243845 254.374166 
L 210.311708 249.561603 
L 212.379572 231.230874 
L 214.447435 220.213336 
L 216.515298 206.669769 
L 218.583162 222.158762 
L 220.651025 208.335086 
L 222.718888 199.833744 
L 224.786752 202.012234 
L 226.854615 210.620919 
L 228.922478 213.719076 
L 230.990342 231.057441 
L 233.058205 231.237144 
L 235.126068 253.240945 
L 237.193932 263.649694 
L 239.261795 255.025834 
L 241.329658 253.957538 
L 243.397522 242.543707 
L 245.465385 258.690879 
L 247.533248 261.242711 
L 249.601112 262.403465 
L 251.668975 269.853623 
L 253.736838 258.877692 
L 255.804702 251.291603 
L 257.872565 245.269392 
L 259.940428 224.786387 
L 262.008292 210.958231 
L 264.076155 205.68088 
L 266.144019 216.455661 
L 268.211882 212.559469 
L 270.279745 243.992424 
L 272.347609 242.026761 
L 274.415472 237.82015 
L 276.483335 256.093733 
L 278.551199 250.172427 
L 280.619062 249.644744 
L 282.686925 250.104711 
L 284.754789 249.23768 
L 286.822652 258.553918 
L 288.890515 254.454697 
L 290.958379 252.695722 
L 293.026242 251.989602 
L 295.094105 242.050798 
L 297.161969 212.701102 
L 299.229832 205.797824 
L 301.297695 190.64159 
L 303.365559 195.705713 
L 305.433422 209.742116 
L 307.501285 201.761234 
L 309.569149 228.18449 
L 311.637012 229.284961 
L 313.704876 207.063046 
L 315.772739 174.572959 
L 317.840602 152.278873 
L 319.908466 141.401531 
L 321.976329 147.25486 
L 324.044192 159.630644 
L 326.112056 156.286984 
L 328.179919 161.691971 
L 330.247782 176.352623 
L 332.315646 185.040326 
L 334.383509 186.249447 
L 336.451372 181.184416 
L 338.519236 166.565298 
L 340.587099 161.482494 
L 342.654962 141.680405 
L 344.722826 143.251674 
L 346.790689 154.321856 
L 348.858552 147.718344 
L 350.926416 169.627435 
L 352.994279 161.539869 
L 355.062142 184.628947 
L 357.130006 166.43863 
L 359.197869 173.099693 
L 361.265732 171.893931 
L 363.333596 160.193871 
L 365.401459 165.645265 
L 367.469323 156.837375 
L 369.537186 146.778224 
L 371.605049 147.524154 
L 373.672913 138.78612 
L 375.740776 144.475188 
L 377.808639 171.322299 
L 379.876503 172.72586 
L 381.944366 176.580372 
L 384.012229 167.390123 
L 386.080093 164.760483 
L 388.147956 178.338294 
L 390.215819 174.342 
L 392.283683 172.973247 
L 394.351546 188.294149 
L 396.419409 188.825743 
L 398.487273 197.857814 
L 398.487273 185.781564 
L 398.487273 185.781564 
L 396.419409 177.529394 
L 394.351546 175.459137 
L 392.283683 160.031216 
L 390.215819 163.22584 
L 388.147956 166.060183 
L 386.080093 152.380279 
L 384.012229 153.50262 
L 381.944366 164.980759 
L 379.876503 162.311999 
L 377.808639 157.398212 
L 375.740776 134.074139 
L 373.672913 125.433061 
L 371.605049 136.030554 
L 369.537186 127.244858 
L 367.469323 143.765072 
L 365.401459 154.643922 
L 363.333596 143.72195 
L 361.265732 161.013207 
L 359.197869 161.825502 
L 357.130006 150.691625 
L 355.062142 171.269077 
L 352.994279 149.754419 
L 350.926416 156.127622 
L 348.858552 133.731435 
L 346.790689 143.335638 
L 344.722826 131.373124 
L 342.654962 119.389385 
L 340.587099 148.207876 
L 338.519236 149.611014 
L 336.451372 169.11142 
L 334.383509 174.177127 
L 332.315646 172.527755 
L 330.247782 164.945024 
L 328.179919 151.387386 
L 326.112056 144.433855 
L 324.044192 149.033395 
L 321.976329 136.845153 
L 319.908466 125.82162 
L 317.840602 137.213478 
L 315.772739 139.685407 
L 313.704876 183.097704 
L 311.637012 213.907815 
L 309.569149 210.208721 
L 307.501285 187.542368 
L 305.433422 196.15981 
L 303.365559 183.086215 
L 301.297695 175.015226 
L 299.229832 188.479236 
L 297.161969 188.203779 
L 295.094105 220.587695 
L 293.026242 230.858675 
L 290.958379 231.695726 
L 288.890515 233.761627 
L 286.822652 237.519475 
L 284.754789 228.723512 
L 282.686925 229.144233 
L 280.619062 228.850383 
L 278.551199 230.345795 
L 276.483335 235.195364 
L 274.415472 219.832857 
L 272.347609 222.164602 
L 270.279745 221.623476 
L 268.211882 197.448637 
L 266.144019 201.73237 
L 264.076155 189.499768 
L 262.008292 192.643905 
L 259.940428 202.187771 
L 257.872565 225.079871 
L 255.804702 229.78556 
L 253.736838 235.802962 
L 251.668975 246.425625 
L 249.601112 240.269513 
L 247.533248 240.087748 
L 245.465385 237.059408 
L 243.397522 222.159032 
L 241.329658 232.577643 
L 239.261795 231.911382 
L 237.193932 241.679964 
L 235.126068 231.896503 
L 233.058205 214.828728 
L 230.990342 214.158302 
L 228.922478 199.001827 
L 226.854615 197.152952 
L 224.786752 188.871634 
L 222.718888 181.671363 
L 220.651025 190.599653 
L 218.583162 205.192969 
L 216.515298 188.476024 
L 214.447435 202.276732 
L 212.379572 209.609249 
L 210.311708 229.753035 
L 208.243845 234.900102 
L 206.175981 229.46487 
L 204.108118 205.638644 
L 202.040255 149.054592 
L 199.972391 150.316904 
L 197.904528 127.701969 
L 195.836665 139.866424 
L 193.768801 127.515468 
L 191.700938 106.024173 
L 189.633075 70.564331 
L 187.565211 63.979022 
L 185.497348 58.958309 
L 183.429485 71.879136 
L 181.361621 71.26162 
L 179.293758 85.392685 
L 177.225895 97.756247 
L 175.158031 99.067194 
L 173.090168 115.325198 
L 171.022305 102.723812 
L 168.954441 103.543837 
L 166.886578 99.598255 
L 164.818715 92.543789 
L 162.750851 115.512928 
L 160.682988 81.911349 
L 158.615124 133.518355 
L 156.547261 131.529253 
L 154.479398 111.987396 
L 152.411534 173.545914 
L 150.343671 174.774877 
L 148.275808 174.906788 
L 146.207944 165.195647 
L 144.140081 138.830533 
L 142.072218 151.30067 
L 140.004354 130.928338 
L 137.936491 147.099149 
L 135.868628 129.347063 
L 133.800764 137.069401 
L 131.732901 141.32673 
L 129.665038 147.339801 
L 127.597174 127.70754 
L 125.529311 119.680348 
L 123.461448 151.570879 
L 121.393584 160.288202 
L 119.325721 141.775077 
L 117.257858 158.047721 
L 115.189994 171.107251 
L 113.122131 191.66049 
L 111.054268 203.948872 
L 108.986404 220.541384 
L 106.918541 213.234422 
L 104.850677 202.709655 
L 102.782814 218.811376 
L 100.714951 226.792914 
L 98.647087 207.208161 
L 96.579224 209.172232 
L 94.511361 198.360096 
L 92.443497 222.029606 
L 90.375634 189.05271 
L 88.307771 195.093584 
L 86.239907 227.954105 
L 84.172044 185.461174 
L 82.104181 204.201077 
L 80.036317 225.890795 
L 77.968454 227.871671 
L 75.900591 244.351808 
L 73.832727 236.134209 
z
" style="fill:#008000;fill-opacity:0.4;"/>
   </g>
   <g id="matplotlib.axis_1">
    <g id="xtick_1">
     <g id="line2d_1">
      <defs>
       <path d="M 0 0 
L 0 3.5 
" id="m055525c870" style="stroke:#000000;stroke-width:0.8;"/>
      </defs>
      <g>
       <use style="stroke:#000000;stroke-width:0.8;" x="73.832727" xlink:href="#m055525c870" y="307.584"/>
      </g>
     </g>
     <g id="text_1">
      <!-- 0.0 -->
      <defs>
       <path d="M 31.78125 66.40625 
Q 24.171875 66.40625 20.328125 58.90625 
Q 16.5 51.421875 16.5 36.375 
Q 16.5 21.390625 20.328125 13.890625 
Q 24.171875 6.390625 31.78125 6.390625 
Q 39.453125 6.390625 43.28125 13.890625 
Q 47.125 21.390625 47.125 36.375 
Q 47.125 51.421875 43.28125 58.90625 
Q 39.453125 66.40625 31.78125 66.40625 
M 31.78125 74.21875 
Q 44.046875 74.21875 50.515625 64.515625 
Q 56.984375 54.828125 56.984375 36.375 
Q 56.984375 17.96875 50.515625 8.265625 
Q 44.046875 -1.421875 31.78125 -1.421875 
Q 19.53125 -1.421875 13.0625 8.265625 
Q 6.59375 17.96875 6.59375 36.375 
Q 6.59375 54.828125 13.0625 64.515625 
Q 19.53125 74.21875 31.78125 74.21875 
" id="DejaVuSans-30"/>
       <path d="M 10.6875 12.40625 
L 21 12.40625 
L 21 0 
L 10.6875 0 
z
" id="DejaVuSans-2e"/>
      </defs>
      <g transform="translate(65.881165 322.182437)scale(0.1 -0.1)">
       <use xlink:href="#DejaVuSans-30"/>
       <use x="63.623047" xlink:href="#DejaVuSans-2e"/>
       <use x="95.410156" xlink:href="#DejaVuSans-30"/>
      </g>
     </g>
    </g>
    <g id="xtick_2">
     <g id="line2d_2">
      <g>
       <use style="stroke:#000000;stroke-width:0.8;" x="138.763636" xlink:href="#m055525c870" y="307.584"/>
      </g>
     </g>
     <g id="text_2">
      <!-- 0.2 -->
      <defs>
       <path d="M 19.1875 8.296875 
L 53.609375 8.296875 
L 53.609375 0 
L 7.328125 0 
L 7.328125 8.296875 
Q 12.9375 14.109375 22.625 23.890625 
Q 32.328125 33.6875 34.8125 36.53125 
Q 39.546875 41.84375 41.421875 45.53125 
Q 43.3125 49.21875 43.3125 52.78125 
Q 43.3125 58.59375 39.234375 62.25 
Q 35.15625 65.921875 28.609375 65.921875 
Q 23.96875 65.921875 18.8125 64.3125 
Q 13.671875 62.703125 7.8125 59.421875 
L 7.8125 69.390625 
Q 13.765625 71.78125 18.9375 73 
Q 24.125 74.21875 28.421875 74.21875 
Q 39.75 74.21875 46.484375 68.546875 
Q 53.21875 62.890625 53.21875 53.421875 
Q 53.21875 48.921875 51.53125 44.890625 
Q 49.859375 40.875 45.40625 35.40625 
Q 44.1875 33.984375 37.640625 27.21875 
Q 31.109375 20.453125 19.1875 8.296875 
" id="DejaVuSans-32"/>
      </defs>
      <g transform="translate(130.812074 322.182437)scale(0.1 -0.1)">
       <use xlink:href="#DejaVuSans-30"/>
       <use x="63.623047" xlink:href="#DejaVuSans-2e"/>
       <use x="95.410156" xlink:href="#DejaVuSans-32"/>
      </g>
     </g>
    </g>
    <g id="xtick_3">
     <g id="line2d_3">
      <g>
       <use style="stroke:#000000;stroke-width:0.8;" x="203.694545" xlink:href="#m055525c870" y="307.584"/>
      </g>
     </g>
     <g id="text_3">
      <!-- 0.4 -->
      <defs>
       <path d="M 37.796875 64.3125 
L 12.890625 25.390625 
L 37.796875 25.390625 
z
M 35.203125 72.90625 
L 47.609375 72.90625 
L 47.609375 25.390625 
L 58.015625 25.390625 
L 58.015625 17.1875 
L 47.609375 17.1875 
L 47.609375 0 
L 37.796875 0 
L 37.796875 17.1875 
L 4.890625 17.1875 
L 4.890625 26.703125 
z
" id="DejaVuSans-34"/>
      </defs>
      <g transform="translate(195.742983 322.182437)scale(0.1 -0.1)">
       <use xlink:href="#DejaVuSans-30"/>
       <use x="63.623047" xlink:href="#DejaVuSans-2e"/>
       <use x="95.410156" xlink:href="#DejaVuSans-34"/>
      </g>
     </g>
    </g>
    <g id="xtick_4">
     <g id="line2d_4">
      <g>
       <use style="stroke:#000000;stroke-width:0.8;" x="268.625455" xlink:href="#m055525c870" y="307.584"/>
      </g>
     </g>
     <g id="text_4">
      <!-- 0.6 -->
      <defs>
       <path d="M 33.015625 40.375 
Q 26.375 40.375 22.484375 35.828125 
Q 18.609375 31.296875 18.609375 23.390625 
Q 18.609375 15.53125 22.484375 10.953125 
Q 26.375 6.390625 33.015625 6.390625 
Q 39.65625 6.390625 43.53125 10.953125 
Q 47.40625 15.53125 47.40625 23.390625 
Q 47.40625 31.296875 43.53125 35.828125 
Q 39.65625 40.375 33.015625 40.375 
M 52.59375 71.296875 
L 52.59375 62.3125 
Q 48.875 64.0625 45.09375 64.984375 
Q 41.3125 65.921875 37.59375 65.921875 
Q 27.828125 65.921875 22.671875 59.328125 
Q 17.53125 52.734375 16.796875 39.40625 
Q 19.671875 43.65625 24.015625 45.921875 
Q 28.375 48.1875 33.59375 48.1875 
Q 44.578125 48.1875 50.953125 41.515625 
Q 57.328125 34.859375 57.328125 23.390625 
Q 57.328125 12.15625 50.6875 5.359375 
Q 44.046875 -1.421875 33.015625 -1.421875 
Q 20.359375 -1.421875 13.671875 8.265625 
Q 6.984375 17.96875 6.984375 36.375 
Q 6.984375 53.65625 15.1875 63.9375 
Q 23.390625 74.21875 37.203125 74.21875 
Q 40.921875 74.21875 44.703125 73.484375 
Q 48.484375 72.75 52.59375 71.296875 
" id="DejaVuSans-36"/>
      </defs>
      <g transform="translate(260.673892 322.182437)scale(0.1 -0.1)">
       <use xlink:href="#DejaVuSans-30"/>
       <use x="63.623047" xlink:href="#DejaVuSans-2e"/>
       <use x="95.410156" xlink:href="#DejaVuSans-36"/>
      </g>
     </g>
    </g>
    <g id="xtick_5">
     <g id="line2d_5">
      <g>
       <use style="stroke:#000000;stroke-width:0.8;" x="333.556364" xlink:href="#m055525c870" y="307.584"/>
      </g>
     </g>
     <g id="text_5">
      <!-- 0.8 -->
      <defs>
       <path d="M 31.78125 34.625 
Q 24.75 34.625 20.71875 30.859375 
Q 16.703125 27.09375 16.703125 20.515625 
Q 16.703125 13.921875 20.71875 10.15625 
Q 24.75 6.390625 31.78125 6.390625 
Q 38.8125 6.390625 42.859375 10.171875 
Q 46.921875 13.96875 46.921875 20.515625 
Q 46.921875 27.09375 42.890625 30.859375 
Q 38.875 34.625 31.78125 34.625 
M 21.921875 38.8125 
Q 15.578125 40.375 12.03125 44.71875 
Q 8.5 49.078125 8.5 55.328125 
Q 8.5 64.0625 14.71875 69.140625 
Q 20.953125 74.21875 31.78125 74.21875 
Q 42.671875 74.21875 48.875 69.140625 
Q 55.078125 64.0625 55.078125 55.328125 
Q 55.078125 49.078125 51.53125 44.71875 
Q 48 40.375 41.703125 38.8125 
Q 48.828125 37.15625 52.796875 32.3125 
Q 56.78125 27.484375 56.78125 20.515625 
Q 56.78125 9.90625 50.3125 4.234375 
Q 43.84375 -1.421875 31.78125 -1.421875 
Q 19.734375 -1.421875 13.25 4.234375 
Q 6.78125 9.90625 6.78125 20.515625 
Q 6.78125 27.484375 10.78125 32.3125 
Q 14.796875 37.15625 21.921875 38.8125 
M 18.3125 54.390625 
Q 18.3125 48.734375 21.84375 45.5625 
Q 25.390625 42.390625 31.78125 42.390625 
Q 38.140625 42.390625 41.71875 45.5625 
Q 45.3125 48.734375 45.3125 54.390625 
Q 45.3125 60.0625 41.71875 63.234375 
Q 38.140625 66.40625 31.78125 66.40625 
Q 25.390625 66.40625 21.84375 63.234375 
Q 18.3125 60.0625 18.3125 54.390625 
" id="DejaVuSans-38"/>
      </defs>
      <g transform="translate(325.604801 322.182437)scale(0.1 -0.1)">
       <use xlink:href="#DejaVuSans-30"/>
       <use x="63.623047" xlink:href="#DejaVuSans-2e"/>
       <use x="95.410156" xlink:href="#DejaVuSans-38"/>
      </g>
     </g>
    </g>
    <g id="xtick_6">
     <g id="line2d_6">
      <g>
       <use style="stroke:#000000;stroke-width:0.8;" x="398.487273" xlink:href="#m055525c870" y="307.584"/>
      </g>
     </g>
     <g id="text_6">
      <!-- 1.0 -->
      <defs>
       <path d="M 12.40625 8.296875 
L 28.515625 8.296875 
L 28.515625 63.921875 
L 10.984375 60.40625 
L 10.984375 69.390625 
L 28.421875 72.90625 
L 38.28125 72.90625 
L 38.28125 8.296875 
L 54.390625 8.296875 
L 54.390625 0 
L 12.40625 0 
z
" id="DejaVuSans-31"/>
      </defs>
      <g transform="translate(390.53571 322.182437)scale(0.1 -0.1)">
       <use xlink:href="#DejaVuSans-31"/>
       <use x="63.623047" xlink:href="#DejaVuSans-2e"/>
       <use x="95.410156" xlink:href="#DejaVuSans-30"/>
      </g>
     </g>
    </g>
   </g>
   <g id="matplotlib.axis_2">
    <g id="ytick_1">
     <g id="line2d_7">
      <defs>
       <path d="M 0 0 
L -3.5 0 
" id="mba4b1d48ba" style="stroke:#000000;stroke-width:0.8;"/>
      </defs>
      <g>
       <use style="stroke:#000000;stroke-width:0.8;" x="57.6" xlink:href="#mba4b1d48ba" y="252.476894"/>
      </g>
     </g>
     <g id="text_7">
      <!-- 0.35 -->
      <defs>
       <path d="M 40.578125 39.3125 
Q 47.65625 37.796875 51.625 33 
Q 55.609375 28.21875 55.609375 21.1875 
Q 55.609375 10.40625 48.1875 4.484375 
Q 40.765625 -1.421875 27.09375 -1.421875 
Q 22.515625 -1.421875 17.65625 -0.515625 
Q 12.796875 0.390625 7.625 2.203125 
L 7.625 11.71875 
Q 11.71875 9.328125 16.59375 8.109375 
Q 21.484375 6.890625 26.8125 6.890625 
Q 36.078125 6.890625 40.9375 10.546875 
Q 45.796875 14.203125 45.796875 21.1875 
Q 45.796875 27.640625 41.28125 31.265625 
Q 36.765625 34.90625 28.71875 34.90625 
L 20.21875 34.90625 
L 20.21875 43.015625 
L 29.109375 43.015625 
Q 36.375 43.015625 40.234375 45.921875 
Q 44.09375 48.828125 44.09375 54.296875 
Q 44.09375 59.90625 40.109375 62.90625 
Q 36.140625 65.921875 28.71875 65.921875 
Q 24.65625 65.921875 20.015625 65.03125 
Q 15.375 64.15625 9.8125 62.3125 
L 9.8125 71.09375 
Q 15.4375 72.65625 20.34375 73.4375 
Q 25.25 74.21875 29.59375 74.21875 
Q 40.828125 74.21875 47.359375 69.109375 
Q 53.90625 64.015625 53.90625 55.328125 
Q 53.90625 49.265625 50.4375 45.09375 
Q 46.96875 40.921875 40.578125 39.3125 
" id="DejaVuSans-33"/>
       <path d="M 10.796875 72.90625 
L 49.515625 72.90625 
L 49.515625 64.59375 
L 19.828125 64.59375 
L 19.828125 46.734375 
Q 21.96875 47.46875 24.109375 47.828125 
Q 26.265625 48.1875 28.421875 48.1875 
Q 40.625 48.1875 47.75 41.5 
Q 54.890625 34.8125 54.890625 23.390625 
Q 54.890625 11.625 47.5625 5.09375 
Q 40.234375 -1.421875 26.90625 -1.421875 
Q 22.3125 -1.421875 17.546875 -0.640625 
Q 12.796875 0.140625 7.71875 1.703125 
L 7.71875 11.625 
Q 12.109375 9.234375 16.796875 8.0625 
Q 21.484375 6.890625 26.703125 6.890625 
Q 35.15625 6.890625 40.078125 11.328125 
Q 45.015625 15.765625 45.015625 23.390625 
Q 45.015625 31 40.078125 35.4375 
Q 35.15625 39.890625 26.703125 39.890625 
Q 22.75 39.890625 18.8125 39.015625 
Q 14.890625 38.140625 10.796875 36.28125 
z
" id="DejaVuSans-35"/>
      </defs>
      <g transform="translate(28.334375 256.276113)scale(0.1 -0.1)">
       <use xlink:href="#DejaVuSans-30"/>
       <use x="63.623047" xlink:href="#DejaVuSans-2e"/>
       <use x="95.410156" xlink:href="#DejaVuSans-33"/>
       <use x="159.033203" xlink:href="#DejaVuSans-35"/>
      </g>
     </g>
    </g>
    <g id="ytick_2">
     <g id="line2d_8">
      <g>
       <use style="stroke:#000000;stroke-width:0.8;" x="57.6" xlink:href="#mba4b1d48ba" y="195.666558"/>
      </g>
     </g>
     <g id="text_8">
      <!-- 0.40 -->
      <g transform="translate(28.334375 199.465777)scale(0.1 -0.1)">
       <use xlink:href="#DejaVuSans-30"/>
       <use x="63.623047" xlink:href="#DejaVuSans-2e"/>
       <use x="95.410156" xlink:href="#DejaVuSans-34"/>
       <use x="159.033203" xlink:href="#DejaVuSans-30"/>
      </g>
     </g>
    </g>
    <g id="ytick_3">
     <g id="line2d_9">
      <g>
       <use style="stroke:#000000;stroke-width:0.8;" x="57.6" xlink:href="#mba4b1d48ba" y="138.856222"/>
      </g>
     </g>
     <g id="text_9">
      <!-- 0.45 -->
      <g transform="translate(28.334375 142.65544)scale(0.1 -0.1)">
       <use xlink:href="#DejaVuSans-30"/>
       <use x="63.623047" xlink:href="#DejaVuSans-2e"/>
       <use x="95.410156" xlink:href="#DejaVuSans-34"/>
       <use x="159.033203" xlink:href="#DejaVuSans-35"/>
      </g>
     </g>
    </g>
    <g id="ytick_4">
     <g id="line2d_10">
      <g>
       <use style="stroke:#000000;stroke-width:0.8;" x="57.6" xlink:href="#mba4b1d48ba" y="82.045885"/>
      </g>
     </g>
     <g id="text_10">
      <!-- 0.50 -->
      <g transform="translate(28.334375 85.845104)scale(0.1 -0.1)">
       <use xlink:href="#DejaVuSans-30"/>
       <use x="63.623047" xlink:href="#DejaVuSans-2e"/>
       <use x="95.410156" xlink:href="#DejaVuSans-35"/>
       <use x="159.033203" xlink:href="#DejaVuSans-30"/>
      </g>
     </g>
    </g>
   </g>
   <g id="line2d_11">
    <path clip-path="url(#p2d22c8398b)" d="M 73.832727 295.488 
L 75.900591 239.118512 
L 77.968454 238.531093 
L 80.036317 210.052071 
L 82.104181 197.721956 
L 84.172044 230.898056 
L 86.239907 233.246596 
L 88.307771 218.859946 
L 90.375634 189.208359 
L 92.443497 193.024877 
L 94.511361 248.220664 
L 96.579224 209.75893 
L 98.647087 212.401747 
L 100.714951 224.144443 
L 102.782814 215.630846 
L 104.850677 214.162867 
L 106.918541 231.485475 
L 108.986404 213.575448 
L 111.054268 201.831616 
L 113.122131 183.335306 
L 115.189994 173.059453 
L 117.257858 159.5545 
L 119.325721 171.885751 
L 121.393584 151.334044 
L 123.461448 123.442441 
L 125.529311 152.802023 
L 127.597174 145.755269 
L 129.665038 144.288426 
L 131.732901 143.113588 
L 133.800764 151.334044 
L 135.868628 143.701007 
L 137.936491 148.398086 
L 140.004354 138.709651 
L 142.072218 151.334044 
L 144.140081 150.746625 
L 146.207944 180.106207 
L 148.275808 180.400484 
L 150.343671 170.71205 
L 152.411534 127.553237 
L 154.479398 128.433797 
L 156.547261 127.553237 
L 158.615124 121.681321 
L 160.682988 101.422755 
L 162.750851 98.193655 
L 164.818715 115.809404 
L 166.886578 95.845116 
L 168.954441 124.911557 
L 171.022305 124.02986 
L 173.090168 101.422755 
L 175.158031 107.588949 
L 177.225895 91.73432 
L 179.293758 70.889472 
L 181.361621 94.377137 
L 183.429485 53.568 
L 185.497348 70.008911 
L 187.565211 62.375875 
L 189.633075 107.588949 
L 191.700938 125.497839 
L 193.768801 141.05819 
L 195.836665 139.590211 
L 197.904528 143.113588 
L 199.972391 148.104944 
L 202.040255 230.310637 
L 204.108118 235.301993 
L 206.175981 239.118512 
L 208.243845 241.760193 
L 210.311708 223.558161 
L 214.447435 205.354993 
L 216.515298 211.814328 
L 218.583162 212.401747 
L 220.651025 190.382061 
L 222.718888 189.208359 
L 224.786752 204.474433 
L 226.854615 206.235553 
L 228.922478 210.052071 
L 230.990342 236.475695 
L 233.058205 235.301993 
L 235.126068 260.256502 
L 237.193932 252.037182 
L 239.261795 241.760193 
L 241.329658 240.29335 
L 243.397522 243.816727 
L 245.465385 253.798303 
L 247.533248 257.028539 
L 249.601112 262.606177 
L 253.736838 242.641889 
L 255.804702 242.05447 
L 257.872565 218.273663 
L 259.940428 210.346349 
L 262.008292 194.785998 
L 264.076155 207.704668 
L 266.144019 204.767574 
L 268.211882 242.93503 
L 270.279745 228.548381 
L 272.347609 231.778616 
L 274.415472 239.118512 
L 276.483335 245.577847 
L 278.551199 246.458407 
L 280.619062 244.697287 
L 282.686925 240.879632 
L 284.754789 245.577847 
L 286.822652 248.513805 
L 288.890515 246.458407 
L 290.958379 249.687507 
L 293.026242 235.595135 
L 295.094105 214.162867 
L 297.161969 194.785998 
L 299.229832 184.804422 
L 301.297695 182.747888 
L 303.365559 195.373417 
L 305.433422 198.309375 
L 307.501285 205.942412 
L 309.569149 227.66782 
L 311.637012 216.512543 
L 313.704876 161.904175 
L 315.772739 148.985505 
L 317.840602 122.561881 
L 319.908466 143.701007 
L 321.976329 149.572924 
L 324.044192 142.819311 
L 326.112056 152.214604 
L 328.179919 175.996547 
L 330.247782 177.757668 
L 332.315646 172.766311 
L 334.383509 171.005191 
L 336.451372 164.545856 
L 338.519236 144.288426 
L 340.587099 142.819311 
L 342.654962 124.617279 
L 344.722826 146.342688 
L 346.790689 134.012572 
L 348.858552 147.223248 
L 350.926416 166.308112 
L 352.994279 166.013835 
L 355.062142 163.665296 
L 357.130006 160.141919 
L 359.197869 165.132138 
L 361.265732 154.857421 
L 363.333596 150.746625 
L 365.401459 163.371018 
L 367.469323 140.765049 
L 369.537186 127.25896 
L 371.605049 129.314358 
L 373.672913 146.635829 
L 375.740776 148.104944 
L 377.808639 169.830353 
L 379.876503 168.949793 
L 381.944366 161.316756 
L 384.012229 165.426416 
L 386.080093 162.784735 
L 388.147956 171.59261 
L 390.215819 171.298332 
L 392.283683 173.059453 
L 394.351546 179.813066 
L 396.419409 184.217003 
L 398.487273 187.446102 
L 398.487273 187.446102 
" style="fill:none;stroke:#1f77b4;stroke-linecap:square;stroke-width:1.5;"/>
   </g>
   <g id="line2d_12">
    <path clip-path="url(#p2d22c8398b)" d="M 73.832727 251.26268 
L 75.900591 259.3797 
L 77.968454 243.462689 
L 80.036317 236.13368 
L 84.172044 194.627099 
L 86.239907 250.64407 
L 88.307771 208.356647 
L 90.375634 200.98495 
L 92.443497 238.545014 
L 94.511361 211.138239 
L 96.579224 218.041493 
L 98.647087 218.06917 
L 100.714951 240.32888 
L 102.782814 228.637969 
L 104.850677 212.723776 
L 106.918541 221.585978 
L 108.986404 229.530098 
L 111.054268 214.085558 
L 113.122131 200.429532 
L 115.189994 179.834508 
L 117.257858 165.606486 
L 119.325721 149.317896 
L 121.393584 167.192522 
L 123.461448 158.041001 
L 125.529311 127.969324 
L 127.597174 133.763134 
L 129.665038 153.895009 
L 131.732901 146.822254 
L 133.800764 142.618524 
L 135.868628 135.755103 
L 137.936491 153.408436 
L 140.004354 137.014766 
L 142.072218 157.752793 
L 144.140081 144.845511 
L 146.207944 172.566288 
L 148.275808 180.802327 
L 150.343671 180.965523 
L 152.411534 179.771099 
L 154.479398 123.957091 
L 156.547261 136.764729 
L 158.615124 139.381284 
L 160.682988 92.35182 
L 162.750851 122.677699 
L 164.818715 100.862569 
L 168.954441 109.363332 
L 171.022305 108.719114 
L 173.090168 121.074615 
L 175.158031 105.321059 
L 177.225895 103.153484 
L 179.293758 91.342464 
L 181.361621 78.231564 
L 183.429485 78.212099 
L 185.497348 66.221405 
L 187.565211 70.279407 
L 189.633075 76.852014 
L 191.700938 121.657305 
L 195.836665 145.148583 
L 197.904528 133.695184 
L 199.972391 156.757566 
L 202.040255 154.721247 
L 204.108118 235.870417 
L 206.175981 239.497016 
L 208.243845 245.561384 
L 210.311708 240.440744 
L 212.379572 220.864141 
L 214.447435 211.486601 
L 216.515298 197.677561 
L 218.583162 213.588092 
L 220.651025 199.709657 
L 222.718888 190.357158 
L 224.786752 195.410327 
L 226.854615 204.115321 
L 228.922478 206.451971 
L 230.990342 223.132839 
L 233.058205 223.508695 
L 235.126068 243.160574 
L 237.193932 253.860425 
L 239.261795 244.318309 
L 241.329658 243.803265 
L 243.397522 232.91503 
L 245.465385 248.729434 
L 247.533248 251.714565 
L 249.601112 252.195876 
L 251.668975 259.182785 
L 253.736838 248.242429 
L 255.804702 241.173138 
L 257.872565 235.656812 
L 259.940428 213.834564 
L 262.008292 201.979217 
L 264.076155 197.41395 
L 266.144019 209.310798 
L 268.211882 205.074915 
L 270.279745 233.936819 
L 272.347609 232.29908 
L 274.415472 229.239816 
L 276.483335 246.750253 
L 278.551199 241.03738 
L 280.619062 239.779153 
L 282.686925 239.969277 
L 284.754789 239.371661 
L 286.822652 248.904882 
L 288.890515 244.958824 
L 290.958379 242.788413 
L 293.026242 241.908128 
L 295.094105 231.832623 
L 297.161969 200.584837 
L 299.229832 196.844288 
L 301.297695 182.59436 
L 303.365559 189.360679 
L 305.433422 203.343664 
L 307.501285 194.792228 
L 309.569149 220.089827 
L 311.637012 222.024009 
L 313.704876 195.303745 
L 315.772739 152.22793 
L 317.840602 143.828286 
L 319.908466 132.380829 
L 321.976329 141.997674 
L 324.044192 154.458796 
L 326.112056 150.275324 
L 328.179919 156.587836 
L 330.247782 170.801633 
L 332.315646 178.627837 
L 334.383509 180.220136 
L 336.451372 175.120267 
L 338.519236 156.670783 
L 340.587099 154.459319 
L 342.654962 126.703033 
L 344.722826 137.29557 
L 346.790689 148.83988 
L 348.858552 139.987294 
L 350.926416 162.741362 
L 352.994279 155.52763 
L 355.062142 178.016569 
L 357.130006 157.495113 
L 359.197869 167.531047 
L 361.265732 166.51023 
L 363.333596 150.441702 
L 365.401459 160.176656 
L 367.469323 149.886383 
L 369.537186 134.486883 
L 371.605049 141.812225 
L 373.672913 131.715739 
L 375.740776 139.200196 
L 377.808639 164.578648 
L 381.944366 170.731975 
L 384.012229 159.836293 
L 386.080093 158.358025 
L 388.147956 172.216198 
L 390.215819 168.798034 
L 392.283683 166.284237 
L 394.351546 181.932395 
L 396.419409 183.316231 
L 398.487273 191.925746 
L 398.487273 191.925746 
" style="fill:none;stroke:#ff7f0e;stroke-linecap:square;stroke-width:1.5;"/>
   </g>
   <g id="line2d_13">
    <path clip-path="url(#p2d22c8398b)" d="M 73.832727 266.463958 
L 75.900591 272.931756 
L 77.968454 257.33062 
L 80.036317 245.422377 
L 82.104181 225.612925 
L 84.172044 203.940301 
L 86.239907 262.28058 
L 88.307771 221.226693 
L 90.375634 212.792565 
L 92.443497 250.84319 
L 94.511361 222.173737 
L 96.579224 226.27351 
L 98.647087 229.300583 
L 100.714951 249.650147 
L 102.782814 237.494837 
L 104.850677 222.212659 
L 106.918541 229.452217 
L 108.986404 237.429106 
L 113.122131 209.043822 
L 115.189994 189.762604 
L 119.325721 160.00066 
L 121.393584 174.76225 
L 123.461448 165.766947 
L 125.529311 143.778834 
L 127.597174 139.985563 
L 129.665038 160.935698 
L 131.732901 152.591781 
L 133.800764 148.855632 
L 135.868628 143.492649 
L 137.936491 159.873082 
L 140.004354 145.775224 
L 142.072218 164.12633 
L 144.140081 151.497865 
L 146.207944 179.770937 
L 148.275808 186.626725 
L 150.343671 187.149131 
L 152.411534 186.185321 
L 154.479398 150.528889 
L 156.547261 141.946906 
L 158.615124 145.471683 
L 160.682988 117.691649 
L 162.750851 129.904546 
L 164.818715 111.960118 
L 166.886578 111.371594 
L 168.954441 115.615219 
L 171.022305 115.062483 
L 173.090168 127.354678 
L 175.158031 116.524861 
L 177.225895 109.813115 
L 179.293758 102.494003 
L 181.361621 89.460331 
L 183.429485 84.925987 
L 185.497348 78.490032 
L 187.565211 76.41355 
L 189.633075 83.741205 
L 191.700938 133.05867 
L 193.768801 139.805046 
L 195.836665 150.470819 
L 197.904528 142.673445 
L 199.972391 162.994074 
L 202.040255 160.342715 
L 204.108118 250.87136 
L 206.175981 247.983341 
L 208.243845 254.374166 
L 210.311708 249.561603 
L 212.379572 231.230874 
L 214.447435 220.213336 
L 216.515298 206.669769 
L 218.583162 222.158762 
L 220.651025 208.335086 
L 222.718888 199.833744 
L 224.786752 202.012234 
L 226.854615 210.620919 
L 228.922478 213.719076 
L 230.990342 231.057441 
L 233.058205 231.237144 
L 235.126068 253.240945 
L 237.193932 263.649694 
L 239.261795 255.025834 
L 241.329658 253.957538 
L 243.397522 242.543707 
L 245.465385 258.690879 
L 247.533248 261.242711 
L 249.601112 262.403465 
L 251.668975 269.853623 
L 253.736838 258.877692 
L 255.804702 251.291603 
L 257.872565 245.269392 
L 259.940428 224.786387 
L 262.008292 210.958231 
L 264.076155 205.68088 
L 266.144019 216.455661 
L 268.211882 212.559469 
L 270.279745 243.992424 
L 272.347609 242.026761 
L 274.415472 237.82015 
L 276.483335 256.093733 
L 278.551199 250.172427 
L 280.619062 249.644744 
L 282.686925 250.104711 
L 284.754789 249.23768 
L 286.822652 258.553918 
L 288.890515 254.454697 
L 290.958379 252.695722 
L 293.026242 251.989602 
L 295.094105 242.050798 
L 297.161969 212.701102 
L 299.229832 205.797824 
L 301.297695 190.64159 
L 303.365559 195.705713 
L 305.433422 209.742116 
L 307.501285 201.761234 
L 309.569149 228.18449 
L 311.637012 229.284961 
L 313.704876 207.063046 
L 315.772739 174.572959 
L 317.840602 152.278873 
L 319.908466 141.401531 
L 321.976329 147.25486 
L 324.044192 159.630644 
L 326.112056 156.286984 
L 328.179919 161.691971 
L 330.247782 176.352623 
L 332.315646 185.040326 
L 334.383509 186.249447 
L 336.451372 181.184416 
L 338.519236 166.565298 
L 340.587099 161.482494 
L 342.654962 141.680405 
L 344.722826 143.251674 
L 346.790689 154.321856 
L 348.858552 147.718344 
L 350.926416 169.627435 
L 352.994279 161.539869 
L 355.062142 184.628947 
L 357.130006 166.43863 
L 359.197869 173.099693 
L 361.265732 171.893931 
L 363.333596 160.193871 
L 365.401459 165.645265 
L 367.469323 156.837375 
L 369.537186 146.778224 
L 371.605049 147.524154 
L 373.672913 138.78612 
L 375.740776 144.475188 
L 377.808639 171.322299 
L 379.876503 172.72586 
L 381.944366 176.580372 
L 384.012229 167.390123 
L 386.080093 164.760483 
L 388.147956 178.338294 
L 390.215819 174.342 
L 392.283683 172.973247 
L 394.351546 188.294149 
L 396.419409 188.825743 
L 398.487273 197.857814 
L 398.487273 197.857814 
" style="fill:none;stroke:#2ca02c;stroke-linecap:square;stroke-width:1.5;"/>
   </g>
   <g id="line2d_14">
    <path clip-path="url(#p2d22c8398b)" d="M 73.832727 236.134209 
L 75.900591 244.351808 
L 77.968454 227.871671 
L 80.036317 225.890795 
L 82.104181 204.201077 
L 84.172044 185.461174 
L 86.239907 227.954105 
L 88.307771 195.093584 
L 90.375634 189.05271 
L 92.443497 222.029606 
L 94.511361 198.360096 
L 96.579224 209.172232 
L 98.647087 207.208161 
L 100.714951 226.792914 
L 102.782814 218.811376 
L 104.850677 202.709655 
L 106.918541 213.234422 
L 108.986404 220.541384 
L 111.054268 203.948872 
L 113.122131 191.66049 
L 115.189994 171.107251 
L 117.257858 158.047721 
L 119.325721 141.775077 
L 121.393584 160.288202 
L 123.461448 151.570879 
L 125.529311 119.680348 
L 127.597174 127.70754 
L 129.665038 147.339801 
L 131.732901 141.32673 
L 133.800764 137.069401 
L 135.868628 129.347063 
L 137.936491 147.099149 
L 140.004354 130.928338 
L 142.072218 151.30067 
L 144.140081 138.830533 
L 146.207944 165.195647 
L 148.275808 174.906788 
L 150.343671 174.774877 
L 152.411534 173.545914 
L 154.479398 111.987396 
L 156.547261 131.529253 
L 158.615124 133.518355 
L 160.682988 81.911349 
L 162.750851 115.512928 
L 164.818715 92.543789 
L 166.886578 99.598255 
L 168.954441 103.543837 
L 171.022305 102.723812 
L 173.090168 115.325198 
L 175.158031 99.067194 
L 177.225895 97.756247 
L 179.293758 85.392685 
L 181.361621 71.26162 
L 183.429485 71.879136 
L 185.497348 58.958309 
L 187.565211 63.979022 
L 189.633075 70.564331 
L 191.700938 106.024173 
L 193.768801 127.515468 
L 195.836665 139.866424 
L 197.904528 127.701969 
L 199.972391 150.316904 
L 202.040255 149.054592 
L 204.108118 205.638644 
L 206.175981 229.46487 
L 208.243845 234.900102 
L 210.311708 229.753035 
L 212.379572 209.609249 
L 214.447435 202.276732 
L 216.515298 188.476024 
L 218.583162 205.192969 
L 220.651025 190.599653 
L 222.718888 181.671363 
L 224.786752 188.871634 
L 226.854615 197.152952 
L 228.922478 199.001827 
L 230.990342 214.158302 
L 233.058205 214.828728 
L 235.126068 231.896503 
L 237.193932 241.679964 
L 239.261795 231.911382 
L 241.329658 232.577643 
L 243.397522 222.159032 
L 245.465385 237.059408 
L 247.533248 240.087748 
L 249.601112 240.269513 
L 251.668975 246.425625 
L 253.736838 235.802962 
L 255.804702 229.78556 
L 257.872565 225.079871 
L 259.940428 202.187771 
L 262.008292 192.643905 
L 264.076155 189.499768 
L 266.144019 201.73237 
L 268.211882 197.448637 
L 270.279745 221.623476 
L 272.347609 222.164602 
L 274.415472 219.832857 
L 276.483335 235.195364 
L 278.551199 230.345795 
L 280.619062 228.850383 
L 282.686925 229.144233 
L 284.754789 228.723512 
L 286.822652 237.519475 
L 288.890515 233.761627 
L 290.958379 231.695726 
L 293.026242 230.858675 
L 295.094105 220.587695 
L 297.161969 188.203779 
L 299.229832 188.479236 
L 301.297695 175.015226 
L 303.365559 183.086215 
L 305.433422 196.15981 
L 307.501285 187.542368 
L 309.569149 210.208721 
L 311.637012 213.907815 
L 313.704876 183.097704 
L 315.772739 139.685407 
L 317.840602 137.213478 
L 319.908466 125.82162 
L 321.976329 136.845153 
L 324.044192 149.033395 
L 326.112056 144.433855 
L 328.179919 151.387386 
L 330.247782 164.945024 
L 332.315646 172.527755 
L 334.383509 174.177127 
L 336.451372 169.11142 
L 338.519236 149.611014 
L 340.587099 148.207876 
L 342.654962 119.389385 
L 346.790689 143.335638 
L 348.858552 133.731435 
L 350.926416 156.127622 
L 352.994279 149.754419 
L 355.062142 171.269077 
L 357.130006 150.691625 
L 359.197869 161.825502 
L 361.265732 161.013207 
L 363.333596 143.72195 
L 365.401459 154.643922 
L 367.469323 143.765072 
L 369.537186 127.244858 
L 371.605049 136.030554 
L 373.672913 125.433061 
L 375.740776 134.074139 
L 377.808639 157.398212 
L 379.876503 162.311999 
L 381.944366 164.980759 
L 384.012229 153.50262 
L 386.080093 152.380279 
L 388.147956 166.060183 
L 390.215819 163.22584 
L 392.283683 160.031216 
L 394.351546 175.459137 
L 396.419409 177.529394 
L 398.487273 185.781564 
L 398.487273 185.781564 
" style="fill:none;stroke:#d62728;stroke-linecap:square;stroke-width:1.5;"/>
   </g>
   <g id="patch_3">
    <path d="M 57.6 307.584 
L 57.6 41.472 
" style="fill:none;stroke:#000000;stroke-linecap:square;stroke-linejoin:miter;stroke-width:0.8;"/>
   </g>
   <g id="patch_4">
    <path d="M 414.72 307.584 
L 414.72 41.472 
" style="fill:none;stroke:#000000;stroke-linecap:square;stroke-linejoin:miter;stroke-width:0.8;"/>
   </g>
   <g id="patch_5">
    <path d="M 57.6 307.584 
L 414.72 307.584 
" style="fill:none;stroke:#000000;stroke-linecap:square;stroke-linejoin:miter;stroke-width:0.8;"/>
   </g>
   <g id="patch_6">
    <path d="M 57.6 41.472 
L 414.72 41.472 
" style="fill:none;stroke:#000000;stroke-linecap:square;stroke-linejoin:miter;stroke-width:0.8;"/>
   </g>
   <g id="text_11">
    <!-- Plot of Test Data vs MCMC Uncertainty  -->
    <defs>
     <path d="M 19.671875 64.796875 
L 19.671875 37.40625 
L 32.078125 37.40625 
Q 38.96875 37.40625 42.71875 40.96875 
Q 46.484375 44.53125 46.484375 51.125 
Q 46.484375 57.671875 42.71875 61.234375 
Q 38.96875 64.796875 32.078125 64.796875 
z
M 9.8125 72.90625 
L 32.078125 72.90625 
Q 44.34375 72.90625 50.609375 67.359375 
Q 56.890625 61.8125 56.890625 51.125 
Q 56.890625 40.328125 50.609375 34.8125 
Q 44.34375 29.296875 32.078125 29.296875 
L 19.671875 29.296875 
L 19.671875 0 
L 9.8125 0 
z
" id="DejaVuSans-50"/>
     <path d="M 9.421875 75.984375 
L 18.40625 75.984375 
L 18.40625 0 
L 9.421875 0 
z
" id="DejaVuSans-6c"/>
     <path d="M 30.609375 48.390625 
Q 23.390625 48.390625 19.1875 42.75 
Q 14.984375 37.109375 14.984375 27.296875 
Q 14.984375 17.484375 19.15625 11.84375 
Q 23.34375 6.203125 30.609375 6.203125 
Q 37.796875 6.203125 41.984375 11.859375 
Q 46.1875 17.53125 46.1875 27.296875 
Q 46.1875 37.015625 41.984375 42.703125 
Q 37.796875 48.390625 30.609375 48.390625 
M 30.609375 56 
Q 42.328125 56 49.015625 48.375 
Q 55.71875 40.765625 55.71875 27.296875 
Q 55.71875 13.875 49.015625 6.21875 
Q 42.328125 -1.421875 30.609375 -1.421875 
Q 18.84375 -1.421875 12.171875 6.21875 
Q 5.515625 13.875 5.515625 27.296875 
Q 5.515625 40.765625 12.171875 48.375 
Q 18.84375 56 30.609375 56 
" id="DejaVuSans-6f"/>
     <path d="M 18.3125 70.21875 
L 18.3125 54.6875 
L 36.8125 54.6875 
L 36.8125 47.703125 
L 18.3125 47.703125 
L 18.3125 18.015625 
Q 18.3125 11.328125 20.140625 9.421875 
Q 21.96875 7.515625 27.59375 7.515625 
L 36.8125 7.515625 
L 36.8125 0 
L 27.59375 0 
Q 17.1875 0 13.234375 3.875 
Q 9.28125 7.765625 9.28125 18.015625 
L 9.28125 47.703125 
L 2.6875 47.703125 
L 2.6875 54.6875 
L 9.28125 54.6875 
L 9.28125 70.21875 
z
" id="DejaVuSans-74"/>
     <path id="DejaVuSans-20"/>
     <path d="M 37.109375 75.984375 
L 37.109375 68.5 
L 28.515625 68.5 
Q 23.6875 68.5 21.796875 66.546875 
Q 19.921875 64.59375 19.921875 59.515625 
L 19.921875 54.6875 
L 34.71875 54.6875 
L 34.71875 47.703125 
L 19.921875 47.703125 
L 19.921875 0 
L 10.890625 0 
L 10.890625 47.703125 
L 2.296875 47.703125 
L 2.296875 54.6875 
L 10.890625 54.6875 
L 10.890625 58.5 
Q 10.890625 67.625 15.140625 71.796875 
Q 19.390625 75.984375 28.609375 75.984375 
z
" id="DejaVuSans-66"/>
     <path d="M -0.296875 72.90625 
L 61.375 72.90625 
L 61.375 64.59375 
L 35.5 64.59375 
L 35.5 0 
L 25.59375 0 
L 25.59375 64.59375 
L -0.296875 64.59375 
z
" id="DejaVuSans-54"/>
     <path d="M 56.203125 29.59375 
L 56.203125 25.203125 
L 14.890625 25.203125 
Q 15.484375 15.921875 20.484375 11.0625 
Q 25.484375 6.203125 34.421875 6.203125 
Q 39.59375 6.203125 44.453125 7.46875 
Q 49.3125 8.734375 54.109375 11.28125 
L 54.109375 2.78125 
Q 49.265625 0.734375 44.1875 -0.34375 
Q 39.109375 -1.421875 33.890625 -1.421875 
Q 20.796875 -1.421875 13.15625 6.1875 
Q 5.515625 13.8125 5.515625 26.8125 
Q 5.515625 40.234375 12.765625 48.109375 
Q 20.015625 56 32.328125 56 
Q 43.359375 56 49.78125 48.890625 
Q 56.203125 41.796875 56.203125 29.59375 
M 47.21875 32.234375 
Q 47.125 39.59375 43.09375 43.984375 
Q 39.0625 48.390625 32.421875 48.390625 
Q 24.90625 48.390625 20.390625 44.140625 
Q 15.875 39.890625 15.1875 32.171875 
z
" id="DejaVuSans-65"/>
     <path d="M 44.28125 53.078125 
L 44.28125 44.578125 
Q 40.484375 46.53125 36.375 47.5 
Q 32.28125 48.484375 27.875 48.484375 
Q 21.1875 48.484375 17.84375 46.4375 
Q 14.5 44.390625 14.5 40.28125 
Q 14.5 37.15625 16.890625 35.375 
Q 19.28125 33.59375 26.515625 31.984375 
L 29.59375 31.296875 
Q 39.15625 29.25 43.1875 25.515625 
Q 47.21875 21.78125 47.21875 15.09375 
Q 47.21875 7.46875 41.1875 3.015625 
Q 35.15625 -1.421875 24.609375 -1.421875 
Q 20.21875 -1.421875 15.453125 -0.5625 
Q 10.6875 0.296875 5.421875 2 
L 5.421875 11.28125 
Q 10.40625 8.6875 15.234375 7.390625 
Q 20.0625 6.109375 24.8125 6.109375 
Q 31.15625 6.109375 34.5625 8.28125 
Q 37.984375 10.453125 37.984375 14.40625 
Q 37.984375 18.0625 35.515625 20.015625 
Q 33.0625 21.96875 24.703125 23.78125 
L 21.578125 24.515625 
Q 13.234375 26.265625 9.515625 29.90625 
Q 5.8125 33.546875 5.8125 39.890625 
Q 5.8125 47.609375 11.28125 51.796875 
Q 16.75 56 26.8125 56 
Q 31.78125 56 36.171875 55.265625 
Q 40.578125 54.546875 44.28125 53.078125 
" id="DejaVuSans-73"/>
     <path d="M 19.671875 64.796875 
L 19.671875 8.109375 
L 31.59375 8.109375 
Q 46.6875 8.109375 53.6875 14.9375 
Q 60.6875 21.78125 60.6875 36.53125 
Q 60.6875 51.171875 53.6875 57.984375 
Q 46.6875 64.796875 31.59375 64.796875 
z
M 9.8125 72.90625 
L 30.078125 72.90625 
Q 51.265625 72.90625 61.171875 64.09375 
Q 71.09375 55.28125 71.09375 36.53125 
Q 71.09375 17.671875 61.125 8.828125 
Q 51.171875 0 30.078125 0 
L 9.8125 0 
z
" id="DejaVuSans-44"/>
     <path d="M 34.28125 27.484375 
Q 23.390625 27.484375 19.1875 25 
Q 14.984375 22.515625 14.984375 16.5 
Q 14.984375 11.71875 18.140625 8.90625 
Q 21.296875 6.109375 26.703125 6.109375 
Q 34.1875 6.109375 38.703125 11.40625 
Q 43.21875 16.703125 43.21875 25.484375 
L 43.21875 27.484375 
z
M 52.203125 31.203125 
L 52.203125 0 
L 43.21875 0 
L 43.21875 8.296875 
Q 40.140625 3.328125 35.546875 0.953125 
Q 30.953125 -1.421875 24.3125 -1.421875 
Q 15.921875 -1.421875 10.953125 3.296875 
Q 6 8.015625 6 15.921875 
Q 6 25.140625 12.171875 29.828125 
Q 18.359375 34.515625 30.609375 34.515625 
L 43.21875 34.515625 
L 43.21875 35.40625 
Q 43.21875 41.609375 39.140625 45 
Q 35.0625 48.390625 27.6875 48.390625 
Q 23 48.390625 18.546875 47.265625 
Q 14.109375 46.140625 10.015625 43.890625 
L 10.015625 52.203125 
Q 14.9375 54.109375 19.578125 55.046875 
Q 24.21875 56 28.609375 56 
Q 40.484375 56 46.34375 49.84375 
Q 52.203125 43.703125 52.203125 31.203125 
" id="DejaVuSans-61"/>
     <path d="M 2.984375 54.6875 
L 12.5 54.6875 
L 29.59375 8.796875 
L 46.6875 54.6875 
L 56.203125 54.6875 
L 35.6875 0 
L 23.484375 0 
z
" id="DejaVuSans-76"/>
     <path d="M 9.8125 72.90625 
L 24.515625 72.90625 
L 43.109375 23.296875 
L 61.8125 72.90625 
L 76.515625 72.90625 
L 76.515625 0 
L 66.890625 0 
L 66.890625 64.015625 
L 48.09375 14.015625 
L 38.1875 14.015625 
L 19.390625 64.015625 
L 19.390625 0 
L 9.8125 0 
z
" id="DejaVuSans-4d"/>
     <path d="M 64.40625 67.28125 
L 64.40625 56.890625 
Q 59.421875 61.53125 53.78125 63.8125 
Q 48.140625 66.109375 41.796875 66.109375 
Q 29.296875 66.109375 22.65625 58.46875 
Q 16.015625 50.828125 16.015625 36.375 
Q 16.015625 21.96875 22.65625 14.328125 
Q 29.296875 6.6875 41.796875 6.6875 
Q 48.140625 6.6875 53.78125 8.984375 
Q 59.421875 11.28125 64.40625 15.921875 
L 64.40625 5.609375 
Q 59.234375 2.09375 53.4375 0.328125 
Q 47.65625 -1.421875 41.21875 -1.421875 
Q 24.65625 -1.421875 15.125 8.703125 
Q 5.609375 18.84375 5.609375 36.375 
Q 5.609375 53.953125 15.125 64.078125 
Q 24.65625 74.21875 41.21875 74.21875 
Q 47.75 74.21875 53.53125 72.484375 
Q 59.328125 70.75 64.40625 67.28125 
" id="DejaVuSans-43"/>
     <path d="M 8.6875 72.90625 
L 18.609375 72.90625 
L 18.609375 28.609375 
Q 18.609375 16.890625 22.84375 11.734375 
Q 27.09375 6.59375 36.625 6.59375 
Q 46.09375 6.59375 50.34375 11.734375 
Q 54.59375 16.890625 54.59375 28.609375 
L 54.59375 72.90625 
L 64.5 72.90625 
L 64.5 27.390625 
Q 64.5 13.140625 57.4375 5.859375 
Q 50.390625 -1.421875 36.625 -1.421875 
Q 22.796875 -1.421875 15.734375 5.859375 
Q 8.6875 13.140625 8.6875 27.390625 
z
" id="DejaVuSans-55"/>
     <path d="M 54.890625 33.015625 
L 54.890625 0 
L 45.90625 0 
L 45.90625 32.71875 
Q 45.90625 40.484375 42.875 44.328125 
Q 39.84375 48.1875 33.796875 48.1875 
Q 26.515625 48.1875 22.3125 43.546875 
Q 18.109375 38.921875 18.109375 30.90625 
L 18.109375 0 
L 9.078125 0 
L 9.078125 54.6875 
L 18.109375 54.6875 
L 18.109375 46.1875 
Q 21.34375 51.125 25.703125 53.5625 
Q 30.078125 56 35.796875 56 
Q 45.21875 56 50.046875 50.171875 
Q 54.890625 44.34375 54.890625 33.015625 
" id="DejaVuSans-6e"/>
     <path d="M 48.78125 52.59375 
L 48.78125 44.1875 
Q 44.96875 46.296875 41.140625 47.34375 
Q 37.3125 48.390625 33.40625 48.390625 
Q 24.65625 48.390625 19.8125 42.84375 
Q 14.984375 37.3125 14.984375 27.296875 
Q 14.984375 17.28125 19.8125 11.734375 
Q 24.65625 6.203125 33.40625 6.203125 
Q 37.3125 6.203125 41.140625 7.25 
Q 44.96875 8.296875 48.78125 10.40625 
L 48.78125 2.09375 
Q 45.015625 0.34375 40.984375 -0.53125 
Q 36.96875 -1.421875 32.421875 -1.421875 
Q 20.0625 -1.421875 12.78125 6.34375 
Q 5.515625 14.109375 5.515625 27.296875 
Q 5.515625 40.671875 12.859375 48.328125 
Q 20.21875 56 33.015625 56 
Q 37.15625 56 41.109375 55.140625 
Q 45.0625 54.296875 48.78125 52.59375 
" id="DejaVuSans-63"/>
     <path d="M 41.109375 46.296875 
Q 39.59375 47.171875 37.8125 47.578125 
Q 36.03125 48 33.890625 48 
Q 26.265625 48 22.1875 43.046875 
Q 18.109375 38.09375 18.109375 28.8125 
L 18.109375 0 
L 9.078125 0 
L 9.078125 54.6875 
L 18.109375 54.6875 
L 18.109375 46.1875 
Q 20.953125 51.171875 25.484375 53.578125 
Q 30.03125 56 36.53125 56 
Q 37.453125 56 38.578125 55.875 
Q 39.703125 55.765625 41.0625 55.515625 
z
" id="DejaVuSans-72"/>
     <path d="M 9.421875 54.6875 
L 18.40625 54.6875 
L 18.40625 0 
L 9.421875 0 
z
M 9.421875 75.984375 
L 18.40625 75.984375 
L 18.40625 64.59375 
L 9.421875 64.59375 
z
" id="DejaVuSans-69"/>
     <path d="M 32.171875 -5.078125 
Q 28.375 -14.84375 24.75 -17.8125 
Q 21.140625 -20.796875 15.09375 -20.796875 
L 7.90625 -20.796875 
L 7.90625 -13.28125 
L 13.1875 -13.28125 
Q 16.890625 -13.28125 18.9375 -11.515625 
Q 21 -9.765625 23.484375 -3.21875 
L 25.09375 0.875 
L 2.984375 54.6875 
L 12.5 54.6875 
L 29.59375 11.921875 
L 46.6875 54.6875 
L 56.203125 54.6875 
z
" id="DejaVuSans-79"/>
    </defs>
    <g transform="translate(118.112813 35.472)scale(0.12 -0.12)">
     <use xlink:href="#DejaVuSans-50"/>
     <use x="60.302734" xlink:href="#DejaVuSans-6c"/>
     <use x="88.085938" xlink:href="#DejaVuSans-6f"/>
     <use x="149.267578" xlink:href="#DejaVuSans-74"/>
     <use x="188.476562" xlink:href="#DejaVuSans-20"/>
     <use x="220.263672" xlink:href="#DejaVuSans-6f"/>
     <use x="281.445312" xlink:href="#DejaVuSans-66"/>
     <use x="316.650391" xlink:href="#DejaVuSans-20"/>
     <use x="348.4375" xlink:href="#DejaVuSans-54"/>
     <use x="409.255859" xlink:href="#DejaVuSans-65"/>
     <use x="470.779297" xlink:href="#DejaVuSans-73"/>
     <use x="522.878906" xlink:href="#DejaVuSans-74"/>
     <use x="562.087891" xlink:href="#DejaVuSans-20"/>
     <use x="593.875" xlink:href="#DejaVuSans-44"/>
     <use x="670.876953" xlink:href="#DejaVuSans-61"/>
     <use x="732.15625" xlink:href="#DejaVuSans-74"/>
     <use x="771.365234" xlink:href="#DejaVuSans-61"/>
     <use x="832.644531" xlink:href="#DejaVuSans-20"/>
     <use x="864.431641" xlink:href="#DejaVuSans-76"/>
     <use x="923.611328" xlink:href="#DejaVuSans-73"/>
     <use x="975.710938" xlink:href="#DejaVuSans-20"/>
     <use x="1007.498047" xlink:href="#DejaVuSans-4d"/>
     <use x="1093.777344" xlink:href="#DejaVuSans-43"/>
     <use x="1163.601562" xlink:href="#DejaVuSans-4d"/>
     <use x="1249.880859" xlink:href="#DejaVuSans-43"/>
     <use x="1319.705078" xlink:href="#DejaVuSans-20"/>
     <use x="1351.492188" xlink:href="#DejaVuSans-55"/>
     <use x="1424.685547" xlink:href="#DejaVuSans-6e"/>
     <use x="1488.064453" xlink:href="#DejaVuSans-63"/>
     <use x="1543.044922" xlink:href="#DejaVuSans-65"/>
     <use x="1604.568359" xlink:href="#DejaVuSans-72"/>
     <use x="1645.681641" xlink:href="#DejaVuSans-74"/>
     <use x="1684.890625" xlink:href="#DejaVuSans-61"/>
     <use x="1746.169922" xlink:href="#DejaVuSans-69"/>
     <use x="1773.953125" xlink:href="#DejaVuSans-6e"/>
     <use x="1837.332031" xlink:href="#DejaVuSans-74"/>
     <use x="1876.541016" xlink:href="#DejaVuSans-79"/>
     <use x="1935.720703" xlink:href="#DejaVuSans-20"/>
    </g>
   </g>
   <g id="legend_1">
    <g id="patch_7">
     <path d="M 277.843437 108.1845 
L 407.72 108.1845 
Q 409.72 108.1845 409.72 106.1845 
L 409.72 48.472 
Q 409.72 46.472 407.72 46.472 
L 277.843437 46.472 
Q 275.843437 46.472 275.843437 48.472 
L 275.843437 106.1845 
Q 275.843437 108.1845 277.843437 108.1845 
z
" style="fill:#ffffff;opacity:0.8;stroke:#cccccc;stroke-linejoin:miter;"/>
    </g>
    <g id="line2d_15">
     <path d="M 279.843437 54.570438 
L 299.843437 54.570438 
" style="fill:none;stroke:#1f77b4;stroke-linecap:square;stroke-width:1.5;"/>
    </g>
    <g id="line2d_16"/>
    <g id="text_12">
     <!-- actual -->
     <defs>
      <path d="M 8.5 21.578125 
L 8.5 54.6875 
L 17.484375 54.6875 
L 17.484375 21.921875 
Q 17.484375 14.15625 20.5 10.265625 
Q 23.53125 6.390625 29.59375 6.390625 
Q 36.859375 6.390625 41.078125 11.03125 
Q 45.3125 15.671875 45.3125 23.6875 
L 45.3125 54.6875 
L 54.296875 54.6875 
L 54.296875 0 
L 45.3125 0 
L 45.3125 8.40625 
Q 42.046875 3.421875 37.71875 1 
Q 33.40625 -1.421875 27.6875 -1.421875 
Q 18.265625 -1.421875 13.375 4.4375 
Q 8.5 10.296875 8.5 21.578125 
M 31.109375 56 
z
" id="DejaVuSans-75"/>
     </defs>
     <g transform="translate(307.843437 58.070438)scale(0.1 -0.1)">
      <use xlink:href="#DejaVuSans-61"/>
      <use x="61.279297" xlink:href="#DejaVuSans-63"/>
      <use x="116.259766" xlink:href="#DejaVuSans-74"/>
      <use x="155.46875" xlink:href="#DejaVuSans-75"/>
      <use x="218.847656" xlink:href="#DejaVuSans-61"/>
      <use x="280.126953" xlink:href="#DejaVuSans-6c"/>
     </g>
    </g>
    <g id="line2d_17">
     <path d="M 279.843437 69.248563 
L 299.843437 69.248563 
" style="fill:none;stroke:#ff7f0e;stroke-linecap:square;stroke-width:1.5;"/>
    </g>
    <g id="line2d_18"/>
    <g id="text_13">
     <!-- pred. (mean) -->
     <defs>
      <path d="M 18.109375 8.203125 
L 18.109375 -20.796875 
L 9.078125 -20.796875 
L 9.078125 54.6875 
L 18.109375 54.6875 
L 18.109375 46.390625 
Q 20.953125 51.265625 25.265625 53.625 
Q 29.59375 56 35.59375 56 
Q 45.5625 56 51.78125 48.09375 
Q 58.015625 40.1875 58.015625 27.296875 
Q 58.015625 14.40625 51.78125 6.484375 
Q 45.5625 -1.421875 35.59375 -1.421875 
Q 29.59375 -1.421875 25.265625 0.953125 
Q 20.953125 3.328125 18.109375 8.203125 
M 48.6875 27.296875 
Q 48.6875 37.203125 44.609375 42.84375 
Q 40.53125 48.484375 33.40625 48.484375 
Q 26.265625 48.484375 22.1875 42.84375 
Q 18.109375 37.203125 18.109375 27.296875 
Q 18.109375 17.390625 22.1875 11.75 
Q 26.265625 6.109375 33.40625 6.109375 
Q 40.53125 6.109375 44.609375 11.75 
Q 48.6875 17.390625 48.6875 27.296875 
" id="DejaVuSans-70"/>
      <path d="M 45.40625 46.390625 
L 45.40625 75.984375 
L 54.390625 75.984375 
L 54.390625 0 
L 45.40625 0 
L 45.40625 8.203125 
Q 42.578125 3.328125 38.25 0.953125 
Q 33.9375 -1.421875 27.875 -1.421875 
Q 17.96875 -1.421875 11.734375 6.484375 
Q 5.515625 14.40625 5.515625 27.296875 
Q 5.515625 40.1875 11.734375 48.09375 
Q 17.96875 56 27.875 56 
Q 33.9375 56 38.25 53.625 
Q 42.578125 51.265625 45.40625 46.390625 
M 14.796875 27.296875 
Q 14.796875 17.390625 18.875 11.75 
Q 22.953125 6.109375 30.078125 6.109375 
Q 37.203125 6.109375 41.296875 11.75 
Q 45.40625 17.390625 45.40625 27.296875 
Q 45.40625 37.203125 41.296875 42.84375 
Q 37.203125 48.484375 30.078125 48.484375 
Q 22.953125 48.484375 18.875 42.84375 
Q 14.796875 37.203125 14.796875 27.296875 
" id="DejaVuSans-64"/>
      <path d="M 31 75.875 
Q 24.46875 64.65625 21.28125 53.65625 
Q 18.109375 42.671875 18.109375 31.390625 
Q 18.109375 20.125 21.3125 9.0625 
Q 24.515625 -2 31 -13.1875 
L 23.1875 -13.1875 
Q 15.875 -1.703125 12.234375 9.375 
Q 8.59375 20.453125 8.59375 31.390625 
Q 8.59375 42.28125 12.203125 53.3125 
Q 15.828125 64.359375 23.1875 75.875 
z
" id="DejaVuSans-28"/>
      <path d="M 52 44.1875 
Q 55.375 50.25 60.0625 53.125 
Q 64.75 56 71.09375 56 
Q 79.640625 56 84.28125 50.015625 
Q 88.921875 44.046875 88.921875 33.015625 
L 88.921875 0 
L 79.890625 0 
L 79.890625 32.71875 
Q 79.890625 40.578125 77.09375 44.375 
Q 74.3125 48.1875 68.609375 48.1875 
Q 61.625 48.1875 57.5625 43.546875 
Q 53.515625 38.921875 53.515625 30.90625 
L 53.515625 0 
L 44.484375 0 
L 44.484375 32.71875 
Q 44.484375 40.625 41.703125 44.40625 
Q 38.921875 48.1875 33.109375 48.1875 
Q 26.21875 48.1875 22.15625 43.53125 
Q 18.109375 38.875 18.109375 30.90625 
L 18.109375 0 
L 9.078125 0 
L 9.078125 54.6875 
L 18.109375 54.6875 
L 18.109375 46.1875 
Q 21.1875 51.21875 25.484375 53.609375 
Q 29.78125 56 35.6875 56 
Q 41.65625 56 45.828125 52.96875 
Q 50 49.953125 52 44.1875 
" id="DejaVuSans-6d"/>
      <path d="M 8.015625 75.875 
L 15.828125 75.875 
Q 23.140625 64.359375 26.78125 53.3125 
Q 30.421875 42.28125 30.421875 31.390625 
Q 30.421875 20.453125 26.78125 9.375 
Q 23.140625 -1.703125 15.828125 -13.1875 
L 8.015625 -13.1875 
Q 14.5 -2 17.703125 9.0625 
Q 20.90625 20.125 20.90625 31.390625 
Q 20.90625 42.671875 17.703125 53.65625 
Q 14.5 64.65625 8.015625 75.875 
" id="DejaVuSans-29"/>
     </defs>
     <g transform="translate(307.843437 72.748563)scale(0.1 -0.1)">
      <use xlink:href="#DejaVuSans-70"/>
      <use x="63.476562" xlink:href="#DejaVuSans-72"/>
      <use x="104.558594" xlink:href="#DejaVuSans-65"/>
      <use x="166.082031" xlink:href="#DejaVuSans-64"/>
      <use x="229.558594" xlink:href="#DejaVuSans-2e"/>
      <use x="261.345703" xlink:href="#DejaVuSans-20"/>
      <use x="293.132812" xlink:href="#DejaVuSans-28"/>
      <use x="332.146484" xlink:href="#DejaVuSans-6d"/>
      <use x="429.558594" xlink:href="#DejaVuSans-65"/>
      <use x="491.082031" xlink:href="#DejaVuSans-61"/>
      <use x="552.361328" xlink:href="#DejaVuSans-6e"/>
      <use x="615.740234" xlink:href="#DejaVuSans-29"/>
     </g>
    </g>
    <g id="line2d_19">
     <path d="M 279.843437 83.926688 
L 299.843437 83.926688 
" style="fill:none;stroke:#2ca02c;stroke-linecap:square;stroke-width:1.5;"/>
    </g>
    <g id="line2d_20"/>
    <g id="text_14">
     <!-- pred.(5th percen.) -->
     <defs>
      <path d="M 54.890625 33.015625 
L 54.890625 0 
L 45.90625 0 
L 45.90625 32.71875 
Q 45.90625 40.484375 42.875 44.328125 
Q 39.84375 48.1875 33.796875 48.1875 
Q 26.515625 48.1875 22.3125 43.546875 
Q 18.109375 38.921875 18.109375 30.90625 
L 18.109375 0 
L 9.078125 0 
L 9.078125 75.984375 
L 18.109375 75.984375 
L 18.109375 46.1875 
Q 21.34375 51.125 25.703125 53.5625 
Q 30.078125 56 35.796875 56 
Q 45.21875 56 50.046875 50.171875 
Q 54.890625 44.34375 54.890625 33.015625 
" id="DejaVuSans-68"/>
     </defs>
     <g transform="translate(307.843437 87.426688)scale(0.1 -0.1)">
      <use xlink:href="#DejaVuSans-70"/>
      <use x="63.476562" xlink:href="#DejaVuSans-72"/>
      <use x="104.558594" xlink:href="#DejaVuSans-65"/>
      <use x="166.082031" xlink:href="#DejaVuSans-64"/>
      <use x="229.558594" xlink:href="#DejaVuSans-2e"/>
      <use x="261.345703" xlink:href="#DejaVuSans-28"/>
      <use x="300.359375" xlink:href="#DejaVuSans-35"/>
      <use x="363.982422" xlink:href="#DejaVuSans-74"/>
      <use x="403.191406" xlink:href="#DejaVuSans-68"/>
      <use x="466.570312" xlink:href="#DejaVuSans-20"/>
      <use x="498.357422" xlink:href="#DejaVuSans-70"/>
      <use x="561.833984" xlink:href="#DejaVuSans-65"/>
      <use x="623.357422" xlink:href="#DejaVuSans-72"/>
      <use x="664.439453" xlink:href="#DejaVuSans-63"/>
      <use x="719.419922" xlink:href="#DejaVuSans-65"/>
      <use x="780.943359" xlink:href="#DejaVuSans-6e"/>
      <use x="844.322266" xlink:href="#DejaVuSans-2e"/>
      <use x="876.109375" xlink:href="#DejaVuSans-29"/>
     </g>
    </g>
    <g id="line2d_21">
     <path d="M 279.843437 98.604813 
L 299.843437 98.604813 
" style="fill:none;stroke:#d62728;stroke-linecap:square;stroke-width:1.5;"/>
    </g>
    <g id="line2d_22"/>
    <g id="text_15">
     <!-- pred.(95th percen.) -->
     <defs>
      <path d="M 10.984375 1.515625 
L 10.984375 10.5 
Q 14.703125 8.734375 18.5 7.8125 
Q 22.3125 6.890625 25.984375 6.890625 
Q 35.75 6.890625 40.890625 13.453125 
Q 46.046875 20.015625 46.78125 33.40625 
Q 43.953125 29.203125 39.59375 26.953125 
Q 35.25 24.703125 29.984375 24.703125 
Q 19.046875 24.703125 12.671875 31.3125 
Q 6.296875 37.9375 6.296875 49.421875 
Q 6.296875 60.640625 12.9375 67.421875 
Q 19.578125 74.21875 30.609375 74.21875 
Q 43.265625 74.21875 49.921875 64.515625 
Q 56.59375 54.828125 56.59375 36.375 
Q 56.59375 19.140625 48.40625 8.859375 
Q 40.234375 -1.421875 26.421875 -1.421875 
Q 22.703125 -1.421875 18.890625 -0.6875 
Q 15.09375 0.046875 10.984375 1.515625 
M 30.609375 32.421875 
Q 37.25 32.421875 41.125 36.953125 
Q 45.015625 41.5 45.015625 49.421875 
Q 45.015625 57.28125 41.125 61.84375 
Q 37.25 66.40625 30.609375 66.40625 
Q 23.96875 66.40625 20.09375 61.84375 
Q 16.21875 57.28125 16.21875 49.421875 
Q 16.21875 41.5 20.09375 36.953125 
Q 23.96875 32.421875 30.609375 32.421875 
" id="DejaVuSans-39"/>
     </defs>
     <g transform="translate(307.843437 102.104813)scale(0.1 -0.1)">
      <use xlink:href="#DejaVuSans-70"/>
      <use x="63.476562" xlink:href="#DejaVuSans-72"/>
      <use x="104.558594" xlink:href="#DejaVuSans-65"/>
      <use x="166.082031" xlink:href="#DejaVuSans-64"/>
      <use x="229.558594" xlink:href="#DejaVuSans-2e"/>
      <use x="261.345703" xlink:href="#DejaVuSans-28"/>
      <use x="300.359375" xlink:href="#DejaVuSans-39"/>
      <use x="363.982422" xlink:href="#DejaVuSans-35"/>
      <use x="427.605469" xlink:href="#DejaVuSans-74"/>
      <use x="466.814453" xlink:href="#DejaVuSans-68"/>
      <use x="530.193359" xlink:href="#DejaVuSans-20"/>
      <use x="561.980469" xlink:href="#DejaVuSans-70"/>
      <use x="625.457031" xlink:href="#DejaVuSans-65"/>
      <use x="686.980469" xlink:href="#DejaVuSans-72"/>
      <use x="728.0625" xlink:href="#DejaVuSans-63"/>
      <use x="783.042969" xlink:href="#DejaVuSans-65"/>
      <use x="844.566406" xlink:href="#DejaVuSans-6e"/>
      <use x="907.945312" xlink:href="#DejaVuSans-2e"/>
      <use x="939.732422" xlink:href="#DejaVuSans-29"/>
     </g>
    </g>
   </g>
  </g>
 </g>
 <defs>
  <clipPath id="p2d22c8398b">
   <rect height="266.112" width="357.12" x="57.6" y="41.472"/>
  </clipPath>
 </defs>
</svg>
