<?xml version="1.0" encoding="utf-8" standalone="no"?>
<!DOCTYPE svg PUBLIC "-//W3C//DTD SVG 1.1//EN"
  "http://www.w3.org/Graphics/SVG/1.1/DTD/svg11.dtd">
<!-- Created with matplotlib (http://matplotlib.org/) -->
<svg height="345pt" version="1.1" viewBox="0 0 460 345" width="460pt" xmlns="http://www.w3.org/2000/svg" xmlns:xlink="http://www.w3.org/1999/xlink">
 <defs>
  <style type="text/css">
*{stroke-linecap:butt;stroke-linejoin:round;}
  </style>
 </defs>
 <g id="figure_1">
  <g id="patch_1">
   <path d="M 0 345.6 
L 460.8 345.6 
L 460.8 0 
L 0 0 
z
" style="fill:#ffffff;"/>
  </g>
  <g id="axes_1">
   <g id="patch_2">
    <path d="M 57.6 307.584 
L 414.72 307.584 
L 414.72 41.472 
L 57.6 41.472 
z
" style="fill:#ffffff;"/>
   </g>
   <g id="PolyCollection_1">
    <path clip-path="url(#pf51e8dde43)" d="M 73.832727 87.715541 
L 73.832727 91.172438 
L 75.202578 93.426706 
L 76.572428 92.893593 
L 77.942278 91.877553 
L 79.312129 95.8661 
L 80.681979 94.754519 
L 82.05183 93.799734 
L 83.42168 93.731444 
L 84.79153 95.342273 
L 86.161381 91.734909 
L 87.531231 86.612549 
L 88.901082 83.109748 
L 90.270932 80.213561 
L 91.640783 79.184458 
L 93.010633 78.819875 
L 94.380483 78.02191 
L 95.750334 78.021427 
L 97.120184 78.159606 
L 98.490035 74.395286 
L 99.859885 72.925348 
L 101.229735 71.818942 
L 102.599586 71.592711 
L 103.969436 71.568257 
L 105.339287 70.712908 
L 106.709137 69.644033 
L 108.078987 69.748793 
L 109.448838 72.383803 
L 110.818688 77.145685 
L 112.188539 102.835872 
L 113.558389 116.852693 
L 114.928239 128.219118 
L 116.29809 124.20526 
L 117.66794 133.472367 
L 119.037791 129.839939 
L 120.407641 124.928986 
L 121.777491 114.378419 
L 123.147342 106.366259 
L 124.517192 105.926813 
L 125.887043 100.84568 
L 127.256893 96.498692 
L 128.626743 95.765557 
L 129.996594 95.369876 
L 131.366444 98.536049 
L 132.736295 100.44726 
L 134.106145 103.780598 
L 135.475995 109.002498 
L 136.845846 104.843392 
L 138.215696 101.432327 
L 139.585547 103.81881 
L 140.955397 105.098213 
L 142.325247 102.485369 
L 143.695098 107.189891 
L 145.064948 112.342296 
L 146.434799 101.558744 
L 147.804649 97.49253 
L 149.174499 99.172449 
L 150.54435 95.728974 
L 151.9142 99.579305 
L 153.284051 96.867621 
L 154.653901 91.572003 
L 156.023751 85.624956 
L 157.393602 87.975145 
L 158.763452 89.994898 
L 160.133303 89.211608 
L 161.503153 86.315253 
L 162.873003 83.759218 
L 164.242854 83.594443 
L 165.612704 86.610288 
L 166.982555 90.655878 
L 168.352405 88.87565 
L 169.722255 88.423542 
L 171.092106 88.421339 
L 172.461956 87.295008 
L 173.831807 86.95097 
L 175.201657 85.848062 
L 176.571507 82.732119 
L 177.941358 82.357161 
L 179.311208 86.592077 
L 180.681059 82.638125 
L 182.050909 114.649893 
L 183.420759 116.821783 
L 184.79061 113.791874 
L 186.16046 118.813869 
L 187.530311 106.828035 
L 188.900161 121.877006 
L 190.270012 151.319445 
L 191.639862 158.601257 
L 193.009712 155.108708 
L 194.379563 162.465275 
L 195.749413 164.822253 
L 197.119264 166.533056 
L 198.489114 160.480858 
L 199.858964 150.907251 
L 201.228815 152.010951 
L 202.598665 156.204469 
L 203.968516 153.092686 
L 205.338366 151.726482 
L 206.708216 154.156899 
L 208.078067 176.812658 
L 209.447917 182.853195 
L 210.817768 190.295587 
L 212.187618 186.779152 
L 213.557468 182.120707 
L 214.927319 175.661244 
L 216.297169 169.746245 
L 217.66702 160.892448 
L 219.03687 169.655631 
L 220.40672 179.757378 
L 221.776571 180.833925 
L 223.146421 190.822014 
L 224.516272 191.429268 
L 225.886122 190.946012 
L 227.255972 189.371716 
L 228.625823 188.730616 
L 229.995673 188.671145 
L 231.365524 193.148443 
L 232.735374 189.204362 
L 234.105224 182.391129 
L 235.475075 189.134312 
L 236.844925 189.531637 
L 238.214776 190.937681 
L 239.584626 188.742481 
L 240.954476 182.161065 
L 242.324327 183.721999 
L 243.694177 183.08792 
L 245.064028 173.385622 
L 246.433878 165.588204 
L 247.803728 170.779591 
L 249.173579 176.768254 
L 250.543429 232.86252 
L 251.91328 231.057783 
L 253.28313 218.977168 
L 254.65298 217.053797 
L 256.022831 214.180985 
L 257.392681 228.860951 
L 258.762532 241.694771 
L 260.132382 252.211831 
L 261.502232 253.178949 
L 262.872083 257.736515 
L 264.241933 266.268809 
L 265.611784 268.850173 
L 266.981634 262.843301 
L 268.351484 260.085404 
L 269.721335 252.858279 
L 271.091185 245.197119 
L 272.461036 253.246103 
L 273.830886 248.807037 
L 275.200736 249.217102 
L 276.570587 243.503261 
L 277.940437 244.547931 
L 279.310288 245.080228 
L 280.680138 238.255189 
L 282.049988 227.947378 
L 283.419839 221.457415 
L 284.789689 216.506521 
L 286.15954 215.596538 
L 287.52939 211.851029 
L 288.899241 218.177829 
L 290.269091 218.081198 
L 291.638941 222.084307 
L 293.008792 219.935848 
L 294.378642 211.980193 
L 295.748493 202.177041 
L 297.118343 204.66698 
L 298.488193 200.987161 
L 299.858044 192.935642 
L 301.227894 188.978099 
L 302.597745 194.179907 
L 303.967595 196.322886 
L 305.337445 193.618349 
L 306.707296 195.53088 
L 308.077146 189.967242 
L 309.446997 193.406473 
L 310.816847 191.102888 
L 312.186697 187.579166 
L 313.556548 185.391491 
L 314.926398 188.046918 
L 316.296249 208.920296 
L 317.666099 228.07879 
L 319.035949 224.674992 
L 320.4058 225.894114 
L 321.77565 224.946977 
L 323.145501 227.743106 
L 324.515351 232.591891 
L 325.885201 227.996382 
L 327.255052 228.061607 
L 328.624902 238.338484 
L 329.994753 230.638392 
L 331.364603 233.777427 
L 332.734453 231.532874 
L 334.104304 227.738843 
L 335.474154 226.045613 
L 336.844005 222.913058 
L 338.213855 227.988959 
L 339.583705 223.531584 
L 340.953556 228.789064 
L 342.323406 228.935809 
L 343.693257 231.672808 
L 345.063107 232.370524 
L 346.432957 230.320961 
L 347.802808 232.065629 
L 349.172658 223.682011 
L 350.542509 217.221694 
L 351.912359 219.170412 
L 353.282209 219.044748 
L 354.65206 217.60112 
L 356.02191 212.264892 
L 357.391761 209.290143 
L 358.761611 207.557273 
L 360.131461 204.597912 
L 361.501312 200.734839 
L 362.871162 254.220847 
L 364.241013 237.388839 
L 365.610863 240.97782 
L 366.980713 233.497441 
L 368.350564 229.982586 
L 369.720414 224.717465 
L 371.090265 222.888491 
L 372.460115 221.419041 
L 373.829965 222.130576 
L 375.199816 220.946316 
L 376.569666 215.287728 
L 377.939517 224.142502 
L 379.309367 217.384502 
L 380.679217 209.163075 
L 382.049068 222.166673 
L 383.418918 219.82854 
L 384.788769 236.689929 
L 386.158619 226.591416 
L 387.52847 248.334814 
L 388.89832 261.529998 
L 390.26817 279.117915 
L 391.638021 266.667376 
L 393.007871 284.717808 
L 394.377722 273.718675 
L 395.747572 277.454697 
L 397.117422 286.545888 
L 398.487273 295.488 
L 398.487273 281.053157 
L 398.487273 281.053157 
L 397.117422 274.533481 
L 395.747572 268.076994 
L 394.377722 263.455688 
L 393.007871 271.689995 
L 391.638021 255.620222 
L 390.26817 266.180013 
L 388.89832 251.208369 
L 387.52847 236.766753 
L 386.158619 218.380472 
L 384.788769 228.775999 
L 383.418918 215.652815 
L 382.049068 214.981588 
L 380.679217 199.72094 
L 379.309367 208.950314 
L 377.939517 218.45143 
L 376.569666 208.745452 
L 375.199816 216.267535 
L 373.829965 218.213198 
L 372.460115 217.742056 
L 371.090265 218.575116 
L 369.720414 217.637451 
L 368.350564 226.265275 
L 366.980713 227.339667 
L 365.610863 235.958395 
L 364.241013 226.87594 
L 362.871162 227.415936 
L 361.501312 195.345405 
L 360.131461 199.759894 
L 358.761611 203.440327 
L 357.391761 205.649932 
L 356.02191 204.698444 
L 354.65206 213.811712 
L 353.282209 215.607609 
L 351.912359 215.015369 
L 350.542509 207.820722 
L 349.172658 215.48761 
L 347.802808 227.601819 
L 346.432957 225.802693 
L 345.063107 228.738366 
L 343.693257 228.661685 
L 342.323406 225.693538 
L 340.953556 224.728275 
L 339.583705 216.968508 
L 338.213855 224.537671 
L 336.844005 218.720375 
L 335.474154 221.930661 
L 334.104304 222.400987 
L 332.734453 228.22419 
L 331.364603 229.441422 
L 329.994753 222.087584 
L 328.624902 233.168687 
L 327.255052 224.666749 
L 325.885201 222.835229 
L 324.515351 227.94874 
L 323.145501 224.443963 
L 321.77565 221.495924 
L 320.4058 222.79581 
L 319.035949 220.55659 
L 317.666099 214.498272 
L 316.296249 195.674748 
L 314.926398 184.804596 
L 313.556548 181.795411 
L 312.186697 183.463739 
L 310.816847 187.294836 
L 309.446997 190.123905 
L 308.077146 184.849318 
L 306.707296 190.577193 
L 305.337445 188.739037 
L 303.967595 188.928884 
L 302.597745 188.817605 
L 301.227894 185.798435 
L 299.858044 183.077876 
L 298.488193 195.530068 
L 297.118343 200.632088 
L 295.748493 192.794901 
L 294.378642 202.09132 
L 293.008792 215.492452 
L 291.638941 218.740626 
L 290.269091 214.539748 
L 288.899241 213.781864 
L 287.52939 207.015663 
L 286.15954 209.577337 
L 284.789689 209.532134 
L 283.419839 216.20012 
L 282.049988 217.835297 
L 280.680138 231.385468 
L 279.310288 241.073791 
L 277.940437 239.973666 
L 276.570587 238.436013 
L 275.200736 243.676413 
L 273.830886 244.453613 
L 272.461036 246.136819 
L 271.091185 235.992594 
L 269.721335 244.561498 
L 268.351484 253.669098 
L 266.981634 254.675902 
L 265.611784 261.408419 
L 264.241933 258.501837 
L 262.872083 252.297052 
L 261.502232 248.611766 
L 260.132382 245.517251 
L 258.762532 233.595611 
L 257.392681 221.835854 
L 256.022831 209.858226 
L 254.65298 212.550369 
L 253.28313 202.654918 
L 251.91328 224.578996 
L 250.543429 200.406372 
L 249.173579 170.489541 
L 247.803728 164.428309 
L 246.433878 161.485363 
L 245.064028 165.738788 
L 243.694177 179.87639 
L 242.324327 180.066835 
L 240.954476 177.230826 
L 239.584626 183.564574 
L 238.214776 187.622272 
L 236.844925 185.728964 
L 235.475075 184.615582 
L 234.105224 176.11587 
L 232.735374 183.998561 
L 231.365524 188.836638 
L 229.995673 184.729782 
L 228.625823 184.146859 
L 227.255972 185.805192 
L 225.886122 187.395189 
L 224.516272 187.279076 
L 223.146421 184.30184 
L 221.776571 176.846939 
L 220.40672 169.741341 
L 219.03687 160.998158 
L 217.66702 155.765807 
L 216.297169 165.804545 
L 214.927319 170.222523 
L 213.557468 177.758644 
L 212.187618 182.728996 
L 210.817768 183.464559 
L 209.447917 171.320525 
L 208.078067 158.804808 
L 206.708216 146.493159 
L 205.338366 146.261192 
L 203.968516 148.094747 
L 202.598665 148.495161 
L 201.228815 145.636861 
L 199.858964 145.17405 
L 198.489114 156.348142 
L 197.119264 161.250686 
L 195.749413 158.933637 
L 194.379563 152.93203 
L 193.009712 150.317603 
L 191.639862 145.448085 
L 190.270012 126.975933 
L 188.900161 106.296872 
L 187.530311 95.008835 
L 186.16046 109.51605 
L 184.79061 108.967248 
L 183.420759 111.763703 
L 182.050909 92.251783 
L 180.681059 69.957298 
L 179.311208 82.961824 
L 177.941358 76.629051 
L 176.571507 77.038211 
L 175.201657 77.982892 
L 173.831807 83.011625 
L 172.461956 81.711426 
L 171.092106 84.55233 
L 169.722255 84.746028 
L 168.352405 84.608942 
L 166.982555 87.232995 
L 165.612704 82.99977 
L 164.242854 77.487297 
L 162.873003 77.663109 
L 161.503153 80.339627 
L 160.133303 84.24729 
L 158.763452 86.531881 
L 157.393602 84.178162 
L 156.023751 75.968831 
L 154.653901 84.01559 
L 153.284051 93.182259 
L 151.9142 95.669935 
L 150.54435 91.923527 
L 149.174499 95.620896 
L 147.804649 93.542663 
L 146.434799 94.624566 
L 145.064948 106.098218 
L 143.695098 101.631056 
L 142.325247 98.727167 
L 140.955397 99.898027 
L 139.585547 99.733038 
L 138.215696 97.821232 
L 136.845846 100.833896 
L 135.475995 102.672377 
L 134.106145 99.240225 
L 132.736295 96.568588 
L 131.366444 94.69607 
L 129.996594 92.058589 
L 128.626743 92.483778 
L 127.256893 92.795275 
L 125.887043 96.850798 
L 124.517192 101.105322 
L 123.147342 101.739639 
L 121.777491 108.929689 
L 120.407641 119.904862 
L 119.037791 123.290735 
L 117.66794 121.485401 
L 116.29809 117.917642 
L 114.928239 114.453281 
L 113.558389 102.846159 
L 112.188539 90.38667 
L 110.818688 71.74675 
L 109.448838 64.378018 
L 108.078987 59.558499 
L 106.709137 58.478277 
L 105.339287 59.298083 
L 103.969436 61.735852 
L 102.599586 62.24796 
L 101.229735 61.374881 
L 99.859885 62.884709 
L 98.490035 63.510643 
L 97.120184 68.393547 
L 95.750334 71.820184 
L 94.380483 69.907555 
L 93.010633 72.563316 
L 91.640783 71.430702 
L 90.270932 72.751825 
L 88.901082 74.700302 
L 87.531231 80.333969 
L 86.161381 84.728004 
L 84.79153 91.677928 
L 83.42168 90.394415 
L 82.05183 90.464966 
L 80.681979 90.984833 
L 79.312129 90.598809 
L 77.942278 87.40556 
L 76.572428 89.56782 
L 75.202578 90.044669 
L 73.832727 87.715541 
z
" style="fill:#008000;fill-opacity:0.4;"/>
   </g>
   <g id="matplotlib.axis_1">
    <g id="xtick_1">
     <g id="line2d_1">
      <defs>
       <path d="M 0 0 
L 0 3.5 
" id="mbb56976bac" style="stroke:#000000;stroke-width:0.8;"/>
      </defs>
      <g>
       <use style="stroke:#000000;stroke-width:0.8;" x="73.832727" xlink:href="#mbb56976bac" y="307.584"/>
      </g>
     </g>
     <g id="text_1">
      <!-- 0.0 -->
      <defs>
       <path d="M 31.78125 66.40625 
Q 24.171875 66.40625 20.328125 58.90625 
Q 16.5 51.421875 16.5 36.375 
Q 16.5 21.390625 20.328125 13.890625 
Q 24.171875 6.390625 31.78125 6.390625 
Q 39.453125 6.390625 43.28125 13.890625 
Q 47.125 21.390625 47.125 36.375 
Q 47.125 51.421875 43.28125 58.90625 
Q 39.453125 66.40625 31.78125 66.40625 
M 31.78125 74.21875 
Q 44.046875 74.21875 50.515625 64.515625 
Q 56.984375 54.828125 56.984375 36.375 
Q 56.984375 17.96875 50.515625 8.265625 
Q 44.046875 -1.421875 31.78125 -1.421875 
Q 19.53125 -1.421875 13.0625 8.265625 
Q 6.59375 17.96875 6.59375 36.375 
Q 6.59375 54.828125 13.0625 64.515625 
Q 19.53125 74.21875 31.78125 74.21875 
" id="DejaVuSans-30"/>
       <path d="M 10.6875 12.40625 
L 21 12.40625 
L 21 0 
L 10.6875 0 
z
" id="DejaVuSans-2e"/>
      </defs>
      <g transform="translate(65.881165 322.182437)scale(0.1 -0.1)">
       <use xlink:href="#DejaVuSans-30"/>
       <use x="63.623047" xlink:href="#DejaVuSans-2e"/>
       <use x="95.410156" xlink:href="#DejaVuSans-30"/>
      </g>
     </g>
    </g>
    <g id="xtick_2">
     <g id="line2d_2">
      <g>
       <use style="stroke:#000000;stroke-width:0.8;" x="138.763636" xlink:href="#mbb56976bac" y="307.584"/>
      </g>
     </g>
     <g id="text_2">
      <!-- 0.2 -->
      <defs>
       <path d="M 19.1875 8.296875 
L 53.609375 8.296875 
L 53.609375 0 
L 7.328125 0 
L 7.328125 8.296875 
Q 12.9375 14.109375 22.625 23.890625 
Q 32.328125 33.6875 34.8125 36.53125 
Q 39.546875 41.84375 41.421875 45.53125 
Q 43.3125 49.21875 43.3125 52.78125 
Q 43.3125 58.59375 39.234375 62.25 
Q 35.15625 65.921875 28.609375 65.921875 
Q 23.96875 65.921875 18.8125 64.3125 
Q 13.671875 62.703125 7.8125 59.421875 
L 7.8125 69.390625 
Q 13.765625 71.78125 18.9375 73 
Q 24.125 74.21875 28.421875 74.21875 
Q 39.75 74.21875 46.484375 68.546875 
Q 53.21875 62.890625 53.21875 53.421875 
Q 53.21875 48.921875 51.53125 44.890625 
Q 49.859375 40.875 45.40625 35.40625 
Q 44.1875 33.984375 37.640625 27.21875 
Q 31.109375 20.453125 19.1875 8.296875 
" id="DejaVuSans-32"/>
      </defs>
      <g transform="translate(130.812074 322.182437)scale(0.1 -0.1)">
       <use xlink:href="#DejaVuSans-30"/>
       <use x="63.623047" xlink:href="#DejaVuSans-2e"/>
       <use x="95.410156" xlink:href="#DejaVuSans-32"/>
      </g>
     </g>
    </g>
    <g id="xtick_3">
     <g id="line2d_3">
      <g>
       <use style="stroke:#000000;stroke-width:0.8;" x="203.694545" xlink:href="#mbb56976bac" y="307.584"/>
      </g>
     </g>
     <g id="text_3">
      <!-- 0.4 -->
      <defs>
       <path d="M 37.796875 64.3125 
L 12.890625 25.390625 
L 37.796875 25.390625 
z
M 35.203125 72.90625 
L 47.609375 72.90625 
L 47.609375 25.390625 
L 58.015625 25.390625 
L 58.015625 17.1875 
L 47.609375 17.1875 
L 47.609375 0 
L 37.796875 0 
L 37.796875 17.1875 
L 4.890625 17.1875 
L 4.890625 26.703125 
z
" id="DejaVuSans-34"/>
      </defs>
      <g transform="translate(195.742983 322.182437)scale(0.1 -0.1)">
       <use xlink:href="#DejaVuSans-30"/>
       <use x="63.623047" xlink:href="#DejaVuSans-2e"/>
       <use x="95.410156" xlink:href="#DejaVuSans-34"/>
      </g>
     </g>
    </g>
    <g id="xtick_4">
     <g id="line2d_4">
      <g>
       <use style="stroke:#000000;stroke-width:0.8;" x="268.625455" xlink:href="#mbb56976bac" y="307.584"/>
      </g>
     </g>
     <g id="text_4">
      <!-- 0.6 -->
      <defs>
       <path d="M 33.015625 40.375 
Q 26.375 40.375 22.484375 35.828125 
Q 18.609375 31.296875 18.609375 23.390625 
Q 18.609375 15.53125 22.484375 10.953125 
Q 26.375 6.390625 33.015625 6.390625 
Q 39.65625 6.390625 43.53125 10.953125 
Q 47.40625 15.53125 47.40625 23.390625 
Q 47.40625 31.296875 43.53125 35.828125 
Q 39.65625 40.375 33.015625 40.375 
M 52.59375 71.296875 
L 52.59375 62.3125 
Q 48.875 64.0625 45.09375 64.984375 
Q 41.3125 65.921875 37.59375 65.921875 
Q 27.828125 65.921875 22.671875 59.328125 
Q 17.53125 52.734375 16.796875 39.40625 
Q 19.671875 43.65625 24.015625 45.921875 
Q 28.375 48.1875 33.59375 48.1875 
Q 44.578125 48.1875 50.953125 41.515625 
Q 57.328125 34.859375 57.328125 23.390625 
Q 57.328125 12.15625 50.6875 5.359375 
Q 44.046875 -1.421875 33.015625 -1.421875 
Q 20.359375 -1.421875 13.671875 8.265625 
Q 6.984375 17.96875 6.984375 36.375 
Q 6.984375 53.65625 15.1875 63.9375 
Q 23.390625 74.21875 37.203125 74.21875 
Q 40.921875 74.21875 44.703125 73.484375 
Q 48.484375 72.75 52.59375 71.296875 
" id="DejaVuSans-36"/>
      </defs>
      <g transform="translate(260.673892 322.182437)scale(0.1 -0.1)">
       <use xlink:href="#DejaVuSans-30"/>
       <use x="63.623047" xlink:href="#DejaVuSans-2e"/>
       <use x="95.410156" xlink:href="#DejaVuSans-36"/>
      </g>
     </g>
    </g>
    <g id="xtick_5">
     <g id="line2d_5">
      <g>
       <use style="stroke:#000000;stroke-width:0.8;" x="333.556364" xlink:href="#mbb56976bac" y="307.584"/>
      </g>
     </g>
     <g id="text_5">
      <!-- 0.8 -->
      <defs>
       <path d="M 31.78125 34.625 
Q 24.75 34.625 20.71875 30.859375 
Q 16.703125 27.09375 16.703125 20.515625 
Q 16.703125 13.921875 20.71875 10.15625 
Q 24.75 6.390625 31.78125 6.390625 
Q 38.8125 6.390625 42.859375 10.171875 
Q 46.921875 13.96875 46.921875 20.515625 
Q 46.921875 27.09375 42.890625 30.859375 
Q 38.875 34.625 31.78125 34.625 
M 21.921875 38.8125 
Q 15.578125 40.375 12.03125 44.71875 
Q 8.5 49.078125 8.5 55.328125 
Q 8.5 64.0625 14.71875 69.140625 
Q 20.953125 74.21875 31.78125 74.21875 
Q 42.671875 74.21875 48.875 69.140625 
Q 55.078125 64.0625 55.078125 55.328125 
Q 55.078125 49.078125 51.53125 44.71875 
Q 48 40.375 41.703125 38.8125 
Q 48.828125 37.15625 52.796875 32.3125 
Q 56.78125 27.484375 56.78125 20.515625 
Q 56.78125 9.90625 50.3125 4.234375 
Q 43.84375 -1.421875 31.78125 -1.421875 
Q 19.734375 -1.421875 13.25 4.234375 
Q 6.78125 9.90625 6.78125 20.515625 
Q 6.78125 27.484375 10.78125 32.3125 
Q 14.796875 37.15625 21.921875 38.8125 
M 18.3125 54.390625 
Q 18.3125 48.734375 21.84375 45.5625 
Q 25.390625 42.390625 31.78125 42.390625 
Q 38.140625 42.390625 41.71875 45.5625 
Q 45.3125 48.734375 45.3125 54.390625 
Q 45.3125 60.0625 41.71875 63.234375 
Q 38.140625 66.40625 31.78125 66.40625 
Q 25.390625 66.40625 21.84375 63.234375 
Q 18.3125 60.0625 18.3125 54.390625 
" id="DejaVuSans-38"/>
      </defs>
      <g transform="translate(325.604801 322.182437)scale(0.1 -0.1)">
       <use xlink:href="#DejaVuSans-30"/>
       <use x="63.623047" xlink:href="#DejaVuSans-2e"/>
       <use x="95.410156" xlink:href="#DejaVuSans-38"/>
      </g>
     </g>
    </g>
    <g id="xtick_6">
     <g id="line2d_6">
      <g>
       <use style="stroke:#000000;stroke-width:0.8;" x="398.487273" xlink:href="#mbb56976bac" y="307.584"/>
      </g>
     </g>
     <g id="text_6">
      <!-- 1.0 -->
      <defs>
       <path d="M 12.40625 8.296875 
L 28.515625 8.296875 
L 28.515625 63.921875 
L 10.984375 60.40625 
L 10.984375 69.390625 
L 28.421875 72.90625 
L 38.28125 72.90625 
L 38.28125 8.296875 
L 54.390625 8.296875 
L 54.390625 0 
L 12.40625 0 
z
" id="DejaVuSans-31"/>
      </defs>
      <g transform="translate(390.53571 322.182437)scale(0.1 -0.1)">
       <use xlink:href="#DejaVuSans-31"/>
       <use x="63.623047" xlink:href="#DejaVuSans-2e"/>
       <use x="95.410156" xlink:href="#DejaVuSans-30"/>
      </g>
     </g>
    </g>
   </g>
   <g id="matplotlib.axis_2">
    <g id="ytick_1">
     <g id="line2d_7">
      <defs>
       <path d="M 0 0 
L -3.5 0 
" id="mcc55223d02" style="stroke:#000000;stroke-width:0.8;"/>
      </defs>
      <g>
       <use style="stroke:#000000;stroke-width:0.8;" x="57.6" xlink:href="#mcc55223d02" y="275.861362"/>
      </g>
     </g>
     <g id="text_7">
      <!-- 0.3 -->
      <defs>
       <path d="M 40.578125 39.3125 
Q 47.65625 37.796875 51.625 33 
Q 55.609375 28.21875 55.609375 21.1875 
Q 55.609375 10.40625 48.1875 4.484375 
Q 40.765625 -1.421875 27.09375 -1.421875 
Q 22.515625 -1.421875 17.65625 -0.515625 
Q 12.796875 0.390625 7.625 2.203125 
L 7.625 11.71875 
Q 11.71875 9.328125 16.59375 8.109375 
Q 21.484375 6.890625 26.8125 6.890625 
Q 36.078125 6.890625 40.9375 10.546875 
Q 45.796875 14.203125 45.796875 21.1875 
Q 45.796875 27.640625 41.28125 31.265625 
Q 36.765625 34.90625 28.71875 34.90625 
L 20.21875 34.90625 
L 20.21875 43.015625 
L 29.109375 43.015625 
Q 36.375 43.015625 40.234375 45.921875 
Q 44.09375 48.828125 44.09375 54.296875 
Q 44.09375 59.90625 40.109375 62.90625 
Q 36.140625 65.921875 28.71875 65.921875 
Q 24.65625 65.921875 20.015625 65.03125 
Q 15.375 64.15625 9.8125 62.3125 
L 9.8125 71.09375 
Q 15.4375 72.65625 20.34375 73.4375 
Q 25.25 74.21875 29.59375 74.21875 
Q 40.828125 74.21875 47.359375 69.109375 
Q 53.90625 64.015625 53.90625 55.328125 
Q 53.90625 49.265625 50.4375 45.09375 
Q 46.96875 40.921875 40.578125 39.3125 
" id="DejaVuSans-33"/>
      </defs>
      <g transform="translate(34.696875 279.660581)scale(0.1 -0.1)">
       <use xlink:href="#DejaVuSans-30"/>
       <use x="63.623047" xlink:href="#DejaVuSans-2e"/>
       <use x="95.410156" xlink:href="#DejaVuSans-33"/>
      </g>
     </g>
    </g>
    <g id="ytick_2">
     <g id="line2d_8">
      <g>
       <use style="stroke:#000000;stroke-width:0.8;" x="57.6" xlink:href="#mcc55223d02" y="242.710066"/>
      </g>
     </g>
     <g id="text_8">
      <!-- 0.4 -->
      <g transform="translate(34.696875 246.509285)scale(0.1 -0.1)">
       <use xlink:href="#DejaVuSans-30"/>
       <use x="63.623047" xlink:href="#DejaVuSans-2e"/>
       <use x="95.410156" xlink:href="#DejaVuSans-34"/>
      </g>
     </g>
    </g>
    <g id="ytick_3">
     <g id="line2d_9">
      <g>
       <use style="stroke:#000000;stroke-width:0.8;" x="57.6" xlink:href="#mcc55223d02" y="209.558771"/>
      </g>
     </g>
     <g id="text_9">
      <!-- 0.5 -->
      <defs>
       <path d="M 10.796875 72.90625 
L 49.515625 72.90625 
L 49.515625 64.59375 
L 19.828125 64.59375 
L 19.828125 46.734375 
Q 21.96875 47.46875 24.109375 47.828125 
Q 26.265625 48.1875 28.421875 48.1875 
Q 40.625 48.1875 47.75 41.5 
Q 54.890625 34.8125 54.890625 23.390625 
Q 54.890625 11.625 47.5625 5.09375 
Q 40.234375 -1.421875 26.90625 -1.421875 
Q 22.3125 -1.421875 17.546875 -0.640625 
Q 12.796875 0.140625 7.71875 1.703125 
L 7.71875 11.625 
Q 12.109375 9.234375 16.796875 8.0625 
Q 21.484375 6.890625 26.703125 6.890625 
Q 35.15625 6.890625 40.078125 11.328125 
Q 45.015625 15.765625 45.015625 23.390625 
Q 45.015625 31 40.078125 35.4375 
Q 35.15625 39.890625 26.703125 39.890625 
Q 22.75 39.890625 18.8125 39.015625 
Q 14.890625 38.140625 10.796875 36.28125 
z
" id="DejaVuSans-35"/>
      </defs>
      <g transform="translate(34.696875 213.357989)scale(0.1 -0.1)">
       <use xlink:href="#DejaVuSans-30"/>
       <use x="63.623047" xlink:href="#DejaVuSans-2e"/>
       <use x="95.410156" xlink:href="#DejaVuSans-35"/>
      </g>
     </g>
    </g>
    <g id="ytick_4">
     <g id="line2d_10">
      <g>
       <use style="stroke:#000000;stroke-width:0.8;" x="57.6" xlink:href="#mcc55223d02" y="176.407475"/>
      </g>
     </g>
     <g id="text_10">
      <!-- 0.6 -->
      <g transform="translate(34.696875 180.206694)scale(0.1 -0.1)">
       <use xlink:href="#DejaVuSans-30"/>
       <use x="63.623047" xlink:href="#DejaVuSans-2e"/>
       <use x="95.410156" xlink:href="#DejaVuSans-36"/>
      </g>
     </g>
    </g>
    <g id="ytick_5">
     <g id="line2d_11">
      <g>
       <use style="stroke:#000000;stroke-width:0.8;" x="57.6" xlink:href="#mcc55223d02" y="143.256179"/>
      </g>
     </g>
     <g id="text_11">
      <!-- 0.7 -->
      <defs>
       <path d="M 8.203125 72.90625 
L 55.078125 72.90625 
L 55.078125 68.703125 
L 28.609375 0 
L 18.3125 0 
L 43.21875 64.59375 
L 8.203125 64.59375 
z
" id="DejaVuSans-37"/>
      </defs>
      <g transform="translate(34.696875 147.055398)scale(0.1 -0.1)">
       <use xlink:href="#DejaVuSans-30"/>
       <use x="63.623047" xlink:href="#DejaVuSans-2e"/>
       <use x="95.410156" xlink:href="#DejaVuSans-37"/>
      </g>
     </g>
    </g>
    <g id="ytick_6">
     <g id="line2d_12">
      <g>
       <use style="stroke:#000000;stroke-width:0.8;" x="57.6" xlink:href="#mcc55223d02" y="110.104883"/>
      </g>
     </g>
     <g id="text_12">
      <!-- 0.8 -->
      <g transform="translate(34.696875 113.904102)scale(0.1 -0.1)">
       <use xlink:href="#DejaVuSans-30"/>
       <use x="63.623047" xlink:href="#DejaVuSans-2e"/>
       <use x="95.410156" xlink:href="#DejaVuSans-38"/>
      </g>
     </g>
    </g>
    <g id="ytick_7">
     <g id="line2d_13">
      <g>
       <use style="stroke:#000000;stroke-width:0.8;" x="57.6" xlink:href="#mcc55223d02" y="76.953587"/>
      </g>
     </g>
     <g id="text_13">
      <!-- 0.9 -->
      <defs>
       <path d="M 10.984375 1.515625 
L 10.984375 10.5 
Q 14.703125 8.734375 18.5 7.8125 
Q 22.3125 6.890625 25.984375 6.890625 
Q 35.75 6.890625 40.890625 13.453125 
Q 46.046875 20.015625 46.78125 33.40625 
Q 43.953125 29.203125 39.59375 26.953125 
Q 35.25 24.703125 29.984375 24.703125 
Q 19.046875 24.703125 12.671875 31.3125 
Q 6.296875 37.9375 6.296875 49.421875 
Q 6.296875 60.640625 12.9375 67.421875 
Q 19.578125 74.21875 30.609375 74.21875 
Q 43.265625 74.21875 49.921875 64.515625 
Q 56.59375 54.828125 56.59375 36.375 
Q 56.59375 19.140625 48.40625 8.859375 
Q 40.234375 -1.421875 26.421875 -1.421875 
Q 22.703125 -1.421875 18.890625 -0.6875 
Q 15.09375 0.046875 10.984375 1.515625 
M 30.609375 32.421875 
Q 37.25 32.421875 41.125 36.953125 
Q 45.015625 41.5 45.015625 49.421875 
Q 45.015625 57.28125 41.125 61.84375 
Q 37.25 66.40625 30.609375 66.40625 
Q 23.96875 66.40625 20.09375 61.84375 
Q 16.21875 57.28125 16.21875 49.421875 
Q 16.21875 41.5 20.09375 36.953125 
Q 23.96875 32.421875 30.609375 32.421875 
" id="DejaVuSans-39"/>
      </defs>
      <g transform="translate(34.696875 80.752806)scale(0.1 -0.1)">
       <use xlink:href="#DejaVuSans-30"/>
       <use x="63.623047" xlink:href="#DejaVuSans-2e"/>
       <use x="95.410156" xlink:href="#DejaVuSans-39"/>
      </g>
     </g>
    </g>
    <g id="ytick_8">
     <g id="line2d_14">
      <g>
       <use style="stroke:#000000;stroke-width:0.8;" x="57.6" xlink:href="#mcc55223d02" y="43.802291"/>
      </g>
     </g>
     <g id="text_14">
      <!-- 1.0 -->
      <g transform="translate(34.696875 47.60151)scale(0.1 -0.1)">
       <use xlink:href="#DejaVuSans-31"/>
       <use x="63.623047" xlink:href="#DejaVuSans-2e"/>
       <use x="95.410156" xlink:href="#DejaVuSans-30"/>
      </g>
     </g>
    </g>
   </g>
   <g id="line2d_15">
    <path clip-path="url(#pf51e8dde43)" d="M 73.832727 92.801233 
L 75.202578 93.914785 
L 76.572428 86.119589 
L 77.942278 99.653937 
L 79.312129 92.201526 
L 80.681979 94.771414 
L 82.05183 90.745521 
L 83.42168 96.313281 
L 84.79153 86.633434 
L 86.161381 82.949994 
L 87.531231 76.439742 
L 88.901082 72.927362 
L 90.270932 66.845757 
L 91.640783 68.815607 
L 93.010633 69.415645 
L 94.380483 73.784323 
L 95.750334 67.445132 
L 97.120184 65.217697 
L 98.490035 56.137888 
L 99.859885 56.651734 
L 101.229735 53.910453 
L 102.599586 61.105942 
L 103.969436 54.852944 
L 105.339287 53.568 
L 106.709137 53.910453 
L 108.078987 59.478545 
L 109.448838 72.927362 
L 110.818688 75.583113 
L 112.188539 110.70459 
L 113.558389 113.274478 
L 116.29809 128.693478 
L 117.66794 130.749521 
L 119.037791 122.011834 
L 120.407641 114.645284 
L 121.777491 101.795842 
L 123.147342 105.907597 
L 124.517192 99.739799 
L 125.887043 96.827126 
L 127.256893 94.942806 
L 128.626743 95.542182 
L 129.996594 96.741596 
L 131.366444 99.054562 
L 132.736295 100.253975 
L 134.106145 107.449464 
L 135.475995 105.907597 
L 138.215696 96.056358 
L 139.585547 105.22236 
L 140.955397 103.080786 
L 142.325247 105.393752 
L 143.695098 104.108808 
L 145.064948 108.905469 
L 146.434799 98.02654 
L 147.804649 98.368993 
L 149.174499 96.570203 
L 150.54435 93.743392 
L 151.9142 98.197932 
L 153.284051 91.601819 
L 154.653901 79.523476 
L 156.023751 81.493989 
L 157.393602 91.087974 
L 158.763452 82.693071 
L 160.133303 82.435817 
L 161.503153 80.89395 
L 162.873003 72.927362 
L 165.612704 85.519882 
L 166.982555 88.689477 
L 168.352405 86.976218 
L 169.722255 89.460577 
L 171.092106 86.804826 
L 172.461956 87.147611 
L 173.831807 78.153001 
L 175.201657 77.896078 
L 176.571507 79.009631 
L 177.941358 85.091567 
L 179.311208 95.970828 
L 180.681059 111.475358 
L 182.050909 110.961512 
L 183.420759 110.276275 
L 184.79061 124.23927 
L 186.16046 105.736205 
L 187.530311 110.70459 
L 188.900161 135.289591 
L 190.270012 151.394159 
L 191.639862 149.509508 
L 193.009712 159.960454 
L 194.379563 158.76104 
L 195.749413 160.302907 
L 197.119264 158.418587 
L 198.489114 152.764634 
L 199.858964 148.310425 
L 201.228815 146.425774 
L 202.598665 146.425774 
L 203.968516 147.025481 
L 205.338366 153.878186 
L 206.708216 148.481486 
L 208.078067 173.066819 
L 209.447917 186.344576 
L 210.817768 182.917726 
L 212.187618 183.431903 
L 213.557468 174.180371 
L 216.297169 160.302907 
L 217.66702 159.960454 
L 219.03687 172.724034 
L 220.40672 179.491208 
L 221.776571 181.975566 
L 223.146421 186.258714 
L 224.516272 189.342447 
L 225.886122 188.314426 
L 227.255972 179.405678 
L 228.625823 185.230692 
L 229.995673 184.20267 
L 231.365524 183.774687 
L 232.735374 186.858421 
L 234.105224 180.51923 
L 235.475075 186.601498 
L 236.844925 187.200874 
L 238.214776 179.662932 
L 239.584626 184.374063 
L 240.954476 182.660804 
L 242.324327 178.805971 
L 243.694177 169.811361 
L 245.064028 163.30111 
L 246.433878 167.927042 
L 247.803728 168.269495 
L 249.173579 207.160274 
L 250.543429 229.175387 
L 251.91328 219.067225 
L 253.28313 206.646429 
L 254.65298 212.300051 
L 256.022831 218.638911 
L 257.392681 235.857031 
L 258.762532 246.479369 
L 260.132382 248.363688 
L 261.502232 251.276361 
L 262.872083 259.928187 
L 264.241933 267.723382 
L 265.611784 259.071557 
L 266.981634 260.784816 
L 268.351484 257.958005 
L 269.721335 247.678451 
L 271.091185 241.682045 
L 272.461036 252.475444 
L 273.830886 244.85164 
L 275.200736 245.023032 
L 276.570587 240.996808 
L 277.940437 244.508856 
L 279.310288 235.429047 
L 280.680138 218.46785 
L 282.049988 212.899758 
L 283.419839 224.03561 
L 284.789689 217.610889 
L 286.15954 207.245805 
L 287.52939 218.296458 
L 288.899241 217.867811 
L 290.269091 220.866346 
L 291.638941 215.726569 
L 293.008792 213.156681 
L 294.378642 198.679841 
L 295.748493 202.106359 
L 297.118343 204.675916 
L 298.488193 190.027685 
L 301.227894 180.4337 
L 302.597745 181.547252 
L 303.967595 193.968048 
L 305.337445 184.20267 
L 306.707296 188.828602 
L 308.077146 191.141237 
L 309.446997 188.571348 
L 310.816847 185.487615 
L 312.186697 186.00146 
L 313.556548 182.232489 
L 314.926398 188.74274 
L 316.296249 226.263046 
L 317.666099 223.693157 
L 319.035949 224.207002 
L 320.4058 221.894036 
L 321.77565 222.15129 
L 323.145501 222.236821 
L 324.515351 226.006123 
L 325.885201 224.463925 
L 327.255052 235.343186 
L 328.624902 231.916668 
L 329.994753 229.261249 
L 331.364603 227.719382 
L 332.734453 228.832934 
L 334.104304 222.493743 
L 335.474154 220.609092 
L 336.844005 225.406416 
L 338.213855 225.235024 
L 339.583705 222.750666 
L 340.953556 224.635317 
L 342.323406 231.316961 
L 343.693257 233.116081 
L 345.063107 230.032016 
L 346.432957 220.095247 
L 347.802808 228.404288 
L 349.172658 210.32987 
L 350.542509 219.666932 
L 351.912359 216.925983 
L 353.282209 214.527155 
L 354.65206 209.644301 
L 356.02191 207.759981 
L 357.391761 204.84764 
L 358.761611 204.333463 
L 360.131461 198.765372 
L 361.501312 250.591124 
L 362.871162 234.572086 
L 364.241013 237.056445 
L 365.610863 229.518171 
L 366.980713 226.434438 
L 368.350564 225.748869 
L 369.720414 214.441625 
L 371.090265 220.780816 
L 372.460115 225.063632 
L 373.829965 214.441625 
L 375.199816 209.901555 
L 376.569666 212.814228 
L 377.939517 206.046722 
L 379.309367 209.730163 
L 380.679217 209.387378 
L 382.049068 220.009717 
L 383.418918 223.350373 
L 384.788769 225.235024 
L 386.158619 233.886849 
L 387.52847 253.588996 
L 388.89832 268.837266 
L 390.26817 280.058648 
L 391.638021 268.151697 
L 393.007871 272.263452 
L 394.377722 271.664077 
L 395.747572 282.457476 
L 397.117422 291.709008 
L 398.487273 275.946893 
L 398.487273 275.946893 
" style="fill:none;stroke:#1f77b4;stroke-linecap:square;stroke-width:1.5;"/>
   </g>
   <g id="line2d_16">
    <path clip-path="url(#pf51e8dde43)" d="M 73.832727 89.756348 
L 75.202578 92.035389 
L 76.572428 91.475098 
L 77.942278 89.769531 
L 79.312129 93.760237 
L 82.05183 92.402479 
L 83.42168 92.281025 
L 84.79153 93.837031 
L 86.161381 87.635582 
L 87.531231 83.011491 
L 88.901082 77.971853 
L 90.270932 75.932687 
L 91.640783 74.88704 
L 93.010633 75.702804 
L 94.380483 73.30684 
L 95.750334 74.862283 
L 97.120184 72.105235 
L 98.490035 67.514194 
L 99.859885 67.226673 
L 101.229735 65.592398 
L 102.599586 66.646729 
L 103.969436 65.808885 
L 105.339287 63.914108 
L 106.709137 63.100914 
L 108.078987 64.162627 
L 109.448838 68.409532 
L 110.818688 74.673288 
L 112.188539 99.065521 
L 114.928239 124.436698 
L 116.29809 121.747567 
L 117.66794 129.372509 
L 119.037791 127.071231 
L 120.407641 122.738566 
L 121.777491 111.755714 
L 123.147342 104.197438 
L 124.517192 104.023039 
L 125.887043 99.000812 
L 127.256893 94.796567 
L 129.996594 93.969127 
L 131.366444 96.960728 
L 132.736295 98.859359 
L 134.106145 101.980239 
L 135.475995 106.621077 
L 138.215696 99.862728 
L 139.585547 102.171092 
L 140.955397 103.075661 
L 142.325247 100.895721 
L 143.695098 105.039782 
L 145.064948 110.083751 
L 146.434799 97.556014 
L 147.804649 95.705917 
L 149.174499 97.68062 
L 150.54435 93.94194 
L 151.9142 98.021851 
L 153.284051 95.303431 
L 154.653901 86.75719 
L 156.023751 79.417681 
L 157.393602 86.301891 
L 158.763452 88.534888 
L 160.133303 86.747027 
L 161.503153 83.024442 
L 162.873003 80.332449 
L 164.242854 80.460409 
L 165.612704 85.103342 
L 166.982555 89.25055 
L 168.352405 86.763666 
L 169.722255 86.768079 
L 171.092106 86.575474 
L 172.461956 84.098982 
L 173.831807 85.087416 
L 175.201657 81.172978 
L 176.571507 79.748547 
L 177.941358 79.284834 
L 179.311208 85.003398 
L 180.681059 73.543358 
L 182.050909 106.4691 
L 183.420759 114.720411 
L 184.79061 111.827001 
L 186.16046 115.03497 
L 187.530311 98.725794 
L 188.900161 117.354743 
L 190.270012 145.359709 
L 191.639862 154.947367 
L 193.009712 153.064677 
L 194.379563 159.021416 
L 195.749413 162.477342 
L 197.119264 164.551726 
L 198.489114 158.615315 
L 199.858964 148.117273 
L 201.228815 149.019862 
L 202.598665 153.569443 
L 203.968516 151.03456 
L 205.338366 149.434244 
L 206.708216 150.80409 
L 208.078067 172.012572 
L 209.447917 179.517919 
L 210.817768 188.054027 
L 212.187618 184.683892 
L 213.557468 179.912919 
L 214.927319 172.588758 
L 216.297169 167.870726 
L 217.66702 158.333754 
L 219.03687 167.053353 
L 220.40672 177.180513 
L 221.776571 179.070496 
L 223.146421 188.655166 
L 224.516272 189.499673 
L 225.886122 189.287026 
L 227.255972 187.606376 
L 228.625823 186.403079 
L 229.995673 186.883886 
L 231.365524 190.993314 
L 232.735374 186.621882 
L 234.105224 178.888557 
L 235.475075 187.109692 
L 236.844925 187.848712 
L 238.214776 189.348602 
L 239.584626 186.096948 
L 240.954476 179.654283 
L 242.324327 181.995724 
L 243.694177 181.548121 
L 245.064028 168.579803 
L 246.433878 163.667118 
L 247.803728 168.207141 
L 249.173579 174.752518 
L 250.543429 223.133508 
L 251.91328 228.001867 
L 253.28313 206.954223 
L 254.65298 214.798526 
L 256.022831 212.103241 
L 258.762532 238.520386 
L 260.132382 249.713491 
L 261.502232 251.015412 
L 262.872083 255.335731 
L 264.241933 263.38034 
L 265.611784 265.61956 
L 266.981634 259.050564 
L 268.351484 257.10466 
L 271.091185 240.529661 
L 272.461036 249.817888 
L 273.830886 246.726543 
L 275.200736 246.410995 
L 276.570587 241.006604 
L 277.940437 242.122009 
L 279.310288 243.088579 
L 280.680138 234.197144 
L 282.049988 221.066172 
L 283.419839 218.742124 
L 284.789689 212.339999 
L 286.15954 212.300759 
L 287.52939 208.925238 
L 288.899241 215.952622 
L 290.269091 216.157976 
L 291.638941 220.376425 
L 293.008792 217.239862 
L 294.378642 204.946365 
L 295.748493 195.459417 
L 297.118343 202.670903 
L 298.488193 197.866707 
L 299.858044 185.981709 
L 301.227894 187.44276 
L 302.597745 191.331032 
L 303.967595 192.62213 
L 305.337445 191.548302 
L 306.707296 192.966021 
L 308.077146 187.452352 
L 309.446997 191.844782 
L 310.816847 189.127097 
L 312.186697 185.391249 
L 313.556548 183.697606 
L 314.926398 186.476017 
L 317.666099 223.008199 
L 319.035949 222.268685 
L 320.4058 224.322773 
L 321.77565 223.103422 
L 323.145501 226.053601 
L 324.515351 230.029271 
L 325.885201 225.391474 
L 327.255052 226.30987 
L 328.624902 236.140526 
L 329.994753 224.90551 
L 331.364603 231.480081 
L 332.734453 229.861485 
L 334.104304 224.367195 
L 335.474154 223.7194 
L 336.844005 220.403476 
L 338.213855 226.272782 
L 339.583705 219.161197 
L 340.953556 226.75974 
L 342.323406 227.28631 
L 343.693257 230.175227 
L 345.063107 230.499503 
L 346.432957 227.769138 
L 347.802808 229.773212 
L 349.172658 218.460913 
L 350.542509 210.497522 
L 351.912359 217.043667 
L 353.282209 217.173538 
L 354.65206 215.440239 
L 356.02191 206.967762 
L 357.391761 207.241804 
L 358.761611 205.145722 
L 360.131461 201.633254 
L 361.501312 197.244653 
L 362.871162 245.026067 
L 364.241013 230.781195 
L 365.610863 238.469685 
L 366.980713 229.653009 
L 368.350564 228.007852 
L 369.720414 219.88339 
L 371.090265 220.661674 
L 372.460115 219.595336 
L 373.829965 220.030018 
L 375.199816 218.253146 
L 376.569666 211.253298 
L 377.939517 221.090133 
L 379.309367 213.217509 
L 380.679217 203.155676 
L 382.049068 219.013 
L 383.418918 217.883415 
L 384.788769 233.281727 
L 386.158619 221.56227 
L 387.52847 244.182614 
L 388.89832 257.980248 
L 390.26817 274.880429 
L 391.638021 261.701303 
L 393.007871 279.571778 
L 394.377722 268.970764 
L 395.747572 273.483706 
L 398.487273 289.389983 
L 398.487273 289.389983 
" style="fill:none;stroke:#ff7f0e;stroke-linecap:square;stroke-width:1.5;"/>
   </g>
   <g id="line2d_17">
    <path clip-path="url(#pf51e8dde43)" d="M 73.832727 91.172438 
L 75.202578 93.426706 
L 76.572428 92.893593 
L 77.942278 91.877553 
L 79.312129 95.8661 
L 80.681979 94.754519 
L 82.05183 93.799734 
L 83.42168 93.731444 
L 84.79153 95.342273 
L 86.161381 91.734909 
L 87.531231 86.612549 
L 88.901082 83.109748 
L 90.270932 80.213561 
L 91.640783 79.184458 
L 93.010633 78.819875 
L 94.380483 78.02191 
L 95.750334 78.021427 
L 97.120184 78.159606 
L 98.490035 74.395286 
L 99.859885 72.925348 
L 101.229735 71.818942 
L 102.599586 71.592711 
L 103.969436 71.568257 
L 105.339287 70.712908 
L 106.709137 69.644033 
L 108.078987 69.748793 
L 109.448838 72.383803 
L 110.818688 77.145685 
L 112.188539 102.835872 
L 113.558389 116.852693 
L 114.928239 128.219118 
L 116.29809 124.20526 
L 117.66794 133.472367 
L 119.037791 129.839939 
L 120.407641 124.928986 
L 121.777491 114.378419 
L 123.147342 106.366259 
L 124.517192 105.926813 
L 125.887043 100.84568 
L 127.256893 96.498692 
L 128.626743 95.765557 
L 129.996594 95.369876 
L 131.366444 98.536049 
L 132.736295 100.44726 
L 134.106145 103.780598 
L 135.475995 109.002498 
L 136.845846 104.843392 
L 138.215696 101.432327 
L 139.585547 103.81881 
L 140.955397 105.098213 
L 142.325247 102.485369 
L 143.695098 107.189891 
L 145.064948 112.342296 
L 146.434799 101.558744 
L 147.804649 97.49253 
L 149.174499 99.172449 
L 150.54435 95.728974 
L 151.9142 99.579305 
L 153.284051 96.867621 
L 154.653901 91.572003 
L 156.023751 85.624956 
L 157.393602 87.975145 
L 158.763452 89.994898 
L 160.133303 89.211608 
L 161.503153 86.315253 
L 162.873003 83.759218 
L 164.242854 83.594443 
L 165.612704 86.610288 
L 166.982555 90.655878 
L 168.352405 88.87565 
L 169.722255 88.423542 
L 171.092106 88.421339 
L 172.461956 87.295008 
L 173.831807 86.95097 
L 175.201657 85.848062 
L 176.571507 82.732119 
L 177.941358 82.357161 
L 179.311208 86.592077 
L 180.681059 82.638125 
L 182.050909 114.649893 
L 183.420759 116.821783 
L 184.79061 113.791874 
L 186.16046 118.813869 
L 187.530311 106.828035 
L 188.900161 121.877006 
L 190.270012 151.319445 
L 191.639862 158.601257 
L 193.009712 155.108708 
L 194.379563 162.465275 
L 195.749413 164.822253 
L 197.119264 166.533056 
L 198.489114 160.480858 
L 199.858964 150.907251 
L 201.228815 152.010951 
L 202.598665 156.204469 
L 203.968516 153.092686 
L 205.338366 151.726482 
L 206.708216 154.156899 
L 208.078067 176.812658 
L 209.447917 182.853195 
L 210.817768 190.295587 
L 212.187618 186.779152 
L 213.557468 182.120707 
L 214.927319 175.661244 
L 216.297169 169.746245 
L 217.66702 160.892448 
L 219.03687 169.655631 
L 220.40672 179.757378 
L 221.776571 180.833925 
L 223.146421 190.822014 
L 224.516272 191.429268 
L 225.886122 190.946012 
L 227.255972 189.371716 
L 228.625823 188.730616 
L 229.995673 188.671145 
L 231.365524 193.148443 
L 232.735374 189.204362 
L 234.105224 182.391129 
L 235.475075 189.134312 
L 236.844925 189.531637 
L 238.214776 190.937681 
L 239.584626 188.742481 
L 240.954476 182.161065 
L 242.324327 183.721999 
L 243.694177 183.08792 
L 245.064028 173.385622 
L 246.433878 165.588204 
L 247.803728 170.779591 
L 249.173579 176.768254 
L 250.543429 232.86252 
L 251.91328 231.057783 
L 253.28313 218.977168 
L 254.65298 217.053797 
L 256.022831 214.180985 
L 257.392681 228.860951 
L 258.762532 241.694771 
L 260.132382 252.211831 
L 261.502232 253.178949 
L 262.872083 257.736515 
L 264.241933 266.268809 
L 265.611784 268.850173 
L 266.981634 262.843301 
L 268.351484 260.085404 
L 271.091185 245.197119 
L 272.461036 253.246103 
L 273.830886 248.807037 
L 275.200736 249.217102 
L 276.570587 243.503261 
L 277.940437 244.547931 
L 279.310288 245.080228 
L 280.680138 238.255189 
L 282.049988 227.947378 
L 283.419839 221.457415 
L 284.789689 216.506521 
L 286.15954 215.596538 
L 287.52939 211.851029 
L 288.899241 218.177829 
L 290.269091 218.081198 
L 291.638941 222.084307 
L 293.008792 219.935848 
L 294.378642 211.980193 
L 295.748493 202.177041 
L 297.118343 204.66698 
L 298.488193 200.987161 
L 299.858044 192.935642 
L 301.227894 188.978099 
L 302.597745 194.179907 
L 303.967595 196.322886 
L 305.337445 193.618349 
L 306.707296 195.53088 
L 308.077146 189.967242 
L 309.446997 193.406473 
L 310.816847 191.102888 
L 312.186697 187.579166 
L 313.556548 185.391491 
L 314.926398 188.046918 
L 316.296249 208.920296 
L 317.666099 228.07879 
L 319.035949 224.674992 
L 320.4058 225.894114 
L 321.77565 224.946977 
L 323.145501 227.743106 
L 324.515351 232.591891 
L 325.885201 227.996382 
L 327.255052 228.061607 
L 328.624902 238.338484 
L 329.994753 230.638392 
L 331.364603 233.777427 
L 332.734453 231.532874 
L 334.104304 227.738843 
L 335.474154 226.045613 
L 336.844005 222.913058 
L 338.213855 227.988959 
L 339.583705 223.531584 
L 340.953556 228.789064 
L 342.323406 228.935809 
L 343.693257 231.672808 
L 345.063107 232.370524 
L 346.432957 230.320961 
L 347.802808 232.065629 
L 349.172658 223.682011 
L 350.542509 217.221694 
L 351.912359 219.170412 
L 353.282209 219.044748 
L 354.65206 217.60112 
L 356.02191 212.264892 
L 357.391761 209.290143 
L 358.761611 207.557273 
L 360.131461 204.597912 
L 361.501312 200.734839 
L 362.871162 254.220847 
L 364.241013 237.388839 
L 365.610863 240.97782 
L 366.980713 233.497441 
L 368.350564 229.982586 
L 369.720414 224.717465 
L 371.090265 222.888491 
L 372.460115 221.419041 
L 373.829965 222.130576 
L 375.199816 220.946316 
L 376.569666 215.287728 
L 377.939517 224.142502 
L 379.309367 217.384502 
L 380.679217 209.163075 
L 382.049068 222.166673 
L 383.418918 219.82854 
L 384.788769 236.689929 
L 386.158619 226.591416 
L 387.52847 248.334814 
L 388.89832 261.529998 
L 390.26817 279.117915 
L 391.638021 266.667376 
L 393.007871 284.717808 
L 394.377722 273.718675 
L 395.747572 277.454697 
L 398.487273 295.488 
L 398.487273 295.488 
" style="fill:none;stroke:#2ca02c;stroke-linecap:square;stroke-width:1.5;"/>
   </g>
   <g id="line2d_18">
    <path clip-path="url(#pf51e8dde43)" d="M 73.832727 87.715541 
L 75.202578 90.044669 
L 76.572428 89.56782 
L 77.942278 87.40556 
L 79.312129 90.598809 
L 80.681979 90.984833 
L 82.05183 90.464966 
L 83.42168 90.394415 
L 84.79153 91.677928 
L 86.161381 84.728004 
L 87.531231 80.333969 
L 88.901082 74.700302 
L 90.270932 72.751825 
L 91.640783 71.430702 
L 93.010633 72.563316 
L 94.380483 69.907555 
L 95.750334 71.820184 
L 97.120184 68.393547 
L 98.490035 63.510643 
L 99.859885 62.884709 
L 101.229735 61.374881 
L 102.599586 62.24796 
L 103.969436 61.735852 
L 105.339287 59.298083 
L 106.709137 58.478277 
L 108.078987 59.558499 
L 109.448838 64.378018 
L 110.818688 71.74675 
L 112.188539 90.38667 
L 114.928239 114.453281 
L 117.66794 121.485401 
L 119.037791 123.290735 
L 120.407641 119.904862 
L 121.777491 108.929689 
L 123.147342 101.739639 
L 124.517192 101.105322 
L 127.256893 92.795275 
L 129.996594 92.058589 
L 131.366444 94.69607 
L 132.736295 96.568588 
L 134.106145 99.240225 
L 135.475995 102.672377 
L 136.845846 100.833896 
L 138.215696 97.821232 
L 139.585547 99.733038 
L 140.955397 99.898027 
L 142.325247 98.727167 
L 143.695098 101.631056 
L 145.064948 106.098218 
L 146.434799 94.624566 
L 147.804649 93.542663 
L 149.174499 95.620896 
L 150.54435 91.923527 
L 151.9142 95.669935 
L 153.284051 93.182259 
L 154.653901 84.01559 
L 156.023751 75.968831 
L 157.393602 84.178162 
L 158.763452 86.531881 
L 160.133303 84.24729 
L 161.503153 80.339627 
L 162.873003 77.663109 
L 164.242854 77.487297 
L 165.612704 82.99977 
L 166.982555 87.232995 
L 168.352405 84.608942 
L 169.722255 84.746028 
L 171.092106 84.55233 
L 172.461956 81.711426 
L 173.831807 83.011625 
L 175.201657 77.982892 
L 176.571507 77.038211 
L 177.941358 76.629051 
L 179.311208 82.961824 
L 180.681059 69.957298 
L 182.050909 92.251783 
L 183.420759 111.763703 
L 184.79061 108.967248 
L 186.16046 109.51605 
L 187.530311 95.008835 
L 188.900161 106.296872 
L 190.270012 126.975933 
L 191.639862 145.448085 
L 193.009712 150.317603 
L 194.379563 152.93203 
L 195.749413 158.933637 
L 197.119264 161.250686 
L 198.489114 156.348142 
L 199.858964 145.17405 
L 201.228815 145.636861 
L 202.598665 148.495161 
L 203.968516 148.094747 
L 205.338366 146.261192 
L 206.708216 146.493159 
L 210.817768 183.464559 
L 212.187618 182.728996 
L 213.557468 177.758644 
L 214.927319 170.222523 
L 216.297169 165.804545 
L 217.66702 155.765807 
L 219.03687 160.998158 
L 220.40672 169.741341 
L 223.146421 184.30184 
L 224.516272 187.279076 
L 225.886122 187.395189 
L 228.625823 184.146859 
L 229.995673 184.729782 
L 231.365524 188.836638 
L 232.735374 183.998561 
L 234.105224 176.11587 
L 235.475075 184.615582 
L 236.844925 185.728964 
L 238.214776 187.622272 
L 239.584626 183.564574 
L 240.954476 177.230826 
L 242.324327 180.066835 
L 243.694177 179.87639 
L 245.064028 165.738788 
L 246.433878 161.485363 
L 247.803728 164.428309 
L 249.173579 170.489541 
L 250.543429 200.406372 
L 251.91328 224.578996 
L 253.28313 202.654918 
L 254.65298 212.550369 
L 256.022831 209.858226 
L 260.132382 245.517251 
L 261.502232 248.611766 
L 262.872083 252.297052 
L 264.241933 258.501837 
L 265.611784 261.408419 
L 266.981634 254.675902 
L 268.351484 253.669098 
L 271.091185 235.992594 
L 272.461036 246.136819 
L 273.830886 244.453613 
L 275.200736 243.676413 
L 276.570587 238.436013 
L 277.940437 239.973666 
L 279.310288 241.073791 
L 280.680138 231.385468 
L 282.049988 217.835297 
L 283.419839 216.20012 
L 284.789689 209.532134 
L 286.15954 209.577337 
L 287.52939 207.015663 
L 288.899241 213.781864 
L 290.269091 214.539748 
L 291.638941 218.740626 
L 293.008792 215.492452 
L 294.378642 202.09132 
L 295.748493 192.794901 
L 297.118343 200.632088 
L 298.488193 195.530068 
L 299.858044 183.077876 
L 301.227894 185.798435 
L 302.597745 188.817605 
L 303.967595 188.928884 
L 305.337445 188.739037 
L 306.707296 190.577193 
L 308.077146 184.849318 
L 309.446997 190.123905 
L 310.816847 187.294836 
L 312.186697 183.463739 
L 313.556548 181.795411 
L 314.926398 184.804596 
L 316.296249 195.674748 
L 317.666099 214.498272 
L 319.035949 220.55659 
L 320.4058 222.79581 
L 321.77565 221.495924 
L 323.145501 224.443963 
L 324.515351 227.94874 
L 325.885201 222.835229 
L 327.255052 224.666749 
L 328.624902 233.168687 
L 329.994753 222.087584 
L 331.364603 229.441422 
L 332.734453 228.22419 
L 334.104304 222.400987 
L 335.474154 221.930661 
L 336.844005 218.720375 
L 338.213855 224.537671 
L 339.583705 216.968508 
L 340.953556 224.728275 
L 342.323406 225.693538 
L 343.693257 228.661685 
L 345.063107 228.738366 
L 346.432957 225.802693 
L 347.802808 227.601819 
L 349.172658 215.48761 
L 350.542509 207.820722 
L 351.912359 215.015369 
L 353.282209 215.607609 
L 354.65206 213.811712 
L 356.02191 204.698444 
L 357.391761 205.649932 
L 358.761611 203.440327 
L 360.131461 199.759894 
L 361.501312 195.345405 
L 362.871162 227.415936 
L 364.241013 226.87594 
L 365.610863 235.958395 
L 366.980713 227.339667 
L 368.350564 226.265275 
L 369.720414 217.637451 
L 371.090265 218.575116 
L 372.460115 217.742056 
L 373.829965 218.213198 
L 375.199816 216.267535 
L 376.569666 208.745452 
L 377.939517 218.45143 
L 380.679217 199.72094 
L 382.049068 214.981588 
L 383.418918 215.652815 
L 384.788769 228.775999 
L 386.158619 218.380472 
L 387.52847 236.766753 
L 390.26817 266.180013 
L 391.638021 255.620222 
L 393.007871 271.689995 
L 394.377722 263.455688 
L 395.747572 268.076994 
L 398.487273 281.053157 
L 398.487273 281.053157 
" style="fill:none;stroke:#d62728;stroke-linecap:square;stroke-width:1.5;"/>
   </g>
   <g id="patch_3">
    <path d="M 57.6 307.584 
L 57.6 41.472 
" style="fill:none;stroke:#000000;stroke-linecap:square;stroke-linejoin:miter;stroke-width:0.8;"/>
   </g>
   <g id="patch_4">
    <path d="M 414.72 307.584 
L 414.72 41.472 
" style="fill:none;stroke:#000000;stroke-linecap:square;stroke-linejoin:miter;stroke-width:0.8;"/>
   </g>
   <g id="patch_5">
    <path d="M 57.6 307.584 
L 414.72 307.584 
" style="fill:none;stroke:#000000;stroke-linecap:square;stroke-linejoin:miter;stroke-width:0.8;"/>
   </g>
   <g id="patch_6">
    <path d="M 57.6 41.472 
L 414.72 41.472 
" style="fill:none;stroke:#000000;stroke-linecap:square;stroke-linejoin:miter;stroke-width:0.8;"/>
   </g>
   <g id="text_15">
    <!-- Plot of Train Data vs MCMC Uncertainty  -->
    <defs>
     <path d="M 19.671875 64.796875 
L 19.671875 37.40625 
L 32.078125 37.40625 
Q 38.96875 37.40625 42.71875 40.96875 
Q 46.484375 44.53125 46.484375 51.125 
Q 46.484375 57.671875 42.71875 61.234375 
Q 38.96875 64.796875 32.078125 64.796875 
z
M 9.8125 72.90625 
L 32.078125 72.90625 
Q 44.34375 72.90625 50.609375 67.359375 
Q 56.890625 61.8125 56.890625 51.125 
Q 56.890625 40.328125 50.609375 34.8125 
Q 44.34375 29.296875 32.078125 29.296875 
L 19.671875 29.296875 
L 19.671875 0 
L 9.8125 0 
z
" id="DejaVuSans-50"/>
     <path d="M 9.421875 75.984375 
L 18.40625 75.984375 
L 18.40625 0 
L 9.421875 0 
z
" id="DejaVuSans-6c"/>
     <path d="M 30.609375 48.390625 
Q 23.390625 48.390625 19.1875 42.75 
Q 14.984375 37.109375 14.984375 27.296875 
Q 14.984375 17.484375 19.15625 11.84375 
Q 23.34375 6.203125 30.609375 6.203125 
Q 37.796875 6.203125 41.984375 11.859375 
Q 46.1875 17.53125 46.1875 27.296875 
Q 46.1875 37.015625 41.984375 42.703125 
Q 37.796875 48.390625 30.609375 48.390625 
M 30.609375 56 
Q 42.328125 56 49.015625 48.375 
Q 55.71875 40.765625 55.71875 27.296875 
Q 55.71875 13.875 49.015625 6.21875 
Q 42.328125 -1.421875 30.609375 -1.421875 
Q 18.84375 -1.421875 12.171875 6.21875 
Q 5.515625 13.875 5.515625 27.296875 
Q 5.515625 40.765625 12.171875 48.375 
Q 18.84375 56 30.609375 56 
" id="DejaVuSans-6f"/>
     <path d="M 18.3125 70.21875 
L 18.3125 54.6875 
L 36.8125 54.6875 
L 36.8125 47.703125 
L 18.3125 47.703125 
L 18.3125 18.015625 
Q 18.3125 11.328125 20.140625 9.421875 
Q 21.96875 7.515625 27.59375 7.515625 
L 36.8125 7.515625 
L 36.8125 0 
L 27.59375 0 
Q 17.1875 0 13.234375 3.875 
Q 9.28125 7.765625 9.28125 18.015625 
L 9.28125 47.703125 
L 2.6875 47.703125 
L 2.6875 54.6875 
L 9.28125 54.6875 
L 9.28125 70.21875 
z
" id="DejaVuSans-74"/>
     <path id="DejaVuSans-20"/>
     <path d="M 37.109375 75.984375 
L 37.109375 68.5 
L 28.515625 68.5 
Q 23.6875 68.5 21.796875 66.546875 
Q 19.921875 64.59375 19.921875 59.515625 
L 19.921875 54.6875 
L 34.71875 54.6875 
L 34.71875 47.703125 
L 19.921875 47.703125 
L 19.921875 0 
L 10.890625 0 
L 10.890625 47.703125 
L 2.296875 47.703125 
L 2.296875 54.6875 
L 10.890625 54.6875 
L 10.890625 58.5 
Q 10.890625 67.625 15.140625 71.796875 
Q 19.390625 75.984375 28.609375 75.984375 
z
" id="DejaVuSans-66"/>
     <path d="M -0.296875 72.90625 
L 61.375 72.90625 
L 61.375 64.59375 
L 35.5 64.59375 
L 35.5 0 
L 25.59375 0 
L 25.59375 64.59375 
L -0.296875 64.59375 
z
" id="DejaVuSans-54"/>
     <path d="M 41.109375 46.296875 
Q 39.59375 47.171875 37.8125 47.578125 
Q 36.03125 48 33.890625 48 
Q 26.265625 48 22.1875 43.046875 
Q 18.109375 38.09375 18.109375 28.8125 
L 18.109375 0 
L 9.078125 0 
L 9.078125 54.6875 
L 18.109375 54.6875 
L 18.109375 46.1875 
Q 20.953125 51.171875 25.484375 53.578125 
Q 30.03125 56 36.53125 56 
Q 37.453125 56 38.578125 55.875 
Q 39.703125 55.765625 41.0625 55.515625 
z
" id="DejaVuSans-72"/>
     <path d="M 34.28125 27.484375 
Q 23.390625 27.484375 19.1875 25 
Q 14.984375 22.515625 14.984375 16.5 
Q 14.984375 11.71875 18.140625 8.90625 
Q 21.296875 6.109375 26.703125 6.109375 
Q 34.1875 6.109375 38.703125 11.40625 
Q 43.21875 16.703125 43.21875 25.484375 
L 43.21875 27.484375 
z
M 52.203125 31.203125 
L 52.203125 0 
L 43.21875 0 
L 43.21875 8.296875 
Q 40.140625 3.328125 35.546875 0.953125 
Q 30.953125 -1.421875 24.3125 -1.421875 
Q 15.921875 -1.421875 10.953125 3.296875 
Q 6 8.015625 6 15.921875 
Q 6 25.140625 12.171875 29.828125 
Q 18.359375 34.515625 30.609375 34.515625 
L 43.21875 34.515625 
L 43.21875 35.40625 
Q 43.21875 41.609375 39.140625 45 
Q 35.0625 48.390625 27.6875 48.390625 
Q 23 48.390625 18.546875 47.265625 
Q 14.109375 46.140625 10.015625 43.890625 
L 10.015625 52.203125 
Q 14.9375 54.109375 19.578125 55.046875 
Q 24.21875 56 28.609375 56 
Q 40.484375 56 46.34375 49.84375 
Q 52.203125 43.703125 52.203125 31.203125 
" id="DejaVuSans-61"/>
     <path d="M 9.421875 54.6875 
L 18.40625 54.6875 
L 18.40625 0 
L 9.421875 0 
z
M 9.421875 75.984375 
L 18.40625 75.984375 
L 18.40625 64.59375 
L 9.421875 64.59375 
z
" id="DejaVuSans-69"/>
     <path d="M 54.890625 33.015625 
L 54.890625 0 
L 45.90625 0 
L 45.90625 32.71875 
Q 45.90625 40.484375 42.875 44.328125 
Q 39.84375 48.1875 33.796875 48.1875 
Q 26.515625 48.1875 22.3125 43.546875 
Q 18.109375 38.921875 18.109375 30.90625 
L 18.109375 0 
L 9.078125 0 
L 9.078125 54.6875 
L 18.109375 54.6875 
L 18.109375 46.1875 
Q 21.34375 51.125 25.703125 53.5625 
Q 30.078125 56 35.796875 56 
Q 45.21875 56 50.046875 50.171875 
Q 54.890625 44.34375 54.890625 33.015625 
" id="DejaVuSans-6e"/>
     <path d="M 19.671875 64.796875 
L 19.671875 8.109375 
L 31.59375 8.109375 
Q 46.6875 8.109375 53.6875 14.9375 
Q 60.6875 21.78125 60.6875 36.53125 
Q 60.6875 51.171875 53.6875 57.984375 
Q 46.6875 64.796875 31.59375 64.796875 
z
M 9.8125 72.90625 
L 30.078125 72.90625 
Q 51.265625 72.90625 61.171875 64.09375 
Q 71.09375 55.28125 71.09375 36.53125 
Q 71.09375 17.671875 61.125 8.828125 
Q 51.171875 0 30.078125 0 
L 9.8125 0 
z
" id="DejaVuSans-44"/>
     <path d="M 2.984375 54.6875 
L 12.5 54.6875 
L 29.59375 8.796875 
L 46.6875 54.6875 
L 56.203125 54.6875 
L 35.6875 0 
L 23.484375 0 
z
" id="DejaVuSans-76"/>
     <path d="M 44.28125 53.078125 
L 44.28125 44.578125 
Q 40.484375 46.53125 36.375 47.5 
Q 32.28125 48.484375 27.875 48.484375 
Q 21.1875 48.484375 17.84375 46.4375 
Q 14.5 44.390625 14.5 40.28125 
Q 14.5 37.15625 16.890625 35.375 
Q 19.28125 33.59375 26.515625 31.984375 
L 29.59375 31.296875 
Q 39.15625 29.25 43.1875 25.515625 
Q 47.21875 21.78125 47.21875 15.09375 
Q 47.21875 7.46875 41.1875 3.015625 
Q 35.15625 -1.421875 24.609375 -1.421875 
Q 20.21875 -1.421875 15.453125 -0.5625 
Q 10.6875 0.296875 5.421875 2 
L 5.421875 11.28125 
Q 10.40625 8.6875 15.234375 7.390625 
Q 20.0625 6.109375 24.8125 6.109375 
Q 31.15625 6.109375 34.5625 8.28125 
Q 37.984375 10.453125 37.984375 14.40625 
Q 37.984375 18.0625 35.515625 20.015625 
Q 33.0625 21.96875 24.703125 23.78125 
L 21.578125 24.515625 
Q 13.234375 26.265625 9.515625 29.90625 
Q 5.8125 33.546875 5.8125 39.890625 
Q 5.8125 47.609375 11.28125 51.796875 
Q 16.75 56 26.8125 56 
Q 31.78125 56 36.171875 55.265625 
Q 40.578125 54.546875 44.28125 53.078125 
" id="DejaVuSans-73"/>
     <path d="M 9.8125 72.90625 
L 24.515625 72.90625 
L 43.109375 23.296875 
L 61.8125 72.90625 
L 76.515625 72.90625 
L 76.515625 0 
L 66.890625 0 
L 66.890625 64.015625 
L 48.09375 14.015625 
L 38.1875 14.015625 
L 19.390625 64.015625 
L 19.390625 0 
L 9.8125 0 
z
" id="DejaVuSans-4d"/>
     <path d="M 64.40625 67.28125 
L 64.40625 56.890625 
Q 59.421875 61.53125 53.78125 63.8125 
Q 48.140625 66.109375 41.796875 66.109375 
Q 29.296875 66.109375 22.65625 58.46875 
Q 16.015625 50.828125 16.015625 36.375 
Q 16.015625 21.96875 22.65625 14.328125 
Q 29.296875 6.6875 41.796875 6.6875 
Q 48.140625 6.6875 53.78125 8.984375 
Q 59.421875 11.28125 64.40625 15.921875 
L 64.40625 5.609375 
Q 59.234375 2.09375 53.4375 0.328125 
Q 47.65625 -1.421875 41.21875 -1.421875 
Q 24.65625 -1.421875 15.125 8.703125 
Q 5.609375 18.84375 5.609375 36.375 
Q 5.609375 53.953125 15.125 64.078125 
Q 24.65625 74.21875 41.21875 74.21875 
Q 47.75 74.21875 53.53125 72.484375 
Q 59.328125 70.75 64.40625 67.28125 
" id="DejaVuSans-43"/>
     <path d="M 8.6875 72.90625 
L 18.609375 72.90625 
L 18.609375 28.609375 
Q 18.609375 16.890625 22.84375 11.734375 
Q 27.09375 6.59375 36.625 6.59375 
Q 46.09375 6.59375 50.34375 11.734375 
Q 54.59375 16.890625 54.59375 28.609375 
L 54.59375 72.90625 
L 64.5 72.90625 
L 64.5 27.390625 
Q 64.5 13.140625 57.4375 5.859375 
Q 50.390625 -1.421875 36.625 -1.421875 
Q 22.796875 -1.421875 15.734375 5.859375 
Q 8.6875 13.140625 8.6875 27.390625 
z
" id="DejaVuSans-55"/>
     <path d="M 48.78125 52.59375 
L 48.78125 44.1875 
Q 44.96875 46.296875 41.140625 47.34375 
Q 37.3125 48.390625 33.40625 48.390625 
Q 24.65625 48.390625 19.8125 42.84375 
Q 14.984375 37.3125 14.984375 27.296875 
Q 14.984375 17.28125 19.8125 11.734375 
Q 24.65625 6.203125 33.40625 6.203125 
Q 37.3125 6.203125 41.140625 7.25 
Q 44.96875 8.296875 48.78125 10.40625 
L 48.78125 2.09375 
Q 45.015625 0.34375 40.984375 -0.53125 
Q 36.96875 -1.421875 32.421875 -1.421875 
Q 20.0625 -1.421875 12.78125 6.34375 
Q 5.515625 14.109375 5.515625 27.296875 
Q 5.515625 40.671875 12.859375 48.328125 
Q 20.21875 56 33.015625 56 
Q 37.15625 56 41.109375 55.140625 
Q 45.0625 54.296875 48.78125 52.59375 
" id="DejaVuSans-63"/>
     <path d="M 56.203125 29.59375 
L 56.203125 25.203125 
L 14.890625 25.203125 
Q 15.484375 15.921875 20.484375 11.0625 
Q 25.484375 6.203125 34.421875 6.203125 
Q 39.59375 6.203125 44.453125 7.46875 
Q 49.3125 8.734375 54.109375 11.28125 
L 54.109375 2.78125 
Q 49.265625 0.734375 44.1875 -0.34375 
Q 39.109375 -1.421875 33.890625 -1.421875 
Q 20.796875 -1.421875 13.15625 6.1875 
Q 5.515625 13.8125 5.515625 26.8125 
Q 5.515625 40.234375 12.765625 48.109375 
Q 20.015625 56 32.328125 56 
Q 43.359375 56 49.78125 48.890625 
Q 56.203125 41.796875 56.203125 29.59375 
M 47.21875 32.234375 
Q 47.125 39.59375 43.09375 43.984375 
Q 39.0625 48.390625 32.421875 48.390625 
Q 24.90625 48.390625 20.390625 44.140625 
Q 15.875 39.890625 15.1875 32.171875 
z
" id="DejaVuSans-65"/>
     <path d="M 32.171875 -5.078125 
Q 28.375 -14.84375 24.75 -17.8125 
Q 21.140625 -20.796875 15.09375 -20.796875 
L 7.90625 -20.796875 
L 7.90625 -13.28125 
L 13.1875 -13.28125 
Q 16.890625 -13.28125 18.9375 -11.515625 
Q 21 -9.765625 23.484375 -3.21875 
L 25.09375 0.875 
L 2.984375 54.6875 
L 12.5 54.6875 
L 29.59375 11.921875 
L 46.6875 54.6875 
L 56.203125 54.6875 
z
" id="DejaVuSans-79"/>
    </defs>
    <g transform="translate(115.666875 35.472)scale(0.12 -0.12)">
     <use xlink:href="#DejaVuSans-50"/>
     <use x="60.302734" xlink:href="#DejaVuSans-6c"/>
     <use x="88.085938" xlink:href="#DejaVuSans-6f"/>
     <use x="149.267578" xlink:href="#DejaVuSans-74"/>
     <use x="188.476562" xlink:href="#DejaVuSans-20"/>
     <use x="220.263672" xlink:href="#DejaVuSans-6f"/>
     <use x="281.445312" xlink:href="#DejaVuSans-66"/>
     <use x="316.650391" xlink:href="#DejaVuSans-20"/>
     <use x="348.4375" xlink:href="#DejaVuSans-54"/>
     <use x="409.302734" xlink:href="#DejaVuSans-72"/>
     <use x="450.416016" xlink:href="#DejaVuSans-61"/>
     <use x="511.695312" xlink:href="#DejaVuSans-69"/>
     <use x="539.478516" xlink:href="#DejaVuSans-6e"/>
     <use x="602.857422" xlink:href="#DejaVuSans-20"/>
     <use x="634.644531" xlink:href="#DejaVuSans-44"/>
     <use x="711.646484" xlink:href="#DejaVuSans-61"/>
     <use x="772.925781" xlink:href="#DejaVuSans-74"/>
     <use x="812.134766" xlink:href="#DejaVuSans-61"/>
     <use x="873.414062" xlink:href="#DejaVuSans-20"/>
     <use x="905.201172" xlink:href="#DejaVuSans-76"/>
     <use x="964.380859" xlink:href="#DejaVuSans-73"/>
     <use x="1016.480469" xlink:href="#DejaVuSans-20"/>
     <use x="1048.267578" xlink:href="#DejaVuSans-4d"/>
     <use x="1134.546875" xlink:href="#DejaVuSans-43"/>
     <use x="1204.371094" xlink:href="#DejaVuSans-4d"/>
     <use x="1290.650391" xlink:href="#DejaVuSans-43"/>
     <use x="1360.474609" xlink:href="#DejaVuSans-20"/>
     <use x="1392.261719" xlink:href="#DejaVuSans-55"/>
     <use x="1465.455078" xlink:href="#DejaVuSans-6e"/>
     <use x="1528.833984" xlink:href="#DejaVuSans-63"/>
     <use x="1583.814453" xlink:href="#DejaVuSans-65"/>
     <use x="1645.337891" xlink:href="#DejaVuSans-72"/>
     <use x="1686.451172" xlink:href="#DejaVuSans-74"/>
     <use x="1725.660156" xlink:href="#DejaVuSans-61"/>
     <use x="1786.939453" xlink:href="#DejaVuSans-69"/>
     <use x="1814.722656" xlink:href="#DejaVuSans-6e"/>
     <use x="1878.101562" xlink:href="#DejaVuSans-74"/>
     <use x="1917.310547" xlink:href="#DejaVuSans-79"/>
     <use x="1976.490234" xlink:href="#DejaVuSans-20"/>
    </g>
   </g>
   <g id="legend_1">
    <g id="patch_7">
     <path d="M 277.843437 108.1845 
L 407.72 108.1845 
Q 409.72 108.1845 409.72 106.1845 
L 409.72 48.472 
Q 409.72 46.472 407.72 46.472 
L 277.843437 46.472 
Q 275.843437 46.472 275.843437 48.472 
L 275.843437 106.1845 
Q 275.843437 108.1845 277.843437 108.1845 
z
" style="fill:#ffffff;opacity:0.8;stroke:#cccccc;stroke-linejoin:miter;"/>
    </g>
    <g id="line2d_19">
     <path d="M 279.843437 54.570438 
L 299.843437 54.570438 
" style="fill:none;stroke:#1f77b4;stroke-linecap:square;stroke-width:1.5;"/>
    </g>
    <g id="line2d_20"/>
    <g id="text_16">
     <!-- actual -->
     <defs>
      <path d="M 8.5 21.578125 
L 8.5 54.6875 
L 17.484375 54.6875 
L 17.484375 21.921875 
Q 17.484375 14.15625 20.5 10.265625 
Q 23.53125 6.390625 29.59375 6.390625 
Q 36.859375 6.390625 41.078125 11.03125 
Q 45.3125 15.671875 45.3125 23.6875 
L 45.3125 54.6875 
L 54.296875 54.6875 
L 54.296875 0 
L 45.3125 0 
L 45.3125 8.40625 
Q 42.046875 3.421875 37.71875 1 
Q 33.40625 -1.421875 27.6875 -1.421875 
Q 18.265625 -1.421875 13.375 4.4375 
Q 8.5 10.296875 8.5 21.578125 
M 31.109375 56 
z
" id="DejaVuSans-75"/>
     </defs>
     <g transform="translate(307.843437 58.070438)scale(0.1 -0.1)">
      <use xlink:href="#DejaVuSans-61"/>
      <use x="61.279297" xlink:href="#DejaVuSans-63"/>
      <use x="116.259766" xlink:href="#DejaVuSans-74"/>
      <use x="155.46875" xlink:href="#DejaVuSans-75"/>
      <use x="218.847656" xlink:href="#DejaVuSans-61"/>
      <use x="280.126953" xlink:href="#DejaVuSans-6c"/>
     </g>
    </g>
    <g id="line2d_21">
     <path d="M 279.843437 69.248563 
L 299.843437 69.248563 
" style="fill:none;stroke:#ff7f0e;stroke-linecap:square;stroke-width:1.5;"/>
    </g>
    <g id="line2d_22"/>
    <g id="text_17">
     <!-- pred. (mean) -->
     <defs>
      <path d="M 18.109375 8.203125 
L 18.109375 -20.796875 
L 9.078125 -20.796875 
L 9.078125 54.6875 
L 18.109375 54.6875 
L 18.109375 46.390625 
Q 20.953125 51.265625 25.265625 53.625 
Q 29.59375 56 35.59375 56 
Q 45.5625 56 51.78125 48.09375 
Q 58.015625 40.1875 58.015625 27.296875 
Q 58.015625 14.40625 51.78125 6.484375 
Q 45.5625 -1.421875 35.59375 -1.421875 
Q 29.59375 -1.421875 25.265625 0.953125 
Q 20.953125 3.328125 18.109375 8.203125 
M 48.6875 27.296875 
Q 48.6875 37.203125 44.609375 42.84375 
Q 40.53125 48.484375 33.40625 48.484375 
Q 26.265625 48.484375 22.1875 42.84375 
Q 18.109375 37.203125 18.109375 27.296875 
Q 18.109375 17.390625 22.1875 11.75 
Q 26.265625 6.109375 33.40625 6.109375 
Q 40.53125 6.109375 44.609375 11.75 
Q 48.6875 17.390625 48.6875 27.296875 
" id="DejaVuSans-70"/>
      <path d="M 45.40625 46.390625 
L 45.40625 75.984375 
L 54.390625 75.984375 
L 54.390625 0 
L 45.40625 0 
L 45.40625 8.203125 
Q 42.578125 3.328125 38.25 0.953125 
Q 33.9375 -1.421875 27.875 -1.421875 
Q 17.96875 -1.421875 11.734375 6.484375 
Q 5.515625 14.40625 5.515625 27.296875 
Q 5.515625 40.1875 11.734375 48.09375 
Q 17.96875 56 27.875 56 
Q 33.9375 56 38.25 53.625 
Q 42.578125 51.265625 45.40625 46.390625 
M 14.796875 27.296875 
Q 14.796875 17.390625 18.875 11.75 
Q 22.953125 6.109375 30.078125 6.109375 
Q 37.203125 6.109375 41.296875 11.75 
Q 45.40625 17.390625 45.40625 27.296875 
Q 45.40625 37.203125 41.296875 42.84375 
Q 37.203125 48.484375 30.078125 48.484375 
Q 22.953125 48.484375 18.875 42.84375 
Q 14.796875 37.203125 14.796875 27.296875 
" id="DejaVuSans-64"/>
      <path d="M 31 75.875 
Q 24.46875 64.65625 21.28125 53.65625 
Q 18.109375 42.671875 18.109375 31.390625 
Q 18.109375 20.125 21.3125 9.0625 
Q 24.515625 -2 31 -13.1875 
L 23.1875 -13.1875 
Q 15.875 -1.703125 12.234375 9.375 
Q 8.59375 20.453125 8.59375 31.390625 
Q 8.59375 42.28125 12.203125 53.3125 
Q 15.828125 64.359375 23.1875 75.875 
z
" id="DejaVuSans-28"/>
      <path d="M 52 44.1875 
Q 55.375 50.25 60.0625 53.125 
Q 64.75 56 71.09375 56 
Q 79.640625 56 84.28125 50.015625 
Q 88.921875 44.046875 88.921875 33.015625 
L 88.921875 0 
L 79.890625 0 
L 79.890625 32.71875 
Q 79.890625 40.578125 77.09375 44.375 
Q 74.3125 48.1875 68.609375 48.1875 
Q 61.625 48.1875 57.5625 43.546875 
Q 53.515625 38.921875 53.515625 30.90625 
L 53.515625 0 
L 44.484375 0 
L 44.484375 32.71875 
Q 44.484375 40.625 41.703125 44.40625 
Q 38.921875 48.1875 33.109375 48.1875 
Q 26.21875 48.1875 22.15625 43.53125 
Q 18.109375 38.875 18.109375 30.90625 
L 18.109375 0 
L 9.078125 0 
L 9.078125 54.6875 
L 18.109375 54.6875 
L 18.109375 46.1875 
Q 21.1875 51.21875 25.484375 53.609375 
Q 29.78125 56 35.6875 56 
Q 41.65625 56 45.828125 52.96875 
Q 50 49.953125 52 44.1875 
" id="DejaVuSans-6d"/>
      <path d="M 8.015625 75.875 
L 15.828125 75.875 
Q 23.140625 64.359375 26.78125 53.3125 
Q 30.421875 42.28125 30.421875 31.390625 
Q 30.421875 20.453125 26.78125 9.375 
Q 23.140625 -1.703125 15.828125 -13.1875 
L 8.015625 -13.1875 
Q 14.5 -2 17.703125 9.0625 
Q 20.90625 20.125 20.90625 31.390625 
Q 20.90625 42.671875 17.703125 53.65625 
Q 14.5 64.65625 8.015625 75.875 
" id="DejaVuSans-29"/>
     </defs>
     <g transform="translate(307.843437 72.748563)scale(0.1 -0.1)">
      <use xlink:href="#DejaVuSans-70"/>
      <use x="63.476562" xlink:href="#DejaVuSans-72"/>
      <use x="104.558594" xlink:href="#DejaVuSans-65"/>
      <use x="166.082031" xlink:href="#DejaVuSans-64"/>
      <use x="229.558594" xlink:href="#DejaVuSans-2e"/>
      <use x="261.345703" xlink:href="#DejaVuSans-20"/>
      <use x="293.132812" xlink:href="#DejaVuSans-28"/>
      <use x="332.146484" xlink:href="#DejaVuSans-6d"/>
      <use x="429.558594" xlink:href="#DejaVuSans-65"/>
      <use x="491.082031" xlink:href="#DejaVuSans-61"/>
      <use x="552.361328" xlink:href="#DejaVuSans-6e"/>
      <use x="615.740234" xlink:href="#DejaVuSans-29"/>
     </g>
    </g>
    <g id="line2d_23">
     <path d="M 279.843437 83.926688 
L 299.843437 83.926688 
" style="fill:none;stroke:#2ca02c;stroke-linecap:square;stroke-width:1.5;"/>
    </g>
    <g id="line2d_24"/>
    <g id="text_18">
     <!-- pred.(5th percen.) -->
     <defs>
      <path d="M 54.890625 33.015625 
L 54.890625 0 
L 45.90625 0 
L 45.90625 32.71875 
Q 45.90625 40.484375 42.875 44.328125 
Q 39.84375 48.1875 33.796875 48.1875 
Q 26.515625 48.1875 22.3125 43.546875 
Q 18.109375 38.921875 18.109375 30.90625 
L 18.109375 0 
L 9.078125 0 
L 9.078125 75.984375 
L 18.109375 75.984375 
L 18.109375 46.1875 
Q 21.34375 51.125 25.703125 53.5625 
Q 30.078125 56 35.796875 56 
Q 45.21875 56 50.046875 50.171875 
Q 54.890625 44.34375 54.890625 33.015625 
" id="DejaVuSans-68"/>
     </defs>
     <g transform="translate(307.843437 87.426688)scale(0.1 -0.1)">
      <use xlink:href="#DejaVuSans-70"/>
      <use x="63.476562" xlink:href="#DejaVuSans-72"/>
      <use x="104.558594" xlink:href="#DejaVuSans-65"/>
      <use x="166.082031" xlink:href="#DejaVuSans-64"/>
      <use x="229.558594" xlink:href="#DejaVuSans-2e"/>
      <use x="261.345703" xlink:href="#DejaVuSans-28"/>
      <use x="300.359375" xlink:href="#DejaVuSans-35"/>
      <use x="363.982422" xlink:href="#DejaVuSans-74"/>
      <use x="403.191406" xlink:href="#DejaVuSans-68"/>
      <use x="466.570312" xlink:href="#DejaVuSans-20"/>
      <use x="498.357422" xlink:href="#DejaVuSans-70"/>
      <use x="561.833984" xlink:href="#DejaVuSans-65"/>
      <use x="623.357422" xlink:href="#DejaVuSans-72"/>
      <use x="664.439453" xlink:href="#DejaVuSans-63"/>
      <use x="719.419922" xlink:href="#DejaVuSans-65"/>
      <use x="780.943359" xlink:href="#DejaVuSans-6e"/>
      <use x="844.322266" xlink:href="#DejaVuSans-2e"/>
      <use x="876.109375" xlink:href="#DejaVuSans-29"/>
     </g>
    </g>
    <g id="line2d_25">
     <path d="M 279.843437 98.604813 
L 299.843437 98.604813 
" style="fill:none;stroke:#d62728;stroke-linecap:square;stroke-width:1.5;"/>
    </g>
    <g id="line2d_26"/>
    <g id="text_19">
     <!-- pred.(95th percen.) -->
     <g transform="translate(307.843437 102.104813)scale(0.1 -0.1)">
      <use xlink:href="#DejaVuSans-70"/>
      <use x="63.476562" xlink:href="#DejaVuSans-72"/>
      <use x="104.558594" xlink:href="#DejaVuSans-65"/>
      <use x="166.082031" xlink:href="#DejaVuSans-64"/>
      <use x="229.558594" xlink:href="#DejaVuSans-2e"/>
      <use x="261.345703" xlink:href="#DejaVuSans-28"/>
      <use x="300.359375" xlink:href="#DejaVuSans-39"/>
      <use x="363.982422" xlink:href="#DejaVuSans-35"/>
      <use x="427.605469" xlink:href="#DejaVuSans-74"/>
      <use x="466.814453" xlink:href="#DejaVuSans-68"/>
      <use x="530.193359" xlink:href="#DejaVuSans-20"/>
      <use x="561.980469" xlink:href="#DejaVuSans-70"/>
      <use x="625.457031" xlink:href="#DejaVuSans-65"/>
      <use x="686.980469" xlink:href="#DejaVuSans-72"/>
      <use x="728.0625" xlink:href="#DejaVuSans-63"/>
      <use x="783.042969" xlink:href="#DejaVuSans-65"/>
      <use x="844.566406" xlink:href="#DejaVuSans-6e"/>
      <use x="907.945312" xlink:href="#DejaVuSans-2e"/>
      <use x="939.732422" xlink:href="#DejaVuSans-29"/>
     </g>
    </g>
   </g>
  </g>
 </g>
 <defs>
  <clipPath id="pf51e8dde43">
   <rect height="266.112" width="357.12" x="57.6" y="41.472"/>
  </clipPath>
 </defs>
</svg>
