<?xml version="1.0" encoding="utf-8" standalone="no"?>
<!DOCTYPE svg PUBLIC "-//W3C//DTD SVG 1.1//EN"
  "http://www.w3.org/Graphics/SVG/1.1/DTD/svg11.dtd">
<!-- Created with matplotlib (http://matplotlib.org/) -->
<svg height="345pt" version="1.1" viewBox="0 0 460 345" width="460pt" xmlns="http://www.w3.org/2000/svg" xmlns:xlink="http://www.w3.org/1999/xlink">
 <defs>
  <style type="text/css">
*{stroke-linecap:butt;stroke-linejoin:round;}
  </style>
 </defs>
 <g id="figure_1">
  <g id="patch_1">
   <path d="M 0 345.6 
L 460.8 345.6 
L 460.8 0 
L 0 0 
z
" style="fill:#ffffff;"/>
  </g>
  <g id="axes_1">
   <g id="patch_2">
    <path d="M 57.6 307.584 
L 414.72 307.584 
L 414.72 41.472 
L 57.6 41.472 
z
" style="fill:#ffffff;"/>
   </g>
   <g id="PolyCollection_1">
    <path clip-path="url(#pdebbd55335)" d="M 73.832727 109.170864 
L 73.832727 117.625524 
L 75.48072 96.224324 
L 77.128713 91.994601 
L 78.776705 104.183741 
L 80.424698 118.457392 
L 82.07269 131.165198 
L 83.720683 137.578017 
L 85.368676 140.264299 
L 87.016668 147.380779 
L 88.664661 168.340806 
L 90.312653 194.130542 
L 91.960646 214.697249 
L 93.608639 226.087989 
L 95.256631 226.278864 
L 96.904624 218.272759 
L 98.552617 206.89011 
L 100.200609 195.076007 
L 101.848602 180.414061 
L 103.496594 157.850207 
L 105.144587 130.034004 
L 106.79258 108.925586 
L 108.440572 97.327193 
L 110.088565 89.648962 
L 111.736557 81.728201 
L 113.38455 73.255983 
L 115.032543 65.340508 
L 116.680535 60.042269 
L 118.328528 63.560844 
L 119.976521 85.846088 
L 121.624513 117.3741 
L 123.272506 150.758998 
L 124.920498 182.274726 
L 126.568491 210.643507 
L 128.216484 235.653831 
L 129.864476 257.111808 
L 131.512469 274.416852 
L 133.160461 286.461721 
L 134.808454 290.571668 
L 136.456447 281.80806 
L 138.104439 254.731195 
L 139.752432 211.073889 
L 141.400425 173.147476 
L 143.048417 153.301276 
L 144.69641 144.987182 
L 146.344402 145.343813 
L 147.992395 150.762061 
L 149.640388 156.825689 
L 151.28838 159.070929 
L 152.936373 149.962603 
L 154.584365 127.561702 
L 156.232358 103.866593 
L 157.880351 99.263967 
L 159.528343 102.789293 
L 161.176336 106.876052 
L 162.824329 106.753756 
L 164.472321 102.231901 
L 166.120314 97.721686 
L 167.768306 101.765811 
L 169.416299 123.90784 
L 171.064292 152.83312 
L 172.712284 178.714796 
L 174.360277 197.584036 
L 176.008269 210.264857 
L 177.656262 221.333799 
L 179.304255 233.329662 
L 180.952247 244.135292 
L 182.60024 249.267646 
L 184.248233 242.816918 
L 185.896225 218.725265 
L 187.544218 181.552888 
L 189.19221 149.42436 
L 190.840203 125.324125 
L 192.488196 109.92277 
L 194.136188 101.225494 
L 195.784181 97.710685 
L 197.432174 97.226452 
L 199.080166 94.803847 
L 200.728159 85.407152 
L 202.376151 72.942799 
L 204.024144 75.580823 
L 205.672137 97.924034 
L 207.320129 126.533554 
L 208.968122 156.121771 
L 210.616114 182.121904 
L 212.264107 203.211117 
L 213.9121 221.912968 
L 215.560092 241.847669 
L 217.208085 260.069953 
L 218.856078 272.2662 
L 220.50407 274.833238 
L 222.152063 263.351648 
L 223.800055 233.902817 
L 225.448048 193.254746 
L 227.096041 158.543922 
L 228.744033 136.753788 
L 230.392026 125.638016 
L 232.040018 123.537175 
L 233.688011 126.45807 
L 235.336004 130.434995 
L 236.983996 129.684077 
L 238.631989 118.229131 
L 240.279982 98.033291 
L 241.927974 87.196183 
L 243.575967 98.962538 
L 245.223959 116.255602 
L 246.871952 133.324641 
L 248.519945 145.214303 
L 250.167937 151.691707 
L 251.81593 158.474454 
L 253.463922 176.362821 
L 255.111915 200.93402 
L 256.759908 221.854063 
L 258.4079 234.277301 
L 260.055893 234.778002 
L 261.703886 224.035628 
L 263.351878 206.418845 
L 264.999871 186.82394 
L 266.647863 166.146064 
L 268.295856 143.028364 
L 269.943849 117.982814 
L 271.591841 101.973739 
L 273.239834 94.548418 
L 274.887826 89.915461 
L 276.535819 83.237197 
L 278.183812 74.044958 
L 279.831804 65.460467 
L 281.479797 63.010695 
L 283.12779 75.834888 
L 284.775782 104.446777 
L 286.423775 136.948852 
L 288.071767 168.427088 
L 289.71976 196.161175 
L 291.367753 221.043149 
L 293.015745 243.859314 
L 294.663738 263.391635 
L 296.311731 278.296775 
L 297.959723 286.641437 
L 299.607716 284.182473 
L 301.255708 265.817635 
L 302.903701 228.170409 
L 304.551694 185.027361 
L 306.199686 157.279936 
L 307.847679 143.24407 
L 309.495671 139.29302 
L 311.143664 142.233411 
L 312.791657 148.054783 
L 314.439649 152.562051 
L 316.087642 148.782443 
L 317.735635 132.159646 
L 319.383627 107.539371 
L 321.03162 96.584406 
L 322.679612 102.091967 
L 324.327605 109.355135 
L 325.975598 114.749127 
L 327.62359 114.339174 
L 329.271583 111.079449 
L 330.919575 111.95614 
L 332.567568 129.40544 
L 334.215561 157.32007 
L 335.863553 182.987413 
L 337.511546 201.895877 
L 339.159539 212.090455 
L 340.807531 217.47717 
L 342.455524 223.111016 
L 344.103516 229.277544 
L 345.751509 231.640555 
L 347.399502 224.164185 
L 349.047494 200.188564 
L 350.695487 164.726702 
L 352.343479 135.63611 
L 353.991472 114.992944 
L 355.639465 100.964093 
L 357.287457 91.460001 
L 358.93545 85.679322 
L 360.583443 81.930793 
L 362.231435 76.806996 
L 363.879428 68.029825 
L 365.52742 63.852025 
L 367.175413 79.795801 
L 368.823406 108.602973 
L 370.471398 141.336144 
L 372.119391 173.667899 
L 373.767383 202.013766 
L 375.415376 225.765433 
L 377.063369 246.599034 
L 378.711361 265.225645 
L 380.359354 279.444048 
L 382.007347 286.592179 
L 383.655339 282.361224 
L 385.303332 261.470268 
L 386.951324 221.127536 
L 388.599317 178.867276 
L 390.24731 154.514607 
L 391.895302 141.946138 
L 393.543295 138.98884 
L 395.191287 142.457256 
L 396.83928 148.145996 
L 398.487273 152.04336 
L 398.487273 149.51014 
L 398.487273 149.51014 
L 396.83928 146.617541 
L 395.191287 139.397622 
L 393.543295 134.389636 
L 391.895302 135.876834 
L 390.24731 147.698692 
L 388.599317 174.713917 
L 386.951324 215.178462 
L 385.303332 256.247111 
L 383.655339 279.107301 
L 382.007347 280.308276 
L 380.359354 271.977704 
L 378.711361 258.053771 
L 377.063369 241.147086 
L 375.415376 221.835583 
L 373.767383 198.562202 
L 372.119391 170.430547 
L 370.471398 138.220074 
L 368.823406 103.497987 
L 367.175413 73.988075 
L 365.52742 61.215955 
L 363.879428 62.354241 
L 362.231435 71.939839 
L 360.583443 78.834234 
L 358.93545 83.489681 
L 357.287457 89.446657 
L 355.639465 98.462151 
L 353.991472 111.501459 
L 352.343479 130.809367 
L 350.695487 159.078831 
L 349.047494 192.629028 
L 347.399502 220.800535 
L 345.751509 229.385327 
L 344.103516 225.759593 
L 342.455524 220.31198 
L 340.807531 215.653461 
L 339.159539 209.600578 
L 337.511546 199.068101 
L 335.863553 180.101763 
L 334.215561 151.842979 
L 332.567568 124.413749 
L 330.919575 110.719584 
L 329.271583 107.661022 
L 327.62359 109.935905 
L 325.975598 111.232458 
L 324.327605 107.987725 
L 322.679612 98.573853 
L 321.03162 93.125243 
L 319.383627 101.894881 
L 317.735635 122.956953 
L 316.087642 142.930646 
L 314.439649 150.390316 
L 312.791657 146.27177 
L 311.143664 138.93731 
L 309.495671 134.360307 
L 307.847679 136.828958 
L 306.199686 150.777952 
L 304.551694 180.866392 
L 302.903701 222.139532 
L 301.255708 261.258812 
L 299.607716 280.506408 
L 297.959723 280.069351 
L 296.311731 270.895307 
L 294.663738 256.492742 
L 293.015745 238.340809 
L 291.367753 217.079261 
L 289.71976 192.788056 
L 288.071767 165.396073 
L 286.423775 133.890184 
L 284.775782 98.870645 
L 283.12779 71.142187 
L 281.479797 60.248269 
L 279.831804 61.034354 
L 278.183812 69.056622 
L 276.535819 78.867455 
L 274.887826 87.257941 
L 273.239834 92.675522 
L 271.591841 99.243851 
L 269.943849 113.818975 
L 268.295856 137.12653 
L 266.647863 162.648625 
L 264.999871 184.1508 
L 263.351878 203.727165 
L 261.703886 220.739994 
L 260.055893 231.708142 
L 258.4079 231.500223 
L 256.759908 218.10147 
L 255.111915 195.288923 
L 253.463922 171.585541 
L 251.81593 157.023728 
L 250.167937 148.478378 
L 248.519945 141.463298 
L 246.871952 130.840828 
L 245.223959 113.433926 
L 243.575967 93.724455 
L 241.927974 84.508104 
L 240.279982 91.756577 
L 238.631989 110.35228 
L 236.983996 125.000049 
L 235.336004 128.83634 
L 233.688011 124.497883 
L 232.040018 120.033908 
L 230.392026 121.023781 
L 228.744033 131.437563 
L 227.096041 153.706599 
L 225.448048 188.717729 
L 223.800055 227.793813 
L 222.152063 259.881556 
L 220.50407 270.850443 
L 218.856078 266.072944 
L 217.208085 253.19459 
L 215.560092 235.996532 
L 213.9121 218.389569 
L 212.264107 200.48271 
L 210.616114 179.388266 
L 208.968122 153.469222 
L 207.320129 122.931171 
L 205.672137 91.981511 
L 204.024144 71.82551 
L 202.376151 68.679817 
L 200.728159 78.89918 
L 199.080166 90.431156 
L 197.432174 95.286624 
L 195.784181 96.163481 
L 194.136188 98.966945 
L 192.488196 106.9181 
L 190.840203 121.297903 
L 189.19221 144.036635 
L 187.544218 176.054058 
L 185.896225 211.661911 
L 184.248233 239.633493 
L 182.60024 246.008692 
L 180.952247 239.384096 
L 179.304255 229.107677 
L 177.656262 218.5337 
L 176.008269 208.133801 
L 174.360277 194.773997 
L 172.712284 176.016863 
L 171.064292 148.627441 
L 169.416299 118.007808 
L 167.768306 99.746183 
L 166.120314 94.963793 
L 164.472321 97.808968 
L 162.824329 102.51605 
L 161.176336 104.463692 
L 159.528343 100.842042 
L 157.880351 95.349938 
L 156.232358 100.621228 
L 154.584365 118.609103 
L 152.936373 142.363584 
L 151.28838 155.754517 
L 149.640388 155.473153 
L 147.992395 147.980094 
L 146.344402 141.072865 
L 144.69641 138.985979 
L 143.048417 146.038478 
L 141.400425 167.593203 
L 139.752432 206.190748 
L 138.104439 248.933905 
L 136.456447 279.01508 
L 134.808454 284.759803 
L 133.160461 278.894668 
L 131.512469 266.881655 
L 129.864476 250.787972 
L 128.216484 230.808633 
L 126.568491 206.80172 
L 124.920498 178.812975 
L 123.272506 147.860966 
L 121.624513 113.208858 
L 119.976521 79.881691 
L 118.328528 60.480538 
L 116.680535 55.974868 
L 115.032543 60.750229 
L 113.38455 68.847267 
L 111.736557 78.011743 
L 110.088565 87.199733 
L 108.440572 95.198119 
L 106.79258 105.773749 
L 105.144587 124.631663 
L 103.496594 151.162458 
L 101.848602 177.291503 
L 100.200609 193.297501 
L 98.552617 205.291399 
L 96.904624 216.036174 
L 95.256631 223.362915 
L 93.608639 223.441603 
L 91.960646 211.764475 
L 90.312653 188.948075 
L 88.664661 162.651947 
L 87.016668 145.477313 
L 85.368676 137.462686 
L 83.720683 133.592154 
L 82.07269 127.946857 
L 80.424698 116.808525 
L 78.776705 99.839003 
L 77.128713 87.884242 
L 75.48072 91.824333 
L 73.832727 109.170864 
z
" style="fill:#008000;fill-opacity:0.4;"/>
   </g>
   <g id="matplotlib.axis_1">
    <g id="xtick_1">
     <g id="line2d_1">
      <defs>
       <path d="M 0 0 
L 0 3.5 
" id="m8d37501b2a" style="stroke:#000000;stroke-width:0.8;"/>
      </defs>
      <g>
       <use style="stroke:#000000;stroke-width:0.8;" x="73.832727" xlink:href="#m8d37501b2a" y="307.584"/>
      </g>
     </g>
     <g id="text_1">
      <!-- 0.0 -->
      <defs>
       <path d="M 31.78125 66.40625 
Q 24.171875 66.40625 20.328125 58.90625 
Q 16.5 51.421875 16.5 36.375 
Q 16.5 21.390625 20.328125 13.890625 
Q 24.171875 6.390625 31.78125 6.390625 
Q 39.453125 6.390625 43.28125 13.890625 
Q 47.125 21.390625 47.125 36.375 
Q 47.125 51.421875 43.28125 58.90625 
Q 39.453125 66.40625 31.78125 66.40625 
M 31.78125 74.21875 
Q 44.046875 74.21875 50.515625 64.515625 
Q 56.984375 54.828125 56.984375 36.375 
Q 56.984375 17.96875 50.515625 8.265625 
Q 44.046875 -1.421875 31.78125 -1.421875 
Q 19.53125 -1.421875 13.0625 8.265625 
Q 6.59375 17.96875 6.59375 36.375 
Q 6.59375 54.828125 13.0625 64.515625 
Q 19.53125 74.21875 31.78125 74.21875 
" id="DejaVuSans-30"/>
       <path d="M 10.6875 12.40625 
L 21 12.40625 
L 21 0 
L 10.6875 0 
z
" id="DejaVuSans-2e"/>
      </defs>
      <g transform="translate(65.881165 322.182437)scale(0.1 -0.1)">
       <use xlink:href="#DejaVuSans-30"/>
       <use x="63.623047" xlink:href="#DejaVuSans-2e"/>
       <use x="95.410156" xlink:href="#DejaVuSans-30"/>
      </g>
     </g>
    </g>
    <g id="xtick_2">
     <g id="line2d_2">
      <g>
       <use style="stroke:#000000;stroke-width:0.8;" x="138.763636" xlink:href="#m8d37501b2a" y="307.584"/>
      </g>
     </g>
     <g id="text_2">
      <!-- 0.2 -->
      <defs>
       <path d="M 19.1875 8.296875 
L 53.609375 8.296875 
L 53.609375 0 
L 7.328125 0 
L 7.328125 8.296875 
Q 12.9375 14.109375 22.625 23.890625 
Q 32.328125 33.6875 34.8125 36.53125 
Q 39.546875 41.84375 41.421875 45.53125 
Q 43.3125 49.21875 43.3125 52.78125 
Q 43.3125 58.59375 39.234375 62.25 
Q 35.15625 65.921875 28.609375 65.921875 
Q 23.96875 65.921875 18.8125 64.3125 
Q 13.671875 62.703125 7.8125 59.421875 
L 7.8125 69.390625 
Q 13.765625 71.78125 18.9375 73 
Q 24.125 74.21875 28.421875 74.21875 
Q 39.75 74.21875 46.484375 68.546875 
Q 53.21875 62.890625 53.21875 53.421875 
Q 53.21875 48.921875 51.53125 44.890625 
Q 49.859375 40.875 45.40625 35.40625 
Q 44.1875 33.984375 37.640625 27.21875 
Q 31.109375 20.453125 19.1875 8.296875 
" id="DejaVuSans-32"/>
      </defs>
      <g transform="translate(130.812074 322.182437)scale(0.1 -0.1)">
       <use xlink:href="#DejaVuSans-30"/>
       <use x="63.623047" xlink:href="#DejaVuSans-2e"/>
       <use x="95.410156" xlink:href="#DejaVuSans-32"/>
      </g>
     </g>
    </g>
    <g id="xtick_3">
     <g id="line2d_3">
      <g>
       <use style="stroke:#000000;stroke-width:0.8;" x="203.694545" xlink:href="#m8d37501b2a" y="307.584"/>
      </g>
     </g>
     <g id="text_3">
      <!-- 0.4 -->
      <defs>
       <path d="M 37.796875 64.3125 
L 12.890625 25.390625 
L 37.796875 25.390625 
z
M 35.203125 72.90625 
L 47.609375 72.90625 
L 47.609375 25.390625 
L 58.015625 25.390625 
L 58.015625 17.1875 
L 47.609375 17.1875 
L 47.609375 0 
L 37.796875 0 
L 37.796875 17.1875 
L 4.890625 17.1875 
L 4.890625 26.703125 
z
" id="DejaVuSans-34"/>
      </defs>
      <g transform="translate(195.742983 322.182437)scale(0.1 -0.1)">
       <use xlink:href="#DejaVuSans-30"/>
       <use x="63.623047" xlink:href="#DejaVuSans-2e"/>
       <use x="95.410156" xlink:href="#DejaVuSans-34"/>
      </g>
     </g>
    </g>
    <g id="xtick_4">
     <g id="line2d_4">
      <g>
       <use style="stroke:#000000;stroke-width:0.8;" x="268.625455" xlink:href="#m8d37501b2a" y="307.584"/>
      </g>
     </g>
     <g id="text_4">
      <!-- 0.6 -->
      <defs>
       <path d="M 33.015625 40.375 
Q 26.375 40.375 22.484375 35.828125 
Q 18.609375 31.296875 18.609375 23.390625 
Q 18.609375 15.53125 22.484375 10.953125 
Q 26.375 6.390625 33.015625 6.390625 
Q 39.65625 6.390625 43.53125 10.953125 
Q 47.40625 15.53125 47.40625 23.390625 
Q 47.40625 31.296875 43.53125 35.828125 
Q 39.65625 40.375 33.015625 40.375 
M 52.59375 71.296875 
L 52.59375 62.3125 
Q 48.875 64.0625 45.09375 64.984375 
Q 41.3125 65.921875 37.59375 65.921875 
Q 27.828125 65.921875 22.671875 59.328125 
Q 17.53125 52.734375 16.796875 39.40625 
Q 19.671875 43.65625 24.015625 45.921875 
Q 28.375 48.1875 33.59375 48.1875 
Q 44.578125 48.1875 50.953125 41.515625 
Q 57.328125 34.859375 57.328125 23.390625 
Q 57.328125 12.15625 50.6875 5.359375 
Q 44.046875 -1.421875 33.015625 -1.421875 
Q 20.359375 -1.421875 13.671875 8.265625 
Q 6.984375 17.96875 6.984375 36.375 
Q 6.984375 53.65625 15.1875 63.9375 
Q 23.390625 74.21875 37.203125 74.21875 
Q 40.921875 74.21875 44.703125 73.484375 
Q 48.484375 72.75 52.59375 71.296875 
" id="DejaVuSans-36"/>
      </defs>
      <g transform="translate(260.673892 322.182437)scale(0.1 -0.1)">
       <use xlink:href="#DejaVuSans-30"/>
       <use x="63.623047" xlink:href="#DejaVuSans-2e"/>
       <use x="95.410156" xlink:href="#DejaVuSans-36"/>
      </g>
     </g>
    </g>
    <g id="xtick_5">
     <g id="line2d_5">
      <g>
       <use style="stroke:#000000;stroke-width:0.8;" x="333.556364" xlink:href="#m8d37501b2a" y="307.584"/>
      </g>
     </g>
     <g id="text_5">
      <!-- 0.8 -->
      <defs>
       <path d="M 31.78125 34.625 
Q 24.75 34.625 20.71875 30.859375 
Q 16.703125 27.09375 16.703125 20.515625 
Q 16.703125 13.921875 20.71875 10.15625 
Q 24.75 6.390625 31.78125 6.390625 
Q 38.8125 6.390625 42.859375 10.171875 
Q 46.921875 13.96875 46.921875 20.515625 
Q 46.921875 27.09375 42.890625 30.859375 
Q 38.875 34.625 31.78125 34.625 
M 21.921875 38.8125 
Q 15.578125 40.375 12.03125 44.71875 
Q 8.5 49.078125 8.5 55.328125 
Q 8.5 64.0625 14.71875 69.140625 
Q 20.953125 74.21875 31.78125 74.21875 
Q 42.671875 74.21875 48.875 69.140625 
Q 55.078125 64.0625 55.078125 55.328125 
Q 55.078125 49.078125 51.53125 44.71875 
Q 48 40.375 41.703125 38.8125 
Q 48.828125 37.15625 52.796875 32.3125 
Q 56.78125 27.484375 56.78125 20.515625 
Q 56.78125 9.90625 50.3125 4.234375 
Q 43.84375 -1.421875 31.78125 -1.421875 
Q 19.734375 -1.421875 13.25 4.234375 
Q 6.78125 9.90625 6.78125 20.515625 
Q 6.78125 27.484375 10.78125 32.3125 
Q 14.796875 37.15625 21.921875 38.8125 
M 18.3125 54.390625 
Q 18.3125 48.734375 21.84375 45.5625 
Q 25.390625 42.390625 31.78125 42.390625 
Q 38.140625 42.390625 41.71875 45.5625 
Q 45.3125 48.734375 45.3125 54.390625 
Q 45.3125 60.0625 41.71875 63.234375 
Q 38.140625 66.40625 31.78125 66.40625 
Q 25.390625 66.40625 21.84375 63.234375 
Q 18.3125 60.0625 18.3125 54.390625 
" id="DejaVuSans-38"/>
      </defs>
      <g transform="translate(325.604801 322.182437)scale(0.1 -0.1)">
       <use xlink:href="#DejaVuSans-30"/>
       <use x="63.623047" xlink:href="#DejaVuSans-2e"/>
       <use x="95.410156" xlink:href="#DejaVuSans-38"/>
      </g>
     </g>
    </g>
    <g id="xtick_6">
     <g id="line2d_6">
      <g>
       <use style="stroke:#000000;stroke-width:0.8;" x="398.487273" xlink:href="#m8d37501b2a" y="307.584"/>
      </g>
     </g>
     <g id="text_6">
      <!-- 1.0 -->
      <defs>
       <path d="M 12.40625 8.296875 
L 28.515625 8.296875 
L 28.515625 63.921875 
L 10.984375 60.40625 
L 10.984375 69.390625 
L 28.421875 72.90625 
L 38.28125 72.90625 
L 38.28125 8.296875 
L 54.390625 8.296875 
L 54.390625 0 
L 12.40625 0 
z
" id="DejaVuSans-31"/>
      </defs>
      <g transform="translate(390.53571 322.182437)scale(0.1 -0.1)">
       <use xlink:href="#DejaVuSans-31"/>
       <use x="63.623047" xlink:href="#DejaVuSans-2e"/>
       <use x="95.410156" xlink:href="#DejaVuSans-30"/>
      </g>
     </g>
    </g>
   </g>
   <g id="matplotlib.axis_2">
    <g id="ytick_1">
     <g id="line2d_7">
      <defs>
       <path d="M 0 0 
L -3.5 0 
" id="m57d5a4d22e" style="stroke:#000000;stroke-width:0.8;"/>
      </defs>
      <g>
       <use style="stroke:#000000;stroke-width:0.8;" x="57.6" xlink:href="#m57d5a4d22e" y="286.290496"/>
      </g>
     </g>
     <g id="text_7">
      <!-- 0.20 -->
      <g transform="translate(28.334375 290.089715)scale(0.1 -0.1)">
       <use xlink:href="#DejaVuSans-30"/>
       <use x="63.623047" xlink:href="#DejaVuSans-2e"/>
       <use x="95.410156" xlink:href="#DejaVuSans-32"/>
       <use x="159.033203" xlink:href="#DejaVuSans-30"/>
      </g>
     </g>
    </g>
    <g id="ytick_2">
     <g id="line2d_8">
      <g>
       <use style="stroke:#000000;stroke-width:0.8;" x="57.6" xlink:href="#m57d5a4d22e" y="254.629553"/>
      </g>
     </g>
     <g id="text_8">
      <!-- 0.25 -->
      <defs>
       <path d="M 10.796875 72.90625 
L 49.515625 72.90625 
L 49.515625 64.59375 
L 19.828125 64.59375 
L 19.828125 46.734375 
Q 21.96875 47.46875 24.109375 47.828125 
Q 26.265625 48.1875 28.421875 48.1875 
Q 40.625 48.1875 47.75 41.5 
Q 54.890625 34.8125 54.890625 23.390625 
Q 54.890625 11.625 47.5625 5.09375 
Q 40.234375 -1.421875 26.90625 -1.421875 
Q 22.3125 -1.421875 17.546875 -0.640625 
Q 12.796875 0.140625 7.71875 1.703125 
L 7.71875 11.625 
Q 12.109375 9.234375 16.796875 8.0625 
Q 21.484375 6.890625 26.703125 6.890625 
Q 35.15625 6.890625 40.078125 11.328125 
Q 45.015625 15.765625 45.015625 23.390625 
Q 45.015625 31 40.078125 35.4375 
Q 35.15625 39.890625 26.703125 39.890625 
Q 22.75 39.890625 18.8125 39.015625 
Q 14.890625 38.140625 10.796875 36.28125 
z
" id="DejaVuSans-35"/>
      </defs>
      <g transform="translate(28.334375 258.428772)scale(0.1 -0.1)">
       <use xlink:href="#DejaVuSans-30"/>
       <use x="63.623047" xlink:href="#DejaVuSans-2e"/>
       <use x="95.410156" xlink:href="#DejaVuSans-32"/>
       <use x="159.033203" xlink:href="#DejaVuSans-35"/>
      </g>
     </g>
    </g>
    <g id="ytick_3">
     <g id="line2d_9">
      <g>
       <use style="stroke:#000000;stroke-width:0.8;" x="57.6" xlink:href="#m57d5a4d22e" y="222.96861"/>
      </g>
     </g>
     <g id="text_9">
      <!-- 0.30 -->
      <defs>
       <path d="M 40.578125 39.3125 
Q 47.65625 37.796875 51.625 33 
Q 55.609375 28.21875 55.609375 21.1875 
Q 55.609375 10.40625 48.1875 4.484375 
Q 40.765625 -1.421875 27.09375 -1.421875 
Q 22.515625 -1.421875 17.65625 -0.515625 
Q 12.796875 0.390625 7.625 2.203125 
L 7.625 11.71875 
Q 11.71875 9.328125 16.59375 8.109375 
Q 21.484375 6.890625 26.8125 6.890625 
Q 36.078125 6.890625 40.9375 10.546875 
Q 45.796875 14.203125 45.796875 21.1875 
Q 45.796875 27.640625 41.28125 31.265625 
Q 36.765625 34.90625 28.71875 34.90625 
L 20.21875 34.90625 
L 20.21875 43.015625 
L 29.109375 43.015625 
Q 36.375 43.015625 40.234375 45.921875 
Q 44.09375 48.828125 44.09375 54.296875 
Q 44.09375 59.90625 40.109375 62.90625 
Q 36.140625 65.921875 28.71875 65.921875 
Q 24.65625 65.921875 20.015625 65.03125 
Q 15.375 64.15625 9.8125 62.3125 
L 9.8125 71.09375 
Q 15.4375 72.65625 20.34375 73.4375 
Q 25.25 74.21875 29.59375 74.21875 
Q 40.828125 74.21875 47.359375 69.109375 
Q 53.90625 64.015625 53.90625 55.328125 
Q 53.90625 49.265625 50.4375 45.09375 
Q 46.96875 40.921875 40.578125 39.3125 
" id="DejaVuSans-33"/>
      </defs>
      <g transform="translate(28.334375 226.767829)scale(0.1 -0.1)">
       <use xlink:href="#DejaVuSans-30"/>
       <use x="63.623047" xlink:href="#DejaVuSans-2e"/>
       <use x="95.410156" xlink:href="#DejaVuSans-33"/>
       <use x="159.033203" xlink:href="#DejaVuSans-30"/>
      </g>
     </g>
    </g>
    <g id="ytick_4">
     <g id="line2d_10">
      <g>
       <use style="stroke:#000000;stroke-width:0.8;" x="57.6" xlink:href="#m57d5a4d22e" y="191.307667"/>
      </g>
     </g>
     <g id="text_10">
      <!-- 0.35 -->
      <g transform="translate(28.334375 195.106885)scale(0.1 -0.1)">
       <use xlink:href="#DejaVuSans-30"/>
       <use x="63.623047" xlink:href="#DejaVuSans-2e"/>
       <use x="95.410156" xlink:href="#DejaVuSans-33"/>
       <use x="159.033203" xlink:href="#DejaVuSans-35"/>
      </g>
     </g>
    </g>
    <g id="ytick_5">
     <g id="line2d_11">
      <g>
       <use style="stroke:#000000;stroke-width:0.8;" x="57.6" xlink:href="#m57d5a4d22e" y="159.646724"/>
      </g>
     </g>
     <g id="text_11">
      <!-- 0.40 -->
      <g transform="translate(28.334375 163.445942)scale(0.1 -0.1)">
       <use xlink:href="#DejaVuSans-30"/>
       <use x="63.623047" xlink:href="#DejaVuSans-2e"/>
       <use x="95.410156" xlink:href="#DejaVuSans-34"/>
       <use x="159.033203" xlink:href="#DejaVuSans-30"/>
      </g>
     </g>
    </g>
    <g id="ytick_6">
     <g id="line2d_12">
      <g>
       <use style="stroke:#000000;stroke-width:0.8;" x="57.6" xlink:href="#m57d5a4d22e" y="127.98578"/>
      </g>
     </g>
     <g id="text_12">
      <!-- 0.45 -->
      <g transform="translate(28.334375 131.784999)scale(0.1 -0.1)">
       <use xlink:href="#DejaVuSans-30"/>
       <use x="63.623047" xlink:href="#DejaVuSans-2e"/>
       <use x="95.410156" xlink:href="#DejaVuSans-34"/>
       <use x="159.033203" xlink:href="#DejaVuSans-35"/>
      </g>
     </g>
    </g>
    <g id="ytick_7">
     <g id="line2d_13">
      <g>
       <use style="stroke:#000000;stroke-width:0.8;" x="57.6" xlink:href="#m57d5a4d22e" y="96.324837"/>
      </g>
     </g>
     <g id="text_13">
      <!-- 0.50 -->
      <g transform="translate(28.334375 100.124056)scale(0.1 -0.1)">
       <use xlink:href="#DejaVuSans-30"/>
       <use x="63.623047" xlink:href="#DejaVuSans-2e"/>
       <use x="95.410156" xlink:href="#DejaVuSans-35"/>
       <use x="159.033203" xlink:href="#DejaVuSans-30"/>
      </g>
     </g>
    </g>
    <g id="ytick_8">
     <g id="line2d_14">
      <g>
       <use style="stroke:#000000;stroke-width:0.8;" x="57.6" xlink:href="#m57d5a4d22e" y="64.663894"/>
      </g>
     </g>
     <g id="text_14">
      <!-- 0.55 -->
      <g transform="translate(28.334375 68.463113)scale(0.1 -0.1)">
       <use xlink:href="#DejaVuSans-30"/>
       <use x="63.623047" xlink:href="#DejaVuSans-2e"/>
       <use x="95.410156" xlink:href="#DejaVuSans-35"/>
       <use x="159.033203" xlink:href="#DejaVuSans-35"/>
      </g>
     </g>
    </g>
   </g>
   <g id="line2d_15">
    <path clip-path="url(#pdebbd55335)" d="M 73.832727 108.231885 
L 75.48072 94.218751 
L 77.128713 94.038284 
L 78.776705 104.502226 
L 80.424698 117.457884 
L 82.07269 127.535562 
L 83.720683 133.535944 
L 85.368676 138.774563 
L 87.016668 149.765343 
L 88.664661 169.708571 
L 90.312653 192.920475 
L 91.960646 211.662487 
L 93.608639 221.446985 
L 95.256631 221.538168 
L 96.904624 214.777924 
L 98.552617 204.902876 
L 100.200609 192.664021 
L 101.848602 174.683139 
L 105.144587 126.273557 
L 106.79258 108.653609 
L 108.440572 96.250751 
L 113.38455 66.151958 
L 115.032543 57.429369 
L 116.680535 53.568 
L 118.328528 62.753473 
L 119.976521 86.66635 
L 126.568491 209.08212 
L 128.216484 235.324609 
L 129.864476 258.734711 
L 131.512469 278.479741 
L 133.160461 292.327605 
L 134.808454 295.488 
L 136.456447 280.767561 
L 138.104439 246.810566 
L 139.752432 206.613833 
L 141.400425 174.340567 
L 143.048417 154.589838 
L 144.69641 146.16676 
L 146.344402 146.146497 
L 149.640388 155.38896 
L 151.28838 153.272742 
L 152.936373 139.675634 
L 154.584365 118.819304 
L 156.232358 103.853176 
L 157.880351 100.120351 
L 159.528343 102.092195 
L 161.176336 103.522003 
L 162.824329 101.610315 
L 164.472321 97.551382 
L 166.120314 96.097512 
L 167.768306 104.661164 
L 169.416299 126.070927 
L 171.064292 152.352675 
L 172.712284 175.738714 
L 174.360277 193.899431 
L 176.008269 208.144323 
L 179.304255 233.395825 
L 180.952247 243.949684 
L 182.60024 247.353868 
L 184.248233 235.783693 
L 185.896225 208.510323 
L 187.544218 176.07622 
L 189.19221 147.433831 
L 190.840203 125.366787 
L 192.488196 110.077718 
L 194.136188 101.070813 
L 195.784181 96.905499 
L 197.432174 94.257378 
L 199.080166 88.024604 
L 200.728159 76.610201 
L 202.376151 69.202174 
L 204.024144 77.152237 
L 205.672137 99.000187 
L 208.968122 154.54108 
L 210.616114 179.351861 
L 213.9121 221.761695 
L 215.560092 242.720606 
L 217.208085 261.7425 
L 218.856078 274.474632 
L 220.50407 275.143944 
L 222.152063 258.003976 
L 223.800055 225.410302 
L 225.448048 189.135093 
L 227.096041 158.702594 
L 228.744033 137.796873 
L 230.392026 126.947301 
L 232.040018 124.422025 
L 233.688011 126.574336 
L 235.336004 128.107992 
L 236.983996 122.935227 
L 238.631989 108.607384 
L 240.279982 92.992206 
L 241.927974 89.612717 
L 243.575967 99.986109 
L 245.223959 115.973619 
L 246.871952 130.671262 
L 248.519945 141.219421 
L 250.167937 149.128325 
L 251.81593 159.783499 
L 253.463922 177.792243 
L 255.111915 200.222122 
L 256.759908 219.654975 
L 258.4079 230.331045 
L 260.055893 229.545854 
L 261.703886 218.812161 
L 263.351878 202.505509 
L 264.999871 183.576698 
L 266.647863 161.560944 
L 268.295856 137.085135 
L 269.943849 116.014778 
L 271.591841 102.070032 
L 273.239834 93.301217 
L 274.887826 85.699425 
L 276.535819 76.59627 
L 278.183812 66.390049 
L 279.831804 58.631851 
L 281.479797 60.116116 
L 283.12779 76.961004 
L 284.775782 105.153808 
L 288.071767 166.372774 
L 291.367753 220.191312 
L 293.015745 244.348611 
L 294.663738 265.794468 
L 296.311731 282.74447 
L 297.959723 291.498088 
L 299.607716 285.442616 
L 301.255708 259.506605 
L 304.551694 184.410647 
L 306.199686 158.528459 
L 307.847679 144.510893 
L 309.495671 140.336081 
L 311.143664 142.781572 
L 312.791657 147.563641 
L 314.439649 148.758525 
L 316.087642 140.240465 
L 319.383627 104.206512 
L 321.03162 98.455619 
L 322.679612 102.073198 
L 324.327605 107.68415 
L 325.975598 110.447518 
L 327.62359 109.60407 
L 329.271583 108.615615 
L 330.919575 114.355111 
L 332.567568 132.202385 
L 334.215561 157.242391 
L 335.863553 180.523316 
L 337.511546 197.640488 
L 339.159539 208.616704 
L 340.807531 216.111483 
L 342.455524 222.769146 
L 344.103516 228.512441 
L 345.751509 228.927832 
L 347.399502 216.332476 
L 349.047494 189.796806 
L 350.695487 159.741706 
L 352.343479 134.171062 
L 353.991472 114.489354 
L 355.639465 99.876562 
L 357.287457 89.550029 
L 358.93545 82.585888 
L 360.583443 76.722281 
L 363.879428 60.031265 
L 365.52742 62.336815 
L 367.175413 80.750819 
L 368.823406 109.296959 
L 372.119391 171.773498 
L 373.767383 199.687685 
L 375.415376 224.624477 
L 377.063369 247.445685 
L 378.711361 268.010101 
L 380.359354 283.994444 
L 382.007347 291.148551 
L 383.655339 282.639356 
L 385.303332 253.974805 
L 386.951324 214.512605 
L 388.599317 179.482938 
L 390.24731 155.623884 
L 391.895302 143.151372 
L 393.543295 139.987177 
L 395.191287 142.906316 
L 396.83928 147.477523 
L 398.487273 147.605434 
L 398.487273 147.605434 
" style="fill:none;stroke:#1f77b4;stroke-linecap:square;stroke-width:1.5;"/>
   </g>
   <g id="line2d_16">
    <path clip-path="url(#pdebbd55335)" d="M 73.832727 112.805109 
L 75.48072 94.10457 
L 77.128713 90.791342 
L 78.776705 102.583641 
L 80.424698 117.869636 
L 82.07269 129.401383 
L 83.720683 135.362495 
L 85.368676 138.638711 
L 87.016668 146.479691 
L 88.664661 165.602132 
L 90.312653 191.615952 
L 91.960646 212.882583 
L 93.608639 223.873083 
L 95.256631 224.139866 
L 96.904624 216.546625 
L 98.552617 205.793632 
L 100.200609 194.131629 
L 101.848602 178.234353 
L 103.496594 153.383136 
L 105.144587 126.387059 
L 106.79258 107.924979 
L 108.440572 97.065284 
L 111.736557 80.414237 
L 113.38455 71.716499 
L 115.032543 63.795216 
L 116.680535 58.713333 
L 118.328528 63.136743 
L 119.976521 84.244018 
L 124.920498 180.073755 
L 126.568491 208.452959 
L 128.216484 233.463462 
L 129.864476 254.628085 
L 131.512469 271.619078 
L 133.160461 283.538004 
L 134.808454 287.949387 
L 136.456447 279.517882 
L 138.104439 251.180984 
L 139.752432 208.114722 
L 141.400425 171.185851 
L 143.048417 150.145868 
L 144.69641 142.260559 
L 146.344402 143.275611 
L 147.992395 149.407693 
L 149.640388 156.149931 
L 151.28838 157.074441 
L 152.936373 145.377866 
L 154.584365 122.059776 
L 156.232358 102.296965 
L 157.880351 98.030964 
L 159.528343 102.384921 
L 161.176336 105.910284 
L 162.824329 104.875781 
L 164.472321 100.269325 
L 166.120314 96.646174 
L 167.768306 101.317585 
L 169.416299 121.375002 
L 171.064292 150.852437 
L 172.712284 176.741495 
L 174.360277 195.269715 
L 176.008269 208.471007 
L 180.952247 241.927704 
L 182.60024 247.577598 
L 184.248233 240.541182 
L 185.896225 214.472679 
L 187.544218 178.037667 
L 189.19221 146.478959 
L 190.840203 123.957325 
L 192.488196 109.144472 
L 194.136188 100.791674 
L 195.784181 97.530507 
L 197.432174 96.606273 
L 199.080166 92.990316 
L 202.376151 71.480747 
L 204.024144 74.843268 
L 205.672137 95.902122 
L 208.968122 154.349621 
L 210.616114 179.919952 
L 212.264107 201.152485 
L 217.208085 257.346965 
L 218.856078 269.797706 
L 220.50407 272.776076 
L 222.152063 260.812313 
L 223.800055 230.217161 
L 225.448048 190.429687 
L 227.096041 156.775976 
L 228.744033 134.721388 
L 230.392026 123.87727 
L 232.040018 122.133853 
L 235.336004 129.606518 
L 236.983996 127.19649 
L 238.631989 113.838979 
L 240.279982 94.849247 
L 241.927974 86.812267 
L 243.575967 96.998663 
L 245.223959 115.276802 
L 246.871952 131.849984 
L 248.519945 142.999036 
L 250.167937 149.737758 
L 251.81593 157.67723 
L 253.463922 174.008563 
L 255.111915 198.147511 
L 256.759908 219.98136 
L 258.4079 232.23244 
L 260.055893 232.531101 
L 261.703886 221.775974 
L 263.351878 204.506732 
L 264.999871 185.197622 
L 266.647863 163.891269 
L 268.295856 138.831526 
L 269.943849 115.579555 
L 271.591841 101.412386 
L 273.239834 94.372686 
L 274.887826 88.966241 
L 276.535819 81.589934 
L 278.183812 72.215874 
L 279.831804 63.979953 
L 281.479797 62.344237 
L 283.12779 74.88816 
L 284.775782 102.592277 
L 288.071767 166.280147 
L 289.71976 193.941633 
L 291.367753 218.998304 
L 293.015745 241.542225 
L 294.663738 260.751062 
L 296.311731 275.489761 
L 297.959723 283.932481 
L 299.607716 282.006261 
L 301.255708 262.704685 
L 302.903701 224.55246 
L 304.551694 183.337761 
L 306.199686 154.679477 
L 307.847679 140.432474 
L 309.495671 137.040076 
L 311.143664 140.668469 
L 312.791657 147.254133 
L 314.439649 151.2097 
L 316.087642 145.387506 
L 317.735635 126.543426 
L 319.383627 104.332717 
L 321.03162 95.68301 
L 322.679612 100.895135 
L 324.327605 108.917351 
L 325.975598 113.119846 
L 327.62359 112.246937 
L 329.271583 109.484781 
L 330.919575 111.735487 
L 332.567568 127.157836 
L 335.863553 181.265888 
L 337.511546 199.553776 
L 339.159539 210.00227 
L 340.807531 216.085069 
L 342.455524 221.559581 
L 344.103516 227.422344 
L 345.751509 230.225078 
L 347.399502 221.864811 
L 349.047494 195.58673 
L 350.695487 161.066465 
L 352.343479 133.180177 
L 353.991472 113.849514 
L 355.639465 100.315863 
L 357.287457 90.995531 
L 358.93545 85.071144 
L 360.583443 80.886568 
L 362.231435 74.970219 
L 363.879428 65.902537 
L 365.52742 63.282223 
L 367.175413 78.309988 
L 368.823406 106.823171 
L 372.119391 171.562738 
L 373.767383 199.731454 
L 375.415376 223.652341 
L 377.063369 244.328721 
L 378.711361 262.493568 
L 380.359354 276.597802 
L 382.007347 283.936762 
L 383.655339 280.191158 
L 385.303332 258.051996 
L 388.599317 177.583043 
L 390.24731 151.685374 
L 391.895302 139.274943 
L 393.543295 136.877864 
L 395.191287 141.01176 
L 396.83928 147.481002 
L 398.487273 150.471563 
L 398.487273 150.471563 
" style="fill:none;stroke:#ff7f0e;stroke-linecap:square;stroke-width:1.5;"/>
   </g>
   <g id="line2d_17">
    <path clip-path="url(#pdebbd55335)" d="M 73.832727 117.625524 
L 75.48072 96.224324 
L 77.128713 91.994601 
L 78.776705 104.183741 
L 80.424698 118.457392 
L 82.07269 131.165198 
L 83.720683 137.578017 
L 85.368676 140.264299 
L 87.016668 147.380779 
L 88.664661 168.340806 
L 90.312653 194.130542 
L 91.960646 214.697249 
L 93.608639 226.087989 
L 95.256631 226.278864 
L 96.904624 218.272759 
L 100.200609 195.076007 
L 101.848602 180.414061 
L 103.496594 157.850207 
L 105.144587 130.034004 
L 106.79258 108.925586 
L 108.440572 97.327193 
L 111.736557 81.728201 
L 115.032543 65.340508 
L 116.680535 60.042269 
L 118.328528 63.560844 
L 119.976521 85.846088 
L 126.568491 210.643507 
L 128.216484 235.653831 
L 129.864476 257.111808 
L 131.512469 274.416852 
L 133.160461 286.461721 
L 134.808454 290.571668 
L 136.456447 281.80806 
L 138.104439 254.731195 
L 139.752432 211.073889 
L 141.400425 173.147476 
L 143.048417 153.301276 
L 144.69641 144.987182 
L 146.344402 145.343813 
L 147.992395 150.762061 
L 149.640388 156.825689 
L 151.28838 159.070929 
L 152.936373 149.962603 
L 156.232358 103.866593 
L 157.880351 99.263967 
L 159.528343 102.789293 
L 161.176336 106.876052 
L 162.824329 106.753756 
L 166.120314 97.721686 
L 167.768306 101.765811 
L 169.416299 123.90784 
L 171.064292 152.83312 
L 172.712284 178.714796 
L 174.360277 197.584036 
L 176.008269 210.264857 
L 177.656262 221.333799 
L 179.304255 233.329662 
L 180.952247 244.135292 
L 182.60024 249.267646 
L 184.248233 242.816918 
L 185.896225 218.725265 
L 187.544218 181.552888 
L 189.19221 149.42436 
L 190.840203 125.324125 
L 192.488196 109.92277 
L 194.136188 101.225494 
L 195.784181 97.710685 
L 197.432174 97.226452 
L 199.080166 94.803847 
L 200.728159 85.407152 
L 202.376151 72.942799 
L 204.024144 75.580823 
L 205.672137 97.924034 
L 210.616114 182.121904 
L 212.264107 203.211117 
L 217.208085 260.069953 
L 218.856078 272.2662 
L 220.50407 274.833238 
L 222.152063 263.351648 
L 223.800055 233.902817 
L 225.448048 193.254746 
L 227.096041 158.543922 
L 228.744033 136.753788 
L 230.392026 125.638016 
L 232.040018 123.537175 
L 233.688011 126.45807 
L 235.336004 130.434995 
L 236.983996 129.684077 
L 238.631989 118.229131 
L 240.279982 98.033291 
L 241.927974 87.196183 
L 243.575967 98.962538 
L 246.871952 133.324641 
L 248.519945 145.214303 
L 251.81593 158.474454 
L 253.463922 176.362821 
L 255.111915 200.93402 
L 256.759908 221.854063 
L 258.4079 234.277301 
L 260.055893 234.778002 
L 261.703886 224.035628 
L 263.351878 206.418845 
L 266.647863 166.146064 
L 268.295856 143.028364 
L 269.943849 117.982814 
L 271.591841 101.973739 
L 273.239834 94.548418 
L 274.887826 89.915461 
L 276.535819 83.237197 
L 279.831804 65.460467 
L 281.479797 63.010695 
L 283.12779 75.834888 
L 284.775782 104.446777 
L 288.071767 168.427088 
L 289.71976 196.161175 
L 291.367753 221.043149 
L 293.015745 243.859314 
L 294.663738 263.391635 
L 296.311731 278.296775 
L 297.959723 286.641437 
L 299.607716 284.182473 
L 301.255708 265.817635 
L 302.903701 228.170409 
L 304.551694 185.027361 
L 306.199686 157.279936 
L 307.847679 143.24407 
L 309.495671 139.29302 
L 311.143664 142.233411 
L 312.791657 148.054783 
L 314.439649 152.562051 
L 316.087642 148.782443 
L 317.735635 132.159646 
L 319.383627 107.539371 
L 321.03162 96.584406 
L 322.679612 102.091967 
L 324.327605 109.355135 
L 325.975598 114.749127 
L 327.62359 114.339174 
L 329.271583 111.079449 
L 330.919575 111.95614 
L 332.567568 129.40544 
L 334.215561 157.32007 
L 335.863553 182.987413 
L 337.511546 201.895877 
L 339.159539 212.090455 
L 342.455524 223.111016 
L 344.103516 229.277544 
L 345.751509 231.640555 
L 347.399502 224.164185 
L 349.047494 200.188564 
L 350.695487 164.726702 
L 352.343479 135.63611 
L 353.991472 114.992944 
L 355.639465 100.964093 
L 357.287457 91.460001 
L 358.93545 85.679322 
L 360.583443 81.930793 
L 362.231435 76.806996 
L 363.879428 68.029825 
L 365.52742 63.852025 
L 367.175413 79.795801 
L 368.823406 108.602973 
L 372.119391 173.667899 
L 373.767383 202.013766 
L 375.415376 225.765433 
L 377.063369 246.599034 
L 378.711361 265.225645 
L 380.359354 279.444048 
L 382.007347 286.592179 
L 383.655339 282.361224 
L 385.303332 261.470268 
L 388.599317 178.867276 
L 390.24731 154.514607 
L 391.895302 141.946138 
L 393.543295 138.98884 
L 395.191287 142.457256 
L 396.83928 148.145996 
L 398.487273 152.04336 
L 398.487273 152.04336 
" style="fill:none;stroke:#2ca02c;stroke-linecap:square;stroke-width:1.5;"/>
   </g>
   <g id="line2d_18">
    <path clip-path="url(#pdebbd55335)" d="M 73.832727 109.170864 
L 75.48072 91.824333 
L 77.128713 87.884242 
L 78.776705 99.839003 
L 80.424698 116.808525 
L 82.07269 127.946857 
L 83.720683 133.592154 
L 85.368676 137.462686 
L 87.016668 145.477313 
L 88.664661 162.651947 
L 90.312653 188.948075 
L 91.960646 211.764475 
L 93.608639 223.441603 
L 95.256631 223.362915 
L 96.904624 216.036174 
L 98.552617 205.291399 
L 100.200609 193.297501 
L 101.848602 177.291503 
L 105.144587 124.631663 
L 106.79258 105.773749 
L 108.440572 95.198119 
L 110.088565 87.199733 
L 113.38455 68.847267 
L 115.032543 60.750229 
L 116.680535 55.974868 
L 118.328528 60.480538 
L 119.976521 79.881691 
L 124.920498 178.812975 
L 126.568491 206.80172 
L 128.216484 230.808633 
L 129.864476 250.787972 
L 131.512469 266.881655 
L 133.160461 278.894668 
L 134.808454 284.759803 
L 136.456447 279.01508 
L 138.104439 248.933905 
L 139.752432 206.190748 
L 141.400425 167.593203 
L 143.048417 146.038478 
L 144.69641 138.985979 
L 146.344402 141.072865 
L 147.992395 147.980094 
L 149.640388 155.473153 
L 151.28838 155.754517 
L 152.936373 142.363584 
L 154.584365 118.609103 
L 156.232358 100.621228 
L 157.880351 95.349938 
L 159.528343 100.842042 
L 161.176336 104.463692 
L 162.824329 102.51605 
L 164.472321 97.808968 
L 166.120314 94.963793 
L 167.768306 99.746183 
L 169.416299 118.007808 
L 171.064292 148.627441 
L 172.712284 176.016863 
L 174.360277 194.773997 
L 176.008269 208.133801 
L 180.952247 239.384096 
L 182.60024 246.008692 
L 184.248233 239.633493 
L 185.896225 211.661911 
L 187.544218 176.054058 
L 189.19221 144.036635 
L 190.840203 121.297903 
L 192.488196 106.9181 
L 194.136188 98.966945 
L 195.784181 96.163481 
L 197.432174 95.286624 
L 199.080166 90.431156 
L 200.728159 78.89918 
L 202.376151 68.679817 
L 204.024144 71.82551 
L 205.672137 91.981511 
L 208.968122 153.469222 
L 210.616114 179.388266 
L 212.264107 200.48271 
L 217.208085 253.19459 
L 218.856078 266.072944 
L 220.50407 270.850443 
L 222.152063 259.881556 
L 223.800055 227.793813 
L 225.448048 188.717729 
L 227.096041 153.706599 
L 228.744033 131.437563 
L 230.392026 121.023781 
L 232.040018 120.033908 
L 235.336004 128.83634 
L 236.983996 125.000049 
L 238.631989 110.35228 
L 240.279982 91.756577 
L 241.927974 84.508104 
L 243.575967 93.724455 
L 245.223959 113.433926 
L 246.871952 130.840828 
L 248.519945 141.463298 
L 250.167937 148.478378 
L 251.81593 157.023728 
L 253.463922 171.585541 
L 256.759908 218.10147 
L 258.4079 231.500223 
L 260.055893 231.708142 
L 261.703886 220.739994 
L 263.351878 203.727165 
L 264.999871 184.1508 
L 266.647863 162.648625 
L 268.295856 137.12653 
L 269.943849 113.818975 
L 271.591841 99.243851 
L 273.239834 92.675522 
L 274.887826 87.257941 
L 276.535819 78.867455 
L 278.183812 69.056622 
L 279.831804 61.034354 
L 281.479797 60.248269 
L 283.12779 71.142187 
L 284.775782 98.870645 
L 286.423775 133.890184 
L 288.071767 165.396073 
L 289.71976 192.788056 
L 291.367753 217.079261 
L 293.015745 238.340809 
L 294.663738 256.492742 
L 296.311731 270.895307 
L 297.959723 280.069351 
L 299.607716 280.506408 
L 301.255708 261.258812 
L 304.551694 180.866392 
L 306.199686 150.777952 
L 307.847679 136.828958 
L 309.495671 134.360307 
L 311.143664 138.93731 
L 312.791657 146.27177 
L 314.439649 150.390316 
L 316.087642 142.930646 
L 319.383627 101.894881 
L 321.03162 93.125243 
L 322.679612 98.573853 
L 324.327605 107.987725 
L 325.975598 111.232458 
L 327.62359 109.935905 
L 329.271583 107.661022 
L 330.919575 110.719584 
L 332.567568 124.413749 
L 335.863553 180.101763 
L 337.511546 199.068101 
L 339.159539 209.600578 
L 340.807531 215.653461 
L 342.455524 220.31198 
L 344.103516 225.759593 
L 345.751509 229.385327 
L 347.399502 220.800535 
L 349.047494 192.629028 
L 350.695487 159.078831 
L 352.343479 130.809367 
L 353.991472 111.501459 
L 355.639465 98.462151 
L 357.287457 89.446657 
L 358.93545 83.489681 
L 360.583443 78.834234 
L 362.231435 71.939839 
L 363.879428 62.354241 
L 365.52742 61.215955 
L 367.175413 73.988075 
L 368.823406 103.497987 
L 370.471398 138.220074 
L 372.119391 170.430547 
L 373.767383 198.562202 
L 375.415376 221.835583 
L 377.063369 241.147086 
L 378.711361 258.053771 
L 380.359354 271.977704 
L 382.007347 280.308276 
L 383.655339 279.107301 
L 385.303332 256.247111 
L 388.599317 174.713917 
L 390.24731 147.698692 
L 391.895302 135.876834 
L 393.543295 134.389636 
L 395.191287 139.397622 
L 396.83928 146.617541 
L 398.487273 149.51014 
L 398.487273 149.51014 
" style="fill:none;stroke:#d62728;stroke-linecap:square;stroke-width:1.5;"/>
   </g>
   <g id="patch_3">
    <path d="M 57.6 307.584 
L 57.6 41.472 
" style="fill:none;stroke:#000000;stroke-linecap:square;stroke-linejoin:miter;stroke-width:0.8;"/>
   </g>
   <g id="patch_4">
    <path d="M 414.72 307.584 
L 414.72 41.472 
" style="fill:none;stroke:#000000;stroke-linecap:square;stroke-linejoin:miter;stroke-width:0.8;"/>
   </g>
   <g id="patch_5">
    <path d="M 57.6 307.584 
L 414.72 307.584 
" style="fill:none;stroke:#000000;stroke-linecap:square;stroke-linejoin:miter;stroke-width:0.8;"/>
   </g>
   <g id="patch_6">
    <path d="M 57.6 41.472 
L 414.72 41.472 
" style="fill:none;stroke:#000000;stroke-linecap:square;stroke-linejoin:miter;stroke-width:0.8;"/>
   </g>
   <g id="text_15">
    <!-- Plot of Test Data vs MCMC Uncertainty  -->
    <defs>
     <path d="M 19.671875 64.796875 
L 19.671875 37.40625 
L 32.078125 37.40625 
Q 38.96875 37.40625 42.71875 40.96875 
Q 46.484375 44.53125 46.484375 51.125 
Q 46.484375 57.671875 42.71875 61.234375 
Q 38.96875 64.796875 32.078125 64.796875 
z
M 9.8125 72.90625 
L 32.078125 72.90625 
Q 44.34375 72.90625 50.609375 67.359375 
Q 56.890625 61.8125 56.890625 51.125 
Q 56.890625 40.328125 50.609375 34.8125 
Q 44.34375 29.296875 32.078125 29.296875 
L 19.671875 29.296875 
L 19.671875 0 
L 9.8125 0 
z
" id="DejaVuSans-50"/>
     <path d="M 9.421875 75.984375 
L 18.40625 75.984375 
L 18.40625 0 
L 9.421875 0 
z
" id="DejaVuSans-6c"/>
     <path d="M 30.609375 48.390625 
Q 23.390625 48.390625 19.1875 42.75 
Q 14.984375 37.109375 14.984375 27.296875 
Q 14.984375 17.484375 19.15625 11.84375 
Q 23.34375 6.203125 30.609375 6.203125 
Q 37.796875 6.203125 41.984375 11.859375 
Q 46.1875 17.53125 46.1875 27.296875 
Q 46.1875 37.015625 41.984375 42.703125 
Q 37.796875 48.390625 30.609375 48.390625 
M 30.609375 56 
Q 42.328125 56 49.015625 48.375 
Q 55.71875 40.765625 55.71875 27.296875 
Q 55.71875 13.875 49.015625 6.21875 
Q 42.328125 -1.421875 30.609375 -1.421875 
Q 18.84375 -1.421875 12.171875 6.21875 
Q 5.515625 13.875 5.515625 27.296875 
Q 5.515625 40.765625 12.171875 48.375 
Q 18.84375 56 30.609375 56 
" id="DejaVuSans-6f"/>
     <path d="M 18.3125 70.21875 
L 18.3125 54.6875 
L 36.8125 54.6875 
L 36.8125 47.703125 
L 18.3125 47.703125 
L 18.3125 18.015625 
Q 18.3125 11.328125 20.140625 9.421875 
Q 21.96875 7.515625 27.59375 7.515625 
L 36.8125 7.515625 
L 36.8125 0 
L 27.59375 0 
Q 17.1875 0 13.234375 3.875 
Q 9.28125 7.765625 9.28125 18.015625 
L 9.28125 47.703125 
L 2.6875 47.703125 
L 2.6875 54.6875 
L 9.28125 54.6875 
L 9.28125 70.21875 
z
" id="DejaVuSans-74"/>
     <path id="DejaVuSans-20"/>
     <path d="M 37.109375 75.984375 
L 37.109375 68.5 
L 28.515625 68.5 
Q 23.6875 68.5 21.796875 66.546875 
Q 19.921875 64.59375 19.921875 59.515625 
L 19.921875 54.6875 
L 34.71875 54.6875 
L 34.71875 47.703125 
L 19.921875 47.703125 
L 19.921875 0 
L 10.890625 0 
L 10.890625 47.703125 
L 2.296875 47.703125 
L 2.296875 54.6875 
L 10.890625 54.6875 
L 10.890625 58.5 
Q 10.890625 67.625 15.140625 71.796875 
Q 19.390625 75.984375 28.609375 75.984375 
z
" id="DejaVuSans-66"/>
     <path d="M -0.296875 72.90625 
L 61.375 72.90625 
L 61.375 64.59375 
L 35.5 64.59375 
L 35.5 0 
L 25.59375 0 
L 25.59375 64.59375 
L -0.296875 64.59375 
z
" id="DejaVuSans-54"/>
     <path d="M 56.203125 29.59375 
L 56.203125 25.203125 
L 14.890625 25.203125 
Q 15.484375 15.921875 20.484375 11.0625 
Q 25.484375 6.203125 34.421875 6.203125 
Q 39.59375 6.203125 44.453125 7.46875 
Q 49.3125 8.734375 54.109375 11.28125 
L 54.109375 2.78125 
Q 49.265625 0.734375 44.1875 -0.34375 
Q 39.109375 -1.421875 33.890625 -1.421875 
Q 20.796875 -1.421875 13.15625 6.1875 
Q 5.515625 13.8125 5.515625 26.8125 
Q 5.515625 40.234375 12.765625 48.109375 
Q 20.015625 56 32.328125 56 
Q 43.359375 56 49.78125 48.890625 
Q 56.203125 41.796875 56.203125 29.59375 
M 47.21875 32.234375 
Q 47.125 39.59375 43.09375 43.984375 
Q 39.0625 48.390625 32.421875 48.390625 
Q 24.90625 48.390625 20.390625 44.140625 
Q 15.875 39.890625 15.1875 32.171875 
z
" id="DejaVuSans-65"/>
     <path d="M 44.28125 53.078125 
L 44.28125 44.578125 
Q 40.484375 46.53125 36.375 47.5 
Q 32.28125 48.484375 27.875 48.484375 
Q 21.1875 48.484375 17.84375 46.4375 
Q 14.5 44.390625 14.5 40.28125 
Q 14.5 37.15625 16.890625 35.375 
Q 19.28125 33.59375 26.515625 31.984375 
L 29.59375 31.296875 
Q 39.15625 29.25 43.1875 25.515625 
Q 47.21875 21.78125 47.21875 15.09375 
Q 47.21875 7.46875 41.1875 3.015625 
Q 35.15625 -1.421875 24.609375 -1.421875 
Q 20.21875 -1.421875 15.453125 -0.5625 
Q 10.6875 0.296875 5.421875 2 
L 5.421875 11.28125 
Q 10.40625 8.6875 15.234375 7.390625 
Q 20.0625 6.109375 24.8125 6.109375 
Q 31.15625 6.109375 34.5625 8.28125 
Q 37.984375 10.453125 37.984375 14.40625 
Q 37.984375 18.0625 35.515625 20.015625 
Q 33.0625 21.96875 24.703125 23.78125 
L 21.578125 24.515625 
Q 13.234375 26.265625 9.515625 29.90625 
Q 5.8125 33.546875 5.8125 39.890625 
Q 5.8125 47.609375 11.28125 51.796875 
Q 16.75 56 26.8125 56 
Q 31.78125 56 36.171875 55.265625 
Q 40.578125 54.546875 44.28125 53.078125 
" id="DejaVuSans-73"/>
     <path d="M 19.671875 64.796875 
L 19.671875 8.109375 
L 31.59375 8.109375 
Q 46.6875 8.109375 53.6875 14.9375 
Q 60.6875 21.78125 60.6875 36.53125 
Q 60.6875 51.171875 53.6875 57.984375 
Q 46.6875 64.796875 31.59375 64.796875 
z
M 9.8125 72.90625 
L 30.078125 72.90625 
Q 51.265625 72.90625 61.171875 64.09375 
Q 71.09375 55.28125 71.09375 36.53125 
Q 71.09375 17.671875 61.125 8.828125 
Q 51.171875 0 30.078125 0 
L 9.8125 0 
z
" id="DejaVuSans-44"/>
     <path d="M 34.28125 27.484375 
Q 23.390625 27.484375 19.1875 25 
Q 14.984375 22.515625 14.984375 16.5 
Q 14.984375 11.71875 18.140625 8.90625 
Q 21.296875 6.109375 26.703125 6.109375 
Q 34.1875 6.109375 38.703125 11.40625 
Q 43.21875 16.703125 43.21875 25.484375 
L 43.21875 27.484375 
z
M 52.203125 31.203125 
L 52.203125 0 
L 43.21875 0 
L 43.21875 8.296875 
Q 40.140625 3.328125 35.546875 0.953125 
Q 30.953125 -1.421875 24.3125 -1.421875 
Q 15.921875 -1.421875 10.953125 3.296875 
Q 6 8.015625 6 15.921875 
Q 6 25.140625 12.171875 29.828125 
Q 18.359375 34.515625 30.609375 34.515625 
L 43.21875 34.515625 
L 43.21875 35.40625 
Q 43.21875 41.609375 39.140625 45 
Q 35.0625 48.390625 27.6875 48.390625 
Q 23 48.390625 18.546875 47.265625 
Q 14.109375 46.140625 10.015625 43.890625 
L 10.015625 52.203125 
Q 14.9375 54.109375 19.578125 55.046875 
Q 24.21875 56 28.609375 56 
Q 40.484375 56 46.34375 49.84375 
Q 52.203125 43.703125 52.203125 31.203125 
" id="DejaVuSans-61"/>
     <path d="M 2.984375 54.6875 
L 12.5 54.6875 
L 29.59375 8.796875 
L 46.6875 54.6875 
L 56.203125 54.6875 
L 35.6875 0 
L 23.484375 0 
z
" id="DejaVuSans-76"/>
     <path d="M 9.8125 72.90625 
L 24.515625 72.90625 
L 43.109375 23.296875 
L 61.8125 72.90625 
L 76.515625 72.90625 
L 76.515625 0 
L 66.890625 0 
L 66.890625 64.015625 
L 48.09375 14.015625 
L 38.1875 14.015625 
L 19.390625 64.015625 
L 19.390625 0 
L 9.8125 0 
z
" id="DejaVuSans-4d"/>
     <path d="M 64.40625 67.28125 
L 64.40625 56.890625 
Q 59.421875 61.53125 53.78125 63.8125 
Q 48.140625 66.109375 41.796875 66.109375 
Q 29.296875 66.109375 22.65625 58.46875 
Q 16.015625 50.828125 16.015625 36.375 
Q 16.015625 21.96875 22.65625 14.328125 
Q 29.296875 6.6875 41.796875 6.6875 
Q 48.140625 6.6875 53.78125 8.984375 
Q 59.421875 11.28125 64.40625 15.921875 
L 64.40625 5.609375 
Q 59.234375 2.09375 53.4375 0.328125 
Q 47.65625 -1.421875 41.21875 -1.421875 
Q 24.65625 -1.421875 15.125 8.703125 
Q 5.609375 18.84375 5.609375 36.375 
Q 5.609375 53.953125 15.125 64.078125 
Q 24.65625 74.21875 41.21875 74.21875 
Q 47.75 74.21875 53.53125 72.484375 
Q 59.328125 70.75 64.40625 67.28125 
" id="DejaVuSans-43"/>
     <path d="M 8.6875 72.90625 
L 18.609375 72.90625 
L 18.609375 28.609375 
Q 18.609375 16.890625 22.84375 11.734375 
Q 27.09375 6.59375 36.625 6.59375 
Q 46.09375 6.59375 50.34375 11.734375 
Q 54.59375 16.890625 54.59375 28.609375 
L 54.59375 72.90625 
L 64.5 72.90625 
L 64.5 27.390625 
Q 64.5 13.140625 57.4375 5.859375 
Q 50.390625 -1.421875 36.625 -1.421875 
Q 22.796875 -1.421875 15.734375 5.859375 
Q 8.6875 13.140625 8.6875 27.390625 
z
" id="DejaVuSans-55"/>
     <path d="M 54.890625 33.015625 
L 54.890625 0 
L 45.90625 0 
L 45.90625 32.71875 
Q 45.90625 40.484375 42.875 44.328125 
Q 39.84375 48.1875 33.796875 48.1875 
Q 26.515625 48.1875 22.3125 43.546875 
Q 18.109375 38.921875 18.109375 30.90625 
L 18.109375 0 
L 9.078125 0 
L 9.078125 54.6875 
L 18.109375 54.6875 
L 18.109375 46.1875 
Q 21.34375 51.125 25.703125 53.5625 
Q 30.078125 56 35.796875 56 
Q 45.21875 56 50.046875 50.171875 
Q 54.890625 44.34375 54.890625 33.015625 
" id="DejaVuSans-6e"/>
     <path d="M 48.78125 52.59375 
L 48.78125 44.1875 
Q 44.96875 46.296875 41.140625 47.34375 
Q 37.3125 48.390625 33.40625 48.390625 
Q 24.65625 48.390625 19.8125 42.84375 
Q 14.984375 37.3125 14.984375 27.296875 
Q 14.984375 17.28125 19.8125 11.734375 
Q 24.65625 6.203125 33.40625 6.203125 
Q 37.3125 6.203125 41.140625 7.25 
Q 44.96875 8.296875 48.78125 10.40625 
L 48.78125 2.09375 
Q 45.015625 0.34375 40.984375 -0.53125 
Q 36.96875 -1.421875 32.421875 -1.421875 
Q 20.0625 -1.421875 12.78125 6.34375 
Q 5.515625 14.109375 5.515625 27.296875 
Q 5.515625 40.671875 12.859375 48.328125 
Q 20.21875 56 33.015625 56 
Q 37.15625 56 41.109375 55.140625 
Q 45.0625 54.296875 48.78125 52.59375 
" id="DejaVuSans-63"/>
     <path d="M 41.109375 46.296875 
Q 39.59375 47.171875 37.8125 47.578125 
Q 36.03125 48 33.890625 48 
Q 26.265625 48 22.1875 43.046875 
Q 18.109375 38.09375 18.109375 28.8125 
L 18.109375 0 
L 9.078125 0 
L 9.078125 54.6875 
L 18.109375 54.6875 
L 18.109375 46.1875 
Q 20.953125 51.171875 25.484375 53.578125 
Q 30.03125 56 36.53125 56 
Q 37.453125 56 38.578125 55.875 
Q 39.703125 55.765625 41.0625 55.515625 
z
" id="DejaVuSans-72"/>
     <path d="M 9.421875 54.6875 
L 18.40625 54.6875 
L 18.40625 0 
L 9.421875 0 
z
M 9.421875 75.984375 
L 18.40625 75.984375 
L 18.40625 64.59375 
L 9.421875 64.59375 
z
" id="DejaVuSans-69"/>
     <path d="M 32.171875 -5.078125 
Q 28.375 -14.84375 24.75 -17.8125 
Q 21.140625 -20.796875 15.09375 -20.796875 
L 7.90625 -20.796875 
L 7.90625 -13.28125 
L 13.1875 -13.28125 
Q 16.890625 -13.28125 18.9375 -11.515625 
Q 21 -9.765625 23.484375 -3.21875 
L 25.09375 0.875 
L 2.984375 54.6875 
L 12.5 54.6875 
L 29.59375 11.921875 
L 46.6875 54.6875 
L 56.203125 54.6875 
z
" id="DejaVuSans-79"/>
    </defs>
    <g transform="translate(118.112813 35.472)scale(0.12 -0.12)">
     <use xlink:href="#DejaVuSans-50"/>
     <use x="60.302734" xlink:href="#DejaVuSans-6c"/>
     <use x="88.085938" xlink:href="#DejaVuSans-6f"/>
     <use x="149.267578" xlink:href="#DejaVuSans-74"/>
     <use x="188.476562" xlink:href="#DejaVuSans-20"/>
     <use x="220.263672" xlink:href="#DejaVuSans-6f"/>
     <use x="281.445312" xlink:href="#DejaVuSans-66"/>
     <use x="316.650391" xlink:href="#DejaVuSans-20"/>
     <use x="348.4375" xlink:href="#DejaVuSans-54"/>
     <use x="409.255859" xlink:href="#DejaVuSans-65"/>
     <use x="470.779297" xlink:href="#DejaVuSans-73"/>
     <use x="522.878906" xlink:href="#DejaVuSans-74"/>
     <use x="562.087891" xlink:href="#DejaVuSans-20"/>
     <use x="593.875" xlink:href="#DejaVuSans-44"/>
     <use x="670.876953" xlink:href="#DejaVuSans-61"/>
     <use x="732.15625" xlink:href="#DejaVuSans-74"/>
     <use x="771.365234" xlink:href="#DejaVuSans-61"/>
     <use x="832.644531" xlink:href="#DejaVuSans-20"/>
     <use x="864.431641" xlink:href="#DejaVuSans-76"/>
     <use x="923.611328" xlink:href="#DejaVuSans-73"/>
     <use x="975.710938" xlink:href="#DejaVuSans-20"/>
     <use x="1007.498047" xlink:href="#DejaVuSans-4d"/>
     <use x="1093.777344" xlink:href="#DejaVuSans-43"/>
     <use x="1163.601562" xlink:href="#DejaVuSans-4d"/>
     <use x="1249.880859" xlink:href="#DejaVuSans-43"/>
     <use x="1319.705078" xlink:href="#DejaVuSans-20"/>
     <use x="1351.492188" xlink:href="#DejaVuSans-55"/>
     <use x="1424.685547" xlink:href="#DejaVuSans-6e"/>
     <use x="1488.064453" xlink:href="#DejaVuSans-63"/>
     <use x="1543.044922" xlink:href="#DejaVuSans-65"/>
     <use x="1604.568359" xlink:href="#DejaVuSans-72"/>
     <use x="1645.681641" xlink:href="#DejaVuSans-74"/>
     <use x="1684.890625" xlink:href="#DejaVuSans-61"/>
     <use x="1746.169922" xlink:href="#DejaVuSans-69"/>
     <use x="1773.953125" xlink:href="#DejaVuSans-6e"/>
     <use x="1837.332031" xlink:href="#DejaVuSans-74"/>
     <use x="1876.541016" xlink:href="#DejaVuSans-79"/>
     <use x="1935.720703" xlink:href="#DejaVuSans-20"/>
    </g>
   </g>
   <g id="legend_1">
    <g id="patch_7">
     <path d="M 277.843437 108.1845 
L 407.72 108.1845 
Q 409.72 108.1845 409.72 106.1845 
L 409.72 48.472 
Q 409.72 46.472 407.72 46.472 
L 277.843437 46.472 
Q 275.843437 46.472 275.843437 48.472 
L 275.843437 106.1845 
Q 275.843437 108.1845 277.843437 108.1845 
z
" style="fill:#ffffff;opacity:0.8;stroke:#cccccc;stroke-linejoin:miter;"/>
    </g>
    <g id="line2d_19">
     <path d="M 279.843437 54.570438 
L 299.843437 54.570438 
" style="fill:none;stroke:#1f77b4;stroke-linecap:square;stroke-width:1.5;"/>
    </g>
    <g id="line2d_20"/>
    <g id="text_16">
     <!-- actual -->
     <defs>
      <path d="M 8.5 21.578125 
L 8.5 54.6875 
L 17.484375 54.6875 
L 17.484375 21.921875 
Q 17.484375 14.15625 20.5 10.265625 
Q 23.53125 6.390625 29.59375 6.390625 
Q 36.859375 6.390625 41.078125 11.03125 
Q 45.3125 15.671875 45.3125 23.6875 
L 45.3125 54.6875 
L 54.296875 54.6875 
L 54.296875 0 
L 45.3125 0 
L 45.3125 8.40625 
Q 42.046875 3.421875 37.71875 1 
Q 33.40625 -1.421875 27.6875 -1.421875 
Q 18.265625 -1.421875 13.375 4.4375 
Q 8.5 10.296875 8.5 21.578125 
M 31.109375 56 
z
" id="DejaVuSans-75"/>
     </defs>
     <g transform="translate(307.843437 58.070438)scale(0.1 -0.1)">
      <use xlink:href="#DejaVuSans-61"/>
      <use x="61.279297" xlink:href="#DejaVuSans-63"/>
      <use x="116.259766" xlink:href="#DejaVuSans-74"/>
      <use x="155.46875" xlink:href="#DejaVuSans-75"/>
      <use x="218.847656" xlink:href="#DejaVuSans-61"/>
      <use x="280.126953" xlink:href="#DejaVuSans-6c"/>
     </g>
    </g>
    <g id="line2d_21">
     <path d="M 279.843437 69.248563 
L 299.843437 69.248563 
" style="fill:none;stroke:#ff7f0e;stroke-linecap:square;stroke-width:1.5;"/>
    </g>
    <g id="line2d_22"/>
    <g id="text_17">
     <!-- pred. (mean) -->
     <defs>
      <path d="M 18.109375 8.203125 
L 18.109375 -20.796875 
L 9.078125 -20.796875 
L 9.078125 54.6875 
L 18.109375 54.6875 
L 18.109375 46.390625 
Q 20.953125 51.265625 25.265625 53.625 
Q 29.59375 56 35.59375 56 
Q 45.5625 56 51.78125 48.09375 
Q 58.015625 40.1875 58.015625 27.296875 
Q 58.015625 14.40625 51.78125 6.484375 
Q 45.5625 -1.421875 35.59375 -1.421875 
Q 29.59375 -1.421875 25.265625 0.953125 
Q 20.953125 3.328125 18.109375 8.203125 
M 48.6875 27.296875 
Q 48.6875 37.203125 44.609375 42.84375 
Q 40.53125 48.484375 33.40625 48.484375 
Q 26.265625 48.484375 22.1875 42.84375 
Q 18.109375 37.203125 18.109375 27.296875 
Q 18.109375 17.390625 22.1875 11.75 
Q 26.265625 6.109375 33.40625 6.109375 
Q 40.53125 6.109375 44.609375 11.75 
Q 48.6875 17.390625 48.6875 27.296875 
" id="DejaVuSans-70"/>
      <path d="M 45.40625 46.390625 
L 45.40625 75.984375 
L 54.390625 75.984375 
L 54.390625 0 
L 45.40625 0 
L 45.40625 8.203125 
Q 42.578125 3.328125 38.25 0.953125 
Q 33.9375 -1.421875 27.875 -1.421875 
Q 17.96875 -1.421875 11.734375 6.484375 
Q 5.515625 14.40625 5.515625 27.296875 
Q 5.515625 40.1875 11.734375 48.09375 
Q 17.96875 56 27.875 56 
Q 33.9375 56 38.25 53.625 
Q 42.578125 51.265625 45.40625 46.390625 
M 14.796875 27.296875 
Q 14.796875 17.390625 18.875 11.75 
Q 22.953125 6.109375 30.078125 6.109375 
Q 37.203125 6.109375 41.296875 11.75 
Q 45.40625 17.390625 45.40625 27.296875 
Q 45.40625 37.203125 41.296875 42.84375 
Q 37.203125 48.484375 30.078125 48.484375 
Q 22.953125 48.484375 18.875 42.84375 
Q 14.796875 37.203125 14.796875 27.296875 
" id="DejaVuSans-64"/>
      <path d="M 31 75.875 
Q 24.46875 64.65625 21.28125 53.65625 
Q 18.109375 42.671875 18.109375 31.390625 
Q 18.109375 20.125 21.3125 9.0625 
Q 24.515625 -2 31 -13.1875 
L 23.1875 -13.1875 
Q 15.875 -1.703125 12.234375 9.375 
Q 8.59375 20.453125 8.59375 31.390625 
Q 8.59375 42.28125 12.203125 53.3125 
Q 15.828125 64.359375 23.1875 75.875 
z
" id="DejaVuSans-28"/>
      <path d="M 52 44.1875 
Q 55.375 50.25 60.0625 53.125 
Q 64.75 56 71.09375 56 
Q 79.640625 56 84.28125 50.015625 
Q 88.921875 44.046875 88.921875 33.015625 
L 88.921875 0 
L 79.890625 0 
L 79.890625 32.71875 
Q 79.890625 40.578125 77.09375 44.375 
Q 74.3125 48.1875 68.609375 48.1875 
Q 61.625 48.1875 57.5625 43.546875 
Q 53.515625 38.921875 53.515625 30.90625 
L 53.515625 0 
L 44.484375 0 
L 44.484375 32.71875 
Q 44.484375 40.625 41.703125 44.40625 
Q 38.921875 48.1875 33.109375 48.1875 
Q 26.21875 48.1875 22.15625 43.53125 
Q 18.109375 38.875 18.109375 30.90625 
L 18.109375 0 
L 9.078125 0 
L 9.078125 54.6875 
L 18.109375 54.6875 
L 18.109375 46.1875 
Q 21.1875 51.21875 25.484375 53.609375 
Q 29.78125 56 35.6875 56 
Q 41.65625 56 45.828125 52.96875 
Q 50 49.953125 52 44.1875 
" id="DejaVuSans-6d"/>
      <path d="M 8.015625 75.875 
L 15.828125 75.875 
Q 23.140625 64.359375 26.78125 53.3125 
Q 30.421875 42.28125 30.421875 31.390625 
Q 30.421875 20.453125 26.78125 9.375 
Q 23.140625 -1.703125 15.828125 -13.1875 
L 8.015625 -13.1875 
Q 14.5 -2 17.703125 9.0625 
Q 20.90625 20.125 20.90625 31.390625 
Q 20.90625 42.671875 17.703125 53.65625 
Q 14.5 64.65625 8.015625 75.875 
" id="DejaVuSans-29"/>
     </defs>
     <g transform="translate(307.843437 72.748563)scale(0.1 -0.1)">
      <use xlink:href="#DejaVuSans-70"/>
      <use x="63.476562" xlink:href="#DejaVuSans-72"/>
      <use x="104.558594" xlink:href="#DejaVuSans-65"/>
      <use x="166.082031" xlink:href="#DejaVuSans-64"/>
      <use x="229.558594" xlink:href="#DejaVuSans-2e"/>
      <use x="261.345703" xlink:href="#DejaVuSans-20"/>
      <use x="293.132812" xlink:href="#DejaVuSans-28"/>
      <use x="332.146484" xlink:href="#DejaVuSans-6d"/>
      <use x="429.558594" xlink:href="#DejaVuSans-65"/>
      <use x="491.082031" xlink:href="#DejaVuSans-61"/>
      <use x="552.361328" xlink:href="#DejaVuSans-6e"/>
      <use x="615.740234" xlink:href="#DejaVuSans-29"/>
     </g>
    </g>
    <g id="line2d_23">
     <path d="M 279.843437 83.926688 
L 299.843437 83.926688 
" style="fill:none;stroke:#2ca02c;stroke-linecap:square;stroke-width:1.5;"/>
    </g>
    <g id="line2d_24"/>
    <g id="text_18">
     <!-- pred.(5th percen.) -->
     <defs>
      <path d="M 54.890625 33.015625 
L 54.890625 0 
L 45.90625 0 
L 45.90625 32.71875 
Q 45.90625 40.484375 42.875 44.328125 
Q 39.84375 48.1875 33.796875 48.1875 
Q 26.515625 48.1875 22.3125 43.546875 
Q 18.109375 38.921875 18.109375 30.90625 
L 18.109375 0 
L 9.078125 0 
L 9.078125 75.984375 
L 18.109375 75.984375 
L 18.109375 46.1875 
Q 21.34375 51.125 25.703125 53.5625 
Q 30.078125 56 35.796875 56 
Q 45.21875 56 50.046875 50.171875 
Q 54.890625 44.34375 54.890625 33.015625 
" id="DejaVuSans-68"/>
     </defs>
     <g transform="translate(307.843437 87.426688)scale(0.1 -0.1)">
      <use xlink:href="#DejaVuSans-70"/>
      <use x="63.476562" xlink:href="#DejaVuSans-72"/>
      <use x="104.558594" xlink:href="#DejaVuSans-65"/>
      <use x="166.082031" xlink:href="#DejaVuSans-64"/>
      <use x="229.558594" xlink:href="#DejaVuSans-2e"/>
      <use x="261.345703" xlink:href="#DejaVuSans-28"/>
      <use x="300.359375" xlink:href="#DejaVuSans-35"/>
      <use x="363.982422" xlink:href="#DejaVuSans-74"/>
      <use x="403.191406" xlink:href="#DejaVuSans-68"/>
      <use x="466.570312" xlink:href="#DejaVuSans-20"/>
      <use x="498.357422" xlink:href="#DejaVuSans-70"/>
      <use x="561.833984" xlink:href="#DejaVuSans-65"/>
      <use x="623.357422" xlink:href="#DejaVuSans-72"/>
      <use x="664.439453" xlink:href="#DejaVuSans-63"/>
      <use x="719.419922" xlink:href="#DejaVuSans-65"/>
      <use x="780.943359" xlink:href="#DejaVuSans-6e"/>
      <use x="844.322266" xlink:href="#DejaVuSans-2e"/>
      <use x="876.109375" xlink:href="#DejaVuSans-29"/>
     </g>
    </g>
    <g id="line2d_25">
     <path d="M 279.843437 98.604813 
L 299.843437 98.604813 
" style="fill:none;stroke:#d62728;stroke-linecap:square;stroke-width:1.5;"/>
    </g>
    <g id="line2d_26"/>
    <g id="text_19">
     <!-- pred.(95th percen.) -->
     <defs>
      <path d="M 10.984375 1.515625 
L 10.984375 10.5 
Q 14.703125 8.734375 18.5 7.8125 
Q 22.3125 6.890625 25.984375 6.890625 
Q 35.75 6.890625 40.890625 13.453125 
Q 46.046875 20.015625 46.78125 33.40625 
Q 43.953125 29.203125 39.59375 26.953125 
Q 35.25 24.703125 29.984375 24.703125 
Q 19.046875 24.703125 12.671875 31.3125 
Q 6.296875 37.9375 6.296875 49.421875 
Q 6.296875 60.640625 12.9375 67.421875 
Q 19.578125 74.21875 30.609375 74.21875 
Q 43.265625 74.21875 49.921875 64.515625 
Q 56.59375 54.828125 56.59375 36.375 
Q 56.59375 19.140625 48.40625 8.859375 
Q 40.234375 -1.421875 26.421875 -1.421875 
Q 22.703125 -1.421875 18.890625 -0.6875 
Q 15.09375 0.046875 10.984375 1.515625 
M 30.609375 32.421875 
Q 37.25 32.421875 41.125 36.953125 
Q 45.015625 41.5 45.015625 49.421875 
Q 45.015625 57.28125 41.125 61.84375 
Q 37.25 66.40625 30.609375 66.40625 
Q 23.96875 66.40625 20.09375 61.84375 
Q 16.21875 57.28125 16.21875 49.421875 
Q 16.21875 41.5 20.09375 36.953125 
Q 23.96875 32.421875 30.609375 32.421875 
" id="DejaVuSans-39"/>
     </defs>
     <g transform="translate(307.843437 102.104813)scale(0.1 -0.1)">
      <use xlink:href="#DejaVuSans-70"/>
      <use x="63.476562" xlink:href="#DejaVuSans-72"/>
      <use x="104.558594" xlink:href="#DejaVuSans-65"/>
      <use x="166.082031" xlink:href="#DejaVuSans-64"/>
      <use x="229.558594" xlink:href="#DejaVuSans-2e"/>
      <use x="261.345703" xlink:href="#DejaVuSans-28"/>
      <use x="300.359375" xlink:href="#DejaVuSans-39"/>
      <use x="363.982422" xlink:href="#DejaVuSans-35"/>
      <use x="427.605469" xlink:href="#DejaVuSans-74"/>
      <use x="466.814453" xlink:href="#DejaVuSans-68"/>
      <use x="530.193359" xlink:href="#DejaVuSans-20"/>
      <use x="561.980469" xlink:href="#DejaVuSans-70"/>
      <use x="625.457031" xlink:href="#DejaVuSans-65"/>
      <use x="686.980469" xlink:href="#DejaVuSans-72"/>
      <use x="728.0625" xlink:href="#DejaVuSans-63"/>
      <use x="783.042969" xlink:href="#DejaVuSans-65"/>
      <use x="844.566406" xlink:href="#DejaVuSans-6e"/>
      <use x="907.945312" xlink:href="#DejaVuSans-2e"/>
      <use x="939.732422" xlink:href="#DejaVuSans-29"/>
     </g>
    </g>
   </g>
  </g>
 </g>
 <defs>
  <clipPath id="pdebbd55335">
   <rect height="266.112" width="357.12" x="57.6" y="41.472"/>
  </clipPath>
 </defs>
</svg>
