<?xml version="1.0" encoding="utf-8" standalone="no"?>
<!DOCTYPE svg PUBLIC "-//W3C//DTD SVG 1.1//EN"
  "http://www.w3.org/Graphics/SVG/1.1/DTD/svg11.dtd">
<!-- Created with matplotlib (http://matplotlib.org/) -->
<svg height="345pt" version="1.1" viewBox="0 0 460 345" width="460pt" xmlns="http://www.w3.org/2000/svg" xmlns:xlink="http://www.w3.org/1999/xlink">
 <defs>
  <style type="text/css">
*{stroke-linecap:butt;stroke-linejoin:round;}
  </style>
 </defs>
 <g id="figure_1">
  <g id="patch_1">
   <path d="M 0 345.6 
L 460.8 345.6 
L 460.8 0 
L 0 0 
z
" style="fill:#ffffff;"/>
  </g>
  <g id="axes_1">
   <g id="patch_2">
    <path d="M 57.6 307.584 
L 414.72 307.584 
L 414.72 41.472 
L 57.6 41.472 
z
" style="fill:#ffffff;"/>
   </g>
   <g id="PolyCollection_1">
    <path clip-path="url(#pd01d829bd2)" d="M 73.832727 106.142952 
L 73.832727 112.387664 
L 74.92584 98.131645 
L 76.018953 100.119496 
L 77.112066 103.980472 
L 78.205179 105.895517 
L 79.298292 102.688187 
L 80.391405 97.214572 
L 81.484518 95.719871 
L 82.577631 110.215509 
L 83.670744 138.442549 
L 84.763857 166.354243 
L 85.85697 189.201097 
L 86.950083 204.598618 
L 88.043196 216.373313 
L 89.136309 228.684558 
L 90.229421 240.956625 
L 91.322534 249.806417 
L 92.415647 249.66653 
L 93.50876 234.200855 
L 94.601873 201.034313 
L 95.694986 163.755899 
L 96.788099 135.87994 
L 97.881212 116.25675 
L 98.974325 104.620638 
L 100.067438 99.044243 
L 101.160551 97.818255 
L 102.253664 97.34818 
L 103.346777 91.651653 
L 104.43989 78.664008 
L 105.533003 70.558794 
L 106.626116 84.715057 
L 107.719229 110.995411 
L 108.812342 140.378767 
L 109.905455 168.375548 
L 110.998567 191.447365 
L 112.09168 210.457351 
L 113.184793 229.669659 
L 114.277906 249.729638 
L 115.371019 265.790628 
L 116.464132 273.997494 
L 117.557245 270.458712 
L 118.650358 250.366174 
L 119.743471 213.663153 
L 120.836584 173.975409 
L 121.929697 145.0451 
L 123.02281 128.144541 
L 124.115923 121.159796 
L 125.209036 121.725707 
L 126.302149 125.269102 
L 127.395262 127.949036 
L 128.488375 122.27682 
L 129.581488 105.512759 
L 130.674601 87.043526 
L 131.767713 89.756344 
L 132.860826 106.746485 
L 133.953939 125.48432 
L 135.047052 142.072387 
L 136.140165 152.215255 
L 137.233278 159.041001 
L 138.326391 171.332171 
L 139.419504 193.964407 
L 140.512617 217.319825 
L 141.60573 233.862842 
L 142.698843 239.708381 
L 143.791956 232.83514 
L 144.885069 215.728234 
L 145.978182 193.832111 
L 147.071295 171.117336 
L 148.164408 148.215614 
L 149.257521 122.807277 
L 150.350634 103.864553 
L 151.443747 95.517415 
L 152.53686 91.497066 
L 153.629972 86.68046 
L 154.723085 78.221881 
L 155.816198 68.276929 
L 156.909311 62.6845 
L 158.002424 70.586976 
L 159.095537 96.705046 
L 160.18865 128.922497 
L 161.281763 160.926699 
L 162.374876 188.941676 
L 163.467989 213.605285 
L 164.561102 236.670523 
L 165.654215 257.36699 
L 166.747328 273.894258 
L 167.840441 284.326301 
L 168.933554 284.953974 
L 170.026667 270.652953 
L 171.11978 236.946912 
L 172.212893 193.276694 
L 173.306006 160.440537 
L 174.399118 142.978207 
L 175.492231 136.373712 
L 176.585344 137.652314 
L 177.678457 142.9783 
L 178.77157 148.067311 
L 179.864683 146.731288 
L 180.957796 133.095101 
L 182.050909 109.245539 
L 183.144022 94.052574 
L 184.237135 99.615578 
L 185.330248 108.413913 
L 186.423361 116.633117 
L 187.516474 118.966859 
L 188.609587 117.062104 
L 189.7027 117.182776 
L 190.795813 131.856442 
L 191.888926 158.880691 
L 192.982039 184.863371 
L 194.075152 204.384233 
L 195.168264 214.233264 
L 196.261377 217.414392 
L 197.35449 219.19063 
L 198.447603 222.1027 
L 199.540716 222.246004 
L 200.633829 213.908491 
L 201.726942 190.115953 
L 202.820055 156.570579 
L 203.913168 128.045428 
L 205.006281 109.199042 
L 206.099394 96.157431 
L 207.192507 86.608302 
L 208.28562 79.75551 
L 209.378733 74.455752 
L 210.471846 68.259465 
L 211.564959 60.813265 
L 212.658072 62.238085 
L 213.751185 84.130143 
L 214.844298 115.35864 
L 215.93741 149.558618 
L 217.030523 182.325426 
L 218.123636 210.962628 
L 219.216749 235.183979 
L 220.309862 256.073822 
L 221.402975 273.664034 
L 222.496088 286.056855 
L 223.589201 290.597086 
L 224.682314 282.340122 
L 225.775427 255.532607 
L 226.86854 211.3144 
L 227.961653 172.877436 
L 229.054766 152.60386 
L 230.147879 143.686422 
L 231.240992 143.653454 
L 232.334105 148.855595 
L 233.427218 154.91681 
L 234.520331 157.395793 
L 235.613444 148.569808 
L 236.706556 126.217557 
L 237.799669 102.417899 
L 238.892782 97.936206 
L 239.985895 102.01927 
L 241.079008 106.773055 
L 242.172121 107.410082 
L 243.265234 103.348934 
L 244.358347 99.067444 
L 245.45146 103.296457 
L 246.544573 125.714238 
L 247.637686 154.747576 
L 248.730799 180.549857 
L 249.823912 199.09156 
L 250.917025 211.054711 
L 252.010138 221.119924 
L 253.103251 232.195018 
L 254.196364 242.245637 
L 255.289477 246.568981 
L 256.38259 239.016996 
L 257.475702 213.529759 
L 258.568815 176.147025 
L 259.661928 144.825695 
L 260.755041 121.624265 
L 261.848154 106.588989 
L 262.941267 97.900773 
L 264.03438 94.283195 
L 265.127493 93.229628 
L 266.220606 89.918232 
L 267.313719 79.949768 
L 268.406832 69.095286 
L 269.499945 75.598065 
L 270.593058 100.048225 
L 271.686171 129.93775 
L 272.779284 160.424073 
L 273.872397 187.001898 
L 274.96551 208.794303 
L 276.058623 228.297023 
L 277.151736 248.275231 
L 278.244848 265.666515 
L 279.337961 276.555334 
L 280.431074 277.213388 
L 281.524187 263.090028 
L 282.6173 230.246677 
L 283.710413 188.154992 
L 284.803526 155.238338 
L 285.896639 135.994748 
L 286.989752 127.034704 
L 288.082865 126.569076 
L 289.175978 130.397199 
L 290.269091 134.569922 
L 291.362204 132.600088 
L 292.455317 119.045587 
L 293.54843 97.60205 
L 294.641543 88.699645 
L 295.734656 100.332201 
L 296.827769 115.692793 
L 297.920882 130.423977 
L 299.013994 139.281351 
L 300.107107 143.267797 
L 301.20022 149.176555 
L 302.293333 168.203674 
L 303.386446 193.920964 
L 304.479559 215.386736 
L 305.572672 228.251534 
L 306.665785 229.442479 
L 307.758898 220.922545 
L 308.852011 207.399763 
L 309.945124 192.972412 
L 311.038237 176.557278 
L 312.13135 154.456863 
L 313.224463 127.10751 
L 314.317576 106.432555 
L 315.410689 95.70828 
L 316.503802 88.819699 
L 317.596915 81.358097 
L 318.690028 72.656809 
L 319.78314 64.345986 
L 320.876253 59.366279 
L 321.969366 64.463128 
L 323.062479 88.450532 
L 324.155592 120.578445 
L 325.248705 153.925782 
L 326.341818 184.83587 
L 327.434931 212.54487 
L 328.528044 237.265748 
L 329.621157 258.544802 
L 330.71427 275.566832 
L 331.807383 287.096533 
L 332.900496 290.088265 
L 333.993609 279.475307 
L 335.086722 249.912635 
L 336.179835 205.521968 
L 337.272948 169.133271 
L 338.366061 150.308458 
L 339.459174 142.79259 
L 340.552287 143.681322 
L 341.645399 149.286124 
L 342.738512 155.162093 
L 343.831625 156.388166 
L 344.924738 145.646478 
L 346.017851 122.161083 
L 347.110964 100.03098 
L 348.204077 98.406279 
L 349.29719 102.974776 
L 350.390303 107.771118 
L 351.483416 107.830555 
L 352.576529 103.514187 
L 353.669642 99.886137 
L 354.762755 106.7241 
L 355.855868 131.012559 
L 356.948981 159.776822 
L 358.042094 184.606373 
L 359.135207 201.633436 
L 360.22832 212.583631 
L 361.321433 222.250538 
L 362.414545 232.986991 
L 363.507658 242.180302 
L 364.600771 244.748044 
L 365.693884 234.529725 
L 366.786997 206.084849 
L 367.88011 168.579258 
L 368.973223 139.114021 
L 370.066336 117.702917 
L 371.159449 103.825495 
L 372.252562 95.927209 
L 373.345675 92.792863 
L 374.438788 91.478743 
L 375.531901 87.02621 
L 376.625014 76.124694 
L 377.718127 67.622829 
L 378.81124 79.30778 
L 379.904353 105.741548 
L 380.997466 136.493568 
L 382.090579 166.896907 
L 383.183691 192.905615 
L 384.276804 214.34246 
L 385.369917 234.130739 
L 386.46303 253.823155 
L 387.556143 269.956205 
L 388.649256 278.939875 
L 389.742369 276.911791 
L 390.835482 258.85751 
L 391.928595 222.166791 
L 393.021708 180.32718 
L 394.114821 151.027776 
L 395.207934 134.262651 
L 396.301047 127.887562 
L 397.39416 128.994694 
L 398.487273 133.323264 
L 398.487273 131.861788 
L 398.487273 131.861788 
L 397.39416 125.899361 
L 396.301047 123.397116 
L 395.207934 128.807428 
L 394.114821 145.367419 
L 393.021708 176.001867 
L 391.928595 216.036275 
L 390.835482 254.02192 
L 389.742369 273.666482 
L 388.649256 273.004176 
L 387.556143 262.844979 
L 386.46303 247.164637 
L 385.369917 229.431861 
L 384.276804 211.225662 
L 383.183691 189.890674 
L 382.090579 163.919309 
L 380.997466 133.424688 
L 379.904353 100.257807 
L 378.81124 74.000595 
L 377.718127 64.858456 
L 376.625014 69.931648 
L 375.531901 81.939854 
L 374.438788 88.835398 
L 373.345675 91.135743 
L 372.252562 94.025086 
L 371.159449 101.235528 
L 370.066336 114.046026 
L 368.973223 134.051266 
L 367.88011 163.724998 
L 366.786997 198.592717 
L 365.693884 230.18293 
L 364.600771 242.303873 
L 363.507658 237.754586 
L 362.414545 228.734674 
L 361.321433 219.427898 
L 360.22832 210.492507 
L 359.135207 198.810889 
L 358.042094 181.929042 
L 356.948981 155.814512 
L 355.855868 124.963534 
L 354.762755 104.040269 
L 353.669642 97.506642 
L 352.576529 99.190658 
L 351.483416 103.44586 
L 350.390303 105.106604 
L 349.29719 101.24269 
L 348.204077 94.365568 
L 347.110964 97.271203 
L 346.017851 113.586431 
L 344.924738 137.517778 
L 343.831625 152.569229 
L 342.738512 153.820661 
L 341.645399 146.710914 
L 340.552287 139.586481 
L 339.459174 136.967754 
L 338.366061 143.152468 
L 337.272948 163.291067 
L 336.179835 200.823884 
L 335.086722 243.77414 
L 333.993609 276.555538 
L 332.900496 284.611368 
L 331.807383 279.609958 
L 330.71427 267.944856 
L 329.621157 252.050877 
L 328.528044 232.258771 
L 327.434931 208.725901 
L 326.341818 181.382708 
L 325.248705 151.032215 
L 324.155592 116.614858 
L 323.062479 82.517849 
L 321.969366 61.246868 
L 320.876253 55.564295 
L 319.78314 59.695763 
L 318.690028 68.037198 
L 317.596915 77.486794 
L 316.503802 86.39799 
L 315.410689 93.549986 
L 314.317576 103.374567 
L 313.224463 121.796675 
L 312.13135 147.965086 
L 311.038237 173.491921 
L 309.945124 190.847094 
L 308.852011 205.502846 
L 307.758898 218.222739 
L 306.665785 226.415721 
L 305.572672 225.669646 
L 304.479559 212.113903 
L 303.386446 188.257402 
L 302.293333 163.014909 
L 301.20022 147.727863 
L 300.107107 140.092223 
L 299.013994 135.290631 
L 297.920882 127.630216 
L 296.827769 113.574191 
L 295.734656 95.421514 
L 294.641543 85.384202 
L 293.54843 91.857763 
L 292.455317 110.754256 
L 291.362204 127.37068 
L 290.269091 132.659246 
L 289.175978 128.61781 
L 288.082865 123.207188 
L 286.989752 122.36524 
L 285.896639 130.354219 
L 284.803526 150.073822 
L 283.710413 183.697129 
L 282.6173 223.893325 
L 281.524187 259.072184 
L 280.431074 273.441836 
L 279.337961 270.315978 
L 278.244848 258.55433 
L 277.151736 242.00663 
L 276.058623 224.16802 
L 274.96551 205.79446 
L 273.872397 184.088656 
L 272.779284 157.659673 
L 271.686171 126.513811 
L 270.593058 94.125351 
L 269.499945 71.157238 
L 268.406832 65.449722 
L 267.313719 73.603956 
L 266.220606 85.307865 
L 265.127493 90.985585 
L 264.03438 92.658241 
L 262.941267 95.8383 
L 261.848154 103.787979 
L 260.755041 117.702277 
L 259.661928 139.467222 
L 258.568815 170.715613 
L 257.475702 206.262816 
L 256.38259 235.501377 
L 255.289477 243.533585 
L 254.196364 237.64193 
L 253.103251 228.029518 
L 252.010138 218.427809 
L 250.917025 208.945753 
L 249.823912 196.228449 
L 248.730799 177.832184 
L 247.637686 150.408237 
L 246.544573 119.765784 
L 245.45146 101.241016 
L 244.358347 96.247056 
L 243.265234 98.886132 
L 242.172121 103.171428 
L 241.079008 104.432749 
L 239.985895 99.947605 
L 238.892782 93.969756 
L 237.799669 99.132281 
L 236.706556 117.155291 
L 235.613444 140.934941 
L 234.520331 154.130421 
L 233.427218 153.532994 
L 232.334105 146.027278 
L 231.240992 139.32791 
L 230.147879 137.740363 
L 229.054766 145.376804 
L 227.961653 167.279281 
L 226.86854 206.223277 
L 225.775427 249.563948 
L 224.682314 279.546627 
L 223.589201 284.650375 
L 222.496088 278.460944 
L 221.402975 266.019142 
L 220.309862 249.840408 
L 219.216749 230.537713 
L 218.123636 207.13373 
L 217.030523 178.732713 
L 215.93741 146.494965 
L 214.844298 110.958007 
L 213.751185 78.051318 
L 212.658072 59.187638 
L 211.564959 55.785271 
L 210.471846 63.214355 
L 209.378733 70.766222 
L 208.28562 76.971316 
L 207.192507 84.321867 
L 206.099394 93.77135 
L 205.006281 105.969573 
L 203.913168 123.592148 
L 202.820055 150.040806 
L 201.726942 182.495428 
L 200.633829 210.523344 
L 199.540716 220.322804 
L 198.447603 219.305009 
L 197.35449 217.211801 
L 196.261377 215.620528 
L 195.168264 211.468719 
L 194.075152 201.620901 
L 192.982039 181.630467 
L 191.888926 152.942708 
L 190.795813 127.542152 
L 189.7027 115.931082 
L 188.609587 113.338117 
L 187.516474 114.673478 
L 186.423361 113.57262 
L 185.330248 106.885884 
L 184.237135 95.39618 
L 183.144022 91.308064 
L 182.050909 102.311676 
L 180.957796 124.344538 
L 179.864683 141.813798 
L 178.77157 146.392639 
L 177.678457 140.866001 
L 176.585344 134.006162 
L 175.492231 131.142715 
L 174.399118 136.573834 
L 173.306006 154.683171 
L 172.212893 188.865625 
L 171.11978 230.674414 
L 170.026667 266.859107 
L 168.933554 280.590554 
L 167.840441 277.425625 
L 166.747328 266.470632 
L 165.654215 250.771766 
L 164.561102 231.632269 
L 163.467989 210.022314 
L 162.374876 185.774745 
L 161.281763 157.954621 
L 160.18865 125.331138 
L 159.095537 90.656168 
L 158.002424 66.918174 
L 156.909311 59.506451 
L 155.816198 63.300623 
L 154.723085 73.05332 
L 153.629972 82.783355 
L 152.53686 89.548504 
L 151.443747 93.267022 
L 150.350634 101.003612 
L 149.257521 118.095169 
L 148.164408 142.822122 
L 147.071295 167.776856 
L 145.978182 190.976046 
L 144.885069 212.301783 
L 143.791956 229.403092 
L 142.698843 236.982794 
L 141.60573 230.3023 
L 140.512617 212.405104 
L 139.419504 188.217791 
L 138.326391 168.396954 
L 137.233278 156.883103 
L 136.140165 148.557131 
L 135.047052 138.814324 
L 133.953939 123.628106 
L 132.860826 102.092366 
L 131.767713 84.946719 
L 130.674601 84.107409 
L 129.581488 97.670375 
L 128.488375 115.802908 
L 127.395262 124.963307 
L 126.302149 124.026752 
L 125.209036 118.956442 
L 124.115923 117.047423 
L 123.02281 123.120186 
L 121.929697 140.042104 
L 120.836584 169.587637 
L 119.743471 207.923917 
L 118.650358 245.198068 
L 117.557245 267.814282 
L 116.464132 268.753978 
L 115.371019 259.068792 
L 114.277906 243.103736 
L 113.184793 225.002197 
L 112.09168 207.637193 
L 110.998567 188.778917 
L 109.905455 165.668384 
L 108.812342 137.715876 
L 107.719229 105.97533 
L 106.626116 78.876566 
L 105.533003 68.310429 
L 104.43989 72.551701 
L 103.346777 85.824009 
L 102.253664 94.310337 
L 101.160551 96.329573 
L 100.067438 97.130362 
L 98.974325 101.916283 
L 97.881212 112.751702 
L 96.788099 131.07463 
L 95.694986 159.07986 
L 94.601873 194.012193 
L 93.50876 228.630459 
L 92.415647 247.551212 
L 91.322534 245.333308 
L 90.229421 236.160547 
L 89.136309 224.885368 
L 88.043196 213.964987 
L 86.950083 202.059285 
L 85.85697 186.30062 
L 84.763857 163.342698 
L 83.670744 132.703723 
L 82.577631 105.695377 
L 81.484518 94.285195 
L 80.391405 93.421393 
L 79.298292 98.030854 
L 78.205179 102.233214 
L 77.112066 102.520719 
L 76.018953 96.932941 
L 74.92584 94.905215 
L 73.832727 106.142952 
z
" style="fill:#008000;fill-opacity:0.4;"/>
   </g>
   <g id="matplotlib.axis_1">
    <g id="xtick_1">
     <g id="line2d_1">
      <defs>
       <path d="M 0 0 
L 0 3.5 
" id="m66fdae95f4" style="stroke:#000000;stroke-width:0.8;"/>
      </defs>
      <g>
       <use style="stroke:#000000;stroke-width:0.8;" x="73.832727" xlink:href="#m66fdae95f4" y="307.584"/>
      </g>
     </g>
     <g id="text_1">
      <!-- 0.0 -->
      <defs>
       <path d="M 31.78125 66.40625 
Q 24.171875 66.40625 20.328125 58.90625 
Q 16.5 51.421875 16.5 36.375 
Q 16.5 21.390625 20.328125 13.890625 
Q 24.171875 6.390625 31.78125 6.390625 
Q 39.453125 6.390625 43.28125 13.890625 
Q 47.125 21.390625 47.125 36.375 
Q 47.125 51.421875 43.28125 58.90625 
Q 39.453125 66.40625 31.78125 66.40625 
M 31.78125 74.21875 
Q 44.046875 74.21875 50.515625 64.515625 
Q 56.984375 54.828125 56.984375 36.375 
Q 56.984375 17.96875 50.515625 8.265625 
Q 44.046875 -1.421875 31.78125 -1.421875 
Q 19.53125 -1.421875 13.0625 8.265625 
Q 6.59375 17.96875 6.59375 36.375 
Q 6.59375 54.828125 13.0625 64.515625 
Q 19.53125 74.21875 31.78125 74.21875 
" id="DejaVuSans-30"/>
       <path d="M 10.6875 12.40625 
L 21 12.40625 
L 21 0 
L 10.6875 0 
z
" id="DejaVuSans-2e"/>
      </defs>
      <g transform="translate(65.881165 322.182437)scale(0.1 -0.1)">
       <use xlink:href="#DejaVuSans-30"/>
       <use x="63.623047" xlink:href="#DejaVuSans-2e"/>
       <use x="95.410156" xlink:href="#DejaVuSans-30"/>
      </g>
     </g>
    </g>
    <g id="xtick_2">
     <g id="line2d_2">
      <g>
       <use style="stroke:#000000;stroke-width:0.8;" x="138.763636" xlink:href="#m66fdae95f4" y="307.584"/>
      </g>
     </g>
     <g id="text_2">
      <!-- 0.2 -->
      <defs>
       <path d="M 19.1875 8.296875 
L 53.609375 8.296875 
L 53.609375 0 
L 7.328125 0 
L 7.328125 8.296875 
Q 12.9375 14.109375 22.625 23.890625 
Q 32.328125 33.6875 34.8125 36.53125 
Q 39.546875 41.84375 41.421875 45.53125 
Q 43.3125 49.21875 43.3125 52.78125 
Q 43.3125 58.59375 39.234375 62.25 
Q 35.15625 65.921875 28.609375 65.921875 
Q 23.96875 65.921875 18.8125 64.3125 
Q 13.671875 62.703125 7.8125 59.421875 
L 7.8125 69.390625 
Q 13.765625 71.78125 18.9375 73 
Q 24.125 74.21875 28.421875 74.21875 
Q 39.75 74.21875 46.484375 68.546875 
Q 53.21875 62.890625 53.21875 53.421875 
Q 53.21875 48.921875 51.53125 44.890625 
Q 49.859375 40.875 45.40625 35.40625 
Q 44.1875 33.984375 37.640625 27.21875 
Q 31.109375 20.453125 19.1875 8.296875 
" id="DejaVuSans-32"/>
      </defs>
      <g transform="translate(130.812074 322.182437)scale(0.1 -0.1)">
       <use xlink:href="#DejaVuSans-30"/>
       <use x="63.623047" xlink:href="#DejaVuSans-2e"/>
       <use x="95.410156" xlink:href="#DejaVuSans-32"/>
      </g>
     </g>
    </g>
    <g id="xtick_3">
     <g id="line2d_3">
      <g>
       <use style="stroke:#000000;stroke-width:0.8;" x="203.694545" xlink:href="#m66fdae95f4" y="307.584"/>
      </g>
     </g>
     <g id="text_3">
      <!-- 0.4 -->
      <defs>
       <path d="M 37.796875 64.3125 
L 12.890625 25.390625 
L 37.796875 25.390625 
z
M 35.203125 72.90625 
L 47.609375 72.90625 
L 47.609375 25.390625 
L 58.015625 25.390625 
L 58.015625 17.1875 
L 47.609375 17.1875 
L 47.609375 0 
L 37.796875 0 
L 37.796875 17.1875 
L 4.890625 17.1875 
L 4.890625 26.703125 
z
" id="DejaVuSans-34"/>
      </defs>
      <g transform="translate(195.742983 322.182437)scale(0.1 -0.1)">
       <use xlink:href="#DejaVuSans-30"/>
       <use x="63.623047" xlink:href="#DejaVuSans-2e"/>
       <use x="95.410156" xlink:href="#DejaVuSans-34"/>
      </g>
     </g>
    </g>
    <g id="xtick_4">
     <g id="line2d_4">
      <g>
       <use style="stroke:#000000;stroke-width:0.8;" x="268.625455" xlink:href="#m66fdae95f4" y="307.584"/>
      </g>
     </g>
     <g id="text_4">
      <!-- 0.6 -->
      <defs>
       <path d="M 33.015625 40.375 
Q 26.375 40.375 22.484375 35.828125 
Q 18.609375 31.296875 18.609375 23.390625 
Q 18.609375 15.53125 22.484375 10.953125 
Q 26.375 6.390625 33.015625 6.390625 
Q 39.65625 6.390625 43.53125 10.953125 
Q 47.40625 15.53125 47.40625 23.390625 
Q 47.40625 31.296875 43.53125 35.828125 
Q 39.65625 40.375 33.015625 40.375 
M 52.59375 71.296875 
L 52.59375 62.3125 
Q 48.875 64.0625 45.09375 64.984375 
Q 41.3125 65.921875 37.59375 65.921875 
Q 27.828125 65.921875 22.671875 59.328125 
Q 17.53125 52.734375 16.796875 39.40625 
Q 19.671875 43.65625 24.015625 45.921875 
Q 28.375 48.1875 33.59375 48.1875 
Q 44.578125 48.1875 50.953125 41.515625 
Q 57.328125 34.859375 57.328125 23.390625 
Q 57.328125 12.15625 50.6875 5.359375 
Q 44.046875 -1.421875 33.015625 -1.421875 
Q 20.359375 -1.421875 13.671875 8.265625 
Q 6.984375 17.96875 6.984375 36.375 
Q 6.984375 53.65625 15.1875 63.9375 
Q 23.390625 74.21875 37.203125 74.21875 
Q 40.921875 74.21875 44.703125 73.484375 
Q 48.484375 72.75 52.59375 71.296875 
" id="DejaVuSans-36"/>
      </defs>
      <g transform="translate(260.673892 322.182437)scale(0.1 -0.1)">
       <use xlink:href="#DejaVuSans-30"/>
       <use x="63.623047" xlink:href="#DejaVuSans-2e"/>
       <use x="95.410156" xlink:href="#DejaVuSans-36"/>
      </g>
     </g>
    </g>
    <g id="xtick_5">
     <g id="line2d_5">
      <g>
       <use style="stroke:#000000;stroke-width:0.8;" x="333.556364" xlink:href="#m66fdae95f4" y="307.584"/>
      </g>
     </g>
     <g id="text_5">
      <!-- 0.8 -->
      <defs>
       <path d="M 31.78125 34.625 
Q 24.75 34.625 20.71875 30.859375 
Q 16.703125 27.09375 16.703125 20.515625 
Q 16.703125 13.921875 20.71875 10.15625 
Q 24.75 6.390625 31.78125 6.390625 
Q 38.8125 6.390625 42.859375 10.171875 
Q 46.921875 13.96875 46.921875 20.515625 
Q 46.921875 27.09375 42.890625 30.859375 
Q 38.875 34.625 31.78125 34.625 
M 21.921875 38.8125 
Q 15.578125 40.375 12.03125 44.71875 
Q 8.5 49.078125 8.5 55.328125 
Q 8.5 64.0625 14.71875 69.140625 
Q 20.953125 74.21875 31.78125 74.21875 
Q 42.671875 74.21875 48.875 69.140625 
Q 55.078125 64.0625 55.078125 55.328125 
Q 55.078125 49.078125 51.53125 44.71875 
Q 48 40.375 41.703125 38.8125 
Q 48.828125 37.15625 52.796875 32.3125 
Q 56.78125 27.484375 56.78125 20.515625 
Q 56.78125 9.90625 50.3125 4.234375 
Q 43.84375 -1.421875 31.78125 -1.421875 
Q 19.734375 -1.421875 13.25 4.234375 
Q 6.78125 9.90625 6.78125 20.515625 
Q 6.78125 27.484375 10.78125 32.3125 
Q 14.796875 37.15625 21.921875 38.8125 
M 18.3125 54.390625 
Q 18.3125 48.734375 21.84375 45.5625 
Q 25.390625 42.390625 31.78125 42.390625 
Q 38.140625 42.390625 41.71875 45.5625 
Q 45.3125 48.734375 45.3125 54.390625 
Q 45.3125 60.0625 41.71875 63.234375 
Q 38.140625 66.40625 31.78125 66.40625 
Q 25.390625 66.40625 21.84375 63.234375 
Q 18.3125 60.0625 18.3125 54.390625 
" id="DejaVuSans-38"/>
      </defs>
      <g transform="translate(325.604801 322.182437)scale(0.1 -0.1)">
       <use xlink:href="#DejaVuSans-30"/>
       <use x="63.623047" xlink:href="#DejaVuSans-2e"/>
       <use x="95.410156" xlink:href="#DejaVuSans-38"/>
      </g>
     </g>
    </g>
    <g id="xtick_6">
     <g id="line2d_6">
      <g>
       <use style="stroke:#000000;stroke-width:0.8;" x="398.487273" xlink:href="#m66fdae95f4" y="307.584"/>
      </g>
     </g>
     <g id="text_6">
      <!-- 1.0 -->
      <defs>
       <path d="M 12.40625 8.296875 
L 28.515625 8.296875 
L 28.515625 63.921875 
L 10.984375 60.40625 
L 10.984375 69.390625 
L 28.421875 72.90625 
L 38.28125 72.90625 
L 38.28125 8.296875 
L 54.390625 8.296875 
L 54.390625 0 
L 12.40625 0 
z
" id="DejaVuSans-31"/>
      </defs>
      <g transform="translate(390.53571 322.182437)scale(0.1 -0.1)">
       <use xlink:href="#DejaVuSans-31"/>
       <use x="63.623047" xlink:href="#DejaVuSans-2e"/>
       <use x="95.410156" xlink:href="#DejaVuSans-30"/>
      </g>
     </g>
    </g>
   </g>
   <g id="matplotlib.axis_2">
    <g id="ytick_1">
     <g id="line2d_7">
      <defs>
       <path d="M 0 0 
L -3.5 0 
" id="m20ca10cbf0" style="stroke:#000000;stroke-width:0.8;"/>
      </defs>
      <g>
       <use style="stroke:#000000;stroke-width:0.8;" x="57.6" xlink:href="#m20ca10cbf0" y="286.924392"/>
      </g>
     </g>
     <g id="text_7">
      <!-- 0.20 -->
      <g transform="translate(28.334375 290.723611)scale(0.1 -0.1)">
       <use xlink:href="#DejaVuSans-30"/>
       <use x="63.623047" xlink:href="#DejaVuSans-2e"/>
       <use x="95.410156" xlink:href="#DejaVuSans-32"/>
       <use x="159.033203" xlink:href="#DejaVuSans-30"/>
      </g>
     </g>
    </g>
    <g id="ytick_2">
     <g id="line2d_8">
      <g>
       <use style="stroke:#000000;stroke-width:0.8;" x="57.6" xlink:href="#m20ca10cbf0" y="254.989698"/>
      </g>
     </g>
     <g id="text_8">
      <!-- 0.25 -->
      <defs>
       <path d="M 10.796875 72.90625 
L 49.515625 72.90625 
L 49.515625 64.59375 
L 19.828125 64.59375 
L 19.828125 46.734375 
Q 21.96875 47.46875 24.109375 47.828125 
Q 26.265625 48.1875 28.421875 48.1875 
Q 40.625 48.1875 47.75 41.5 
Q 54.890625 34.8125 54.890625 23.390625 
Q 54.890625 11.625 47.5625 5.09375 
Q 40.234375 -1.421875 26.90625 -1.421875 
Q 22.3125 -1.421875 17.546875 -0.640625 
Q 12.796875 0.140625 7.71875 1.703125 
L 7.71875 11.625 
Q 12.109375 9.234375 16.796875 8.0625 
Q 21.484375 6.890625 26.703125 6.890625 
Q 35.15625 6.890625 40.078125 11.328125 
Q 45.015625 15.765625 45.015625 23.390625 
Q 45.015625 31 40.078125 35.4375 
Q 35.15625 39.890625 26.703125 39.890625 
Q 22.75 39.890625 18.8125 39.015625 
Q 14.890625 38.140625 10.796875 36.28125 
z
" id="DejaVuSans-35"/>
      </defs>
      <g transform="translate(28.334375 258.788917)scale(0.1 -0.1)">
       <use xlink:href="#DejaVuSans-30"/>
       <use x="63.623047" xlink:href="#DejaVuSans-2e"/>
       <use x="95.410156" xlink:href="#DejaVuSans-32"/>
       <use x="159.033203" xlink:href="#DejaVuSans-35"/>
      </g>
     </g>
    </g>
    <g id="ytick_3">
     <g id="line2d_9">
      <g>
       <use style="stroke:#000000;stroke-width:0.8;" x="57.6" xlink:href="#m20ca10cbf0" y="223.055004"/>
      </g>
     </g>
     <g id="text_9">
      <!-- 0.30 -->
      <defs>
       <path d="M 40.578125 39.3125 
Q 47.65625 37.796875 51.625 33 
Q 55.609375 28.21875 55.609375 21.1875 
Q 55.609375 10.40625 48.1875 4.484375 
Q 40.765625 -1.421875 27.09375 -1.421875 
Q 22.515625 -1.421875 17.65625 -0.515625 
Q 12.796875 0.390625 7.625 2.203125 
L 7.625 11.71875 
Q 11.71875 9.328125 16.59375 8.109375 
Q 21.484375 6.890625 26.8125 6.890625 
Q 36.078125 6.890625 40.9375 10.546875 
Q 45.796875 14.203125 45.796875 21.1875 
Q 45.796875 27.640625 41.28125 31.265625 
Q 36.765625 34.90625 28.71875 34.90625 
L 20.21875 34.90625 
L 20.21875 43.015625 
L 29.109375 43.015625 
Q 36.375 43.015625 40.234375 45.921875 
Q 44.09375 48.828125 44.09375 54.296875 
Q 44.09375 59.90625 40.109375 62.90625 
Q 36.140625 65.921875 28.71875 65.921875 
Q 24.65625 65.921875 20.015625 65.03125 
Q 15.375 64.15625 9.8125 62.3125 
L 9.8125 71.09375 
Q 15.4375 72.65625 20.34375 73.4375 
Q 25.25 74.21875 29.59375 74.21875 
Q 40.828125 74.21875 47.359375 69.109375 
Q 53.90625 64.015625 53.90625 55.328125 
Q 53.90625 49.265625 50.4375 45.09375 
Q 46.96875 40.921875 40.578125 39.3125 
" id="DejaVuSans-33"/>
      </defs>
      <g transform="translate(28.334375 226.854222)scale(0.1 -0.1)">
       <use xlink:href="#DejaVuSans-30"/>
       <use x="63.623047" xlink:href="#DejaVuSans-2e"/>
       <use x="95.410156" xlink:href="#DejaVuSans-33"/>
       <use x="159.033203" xlink:href="#DejaVuSans-30"/>
      </g>
     </g>
    </g>
    <g id="ytick_4">
     <g id="line2d_10">
      <g>
       <use style="stroke:#000000;stroke-width:0.8;" x="57.6" xlink:href="#m20ca10cbf0" y="191.120309"/>
      </g>
     </g>
     <g id="text_10">
      <!-- 0.35 -->
      <g transform="translate(28.334375 194.919528)scale(0.1 -0.1)">
       <use xlink:href="#DejaVuSans-30"/>
       <use x="63.623047" xlink:href="#DejaVuSans-2e"/>
       <use x="95.410156" xlink:href="#DejaVuSans-33"/>
       <use x="159.033203" xlink:href="#DejaVuSans-35"/>
      </g>
     </g>
    </g>
    <g id="ytick_5">
     <g id="line2d_11">
      <g>
       <use style="stroke:#000000;stroke-width:0.8;" x="57.6" xlink:href="#m20ca10cbf0" y="159.185615"/>
      </g>
     </g>
     <g id="text_11">
      <!-- 0.40 -->
      <g transform="translate(28.334375 162.984834)scale(0.1 -0.1)">
       <use xlink:href="#DejaVuSans-30"/>
       <use x="63.623047" xlink:href="#DejaVuSans-2e"/>
       <use x="95.410156" xlink:href="#DejaVuSans-34"/>
       <use x="159.033203" xlink:href="#DejaVuSans-30"/>
      </g>
     </g>
    </g>
    <g id="ytick_6">
     <g id="line2d_12">
      <g>
       <use style="stroke:#000000;stroke-width:0.8;" x="57.6" xlink:href="#m20ca10cbf0" y="127.25092"/>
      </g>
     </g>
     <g id="text_12">
      <!-- 0.45 -->
      <g transform="translate(28.334375 131.050139)scale(0.1 -0.1)">
       <use xlink:href="#DejaVuSans-30"/>
       <use x="63.623047" xlink:href="#DejaVuSans-2e"/>
       <use x="95.410156" xlink:href="#DejaVuSans-34"/>
       <use x="159.033203" xlink:href="#DejaVuSans-35"/>
      </g>
     </g>
    </g>
    <g id="ytick_7">
     <g id="line2d_13">
      <g>
       <use style="stroke:#000000;stroke-width:0.8;" x="57.6" xlink:href="#m20ca10cbf0" y="95.316226"/>
      </g>
     </g>
     <g id="text_13">
      <!-- 0.50 -->
      <g transform="translate(28.334375 99.115445)scale(0.1 -0.1)">
       <use xlink:href="#DejaVuSans-30"/>
       <use x="63.623047" xlink:href="#DejaVuSans-2e"/>
       <use x="95.410156" xlink:href="#DejaVuSans-35"/>
       <use x="159.033203" xlink:href="#DejaVuSans-30"/>
      </g>
     </g>
    </g>
    <g id="ytick_8">
     <g id="line2d_14">
      <g>
       <use style="stroke:#000000;stroke-width:0.8;" x="57.6" xlink:href="#m20ca10cbf0" y="63.381532"/>
      </g>
     </g>
     <g id="text_14">
      <!-- 0.55 -->
      <g transform="translate(28.334375 67.18075)scale(0.1 -0.1)">
       <use xlink:href="#DejaVuSans-30"/>
       <use x="63.623047" xlink:href="#DejaVuSans-2e"/>
       <use x="95.410156" xlink:href="#DejaVuSans-35"/>
       <use x="159.033203" xlink:href="#DejaVuSans-35"/>
      </g>
     </g>
    </g>
   </g>
   <g id="line2d_15">
    <path clip-path="url(#pd01d829bd2)" d="M 73.832727 108.381348 
L 74.92584 99.829876 
L 76.018953 99.951228 
L 77.112066 101.879444 
L 78.205179 101.17752 
L 80.391405 93.769309 
L 81.484518 96.932122 
L 82.577631 113.301207 
L 84.763857 164.581301 
L 85.85697 185.460843 
L 86.950083 201.65301 
L 89.136309 228.671039 
L 90.229421 241.049565 
L 91.322534 249.061341 
L 92.415647 245.440586 
L 93.50876 224.522083 
L 95.694986 160.977151 
L 96.788099 135.271638 
L 97.881212 116.582178 
L 98.974325 104.724187 
L 100.067438 98.754954 
L 101.160551 96.246803 
L 102.253664 92.548765 
L 103.346777 83.159965 
L 104.43989 71.563839 
L 105.533003 70.658171 
L 106.626116 86.142666 
L 108.812342 139.800617 
L 109.905455 165.948744 
L 112.09168 209.288596 
L 114.277906 250.801143 
L 115.371019 267.607734 
L 116.464132 275.427264 
L 117.557245 267.959655 
L 118.650358 242.405512 
L 120.836584 172.315245 
L 121.929697 145.835635 
L 123.02281 129.310708 
L 124.115923 122.355332 
L 125.209036 122.302959 
L 126.302149 124.656546 
L 127.395262 123.451969 
L 128.488375 113.593729 
L 129.581488 97.125646 
L 130.674601 86.731541 
L 131.767713 91.703135 
L 132.860826 107.102683 
L 133.953939 124.402346 
L 135.047052 138.511094 
L 137.233278 158.191807 
L 138.326391 173.01206 
L 140.512617 215.842233 
L 141.60573 230.987582 
L 142.698843 235.058616 
L 143.791956 227.077498 
L 144.885069 210.540436 
L 145.978182 190.035168 
L 149.257521 119.836323 
L 150.350634 104.113596 
L 151.443747 94.990492 
L 152.53686 88.48284 
L 153.629972 80.679278 
L 155.816198 60.965353 
L 156.909311 58.838502 
L 158.002424 71.555536 
L 159.095537 97.719631 
L 161.281763 158.929499 
L 163.467989 212.434802 
L 165.654215 259.085642 
L 166.747328 277.560501 
L 167.840441 288.91584 
L 168.933554 287.051492 
L 170.026667 265.666105 
L 172.212893 190.739648 
L 173.306006 161.638838 
L 174.399118 144.330234 
L 175.492231 137.553053 
L 176.585344 138.392935 
L 177.678457 142.835051 
L 178.77157 145.276778 
L 179.864683 139.256449 
L 180.957796 122.587178 
L 182.050909 103.967335 
L 183.144022 96.338136 
L 184.237135 100.039367 
L 185.330248 107.528053 
L 186.423361 112.894998 
L 187.516474 114.240087 
L 188.609587 114.093826 
L 189.7027 118.864231 
L 190.795813 134.851378 
L 192.982039 182.785354 
L 194.075152 200.085017 
L 195.168264 210.115704 
L 196.261377 215.19843 
L 197.35449 218.561153 
L 198.447603 221.165747 
L 199.540716 219.448299 
L 200.633829 206.109816 
L 201.726942 179.927837 
L 202.820055 150.97776 
L 203.913168 126.879839 
L 205.006281 108.456075 
L 206.099394 94.379901 
L 207.192507 83.63196 
L 208.28562 75.406221 
L 209.378733 68.045274 
L 210.471846 59.474002 
L 211.564959 53.744918 
L 212.658072 61.769468 
L 213.751185 84.899767 
L 218.123636 208.95392 
L 220.309862 257.709895 
L 221.402975 277.593713 
L 222.496088 291.772718 
L 223.589201 295.488 
L 224.682314 281.33646 
L 225.775427 247.282579 
L 226.86854 206.685918 
L 227.961653 174.069737 
L 229.054766 153.843579 
L 230.147879 144.896755 
L 231.240992 144.486075 
L 233.427218 153.572134 
L 234.520331 151.67202 
L 235.613444 138.207714 
L 236.706556 117.336475 
L 237.799669 102.357187 
L 238.892782 98.862893 
L 239.985895 101.398508 
L 241.079008 103.544519 
L 242.172121 102.293318 
L 243.265234 98.68342 
L 244.358347 97.501198 
L 245.45146 106.293458 
L 246.544573 127.865983 
L 247.637686 154.209551 
L 248.730799 177.491859 
L 249.823912 195.260323 
L 250.917025 208.78275 
L 253.103251 232.194713 
L 254.196364 241.868371 
L 255.289477 244.212377 
L 256.38259 231.352915 
L 257.475702 203.302756 
L 258.568815 171.035941 
L 259.661928 143.031769 
L 260.755041 121.568461 
L 261.848154 106.583425 
L 262.941267 97.526107 
L 264.03438 92.995851 
L 265.127493 89.678475 
L 266.220606 82.665616 
L 267.313719 71.356902 
L 268.406832 66.147076 
L 269.499945 77.071935 
L 270.593058 101.025511 
L 272.779284 158.678492 
L 273.872397 184.277982 
L 276.058623 228.326144 
L 277.151736 249.489905 
L 278.244848 267.927081 
L 279.337961 279.27731 
L 280.431074 277.483219 
L 281.524187 256.96901 
L 283.710413 185.170876 
L 284.803526 155.96532 
L 285.896639 137.086168 
L 286.989752 128.313707 
L 288.082865 127.385685 
L 289.175978 130.349224 
L 290.269091 131.636193 
L 291.362204 125.111935 
L 293.54843 93.6371 
L 294.641543 91.065079 
L 295.734656 101.000602 
L 296.827769 115.159806 
L 297.920882 127.258585 
L 299.013994 135.113881 
L 300.107107 141.049263 
L 301.20022 151.152123 
L 302.293333 169.849248 
L 303.386446 193.039584 
L 304.479559 212.815463 
L 305.572672 223.853371 
L 306.665785 224.396899 
L 307.758898 216.641878 
L 308.852011 204.658704 
L 309.945124 190.320026 
L 311.038237 171.42299 
L 313.224463 123.410454 
L 314.317576 106.285155 
L 315.410689 94.661565 
L 319.78314 56.56539 
L 320.876253 53.568 
L 321.969366 64.271871 
L 323.062479 89.341883 
L 326.341818 182.869023 
L 328.528044 237.10116 
L 329.621157 260.314489 
L 330.71427 279.723757 
L 331.807383 292.821453 
L 332.900496 294.371563 
L 333.993609 277.208581 
L 335.086722 241.662073 
L 336.179835 201.683667 
L 337.272948 170.387028 
L 338.366061 151.609428 
L 339.459174 143.965539 
L 340.552287 144.461166 
L 341.645399 149.301827 
L 342.738512 153.333263 
L 343.831625 149.964791 
L 344.924738 135.044902 
L 346.017851 114.264996 
L 347.110964 101.017208 
L 348.204077 99.075578 
L 349.29719 102.174521 
L 350.390303 104.188323 
L 351.483416 102.649709 
L 352.576529 99.188627 
L 353.669642 99.106236 
L 354.762755 109.88675 
L 355.855868 132.736023 
L 356.948981 158.877126 
L 358.042094 181.187981 
L 359.135207 197.870026 
L 360.22832 210.571093 
L 362.414545 232.92474 
L 363.507658 241.540721 
L 364.600771 241.651853 
L 365.693884 225.783504 
L 368.973223 137.846213 
L 370.066336 117.6373 
L 371.159449 103.683116 
L 372.252562 95.349438 
L 374.438788 87.181821 
L 375.531901 79.079989 
L 376.625014 68.122556 
L 377.718127 66.136218 
L 378.81124 80.66842 
L 379.904353 106.610889 
L 382.090579 164.844443 
L 383.183691 190.235079 
L 385.369917 234.490179 
L 386.46303 255.386966 
L 387.556143 272.674493 
L 388.649256 281.770771 
L 389.742369 276.241598 
L 390.835482 251.540751 
L 393.021708 178.822258 
L 394.114821 151.881511 
L 395.207934 135.589069 
L 396.301047 129.083972 
L 397.39416 129.650493 
L 398.487273 133.003636 
L 398.487273 133.003636 
" style="fill:none;stroke:#1f77b4;stroke-linecap:square;stroke-width:1.5;"/>
   </g>
   <g id="line2d_16">
    <path clip-path="url(#pd01d829bd2)" d="M 73.832727 108.65789 
L 74.92584 97.361802 
L 76.018953 99.170071 
L 77.112066 103.548704 
L 78.205179 104.301778 
L 79.298292 100.582571 
L 80.391405 95.587713 
L 81.484518 95.452457 
L 82.577631 108.464848 
L 84.763857 164.73744 
L 85.85697 186.860294 
L 86.950083 202.500005 
L 90.229421 238.699301 
L 91.322534 247.724599 
L 92.415647 247.882697 
L 93.50876 230.745862 
L 95.694986 161.054834 
L 96.788099 133.818138 
L 97.881212 115.262152 
L 98.974325 103.975503 
L 100.067438 98.741451 
L 102.253664 96.157003 
L 103.346777 89.063581 
L 104.43989 76.186252 
L 105.533003 70.219612 
L 106.626116 82.902816 
L 107.719229 109.200896 
L 109.905455 166.325125 
L 110.998567 189.242573 
L 114.277906 247.008807 
L 115.371019 263.166075 
L 116.464132 271.746605 
L 117.557245 268.25829 
L 118.650358 247.095298 
L 120.836584 171.917019 
L 121.929697 143.308563 
L 123.02281 126.208734 
L 124.115923 119.615935 
L 125.209036 120.67498 
L 126.302149 124.899087 
L 127.395262 126.378902 
L 128.488375 118.782736 
L 129.581488 101.336567 
L 130.674601 86.018363 
L 131.767713 88.139782 
L 132.860826 105.034295 
L 133.953939 124.628565 
L 135.047052 140.080922 
L 136.140165 149.992474 
L 137.233278 157.577739 
L 138.326391 169.840426 
L 139.419504 191.092775 
L 140.512617 214.982993 
L 141.60573 231.962407 
L 142.698843 237.539315 
L 143.791956 230.467935 
L 144.885069 213.397218 
L 147.071295 169.118 
L 149.257521 119.839179 
L 150.350634 103.146983 
L 151.443747 95.233209 
L 152.53686 90.916962 
L 153.629972 85.202853 
L 155.816198 66.496058 
L 156.909311 61.802632 
L 158.002424 70.065568 
L 159.095537 94.77822 
L 161.281763 158.851943 
L 162.374876 186.662314 
L 164.561102 234.464407 
L 165.654215 254.78069 
L 166.747328 271.09362 
L 167.840441 281.564488 
L 168.933554 282.689757 
L 170.026667 267.875184 
L 171.11978 233.195922 
L 172.212893 190.893614 
L 173.306006 158.346529 
L 174.399118 140.263366 
L 175.492231 134.052766 
L 176.585344 135.963485 
L 177.678457 142.026511 
L 178.77157 147.037794 
L 179.864683 143.937459 
L 180.957796 127.872819 
L 182.050909 105.281081 
L 183.144022 93.603536 
L 184.237135 98.098036 
L 185.330248 108.072232 
L 186.423361 115.179525 
L 187.516474 116.859638 
L 188.609587 115.25036 
L 189.7027 116.756907 
L 190.795813 129.87754 
L 192.982039 183.186929 
L 194.075152 202.112367 
L 195.168264 212.008538 
L 196.261377 215.856435 
L 197.35449 217.918901 
L 198.447603 220.444842 
L 199.540716 220.943693 
L 200.633829 211.589763 
L 201.726942 185.4432 
L 202.820055 152.028387 
L 203.913168 125.913111 
L 205.006281 108.203208 
L 206.099394 95.48581 
L 207.192507 85.951148 
L 208.28562 78.906916 
L 209.378733 73.203256 
L 211.564959 59.084028 
L 212.658072 61.868688 
L 213.751185 82.467919 
L 215.93741 147.772044 
L 217.030523 180.090601 
L 218.123636 208.668149 
L 219.216749 232.970769 
L 220.309862 253.606818 
L 221.402975 270.80803 
L 222.496088 283.126541 
L 223.589201 287.944339 
L 224.682314 280.064727 
L 225.775427 251.880295 
L 226.86854 208.227219 
L 227.961653 170.921538 
L 229.054766 149.483415 
L 230.147879 141.014642 
L 231.240992 141.578894 
L 232.334105 147.487055 
L 233.427218 154.23854 
L 234.520331 155.427143 
L 235.613444 143.979177 
L 236.706556 120.661881 
L 237.799669 100.82967 
L 238.892782 96.683354 
L 239.985895 101.557783 
L 241.079008 105.833604 
L 242.172121 105.499862 
L 243.265234 101.345396 
L 244.358347 97.926001 
L 245.45146 102.791555 
L 246.544573 123.105504 
L 247.637686 152.72633 
L 248.730799 178.563052 
L 249.823912 196.742409 
L 250.917025 209.233451 
L 254.196364 240.076882 
L 255.289477 244.922146 
L 256.38259 236.60915 
L 257.475702 209.183117 
L 258.568815 172.649607 
L 259.661928 141.973243 
L 260.755041 120.302221 
L 261.848154 105.933113 
L 262.941267 97.59213 
L 264.03438 94.004187 
L 265.127493 92.479077 
L 266.220606 88.058354 
L 267.313719 77.303512 
L 268.406832 67.920656 
L 269.499945 74.553088 
L 270.593058 98.053479 
L 272.779284 158.536652 
L 273.872397 184.766182 
L 274.96551 206.70764 
L 277.151736 245.709291 
L 278.244848 262.904712 
L 279.337961 274.03342 
L 280.431074 275.149042 
L 281.524187 260.271071 
L 282.6173 226.425284 
L 283.710413 185.64178 
L 284.803526 153.423302 
L 285.896639 133.706614 
L 286.989752 125.171252 
L 288.082865 125.167416 
L 289.175978 129.728588 
L 290.269091 133.50784 
L 291.362204 129.754915 
L 292.455317 114.355844 
L 293.54843 94.67536 
L 294.641543 87.974349 
L 295.734656 98.474431 
L 296.827769 115.014688 
L 297.920882 128.831154 
L 299.013994 137.030133 
L 300.107107 141.423428 
L 301.20022 148.497439 
L 302.293333 165.687029 
L 303.386446 191.160345 
L 304.479559 213.6028 
L 305.572672 226.103477 
L 306.665785 227.22094 
L 307.758898 218.941662 
L 309.945124 191.739355 
L 311.038237 174.447679 
L 313.224463 123.553467 
L 314.317576 105.527493 
L 315.410689 95.428232 
L 317.596915 79.967208 
L 319.78314 62.769232 
L 320.876253 58.162464 
L 321.969366 64.0883 
L 323.062479 86.739884 
L 326.341818 182.596193 
L 327.434931 210.383007 
L 328.528044 235.040688 
L 329.621157 256.007097 
L 330.71427 272.741574 
L 331.807383 284.169295 
L 332.900496 287.551353 
L 333.993609 277.048552 
L 335.086722 246.181229 
L 336.179835 202.653846 
L 337.272948 167.027317 
L 338.366061 147.196294 
L 339.459174 140.148578 
L 340.552287 141.710834 
L 342.738512 154.420403 
L 343.831625 154.120378 
L 344.924738 140.734217 
L 346.017851 116.930926 
L 347.110964 99.051809 
L 348.204077 97.083141 
L 349.29719 102.656985 
L 350.390303 106.662531 
L 351.483416 105.837575 
L 352.576529 101.577399 
L 353.669642 98.967187 
L 354.762755 105.852183 
L 355.855868 128.272149 
L 356.948981 157.919649 
L 358.042094 182.484579 
L 359.135207 199.320224 
L 360.22832 210.854262 
L 363.507658 240.080542 
L 364.600771 243.196373 
L 365.693884 231.700158 
L 366.786997 201.546646 
L 367.88011 165.446365 
L 368.973223 136.647843 
L 370.066336 116.537947 
L 371.159449 103.278561 
L 372.252562 95.696133 
L 373.345675 92.441289 
L 374.438788 90.546148 
L 375.531901 84.949167 
L 376.625014 73.656608 
L 377.718127 66.899097 
L 378.81124 77.827703 
L 379.904353 103.857905 
L 382.090579 164.86867 
L 383.183691 190.661538 
L 385.369917 232.055987 
L 386.46303 251.164976 
L 387.556143 267.208118 
L 388.649256 276.47929 
L 389.742369 274.761046 
L 390.835482 255.66496 
L 393.021708 178.3015 
L 394.114821 148.883405 
L 395.207934 132.104201 
L 396.301047 126.041569 
L 397.39416 127.675507 
L 398.487273 132.800839 
L 398.487273 132.800839 
" style="fill:none;stroke:#ff7f0e;stroke-linecap:square;stroke-width:1.5;"/>
   </g>
   <g id="line2d_17">
    <path clip-path="url(#pd01d829bd2)" d="M 73.832727 112.387664 
L 74.92584 98.131645 
L 76.018953 100.119496 
L 77.112066 103.980472 
L 78.205179 105.895517 
L 79.298292 102.688187 
L 80.391405 97.214572 
L 81.484518 95.719871 
L 82.577631 110.215509 
L 84.763857 166.354243 
L 85.85697 189.201097 
L 86.950083 204.598618 
L 90.229421 240.956625 
L 91.322534 249.806417 
L 92.415647 249.66653 
L 93.50876 234.200855 
L 94.601873 201.034313 
L 95.694986 163.755899 
L 96.788099 135.87994 
L 97.881212 116.25675 
L 98.974325 104.620638 
L 100.067438 99.044243 
L 101.160551 97.818255 
L 102.253664 97.34818 
L 103.346777 91.651653 
L 104.43989 78.664008 
L 105.533003 70.558794 
L 106.626116 84.715057 
L 107.719229 110.995411 
L 109.905455 168.375548 
L 110.998567 191.447365 
L 115.371019 265.790628 
L 116.464132 273.997494 
L 117.557245 270.458712 
L 118.650358 250.366174 
L 120.836584 173.975409 
L 121.929697 145.0451 
L 123.02281 128.144541 
L 124.115923 121.159796 
L 125.209036 121.725707 
L 126.302149 125.269102 
L 127.395262 127.949036 
L 128.488375 122.27682 
L 130.674601 87.043526 
L 131.767713 89.756344 
L 132.860826 106.746485 
L 133.953939 125.48432 
L 135.047052 142.072387 
L 136.140165 152.215255 
L 137.233278 159.041001 
L 138.326391 171.332171 
L 140.512617 217.319825 
L 141.60573 233.862842 
L 142.698843 239.708381 
L 143.791956 232.83514 
L 144.885069 215.728234 
L 148.164408 148.215614 
L 149.257521 122.807277 
L 150.350634 103.864553 
L 151.443747 95.517415 
L 152.53686 91.497066 
L 153.629972 86.68046 
L 154.723085 78.221881 
L 155.816198 68.276929 
L 156.909311 62.6845 
L 158.002424 70.586976 
L 159.095537 96.705046 
L 161.281763 160.926699 
L 162.374876 188.941676 
L 164.561102 236.670523 
L 165.654215 257.36699 
L 166.747328 273.894258 
L 167.840441 284.326301 
L 168.933554 284.953974 
L 170.026667 270.652953 
L 171.11978 236.946912 
L 172.212893 193.276694 
L 173.306006 160.440537 
L 174.399118 142.978207 
L 175.492231 136.373712 
L 176.585344 137.652314 
L 178.77157 148.067311 
L 179.864683 146.731288 
L 180.957796 133.095101 
L 182.050909 109.245539 
L 183.144022 94.052574 
L 184.237135 99.615578 
L 186.423361 116.633117 
L 187.516474 118.966859 
L 188.609587 117.062104 
L 189.7027 117.182776 
L 190.795813 131.856442 
L 192.982039 184.863371 
L 194.075152 204.384233 
L 195.168264 214.233264 
L 196.261377 217.414392 
L 197.35449 219.19063 
L 198.447603 222.1027 
L 199.540716 222.246004 
L 200.633829 213.908491 
L 201.726942 190.115953 
L 202.820055 156.570579 
L 203.913168 128.045428 
L 205.006281 109.199042 
L 206.099394 96.157431 
L 207.192507 86.608302 
L 208.28562 79.75551 
L 209.378733 74.455752 
L 210.471846 68.259465 
L 211.564959 60.813265 
L 212.658072 62.238085 
L 213.751185 84.130143 
L 215.93741 149.558618 
L 217.030523 182.325426 
L 218.123636 210.962628 
L 219.216749 235.183979 
L 220.309862 256.073822 
L 221.402975 273.664034 
L 222.496088 286.056855 
L 223.589201 290.597086 
L 224.682314 282.340122 
L 225.775427 255.532607 
L 226.86854 211.3144 
L 227.961653 172.877436 
L 229.054766 152.60386 
L 230.147879 143.686422 
L 231.240992 143.653454 
L 232.334105 148.855595 
L 233.427218 154.91681 
L 234.520331 157.395793 
L 235.613444 148.569808 
L 237.799669 102.417899 
L 238.892782 97.936206 
L 239.985895 102.01927 
L 241.079008 106.773055 
L 242.172121 107.410082 
L 244.358347 99.067444 
L 245.45146 103.296457 
L 246.544573 125.714238 
L 247.637686 154.747576 
L 248.730799 180.549857 
L 249.823912 199.09156 
L 250.917025 211.054711 
L 254.196364 242.245637 
L 255.289477 246.568981 
L 256.38259 239.016996 
L 257.475702 213.529759 
L 258.568815 176.147025 
L 259.661928 144.825695 
L 260.755041 121.624265 
L 261.848154 106.588989 
L 262.941267 97.900773 
L 264.03438 94.283195 
L 265.127493 93.229628 
L 266.220606 89.918232 
L 268.406832 69.095286 
L 269.499945 75.598065 
L 270.593058 100.048225 
L 273.872397 187.001898 
L 274.96551 208.794303 
L 278.244848 265.666515 
L 279.337961 276.555334 
L 280.431074 277.213388 
L 281.524187 263.090028 
L 282.6173 230.246677 
L 283.710413 188.154992 
L 284.803526 155.238338 
L 285.896639 135.994748 
L 286.989752 127.034704 
L 288.082865 126.569076 
L 290.269091 134.569922 
L 291.362204 132.600088 
L 292.455317 119.045587 
L 293.54843 97.60205 
L 294.641543 88.699645 
L 295.734656 100.332201 
L 297.920882 130.423977 
L 299.013994 139.281351 
L 300.107107 143.267797 
L 301.20022 149.176555 
L 302.293333 168.203674 
L 303.386446 193.920964 
L 304.479559 215.386736 
L 305.572672 228.251534 
L 306.665785 229.442479 
L 307.758898 220.922545 
L 309.945124 192.972412 
L 311.038237 176.557278 
L 312.13135 154.456863 
L 313.224463 127.10751 
L 314.317576 106.432555 
L 315.410689 95.70828 
L 317.596915 81.358097 
L 319.78314 64.345986 
L 320.876253 59.366279 
L 321.969366 64.463128 
L 323.062479 88.450532 
L 326.341818 184.83587 
L 327.434931 212.54487 
L 328.528044 237.265748 
L 329.621157 258.544802 
L 330.71427 275.566832 
L 331.807383 287.096533 
L 332.900496 290.088265 
L 333.993609 279.475307 
L 335.086722 249.912635 
L 336.179835 205.521968 
L 337.272948 169.133271 
L 338.366061 150.308458 
L 339.459174 142.79259 
L 340.552287 143.681322 
L 342.738512 155.162093 
L 343.831625 156.388166 
L 344.924738 145.646478 
L 347.110964 100.03098 
L 348.204077 98.406279 
L 350.390303 107.771118 
L 351.483416 107.830555 
L 352.576529 103.514187 
L 353.669642 99.886137 
L 354.762755 106.7241 
L 355.855868 131.012559 
L 356.948981 159.776822 
L 358.042094 184.606373 
L 359.135207 201.633436 
L 360.22832 212.583631 
L 361.321433 222.250538 
L 362.414545 232.986991 
L 363.507658 242.180302 
L 364.600771 244.748044 
L 365.693884 234.529725 
L 366.786997 206.084849 
L 367.88011 168.579258 
L 368.973223 139.114021 
L 370.066336 117.702917 
L 371.159449 103.825495 
L 372.252562 95.927209 
L 373.345675 92.792863 
L 374.438788 91.478743 
L 375.531901 87.02621 
L 376.625014 76.124694 
L 377.718127 67.622829 
L 378.81124 79.30778 
L 379.904353 105.741548 
L 382.090579 166.896907 
L 383.183691 192.905615 
L 385.369917 234.130739 
L 386.46303 253.823155 
L 387.556143 269.956205 
L 388.649256 278.939875 
L 389.742369 276.911791 
L 390.835482 258.85751 
L 391.928595 222.166791 
L 393.021708 180.32718 
L 394.114821 151.027776 
L 395.207934 134.262651 
L 396.301047 127.887562 
L 397.39416 128.994694 
L 398.487273 133.323264 
L 398.487273 133.323264 
" style="fill:none;stroke:#2ca02c;stroke-linecap:square;stroke-width:1.5;"/>
   </g>
   <g id="line2d_18">
    <path clip-path="url(#pd01d829bd2)" d="M 73.832727 106.142952 
L 74.92584 94.905215 
L 76.018953 96.932941 
L 77.112066 102.520719 
L 78.205179 102.233214 
L 80.391405 93.421393 
L 81.484518 94.285195 
L 82.577631 105.695377 
L 83.670744 132.703723 
L 84.763857 163.342698 
L 85.85697 186.30062 
L 86.950083 202.059285 
L 89.136309 224.885368 
L 90.229421 236.160547 
L 91.322534 245.333308 
L 92.415647 247.551212 
L 93.50876 228.630459 
L 95.694986 159.07986 
L 96.788099 131.07463 
L 97.881212 112.751702 
L 98.974325 101.916283 
L 100.067438 97.130362 
L 101.160551 96.329573 
L 102.253664 94.310337 
L 103.346777 85.824009 
L 104.43989 72.551701 
L 105.533003 68.310429 
L 106.626116 78.876566 
L 107.719229 105.97533 
L 108.812342 137.715876 
L 109.905455 165.668384 
L 110.998567 188.778917 
L 113.184793 225.002197 
L 114.277906 243.103736 
L 115.371019 259.068792 
L 116.464132 268.753978 
L 117.557245 267.814282 
L 118.650358 245.198068 
L 120.836584 169.587637 
L 121.929697 140.042104 
L 123.02281 123.120186 
L 124.115923 117.047423 
L 125.209036 118.956442 
L 126.302149 124.026752 
L 127.395262 124.963307 
L 128.488375 115.802908 
L 129.581488 97.670375 
L 130.674601 84.107409 
L 131.767713 84.946719 
L 132.860826 102.092366 
L 133.953939 123.628106 
L 135.047052 138.814324 
L 136.140165 148.557131 
L 137.233278 156.883103 
L 138.326391 168.396954 
L 139.419504 188.217791 
L 140.512617 212.405104 
L 141.60573 230.3023 
L 142.698843 236.982794 
L 143.791956 229.403092 
L 144.885069 212.301783 
L 147.071295 167.776856 
L 149.257521 118.095169 
L 150.350634 101.003612 
L 151.443747 93.267022 
L 152.53686 89.548504 
L 153.629972 82.783355 
L 155.816198 63.300623 
L 156.909311 59.506451 
L 158.002424 66.918174 
L 159.095537 90.656168 
L 161.281763 157.954621 
L 162.374876 185.774745 
L 163.467989 210.022314 
L 164.561102 231.632269 
L 165.654215 250.771766 
L 166.747328 266.470632 
L 167.840441 277.425625 
L 168.933554 280.590554 
L 170.026667 266.859107 
L 171.11978 230.674414 
L 172.212893 188.865625 
L 173.306006 154.683171 
L 174.399118 136.573834 
L 175.492231 131.142715 
L 176.585344 134.006162 
L 177.678457 140.866001 
L 178.77157 146.392639 
L 179.864683 141.813798 
L 180.957796 124.344538 
L 182.050909 102.311676 
L 183.144022 91.308064 
L 184.237135 95.39618 
L 185.330248 106.885884 
L 186.423361 113.57262 
L 187.516474 114.673478 
L 188.609587 113.338117 
L 189.7027 115.931082 
L 190.795813 127.542152 
L 191.888926 152.942708 
L 192.982039 181.630467 
L 194.075152 201.620901 
L 195.168264 211.468719 
L 196.261377 215.620528 
L 197.35449 217.211801 
L 198.447603 219.305009 
L 199.540716 220.322804 
L 200.633829 210.523344 
L 201.726942 182.495428 
L 202.820055 150.040806 
L 203.913168 123.592148 
L 205.006281 105.969573 
L 206.099394 93.77135 
L 207.192507 84.321867 
L 208.28562 76.971316 
L 209.378733 70.766222 
L 211.564959 55.785271 
L 212.658072 59.187638 
L 213.751185 78.051318 
L 218.123636 207.13373 
L 219.216749 230.537713 
L 220.309862 249.840408 
L 221.402975 266.019142 
L 222.496088 278.460944 
L 223.589201 284.650375 
L 224.682314 279.546627 
L 225.775427 249.563948 
L 227.961653 167.279281 
L 229.054766 145.376804 
L 230.147879 137.740363 
L 231.240992 139.32791 
L 232.334105 146.027278 
L 233.427218 153.532994 
L 234.520331 154.130421 
L 235.613444 140.934941 
L 236.706556 117.155291 
L 237.799669 99.132281 
L 238.892782 93.969756 
L 239.985895 99.947605 
L 241.079008 104.432749 
L 242.172121 103.171428 
L 243.265234 98.886132 
L 244.358347 96.247056 
L 245.45146 101.241016 
L 246.544573 119.765784 
L 247.637686 150.408237 
L 248.730799 177.832184 
L 249.823912 196.228449 
L 250.917025 208.945753 
L 254.196364 237.64193 
L 255.289477 243.533585 
L 256.38259 235.501377 
L 257.475702 206.262816 
L 258.568815 170.715613 
L 259.661928 139.467222 
L 260.755041 117.702277 
L 261.848154 103.787979 
L 262.941267 95.8383 
L 264.03438 92.658241 
L 265.127493 90.985585 
L 266.220606 85.307865 
L 267.313719 73.603956 
L 268.406832 65.449722 
L 269.499945 71.157238 
L 270.593058 94.125351 
L 272.779284 157.659673 
L 273.872397 184.088656 
L 274.96551 205.79446 
L 277.151736 242.00663 
L 278.244848 258.55433 
L 279.337961 270.315978 
L 280.431074 273.441836 
L 281.524187 259.072184 
L 282.6173 223.893325 
L 283.710413 183.697129 
L 284.803526 150.073822 
L 285.896639 130.354219 
L 286.989752 122.36524 
L 288.082865 123.207188 
L 289.175978 128.61781 
L 290.269091 132.659246 
L 291.362204 127.37068 
L 292.455317 110.754256 
L 293.54843 91.857763 
L 294.641543 85.384202 
L 295.734656 95.421514 
L 296.827769 113.574191 
L 297.920882 127.630216 
L 299.013994 135.290631 
L 300.107107 140.092223 
L 301.20022 147.727863 
L 302.293333 163.014909 
L 304.479559 212.113903 
L 305.572672 225.669646 
L 306.665785 226.415721 
L 307.758898 218.222739 
L 308.852011 205.502846 
L 309.945124 190.847094 
L 311.038237 173.491921 
L 313.224463 121.796675 
L 314.317576 103.374567 
L 315.410689 93.549986 
L 316.503802 86.39799 
L 319.78314 59.695763 
L 320.876253 55.564295 
L 321.969366 61.246868 
L 323.062479 82.517849 
L 326.341818 181.382708 
L 327.434931 208.725901 
L 328.528044 232.258771 
L 329.621157 252.050877 
L 330.71427 267.944856 
L 331.807383 279.609958 
L 332.900496 284.611368 
L 333.993609 276.555538 
L 335.086722 243.77414 
L 336.179835 200.823884 
L 337.272948 163.291067 
L 338.366061 143.152468 
L 339.459174 136.967754 
L 340.552287 139.586481 
L 342.738512 153.820661 
L 343.831625 152.569229 
L 344.924738 137.517778 
L 346.017851 113.586431 
L 347.110964 97.271203 
L 348.204077 94.365568 
L 349.29719 101.24269 
L 350.390303 105.106604 
L 351.483416 103.44586 
L 352.576529 99.190658 
L 353.669642 97.506642 
L 354.762755 104.040269 
L 355.855868 124.963534 
L 356.948981 155.814512 
L 358.042094 181.929042 
L 359.135207 198.810889 
L 360.22832 210.492507 
L 363.507658 237.754586 
L 364.600771 242.303873 
L 365.693884 230.18293 
L 366.786997 198.592717 
L 367.88011 163.724998 
L 368.973223 134.051266 
L 370.066336 114.046026 
L 371.159449 101.235528 
L 372.252562 94.025086 
L 373.345675 91.135743 
L 374.438788 88.835398 
L 375.531901 81.939854 
L 376.625014 69.931648 
L 377.718127 64.858456 
L 378.81124 74.000595 
L 379.904353 100.257807 
L 382.090579 163.919309 
L 383.183691 189.890674 
L 384.276804 211.225662 
L 386.46303 247.164637 
L 387.556143 262.844979 
L 388.649256 273.004176 
L 389.742369 273.666482 
L 390.835482 254.02192 
L 393.021708 176.001867 
L 394.114821 145.367419 
L 395.207934 128.807428 
L 396.301047 123.397116 
L 397.39416 125.899361 
L 398.487273 131.861788 
L 398.487273 131.861788 
" style="fill:none;stroke:#d62728;stroke-linecap:square;stroke-width:1.5;"/>
   </g>
   <g id="patch_3">
    <path d="M 57.6 307.584 
L 57.6 41.472 
" style="fill:none;stroke:#000000;stroke-linecap:square;stroke-linejoin:miter;stroke-width:0.8;"/>
   </g>
   <g id="patch_4">
    <path d="M 414.72 307.584 
L 414.72 41.472 
" style="fill:none;stroke:#000000;stroke-linecap:square;stroke-linejoin:miter;stroke-width:0.8;"/>
   </g>
   <g id="patch_5">
    <path d="M 57.6 307.584 
L 414.72 307.584 
" style="fill:none;stroke:#000000;stroke-linecap:square;stroke-linejoin:miter;stroke-width:0.8;"/>
   </g>
   <g id="patch_6">
    <path d="M 57.6 41.472 
L 414.72 41.472 
" style="fill:none;stroke:#000000;stroke-linecap:square;stroke-linejoin:miter;stroke-width:0.8;"/>
   </g>
   <g id="text_15">
    <!-- Plot of Train Data vs MCMC Uncertainty  -->
    <defs>
     <path d="M 19.671875 64.796875 
L 19.671875 37.40625 
L 32.078125 37.40625 
Q 38.96875 37.40625 42.71875 40.96875 
Q 46.484375 44.53125 46.484375 51.125 
Q 46.484375 57.671875 42.71875 61.234375 
Q 38.96875 64.796875 32.078125 64.796875 
z
M 9.8125 72.90625 
L 32.078125 72.90625 
Q 44.34375 72.90625 50.609375 67.359375 
Q 56.890625 61.8125 56.890625 51.125 
Q 56.890625 40.328125 50.609375 34.8125 
Q 44.34375 29.296875 32.078125 29.296875 
L 19.671875 29.296875 
L 19.671875 0 
L 9.8125 0 
z
" id="DejaVuSans-50"/>
     <path d="M 9.421875 75.984375 
L 18.40625 75.984375 
L 18.40625 0 
L 9.421875 0 
z
" id="DejaVuSans-6c"/>
     <path d="M 30.609375 48.390625 
Q 23.390625 48.390625 19.1875 42.75 
Q 14.984375 37.109375 14.984375 27.296875 
Q 14.984375 17.484375 19.15625 11.84375 
Q 23.34375 6.203125 30.609375 6.203125 
Q 37.796875 6.203125 41.984375 11.859375 
Q 46.1875 17.53125 46.1875 27.296875 
Q 46.1875 37.015625 41.984375 42.703125 
Q 37.796875 48.390625 30.609375 48.390625 
M 30.609375 56 
Q 42.328125 56 49.015625 48.375 
Q 55.71875 40.765625 55.71875 27.296875 
Q 55.71875 13.875 49.015625 6.21875 
Q 42.328125 -1.421875 30.609375 -1.421875 
Q 18.84375 -1.421875 12.171875 6.21875 
Q 5.515625 13.875 5.515625 27.296875 
Q 5.515625 40.765625 12.171875 48.375 
Q 18.84375 56 30.609375 56 
" id="DejaVuSans-6f"/>
     <path d="M 18.3125 70.21875 
L 18.3125 54.6875 
L 36.8125 54.6875 
L 36.8125 47.703125 
L 18.3125 47.703125 
L 18.3125 18.015625 
Q 18.3125 11.328125 20.140625 9.421875 
Q 21.96875 7.515625 27.59375 7.515625 
L 36.8125 7.515625 
L 36.8125 0 
L 27.59375 0 
Q 17.1875 0 13.234375 3.875 
Q 9.28125 7.765625 9.28125 18.015625 
L 9.28125 47.703125 
L 2.6875 47.703125 
L 2.6875 54.6875 
L 9.28125 54.6875 
L 9.28125 70.21875 
z
" id="DejaVuSans-74"/>
     <path id="DejaVuSans-20"/>
     <path d="M 37.109375 75.984375 
L 37.109375 68.5 
L 28.515625 68.5 
Q 23.6875 68.5 21.796875 66.546875 
Q 19.921875 64.59375 19.921875 59.515625 
L 19.921875 54.6875 
L 34.71875 54.6875 
L 34.71875 47.703125 
L 19.921875 47.703125 
L 19.921875 0 
L 10.890625 0 
L 10.890625 47.703125 
L 2.296875 47.703125 
L 2.296875 54.6875 
L 10.890625 54.6875 
L 10.890625 58.5 
Q 10.890625 67.625 15.140625 71.796875 
Q 19.390625 75.984375 28.609375 75.984375 
z
" id="DejaVuSans-66"/>
     <path d="M -0.296875 72.90625 
L 61.375 72.90625 
L 61.375 64.59375 
L 35.5 64.59375 
L 35.5 0 
L 25.59375 0 
L 25.59375 64.59375 
L -0.296875 64.59375 
z
" id="DejaVuSans-54"/>
     <path d="M 41.109375 46.296875 
Q 39.59375 47.171875 37.8125 47.578125 
Q 36.03125 48 33.890625 48 
Q 26.265625 48 22.1875 43.046875 
Q 18.109375 38.09375 18.109375 28.8125 
L 18.109375 0 
L 9.078125 0 
L 9.078125 54.6875 
L 18.109375 54.6875 
L 18.109375 46.1875 
Q 20.953125 51.171875 25.484375 53.578125 
Q 30.03125 56 36.53125 56 
Q 37.453125 56 38.578125 55.875 
Q 39.703125 55.765625 41.0625 55.515625 
z
" id="DejaVuSans-72"/>
     <path d="M 34.28125 27.484375 
Q 23.390625 27.484375 19.1875 25 
Q 14.984375 22.515625 14.984375 16.5 
Q 14.984375 11.71875 18.140625 8.90625 
Q 21.296875 6.109375 26.703125 6.109375 
Q 34.1875 6.109375 38.703125 11.40625 
Q 43.21875 16.703125 43.21875 25.484375 
L 43.21875 27.484375 
z
M 52.203125 31.203125 
L 52.203125 0 
L 43.21875 0 
L 43.21875 8.296875 
Q 40.140625 3.328125 35.546875 0.953125 
Q 30.953125 -1.421875 24.3125 -1.421875 
Q 15.921875 -1.421875 10.953125 3.296875 
Q 6 8.015625 6 15.921875 
Q 6 25.140625 12.171875 29.828125 
Q 18.359375 34.515625 30.609375 34.515625 
L 43.21875 34.515625 
L 43.21875 35.40625 
Q 43.21875 41.609375 39.140625 45 
Q 35.0625 48.390625 27.6875 48.390625 
Q 23 48.390625 18.546875 47.265625 
Q 14.109375 46.140625 10.015625 43.890625 
L 10.015625 52.203125 
Q 14.9375 54.109375 19.578125 55.046875 
Q 24.21875 56 28.609375 56 
Q 40.484375 56 46.34375 49.84375 
Q 52.203125 43.703125 52.203125 31.203125 
" id="DejaVuSans-61"/>
     <path d="M 9.421875 54.6875 
L 18.40625 54.6875 
L 18.40625 0 
L 9.421875 0 
z
M 9.421875 75.984375 
L 18.40625 75.984375 
L 18.40625 64.59375 
L 9.421875 64.59375 
z
" id="DejaVuSans-69"/>
     <path d="M 54.890625 33.015625 
L 54.890625 0 
L 45.90625 0 
L 45.90625 32.71875 
Q 45.90625 40.484375 42.875 44.328125 
Q 39.84375 48.1875 33.796875 48.1875 
Q 26.515625 48.1875 22.3125 43.546875 
Q 18.109375 38.921875 18.109375 30.90625 
L 18.109375 0 
L 9.078125 0 
L 9.078125 54.6875 
L 18.109375 54.6875 
L 18.109375 46.1875 
Q 21.34375 51.125 25.703125 53.5625 
Q 30.078125 56 35.796875 56 
Q 45.21875 56 50.046875 50.171875 
Q 54.890625 44.34375 54.890625 33.015625 
" id="DejaVuSans-6e"/>
     <path d="M 19.671875 64.796875 
L 19.671875 8.109375 
L 31.59375 8.109375 
Q 46.6875 8.109375 53.6875 14.9375 
Q 60.6875 21.78125 60.6875 36.53125 
Q 60.6875 51.171875 53.6875 57.984375 
Q 46.6875 64.796875 31.59375 64.796875 
z
M 9.8125 72.90625 
L 30.078125 72.90625 
Q 51.265625 72.90625 61.171875 64.09375 
Q 71.09375 55.28125 71.09375 36.53125 
Q 71.09375 17.671875 61.125 8.828125 
Q 51.171875 0 30.078125 0 
L 9.8125 0 
z
" id="DejaVuSans-44"/>
     <path d="M 2.984375 54.6875 
L 12.5 54.6875 
L 29.59375 8.796875 
L 46.6875 54.6875 
L 56.203125 54.6875 
L 35.6875 0 
L 23.484375 0 
z
" id="DejaVuSans-76"/>
     <path d="M 44.28125 53.078125 
L 44.28125 44.578125 
Q 40.484375 46.53125 36.375 47.5 
Q 32.28125 48.484375 27.875 48.484375 
Q 21.1875 48.484375 17.84375 46.4375 
Q 14.5 44.390625 14.5 40.28125 
Q 14.5 37.15625 16.890625 35.375 
Q 19.28125 33.59375 26.515625 31.984375 
L 29.59375 31.296875 
Q 39.15625 29.25 43.1875 25.515625 
Q 47.21875 21.78125 47.21875 15.09375 
Q 47.21875 7.46875 41.1875 3.015625 
Q 35.15625 -1.421875 24.609375 -1.421875 
Q 20.21875 -1.421875 15.453125 -0.5625 
Q 10.6875 0.296875 5.421875 2 
L 5.421875 11.28125 
Q 10.40625 8.6875 15.234375 7.390625 
Q 20.0625 6.109375 24.8125 6.109375 
Q 31.15625 6.109375 34.5625 8.28125 
Q 37.984375 10.453125 37.984375 14.40625 
Q 37.984375 18.0625 35.515625 20.015625 
Q 33.0625 21.96875 24.703125 23.78125 
L 21.578125 24.515625 
Q 13.234375 26.265625 9.515625 29.90625 
Q 5.8125 33.546875 5.8125 39.890625 
Q 5.8125 47.609375 11.28125 51.796875 
Q 16.75 56 26.8125 56 
Q 31.78125 56 36.171875 55.265625 
Q 40.578125 54.546875 44.28125 53.078125 
" id="DejaVuSans-73"/>
     <path d="M 9.8125 72.90625 
L 24.515625 72.90625 
L 43.109375 23.296875 
L 61.8125 72.90625 
L 76.515625 72.90625 
L 76.515625 0 
L 66.890625 0 
L 66.890625 64.015625 
L 48.09375 14.015625 
L 38.1875 14.015625 
L 19.390625 64.015625 
L 19.390625 0 
L 9.8125 0 
z
" id="DejaVuSans-4d"/>
     <path d="M 64.40625 67.28125 
L 64.40625 56.890625 
Q 59.421875 61.53125 53.78125 63.8125 
Q 48.140625 66.109375 41.796875 66.109375 
Q 29.296875 66.109375 22.65625 58.46875 
Q 16.015625 50.828125 16.015625 36.375 
Q 16.015625 21.96875 22.65625 14.328125 
Q 29.296875 6.6875 41.796875 6.6875 
Q 48.140625 6.6875 53.78125 8.984375 
Q 59.421875 11.28125 64.40625 15.921875 
L 64.40625 5.609375 
Q 59.234375 2.09375 53.4375 0.328125 
Q 47.65625 -1.421875 41.21875 -1.421875 
Q 24.65625 -1.421875 15.125 8.703125 
Q 5.609375 18.84375 5.609375 36.375 
Q 5.609375 53.953125 15.125 64.078125 
Q 24.65625 74.21875 41.21875 74.21875 
Q 47.75 74.21875 53.53125 72.484375 
Q 59.328125 70.75 64.40625 67.28125 
" id="DejaVuSans-43"/>
     <path d="M 8.6875 72.90625 
L 18.609375 72.90625 
L 18.609375 28.609375 
Q 18.609375 16.890625 22.84375 11.734375 
Q 27.09375 6.59375 36.625 6.59375 
Q 46.09375 6.59375 50.34375 11.734375 
Q 54.59375 16.890625 54.59375 28.609375 
L 54.59375 72.90625 
L 64.5 72.90625 
L 64.5 27.390625 
Q 64.5 13.140625 57.4375 5.859375 
Q 50.390625 -1.421875 36.625 -1.421875 
Q 22.796875 -1.421875 15.734375 5.859375 
Q 8.6875 13.140625 8.6875 27.390625 
z
" id="DejaVuSans-55"/>
     <path d="M 48.78125 52.59375 
L 48.78125 44.1875 
Q 44.96875 46.296875 41.140625 47.34375 
Q 37.3125 48.390625 33.40625 48.390625 
Q 24.65625 48.390625 19.8125 42.84375 
Q 14.984375 37.3125 14.984375 27.296875 
Q 14.984375 17.28125 19.8125 11.734375 
Q 24.65625 6.203125 33.40625 6.203125 
Q 37.3125 6.203125 41.140625 7.25 
Q 44.96875 8.296875 48.78125 10.40625 
L 48.78125 2.09375 
Q 45.015625 0.34375 40.984375 -0.53125 
Q 36.96875 -1.421875 32.421875 -1.421875 
Q 20.0625 -1.421875 12.78125 6.34375 
Q 5.515625 14.109375 5.515625 27.296875 
Q 5.515625 40.671875 12.859375 48.328125 
Q 20.21875 56 33.015625 56 
Q 37.15625 56 41.109375 55.140625 
Q 45.0625 54.296875 48.78125 52.59375 
" id="DejaVuSans-63"/>
     <path d="M 56.203125 29.59375 
L 56.203125 25.203125 
L 14.890625 25.203125 
Q 15.484375 15.921875 20.484375 11.0625 
Q 25.484375 6.203125 34.421875 6.203125 
Q 39.59375 6.203125 44.453125 7.46875 
Q 49.3125 8.734375 54.109375 11.28125 
L 54.109375 2.78125 
Q 49.265625 0.734375 44.1875 -0.34375 
Q 39.109375 -1.421875 33.890625 -1.421875 
Q 20.796875 -1.421875 13.15625 6.1875 
Q 5.515625 13.8125 5.515625 26.8125 
Q 5.515625 40.234375 12.765625 48.109375 
Q 20.015625 56 32.328125 56 
Q 43.359375 56 49.78125 48.890625 
Q 56.203125 41.796875 56.203125 29.59375 
M 47.21875 32.234375 
Q 47.125 39.59375 43.09375 43.984375 
Q 39.0625 48.390625 32.421875 48.390625 
Q 24.90625 48.390625 20.390625 44.140625 
Q 15.875 39.890625 15.1875 32.171875 
z
" id="DejaVuSans-65"/>
     <path d="M 32.171875 -5.078125 
Q 28.375 -14.84375 24.75 -17.8125 
Q 21.140625 -20.796875 15.09375 -20.796875 
L 7.90625 -20.796875 
L 7.90625 -13.28125 
L 13.1875 -13.28125 
Q 16.890625 -13.28125 18.9375 -11.515625 
Q 21 -9.765625 23.484375 -3.21875 
L 25.09375 0.875 
L 2.984375 54.6875 
L 12.5 54.6875 
L 29.59375 11.921875 
L 46.6875 54.6875 
L 56.203125 54.6875 
z
" id="DejaVuSans-79"/>
    </defs>
    <g transform="translate(115.666875 35.472)scale(0.12 -0.12)">
     <use xlink:href="#DejaVuSans-50"/>
     <use x="60.302734" xlink:href="#DejaVuSans-6c"/>
     <use x="88.085938" xlink:href="#DejaVuSans-6f"/>
     <use x="149.267578" xlink:href="#DejaVuSans-74"/>
     <use x="188.476562" xlink:href="#DejaVuSans-20"/>
     <use x="220.263672" xlink:href="#DejaVuSans-6f"/>
     <use x="281.445312" xlink:href="#DejaVuSans-66"/>
     <use x="316.650391" xlink:href="#DejaVuSans-20"/>
     <use x="348.4375" xlink:href="#DejaVuSans-54"/>
     <use x="409.302734" xlink:href="#DejaVuSans-72"/>
     <use x="450.416016" xlink:href="#DejaVuSans-61"/>
     <use x="511.695312" xlink:href="#DejaVuSans-69"/>
     <use x="539.478516" xlink:href="#DejaVuSans-6e"/>
     <use x="602.857422" xlink:href="#DejaVuSans-20"/>
     <use x="634.644531" xlink:href="#DejaVuSans-44"/>
     <use x="711.646484" xlink:href="#DejaVuSans-61"/>
     <use x="772.925781" xlink:href="#DejaVuSans-74"/>
     <use x="812.134766" xlink:href="#DejaVuSans-61"/>
     <use x="873.414062" xlink:href="#DejaVuSans-20"/>
     <use x="905.201172" xlink:href="#DejaVuSans-76"/>
     <use x="964.380859" xlink:href="#DejaVuSans-73"/>
     <use x="1016.480469" xlink:href="#DejaVuSans-20"/>
     <use x="1048.267578" xlink:href="#DejaVuSans-4d"/>
     <use x="1134.546875" xlink:href="#DejaVuSans-43"/>
     <use x="1204.371094" xlink:href="#DejaVuSans-4d"/>
     <use x="1290.650391" xlink:href="#DejaVuSans-43"/>
     <use x="1360.474609" xlink:href="#DejaVuSans-20"/>
     <use x="1392.261719" xlink:href="#DejaVuSans-55"/>
     <use x="1465.455078" xlink:href="#DejaVuSans-6e"/>
     <use x="1528.833984" xlink:href="#DejaVuSans-63"/>
     <use x="1583.814453" xlink:href="#DejaVuSans-65"/>
     <use x="1645.337891" xlink:href="#DejaVuSans-72"/>
     <use x="1686.451172" xlink:href="#DejaVuSans-74"/>
     <use x="1725.660156" xlink:href="#DejaVuSans-61"/>
     <use x="1786.939453" xlink:href="#DejaVuSans-69"/>
     <use x="1814.722656" xlink:href="#DejaVuSans-6e"/>
     <use x="1878.101562" xlink:href="#DejaVuSans-74"/>
     <use x="1917.310547" xlink:href="#DejaVuSans-79"/>
     <use x="1976.490234" xlink:href="#DejaVuSans-20"/>
    </g>
   </g>
   <g id="legend_1">
    <g id="patch_7">
     <path d="M 277.843437 108.1845 
L 407.72 108.1845 
Q 409.72 108.1845 409.72 106.1845 
L 409.72 48.472 
Q 409.72 46.472 407.72 46.472 
L 277.843437 46.472 
Q 275.843437 46.472 275.843437 48.472 
L 275.843437 106.1845 
Q 275.843437 108.1845 277.843437 108.1845 
z
" style="fill:#ffffff;opacity:0.8;stroke:#cccccc;stroke-linejoin:miter;"/>
    </g>
    <g id="line2d_19">
     <path d="M 279.843437 54.570438 
L 299.843437 54.570438 
" style="fill:none;stroke:#1f77b4;stroke-linecap:square;stroke-width:1.5;"/>
    </g>
    <g id="line2d_20"/>
    <g id="text_16">
     <!-- actual -->
     <defs>
      <path d="M 8.5 21.578125 
L 8.5 54.6875 
L 17.484375 54.6875 
L 17.484375 21.921875 
Q 17.484375 14.15625 20.5 10.265625 
Q 23.53125 6.390625 29.59375 6.390625 
Q 36.859375 6.390625 41.078125 11.03125 
Q 45.3125 15.671875 45.3125 23.6875 
L 45.3125 54.6875 
L 54.296875 54.6875 
L 54.296875 0 
L 45.3125 0 
L 45.3125 8.40625 
Q 42.046875 3.421875 37.71875 1 
Q 33.40625 -1.421875 27.6875 -1.421875 
Q 18.265625 -1.421875 13.375 4.4375 
Q 8.5 10.296875 8.5 21.578125 
M 31.109375 56 
z
" id="DejaVuSans-75"/>
     </defs>
     <g transform="translate(307.843437 58.070438)scale(0.1 -0.1)">
      <use xlink:href="#DejaVuSans-61"/>
      <use x="61.279297" xlink:href="#DejaVuSans-63"/>
      <use x="116.259766" xlink:href="#DejaVuSans-74"/>
      <use x="155.46875" xlink:href="#DejaVuSans-75"/>
      <use x="218.847656" xlink:href="#DejaVuSans-61"/>
      <use x="280.126953" xlink:href="#DejaVuSans-6c"/>
     </g>
    </g>
    <g id="line2d_21">
     <path d="M 279.843437 69.248563 
L 299.843437 69.248563 
" style="fill:none;stroke:#ff7f0e;stroke-linecap:square;stroke-width:1.5;"/>
    </g>
    <g id="line2d_22"/>
    <g id="text_17">
     <!-- pred. (mean) -->
     <defs>
      <path d="M 18.109375 8.203125 
L 18.109375 -20.796875 
L 9.078125 -20.796875 
L 9.078125 54.6875 
L 18.109375 54.6875 
L 18.109375 46.390625 
Q 20.953125 51.265625 25.265625 53.625 
Q 29.59375 56 35.59375 56 
Q 45.5625 56 51.78125 48.09375 
Q 58.015625 40.1875 58.015625 27.296875 
Q 58.015625 14.40625 51.78125 6.484375 
Q 45.5625 -1.421875 35.59375 -1.421875 
Q 29.59375 -1.421875 25.265625 0.953125 
Q 20.953125 3.328125 18.109375 8.203125 
M 48.6875 27.296875 
Q 48.6875 37.203125 44.609375 42.84375 
Q 40.53125 48.484375 33.40625 48.484375 
Q 26.265625 48.484375 22.1875 42.84375 
Q 18.109375 37.203125 18.109375 27.296875 
Q 18.109375 17.390625 22.1875 11.75 
Q 26.265625 6.109375 33.40625 6.109375 
Q 40.53125 6.109375 44.609375 11.75 
Q 48.6875 17.390625 48.6875 27.296875 
" id="DejaVuSans-70"/>
      <path d="M 45.40625 46.390625 
L 45.40625 75.984375 
L 54.390625 75.984375 
L 54.390625 0 
L 45.40625 0 
L 45.40625 8.203125 
Q 42.578125 3.328125 38.25 0.953125 
Q 33.9375 -1.421875 27.875 -1.421875 
Q 17.96875 -1.421875 11.734375 6.484375 
Q 5.515625 14.40625 5.515625 27.296875 
Q 5.515625 40.1875 11.734375 48.09375 
Q 17.96875 56 27.875 56 
Q 33.9375 56 38.25 53.625 
Q 42.578125 51.265625 45.40625 46.390625 
M 14.796875 27.296875 
Q 14.796875 17.390625 18.875 11.75 
Q 22.953125 6.109375 30.078125 6.109375 
Q 37.203125 6.109375 41.296875 11.75 
Q 45.40625 17.390625 45.40625 27.296875 
Q 45.40625 37.203125 41.296875 42.84375 
Q 37.203125 48.484375 30.078125 48.484375 
Q 22.953125 48.484375 18.875 42.84375 
Q 14.796875 37.203125 14.796875 27.296875 
" id="DejaVuSans-64"/>
      <path d="M 31 75.875 
Q 24.46875 64.65625 21.28125 53.65625 
Q 18.109375 42.671875 18.109375 31.390625 
Q 18.109375 20.125 21.3125 9.0625 
Q 24.515625 -2 31 -13.1875 
L 23.1875 -13.1875 
Q 15.875 -1.703125 12.234375 9.375 
Q 8.59375 20.453125 8.59375 31.390625 
Q 8.59375 42.28125 12.203125 53.3125 
Q 15.828125 64.359375 23.1875 75.875 
z
" id="DejaVuSans-28"/>
      <path d="M 52 44.1875 
Q 55.375 50.25 60.0625 53.125 
Q 64.75 56 71.09375 56 
Q 79.640625 56 84.28125 50.015625 
Q 88.921875 44.046875 88.921875 33.015625 
L 88.921875 0 
L 79.890625 0 
L 79.890625 32.71875 
Q 79.890625 40.578125 77.09375 44.375 
Q 74.3125 48.1875 68.609375 48.1875 
Q 61.625 48.1875 57.5625 43.546875 
Q 53.515625 38.921875 53.515625 30.90625 
L 53.515625 0 
L 44.484375 0 
L 44.484375 32.71875 
Q 44.484375 40.625 41.703125 44.40625 
Q 38.921875 48.1875 33.109375 48.1875 
Q 26.21875 48.1875 22.15625 43.53125 
Q 18.109375 38.875 18.109375 30.90625 
L 18.109375 0 
L 9.078125 0 
L 9.078125 54.6875 
L 18.109375 54.6875 
L 18.109375 46.1875 
Q 21.1875 51.21875 25.484375 53.609375 
Q 29.78125 56 35.6875 56 
Q 41.65625 56 45.828125 52.96875 
Q 50 49.953125 52 44.1875 
" id="DejaVuSans-6d"/>
      <path d="M 8.015625 75.875 
L 15.828125 75.875 
Q 23.140625 64.359375 26.78125 53.3125 
Q 30.421875 42.28125 30.421875 31.390625 
Q 30.421875 20.453125 26.78125 9.375 
Q 23.140625 -1.703125 15.828125 -13.1875 
L 8.015625 -13.1875 
Q 14.5 -2 17.703125 9.0625 
Q 20.90625 20.125 20.90625 31.390625 
Q 20.90625 42.671875 17.703125 53.65625 
Q 14.5 64.65625 8.015625 75.875 
" id="DejaVuSans-29"/>
     </defs>
     <g transform="translate(307.843437 72.748563)scale(0.1 -0.1)">
      <use xlink:href="#DejaVuSans-70"/>
      <use x="63.476562" xlink:href="#DejaVuSans-72"/>
      <use x="104.558594" xlink:href="#DejaVuSans-65"/>
      <use x="166.082031" xlink:href="#DejaVuSans-64"/>
      <use x="229.558594" xlink:href="#DejaVuSans-2e"/>
      <use x="261.345703" xlink:href="#DejaVuSans-20"/>
      <use x="293.132812" xlink:href="#DejaVuSans-28"/>
      <use x="332.146484" xlink:href="#DejaVuSans-6d"/>
      <use x="429.558594" xlink:href="#DejaVuSans-65"/>
      <use x="491.082031" xlink:href="#DejaVuSans-61"/>
      <use x="552.361328" xlink:href="#DejaVuSans-6e"/>
      <use x="615.740234" xlink:href="#DejaVuSans-29"/>
     </g>
    </g>
    <g id="line2d_23">
     <path d="M 279.843437 83.926688 
L 299.843437 83.926688 
" style="fill:none;stroke:#2ca02c;stroke-linecap:square;stroke-width:1.5;"/>
    </g>
    <g id="line2d_24"/>
    <g id="text_18">
     <!-- pred.(5th percen.) -->
     <defs>
      <path d="M 54.890625 33.015625 
L 54.890625 0 
L 45.90625 0 
L 45.90625 32.71875 
Q 45.90625 40.484375 42.875 44.328125 
Q 39.84375 48.1875 33.796875 48.1875 
Q 26.515625 48.1875 22.3125 43.546875 
Q 18.109375 38.921875 18.109375 30.90625 
L 18.109375 0 
L 9.078125 0 
L 9.078125 75.984375 
L 18.109375 75.984375 
L 18.109375 46.1875 
Q 21.34375 51.125 25.703125 53.5625 
Q 30.078125 56 35.796875 56 
Q 45.21875 56 50.046875 50.171875 
Q 54.890625 44.34375 54.890625 33.015625 
" id="DejaVuSans-68"/>
     </defs>
     <g transform="translate(307.843437 87.426688)scale(0.1 -0.1)">
      <use xlink:href="#DejaVuSans-70"/>
      <use x="63.476562" xlink:href="#DejaVuSans-72"/>
      <use x="104.558594" xlink:href="#DejaVuSans-65"/>
      <use x="166.082031" xlink:href="#DejaVuSans-64"/>
      <use x="229.558594" xlink:href="#DejaVuSans-2e"/>
      <use x="261.345703" xlink:href="#DejaVuSans-28"/>
      <use x="300.359375" xlink:href="#DejaVuSans-35"/>
      <use x="363.982422" xlink:href="#DejaVuSans-74"/>
      <use x="403.191406" xlink:href="#DejaVuSans-68"/>
      <use x="466.570312" xlink:href="#DejaVuSans-20"/>
      <use x="498.357422" xlink:href="#DejaVuSans-70"/>
      <use x="561.833984" xlink:href="#DejaVuSans-65"/>
      <use x="623.357422" xlink:href="#DejaVuSans-72"/>
      <use x="664.439453" xlink:href="#DejaVuSans-63"/>
      <use x="719.419922" xlink:href="#DejaVuSans-65"/>
      <use x="780.943359" xlink:href="#DejaVuSans-6e"/>
      <use x="844.322266" xlink:href="#DejaVuSans-2e"/>
      <use x="876.109375" xlink:href="#DejaVuSans-29"/>
     </g>
    </g>
    <g id="line2d_25">
     <path d="M 279.843437 98.604813 
L 299.843437 98.604813 
" style="fill:none;stroke:#d62728;stroke-linecap:square;stroke-width:1.5;"/>
    </g>
    <g id="line2d_26"/>
    <g id="text_19">
     <!-- pred.(95th percen.) -->
     <defs>
      <path d="M 10.984375 1.515625 
L 10.984375 10.5 
Q 14.703125 8.734375 18.5 7.8125 
Q 22.3125 6.890625 25.984375 6.890625 
Q 35.75 6.890625 40.890625 13.453125 
Q 46.046875 20.015625 46.78125 33.40625 
Q 43.953125 29.203125 39.59375 26.953125 
Q 35.25 24.703125 29.984375 24.703125 
Q 19.046875 24.703125 12.671875 31.3125 
Q 6.296875 37.9375 6.296875 49.421875 
Q 6.296875 60.640625 12.9375 67.421875 
Q 19.578125 74.21875 30.609375 74.21875 
Q 43.265625 74.21875 49.921875 64.515625 
Q 56.59375 54.828125 56.59375 36.375 
Q 56.59375 19.140625 48.40625 8.859375 
Q 40.234375 -1.421875 26.421875 -1.421875 
Q 22.703125 -1.421875 18.890625 -0.6875 
Q 15.09375 0.046875 10.984375 1.515625 
M 30.609375 32.421875 
Q 37.25 32.421875 41.125 36.953125 
Q 45.015625 41.5 45.015625 49.421875 
Q 45.015625 57.28125 41.125 61.84375 
Q 37.25 66.40625 30.609375 66.40625 
Q 23.96875 66.40625 20.09375 61.84375 
Q 16.21875 57.28125 16.21875 49.421875 
Q 16.21875 41.5 20.09375 36.953125 
Q 23.96875 32.421875 30.609375 32.421875 
" id="DejaVuSans-39"/>
     </defs>
     <g transform="translate(307.843437 102.104813)scale(0.1 -0.1)">
      <use xlink:href="#DejaVuSans-70"/>
      <use x="63.476562" xlink:href="#DejaVuSans-72"/>
      <use x="104.558594" xlink:href="#DejaVuSans-65"/>
      <use x="166.082031" xlink:href="#DejaVuSans-64"/>
      <use x="229.558594" xlink:href="#DejaVuSans-2e"/>
      <use x="261.345703" xlink:href="#DejaVuSans-28"/>
      <use x="300.359375" xlink:href="#DejaVuSans-39"/>
      <use x="363.982422" xlink:href="#DejaVuSans-35"/>
      <use x="427.605469" xlink:href="#DejaVuSans-74"/>
      <use x="466.814453" xlink:href="#DejaVuSans-68"/>
      <use x="530.193359" xlink:href="#DejaVuSans-20"/>
      <use x="561.980469" xlink:href="#DejaVuSans-70"/>
      <use x="625.457031" xlink:href="#DejaVuSans-65"/>
      <use x="686.980469" xlink:href="#DejaVuSans-72"/>
      <use x="728.0625" xlink:href="#DejaVuSans-63"/>
      <use x="783.042969" xlink:href="#DejaVuSans-65"/>
      <use x="844.566406" xlink:href="#DejaVuSans-6e"/>
      <use x="907.945312" xlink:href="#DejaVuSans-2e"/>
      <use x="939.732422" xlink:href="#DejaVuSans-29"/>
     </g>
    </g>
   </g>
  </g>
 </g>
 <defs>
  <clipPath id="pd01d829bd2">
   <rect height="266.112" width="357.12" x="57.6" y="41.472"/>
  </clipPath>
 </defs>
</svg>
