<?xml version="1.0" encoding="utf-8" standalone="no"?>
<!DOCTYPE svg PUBLIC "-//W3C//DTD SVG 1.1//EN"
  "http://www.w3.org/Graphics/SVG/1.1/DTD/svg11.dtd">
<!-- Created with matplotlib (http://matplotlib.org/) -->
<svg height="345pt" version="1.1" viewBox="0 0 460 345" width="460pt" xmlns="http://www.w3.org/2000/svg" xmlns:xlink="http://www.w3.org/1999/xlink">
 <defs>
  <style type="text/css">
*{stroke-linecap:butt;stroke-linejoin:round;}
  </style>
 </defs>
 <g id="figure_1">
  <g id="patch_1">
   <path d="M 0 345.6 
L 460.8 345.6 
L 460.8 0 
L 0 0 
z
" style="fill:#ffffff;"/>
  </g>
  <g id="axes_1">
   <g id="patch_2">
    <path d="M 57.6 307.584 
L 414.72 307.584 
L 414.72 41.472 
L 57.6 41.472 
z
" style="fill:#ffffff;"/>
   </g>
   <g id="PolyCollection_1">
    <path clip-path="url(#pb3794439a0)" d="M 73.832727 280.450156 
L 73.832727 285.413788 
L 74.92584 286.151602 
L 76.018953 285.568309 
L 77.112066 285.709106 
L 78.205179 282.441861 
L 79.298292 277.929644 
L 80.391405 275.742971 
L 81.484518 266.185247 
L 82.577631 255.755576 
L 83.670744 238.602744 
L 84.763857 211.880281 
L 85.85697 192.129677 
L 86.950083 166.496455 
L 88.043196 146.03984 
L 89.136309 124.482749 
L 90.229421 118.825939 
L 91.322534 112.316602 
L 92.415647 90.460264 
L 93.50876 76.224162 
L 94.601873 79.760601 
L 95.694986 79.30462 
L 96.788099 74.107524 
L 97.881212 77.280553 
L 98.974325 85.958052 
L 100.067438 98.656858 
L 101.160551 94.761509 
L 102.253664 99.674823 
L 103.346777 115.692454 
L 104.43989 120.835336 
L 105.533003 134.711917 
L 106.626116 137.524502 
L 107.719229 164.370436 
L 108.812342 177.800733 
L 109.905455 157.768895 
L 110.998567 154.333568 
L 112.09168 160.768706 
L 113.184793 165.690275 
L 114.277906 162.511828 
L 115.371019 165.23645 
L 116.464132 188.478968 
L 117.557245 197.211587 
L 118.650358 199.444041 
L 119.743471 216.566477 
L 120.836584 220.609181 
L 121.929697 218.623506 
L 123.02281 227.956732 
L 124.115923 237.092077 
L 125.209036 241.195331 
L 126.302149 242.366981 
L 127.395262 248.307596 
L 128.488375 257.630008 
L 129.581488 261.202007 
L 130.674601 259.921069 
L 131.767713 260.789722 
L 132.860826 265.273182 
L 133.953939 268.842649 
L 135.047052 270.452511 
L 136.140165 273.409897 
L 137.233278 279.98262 
L 138.326391 281.78382 
L 139.419504 280.384068 
L 140.512617 279.346789 
L 141.60573 279.857037 
L 142.698843 277.65816 
L 143.791956 275.878743 
L 144.885069 274.362944 
L 145.978182 268.042335 
L 147.071295 259.072613 
L 148.164408 251.000565 
L 149.257521 247.875078 
L 150.350634 241.82498 
L 151.443747 232.449493 
L 152.53686 228.682682 
L 153.629972 224.731381 
L 154.723085 217.778137 
L 155.816198 207.148024 
L 156.909311 196.119685 
L 158.002424 192.814564 
L 159.095537 191.235095 
L 160.18865 193.766221 
L 161.281763 187.987078 
L 162.374876 168.882567 
L 163.467989 136.493655 
L 164.561102 119.875093 
L 165.654215 103.672006 
L 166.747328 95.215512 
L 167.840441 87.774171 
L 168.933554 84.736104 
L 170.026667 102.753209 
L 171.11978 97.341842 
L 172.212893 92.077493 
L 173.306006 95.859411 
L 174.399118 108.336569 
L 175.492231 124.785695 
L 176.585344 132.754516 
L 177.678457 153.166817 
L 178.77157 166.493637 
L 179.864683 172.674135 
L 180.957796 176.732034 
L 182.050909 179.887113 
L 183.144022 182.810817 
L 184.237135 192.753282 
L 185.330248 188.11436 
L 186.423361 186.947269 
L 187.516474 188.413216 
L 188.609587 191.446884 
L 189.7027 194.24126 
L 190.795813 192.009606 
L 191.888926 201.031363 
L 192.982039 198.65365 
L 194.075152 200.62813 
L 195.168264 206.885104 
L 196.261377 207.581691 
L 197.35449 213.660545 
L 198.447603 220.58086 
L 199.540716 225.579715 
L 200.633829 227.734282 
L 201.726942 225.068877 
L 202.820055 231.834332 
L 203.913168 238.586186 
L 205.006281 244.604772 
L 206.099394 249.167868 
L 207.192507 254.594868 
L 208.28562 262.268783 
L 209.378733 266.67032 
L 210.471846 266.828178 
L 211.564959 268.185383 
L 212.658072 272.546204 
L 213.751185 276.71282 
L 214.844298 280.711052 
L 215.93741 283.685921 
L 217.030523 287.291836 
L 218.123636 289.312843 
L 219.216749 290.369605 
L 220.309862 290.65788 
L 221.402975 290.178547 
L 222.496088 290.212704 
L 223.589201 289.113103 
L 224.682314 288.157601 
L 225.775427 285.862369 
L 226.86854 282.220809 
L 227.961653 277.500744 
L 229.054766 269.261357 
L 230.147879 261.714794 
L 231.240992 253.215595 
L 232.334105 243.016883 
L 233.427218 236.714485 
L 234.520331 224.626779 
L 235.613444 211.166434 
L 236.706556 202.114829 
L 237.799669 186.550586 
L 238.892782 173.813558 
L 239.985895 162.709259 
L 241.079008 151.24355 
L 242.172121 143.912285 
L 243.265234 141.709752 
L 244.358347 141.910957 
L 245.45146 142.421415 
L 246.544573 135.067492 
L 247.637686 138.141449 
L 248.730799 143.528152 
L 249.823912 140.876214 
L 250.917025 144.81534 
L 252.010138 144.057983 
L 253.103251 156.438497 
L 254.196364 162.748359 
L 255.289477 169.995459 
L 256.38259 175.317911 
L 257.475702 180.891369 
L 258.568815 192.239851 
L 259.661928 187.362441 
L 260.755041 192.373564 
L 261.848154 197.223467 
L 262.941267 204.982243 
L 264.03438 204.432002 
L 265.127493 204.068872 
L 266.220606 217.895448 
L 267.313719 224.414555 
L 268.406832 228.014891 
L 269.499945 227.227287 
L 270.593058 226.847781 
L 271.686171 228.942024 
L 272.779284 226.962758 
L 273.872397 221.303833 
L 274.96551 221.327268 
L 276.058623 222.205513 
L 277.151736 227.001588 
L 278.244848 230.873536 
L 279.337961 236.671199 
L 280.431074 241.621978 
L 281.524187 246.366723 
L 282.6173 252.128565 
L 283.710413 253.967045 
L 284.803526 257.938119 
L 285.896639 263.279011 
L 286.989752 268.828285 
L 288.082865 271.085784 
L 289.175978 275.56359 
L 290.269091 282.718932 
L 291.362204 285.429162 
L 292.455317 287.722747 
L 293.54843 288.613892 
L 294.641543 288.599435 
L 295.734656 285.573564 
L 296.827769 282.024179 
L 297.920882 275.827569 
L 299.013994 268.807581 
L 300.107107 261.102343 
L 301.20022 248.628424 
L 302.293333 234.010765 
L 303.386446 221.250138 
L 304.479559 213.785146 
L 305.572672 190.004469 
L 306.665785 180.28751 
L 307.758898 181.300352 
L 308.852011 171.915072 
L 309.945124 154.036558 
L 311.038237 118.72869 
L 312.13135 109.023975 
L 313.224463 92.377816 
L 314.317576 81.171098 
L 315.410689 76.770816 
L 316.503802 80.058935 
L 317.596915 82.849939 
L 318.690028 89.606674 
L 319.78314 97.700046 
L 320.876253 110.705117 
L 321.969366 118.209372 
L 323.062479 120.988556 
L 324.155592 140.460268 
L 325.248705 137.269227 
L 326.341818 133.402688 
L 327.434931 126.956147 
L 328.528044 128.438805 
L 329.621157 129.482353 
L 330.71427 141.615454 
L 331.807383 161.123355 
L 332.900496 170.682866 
L 333.993609 188.903489 
L 335.086722 197.85362 
L 336.179835 208.26451 
L 337.272948 217.197339 
L 338.366061 214.885841 
L 339.459174 216.254785 
L 340.552287 222.2249 
L 341.645399 231.654769 
L 342.738512 241.816932 
L 343.831625 243.993339 
L 344.924738 253.089362 
L 346.017851 265.281208 
L 347.110964 269.70172 
L 348.204077 272.482729 
L 349.29719 273.42894 
L 350.390303 277.366871 
L 351.483416 280.21123 
L 352.576529 280.371513 
L 353.669642 280.250066 
L 354.762755 280.178558 
L 355.855868 281.579363 
L 356.948981 280.222274 
L 358.042094 278.004002 
L 359.135207 278.408562 
L 360.22832 278.720153 
L 361.321433 280.615927 
L 362.414545 282.129878 
L 363.507658 284.98422 
L 364.600771 286.916426 
L 365.693884 288.391143 
L 366.786997 289.853219 
L 367.88011 290.609748 
L 368.973223 291.499203 
L 370.066336 291.45033 
L 371.159449 291.433529 
L 372.252562 290.455631 
L 373.345675 288.933435 
L 374.438788 286.682722 
L 375.531901 281.592181 
L 376.625014 277.292946 
L 377.718127 271.352721 
L 378.81124 262.571285 
L 379.904353 251.472306 
L 380.997466 246.34564 
L 382.090579 239.998046 
L 383.183691 230.390173 
L 384.276804 221.292967 
L 385.369917 215.70588 
L 386.46303 213.90117 
L 387.556143 206.050233 
L 388.649256 202.958115 
L 389.742369 192.817161 
L 390.835482 201.031558 
L 391.928595 205.395957 
L 393.021708 201.519579 
L 394.114821 197.383252 
L 395.207934 205.101228 
L 396.301047 211.077694 
L 397.39416 206.177868 
L 398.487273 200.372114 
L 398.487273 196.15035 
L 398.487273 196.15035 
L 397.39416 197.820077 
L 396.301047 209.277597 
L 395.207934 200.880349 
L 394.114821 195.504273 
L 393.021708 198.140718 
L 391.928595 202.513122 
L 390.835482 194.397092 
L 389.742369 189.582238 
L 388.649256 200.417837 
L 387.556143 203.304372 
L 386.46303 208.260617 
L 385.369917 210.626369 
L 384.276804 213.820743 
L 383.183691 224.719665 
L 382.090579 233.227852 
L 380.997466 241.482511 
L 379.904353 246.275108 
L 378.81124 255.724256 
L 377.718127 268.922639 
L 376.625014 274.899342 
L 375.531901 278.264822 
L 374.438788 281.627135 
L 373.345675 283.121671 
L 372.252562 284.173794 
L 371.159449 284.904174 
L 370.066336 284.972958 
L 368.973223 284.767057 
L 367.88011 284.236508 
L 366.786997 283.523297 
L 365.693884 282.405561 
L 364.600771 281.429669 
L 363.507658 279.679064 
L 362.414545 278.039752 
L 361.321433 276.47129 
L 360.22832 275.434215 
L 359.135207 275.300365 
L 358.042094 275.001516 
L 356.948981 277.064344 
L 355.855868 277.192211 
L 354.762755 276.762806 
L 353.669642 276.572443 
L 352.576529 276.876394 
L 351.483416 276.384077 
L 350.390303 273.74265 
L 349.29719 271.200417 
L 348.204077 270.093435 
L 347.110964 267.348401 
L 346.017851 261.873662 
L 344.924738 249.957954 
L 343.831625 241.805734 
L 342.738512 239.66881 
L 341.645399 228.464786 
L 340.552287 220.134811 
L 339.459174 213.874312 
L 338.366061 212.016721 
L 337.272948 213.714063 
L 336.179835 203.78416 
L 335.086722 193.203602 
L 333.993609 184.091685 
L 332.900496 166.301783 
L 331.807383 156.608774 
L 330.71427 132.261501 
L 329.621157 125.82745 
L 328.528044 123.991152 
L 327.434931 122.884935 
L 326.341818 129.41668 
L 325.248705 131.528243 
L 324.155592 136.315634 
L 323.062479 117.508079 
L 321.969366 114.403948 
L 320.876253 106.830799 
L 319.78314 90.607972 
L 318.690028 79.410671 
L 317.596915 70.847827 
L 316.503802 68.531845 
L 315.410689 67.506231 
L 314.317576 71.02286 
L 313.224463 87.360601 
L 312.13135 103.233013 
L 311.038237 113.950754 
L 309.945124 147.680548 
L 308.852011 169.785291 
L 307.758898 176.617459 
L 306.665785 177.457503 
L 305.572672 185.793249 
L 304.479559 207.464467 
L 303.386446 215.031646 
L 302.293333 226.188357 
L 301.20022 239.74107 
L 300.107107 255.823379 
L 299.013994 265.832638 
L 297.920882 273.56186 
L 296.827769 278.299703 
L 295.734656 281.060516 
L 294.641543 282.720246 
L 293.54843 282.732481 
L 292.455317 281.916261 
L 291.362204 280.348984 
L 290.269091 277.619917 
L 289.175978 272.121591 
L 288.082865 269.064477 
L 286.989752 266.530935 
L 285.896639 261.562134 
L 284.803526 256.215666 
L 283.710413 251.822804 
L 282.6173 250.156506 
L 281.524187 243.731745 
L 280.431074 239.252463 
L 279.337961 233.463148 
L 278.244848 227.887328 
L 277.151736 224.55439 
L 276.058623 219.253716 
L 274.96551 217.970332 
L 273.872397 217.751455 
L 272.779284 220.622888 
L 271.686171 226.226212 
L 270.593058 223.879899 
L 269.499945 223.232203 
L 268.406832 224.794695 
L 267.313719 222.694978 
L 266.220606 213.438489 
L 265.127493 200.9341 
L 264.03438 199.605996 
L 262.941267 202.16245 
L 261.848154 195.418169 
L 260.755041 189.301065 
L 259.661928 185.493735 
L 258.568815 187.474053 
L 257.475702 173.518468 
L 256.38259 170.415904 
L 255.289477 163.696181 
L 254.196364 158.947729 
L 253.103251 151.12446 
L 252.010138 137.595635 
L 250.917025 140.426508 
L 249.823912 136.665883 
L 248.730799 139.378579 
L 247.637686 129.857356 
L 246.544573 131.472229 
L 245.45146 137.766223 
L 244.358347 137.076314 
L 243.265234 133.40657 
L 242.172121 139.178383 
L 241.079008 146.52662 
L 239.985895 158.44162 
L 238.892782 171.646305 
L 237.799669 183.992861 
L 236.706556 197.957132 
L 235.613444 205.84955 
L 234.520331 217.869294 
L 233.427218 229.737741 
L 232.334105 237.78838 
L 231.240992 245.92455 
L 230.147879 257.326407 
L 229.054766 265.931226 
L 227.961653 275.194519 
L 226.86854 278.434571 
L 225.775427 281.160603 
L 224.682314 282.355832 
L 223.589201 283.289456 
L 222.496088 283.853106 
L 221.402975 283.927598 
L 220.309862 284.298845 
L 219.216749 284.063443 
L 218.123636 283.118852 
L 217.030523 281.46053 
L 215.93741 278.843391 
L 214.844298 276.454941 
L 213.751185 273.319434 
L 212.658072 269.814995 
L 211.564959 266.615161 
L 210.471846 265.04334 
L 209.378733 264.818052 
L 208.28562 260.145123 
L 207.192507 252.511635 
L 206.099394 247.268444 
L 205.006281 242.655508 
L 203.913168 236.532741 
L 202.820055 228.335384 
L 201.726942 221.622292 
L 200.633829 224.085579 
L 199.540716 223.788795 
L 198.447603 218.867897 
L 197.35449 209.760416 
L 196.261377 203.447263 
L 195.168264 203.557833 
L 194.075152 199.279684 
L 192.982039 196.388872 
L 191.888926 197.746338 
L 190.795813 190.566942 
L 189.7027 192.318681 
L 188.609587 188.840818 
L 187.516474 185.800051 
L 186.423361 185.004164 
L 185.330248 186.204766 
L 184.237135 189.563112 
L 183.144022 177.782057 
L 182.050909 176.012867 
L 180.957796 173.346149 
L 179.864683 167.68393 
L 178.77157 158.857249 
L 177.678457 145.227078 
L 176.585344 129.679711 
L 175.492231 120.700128 
L 174.399118 103.617354 
L 173.306006 89.827366 
L 172.212893 85.749797 
L 171.11978 87.058358 
L 170.026667 96.680483 
L 168.933554 78.55406 
L 167.840441 78.247219 
L 166.747328 91.061044 
L 165.654215 98.661042 
L 164.561102 113.384018 
L 163.467989 132.230323 
L 162.374876 162.767543 
L 161.281763 186.049426 
L 160.18865 191.484811 
L 159.095537 189.607408 
L 158.002424 191.177459 
L 156.909311 191.098194 
L 155.816198 199.387445 
L 154.723085 212.452223 
L 153.629972 220.54937 
L 152.53686 224.490459 
L 151.443747 226.584662 
L 150.350634 235.721221 
L 149.257521 243.28688 
L 148.164408 246.439357 
L 147.071295 253.125738 
L 145.978182 264.390829 
L 144.885069 272.303558 
L 143.791956 273.465594 
L 142.698843 274.976593 
L 141.60573 276.423648 
L 140.512617 275.97469 
L 139.419504 277.060245 
L 138.326391 277.850314 
L 137.233278 275.396328 
L 136.140165 270.768014 
L 135.047052 268.63009 
L 133.953939 266.980233 
L 132.860826 263.622806 
L 131.767713 258.989242 
L 130.674601 255.965998 
L 129.581488 259.438967 
L 128.488375 255.352682 
L 127.395262 245.210741 
L 126.302149 239.619409 
L 125.209036 238.421354 
L 124.115923 234.645526 
L 123.02281 224.96167 
L 121.929697 216.376653 
L 120.836584 216.852761 
L 119.743471 213.376454 
L 118.650358 195.691602 
L 117.557245 191.049705 
L 116.464132 179.43266 
L 115.371019 157.632391 
L 114.277906 159.02925 
L 113.184793 161.795578 
L 112.09168 154.85071 
L 110.998567 142.472354 
L 109.905455 148.717853 
L 108.812342 169.823219 
L 107.719229 155.434851 
L 106.626116 134.739693 
L 105.533003 130.812503 
L 104.43989 118.694555 
L 103.346777 111.282959 
L 102.253664 93.765702 
L 101.160551 83.653006 
L 100.067438 88.315827 
L 98.974325 74.507491 
L 97.881212 64.53652 
L 96.788099 62.318887 
L 95.694986 65.247455 
L 94.601873 69.904267 
L 93.50876 68.135502 
L 92.415647 79.404876 
L 91.322534 109.751778 
L 90.229421 110.095914 
L 89.136309 119.165086 
L 88.043196 140.18187 
L 86.950083 163.391064 
L 85.85697 187.815363 
L 84.763857 202.827561 
L 83.670744 225.913692 
L 82.577631 249.387044 
L 81.484518 260.054318 
L 80.391405 273.506354 
L 79.298292 275.326134 
L 78.205179 278.904379 
L 77.112066 280.561687 
L 76.018953 280.696679 
L 74.92584 280.90763 
L 73.832727 280.450156 
z
" style="fill:#008000;fill-opacity:0.4;"/>
   </g>
   <g id="matplotlib.axis_1">
    <g id="xtick_1">
     <g id="line2d_1">
      <defs>
       <path d="M 0 0 
L 0 3.5 
" id="mafc05c733f" style="stroke:#000000;stroke-width:0.8;"/>
      </defs>
      <g>
       <use style="stroke:#000000;stroke-width:0.8;" x="73.832727" xlink:href="#mafc05c733f" y="307.584"/>
      </g>
     </g>
     <g id="text_1">
      <!-- 0.0 -->
      <defs>
       <path d="M 31.78125 66.40625 
Q 24.171875 66.40625 20.328125 58.90625 
Q 16.5 51.421875 16.5 36.375 
Q 16.5 21.390625 20.328125 13.890625 
Q 24.171875 6.390625 31.78125 6.390625 
Q 39.453125 6.390625 43.28125 13.890625 
Q 47.125 21.390625 47.125 36.375 
Q 47.125 51.421875 43.28125 58.90625 
Q 39.453125 66.40625 31.78125 66.40625 
M 31.78125 74.21875 
Q 44.046875 74.21875 50.515625 64.515625 
Q 56.984375 54.828125 56.984375 36.375 
Q 56.984375 17.96875 50.515625 8.265625 
Q 44.046875 -1.421875 31.78125 -1.421875 
Q 19.53125 -1.421875 13.0625 8.265625 
Q 6.59375 17.96875 6.59375 36.375 
Q 6.59375 54.828125 13.0625 64.515625 
Q 19.53125 74.21875 31.78125 74.21875 
" id="DejaVuSans-30"/>
       <path d="M 10.6875 12.40625 
L 21 12.40625 
L 21 0 
L 10.6875 0 
z
" id="DejaVuSans-2e"/>
      </defs>
      <g transform="translate(65.881165 322.182437)scale(0.1 -0.1)">
       <use xlink:href="#DejaVuSans-30"/>
       <use x="63.623047" xlink:href="#DejaVuSans-2e"/>
       <use x="95.410156" xlink:href="#DejaVuSans-30"/>
      </g>
     </g>
    </g>
    <g id="xtick_2">
     <g id="line2d_2">
      <g>
       <use style="stroke:#000000;stroke-width:0.8;" x="138.763636" xlink:href="#mafc05c733f" y="307.584"/>
      </g>
     </g>
     <g id="text_2">
      <!-- 0.2 -->
      <defs>
       <path d="M 19.1875 8.296875 
L 53.609375 8.296875 
L 53.609375 0 
L 7.328125 0 
L 7.328125 8.296875 
Q 12.9375 14.109375 22.625 23.890625 
Q 32.328125 33.6875 34.8125 36.53125 
Q 39.546875 41.84375 41.421875 45.53125 
Q 43.3125 49.21875 43.3125 52.78125 
Q 43.3125 58.59375 39.234375 62.25 
Q 35.15625 65.921875 28.609375 65.921875 
Q 23.96875 65.921875 18.8125 64.3125 
Q 13.671875 62.703125 7.8125 59.421875 
L 7.8125 69.390625 
Q 13.765625 71.78125 18.9375 73 
Q 24.125 74.21875 28.421875 74.21875 
Q 39.75 74.21875 46.484375 68.546875 
Q 53.21875 62.890625 53.21875 53.421875 
Q 53.21875 48.921875 51.53125 44.890625 
Q 49.859375 40.875 45.40625 35.40625 
Q 44.1875 33.984375 37.640625 27.21875 
Q 31.109375 20.453125 19.1875 8.296875 
" id="DejaVuSans-32"/>
      </defs>
      <g transform="translate(130.812074 322.182437)scale(0.1 -0.1)">
       <use xlink:href="#DejaVuSans-30"/>
       <use x="63.623047" xlink:href="#DejaVuSans-2e"/>
       <use x="95.410156" xlink:href="#DejaVuSans-32"/>
      </g>
     </g>
    </g>
    <g id="xtick_3">
     <g id="line2d_3">
      <g>
       <use style="stroke:#000000;stroke-width:0.8;" x="203.694545" xlink:href="#mafc05c733f" y="307.584"/>
      </g>
     </g>
     <g id="text_3">
      <!-- 0.4 -->
      <defs>
       <path d="M 37.796875 64.3125 
L 12.890625 25.390625 
L 37.796875 25.390625 
z
M 35.203125 72.90625 
L 47.609375 72.90625 
L 47.609375 25.390625 
L 58.015625 25.390625 
L 58.015625 17.1875 
L 47.609375 17.1875 
L 47.609375 0 
L 37.796875 0 
L 37.796875 17.1875 
L 4.890625 17.1875 
L 4.890625 26.703125 
z
" id="DejaVuSans-34"/>
      </defs>
      <g transform="translate(195.742983 322.182437)scale(0.1 -0.1)">
       <use xlink:href="#DejaVuSans-30"/>
       <use x="63.623047" xlink:href="#DejaVuSans-2e"/>
       <use x="95.410156" xlink:href="#DejaVuSans-34"/>
      </g>
     </g>
    </g>
    <g id="xtick_4">
     <g id="line2d_4">
      <g>
       <use style="stroke:#000000;stroke-width:0.8;" x="268.625455" xlink:href="#mafc05c733f" y="307.584"/>
      </g>
     </g>
     <g id="text_4">
      <!-- 0.6 -->
      <defs>
       <path d="M 33.015625 40.375 
Q 26.375 40.375 22.484375 35.828125 
Q 18.609375 31.296875 18.609375 23.390625 
Q 18.609375 15.53125 22.484375 10.953125 
Q 26.375 6.390625 33.015625 6.390625 
Q 39.65625 6.390625 43.53125 10.953125 
Q 47.40625 15.53125 47.40625 23.390625 
Q 47.40625 31.296875 43.53125 35.828125 
Q 39.65625 40.375 33.015625 40.375 
M 52.59375 71.296875 
L 52.59375 62.3125 
Q 48.875 64.0625 45.09375 64.984375 
Q 41.3125 65.921875 37.59375 65.921875 
Q 27.828125 65.921875 22.671875 59.328125 
Q 17.53125 52.734375 16.796875 39.40625 
Q 19.671875 43.65625 24.015625 45.921875 
Q 28.375 48.1875 33.59375 48.1875 
Q 44.578125 48.1875 50.953125 41.515625 
Q 57.328125 34.859375 57.328125 23.390625 
Q 57.328125 12.15625 50.6875 5.359375 
Q 44.046875 -1.421875 33.015625 -1.421875 
Q 20.359375 -1.421875 13.671875 8.265625 
Q 6.984375 17.96875 6.984375 36.375 
Q 6.984375 53.65625 15.1875 63.9375 
Q 23.390625 74.21875 37.203125 74.21875 
Q 40.921875 74.21875 44.703125 73.484375 
Q 48.484375 72.75 52.59375 71.296875 
" id="DejaVuSans-36"/>
      </defs>
      <g transform="translate(260.673892 322.182437)scale(0.1 -0.1)">
       <use xlink:href="#DejaVuSans-30"/>
       <use x="63.623047" xlink:href="#DejaVuSans-2e"/>
       <use x="95.410156" xlink:href="#DejaVuSans-36"/>
      </g>
     </g>
    </g>
    <g id="xtick_5">
     <g id="line2d_5">
      <g>
       <use style="stroke:#000000;stroke-width:0.8;" x="333.556364" xlink:href="#mafc05c733f" y="307.584"/>
      </g>
     </g>
     <g id="text_5">
      <!-- 0.8 -->
      <defs>
       <path d="M 31.78125 34.625 
Q 24.75 34.625 20.71875 30.859375 
Q 16.703125 27.09375 16.703125 20.515625 
Q 16.703125 13.921875 20.71875 10.15625 
Q 24.75 6.390625 31.78125 6.390625 
Q 38.8125 6.390625 42.859375 10.171875 
Q 46.921875 13.96875 46.921875 20.515625 
Q 46.921875 27.09375 42.890625 30.859375 
Q 38.875 34.625 31.78125 34.625 
M 21.921875 38.8125 
Q 15.578125 40.375 12.03125 44.71875 
Q 8.5 49.078125 8.5 55.328125 
Q 8.5 64.0625 14.71875 69.140625 
Q 20.953125 74.21875 31.78125 74.21875 
Q 42.671875 74.21875 48.875 69.140625 
Q 55.078125 64.0625 55.078125 55.328125 
Q 55.078125 49.078125 51.53125 44.71875 
Q 48 40.375 41.703125 38.8125 
Q 48.828125 37.15625 52.796875 32.3125 
Q 56.78125 27.484375 56.78125 20.515625 
Q 56.78125 9.90625 50.3125 4.234375 
Q 43.84375 -1.421875 31.78125 -1.421875 
Q 19.734375 -1.421875 13.25 4.234375 
Q 6.78125 9.90625 6.78125 20.515625 
Q 6.78125 27.484375 10.78125 32.3125 
Q 14.796875 37.15625 21.921875 38.8125 
M 18.3125 54.390625 
Q 18.3125 48.734375 21.84375 45.5625 
Q 25.390625 42.390625 31.78125 42.390625 
Q 38.140625 42.390625 41.71875 45.5625 
Q 45.3125 48.734375 45.3125 54.390625 
Q 45.3125 60.0625 41.71875 63.234375 
Q 38.140625 66.40625 31.78125 66.40625 
Q 25.390625 66.40625 21.84375 63.234375 
Q 18.3125 60.0625 18.3125 54.390625 
" id="DejaVuSans-38"/>
      </defs>
      <g transform="translate(325.604801 322.182437)scale(0.1 -0.1)">
       <use xlink:href="#DejaVuSans-30"/>
       <use x="63.623047" xlink:href="#DejaVuSans-2e"/>
       <use x="95.410156" xlink:href="#DejaVuSans-38"/>
      </g>
     </g>
    </g>
    <g id="xtick_6">
     <g id="line2d_6">
      <g>
       <use style="stroke:#000000;stroke-width:0.8;" x="398.487273" xlink:href="#mafc05c733f" y="307.584"/>
      </g>
     </g>
     <g id="text_6">
      <!-- 1.0 -->
      <defs>
       <path d="M 12.40625 8.296875 
L 28.515625 8.296875 
L 28.515625 63.921875 
L 10.984375 60.40625 
L 10.984375 69.390625 
L 28.421875 72.90625 
L 38.28125 72.90625 
L 38.28125 8.296875 
L 54.390625 8.296875 
L 54.390625 0 
L 12.40625 0 
z
" id="DejaVuSans-31"/>
      </defs>
      <g transform="translate(390.53571 322.182437)scale(0.1 -0.1)">
       <use xlink:href="#DejaVuSans-31"/>
       <use x="63.623047" xlink:href="#DejaVuSans-2e"/>
       <use x="95.410156" xlink:href="#DejaVuSans-30"/>
      </g>
     </g>
    </g>
   </g>
   <g id="matplotlib.axis_2">
    <g id="ytick_1">
     <g id="line2d_7">
      <defs>
       <path d="M 0 0 
L -3.5 0 
" id="mbcab8d2cfc" style="stroke:#000000;stroke-width:0.8;"/>
      </defs>
      <g>
       <use style="stroke:#000000;stroke-width:0.8;" x="57.6" xlink:href="#mbcab8d2cfc" y="299.17887"/>
      </g>
     </g>
     <g id="text_7">
      <!-- 0.0 -->
      <g transform="translate(34.696875 302.978089)scale(0.1 -0.1)">
       <use xlink:href="#DejaVuSans-30"/>
       <use x="63.623047" xlink:href="#DejaVuSans-2e"/>
       <use x="95.410156" xlink:href="#DejaVuSans-30"/>
      </g>
     </g>
    </g>
    <g id="ytick_2">
     <g id="line2d_8">
      <g>
       <use style="stroke:#000000;stroke-width:0.8;" x="57.6" xlink:href="#mbcab8d2cfc" y="249.553394"/>
      </g>
     </g>
     <g id="text_8">
      <!-- 0.2 -->
      <g transform="translate(34.696875 253.352613)scale(0.1 -0.1)">
       <use xlink:href="#DejaVuSans-30"/>
       <use x="63.623047" xlink:href="#DejaVuSans-2e"/>
       <use x="95.410156" xlink:href="#DejaVuSans-32"/>
      </g>
     </g>
    </g>
    <g id="ytick_3">
     <g id="line2d_9">
      <g>
       <use style="stroke:#000000;stroke-width:0.8;" x="57.6" xlink:href="#mbcab8d2cfc" y="199.927919"/>
      </g>
     </g>
     <g id="text_9">
      <!-- 0.4 -->
      <g transform="translate(34.696875 203.727138)scale(0.1 -0.1)">
       <use xlink:href="#DejaVuSans-30"/>
       <use x="63.623047" xlink:href="#DejaVuSans-2e"/>
       <use x="95.410156" xlink:href="#DejaVuSans-34"/>
      </g>
     </g>
    </g>
    <g id="ytick_4">
     <g id="line2d_10">
      <g>
       <use style="stroke:#000000;stroke-width:0.8;" x="57.6" xlink:href="#mbcab8d2cfc" y="150.302443"/>
      </g>
     </g>
     <g id="text_10">
      <!-- 0.6 -->
      <g transform="translate(34.696875 154.101662)scale(0.1 -0.1)">
       <use xlink:href="#DejaVuSans-30"/>
       <use x="63.623047" xlink:href="#DejaVuSans-2e"/>
       <use x="95.410156" xlink:href="#DejaVuSans-36"/>
      </g>
     </g>
    </g>
    <g id="ytick_5">
     <g id="line2d_11">
      <g>
       <use style="stroke:#000000;stroke-width:0.8;" x="57.6" xlink:href="#mbcab8d2cfc" y="100.676968"/>
      </g>
     </g>
     <g id="text_11">
      <!-- 0.8 -->
      <g transform="translate(34.696875 104.476186)scale(0.1 -0.1)">
       <use xlink:href="#DejaVuSans-30"/>
       <use x="63.623047" xlink:href="#DejaVuSans-2e"/>
       <use x="95.410156" xlink:href="#DejaVuSans-38"/>
      </g>
     </g>
    </g>
    <g id="ytick_6">
     <g id="line2d_12">
      <g>
       <use style="stroke:#000000;stroke-width:0.8;" x="57.6" xlink:href="#mbcab8d2cfc" y="51.051492"/>
      </g>
     </g>
     <g id="text_12">
      <!-- 1.0 -->
      <g transform="translate(34.696875 54.850711)scale(0.1 -0.1)">
       <use xlink:href="#DejaVuSans-31"/>
       <use x="63.623047" xlink:href="#DejaVuSans-2e"/>
       <use x="95.410156" xlink:href="#DejaVuSans-30"/>
      </g>
     </g>
    </g>
   </g>
   <g id="line2d_13">
    <path clip-path="url(#pb3794439a0)" d="M 73.832727 286.596355 
L 74.92584 286.764114 
L 76.018953 286.093054 
L 77.112066 285.086451 
L 78.205179 278.711289 
L 79.298292 276.194781 
L 80.391405 269.316244 
L 81.484518 258.411542 
L 82.577631 245.661268 
L 83.670744 224.522553 
L 84.763857 206.739263 
L 85.85697 186.607201 
L 88.043196 142.65218 
L 89.136309 124.868891 
L 90.229421 119.332673 
L 91.322534 104.40136 
L 92.415647 76.719773 
L 93.50876 67.324926 
L 94.601873 65.143887 
L 95.694986 54.574653 
L 96.788099 53.568 
L 97.881212 61.78846 
L 98.974325 79.571997 
L 100.067438 85.779152 
L 101.160551 87.456989 
L 102.253664 103.394707 
L 105.533003 130.405357 
L 106.626116 142.484446 
L 107.719229 161.609856 
L 108.812342 163.95863 
L 109.905455 152.047275 
L 110.998567 154.396049 
L 112.09168 159.932267 
L 113.184793 161.945572 
L 114.277906 159.932267 
L 115.371019 168.991645 
L 116.464132 184.761877 
L 117.557245 189.962627 
L 118.650358 202.712901 
L 119.743471 213.953319 
L 120.836584 215.463174 
L 121.929697 220.328456 
L 124.115923 236.433907 
L 125.209036 238.614947 
L 126.302149 241.131455 
L 127.395262 250.52655 
L 128.488375 256.398236 
L 129.581488 259.250212 
L 130.674601 257.069421 
L 131.767713 260.92805 
L 132.860826 265.289881 
L 135.047052 269.819694 
L 137.233278 280.892279 
L 138.326391 280.892279 
L 139.419504 278.54353 
L 140.512617 279.550133 
L 141.60573 277.704686 
L 142.698843 275.188178 
L 143.791956 274.684901 
L 144.885069 269.819694 
L 147.071295 251.532955 
L 148.164408 247.674326 
L 149.257521 242.64131 
L 150.350634 234.588584 
L 151.443747 229.555568 
L 152.53686 225.361471 
L 153.629972 220.49619 
L 154.723085 214.288787 
L 155.816198 200.867329 
L 156.909311 196.337764 
L 158.002424 193.150071 
L 159.095537 192.143419 
L 160.18865 190.298095 
L 161.281763 182.077387 
L 164.561102 115.809512 
L 167.840441 77.89416 
L 168.933554 90.141231 
L 170.026667 93.496658 
L 171.11978 88.79911 
L 172.212893 89.470047 
L 173.306006 96.1809 
L 174.399118 112.622068 
L 175.492231 122.352383 
L 176.585344 133.257333 
L 177.678457 151.543825 
L 178.77157 160.435469 
L 179.864683 167.984993 
L 180.957796 174.695846 
L 182.050909 176.205701 
L 183.144022 184.929611 
L 184.237135 186.607201 
L 185.330248 187.110403 
L 186.423361 186.607201 
L 187.516474 187.781587 
L 188.609587 191.304748 
L 189.7027 191.640216 
L 190.795813 194.659926 
L 191.888926 197.176434 
L 194.075152 200.364127 
L 195.168264 205.564877 
L 196.261377 206.571529 
L 197.35449 213.785585 
L 198.447603 219.992739 
L 199.540716 224.522553 
L 200.633829 223.683634 
L 201.726942 225.361471 
L 203.913168 238.950415 
L 205.006281 244.319147 
L 206.099394 248.680979 
L 207.192507 256.230502 
L 208.28562 262.270171 
L 209.378733 264.45121 
L 210.471846 265.625349 
L 211.564959 268.309839 
L 213.751185 277.536927 
L 214.844298 281.731099 
L 215.93741 286.596355 
L 217.030523 290.119442 
L 218.123636 292.803733 
L 219.216749 293.810336 
L 220.309862 293.139251 
L 221.402975 292.635949 
L 222.496088 292.300432 
L 223.589201 289.951683 
L 224.682314 288.777321 
L 225.775427 283.744305 
L 226.86854 279.717892 
L 229.054766 263.109089 
L 230.147879 255.559566 
L 231.240992 244.486881 
L 232.334105 238.782681 
L 233.427218 229.2201 
L 234.520331 217.811948 
L 235.613444 209.255771 
L 239.985895 160.603451 
L 242.172121 142.819914 
L 243.265234 141.813509 
L 244.358347 141.645775 
L 245.45146 138.961285 
L 246.544573 134.767188 
L 247.637686 138.961285 
L 248.730799 139.464736 
L 249.823912 141.981244 
L 250.917025 140.639123 
L 252.010138 147.181993 
L 253.103251 155.234719 
L 254.196364 159.764533 
L 255.289477 168.656177 
L 256.38259 170.501501 
L 257.475702 182.580838 
L 259.661928 187.278385 
L 262.941267 202.712901 
L 264.03438 200.867329 
L 265.127493 206.403795 
L 266.220606 216.13411 
L 267.313719 223.5159 
L 268.406832 225.361471 
L 269.499945 224.690287 
L 271.686171 226.703592 
L 272.779284 222.006045 
L 273.872397 220.999392 
L 274.96551 219.489537 
L 276.058623 222.173779 
L 277.151736 227.03906 
L 278.244848 229.891037 
L 279.337961 236.769624 
L 280.431074 240.124802 
L 281.524187 247.003389 
L 282.6173 250.52655 
L 283.710413 253.54626 
L 285.896639 263.94776 
L 286.989752 267.806389 
L 288.082865 270.994081 
L 289.175978 278.879073 
L 290.269091 284.583149 
L 291.362204 287.938476 
L 292.455317 290.119442 
L 293.54843 290.287225 
L 294.641543 288.609562 
L 295.734656 283.744305 
L 296.827769 278.040229 
L 299.013994 262.941107 
L 300.107107 252.371873 
L 302.293333 226.703592 
L 303.386446 219.657271 
L 304.479559 203.048369 
L 305.572672 190.298095 
L 306.665785 182.748572 
L 307.758898 177.547822 
L 308.852011 168.991645 
L 309.945124 142.148978 
L 311.038237 121.849181 
L 314.317576 67.828129 
L 315.410689 63.801766 
L 316.503802 64.976152 
L 317.596915 72.022474 
L 318.690028 82.256239 
L 319.78314 97.187304 
L 320.876253 109.769844 
L 321.969366 114.131923 
L 323.062479 126.378994 
L 324.155592 134.599454 
L 325.248705 134.263986 
L 326.341818 129.734172 
L 327.434931 128.224317 
L 328.528044 128.72752 
L 329.621157 130.069641 
L 330.71427 144.665485 
L 331.807383 156.409106 
L 333.993609 185.600548 
L 335.086722 194.659926 
L 336.179835 208.081384 
L 337.272948 211.940013 
L 338.366061 212.778932 
L 339.459174 216.973029 
L 340.552287 222.844963 
L 341.645399 233.749665 
L 342.738512 238.614947 
L 343.831625 244.486881 
L 344.924738 256.56597 
L 346.017851 264.786678 
L 347.110964 269.316244 
L 348.204077 271.161815 
L 349.29719 273.846057 
L 350.390303 278.207988 
L 351.483416 279.885676 
L 352.576529 279.046832 
L 353.669642 280.221194 
L 354.762755 279.382374 
L 355.855868 281.395581 
L 356.948981 277.201384 
L 358.042094 277.87247 
L 359.135207 277.536927 
L 360.22832 277.87247 
L 361.321433 281.395581 
L 362.414545 283.241003 
L 363.507658 287.099657 
L 364.600771 288.94508 
L 365.693884 291.293828 
L 366.786997 293.307035 
L 367.88011 294.145854 
L 368.973223 295.320241 
L 370.066336 295.488 
L 372.252562 292.132648 
L 373.345675 289.61614 
L 376.625014 272.67167 
L 377.718127 265.961065 
L 378.81124 252.875076 
L 379.904353 246.667921 
L 380.997466 241.466923 
L 382.090579 232.910995 
L 383.183691 226.032408 
L 384.276804 215.798642 
L 385.369917 215.463174 
L 386.46303 209.255771 
L 387.556143 205.732611 
L 388.649256 199.357474 
L 389.742369 194.492192 
L 390.835482 201.203045 
L 391.928595 202.20945 
L 393.021708 198.854272 
L 394.114821 198.518555 
L 395.207934 204.39049 
L 396.301047 207.745916 
L 397.39416 200.364127 
L 398.487273 198.854272 
L 398.487273 198.854272 
" style="fill:none;stroke:#1f77b4;stroke-linecap:square;stroke-width:1.5;"/>
   </g>
   <g id="line2d_14">
    <path clip-path="url(#pb3794439a0)" d="M 73.832727 283.891691 
L 74.92584 284.526049 
L 76.018953 284.048277 
L 77.112066 284.087192 
L 78.205179 281.18154 
L 79.298292 276.75526 
L 80.391405 274.526774 
L 82.577631 251.18307 
L 83.670744 229.742491 
L 84.763857 205.313236 
L 85.85697 189.840881 
L 86.950083 165.465863 
L 89.136309 123.171797 
L 90.229421 115.974718 
L 91.322534 111.340363 
L 92.415647 83.978246 
L 93.50876 70.780399 
L 94.601873 72.560632 
L 96.788099 65.291502 
L 97.881212 67.575821 
L 98.974325 77.639324 
L 100.067438 91.168649 
L 101.160551 86.970981 
L 102.253664 97.35498 
L 103.346777 113.266618 
L 104.43989 119.996438 
L 105.533003 133.37169 
L 106.626116 136.35549 
L 107.719229 161.278473 
L 108.812342 173.121841 
L 109.905455 153.140912 
L 110.998567 150.269716 
L 112.09168 159.270832 
L 113.184793 164.103662 
L 114.277906 160.738189 
L 115.371019 163.001923 
L 116.464132 185.391877 
L 117.557245 193.627026 
L 118.650358 197.919113 
L 119.743471 215.059679 
L 120.836584 218.440831 
L 121.929697 217.376622 
L 124.115923 235.901428 
L 125.209036 239.320785 
L 126.302149 240.393528 
L 127.395262 246.757733 
L 128.488375 256.427773 
L 129.581488 260.066438 
L 130.674601 257.483673 
L 131.767713 259.737 
L 132.860826 264.265811 
L 133.953939 267.732455 
L 135.047052 269.369188 
L 136.140165 272.335816 
L 137.233278 278.507277 
L 138.326391 280.520099 
L 139.419504 279.191589 
L 140.512617 278.156778 
L 141.60573 278.650065 
L 142.698843 276.479009 
L 144.885069 273.020769 
L 145.978182 265.701794 
L 147.071295 254.932394 
L 148.164408 247.510083 
L 149.257521 244.426128 
L 150.350634 237.246319 
L 151.443747 227.883714 
L 152.53686 225.567557 
L 153.629972 221.618172 
L 154.723085 213.7802 
L 155.816198 202.023463 
L 156.909311 193.839325 
L 159.095537 190.503629 
L 160.18865 192.765591 
L 161.281763 186.88483 
L 162.374876 165.794668 
L 163.467989 134.83387 
L 165.654215 102.213101 
L 166.747328 93.07808 
L 167.840441 81.672907 
L 168.933554 82.139614 
L 170.026667 98.721706 
L 171.11978 90.47785 
L 172.212893 87.850567 
L 173.306006 91.91165 
L 175.492231 122.702371 
L 176.585344 131.667913 
L 177.678457 150.282433 
L 178.77157 162.082787 
L 179.864683 171.224581 
L 180.957796 175.193907 
L 182.050909 177.734551 
L 183.144022 181.205055 
L 184.237135 191.0535 
L 185.330248 187.05574 
L 186.423361 185.924904 
L 187.516474 187.47313 
L 189.7027 193.199028 
L 190.795813 191.246783 
L 191.888926 199.677314 
L 192.982039 197.32901 
L 194.075152 199.93842 
L 195.168264 205.278621 
L 196.261377 205.219722 
L 197.35449 211.77688 
L 198.447603 219.631002 
L 199.540716 224.551564 
L 200.633829 225.124193 
L 201.726942 222.494768 
L 203.913168 237.500689 
L 205.006281 243.462503 
L 206.099394 247.972922 
L 207.192507 253.463572 
L 208.28562 261.12369 
L 209.378733 265.515966 
L 210.471846 265.635031 
L 211.564959 267.169064 
L 213.751185 275.5216 
L 214.844298 279.367322 
L 215.93741 282.213368 
L 217.030523 285.562321 
L 218.123636 287.4438 
L 219.216749 288.449109 
L 220.309862 288.702644 
L 221.402975 288.225145 
L 222.496088 288.237523 
L 224.682314 286.318632 
L 225.775427 284.379187 
L 226.86854 280.900037 
L 227.961653 276.119473 
L 233.427218 231.545159 
L 235.613444 207.495761 
L 236.706556 199.254469 
L 237.799669 185.404714 
L 239.985895 161.319427 
L 241.079008 150.026179 
L 242.172121 142.883594 
L 243.265234 139.251713 
L 244.358347 140.904086 
L 245.45146 141.417072 
L 246.544573 133.868061 
L 247.637686 135.70233 
L 248.730799 142.427387 
L 249.823912 139.912486 
L 250.917025 143.692203 
L 252.010138 142.354977 
L 253.103251 155.058161 
L 254.196364 160.755329 
L 255.289477 168.164199 
L 256.38259 172.574361 
L 257.475702 178.413913 
L 258.568815 189.568022 
L 259.661928 186.345571 
L 261.848154 196.27306 
L 262.941267 203.697407 
L 264.03438 201.73346 
L 265.127493 202.565174 
L 266.220606 215.755812 
L 267.313719 223.380345 
L 268.406832 225.885924 
L 269.499945 224.246545 
L 270.593058 225.01788 
L 271.686171 227.303439 
L 272.779284 222.514929 
L 273.872397 219.08316 
L 274.96551 218.802396 
L 276.058623 220.821924 
L 277.151736 225.76924 
L 278.244848 228.678993 
L 279.337961 235.140876 
L 281.524187 245.004068 
L 282.6173 250.853896 
L 283.710413 252.524813 
L 284.803526 256.907199 
L 286.989752 267.721644 
L 288.082865 269.96248 
L 289.175978 274.322816 
L 290.269091 281.171492 
L 291.362204 283.91535 
L 292.455317 285.974966 
L 293.54843 286.823069 
L 294.641543 286.790188 
L 295.734656 284.13023 
L 296.827769 280.718935 
L 297.920882 274.325691 
L 299.013994 266.822467 
L 300.107107 257.488082 
L 302.293333 228.019844 
L 303.386446 216.784272 
L 304.479559 209.329155 
L 305.572672 187.941114 
L 306.665785 179.170957 
L 307.758898 179.429903 
L 308.852011 170.924873 
L 309.945124 150.959686 
L 311.038237 117.478699 
L 312.13135 107.439904 
L 313.224463 89.792238 
L 314.317576 74.4917 
L 315.410689 70.125962 
L 316.503802 71.409667 
L 317.596915 73.768752 
L 318.690028 82.138698 
L 319.78314 93.07691 
L 320.876253 108.588788 
L 321.969366 116.324919 
L 323.062479 119.824349 
L 324.155592 138.991751 
L 325.248705 134.383657 
L 326.341818 132.383314 
L 327.434931 126.019188 
L 329.621157 128.659765 
L 330.71427 138.43348 
L 331.807383 159.289821 
L 332.900496 169.003017 
L 333.993609 187.060351 
L 335.086722 195.114055 
L 336.179835 206.401678 
L 337.272948 215.204098 
L 338.366061 212.906974 
L 339.459174 215.102571 
L 340.552287 221.175117 
L 341.645399 230.133885 
L 342.738512 240.592416 
L 343.831625 242.634804 
L 344.924738 251.581958 
L 346.017851 263.831158 
L 347.110964 268.40512 
L 348.204077 271.315408 
L 349.29719 272.30619 
L 350.390303 276.124187 
L 351.483416 278.97809 
L 352.576529 279.166032 
L 353.669642 279.010223 
L 354.762755 278.974043 
L 355.855868 280.158291 
L 356.948981 278.924497 
L 358.042094 276.873002 
L 360.22832 277.561405 
L 362.414545 280.849262 
L 363.507658 283.361601 
L 364.600771 285.264131 
L 366.786997 287.936355 
L 368.973223 289.428327 
L 371.159449 289.422622 
L 372.252562 288.478683 
L 373.345675 287.109799 
L 374.438788 285.072872 
L 375.531901 280.311661 
L 376.625014 276.077213 
L 377.718127 269.718098 
L 379.904353 247.504405 
L 380.997466 242.590202 
L 382.090579 234.996717 
L 383.183691 226.012736 
L 384.276804 215.881613 
L 385.369917 213.40784 
L 386.46303 210.133783 
L 387.556143 204.694327 
L 388.649256 201.278317 
L 389.742369 190.814296 
L 390.835482 197.987259 
L 391.928595 203.82403 
L 393.021708 199.515639 
L 394.114821 196.522559 
L 396.301047 210.153215 
L 397.39416 201.183782 
L 398.487273 198.406753 
L 398.487273 198.406753 
" style="fill:none;stroke:#ff7f0e;stroke-linecap:square;stroke-width:1.5;"/>
   </g>
   <g id="line2d_15">
    <path clip-path="url(#pb3794439a0)" d="M 73.832727 285.413788 
L 74.92584 286.151602 
L 76.018953 285.568309 
L 77.112066 285.709106 
L 78.205179 282.441861 
L 79.298292 277.929644 
L 80.391405 275.742971 
L 82.577631 255.755576 
L 83.670744 238.602744 
L 84.763857 211.880281 
L 85.85697 192.129677 
L 86.950083 166.496455 
L 89.136309 124.482749 
L 90.229421 118.825939 
L 91.322534 112.316602 
L 92.415647 90.460264 
L 93.50876 76.224162 
L 94.601873 79.760601 
L 95.694986 79.30462 
L 96.788099 74.107524 
L 97.881212 77.280553 
L 98.974325 85.958052 
L 100.067438 98.656858 
L 101.160551 94.761509 
L 102.253664 99.674823 
L 103.346777 115.692454 
L 104.43989 120.835336 
L 105.533003 134.711917 
L 106.626116 137.524502 
L 107.719229 164.370436 
L 108.812342 177.800733 
L 109.905455 157.768895 
L 110.998567 154.333568 
L 112.09168 160.768706 
L 113.184793 165.690275 
L 114.277906 162.511828 
L 115.371019 165.23645 
L 116.464132 188.478968 
L 117.557245 197.211587 
L 118.650358 199.444041 
L 119.743471 216.566477 
L 120.836584 220.609181 
L 121.929697 218.623506 
L 124.115923 237.092077 
L 125.209036 241.195331 
L 126.302149 242.366981 
L 127.395262 248.307596 
L 128.488375 257.630008 
L 129.581488 261.202007 
L 130.674601 259.921069 
L 131.767713 260.789722 
L 132.860826 265.273182 
L 133.953939 268.842649 
L 135.047052 270.452511 
L 136.140165 273.409897 
L 137.233278 279.98262 
L 138.326391 281.78382 
L 139.419504 280.384068 
L 140.512617 279.346789 
L 141.60573 279.857037 
L 142.698843 277.65816 
L 143.791956 275.878743 
L 144.885069 274.362944 
L 145.978182 268.042335 
L 148.164408 251.000565 
L 149.257521 247.875078 
L 150.350634 241.82498 
L 151.443747 232.449493 
L 153.629972 224.731381 
L 154.723085 217.778137 
L 156.909311 196.119685 
L 158.002424 192.814564 
L 159.095537 191.235095 
L 160.18865 193.766221 
L 161.281763 187.987078 
L 162.374876 168.882567 
L 163.467989 136.493655 
L 165.654215 103.672006 
L 166.747328 95.215512 
L 167.840441 87.774171 
L 168.933554 84.736104 
L 170.026667 102.753209 
L 172.212893 92.077493 
L 173.306006 95.859411 
L 174.399118 108.336569 
L 175.492231 124.785695 
L 176.585344 132.754516 
L 177.678457 153.166817 
L 178.77157 166.493637 
L 179.864683 172.674135 
L 180.957796 176.732034 
L 183.144022 182.810817 
L 184.237135 192.753282 
L 185.330248 188.11436 
L 186.423361 186.947269 
L 187.516474 188.413216 
L 189.7027 194.24126 
L 190.795813 192.009606 
L 191.888926 201.031363 
L 192.982039 198.65365 
L 194.075152 200.62813 
L 195.168264 206.885104 
L 196.261377 207.581691 
L 197.35449 213.660545 
L 198.447603 220.58086 
L 199.540716 225.579715 
L 200.633829 227.734282 
L 201.726942 225.068877 
L 203.913168 238.586186 
L 205.006281 244.604772 
L 206.099394 249.167868 
L 207.192507 254.594868 
L 208.28562 262.268783 
L 209.378733 266.67032 
L 210.471846 266.828178 
L 211.564959 268.185383 
L 213.751185 276.71282 
L 214.844298 280.711052 
L 215.93741 283.685921 
L 217.030523 287.291836 
L 218.123636 289.312843 
L 219.216749 290.369605 
L 220.309862 290.65788 
L 221.402975 290.178547 
L 222.496088 290.212704 
L 224.682314 288.157601 
L 225.775427 285.862369 
L 226.86854 282.220809 
L 227.961653 277.500744 
L 231.240992 253.215595 
L 232.334105 243.016883 
L 233.427218 236.714485 
L 234.520331 224.626779 
L 235.613444 211.166434 
L 236.706556 202.114829 
L 237.799669 186.550586 
L 238.892782 173.813558 
L 241.079008 151.24355 
L 242.172121 143.912285 
L 243.265234 141.709752 
L 244.358347 141.910957 
L 245.45146 142.421415 
L 246.544573 135.067492 
L 247.637686 138.141449 
L 248.730799 143.528152 
L 249.823912 140.876214 
L 250.917025 144.81534 
L 252.010138 144.057983 
L 253.103251 156.438497 
L 254.196364 162.748359 
L 255.289477 169.995459 
L 257.475702 180.891369 
L 258.568815 192.239851 
L 259.661928 187.362441 
L 261.848154 197.223467 
L 262.941267 204.982243 
L 264.03438 204.432002 
L 265.127493 204.068872 
L 266.220606 217.895448 
L 267.313719 224.414555 
L 268.406832 228.014891 
L 269.499945 227.227287 
L 270.593058 226.847781 
L 271.686171 228.942024 
L 272.779284 226.962758 
L 273.872397 221.303833 
L 274.96551 221.327268 
L 276.058623 222.205513 
L 277.151736 227.001588 
L 278.244848 230.873536 
L 279.337961 236.671199 
L 281.524187 246.366723 
L 282.6173 252.128565 
L 283.710413 253.967045 
L 284.803526 257.938119 
L 286.989752 268.828285 
L 288.082865 271.085784 
L 289.175978 275.56359 
L 290.269091 282.718932 
L 291.362204 285.429162 
L 292.455317 287.722747 
L 293.54843 288.613892 
L 294.641543 288.599435 
L 295.734656 285.573564 
L 296.827769 282.024179 
L 297.920882 275.827569 
L 300.107107 261.102343 
L 301.20022 248.628424 
L 302.293333 234.010765 
L 303.386446 221.250138 
L 304.479559 213.785146 
L 305.572672 190.004469 
L 306.665785 180.28751 
L 307.758898 181.300352 
L 308.852011 171.915072 
L 309.945124 154.036558 
L 311.038237 118.72869 
L 312.13135 109.023975 
L 313.224463 92.377816 
L 314.317576 81.171098 
L 315.410689 76.770816 
L 316.503802 80.058935 
L 317.596915 82.849939 
L 318.690028 89.606674 
L 319.78314 97.700046 
L 320.876253 110.705117 
L 321.969366 118.209372 
L 323.062479 120.988556 
L 324.155592 140.460268 
L 325.248705 137.269227 
L 326.341818 133.402688 
L 327.434931 126.956147 
L 328.528044 128.438805 
L 329.621157 129.482353 
L 330.71427 141.615454 
L 331.807383 161.123355 
L 332.900496 170.682866 
L 333.993609 188.903489 
L 335.086722 197.85362 
L 336.179835 208.26451 
L 337.272948 217.197339 
L 338.366061 214.885841 
L 339.459174 216.254785 
L 340.552287 222.2249 
L 342.738512 241.816932 
L 343.831625 243.993339 
L 344.924738 253.089362 
L 346.017851 265.281208 
L 347.110964 269.70172 
L 348.204077 272.482729 
L 349.29719 273.42894 
L 350.390303 277.366871 
L 351.483416 280.21123 
L 352.576529 280.371513 
L 354.762755 280.178558 
L 355.855868 281.579363 
L 356.948981 280.222274 
L 358.042094 278.004002 
L 360.22832 278.720153 
L 361.321433 280.615927 
L 362.414545 282.129878 
L 363.507658 284.98422 
L 364.600771 286.916426 
L 366.786997 289.853219 
L 368.973223 291.499203 
L 371.159449 291.433529 
L 372.252562 290.455631 
L 373.345675 288.933435 
L 374.438788 286.682722 
L 375.531901 281.592181 
L 376.625014 277.292946 
L 377.718127 271.352721 
L 378.81124 262.571285 
L 379.904353 251.472306 
L 380.997466 246.34564 
L 382.090579 239.998046 
L 384.276804 221.292967 
L 385.369917 215.70588 
L 386.46303 213.90117 
L 387.556143 206.050233 
L 388.649256 202.958115 
L 389.742369 192.817161 
L 390.835482 201.031558 
L 391.928595 205.395957 
L 394.114821 197.383252 
L 395.207934 205.101228 
L 396.301047 211.077694 
L 397.39416 206.177868 
L 398.487273 200.372114 
L 398.487273 200.372114 
" style="fill:none;stroke:#2ca02c;stroke-linecap:square;stroke-width:1.5;"/>
   </g>
   <g id="line2d_16">
    <path clip-path="url(#pb3794439a0)" d="M 73.832727 280.450156 
L 74.92584 280.90763 
L 77.112066 280.561687 
L 78.205179 278.904379 
L 79.298292 275.326134 
L 80.391405 273.506354 
L 81.484518 260.054318 
L 82.577631 249.387044 
L 84.763857 202.827561 
L 85.85697 187.815363 
L 88.043196 140.18187 
L 89.136309 119.165086 
L 90.229421 110.095914 
L 91.322534 109.751778 
L 92.415647 79.404876 
L 93.50876 68.135502 
L 94.601873 69.904267 
L 95.694986 65.247455 
L 96.788099 62.318887 
L 97.881212 64.53652 
L 98.974325 74.507491 
L 100.067438 88.315827 
L 101.160551 83.653006 
L 102.253664 93.765702 
L 103.346777 111.282959 
L 104.43989 118.694555 
L 105.533003 130.812503 
L 106.626116 134.739693 
L 107.719229 155.434851 
L 108.812342 169.823219 
L 109.905455 148.717853 
L 110.998567 142.472354 
L 112.09168 154.85071 
L 113.184793 161.795578 
L 114.277906 159.02925 
L 115.371019 157.632391 
L 116.464132 179.43266 
L 117.557245 191.049705 
L 118.650358 195.691602 
L 119.743471 213.376454 
L 120.836584 216.852761 
L 121.929697 216.376653 
L 123.02281 224.96167 
L 124.115923 234.645526 
L 125.209036 238.421354 
L 126.302149 239.619409 
L 127.395262 245.210741 
L 128.488375 255.352682 
L 129.581488 259.438967 
L 130.674601 255.965998 
L 131.767713 258.989242 
L 132.860826 263.622806 
L 133.953939 266.980233 
L 135.047052 268.63009 
L 136.140165 270.768014 
L 137.233278 275.396328 
L 138.326391 277.850314 
L 139.419504 277.060245 
L 140.512617 275.97469 
L 141.60573 276.423648 
L 143.791956 273.465594 
L 144.885069 272.303558 
L 145.978182 264.390829 
L 147.071295 253.125738 
L 148.164408 246.439357 
L 149.257521 243.28688 
L 150.350634 235.721221 
L 151.443747 226.584662 
L 152.53686 224.490459 
L 153.629972 220.54937 
L 154.723085 212.452223 
L 155.816198 199.387445 
L 156.909311 191.098194 
L 158.002424 191.177459 
L 159.095537 189.607408 
L 160.18865 191.484811 
L 161.281763 186.049426 
L 162.374876 162.767543 
L 163.467989 132.230323 
L 164.561102 113.384018 
L 165.654215 98.661042 
L 166.747328 91.061044 
L 167.840441 78.247219 
L 168.933554 78.55406 
L 170.026667 96.680483 
L 171.11978 87.058358 
L 172.212893 85.749797 
L 173.306006 89.827366 
L 174.399118 103.617354 
L 175.492231 120.700128 
L 176.585344 129.679711 
L 177.678457 145.227078 
L 178.77157 158.857249 
L 179.864683 167.68393 
L 180.957796 173.346149 
L 182.050909 176.012867 
L 183.144022 177.782057 
L 184.237135 189.563112 
L 185.330248 186.204766 
L 186.423361 185.004164 
L 187.516474 185.800051 
L 188.609587 188.840818 
L 189.7027 192.318681 
L 190.795813 190.566942 
L 191.888926 197.746338 
L 192.982039 196.388872 
L 194.075152 199.279684 
L 195.168264 203.557833 
L 196.261377 203.447263 
L 197.35449 209.760416 
L 198.447603 218.867897 
L 199.540716 223.788795 
L 200.633829 224.085579 
L 201.726942 221.622292 
L 202.820055 228.335384 
L 203.913168 236.532741 
L 205.006281 242.655508 
L 206.099394 247.268444 
L 207.192507 252.511635 
L 208.28562 260.145123 
L 209.378733 264.818052 
L 210.471846 265.04334 
L 211.564959 266.615161 
L 214.844298 276.454941 
L 217.030523 281.46053 
L 218.123636 283.118852 
L 219.216749 284.063443 
L 220.309862 284.298845 
L 221.402975 283.927598 
L 222.496088 283.853106 
L 223.589201 283.289456 
L 224.682314 282.355832 
L 225.775427 281.160603 
L 226.86854 278.434571 
L 227.961653 275.194519 
L 230.147879 257.326407 
L 231.240992 245.92455 
L 233.427218 229.737741 
L 235.613444 205.84955 
L 236.706556 197.957132 
L 237.799669 183.992861 
L 241.079008 146.52662 
L 242.172121 139.178383 
L 243.265234 133.40657 
L 244.358347 137.076314 
L 245.45146 137.766223 
L 246.544573 131.472229 
L 247.637686 129.857356 
L 248.730799 139.378579 
L 249.823912 136.665883 
L 250.917025 140.426508 
L 252.010138 137.595635 
L 253.103251 151.12446 
L 254.196364 158.947729 
L 255.289477 163.696181 
L 256.38259 170.415904 
L 257.475702 173.518468 
L 258.568815 187.474053 
L 259.661928 185.493735 
L 260.755041 189.301065 
L 262.941267 202.16245 
L 264.03438 199.605996 
L 265.127493 200.9341 
L 266.220606 213.438489 
L 267.313719 222.694978 
L 268.406832 224.794695 
L 269.499945 223.232203 
L 270.593058 223.879899 
L 271.686171 226.226212 
L 272.779284 220.622888 
L 273.872397 217.751455 
L 274.96551 217.970332 
L 276.058623 219.253716 
L 277.151736 224.55439 
L 278.244848 227.887328 
L 280.431074 239.252463 
L 281.524187 243.731745 
L 282.6173 250.156506 
L 283.710413 251.822804 
L 284.803526 256.215666 
L 286.989752 266.530935 
L 288.082865 269.064477 
L 289.175978 272.121591 
L 290.269091 277.619917 
L 291.362204 280.348984 
L 292.455317 281.916261 
L 293.54843 282.732481 
L 294.641543 282.720246 
L 295.734656 281.060516 
L 296.827769 278.299703 
L 297.920882 273.56186 
L 299.013994 265.832638 
L 300.107107 255.823379 
L 301.20022 239.74107 
L 302.293333 226.188357 
L 303.386446 215.031646 
L 304.479559 207.464467 
L 305.572672 185.793249 
L 306.665785 177.457503 
L 307.758898 176.617459 
L 308.852011 169.785291 
L 309.945124 147.680548 
L 311.038237 113.950754 
L 312.13135 103.233013 
L 314.317576 71.02286 
L 315.410689 67.506231 
L 316.503802 68.531845 
L 317.596915 70.847827 
L 318.690028 79.410671 
L 319.78314 90.607972 
L 320.876253 106.830799 
L 321.969366 114.403948 
L 323.062479 117.508079 
L 324.155592 136.315634 
L 325.248705 131.528243 
L 326.341818 129.41668 
L 327.434931 122.884935 
L 328.528044 123.991152 
L 329.621157 125.82745 
L 330.71427 132.261501 
L 331.807383 156.608774 
L 332.900496 166.301783 
L 333.993609 184.091685 
L 335.086722 193.203602 
L 337.272948 213.714063 
L 338.366061 212.016721 
L 339.459174 213.874312 
L 340.552287 220.134811 
L 341.645399 228.464786 
L 342.738512 239.66881 
L 343.831625 241.805734 
L 344.924738 249.957954 
L 346.017851 261.873662 
L 347.110964 267.348401 
L 348.204077 270.093435 
L 349.29719 271.200417 
L 351.483416 276.384077 
L 352.576529 276.876394 
L 353.669642 276.572443 
L 354.762755 276.762806 
L 355.855868 277.192211 
L 356.948981 277.064344 
L 358.042094 275.001516 
L 359.135207 275.300365 
L 360.22832 275.434215 
L 361.321433 276.47129 
L 363.507658 279.679064 
L 364.600771 281.429669 
L 367.88011 284.236508 
L 368.973223 284.767057 
L 370.066336 284.972958 
L 371.159449 284.904174 
L 372.252562 284.173794 
L 373.345675 283.121671 
L 374.438788 281.627135 
L 376.625014 274.899342 
L 377.718127 268.922639 
L 378.81124 255.724256 
L 379.904353 246.275108 
L 380.997466 241.482511 
L 383.183691 224.719665 
L 384.276804 213.820743 
L 385.369917 210.626369 
L 386.46303 208.260617 
L 387.556143 203.304372 
L 388.649256 200.417837 
L 389.742369 189.582238 
L 390.835482 194.397092 
L 391.928595 202.513122 
L 393.021708 198.140718 
L 394.114821 195.504273 
L 395.207934 200.880349 
L 396.301047 209.277597 
L 397.39416 197.820077 
L 398.487273 196.15035 
L 398.487273 196.15035 
" style="fill:none;stroke:#d62728;stroke-linecap:square;stroke-width:1.5;"/>
   </g>
   <g id="patch_3">
    <path d="M 57.6 307.584 
L 57.6 41.472 
" style="fill:none;stroke:#000000;stroke-linecap:square;stroke-linejoin:miter;stroke-width:0.8;"/>
   </g>
   <g id="patch_4">
    <path d="M 414.72 307.584 
L 414.72 41.472 
" style="fill:none;stroke:#000000;stroke-linecap:square;stroke-linejoin:miter;stroke-width:0.8;"/>
   </g>
   <g id="patch_5">
    <path d="M 57.6 307.584 
L 414.72 307.584 
" style="fill:none;stroke:#000000;stroke-linecap:square;stroke-linejoin:miter;stroke-width:0.8;"/>
   </g>
   <g id="patch_6">
    <path d="M 57.6 41.472 
L 414.72 41.472 
" style="fill:none;stroke:#000000;stroke-linecap:square;stroke-linejoin:miter;stroke-width:0.8;"/>
   </g>
   <g id="text_13">
    <!-- Plot of Train Data vs MCMC Uncertainty  -->
    <defs>
     <path d="M 19.671875 64.796875 
L 19.671875 37.40625 
L 32.078125 37.40625 
Q 38.96875 37.40625 42.71875 40.96875 
Q 46.484375 44.53125 46.484375 51.125 
Q 46.484375 57.671875 42.71875 61.234375 
Q 38.96875 64.796875 32.078125 64.796875 
z
M 9.8125 72.90625 
L 32.078125 72.90625 
Q 44.34375 72.90625 50.609375 67.359375 
Q 56.890625 61.8125 56.890625 51.125 
Q 56.890625 40.328125 50.609375 34.8125 
Q 44.34375 29.296875 32.078125 29.296875 
L 19.671875 29.296875 
L 19.671875 0 
L 9.8125 0 
z
" id="DejaVuSans-50"/>
     <path d="M 9.421875 75.984375 
L 18.40625 75.984375 
L 18.40625 0 
L 9.421875 0 
z
" id="DejaVuSans-6c"/>
     <path d="M 30.609375 48.390625 
Q 23.390625 48.390625 19.1875 42.75 
Q 14.984375 37.109375 14.984375 27.296875 
Q 14.984375 17.484375 19.15625 11.84375 
Q 23.34375 6.203125 30.609375 6.203125 
Q 37.796875 6.203125 41.984375 11.859375 
Q 46.1875 17.53125 46.1875 27.296875 
Q 46.1875 37.015625 41.984375 42.703125 
Q 37.796875 48.390625 30.609375 48.390625 
M 30.609375 56 
Q 42.328125 56 49.015625 48.375 
Q 55.71875 40.765625 55.71875 27.296875 
Q 55.71875 13.875 49.015625 6.21875 
Q 42.328125 -1.421875 30.609375 -1.421875 
Q 18.84375 -1.421875 12.171875 6.21875 
Q 5.515625 13.875 5.515625 27.296875 
Q 5.515625 40.765625 12.171875 48.375 
Q 18.84375 56 30.609375 56 
" id="DejaVuSans-6f"/>
     <path d="M 18.3125 70.21875 
L 18.3125 54.6875 
L 36.8125 54.6875 
L 36.8125 47.703125 
L 18.3125 47.703125 
L 18.3125 18.015625 
Q 18.3125 11.328125 20.140625 9.421875 
Q 21.96875 7.515625 27.59375 7.515625 
L 36.8125 7.515625 
L 36.8125 0 
L 27.59375 0 
Q 17.1875 0 13.234375 3.875 
Q 9.28125 7.765625 9.28125 18.015625 
L 9.28125 47.703125 
L 2.6875 47.703125 
L 2.6875 54.6875 
L 9.28125 54.6875 
L 9.28125 70.21875 
z
" id="DejaVuSans-74"/>
     <path id="DejaVuSans-20"/>
     <path d="M 37.109375 75.984375 
L 37.109375 68.5 
L 28.515625 68.5 
Q 23.6875 68.5 21.796875 66.546875 
Q 19.921875 64.59375 19.921875 59.515625 
L 19.921875 54.6875 
L 34.71875 54.6875 
L 34.71875 47.703125 
L 19.921875 47.703125 
L 19.921875 0 
L 10.890625 0 
L 10.890625 47.703125 
L 2.296875 47.703125 
L 2.296875 54.6875 
L 10.890625 54.6875 
L 10.890625 58.5 
Q 10.890625 67.625 15.140625 71.796875 
Q 19.390625 75.984375 28.609375 75.984375 
z
" id="DejaVuSans-66"/>
     <path d="M -0.296875 72.90625 
L 61.375 72.90625 
L 61.375 64.59375 
L 35.5 64.59375 
L 35.5 0 
L 25.59375 0 
L 25.59375 64.59375 
L -0.296875 64.59375 
z
" id="DejaVuSans-54"/>
     <path d="M 41.109375 46.296875 
Q 39.59375 47.171875 37.8125 47.578125 
Q 36.03125 48 33.890625 48 
Q 26.265625 48 22.1875 43.046875 
Q 18.109375 38.09375 18.109375 28.8125 
L 18.109375 0 
L 9.078125 0 
L 9.078125 54.6875 
L 18.109375 54.6875 
L 18.109375 46.1875 
Q 20.953125 51.171875 25.484375 53.578125 
Q 30.03125 56 36.53125 56 
Q 37.453125 56 38.578125 55.875 
Q 39.703125 55.765625 41.0625 55.515625 
z
" id="DejaVuSans-72"/>
     <path d="M 34.28125 27.484375 
Q 23.390625 27.484375 19.1875 25 
Q 14.984375 22.515625 14.984375 16.5 
Q 14.984375 11.71875 18.140625 8.90625 
Q 21.296875 6.109375 26.703125 6.109375 
Q 34.1875 6.109375 38.703125 11.40625 
Q 43.21875 16.703125 43.21875 25.484375 
L 43.21875 27.484375 
z
M 52.203125 31.203125 
L 52.203125 0 
L 43.21875 0 
L 43.21875 8.296875 
Q 40.140625 3.328125 35.546875 0.953125 
Q 30.953125 -1.421875 24.3125 -1.421875 
Q 15.921875 -1.421875 10.953125 3.296875 
Q 6 8.015625 6 15.921875 
Q 6 25.140625 12.171875 29.828125 
Q 18.359375 34.515625 30.609375 34.515625 
L 43.21875 34.515625 
L 43.21875 35.40625 
Q 43.21875 41.609375 39.140625 45 
Q 35.0625 48.390625 27.6875 48.390625 
Q 23 48.390625 18.546875 47.265625 
Q 14.109375 46.140625 10.015625 43.890625 
L 10.015625 52.203125 
Q 14.9375 54.109375 19.578125 55.046875 
Q 24.21875 56 28.609375 56 
Q 40.484375 56 46.34375 49.84375 
Q 52.203125 43.703125 52.203125 31.203125 
" id="DejaVuSans-61"/>
     <path d="M 9.421875 54.6875 
L 18.40625 54.6875 
L 18.40625 0 
L 9.421875 0 
z
M 9.421875 75.984375 
L 18.40625 75.984375 
L 18.40625 64.59375 
L 9.421875 64.59375 
z
" id="DejaVuSans-69"/>
     <path d="M 54.890625 33.015625 
L 54.890625 0 
L 45.90625 0 
L 45.90625 32.71875 
Q 45.90625 40.484375 42.875 44.328125 
Q 39.84375 48.1875 33.796875 48.1875 
Q 26.515625 48.1875 22.3125 43.546875 
Q 18.109375 38.921875 18.109375 30.90625 
L 18.109375 0 
L 9.078125 0 
L 9.078125 54.6875 
L 18.109375 54.6875 
L 18.109375 46.1875 
Q 21.34375 51.125 25.703125 53.5625 
Q 30.078125 56 35.796875 56 
Q 45.21875 56 50.046875 50.171875 
Q 54.890625 44.34375 54.890625 33.015625 
" id="DejaVuSans-6e"/>
     <path d="M 19.671875 64.796875 
L 19.671875 8.109375 
L 31.59375 8.109375 
Q 46.6875 8.109375 53.6875 14.9375 
Q 60.6875 21.78125 60.6875 36.53125 
Q 60.6875 51.171875 53.6875 57.984375 
Q 46.6875 64.796875 31.59375 64.796875 
z
M 9.8125 72.90625 
L 30.078125 72.90625 
Q 51.265625 72.90625 61.171875 64.09375 
Q 71.09375 55.28125 71.09375 36.53125 
Q 71.09375 17.671875 61.125 8.828125 
Q 51.171875 0 30.078125 0 
L 9.8125 0 
z
" id="DejaVuSans-44"/>
     <path d="M 2.984375 54.6875 
L 12.5 54.6875 
L 29.59375 8.796875 
L 46.6875 54.6875 
L 56.203125 54.6875 
L 35.6875 0 
L 23.484375 0 
z
" id="DejaVuSans-76"/>
     <path d="M 44.28125 53.078125 
L 44.28125 44.578125 
Q 40.484375 46.53125 36.375 47.5 
Q 32.28125 48.484375 27.875 48.484375 
Q 21.1875 48.484375 17.84375 46.4375 
Q 14.5 44.390625 14.5 40.28125 
Q 14.5 37.15625 16.890625 35.375 
Q 19.28125 33.59375 26.515625 31.984375 
L 29.59375 31.296875 
Q 39.15625 29.25 43.1875 25.515625 
Q 47.21875 21.78125 47.21875 15.09375 
Q 47.21875 7.46875 41.1875 3.015625 
Q 35.15625 -1.421875 24.609375 -1.421875 
Q 20.21875 -1.421875 15.453125 -0.5625 
Q 10.6875 0.296875 5.421875 2 
L 5.421875 11.28125 
Q 10.40625 8.6875 15.234375 7.390625 
Q 20.0625 6.109375 24.8125 6.109375 
Q 31.15625 6.109375 34.5625 8.28125 
Q 37.984375 10.453125 37.984375 14.40625 
Q 37.984375 18.0625 35.515625 20.015625 
Q 33.0625 21.96875 24.703125 23.78125 
L 21.578125 24.515625 
Q 13.234375 26.265625 9.515625 29.90625 
Q 5.8125 33.546875 5.8125 39.890625 
Q 5.8125 47.609375 11.28125 51.796875 
Q 16.75 56 26.8125 56 
Q 31.78125 56 36.171875 55.265625 
Q 40.578125 54.546875 44.28125 53.078125 
" id="DejaVuSans-73"/>
     <path d="M 9.8125 72.90625 
L 24.515625 72.90625 
L 43.109375 23.296875 
L 61.8125 72.90625 
L 76.515625 72.90625 
L 76.515625 0 
L 66.890625 0 
L 66.890625 64.015625 
L 48.09375 14.015625 
L 38.1875 14.015625 
L 19.390625 64.015625 
L 19.390625 0 
L 9.8125 0 
z
" id="DejaVuSans-4d"/>
     <path d="M 64.40625 67.28125 
L 64.40625 56.890625 
Q 59.421875 61.53125 53.78125 63.8125 
Q 48.140625 66.109375 41.796875 66.109375 
Q 29.296875 66.109375 22.65625 58.46875 
Q 16.015625 50.828125 16.015625 36.375 
Q 16.015625 21.96875 22.65625 14.328125 
Q 29.296875 6.6875 41.796875 6.6875 
Q 48.140625 6.6875 53.78125 8.984375 
Q 59.421875 11.28125 64.40625 15.921875 
L 64.40625 5.609375 
Q 59.234375 2.09375 53.4375 0.328125 
Q 47.65625 -1.421875 41.21875 -1.421875 
Q 24.65625 -1.421875 15.125 8.703125 
Q 5.609375 18.84375 5.609375 36.375 
Q 5.609375 53.953125 15.125 64.078125 
Q 24.65625 74.21875 41.21875 74.21875 
Q 47.75 74.21875 53.53125 72.484375 
Q 59.328125 70.75 64.40625 67.28125 
" id="DejaVuSans-43"/>
     <path d="M 8.6875 72.90625 
L 18.609375 72.90625 
L 18.609375 28.609375 
Q 18.609375 16.890625 22.84375 11.734375 
Q 27.09375 6.59375 36.625 6.59375 
Q 46.09375 6.59375 50.34375 11.734375 
Q 54.59375 16.890625 54.59375 28.609375 
L 54.59375 72.90625 
L 64.5 72.90625 
L 64.5 27.390625 
Q 64.5 13.140625 57.4375 5.859375 
Q 50.390625 -1.421875 36.625 -1.421875 
Q 22.796875 -1.421875 15.734375 5.859375 
Q 8.6875 13.140625 8.6875 27.390625 
z
" id="DejaVuSans-55"/>
     <path d="M 48.78125 52.59375 
L 48.78125 44.1875 
Q 44.96875 46.296875 41.140625 47.34375 
Q 37.3125 48.390625 33.40625 48.390625 
Q 24.65625 48.390625 19.8125 42.84375 
Q 14.984375 37.3125 14.984375 27.296875 
Q 14.984375 17.28125 19.8125 11.734375 
Q 24.65625 6.203125 33.40625 6.203125 
Q 37.3125 6.203125 41.140625 7.25 
Q 44.96875 8.296875 48.78125 10.40625 
L 48.78125 2.09375 
Q 45.015625 0.34375 40.984375 -0.53125 
Q 36.96875 -1.421875 32.421875 -1.421875 
Q 20.0625 -1.421875 12.78125 6.34375 
Q 5.515625 14.109375 5.515625 27.296875 
Q 5.515625 40.671875 12.859375 48.328125 
Q 20.21875 56 33.015625 56 
Q 37.15625 56 41.109375 55.140625 
Q 45.0625 54.296875 48.78125 52.59375 
" id="DejaVuSans-63"/>
     <path d="M 56.203125 29.59375 
L 56.203125 25.203125 
L 14.890625 25.203125 
Q 15.484375 15.921875 20.484375 11.0625 
Q 25.484375 6.203125 34.421875 6.203125 
Q 39.59375 6.203125 44.453125 7.46875 
Q 49.3125 8.734375 54.109375 11.28125 
L 54.109375 2.78125 
Q 49.265625 0.734375 44.1875 -0.34375 
Q 39.109375 -1.421875 33.890625 -1.421875 
Q 20.796875 -1.421875 13.15625 6.1875 
Q 5.515625 13.8125 5.515625 26.8125 
Q 5.515625 40.234375 12.765625 48.109375 
Q 20.015625 56 32.328125 56 
Q 43.359375 56 49.78125 48.890625 
Q 56.203125 41.796875 56.203125 29.59375 
M 47.21875 32.234375 
Q 47.125 39.59375 43.09375 43.984375 
Q 39.0625 48.390625 32.421875 48.390625 
Q 24.90625 48.390625 20.390625 44.140625 
Q 15.875 39.890625 15.1875 32.171875 
z
" id="DejaVuSans-65"/>
     <path d="M 32.171875 -5.078125 
Q 28.375 -14.84375 24.75 -17.8125 
Q 21.140625 -20.796875 15.09375 -20.796875 
L 7.90625 -20.796875 
L 7.90625 -13.28125 
L 13.1875 -13.28125 
Q 16.890625 -13.28125 18.9375 -11.515625 
Q 21 -9.765625 23.484375 -3.21875 
L 25.09375 0.875 
L 2.984375 54.6875 
L 12.5 54.6875 
L 29.59375 11.921875 
L 46.6875 54.6875 
L 56.203125 54.6875 
z
" id="DejaVuSans-79"/>
    </defs>
    <g transform="translate(115.666875 35.472)scale(0.12 -0.12)">
     <use xlink:href="#DejaVuSans-50"/>
     <use x="60.302734" xlink:href="#DejaVuSans-6c"/>
     <use x="88.085938" xlink:href="#DejaVuSans-6f"/>
     <use x="149.267578" xlink:href="#DejaVuSans-74"/>
     <use x="188.476562" xlink:href="#DejaVuSans-20"/>
     <use x="220.263672" xlink:href="#DejaVuSans-6f"/>
     <use x="281.445312" xlink:href="#DejaVuSans-66"/>
     <use x="316.650391" xlink:href="#DejaVuSans-20"/>
     <use x="348.4375" xlink:href="#DejaVuSans-54"/>
     <use x="409.302734" xlink:href="#DejaVuSans-72"/>
     <use x="450.416016" xlink:href="#DejaVuSans-61"/>
     <use x="511.695312" xlink:href="#DejaVuSans-69"/>
     <use x="539.478516" xlink:href="#DejaVuSans-6e"/>
     <use x="602.857422" xlink:href="#DejaVuSans-20"/>
     <use x="634.644531" xlink:href="#DejaVuSans-44"/>
     <use x="711.646484" xlink:href="#DejaVuSans-61"/>
     <use x="772.925781" xlink:href="#DejaVuSans-74"/>
     <use x="812.134766" xlink:href="#DejaVuSans-61"/>
     <use x="873.414062" xlink:href="#DejaVuSans-20"/>
     <use x="905.201172" xlink:href="#DejaVuSans-76"/>
     <use x="964.380859" xlink:href="#DejaVuSans-73"/>
     <use x="1016.480469" xlink:href="#DejaVuSans-20"/>
     <use x="1048.267578" xlink:href="#DejaVuSans-4d"/>
     <use x="1134.546875" xlink:href="#DejaVuSans-43"/>
     <use x="1204.371094" xlink:href="#DejaVuSans-4d"/>
     <use x="1290.650391" xlink:href="#DejaVuSans-43"/>
     <use x="1360.474609" xlink:href="#DejaVuSans-20"/>
     <use x="1392.261719" xlink:href="#DejaVuSans-55"/>
     <use x="1465.455078" xlink:href="#DejaVuSans-6e"/>
     <use x="1528.833984" xlink:href="#DejaVuSans-63"/>
     <use x="1583.814453" xlink:href="#DejaVuSans-65"/>
     <use x="1645.337891" xlink:href="#DejaVuSans-72"/>
     <use x="1686.451172" xlink:href="#DejaVuSans-74"/>
     <use x="1725.660156" xlink:href="#DejaVuSans-61"/>
     <use x="1786.939453" xlink:href="#DejaVuSans-69"/>
     <use x="1814.722656" xlink:href="#DejaVuSans-6e"/>
     <use x="1878.101562" xlink:href="#DejaVuSans-74"/>
     <use x="1917.310547" xlink:href="#DejaVuSans-79"/>
     <use x="1976.490234" xlink:href="#DejaVuSans-20"/>
    </g>
   </g>
   <g id="legend_1">
    <g id="patch_7">
     <path d="M 277.843437 108.1845 
L 407.72 108.1845 
Q 409.72 108.1845 409.72 106.1845 
L 409.72 48.472 
Q 409.72 46.472 407.72 46.472 
L 277.843437 46.472 
Q 275.843437 46.472 275.843437 48.472 
L 275.843437 106.1845 
Q 275.843437 108.1845 277.843437 108.1845 
z
" style="fill:#ffffff;opacity:0.8;stroke:#cccccc;stroke-linejoin:miter;"/>
    </g>
    <g id="line2d_17">
     <path d="M 279.843437 54.570438 
L 299.843437 54.570438 
" style="fill:none;stroke:#1f77b4;stroke-linecap:square;stroke-width:1.5;"/>
    </g>
    <g id="line2d_18"/>
    <g id="text_14">
     <!-- actual -->
     <defs>
      <path d="M 8.5 21.578125 
L 8.5 54.6875 
L 17.484375 54.6875 
L 17.484375 21.921875 
Q 17.484375 14.15625 20.5 10.265625 
Q 23.53125 6.390625 29.59375 6.390625 
Q 36.859375 6.390625 41.078125 11.03125 
Q 45.3125 15.671875 45.3125 23.6875 
L 45.3125 54.6875 
L 54.296875 54.6875 
L 54.296875 0 
L 45.3125 0 
L 45.3125 8.40625 
Q 42.046875 3.421875 37.71875 1 
Q 33.40625 -1.421875 27.6875 -1.421875 
Q 18.265625 -1.421875 13.375 4.4375 
Q 8.5 10.296875 8.5 21.578125 
M 31.109375 56 
z
" id="DejaVuSans-75"/>
     </defs>
     <g transform="translate(307.843437 58.070438)scale(0.1 -0.1)">
      <use xlink:href="#DejaVuSans-61"/>
      <use x="61.279297" xlink:href="#DejaVuSans-63"/>
      <use x="116.259766" xlink:href="#DejaVuSans-74"/>
      <use x="155.46875" xlink:href="#DejaVuSans-75"/>
      <use x="218.847656" xlink:href="#DejaVuSans-61"/>
      <use x="280.126953" xlink:href="#DejaVuSans-6c"/>
     </g>
    </g>
    <g id="line2d_19">
     <path d="M 279.843437 69.248563 
L 299.843437 69.248563 
" style="fill:none;stroke:#ff7f0e;stroke-linecap:square;stroke-width:1.5;"/>
    </g>
    <g id="line2d_20"/>
    <g id="text_15">
     <!-- pred. (mean) -->
     <defs>
      <path d="M 18.109375 8.203125 
L 18.109375 -20.796875 
L 9.078125 -20.796875 
L 9.078125 54.6875 
L 18.109375 54.6875 
L 18.109375 46.390625 
Q 20.953125 51.265625 25.265625 53.625 
Q 29.59375 56 35.59375 56 
Q 45.5625 56 51.78125 48.09375 
Q 58.015625 40.1875 58.015625 27.296875 
Q 58.015625 14.40625 51.78125 6.484375 
Q 45.5625 -1.421875 35.59375 -1.421875 
Q 29.59375 -1.421875 25.265625 0.953125 
Q 20.953125 3.328125 18.109375 8.203125 
M 48.6875 27.296875 
Q 48.6875 37.203125 44.609375 42.84375 
Q 40.53125 48.484375 33.40625 48.484375 
Q 26.265625 48.484375 22.1875 42.84375 
Q 18.109375 37.203125 18.109375 27.296875 
Q 18.109375 17.390625 22.1875 11.75 
Q 26.265625 6.109375 33.40625 6.109375 
Q 40.53125 6.109375 44.609375 11.75 
Q 48.6875 17.390625 48.6875 27.296875 
" id="DejaVuSans-70"/>
      <path d="M 45.40625 46.390625 
L 45.40625 75.984375 
L 54.390625 75.984375 
L 54.390625 0 
L 45.40625 0 
L 45.40625 8.203125 
Q 42.578125 3.328125 38.25 0.953125 
Q 33.9375 -1.421875 27.875 -1.421875 
Q 17.96875 -1.421875 11.734375 6.484375 
Q 5.515625 14.40625 5.515625 27.296875 
Q 5.515625 40.1875 11.734375 48.09375 
Q 17.96875 56 27.875 56 
Q 33.9375 56 38.25 53.625 
Q 42.578125 51.265625 45.40625 46.390625 
M 14.796875 27.296875 
Q 14.796875 17.390625 18.875 11.75 
Q 22.953125 6.109375 30.078125 6.109375 
Q 37.203125 6.109375 41.296875 11.75 
Q 45.40625 17.390625 45.40625 27.296875 
Q 45.40625 37.203125 41.296875 42.84375 
Q 37.203125 48.484375 30.078125 48.484375 
Q 22.953125 48.484375 18.875 42.84375 
Q 14.796875 37.203125 14.796875 27.296875 
" id="DejaVuSans-64"/>
      <path d="M 31 75.875 
Q 24.46875 64.65625 21.28125 53.65625 
Q 18.109375 42.671875 18.109375 31.390625 
Q 18.109375 20.125 21.3125 9.0625 
Q 24.515625 -2 31 -13.1875 
L 23.1875 -13.1875 
Q 15.875 -1.703125 12.234375 9.375 
Q 8.59375 20.453125 8.59375 31.390625 
Q 8.59375 42.28125 12.203125 53.3125 
Q 15.828125 64.359375 23.1875 75.875 
z
" id="DejaVuSans-28"/>
      <path d="M 52 44.1875 
Q 55.375 50.25 60.0625 53.125 
Q 64.75 56 71.09375 56 
Q 79.640625 56 84.28125 50.015625 
Q 88.921875 44.046875 88.921875 33.015625 
L 88.921875 0 
L 79.890625 0 
L 79.890625 32.71875 
Q 79.890625 40.578125 77.09375 44.375 
Q 74.3125 48.1875 68.609375 48.1875 
Q 61.625 48.1875 57.5625 43.546875 
Q 53.515625 38.921875 53.515625 30.90625 
L 53.515625 0 
L 44.484375 0 
L 44.484375 32.71875 
Q 44.484375 40.625 41.703125 44.40625 
Q 38.921875 48.1875 33.109375 48.1875 
Q 26.21875 48.1875 22.15625 43.53125 
Q 18.109375 38.875 18.109375 30.90625 
L 18.109375 0 
L 9.078125 0 
L 9.078125 54.6875 
L 18.109375 54.6875 
L 18.109375 46.1875 
Q 21.1875 51.21875 25.484375 53.609375 
Q 29.78125 56 35.6875 56 
Q 41.65625 56 45.828125 52.96875 
Q 50 49.953125 52 44.1875 
" id="DejaVuSans-6d"/>
      <path d="M 8.015625 75.875 
L 15.828125 75.875 
Q 23.140625 64.359375 26.78125 53.3125 
Q 30.421875 42.28125 30.421875 31.390625 
Q 30.421875 20.453125 26.78125 9.375 
Q 23.140625 -1.703125 15.828125 -13.1875 
L 8.015625 -13.1875 
Q 14.5 -2 17.703125 9.0625 
Q 20.90625 20.125 20.90625 31.390625 
Q 20.90625 42.671875 17.703125 53.65625 
Q 14.5 64.65625 8.015625 75.875 
" id="DejaVuSans-29"/>
     </defs>
     <g transform="translate(307.843437 72.748563)scale(0.1 -0.1)">
      <use xlink:href="#DejaVuSans-70"/>
      <use x="63.476562" xlink:href="#DejaVuSans-72"/>
      <use x="104.558594" xlink:href="#DejaVuSans-65"/>
      <use x="166.082031" xlink:href="#DejaVuSans-64"/>
      <use x="229.558594" xlink:href="#DejaVuSans-2e"/>
      <use x="261.345703" xlink:href="#DejaVuSans-20"/>
      <use x="293.132812" xlink:href="#DejaVuSans-28"/>
      <use x="332.146484" xlink:href="#DejaVuSans-6d"/>
      <use x="429.558594" xlink:href="#DejaVuSans-65"/>
      <use x="491.082031" xlink:href="#DejaVuSans-61"/>
      <use x="552.361328" xlink:href="#DejaVuSans-6e"/>
      <use x="615.740234" xlink:href="#DejaVuSans-29"/>
     </g>
    </g>
    <g id="line2d_21">
     <path d="M 279.843437 83.926688 
L 299.843437 83.926688 
" style="fill:none;stroke:#2ca02c;stroke-linecap:square;stroke-width:1.5;"/>
    </g>
    <g id="line2d_22"/>
    <g id="text_16">
     <!-- pred.(5th percen.) -->
     <defs>
      <path d="M 10.796875 72.90625 
L 49.515625 72.90625 
L 49.515625 64.59375 
L 19.828125 64.59375 
L 19.828125 46.734375 
Q 21.96875 47.46875 24.109375 47.828125 
Q 26.265625 48.1875 28.421875 48.1875 
Q 40.625 48.1875 47.75 41.5 
Q 54.890625 34.8125 54.890625 23.390625 
Q 54.890625 11.625 47.5625 5.09375 
Q 40.234375 -1.421875 26.90625 -1.421875 
Q 22.3125 -1.421875 17.546875 -0.640625 
Q 12.796875 0.140625 7.71875 1.703125 
L 7.71875 11.625 
Q 12.109375 9.234375 16.796875 8.0625 
Q 21.484375 6.890625 26.703125 6.890625 
Q 35.15625 6.890625 40.078125 11.328125 
Q 45.015625 15.765625 45.015625 23.390625 
Q 45.015625 31 40.078125 35.4375 
Q 35.15625 39.890625 26.703125 39.890625 
Q 22.75 39.890625 18.8125 39.015625 
Q 14.890625 38.140625 10.796875 36.28125 
z
" id="DejaVuSans-35"/>
      <path d="M 54.890625 33.015625 
L 54.890625 0 
L 45.90625 0 
L 45.90625 32.71875 
Q 45.90625 40.484375 42.875 44.328125 
Q 39.84375 48.1875 33.796875 48.1875 
Q 26.515625 48.1875 22.3125 43.546875 
Q 18.109375 38.921875 18.109375 30.90625 
L 18.109375 0 
L 9.078125 0 
L 9.078125 75.984375 
L 18.109375 75.984375 
L 18.109375 46.1875 
Q 21.34375 51.125 25.703125 53.5625 
Q 30.078125 56 35.796875 56 
Q 45.21875 56 50.046875 50.171875 
Q 54.890625 44.34375 54.890625 33.015625 
" id="DejaVuSans-68"/>
     </defs>
     <g transform="translate(307.843437 87.426688)scale(0.1 -0.1)">
      <use xlink:href="#DejaVuSans-70"/>
      <use x="63.476562" xlink:href="#DejaVuSans-72"/>
      <use x="104.558594" xlink:href="#DejaVuSans-65"/>
      <use x="166.082031" xlink:href="#DejaVuSans-64"/>
      <use x="229.558594" xlink:href="#DejaVuSans-2e"/>
      <use x="261.345703" xlink:href="#DejaVuSans-28"/>
      <use x="300.359375" xlink:href="#DejaVuSans-35"/>
      <use x="363.982422" xlink:href="#DejaVuSans-74"/>
      <use x="403.191406" xlink:href="#DejaVuSans-68"/>
      <use x="466.570312" xlink:href="#DejaVuSans-20"/>
      <use x="498.357422" xlink:href="#DejaVuSans-70"/>
      <use x="561.833984" xlink:href="#DejaVuSans-65"/>
      <use x="623.357422" xlink:href="#DejaVuSans-72"/>
      <use x="664.439453" xlink:href="#DejaVuSans-63"/>
      <use x="719.419922" xlink:href="#DejaVuSans-65"/>
      <use x="780.943359" xlink:href="#DejaVuSans-6e"/>
      <use x="844.322266" xlink:href="#DejaVuSans-2e"/>
      <use x="876.109375" xlink:href="#DejaVuSans-29"/>
     </g>
    </g>
    <g id="line2d_23">
     <path d="M 279.843437 98.604813 
L 299.843437 98.604813 
" style="fill:none;stroke:#d62728;stroke-linecap:square;stroke-width:1.5;"/>
    </g>
    <g id="line2d_24"/>
    <g id="text_17">
     <!-- pred.(95th percen.) -->
     <defs>
      <path d="M 10.984375 1.515625 
L 10.984375 10.5 
Q 14.703125 8.734375 18.5 7.8125 
Q 22.3125 6.890625 25.984375 6.890625 
Q 35.75 6.890625 40.890625 13.453125 
Q 46.046875 20.015625 46.78125 33.40625 
Q 43.953125 29.203125 39.59375 26.953125 
Q 35.25 24.703125 29.984375 24.703125 
Q 19.046875 24.703125 12.671875 31.3125 
Q 6.296875 37.9375 6.296875 49.421875 
Q 6.296875 60.640625 12.9375 67.421875 
Q 19.578125 74.21875 30.609375 74.21875 
Q 43.265625 74.21875 49.921875 64.515625 
Q 56.59375 54.828125 56.59375 36.375 
Q 56.59375 19.140625 48.40625 8.859375 
Q 40.234375 -1.421875 26.421875 -1.421875 
Q 22.703125 -1.421875 18.890625 -0.6875 
Q 15.09375 0.046875 10.984375 1.515625 
M 30.609375 32.421875 
Q 37.25 32.421875 41.125 36.953125 
Q 45.015625 41.5 45.015625 49.421875 
Q 45.015625 57.28125 41.125 61.84375 
Q 37.25 66.40625 30.609375 66.40625 
Q 23.96875 66.40625 20.09375 61.84375 
Q 16.21875 57.28125 16.21875 49.421875 
Q 16.21875 41.5 20.09375 36.953125 
Q 23.96875 32.421875 30.609375 32.421875 
" id="DejaVuSans-39"/>
     </defs>
     <g transform="translate(307.843437 102.104813)scale(0.1 -0.1)">
      <use xlink:href="#DejaVuSans-70"/>
      <use x="63.476562" xlink:href="#DejaVuSans-72"/>
      <use x="104.558594" xlink:href="#DejaVuSans-65"/>
      <use x="166.082031" xlink:href="#DejaVuSans-64"/>
      <use x="229.558594" xlink:href="#DejaVuSans-2e"/>
      <use x="261.345703" xlink:href="#DejaVuSans-28"/>
      <use x="300.359375" xlink:href="#DejaVuSans-39"/>
      <use x="363.982422" xlink:href="#DejaVuSans-35"/>
      <use x="427.605469" xlink:href="#DejaVuSans-74"/>
      <use x="466.814453" xlink:href="#DejaVuSans-68"/>
      <use x="530.193359" xlink:href="#DejaVuSans-20"/>
      <use x="561.980469" xlink:href="#DejaVuSans-70"/>
      <use x="625.457031" xlink:href="#DejaVuSans-65"/>
      <use x="686.980469" xlink:href="#DejaVuSans-72"/>
      <use x="728.0625" xlink:href="#DejaVuSans-63"/>
      <use x="783.042969" xlink:href="#DejaVuSans-65"/>
      <use x="844.566406" xlink:href="#DejaVuSans-6e"/>
      <use x="907.945312" xlink:href="#DejaVuSans-2e"/>
      <use x="939.732422" xlink:href="#DejaVuSans-29"/>
     </g>
    </g>
   </g>
  </g>
 </g>
 <defs>
  <clipPath id="pb3794439a0">
   <rect height="266.112" width="357.12" x="57.6" y="41.472"/>
  </clipPath>
 </defs>
</svg>
