<?xml version="1.0" encoding="utf-8" standalone="no"?>
<!DOCTYPE svg PUBLIC "-//W3C//DTD SVG 1.1//EN"
  "http://www.w3.org/Graphics/SVG/1.1/DTD/svg11.dtd">
<!-- Created with matplotlib (http://matplotlib.org/) -->
<svg height="345pt" version="1.1" viewBox="0 0 460 345" width="460pt" xmlns="http://www.w3.org/2000/svg" xmlns:xlink="http://www.w3.org/1999/xlink">
 <defs>
  <style type="text/css">
*{stroke-linecap:butt;stroke-linejoin:round;}
  </style>
 </defs>
 <g id="figure_1">
  <g id="patch_1">
   <path d="M 0 345.6 
L 460.8 345.6 
L 460.8 0 
L 0 0 
z
" style="fill:#ffffff;"/>
  </g>
  <g id="axes_1">
   <g id="patch_2">
    <path d="M 57.6 307.584 
L 414.72 307.584 
L 414.72 41.472 
L 57.6 41.472 
z
" style="fill:#ffffff;"/>
   </g>
   <g id="PolyCollection_1">
    <path clip-path="url(#p02e7d28e10)" d="M 73.832727 95.652671 
L 73.832727 99.028763 
L 75.48072 96.779596 
L 77.128713 110.127722 
L 78.776705 107.837952 
L 80.424698 125.766784 
L 82.07269 142.873352 
L 83.720683 153.76628 
L 85.368676 159.611794 
L 87.016668 145.78812 
L 88.664661 150.008164 
L 90.312653 155.417919 
L 91.960646 164.097609 
L 93.608639 175.774026 
L 95.256631 182.392032 
L 96.904624 208.473233 
L 98.552617 219.492435 
L 100.200609 230.6811 
L 101.848602 237.389814 
L 103.496594 248.493058 
L 105.144587 262.378802 
L 106.79258 265.837015 
L 108.440572 266.824782 
L 110.088565 267.880154 
L 111.736557 265.356424 
L 113.38455 265.904988 
L 115.032543 267.25823 
L 116.680535 272.291467 
L 118.328528 276.967062 
L 119.976521 277.499523 
L 121.624513 280.442123 
L 123.272506 281.342184 
L 124.920498 282.070551 
L 126.568491 282.005988 
L 128.216484 279.038447 
L 129.864476 279.767196 
L 131.512469 280.214768 
L 133.160461 281.306407 
L 134.808454 281.631138 
L 136.456447 282.216468 
L 138.104439 282.846116 
L 139.752432 280.184608 
L 141.400425 278.468573 
L 143.048417 273.433403 
L 144.69641 265.942476 
L 146.344402 249.143559 
L 147.992395 232.965278 
L 149.640388 216.457801 
L 151.28838 199.815726 
L 152.936373 173.402446 
L 154.584365 149.914307 
L 156.232358 136.379691 
L 157.880351 116.530592 
L 159.528343 111.261652 
L 161.176336 96.417894 
L 162.824329 99.002179 
L 164.472321 91.449769 
L 166.120314 86.95082 
L 167.768306 75.966363 
L 169.416299 72.989099 
L 171.064292 67.37685 
L 172.712284 67.45656 
L 174.360277 69.651641 
L 176.008269 60.636857 
L 177.656262 83.728811 
L 179.304255 84.936266 
L 180.952247 97.735183 
L 182.60024 101.958154 
L 184.248233 104.556465 
L 185.896225 126.53574 
L 187.544218 132.721734 
L 189.19221 129.670737 
L 190.840203 132.76855 
L 192.488196 140.923779 
L 194.136188 158.191622 
L 195.784181 166.50495 
L 197.432174 173.581249 
L 199.080166 183.904282 
L 200.728159 190.013011 
L 202.376151 197.069634 
L 204.024144 204.010956 
L 205.672137 215.158845 
L 207.320129 219.634808 
L 208.968122 226.913319 
L 210.616114 233.810889 
L 212.264107 232.308371 
L 213.9121 232.755983 
L 215.560092 232.329516 
L 217.208085 233.84671 
L 218.856078 229.865641 
L 220.50407 231.094936 
L 222.152063 242.024281 
L 223.800055 246.006054 
L 225.448048 247.462022 
L 227.096041 256.398151 
L 228.744033 265.781596 
L 230.392026 268.95665 
L 232.040018 269.990031 
L 233.688011 269.73798 
L 235.336004 271.204087 
L 236.983996 271.372016 
L 238.631989 271.843042 
L 240.279982 274.708273 
L 241.927974 277.753761 
L 243.575967 281.107123 
L 245.223959 283.169898 
L 246.871952 284.734919 
L 248.519945 286.435591 
L 250.167937 286.327628 
L 251.81593 285.900866 
L 253.463922 285.911269 
L 255.111915 286.632506 
L 256.759908 286.197308 
L 258.4079 283.769313 
L 260.055893 282.749317 
L 261.703886 279.993941 
L 263.351878 274.115508 
L 264.999871 267.54894 
L 266.647863 259.016981 
L 268.295856 250.62648 
L 269.943849 235.548754 
L 271.591841 226.958079 
L 273.239834 218.603243 
L 274.887826 206.868062 
L 276.535819 194.351054 
L 278.183812 188.164532 
L 279.831804 186.833564 
L 281.479797 165.142314 
L 283.12779 161.522135 
L 284.775782 158.423873 
L 286.423775 150.930641 
L 288.071767 134.17706 
L 289.71976 129.642747 
L 291.367753 146.525808 
L 293.015745 137.351267 
L 294.663738 125.497122 
L 296.311731 127.892288 
L 297.959723 162.354249 
L 299.607716 160.564606 
L 301.255708 123.588151 
L 302.903701 134.650227 
L 304.551694 153.709639 
L 306.199686 153.543521 
L 307.847679 125.788462 
L 309.495671 141.824508 
L 311.143664 172.304762 
L 312.791657 170.224417 
L 314.439649 163.937413 
L 316.087642 156.791065 
L 317.735635 168.970046 
L 319.383627 170.824723 
L 321.03162 158.204329 
L 322.679612 161.356728 
L 324.327605 169.053273 
L 325.975598 197.996731 
L 327.62359 194.002075 
L 329.271583 185.265973 
L 330.919575 201.579014 
L 332.567568 213.449183 
L 334.215561 218.203949 
L 335.863553 224.61751 
L 337.511546 238.026105 
L 339.159539 256.309697 
L 340.807531 263.617276 
L 342.455524 264.17618 
L 344.103516 268.101877 
L 345.751509 272.779196 
L 347.399502 280.525815 
L 349.047494 281.802756 
L 350.695487 283.537967 
L 352.343479 285.663467 
L 353.991472 285.952547 
L 355.639465 286.113905 
L 357.287457 285.782588 
L 358.93545 285.245972 
L 360.583443 285.110628 
L 362.231435 285.912938 
L 363.879428 286.804567 
L 365.52742 287.466177 
L 367.175413 288.136852 
L 368.823406 288.482027 
L 370.471398 288.397984 
L 372.119391 286.139274 
L 373.767383 283.910355 
L 375.415376 281.657139 
L 377.063369 278.535907 
L 378.711361 272.110056 
L 380.359354 259.283556 
L 382.007347 246.584657 
L 383.655339 226.552359 
L 385.303332 195.110697 
L 386.951324 175.798346 
L 388.599317 167.210525 
L 390.24731 159.752326 
L 391.895302 143.351147 
L 393.543295 144.705845 
L 395.191287 157.579842 
L 396.83928 155.162868 
L 398.487273 140.129742 
L 398.487273 134.54004 
L 398.487273 134.54004 
L 396.83928 147.53072 
L 395.191287 154.743684 
L 393.543295 135.590919 
L 391.895302 135.523834 
L 390.24731 153.321705 
L 388.599317 160.868464 
L 386.951324 165.632217 
L 385.303332 181.507948 
L 383.655339 209.868721 
L 382.007347 241.45254 
L 380.359354 254.404674 
L 378.711361 266.280534 
L 377.063369 270.435276 
L 375.415376 272.562365 
L 373.767383 274.127628 
L 372.119391 275.978938 
L 370.471398 277.513864 
L 368.823406 277.566894 
L 367.175413 277.279278 
L 365.52742 276.647703 
L 363.879428 276.180787 
L 362.231435 275.39521 
L 360.583443 274.800386 
L 358.93545 275.101388 
L 357.287457 275.373366 
L 355.639465 275.679731 
L 353.991472 275.677881 
L 352.343479 275.117675 
L 350.695487 273.520755 
L 349.047494 272.607923 
L 347.399502 270.907652 
L 345.751509 265.287018 
L 344.103516 261.916594 
L 342.455524 259.473464 
L 340.807531 257.958165 
L 339.159539 249.776607 
L 337.511546 232.770188 
L 335.863553 221.504209 
L 334.215561 215.037102 
L 332.567568 210.134551 
L 330.919575 196.336754 
L 329.271583 179.694944 
L 327.62359 180.330828 
L 325.975598 188.092306 
L 324.327605 166.251071 
L 322.679612 154.124877 
L 321.03162 149.597914 
L 319.383627 163.336296 
L 317.735635 162.008974 
L 316.087642 149.292798 
L 314.439649 159.981853 
L 312.791657 160.996283 
L 311.143664 165.362377 
L 309.495671 129.474295 
L 307.847679 120.660835 
L 306.199686 141.347747 
L 304.551694 145.840573 
L 302.903701 126.956036 
L 301.255708 118.610944 
L 299.607716 144.089308 
L 297.959723 147.603 
L 296.311731 121.574143 
L 294.663738 121.55733 
L 293.015745 130.703471 
L 291.367753 142.43292 
L 289.71976 118.087933 
L 288.071767 123.560334 
L 286.423775 146.630679 
L 284.775782 152.311271 
L 283.12779 155.665213 
L 281.479797 153.362781 
L 279.831804 178.453946 
L 278.183812 181.780602 
L 276.535819 185.134371 
L 274.887826 197.312234 
L 273.239834 209.848227 
L 271.591841 220.846914 
L 269.943849 226.147531 
L 268.295856 245.362171 
L 266.647863 255.921471 
L 264.999871 262.92408 
L 263.351878 267.719778 
L 261.703886 271.467322 
L 260.055893 273.041324 
L 258.4079 274.14941 
L 256.759908 275.876848 
L 255.111915 276.088555 
L 253.463922 275.344052 
L 251.81593 275.520052 
L 250.167937 275.955319 
L 248.519945 275.819115 
L 246.871952 274.503779 
L 245.223959 273.30673 
L 243.575967 271.584504 
L 241.927974 269.32882 
L 240.279982 266.868816 
L 238.631989 265.157212 
L 236.983996 265.083454 
L 235.336004 264.364419 
L 233.688011 263.979183 
L 232.040018 263.878595 
L 230.392026 263.003526 
L 228.744033 259.407046 
L 227.096041 250.927785 
L 225.448048 244.310208 
L 223.800055 243.123761 
L 222.152063 238.631619 
L 220.50407 227.394017 
L 218.856078 221.690133 
L 217.208085 230.616995 
L 215.560092 228.880621 
L 213.9121 229.960888 
L 212.264107 227.044784 
L 210.616114 230.560453 
L 208.968122 223.441488 
L 207.320129 215.726527 
L 205.672137 210.648165 
L 204.024144 199.834269 
L 202.376151 191.96494 
L 200.728159 185.28747 
L 199.080166 179.91766 
L 197.432174 170.459184 
L 195.784181 161.216032 
L 194.136188 151.160603 
L 192.488196 138.001446 
L 190.840203 129.316752 
L 189.19221 126.791054 
L 187.544218 123.685765 
L 185.896225 117.371069 
L 184.248233 95.59706 
L 182.60024 95.436468 
L 180.952247 89.961734 
L 179.304255 79.331949 
L 177.656262 67.886894 
L 176.008269 53.568 
L 174.360277 63.143253 
L 172.712284 57.225491 
L 171.064292 59.909151 
L 169.416299 64.149947 
L 167.768306 70.61264 
L 166.120314 81.253785 
L 164.472321 86.643835 
L 162.824329 92.418919 
L 161.176336 92.843177 
L 159.528343 107.455786 
L 157.880351 112.505827 
L 156.232358 130.892615 
L 154.584365 141.306502 
L 152.936373 160.915226 
L 151.28838 187.482906 
L 149.640388 204.921947 
L 147.992395 224.522083 
L 146.344402 240.366286 
L 144.69641 261.922009 
L 143.048417 267.078173 
L 141.400425 270.132693 
L 139.752432 271.690178 
L 138.104439 273.230706 
L 136.456447 272.623891 
L 134.808454 272.372175 
L 133.160461 271.824256 
L 131.512469 271.475445 
L 129.864476 270.620271 
L 128.216484 270.791135 
L 126.568491 272.720304 
L 124.920498 272.465739 
L 123.272506 272.289121 
L 121.624513 270.934683 
L 119.976521 269.500815 
L 118.328528 268.779381 
L 116.680535 264.870093 
L 115.032543 261.533436 
L 113.38455 260.698966 
L 111.736557 260.773702 
L 110.088565 262.444265 
L 108.440572 261.411261 
L 106.79258 260.373298 
L 105.144587 256.076576 
L 103.496594 243.452009 
L 101.848602 234.261271 
L 100.200609 226.580915 
L 98.552617 215.909616 
L 96.904624 201.893113 
L 95.256631 177.548472 
L 93.608639 173.073162 
L 91.960646 160.463739 
L 90.312653 152.455313 
L 88.664661 143.001197 
L 87.016668 137.894429 
L 85.368676 154.514204 
L 83.720683 150.371737 
L 82.07269 138.591839 
L 80.424698 111.284385 
L 78.776705 100.103072 
L 77.128713 96.379253 
L 75.48072 88.476289 
L 73.832727 95.652671 
z
" style="fill:#008000;fill-opacity:0.4;"/>
   </g>
   <g id="matplotlib.axis_1">
    <g id="xtick_1">
     <g id="line2d_1">
      <defs>
       <path d="M 0 0 
L 0 3.5 
" id="m493768e1fa" style="stroke:#000000;stroke-width:0.8;"/>
      </defs>
      <g>
       <use style="stroke:#000000;stroke-width:0.8;" x="73.832727" xlink:href="#m493768e1fa" y="307.584"/>
      </g>
     </g>
     <g id="text_1">
      <!-- 0.0 -->
      <defs>
       <path d="M 31.78125 66.40625 
Q 24.171875 66.40625 20.328125 58.90625 
Q 16.5 51.421875 16.5 36.375 
Q 16.5 21.390625 20.328125 13.890625 
Q 24.171875 6.390625 31.78125 6.390625 
Q 39.453125 6.390625 43.28125 13.890625 
Q 47.125 21.390625 47.125 36.375 
Q 47.125 51.421875 43.28125 58.90625 
Q 39.453125 66.40625 31.78125 66.40625 
M 31.78125 74.21875 
Q 44.046875 74.21875 50.515625 64.515625 
Q 56.984375 54.828125 56.984375 36.375 
Q 56.984375 17.96875 50.515625 8.265625 
Q 44.046875 -1.421875 31.78125 -1.421875 
Q 19.53125 -1.421875 13.0625 8.265625 
Q 6.59375 17.96875 6.59375 36.375 
Q 6.59375 54.828125 13.0625 64.515625 
Q 19.53125 74.21875 31.78125 74.21875 
" id="DejaVuSans-30"/>
       <path d="M 10.6875 12.40625 
L 21 12.40625 
L 21 0 
L 10.6875 0 
z
" id="DejaVuSans-2e"/>
      </defs>
      <g transform="translate(65.881165 322.182437)scale(0.1 -0.1)">
       <use xlink:href="#DejaVuSans-30"/>
       <use x="63.623047" xlink:href="#DejaVuSans-2e"/>
       <use x="95.410156" xlink:href="#DejaVuSans-30"/>
      </g>
     </g>
    </g>
    <g id="xtick_2">
     <g id="line2d_2">
      <g>
       <use style="stroke:#000000;stroke-width:0.8;" x="138.763636" xlink:href="#m493768e1fa" y="307.584"/>
      </g>
     </g>
     <g id="text_2">
      <!-- 0.2 -->
      <defs>
       <path d="M 19.1875 8.296875 
L 53.609375 8.296875 
L 53.609375 0 
L 7.328125 0 
L 7.328125 8.296875 
Q 12.9375 14.109375 22.625 23.890625 
Q 32.328125 33.6875 34.8125 36.53125 
Q 39.546875 41.84375 41.421875 45.53125 
Q 43.3125 49.21875 43.3125 52.78125 
Q 43.3125 58.59375 39.234375 62.25 
Q 35.15625 65.921875 28.609375 65.921875 
Q 23.96875 65.921875 18.8125 64.3125 
Q 13.671875 62.703125 7.8125 59.421875 
L 7.8125 69.390625 
Q 13.765625 71.78125 18.9375 73 
Q 24.125 74.21875 28.421875 74.21875 
Q 39.75 74.21875 46.484375 68.546875 
Q 53.21875 62.890625 53.21875 53.421875 
Q 53.21875 48.921875 51.53125 44.890625 
Q 49.859375 40.875 45.40625 35.40625 
Q 44.1875 33.984375 37.640625 27.21875 
Q 31.109375 20.453125 19.1875 8.296875 
" id="DejaVuSans-32"/>
      </defs>
      <g transform="translate(130.812074 322.182437)scale(0.1 -0.1)">
       <use xlink:href="#DejaVuSans-30"/>
       <use x="63.623047" xlink:href="#DejaVuSans-2e"/>
       <use x="95.410156" xlink:href="#DejaVuSans-32"/>
      </g>
     </g>
    </g>
    <g id="xtick_3">
     <g id="line2d_3">
      <g>
       <use style="stroke:#000000;stroke-width:0.8;" x="203.694545" xlink:href="#m493768e1fa" y="307.584"/>
      </g>
     </g>
     <g id="text_3">
      <!-- 0.4 -->
      <defs>
       <path d="M 37.796875 64.3125 
L 12.890625 25.390625 
L 37.796875 25.390625 
z
M 35.203125 72.90625 
L 47.609375 72.90625 
L 47.609375 25.390625 
L 58.015625 25.390625 
L 58.015625 17.1875 
L 47.609375 17.1875 
L 47.609375 0 
L 37.796875 0 
L 37.796875 17.1875 
L 4.890625 17.1875 
L 4.890625 26.703125 
z
" id="DejaVuSans-34"/>
      </defs>
      <g transform="translate(195.742983 322.182437)scale(0.1 -0.1)">
       <use xlink:href="#DejaVuSans-30"/>
       <use x="63.623047" xlink:href="#DejaVuSans-2e"/>
       <use x="95.410156" xlink:href="#DejaVuSans-34"/>
      </g>
     </g>
    </g>
    <g id="xtick_4">
     <g id="line2d_4">
      <g>
       <use style="stroke:#000000;stroke-width:0.8;" x="268.625455" xlink:href="#m493768e1fa" y="307.584"/>
      </g>
     </g>
     <g id="text_4">
      <!-- 0.6 -->
      <defs>
       <path d="M 33.015625 40.375 
Q 26.375 40.375 22.484375 35.828125 
Q 18.609375 31.296875 18.609375 23.390625 
Q 18.609375 15.53125 22.484375 10.953125 
Q 26.375 6.390625 33.015625 6.390625 
Q 39.65625 6.390625 43.53125 10.953125 
Q 47.40625 15.53125 47.40625 23.390625 
Q 47.40625 31.296875 43.53125 35.828125 
Q 39.65625 40.375 33.015625 40.375 
M 52.59375 71.296875 
L 52.59375 62.3125 
Q 48.875 64.0625 45.09375 64.984375 
Q 41.3125 65.921875 37.59375 65.921875 
Q 27.828125 65.921875 22.671875 59.328125 
Q 17.53125 52.734375 16.796875 39.40625 
Q 19.671875 43.65625 24.015625 45.921875 
Q 28.375 48.1875 33.59375 48.1875 
Q 44.578125 48.1875 50.953125 41.515625 
Q 57.328125 34.859375 57.328125 23.390625 
Q 57.328125 12.15625 50.6875 5.359375 
Q 44.046875 -1.421875 33.015625 -1.421875 
Q 20.359375 -1.421875 13.671875 8.265625 
Q 6.984375 17.96875 6.984375 36.375 
Q 6.984375 53.65625 15.1875 63.9375 
Q 23.390625 74.21875 37.203125 74.21875 
Q 40.921875 74.21875 44.703125 73.484375 
Q 48.484375 72.75 52.59375 71.296875 
" id="DejaVuSans-36"/>
      </defs>
      <g transform="translate(260.673892 322.182437)scale(0.1 -0.1)">
       <use xlink:href="#DejaVuSans-30"/>
       <use x="63.623047" xlink:href="#DejaVuSans-2e"/>
       <use x="95.410156" xlink:href="#DejaVuSans-36"/>
      </g>
     </g>
    </g>
    <g id="xtick_5">
     <g id="line2d_5">
      <g>
       <use style="stroke:#000000;stroke-width:0.8;" x="333.556364" xlink:href="#m493768e1fa" y="307.584"/>
      </g>
     </g>
     <g id="text_5">
      <!-- 0.8 -->
      <defs>
       <path d="M 31.78125 34.625 
Q 24.75 34.625 20.71875 30.859375 
Q 16.703125 27.09375 16.703125 20.515625 
Q 16.703125 13.921875 20.71875 10.15625 
Q 24.75 6.390625 31.78125 6.390625 
Q 38.8125 6.390625 42.859375 10.171875 
Q 46.921875 13.96875 46.921875 20.515625 
Q 46.921875 27.09375 42.890625 30.859375 
Q 38.875 34.625 31.78125 34.625 
M 21.921875 38.8125 
Q 15.578125 40.375 12.03125 44.71875 
Q 8.5 49.078125 8.5 55.328125 
Q 8.5 64.0625 14.71875 69.140625 
Q 20.953125 74.21875 31.78125 74.21875 
Q 42.671875 74.21875 48.875 69.140625 
Q 55.078125 64.0625 55.078125 55.328125 
Q 55.078125 49.078125 51.53125 44.71875 
Q 48 40.375 41.703125 38.8125 
Q 48.828125 37.15625 52.796875 32.3125 
Q 56.78125 27.484375 56.78125 20.515625 
Q 56.78125 9.90625 50.3125 4.234375 
Q 43.84375 -1.421875 31.78125 -1.421875 
Q 19.734375 -1.421875 13.25 4.234375 
Q 6.78125 9.90625 6.78125 20.515625 
Q 6.78125 27.484375 10.78125 32.3125 
Q 14.796875 37.15625 21.921875 38.8125 
M 18.3125 54.390625 
Q 18.3125 48.734375 21.84375 45.5625 
Q 25.390625 42.390625 31.78125 42.390625 
Q 38.140625 42.390625 41.71875 45.5625 
Q 45.3125 48.734375 45.3125 54.390625 
Q 45.3125 60.0625 41.71875 63.234375 
Q 38.140625 66.40625 31.78125 66.40625 
Q 25.390625 66.40625 21.84375 63.234375 
Q 18.3125 60.0625 18.3125 54.390625 
" id="DejaVuSans-38"/>
      </defs>
      <g transform="translate(325.604801 322.182437)scale(0.1 -0.1)">
       <use xlink:href="#DejaVuSans-30"/>
       <use x="63.623047" xlink:href="#DejaVuSans-2e"/>
       <use x="95.410156" xlink:href="#DejaVuSans-38"/>
      </g>
     </g>
    </g>
    <g id="xtick_6">
     <g id="line2d_6">
      <g>
       <use style="stroke:#000000;stroke-width:0.8;" x="398.487273" xlink:href="#m493768e1fa" y="307.584"/>
      </g>
     </g>
     <g id="text_6">
      <!-- 1.0 -->
      <defs>
       <path d="M 12.40625 8.296875 
L 28.515625 8.296875 
L 28.515625 63.921875 
L 10.984375 60.40625 
L 10.984375 69.390625 
L 28.421875 72.90625 
L 38.28125 72.90625 
L 38.28125 8.296875 
L 54.390625 8.296875 
L 54.390625 0 
L 12.40625 0 
z
" id="DejaVuSans-31"/>
      </defs>
      <g transform="translate(390.53571 322.182437)scale(0.1 -0.1)">
       <use xlink:href="#DejaVuSans-31"/>
       <use x="63.623047" xlink:href="#DejaVuSans-2e"/>
       <use x="95.410156" xlink:href="#DejaVuSans-30"/>
      </g>
     </g>
    </g>
   </g>
   <g id="matplotlib.axis_2">
    <g id="ytick_1">
     <g id="line2d_7">
      <defs>
       <path d="M 0 0 
L -3.5 0 
" id="m3e9a4618b7" style="stroke:#000000;stroke-width:0.8;"/>
      </defs>
      <g>
       <use style="stroke:#000000;stroke-width:0.8;" x="57.6" xlink:href="#m3e9a4618b7" y="299.559948"/>
      </g>
     </g>
     <g id="text_7">
      <!-- 0.0 -->
      <g transform="translate(34.696875 303.359167)scale(0.1 -0.1)">
       <use xlink:href="#DejaVuSans-30"/>
       <use x="63.623047" xlink:href="#DejaVuSans-2e"/>
       <use x="95.410156" xlink:href="#DejaVuSans-30"/>
      </g>
     </g>
    </g>
    <g id="ytick_2">
     <g id="line2d_8">
      <g>
       <use style="stroke:#000000;stroke-width:0.8;" x="57.6" xlink:href="#m3e9a4618b7" y="259.410585"/>
      </g>
     </g>
     <g id="text_8">
      <!-- 0.1 -->
      <g transform="translate(34.696875 263.209804)scale(0.1 -0.1)">
       <use xlink:href="#DejaVuSans-30"/>
       <use x="63.623047" xlink:href="#DejaVuSans-2e"/>
       <use x="95.410156" xlink:href="#DejaVuSans-31"/>
      </g>
     </g>
    </g>
    <g id="ytick_3">
     <g id="line2d_9">
      <g>
       <use style="stroke:#000000;stroke-width:0.8;" x="57.6" xlink:href="#m3e9a4618b7" y="219.261222"/>
      </g>
     </g>
     <g id="text_9">
      <!-- 0.2 -->
      <g transform="translate(34.696875 223.060441)scale(0.1 -0.1)">
       <use xlink:href="#DejaVuSans-30"/>
       <use x="63.623047" xlink:href="#DejaVuSans-2e"/>
       <use x="95.410156" xlink:href="#DejaVuSans-32"/>
      </g>
     </g>
    </g>
    <g id="ytick_4">
     <g id="line2d_10">
      <g>
       <use style="stroke:#000000;stroke-width:0.8;" x="57.6" xlink:href="#m3e9a4618b7" y="179.111859"/>
      </g>
     </g>
     <g id="text_10">
      <!-- 0.3 -->
      <defs>
       <path d="M 40.578125 39.3125 
Q 47.65625 37.796875 51.625 33 
Q 55.609375 28.21875 55.609375 21.1875 
Q 55.609375 10.40625 48.1875 4.484375 
Q 40.765625 -1.421875 27.09375 -1.421875 
Q 22.515625 -1.421875 17.65625 -0.515625 
Q 12.796875 0.390625 7.625 2.203125 
L 7.625 11.71875 
Q 11.71875 9.328125 16.59375 8.109375 
Q 21.484375 6.890625 26.8125 6.890625 
Q 36.078125 6.890625 40.9375 10.546875 
Q 45.796875 14.203125 45.796875 21.1875 
Q 45.796875 27.640625 41.28125 31.265625 
Q 36.765625 34.90625 28.71875 34.90625 
L 20.21875 34.90625 
L 20.21875 43.015625 
L 29.109375 43.015625 
Q 36.375 43.015625 40.234375 45.921875 
Q 44.09375 48.828125 44.09375 54.296875 
Q 44.09375 59.90625 40.109375 62.90625 
Q 36.140625 65.921875 28.71875 65.921875 
Q 24.65625 65.921875 20.015625 65.03125 
Q 15.375 64.15625 9.8125 62.3125 
L 9.8125 71.09375 
Q 15.4375 72.65625 20.34375 73.4375 
Q 25.25 74.21875 29.59375 74.21875 
Q 40.828125 74.21875 47.359375 69.109375 
Q 53.90625 64.015625 53.90625 55.328125 
Q 53.90625 49.265625 50.4375 45.09375 
Q 46.96875 40.921875 40.578125 39.3125 
" id="DejaVuSans-33"/>
      </defs>
      <g transform="translate(34.696875 182.911077)scale(0.1 -0.1)">
       <use xlink:href="#DejaVuSans-30"/>
       <use x="63.623047" xlink:href="#DejaVuSans-2e"/>
       <use x="95.410156" xlink:href="#DejaVuSans-33"/>
      </g>
     </g>
    </g>
    <g id="ytick_5">
     <g id="line2d_11">
      <g>
       <use style="stroke:#000000;stroke-width:0.8;" x="57.6" xlink:href="#m3e9a4618b7" y="138.962495"/>
      </g>
     </g>
     <g id="text_11">
      <!-- 0.4 -->
      <g transform="translate(34.696875 142.761714)scale(0.1 -0.1)">
       <use xlink:href="#DejaVuSans-30"/>
       <use x="63.623047" xlink:href="#DejaVuSans-2e"/>
       <use x="95.410156" xlink:href="#DejaVuSans-34"/>
      </g>
     </g>
    </g>
    <g id="ytick_6">
     <g id="line2d_12">
      <g>
       <use style="stroke:#000000;stroke-width:0.8;" x="57.6" xlink:href="#m3e9a4618b7" y="98.813132"/>
      </g>
     </g>
     <g id="text_12">
      <!-- 0.5 -->
      <defs>
       <path d="M 10.796875 72.90625 
L 49.515625 72.90625 
L 49.515625 64.59375 
L 19.828125 64.59375 
L 19.828125 46.734375 
Q 21.96875 47.46875 24.109375 47.828125 
Q 26.265625 48.1875 28.421875 48.1875 
Q 40.625 48.1875 47.75 41.5 
Q 54.890625 34.8125 54.890625 23.390625 
Q 54.890625 11.625 47.5625 5.09375 
Q 40.234375 -1.421875 26.90625 -1.421875 
Q 22.3125 -1.421875 17.546875 -0.640625 
Q 12.796875 0.140625 7.71875 1.703125 
L 7.71875 11.625 
Q 12.109375 9.234375 16.796875 8.0625 
Q 21.484375 6.890625 26.703125 6.890625 
Q 35.15625 6.890625 40.078125 11.328125 
Q 45.015625 15.765625 45.015625 23.390625 
Q 45.015625 31 40.078125 35.4375 
Q 35.15625 39.890625 26.703125 39.890625 
Q 22.75 39.890625 18.8125 39.015625 
Q 14.890625 38.140625 10.796875 36.28125 
z
" id="DejaVuSans-35"/>
      </defs>
      <g transform="translate(34.696875 102.612351)scale(0.1 -0.1)">
       <use xlink:href="#DejaVuSans-30"/>
       <use x="63.623047" xlink:href="#DejaVuSans-2e"/>
       <use x="95.410156" xlink:href="#DejaVuSans-35"/>
      </g>
     </g>
    </g>
    <g id="ytick_7">
     <g id="line2d_13">
      <g>
       <use style="stroke:#000000;stroke-width:0.8;" x="57.6" xlink:href="#m3e9a4618b7" y="58.663769"/>
      </g>
     </g>
     <g id="text_13">
      <!-- 0.6 -->
      <g transform="translate(34.696875 62.462987)scale(0.1 -0.1)">
       <use xlink:href="#DejaVuSans-30"/>
       <use x="63.623047" xlink:href="#DejaVuSans-2e"/>
       <use x="95.410156" xlink:href="#DejaVuSans-36"/>
      </g>
     </g>
    </g>
   </g>
   <g id="line2d_14">
    <path clip-path="url(#p02e7d28e10)" d="M 73.832727 101.391926 
L 75.48072 97.048567 
L 77.128713 104.921055 
L 78.776705 105.735284 
L 80.424698 123.923347 
L 82.07269 139.939731 
L 83.720683 152.426986 
L 85.368676 149.712487 
L 87.016668 143.74027 
L 88.664661 150.526716 
L 90.312653 155.684705 
L 91.960646 166.5431 
L 93.608639 171.429278 
L 95.256631 188.531702 
L 96.904624 206.991175 
L 100.200609 229.522596 
L 101.848602 236.309043 
L 103.496594 253.954287 
L 105.144587 261.826613 
L 106.79258 264.269782 
L 108.440572 267.255851 
L 110.088565 265.084172 
L 111.736557 264.269782 
L 113.38455 264.269782 
L 115.032543 268.613181 
L 116.680535 276.214138 
L 118.328528 278.385857 
L 119.976521 279.743146 
L 121.624513 283.815095 
L 123.272506 283.815095 
L 124.920498 285.172424 
L 126.568491 281.914865 
L 128.216484 280.286086 
L 129.864476 282.729255 
L 131.512469 282.457805 
L 133.160461 284.086544 
L 134.808454 284.358034 
L 136.456447 285.986814 
L 138.104439 283.815095 
L 139.752432 280.557536 
L 141.400425 276.214138 
L 143.048417 270.24196 
L 144.69641 254.768516 
L 146.344402 236.037633 
L 147.992395 220.292659 
L 149.640388 205.633725 
L 152.936373 163.828602 
L 154.584365 146.183358 
L 156.232358 131.253015 
L 157.880351 119.579989 
L 159.528343 106.821324 
L 161.176336 100.577696 
L 162.824329 95.148298 
L 164.472321 90.262121 
L 167.768306 75.331777 
L 171.064292 65.287611 
L 172.712284 68.002109 
L 174.360277 63.930161 
L 176.008269 65.55902 
L 177.656262 75.331777 
L 179.304255 84.018493 
L 180.952247 94.334069 
L 182.60024 94.876888 
L 184.248233 106.007095 
L 185.896225 122.566298 
L 187.544218 125.280797 
L 189.19221 127.181066 
L 190.840203 134.782144 
L 192.488196 141.56859 
L 194.136188 157.041754 
L 197.432174 173.058138 
L 199.080166 182.830894 
L 200.728159 186.631433 
L 202.376151 196.404189 
L 204.024144 203.733456 
L 205.672137 212.691983 
L 207.320129 217.84957 
L 208.968122 227.350917 
L 210.616114 229.794006 
L 213.9121 228.165146 
L 215.560092 230.065416 
L 217.208085 229.794006 
L 218.856078 224.636017 
L 222.152063 240.109582 
L 223.800055 244.45294 
L 225.448048 246.896029 
L 227.096041 258.569054 
L 228.744033 266.441461 
L 230.392026 268.613181 
L 232.040018 269.97051 
L 233.688011 268.88463 
L 235.336004 271.05635 
L 236.983996 270.7849 
L 238.631989 272.685129 
L 240.279982 277.299977 
L 243.575967 284.900934 
L 245.223959 287.615593 
L 246.871952 290.873152 
L 248.519945 291.958991 
L 250.167937 291.144602 
L 251.81593 289.787272 
L 253.463922 291.958991 
L 255.111915 292.230441 
L 256.759908 288.972883 
L 258.4079 285.986814 
L 260.055893 283.272155 
L 261.703886 278.114367 
L 263.351878 270.7849 
L 264.999871 260.197834 
L 266.647863 253.682877 
L 268.295856 238.480722 
L 269.943849 227.350917 
L 271.591841 219.20702 
L 273.239834 208.620035 
L 274.887826 197.218418 
L 276.535819 187.988883 
L 278.183812 186.631433 
L 279.831804 173.601358 
L 281.479797 162.742562 
L 283.12779 160.299473 
L 284.775782 154.327255 
L 286.423775 145.911949 
L 288.071767 127.452476 
L 289.71976 135.596373 
L 291.367753 138.039461 
L 293.015745 132.610063 
L 294.663738 125.280797 
L 296.311731 133.153284 
L 297.959723 154.327255 
L 299.607716 137.768052 
L 301.255708 130.166974 
L 302.903701 136.410602 
L 304.551694 150.255307 
L 306.199686 137.768052 
L 307.847679 129.081335 
L 309.495671 148.083628 
L 311.143664 163.013971 
L 312.791657 162.199742 
L 314.439649 159.485244 
L 316.087642 158.670613 
L 317.735635 166.81451 
L 319.383627 162.471152 
L 321.03162 155.413295 
L 322.679612 162.199742 
L 324.327605 173.601358 
L 325.975598 189.074522 
L 327.62359 182.016665 
L 329.271583 189.074522 
L 330.919575 203.462046 
L 335.863553 224.364607 
L 337.511546 243.638711 
L 339.159539 256.940195 
L 340.807531 261.555123 
L 342.455524 264.812682 
L 344.103516 269.15612 
L 345.751509 279.200246 
L 347.399502 283.815095 
L 349.047494 285.715324 
L 350.695487 288.701433 
L 352.343479 291.144602 
L 353.991472 291.416052 
L 355.639465 290.330212 
L 357.287457 290.330212 
L 358.93545 288.972883 
L 360.583443 290.058762 
L 362.231435 291.958991 
L 363.879428 292.773381 
L 365.52742 294.67361 
L 367.175413 295.488 
L 368.823406 295.488 
L 370.471398 293.044831 
L 372.119391 288.972883 
L 373.767383 285.986814 
L 375.415376 281.914865 
L 377.063369 275.671198 
L 378.711361 264.541232 
L 382.007347 233.594545 
L 383.655339 205.090906 
L 385.303332 184.731163 
L 386.951324 172.243908 
L 388.599317 164.371421 
L 390.24731 153.241616 
L 391.895302 140.48255 
L 393.543295 148.626447 
L 395.191287 153.784436 
L 396.83928 146.726178 
L 398.487273 136.139192 
L 398.487273 136.139192 
" style="fill:none;stroke:#1f77b4;stroke-linecap:square;stroke-width:1.5;"/>
   </g>
   <g id="line2d_15">
    <path clip-path="url(#p02e7d28e10)" d="M 73.832727 97.613458 
L 75.48072 93.808696 
L 77.128713 105.280929 
L 78.776705 103.606104 
L 80.424698 120.374573 
L 82.07269 140.740277 
L 83.720683 151.711532 
L 85.368676 156.762873 
L 87.016668 140.54751 
L 88.664661 146.663054 
L 90.312653 153.633764 
L 91.960646 162.340346 
L 93.608639 174.216064 
L 95.256631 180.032795 
L 96.904624 205.423318 
L 100.200609 228.644095 
L 101.848602 235.341253 
L 103.496594 246.174459 
L 105.144587 260.063617 
L 106.79258 263.886462 
L 110.088565 265.929887 
L 111.736557 263.500464 
L 113.38455 264.045525 
L 115.032543 265.323061 
L 118.328528 274.532988 
L 119.976521 275.03113 
L 121.624513 277.525224 
L 123.272506 278.595544 
L 124.920498 279.100938 
L 126.568491 279.152131 
L 128.216484 276.40873 
L 131.512469 277.534516 
L 133.160461 278.369323 
L 136.456447 279.26444 
L 138.104439 279.911843 
L 139.752432 277.49917 
L 141.400425 275.822973 
L 143.048417 271.294037 
L 144.69641 263.691385 
L 146.344402 243.449802 
L 147.992395 226.764695 
L 149.640388 207.972567 
L 151.28838 190.629751 
L 152.936373 163.917673 
L 154.584365 143.893222 
L 156.232358 134.066547 
L 157.880351 114.475503 
L 159.528343 109.747924 
L 161.176336 95.08853 
L 162.824329 97.200773 
L 164.472321 90.141385 
L 166.120314 85.557665 
L 167.768306 74.440919 
L 169.416299 70.918788 
L 171.064292 65.819891 
L 172.712284 64.946557 
L 174.360277 67.272912 
L 176.008269 58.983838 
L 177.656262 78.76293 
L 179.304255 82.0006 
L 180.952247 95.618593 
L 182.60024 98.342199 
L 184.248233 101.768745 
L 185.896225 123.416815 
L 187.544218 127.720297 
L 189.19221 128.461536 
L 190.840203 131.247367 
L 192.488196 139.295807 
L 194.136188 154.867208 
L 197.432174 171.995233 
L 199.080166 181.955981 
L 200.728159 186.60312 
L 202.376151 194.60243 
L 204.024144 200.978183 
L 205.672137 212.951187 
L 207.320129 216.953119 
L 208.968122 225.011497 
L 210.616114 231.66734 
L 212.264107 228.869573 
L 213.9121 230.928989 
L 215.560092 229.93055 
L 217.208085 231.696068 
L 218.856078 224.468217 
L 220.50407 228.98867 
L 222.152063 240.292257 
L 223.800055 244.139663 
L 225.448048 245.373386 
L 227.096041 254.185292 
L 228.744033 263.652211 
L 230.392026 266.970478 
L 232.040018 267.994326 
L 233.688011 267.760655 
L 235.336004 269.001295 
L 238.631989 269.701123 
L 240.279982 272.289565 
L 243.575967 278.218072 
L 245.223959 280.169802 
L 248.519945 283.187817 
L 250.167937 283.125978 
L 251.81593 282.681264 
L 253.463922 282.638976 
L 255.111915 283.407613 
L 256.759908 283.000937 
L 258.4079 280.740432 
L 260.055893 279.69571 
L 261.703886 277.289857 
L 263.351878 271.945159 
L 264.999871 265.560099 
L 266.647863 256.992726 
L 268.295856 247.305481 
L 269.943849 228.91926 
L 271.591841 222.349781 
L 273.239834 212.167158 
L 276.535819 187.179989 
L 278.183812 184.105454 
L 279.831804 180.619479 
L 281.479797 156.441146 
L 283.12779 158.945966 
L 284.775782 154.075035 
L 286.423775 148.222453 
L 288.071767 127.563215 
L 289.71976 124.25156 
L 291.367753 144.745903 
L 293.015745 133.348019 
L 294.663738 123.315865 
L 296.311731 125.038619 
L 297.959723 156.122871 
L 299.607716 151.518757 
L 301.255708 120.82712 
L 302.903701 131.164826 
L 304.551694 150.140872 
L 306.199686 146.81946 
L 307.847679 122.61433 
L 309.495671 136.182699 
L 311.143664 169.067727 
L 312.791657 164.6937 
L 314.439649 161.525391 
L 316.087642 151.553035 
L 317.735635 165.695393 
L 319.383627 165.968581 
L 321.03162 152.216023 
L 322.679612 157.929347 
L 324.327605 167.485753 
L 325.975598 193.325819 
L 327.62359 185.406528 
L 329.271583 182.624953 
L 330.919575 199.104747 
L 332.567568 211.302894 
L 334.215561 216.227899 
L 335.863553 222.574707 
L 337.511546 235.418304 
L 339.159539 253.884109 
L 340.807531 261.50511 
L 342.455524 262.24964 
L 344.103516 266.076289 
L 345.751509 270.447783 
L 347.399502 277.705601 
L 349.047494 278.998665 
L 350.695487 280.467221 
L 352.343479 282.433618 
L 353.991472 282.792378 
L 355.639465 282.904723 
L 360.583443 281.895386 
L 365.52742 284.144476 
L 367.175413 284.797709 
L 368.823406 285.106491 
L 370.471398 285.02573 
L 375.415376 278.791668 
L 377.063369 275.953641 
L 378.711361 270.02921 
L 382.007347 243.020968 
L 383.655339 215.335398 
L 385.303332 184.786756 
L 386.951324 168.377617 
L 388.599317 163.36412 
L 390.24731 155.043037 
L 391.895302 137.921683 
L 393.543295 140.349079 
L 395.191287 156.141765 
L 396.83928 150.385982 
L 398.487273 136.353148 
L 398.487273 136.353148 
" style="fill:none;stroke:#ff7f0e;stroke-linecap:square;stroke-width:1.5;"/>
   </g>
   <g id="line2d_16">
    <path clip-path="url(#p02e7d28e10)" d="M 73.832727 99.028763 
L 75.48072 96.779596 
L 77.128713 110.127722 
L 78.776705 107.837952 
L 82.07269 142.873352 
L 83.720683 153.76628 
L 85.368676 159.611794 
L 87.016668 145.78812 
L 88.664661 150.008164 
L 90.312653 155.417919 
L 91.960646 164.097609 
L 93.608639 175.774026 
L 95.256631 182.392032 
L 96.904624 208.473233 
L 100.200609 230.6811 
L 101.848602 237.389814 
L 103.496594 248.493058 
L 105.144587 262.378802 
L 106.79258 265.837015 
L 110.088565 267.880154 
L 111.736557 265.356424 
L 113.38455 265.904988 
L 115.032543 267.25823 
L 116.680535 272.291467 
L 118.328528 276.967062 
L 119.976521 277.499523 
L 121.624513 280.442123 
L 123.272506 281.342184 
L 124.920498 282.070551 
L 126.568491 282.005988 
L 128.216484 279.038447 
L 129.864476 279.767196 
L 131.512469 280.214768 
L 133.160461 281.306407 
L 134.808454 281.631138 
L 138.104439 282.846116 
L 139.752432 280.184608 
L 141.400425 278.468573 
L 143.048417 273.433403 
L 144.69641 265.942476 
L 151.28838 199.815726 
L 152.936373 173.402446 
L 154.584365 149.914307 
L 156.232358 136.379691 
L 157.880351 116.530592 
L 159.528343 111.261652 
L 161.176336 96.417894 
L 162.824329 99.002179 
L 164.472321 91.449769 
L 166.120314 86.95082 
L 167.768306 75.966363 
L 169.416299 72.989099 
L 171.064292 67.37685 
L 172.712284 67.45656 
L 174.360277 69.651641 
L 176.008269 60.636857 
L 177.656262 83.728811 
L 179.304255 84.936266 
L 180.952247 97.735183 
L 182.60024 101.958154 
L 184.248233 104.556465 
L 185.896225 126.53574 
L 187.544218 132.721734 
L 189.19221 129.670737 
L 190.840203 132.76855 
L 192.488196 140.923779 
L 194.136188 158.191622 
L 195.784181 166.50495 
L 197.432174 173.581249 
L 199.080166 183.904282 
L 200.728159 190.013011 
L 204.024144 204.010956 
L 205.672137 215.158845 
L 207.320129 219.634808 
L 210.616114 233.810889 
L 212.264107 232.308371 
L 213.9121 232.755983 
L 215.560092 232.329516 
L 217.208085 233.84671 
L 218.856078 229.865641 
L 220.50407 231.094936 
L 222.152063 242.024281 
L 223.800055 246.006054 
L 225.448048 247.462022 
L 228.744033 265.781596 
L 230.392026 268.95665 
L 232.040018 269.990031 
L 233.688011 269.73798 
L 235.336004 271.204087 
L 236.983996 271.372016 
L 238.631989 271.843042 
L 241.927974 277.753761 
L 243.575967 281.107123 
L 245.223959 283.169898 
L 248.519945 286.435591 
L 250.167937 286.327628 
L 251.81593 285.900866 
L 253.463922 285.911269 
L 255.111915 286.632506 
L 256.759908 286.197308 
L 258.4079 283.769313 
L 260.055893 282.749317 
L 261.703886 279.993941 
L 263.351878 274.115508 
L 264.999871 267.54894 
L 268.295856 250.62648 
L 269.943849 235.548754 
L 273.239834 218.603243 
L 276.535819 194.351054 
L 278.183812 188.164532 
L 279.831804 186.833564 
L 281.479797 165.142314 
L 283.12779 161.522135 
L 284.775782 158.423873 
L 286.423775 150.930641 
L 288.071767 134.17706 
L 289.71976 129.642747 
L 291.367753 146.525808 
L 293.015745 137.351267 
L 294.663738 125.497122 
L 296.311731 127.892288 
L 297.959723 162.354249 
L 299.607716 160.564606 
L 301.255708 123.588151 
L 302.903701 134.650227 
L 304.551694 153.709639 
L 306.199686 153.543521 
L 307.847679 125.788462 
L 309.495671 141.824508 
L 311.143664 172.304762 
L 312.791657 170.224417 
L 314.439649 163.937413 
L 316.087642 156.791065 
L 317.735635 168.970046 
L 319.383627 170.824723 
L 321.03162 158.204329 
L 322.679612 161.356728 
L 324.327605 169.053273 
L 325.975598 197.996731 
L 327.62359 194.002075 
L 329.271583 185.265973 
L 330.919575 201.579014 
L 332.567568 213.449183 
L 334.215561 218.203949 
L 335.863553 224.61751 
L 337.511546 238.026105 
L 339.159539 256.309697 
L 340.807531 263.617276 
L 342.455524 264.17618 
L 344.103516 268.101877 
L 345.751509 272.779196 
L 347.399502 280.525815 
L 349.047494 281.802756 
L 350.695487 283.537967 
L 352.343479 285.663467 
L 353.991472 285.952547 
L 355.639465 286.113905 
L 357.287457 285.782588 
L 358.93545 285.245972 
L 360.583443 285.110628 
L 365.52742 287.466177 
L 367.175413 288.136852 
L 368.823406 288.482027 
L 370.471398 288.397984 
L 375.415376 281.657139 
L 377.063369 278.535907 
L 378.711361 272.110056 
L 382.007347 246.584657 
L 383.655339 226.552359 
L 385.303332 195.110697 
L 386.951324 175.798346 
L 388.599317 167.210525 
L 390.24731 159.752326 
L 391.895302 143.351147 
L 393.543295 144.705845 
L 395.191287 157.579842 
L 396.83928 155.162868 
L 398.487273 140.129742 
L 398.487273 140.129742 
" style="fill:none;stroke:#2ca02c;stroke-linecap:square;stroke-width:1.5;"/>
   </g>
   <g id="line2d_17">
    <path clip-path="url(#p02e7d28e10)" d="M 73.832727 95.652671 
L 75.48072 88.476289 
L 77.128713 96.379253 
L 78.776705 100.103072 
L 80.424698 111.284385 
L 82.07269 138.591839 
L 83.720683 150.371737 
L 85.368676 154.514204 
L 87.016668 137.894429 
L 88.664661 143.001197 
L 90.312653 152.455313 
L 91.960646 160.463739 
L 93.608639 173.073162 
L 95.256631 177.548472 
L 96.904624 201.893113 
L 98.552617 215.909616 
L 100.200609 226.580915 
L 101.848602 234.261271 
L 103.496594 243.452009 
L 105.144587 256.076576 
L 106.79258 260.373298 
L 110.088565 262.444265 
L 111.736557 260.773702 
L 113.38455 260.698966 
L 115.032543 261.533436 
L 116.680535 264.870093 
L 118.328528 268.779381 
L 119.976521 269.500815 
L 123.272506 272.289121 
L 126.568491 272.720304 
L 128.216484 270.791135 
L 129.864476 270.620271 
L 131.512469 271.475445 
L 133.160461 271.824256 
L 134.808454 272.372175 
L 136.456447 272.623891 
L 138.104439 273.230706 
L 141.400425 270.132693 
L 143.048417 267.078173 
L 144.69641 261.922009 
L 146.344402 240.366286 
L 147.992395 224.522083 
L 149.640388 204.921947 
L 151.28838 187.482906 
L 152.936373 160.915226 
L 154.584365 141.306502 
L 156.232358 130.892615 
L 157.880351 112.505827 
L 159.528343 107.455786 
L 161.176336 92.843177 
L 162.824329 92.418919 
L 166.120314 81.253785 
L 167.768306 70.61264 
L 169.416299 64.149947 
L 171.064292 59.909151 
L 172.712284 57.225491 
L 174.360277 63.143253 
L 176.008269 53.568 
L 177.656262 67.886894 
L 179.304255 79.331949 
L 180.952247 89.961734 
L 182.60024 95.436468 
L 184.248233 95.59706 
L 185.896225 117.371069 
L 187.544218 123.685765 
L 189.19221 126.791054 
L 190.840203 129.316752 
L 192.488196 138.001446 
L 194.136188 151.160603 
L 195.784181 161.216032 
L 199.080166 179.91766 
L 200.728159 185.28747 
L 202.376151 191.96494 
L 204.024144 199.834269 
L 205.672137 210.648165 
L 207.320129 215.726527 
L 208.968122 223.441488 
L 210.616114 230.560453 
L 212.264107 227.044784 
L 213.9121 229.960888 
L 215.560092 228.880621 
L 217.208085 230.616995 
L 218.856078 221.690133 
L 220.50407 227.394017 
L 222.152063 238.631619 
L 223.800055 243.123761 
L 225.448048 244.310208 
L 227.096041 250.927785 
L 228.744033 259.407046 
L 230.392026 263.003526 
L 232.040018 263.878595 
L 233.688011 263.979183 
L 235.336004 264.364419 
L 236.983996 265.083454 
L 238.631989 265.157212 
L 240.279982 266.868816 
L 241.927974 269.32882 
L 243.575967 271.584504 
L 245.223959 273.30673 
L 248.519945 275.819115 
L 250.167937 275.955319 
L 251.81593 275.520052 
L 253.463922 275.344052 
L 255.111915 276.088555 
L 256.759908 275.876848 
L 258.4079 274.14941 
L 260.055893 273.041324 
L 261.703886 271.467322 
L 263.351878 267.719778 
L 264.999871 262.92408 
L 266.647863 255.921471 
L 268.295856 245.362171 
L 269.943849 226.147531 
L 271.591841 220.846914 
L 273.239834 209.848227 
L 276.535819 185.134371 
L 279.831804 178.453946 
L 281.479797 153.362781 
L 283.12779 155.665213 
L 284.775782 152.311271 
L 286.423775 146.630679 
L 288.071767 123.560334 
L 289.71976 118.087933 
L 291.367753 142.43292 
L 293.015745 130.703471 
L 294.663738 121.55733 
L 296.311731 121.574143 
L 297.959723 147.603 
L 299.607716 144.089308 
L 301.255708 118.610944 
L 302.903701 126.956036 
L 304.551694 145.840573 
L 306.199686 141.347747 
L 307.847679 120.660835 
L 309.495671 129.474295 
L 311.143664 165.362377 
L 312.791657 160.996283 
L 314.439649 159.981853 
L 316.087642 149.292798 
L 317.735635 162.008974 
L 319.383627 163.336296 
L 321.03162 149.597914 
L 322.679612 154.124877 
L 324.327605 166.251071 
L 325.975598 188.092306 
L 327.62359 180.330828 
L 329.271583 179.694944 
L 330.919575 196.336754 
L 332.567568 210.134551 
L 334.215561 215.037102 
L 335.863553 221.504209 
L 337.511546 232.770188 
L 339.159539 249.776607 
L 340.807531 257.958165 
L 342.455524 259.473464 
L 344.103516 261.916594 
L 345.751509 265.287018 
L 347.399502 270.907652 
L 349.047494 272.607923 
L 350.695487 273.520755 
L 352.343479 275.117675 
L 353.991472 275.677881 
L 355.639465 275.679731 
L 360.583443 274.800386 
L 362.231435 275.39521 
L 363.879428 276.180787 
L 365.52742 276.647703 
L 367.175413 277.279278 
L 368.823406 277.566894 
L 370.471398 277.513864 
L 372.119391 275.978938 
L 373.767383 274.127628 
L 375.415376 272.562365 
L 377.063369 270.435276 
L 378.711361 266.280534 
L 380.359354 254.404674 
L 382.007347 241.45254 
L 383.655339 209.868721 
L 385.303332 181.507948 
L 386.951324 165.632217 
L 388.599317 160.868464 
L 390.24731 153.321705 
L 391.895302 135.523834 
L 393.543295 135.590919 
L 395.191287 154.743684 
L 396.83928 147.53072 
L 398.487273 134.54004 
L 398.487273 134.54004 
" style="fill:none;stroke:#d62728;stroke-linecap:square;stroke-width:1.5;"/>
   </g>
   <g id="patch_3">
    <path d="M 57.6 307.584 
L 57.6 41.472 
" style="fill:none;stroke:#000000;stroke-linecap:square;stroke-linejoin:miter;stroke-width:0.8;"/>
   </g>
   <g id="patch_4">
    <path d="M 414.72 307.584 
L 414.72 41.472 
" style="fill:none;stroke:#000000;stroke-linecap:square;stroke-linejoin:miter;stroke-width:0.8;"/>
   </g>
   <g id="patch_5">
    <path d="M 57.6 307.584 
L 414.72 307.584 
" style="fill:none;stroke:#000000;stroke-linecap:square;stroke-linejoin:miter;stroke-width:0.8;"/>
   </g>
   <g id="patch_6">
    <path d="M 57.6 41.472 
L 414.72 41.472 
" style="fill:none;stroke:#000000;stroke-linecap:square;stroke-linejoin:miter;stroke-width:0.8;"/>
   </g>
   <g id="text_14">
    <!-- Plot of Test Data vs MCMC Uncertainty  -->
    <defs>
     <path d="M 19.671875 64.796875 
L 19.671875 37.40625 
L 32.078125 37.40625 
Q 38.96875 37.40625 42.71875 40.96875 
Q 46.484375 44.53125 46.484375 51.125 
Q 46.484375 57.671875 42.71875 61.234375 
Q 38.96875 64.796875 32.078125 64.796875 
z
M 9.8125 72.90625 
L 32.078125 72.90625 
Q 44.34375 72.90625 50.609375 67.359375 
Q 56.890625 61.8125 56.890625 51.125 
Q 56.890625 40.328125 50.609375 34.8125 
Q 44.34375 29.296875 32.078125 29.296875 
L 19.671875 29.296875 
L 19.671875 0 
L 9.8125 0 
z
" id="DejaVuSans-50"/>
     <path d="M 9.421875 75.984375 
L 18.40625 75.984375 
L 18.40625 0 
L 9.421875 0 
z
" id="DejaVuSans-6c"/>
     <path d="M 30.609375 48.390625 
Q 23.390625 48.390625 19.1875 42.75 
Q 14.984375 37.109375 14.984375 27.296875 
Q 14.984375 17.484375 19.15625 11.84375 
Q 23.34375 6.203125 30.609375 6.203125 
Q 37.796875 6.203125 41.984375 11.859375 
Q 46.1875 17.53125 46.1875 27.296875 
Q 46.1875 37.015625 41.984375 42.703125 
Q 37.796875 48.390625 30.609375 48.390625 
M 30.609375 56 
Q 42.328125 56 49.015625 48.375 
Q 55.71875 40.765625 55.71875 27.296875 
Q 55.71875 13.875 49.015625 6.21875 
Q 42.328125 -1.421875 30.609375 -1.421875 
Q 18.84375 -1.421875 12.171875 6.21875 
Q 5.515625 13.875 5.515625 27.296875 
Q 5.515625 40.765625 12.171875 48.375 
Q 18.84375 56 30.609375 56 
" id="DejaVuSans-6f"/>
     <path d="M 18.3125 70.21875 
L 18.3125 54.6875 
L 36.8125 54.6875 
L 36.8125 47.703125 
L 18.3125 47.703125 
L 18.3125 18.015625 
Q 18.3125 11.328125 20.140625 9.421875 
Q 21.96875 7.515625 27.59375 7.515625 
L 36.8125 7.515625 
L 36.8125 0 
L 27.59375 0 
Q 17.1875 0 13.234375 3.875 
Q 9.28125 7.765625 9.28125 18.015625 
L 9.28125 47.703125 
L 2.6875 47.703125 
L 2.6875 54.6875 
L 9.28125 54.6875 
L 9.28125 70.21875 
z
" id="DejaVuSans-74"/>
     <path id="DejaVuSans-20"/>
     <path d="M 37.109375 75.984375 
L 37.109375 68.5 
L 28.515625 68.5 
Q 23.6875 68.5 21.796875 66.546875 
Q 19.921875 64.59375 19.921875 59.515625 
L 19.921875 54.6875 
L 34.71875 54.6875 
L 34.71875 47.703125 
L 19.921875 47.703125 
L 19.921875 0 
L 10.890625 0 
L 10.890625 47.703125 
L 2.296875 47.703125 
L 2.296875 54.6875 
L 10.890625 54.6875 
L 10.890625 58.5 
Q 10.890625 67.625 15.140625 71.796875 
Q 19.390625 75.984375 28.609375 75.984375 
z
" id="DejaVuSans-66"/>
     <path d="M -0.296875 72.90625 
L 61.375 72.90625 
L 61.375 64.59375 
L 35.5 64.59375 
L 35.5 0 
L 25.59375 0 
L 25.59375 64.59375 
L -0.296875 64.59375 
z
" id="DejaVuSans-54"/>
     <path d="M 56.203125 29.59375 
L 56.203125 25.203125 
L 14.890625 25.203125 
Q 15.484375 15.921875 20.484375 11.0625 
Q 25.484375 6.203125 34.421875 6.203125 
Q 39.59375 6.203125 44.453125 7.46875 
Q 49.3125 8.734375 54.109375 11.28125 
L 54.109375 2.78125 
Q 49.265625 0.734375 44.1875 -0.34375 
Q 39.109375 -1.421875 33.890625 -1.421875 
Q 20.796875 -1.421875 13.15625 6.1875 
Q 5.515625 13.8125 5.515625 26.8125 
Q 5.515625 40.234375 12.765625 48.109375 
Q 20.015625 56 32.328125 56 
Q 43.359375 56 49.78125 48.890625 
Q 56.203125 41.796875 56.203125 29.59375 
M 47.21875 32.234375 
Q 47.125 39.59375 43.09375 43.984375 
Q 39.0625 48.390625 32.421875 48.390625 
Q 24.90625 48.390625 20.390625 44.140625 
Q 15.875 39.890625 15.1875 32.171875 
z
" id="DejaVuSans-65"/>
     <path d="M 44.28125 53.078125 
L 44.28125 44.578125 
Q 40.484375 46.53125 36.375 47.5 
Q 32.28125 48.484375 27.875 48.484375 
Q 21.1875 48.484375 17.84375 46.4375 
Q 14.5 44.390625 14.5 40.28125 
Q 14.5 37.15625 16.890625 35.375 
Q 19.28125 33.59375 26.515625 31.984375 
L 29.59375 31.296875 
Q 39.15625 29.25 43.1875 25.515625 
Q 47.21875 21.78125 47.21875 15.09375 
Q 47.21875 7.46875 41.1875 3.015625 
Q 35.15625 -1.421875 24.609375 -1.421875 
Q 20.21875 -1.421875 15.453125 -0.5625 
Q 10.6875 0.296875 5.421875 2 
L 5.421875 11.28125 
Q 10.40625 8.6875 15.234375 7.390625 
Q 20.0625 6.109375 24.8125 6.109375 
Q 31.15625 6.109375 34.5625 8.28125 
Q 37.984375 10.453125 37.984375 14.40625 
Q 37.984375 18.0625 35.515625 20.015625 
Q 33.0625 21.96875 24.703125 23.78125 
L 21.578125 24.515625 
Q 13.234375 26.265625 9.515625 29.90625 
Q 5.8125 33.546875 5.8125 39.890625 
Q 5.8125 47.609375 11.28125 51.796875 
Q 16.75 56 26.8125 56 
Q 31.78125 56 36.171875 55.265625 
Q 40.578125 54.546875 44.28125 53.078125 
" id="DejaVuSans-73"/>
     <path d="M 19.671875 64.796875 
L 19.671875 8.109375 
L 31.59375 8.109375 
Q 46.6875 8.109375 53.6875 14.9375 
Q 60.6875 21.78125 60.6875 36.53125 
Q 60.6875 51.171875 53.6875 57.984375 
Q 46.6875 64.796875 31.59375 64.796875 
z
M 9.8125 72.90625 
L 30.078125 72.90625 
Q 51.265625 72.90625 61.171875 64.09375 
Q 71.09375 55.28125 71.09375 36.53125 
Q 71.09375 17.671875 61.125 8.828125 
Q 51.171875 0 30.078125 0 
L 9.8125 0 
z
" id="DejaVuSans-44"/>
     <path d="M 34.28125 27.484375 
Q 23.390625 27.484375 19.1875 25 
Q 14.984375 22.515625 14.984375 16.5 
Q 14.984375 11.71875 18.140625 8.90625 
Q 21.296875 6.109375 26.703125 6.109375 
Q 34.1875 6.109375 38.703125 11.40625 
Q 43.21875 16.703125 43.21875 25.484375 
L 43.21875 27.484375 
z
M 52.203125 31.203125 
L 52.203125 0 
L 43.21875 0 
L 43.21875 8.296875 
Q 40.140625 3.328125 35.546875 0.953125 
Q 30.953125 -1.421875 24.3125 -1.421875 
Q 15.921875 -1.421875 10.953125 3.296875 
Q 6 8.015625 6 15.921875 
Q 6 25.140625 12.171875 29.828125 
Q 18.359375 34.515625 30.609375 34.515625 
L 43.21875 34.515625 
L 43.21875 35.40625 
Q 43.21875 41.609375 39.140625 45 
Q 35.0625 48.390625 27.6875 48.390625 
Q 23 48.390625 18.546875 47.265625 
Q 14.109375 46.140625 10.015625 43.890625 
L 10.015625 52.203125 
Q 14.9375 54.109375 19.578125 55.046875 
Q 24.21875 56 28.609375 56 
Q 40.484375 56 46.34375 49.84375 
Q 52.203125 43.703125 52.203125 31.203125 
" id="DejaVuSans-61"/>
     <path d="M 2.984375 54.6875 
L 12.5 54.6875 
L 29.59375 8.796875 
L 46.6875 54.6875 
L 56.203125 54.6875 
L 35.6875 0 
L 23.484375 0 
z
" id="DejaVuSans-76"/>
     <path d="M 9.8125 72.90625 
L 24.515625 72.90625 
L 43.109375 23.296875 
L 61.8125 72.90625 
L 76.515625 72.90625 
L 76.515625 0 
L 66.890625 0 
L 66.890625 64.015625 
L 48.09375 14.015625 
L 38.1875 14.015625 
L 19.390625 64.015625 
L 19.390625 0 
L 9.8125 0 
z
" id="DejaVuSans-4d"/>
     <path d="M 64.40625 67.28125 
L 64.40625 56.890625 
Q 59.421875 61.53125 53.78125 63.8125 
Q 48.140625 66.109375 41.796875 66.109375 
Q 29.296875 66.109375 22.65625 58.46875 
Q 16.015625 50.828125 16.015625 36.375 
Q 16.015625 21.96875 22.65625 14.328125 
Q 29.296875 6.6875 41.796875 6.6875 
Q 48.140625 6.6875 53.78125 8.984375 
Q 59.421875 11.28125 64.40625 15.921875 
L 64.40625 5.609375 
Q 59.234375 2.09375 53.4375 0.328125 
Q 47.65625 -1.421875 41.21875 -1.421875 
Q 24.65625 -1.421875 15.125 8.703125 
Q 5.609375 18.84375 5.609375 36.375 
Q 5.609375 53.953125 15.125 64.078125 
Q 24.65625 74.21875 41.21875 74.21875 
Q 47.75 74.21875 53.53125 72.484375 
Q 59.328125 70.75 64.40625 67.28125 
" id="DejaVuSans-43"/>
     <path d="M 8.6875 72.90625 
L 18.609375 72.90625 
L 18.609375 28.609375 
Q 18.609375 16.890625 22.84375 11.734375 
Q 27.09375 6.59375 36.625 6.59375 
Q 46.09375 6.59375 50.34375 11.734375 
Q 54.59375 16.890625 54.59375 28.609375 
L 54.59375 72.90625 
L 64.5 72.90625 
L 64.5 27.390625 
Q 64.5 13.140625 57.4375 5.859375 
Q 50.390625 -1.421875 36.625 -1.421875 
Q 22.796875 -1.421875 15.734375 5.859375 
Q 8.6875 13.140625 8.6875 27.390625 
z
" id="DejaVuSans-55"/>
     <path d="M 54.890625 33.015625 
L 54.890625 0 
L 45.90625 0 
L 45.90625 32.71875 
Q 45.90625 40.484375 42.875 44.328125 
Q 39.84375 48.1875 33.796875 48.1875 
Q 26.515625 48.1875 22.3125 43.546875 
Q 18.109375 38.921875 18.109375 30.90625 
L 18.109375 0 
L 9.078125 0 
L 9.078125 54.6875 
L 18.109375 54.6875 
L 18.109375 46.1875 
Q 21.34375 51.125 25.703125 53.5625 
Q 30.078125 56 35.796875 56 
Q 45.21875 56 50.046875 50.171875 
Q 54.890625 44.34375 54.890625 33.015625 
" id="DejaVuSans-6e"/>
     <path d="M 48.78125 52.59375 
L 48.78125 44.1875 
Q 44.96875 46.296875 41.140625 47.34375 
Q 37.3125 48.390625 33.40625 48.390625 
Q 24.65625 48.390625 19.8125 42.84375 
Q 14.984375 37.3125 14.984375 27.296875 
Q 14.984375 17.28125 19.8125 11.734375 
Q 24.65625 6.203125 33.40625 6.203125 
Q 37.3125 6.203125 41.140625 7.25 
Q 44.96875 8.296875 48.78125 10.40625 
L 48.78125 2.09375 
Q 45.015625 0.34375 40.984375 -0.53125 
Q 36.96875 -1.421875 32.421875 -1.421875 
Q 20.0625 -1.421875 12.78125 6.34375 
Q 5.515625 14.109375 5.515625 27.296875 
Q 5.515625 40.671875 12.859375 48.328125 
Q 20.21875 56 33.015625 56 
Q 37.15625 56 41.109375 55.140625 
Q 45.0625 54.296875 48.78125 52.59375 
" id="DejaVuSans-63"/>
     <path d="M 41.109375 46.296875 
Q 39.59375 47.171875 37.8125 47.578125 
Q 36.03125 48 33.890625 48 
Q 26.265625 48 22.1875 43.046875 
Q 18.109375 38.09375 18.109375 28.8125 
L 18.109375 0 
L 9.078125 0 
L 9.078125 54.6875 
L 18.109375 54.6875 
L 18.109375 46.1875 
Q 20.953125 51.171875 25.484375 53.578125 
Q 30.03125 56 36.53125 56 
Q 37.453125 56 38.578125 55.875 
Q 39.703125 55.765625 41.0625 55.515625 
z
" id="DejaVuSans-72"/>
     <path d="M 9.421875 54.6875 
L 18.40625 54.6875 
L 18.40625 0 
L 9.421875 0 
z
M 9.421875 75.984375 
L 18.40625 75.984375 
L 18.40625 64.59375 
L 9.421875 64.59375 
z
" id="DejaVuSans-69"/>
     <path d="M 32.171875 -5.078125 
Q 28.375 -14.84375 24.75 -17.8125 
Q 21.140625 -20.796875 15.09375 -20.796875 
L 7.90625 -20.796875 
L 7.90625 -13.28125 
L 13.1875 -13.28125 
Q 16.890625 -13.28125 18.9375 -11.515625 
Q 21 -9.765625 23.484375 -3.21875 
L 25.09375 0.875 
L 2.984375 54.6875 
L 12.5 54.6875 
L 29.59375 11.921875 
L 46.6875 54.6875 
L 56.203125 54.6875 
z
" id="DejaVuSans-79"/>
    </defs>
    <g transform="translate(118.112813 35.472)scale(0.12 -0.12)">
     <use xlink:href="#DejaVuSans-50"/>
     <use x="60.302734" xlink:href="#DejaVuSans-6c"/>
     <use x="88.085938" xlink:href="#DejaVuSans-6f"/>
     <use x="149.267578" xlink:href="#DejaVuSans-74"/>
     <use x="188.476562" xlink:href="#DejaVuSans-20"/>
     <use x="220.263672" xlink:href="#DejaVuSans-6f"/>
     <use x="281.445312" xlink:href="#DejaVuSans-66"/>
     <use x="316.650391" xlink:href="#DejaVuSans-20"/>
     <use x="348.4375" xlink:href="#DejaVuSans-54"/>
     <use x="409.255859" xlink:href="#DejaVuSans-65"/>
     <use x="470.779297" xlink:href="#DejaVuSans-73"/>
     <use x="522.878906" xlink:href="#DejaVuSans-74"/>
     <use x="562.087891" xlink:href="#DejaVuSans-20"/>
     <use x="593.875" xlink:href="#DejaVuSans-44"/>
     <use x="670.876953" xlink:href="#DejaVuSans-61"/>
     <use x="732.15625" xlink:href="#DejaVuSans-74"/>
     <use x="771.365234" xlink:href="#DejaVuSans-61"/>
     <use x="832.644531" xlink:href="#DejaVuSans-20"/>
     <use x="864.431641" xlink:href="#DejaVuSans-76"/>
     <use x="923.611328" xlink:href="#DejaVuSans-73"/>
     <use x="975.710938" xlink:href="#DejaVuSans-20"/>
     <use x="1007.498047" xlink:href="#DejaVuSans-4d"/>
     <use x="1093.777344" xlink:href="#DejaVuSans-43"/>
     <use x="1163.601562" xlink:href="#DejaVuSans-4d"/>
     <use x="1249.880859" xlink:href="#DejaVuSans-43"/>
     <use x="1319.705078" xlink:href="#DejaVuSans-20"/>
     <use x="1351.492188" xlink:href="#DejaVuSans-55"/>
     <use x="1424.685547" xlink:href="#DejaVuSans-6e"/>
     <use x="1488.064453" xlink:href="#DejaVuSans-63"/>
     <use x="1543.044922" xlink:href="#DejaVuSans-65"/>
     <use x="1604.568359" xlink:href="#DejaVuSans-72"/>
     <use x="1645.681641" xlink:href="#DejaVuSans-74"/>
     <use x="1684.890625" xlink:href="#DejaVuSans-61"/>
     <use x="1746.169922" xlink:href="#DejaVuSans-69"/>
     <use x="1773.953125" xlink:href="#DejaVuSans-6e"/>
     <use x="1837.332031" xlink:href="#DejaVuSans-74"/>
     <use x="1876.541016" xlink:href="#DejaVuSans-79"/>
     <use x="1935.720703" xlink:href="#DejaVuSans-20"/>
    </g>
   </g>
   <g id="legend_1">
    <g id="patch_7">
     <path d="M 277.843437 108.1845 
L 407.72 108.1845 
Q 409.72 108.1845 409.72 106.1845 
L 409.72 48.472 
Q 409.72 46.472 407.72 46.472 
L 277.843437 46.472 
Q 275.843437 46.472 275.843437 48.472 
L 275.843437 106.1845 
Q 275.843437 108.1845 277.843437 108.1845 
z
" style="fill:#ffffff;opacity:0.8;stroke:#cccccc;stroke-linejoin:miter;"/>
    </g>
    <g id="line2d_18">
     <path d="M 279.843437 54.570438 
L 299.843437 54.570438 
" style="fill:none;stroke:#1f77b4;stroke-linecap:square;stroke-width:1.5;"/>
    </g>
    <g id="line2d_19"/>
    <g id="text_15">
     <!-- actual -->
     <defs>
      <path d="M 8.5 21.578125 
L 8.5 54.6875 
L 17.484375 54.6875 
L 17.484375 21.921875 
Q 17.484375 14.15625 20.5 10.265625 
Q 23.53125 6.390625 29.59375 6.390625 
Q 36.859375 6.390625 41.078125 11.03125 
Q 45.3125 15.671875 45.3125 23.6875 
L 45.3125 54.6875 
L 54.296875 54.6875 
L 54.296875 0 
L 45.3125 0 
L 45.3125 8.40625 
Q 42.046875 3.421875 37.71875 1 
Q 33.40625 -1.421875 27.6875 -1.421875 
Q 18.265625 -1.421875 13.375 4.4375 
Q 8.5 10.296875 8.5 21.578125 
M 31.109375 56 
z
" id="DejaVuSans-75"/>
     </defs>
     <g transform="translate(307.843437 58.070438)scale(0.1 -0.1)">
      <use xlink:href="#DejaVuSans-61"/>
      <use x="61.279297" xlink:href="#DejaVuSans-63"/>
      <use x="116.259766" xlink:href="#DejaVuSans-74"/>
      <use x="155.46875" xlink:href="#DejaVuSans-75"/>
      <use x="218.847656" xlink:href="#DejaVuSans-61"/>
      <use x="280.126953" xlink:href="#DejaVuSans-6c"/>
     </g>
    </g>
    <g id="line2d_20">
     <path d="M 279.843437 69.248563 
L 299.843437 69.248563 
" style="fill:none;stroke:#ff7f0e;stroke-linecap:square;stroke-width:1.5;"/>
    </g>
    <g id="line2d_21"/>
    <g id="text_16">
     <!-- pred. (mean) -->
     <defs>
      <path d="M 18.109375 8.203125 
L 18.109375 -20.796875 
L 9.078125 -20.796875 
L 9.078125 54.6875 
L 18.109375 54.6875 
L 18.109375 46.390625 
Q 20.953125 51.265625 25.265625 53.625 
Q 29.59375 56 35.59375 56 
Q 45.5625 56 51.78125 48.09375 
Q 58.015625 40.1875 58.015625 27.296875 
Q 58.015625 14.40625 51.78125 6.484375 
Q 45.5625 -1.421875 35.59375 -1.421875 
Q 29.59375 -1.421875 25.265625 0.953125 
Q 20.953125 3.328125 18.109375 8.203125 
M 48.6875 27.296875 
Q 48.6875 37.203125 44.609375 42.84375 
Q 40.53125 48.484375 33.40625 48.484375 
Q 26.265625 48.484375 22.1875 42.84375 
Q 18.109375 37.203125 18.109375 27.296875 
Q 18.109375 17.390625 22.1875 11.75 
Q 26.265625 6.109375 33.40625 6.109375 
Q 40.53125 6.109375 44.609375 11.75 
Q 48.6875 17.390625 48.6875 27.296875 
" id="DejaVuSans-70"/>
      <path d="M 45.40625 46.390625 
L 45.40625 75.984375 
L 54.390625 75.984375 
L 54.390625 0 
L 45.40625 0 
L 45.40625 8.203125 
Q 42.578125 3.328125 38.25 0.953125 
Q 33.9375 -1.421875 27.875 -1.421875 
Q 17.96875 -1.421875 11.734375 6.484375 
Q 5.515625 14.40625 5.515625 27.296875 
Q 5.515625 40.1875 11.734375 48.09375 
Q 17.96875 56 27.875 56 
Q 33.9375 56 38.25 53.625 
Q 42.578125 51.265625 45.40625 46.390625 
M 14.796875 27.296875 
Q 14.796875 17.390625 18.875 11.75 
Q 22.953125 6.109375 30.078125 6.109375 
Q 37.203125 6.109375 41.296875 11.75 
Q 45.40625 17.390625 45.40625 27.296875 
Q 45.40625 37.203125 41.296875 42.84375 
Q 37.203125 48.484375 30.078125 48.484375 
Q 22.953125 48.484375 18.875 42.84375 
Q 14.796875 37.203125 14.796875 27.296875 
" id="DejaVuSans-64"/>
      <path d="M 31 75.875 
Q 24.46875 64.65625 21.28125 53.65625 
Q 18.109375 42.671875 18.109375 31.390625 
Q 18.109375 20.125 21.3125 9.0625 
Q 24.515625 -2 31 -13.1875 
L 23.1875 -13.1875 
Q 15.875 -1.703125 12.234375 9.375 
Q 8.59375 20.453125 8.59375 31.390625 
Q 8.59375 42.28125 12.203125 53.3125 
Q 15.828125 64.359375 23.1875 75.875 
z
" id="DejaVuSans-28"/>
      <path d="M 52 44.1875 
Q 55.375 50.25 60.0625 53.125 
Q 64.75 56 71.09375 56 
Q 79.640625 56 84.28125 50.015625 
Q 88.921875 44.046875 88.921875 33.015625 
L 88.921875 0 
L 79.890625 0 
L 79.890625 32.71875 
Q 79.890625 40.578125 77.09375 44.375 
Q 74.3125 48.1875 68.609375 48.1875 
Q 61.625 48.1875 57.5625 43.546875 
Q 53.515625 38.921875 53.515625 30.90625 
L 53.515625 0 
L 44.484375 0 
L 44.484375 32.71875 
Q 44.484375 40.625 41.703125 44.40625 
Q 38.921875 48.1875 33.109375 48.1875 
Q 26.21875 48.1875 22.15625 43.53125 
Q 18.109375 38.875 18.109375 30.90625 
L 18.109375 0 
L 9.078125 0 
L 9.078125 54.6875 
L 18.109375 54.6875 
L 18.109375 46.1875 
Q 21.1875 51.21875 25.484375 53.609375 
Q 29.78125 56 35.6875 56 
Q 41.65625 56 45.828125 52.96875 
Q 50 49.953125 52 44.1875 
" id="DejaVuSans-6d"/>
      <path d="M 8.015625 75.875 
L 15.828125 75.875 
Q 23.140625 64.359375 26.78125 53.3125 
Q 30.421875 42.28125 30.421875 31.390625 
Q 30.421875 20.453125 26.78125 9.375 
Q 23.140625 -1.703125 15.828125 -13.1875 
L 8.015625 -13.1875 
Q 14.5 -2 17.703125 9.0625 
Q 20.90625 20.125 20.90625 31.390625 
Q 20.90625 42.671875 17.703125 53.65625 
Q 14.5 64.65625 8.015625 75.875 
" id="DejaVuSans-29"/>
     </defs>
     <g transform="translate(307.843437 72.748563)scale(0.1 -0.1)">
      <use xlink:href="#DejaVuSans-70"/>
      <use x="63.476562" xlink:href="#DejaVuSans-72"/>
      <use x="104.558594" xlink:href="#DejaVuSans-65"/>
      <use x="166.082031" xlink:href="#DejaVuSans-64"/>
      <use x="229.558594" xlink:href="#DejaVuSans-2e"/>
      <use x="261.345703" xlink:href="#DejaVuSans-20"/>
      <use x="293.132812" xlink:href="#DejaVuSans-28"/>
      <use x="332.146484" xlink:href="#DejaVuSans-6d"/>
      <use x="429.558594" xlink:href="#DejaVuSans-65"/>
      <use x="491.082031" xlink:href="#DejaVuSans-61"/>
      <use x="552.361328" xlink:href="#DejaVuSans-6e"/>
      <use x="615.740234" xlink:href="#DejaVuSans-29"/>
     </g>
    </g>
    <g id="line2d_22">
     <path d="M 279.843437 83.926688 
L 299.843437 83.926688 
" style="fill:none;stroke:#2ca02c;stroke-linecap:square;stroke-width:1.5;"/>
    </g>
    <g id="line2d_23"/>
    <g id="text_17">
     <!-- pred.(5th percen.) -->
     <defs>
      <path d="M 54.890625 33.015625 
L 54.890625 0 
L 45.90625 0 
L 45.90625 32.71875 
Q 45.90625 40.484375 42.875 44.328125 
Q 39.84375 48.1875 33.796875 48.1875 
Q 26.515625 48.1875 22.3125 43.546875 
Q 18.109375 38.921875 18.109375 30.90625 
L 18.109375 0 
L 9.078125 0 
L 9.078125 75.984375 
L 18.109375 75.984375 
L 18.109375 46.1875 
Q 21.34375 51.125 25.703125 53.5625 
Q 30.078125 56 35.796875 56 
Q 45.21875 56 50.046875 50.171875 
Q 54.890625 44.34375 54.890625 33.015625 
" id="DejaVuSans-68"/>
     </defs>
     <g transform="translate(307.843437 87.426688)scale(0.1 -0.1)">
      <use xlink:href="#DejaVuSans-70"/>
      <use x="63.476562" xlink:href="#DejaVuSans-72"/>
      <use x="104.558594" xlink:href="#DejaVuSans-65"/>
      <use x="166.082031" xlink:href="#DejaVuSans-64"/>
      <use x="229.558594" xlink:href="#DejaVuSans-2e"/>
      <use x="261.345703" xlink:href="#DejaVuSans-28"/>
      <use x="300.359375" xlink:href="#DejaVuSans-35"/>
      <use x="363.982422" xlink:href="#DejaVuSans-74"/>
      <use x="403.191406" xlink:href="#DejaVuSans-68"/>
      <use x="466.570312" xlink:href="#DejaVuSans-20"/>
      <use x="498.357422" xlink:href="#DejaVuSans-70"/>
      <use x="561.833984" xlink:href="#DejaVuSans-65"/>
      <use x="623.357422" xlink:href="#DejaVuSans-72"/>
      <use x="664.439453" xlink:href="#DejaVuSans-63"/>
      <use x="719.419922" xlink:href="#DejaVuSans-65"/>
      <use x="780.943359" xlink:href="#DejaVuSans-6e"/>
      <use x="844.322266" xlink:href="#DejaVuSans-2e"/>
      <use x="876.109375" xlink:href="#DejaVuSans-29"/>
     </g>
    </g>
    <g id="line2d_24">
     <path d="M 279.843437 98.604813 
L 299.843437 98.604813 
" style="fill:none;stroke:#d62728;stroke-linecap:square;stroke-width:1.5;"/>
    </g>
    <g id="line2d_25"/>
    <g id="text_18">
     <!-- pred.(95th percen.) -->
     <defs>
      <path d="M 10.984375 1.515625 
L 10.984375 10.5 
Q 14.703125 8.734375 18.5 7.8125 
Q 22.3125 6.890625 25.984375 6.890625 
Q 35.75 6.890625 40.890625 13.453125 
Q 46.046875 20.015625 46.78125 33.40625 
Q 43.953125 29.203125 39.59375 26.953125 
Q 35.25 24.703125 29.984375 24.703125 
Q 19.046875 24.703125 12.671875 31.3125 
Q 6.296875 37.9375 6.296875 49.421875 
Q 6.296875 60.640625 12.9375 67.421875 
Q 19.578125 74.21875 30.609375 74.21875 
Q 43.265625 74.21875 49.921875 64.515625 
Q 56.59375 54.828125 56.59375 36.375 
Q 56.59375 19.140625 48.40625 8.859375 
Q 40.234375 -1.421875 26.421875 -1.421875 
Q 22.703125 -1.421875 18.890625 -0.6875 
Q 15.09375 0.046875 10.984375 1.515625 
M 30.609375 32.421875 
Q 37.25 32.421875 41.125 36.953125 
Q 45.015625 41.5 45.015625 49.421875 
Q 45.015625 57.28125 41.125 61.84375 
Q 37.25 66.40625 30.609375 66.40625 
Q 23.96875 66.40625 20.09375 61.84375 
Q 16.21875 57.28125 16.21875 49.421875 
Q 16.21875 41.5 20.09375 36.953125 
Q 23.96875 32.421875 30.609375 32.421875 
" id="DejaVuSans-39"/>
     </defs>
     <g transform="translate(307.843437 102.104813)scale(0.1 -0.1)">
      <use xlink:href="#DejaVuSans-70"/>
      <use x="63.476562" xlink:href="#DejaVuSans-72"/>
      <use x="104.558594" xlink:href="#DejaVuSans-65"/>
      <use x="166.082031" xlink:href="#DejaVuSans-64"/>
      <use x="229.558594" xlink:href="#DejaVuSans-2e"/>
      <use x="261.345703" xlink:href="#DejaVuSans-28"/>
      <use x="300.359375" xlink:href="#DejaVuSans-39"/>
      <use x="363.982422" xlink:href="#DejaVuSans-35"/>
      <use x="427.605469" xlink:href="#DejaVuSans-74"/>
      <use x="466.814453" xlink:href="#DejaVuSans-68"/>
      <use x="530.193359" xlink:href="#DejaVuSans-20"/>
      <use x="561.980469" xlink:href="#DejaVuSans-70"/>
      <use x="625.457031" xlink:href="#DejaVuSans-65"/>
      <use x="686.980469" xlink:href="#DejaVuSans-72"/>
      <use x="728.0625" xlink:href="#DejaVuSans-63"/>
      <use x="783.042969" xlink:href="#DejaVuSans-65"/>
      <use x="844.566406" xlink:href="#DejaVuSans-6e"/>
      <use x="907.945312" xlink:href="#DejaVuSans-2e"/>
      <use x="939.732422" xlink:href="#DejaVuSans-29"/>
     </g>
    </g>
   </g>
  </g>
 </g>
 <defs>
  <clipPath id="p02e7d28e10">
   <rect height="266.112" width="357.12" x="57.6" y="41.472"/>
  </clipPath>
 </defs>
</svg>
